  0
SECTION
  2
HEADER
  9
$ACADVER
  1
AC1024
  9
$ACADMAINTVER
 70
6
  9
$DWGCODEPAGE
  3
ANSI_1252
  9
$LASTSAVEDBY
  1
ezdxf
  9
$INSBASE
 10
0.0
 20
0.0
 30
0.0
  9
$EXTMIN
 10
1e+20
 20
1e+20
 30
1e+20
  9
$EXTMAX
 10
-1e+20
 20
-1e+20
 30
-1e+20
  9
$LIMMIN
 10
0.0
 20
0.0
  9
$LIMMAX
 10
420.0
 20
297.0
  9
$ORTHOMODE
 70
0
  9
$REGENMODE
 70
1
  9
$FILLMODE
 70
1
  9
$QTEXTMODE
 70
0
  9
$MIRRTEXT
 70
1
  9
$LTSCALE
 40
1.0
  9
$ATTMODE
 70
1
  9
$TEXTSIZE
 40
2.5
  9
$TRACEWID
 40
1.0
  9
$TEXTSTYLE
  7
OpenSans
  9
$CLAYER
  8
0
  9
$CELTYPE
  6
ByLayer
  9
$CECOLOR
 62
256
  9
$CELTSCALE
 40
1.0
  9
$DISPSILH
 70
0
  9
$DIMSCALE
 40
1.0
  9
$DIMASZ
 40
0.175
  9
$DIMEXO
 40
0.125
  9
$DIMDLI
 40
3.75
  9
$DIMRND
 40
0.0
  9
$DIMDLE
 40
0.0
  9
$DIMEXE
 40
0.375
  9
$DIMTP
 40
0.0
  9
$DIMTM
 40
0.0
  9
$DIMTXT
 40
0.25
  9
$DIMCEN
 40
2.5
  9
$DIMTSZ
 40
0.0
  9
$DIMTOL
 70
0
  9
$DIMLIM
 70
0
  9
$DIMTIH
 70
0
  9
$DIMTOH
 70
0
  9
$DIMSE1
 70
0
  9
$DIMSE2
 70
0
  9
$DIMTAD
 70
1
  9
$DIMZIN
 70
12
  9
$DIMBLK
  1
ARCHTICK
  9
$DIMASO
 70
1
  9
$DIMSHO
 70
1
  9
$DIMPOST
  1

  9
$DIMAPOST
  1

  9
$DIMALT
 70
0
  9
$DIMALTD
 70
3
  9
$DIMALTF
 40
0.03937007874
  9
$DIMLFAC
 40
100.0
  9
$DIMTOFL
 70
1
  9
$DIMTVP
 40
0.0
  9
$DIMTIX
 70
0
  9
$DIMSOXD
 70
0
  9
$DIMSAH
 70
0
  9
$DIMBLK1
  1

  9
$DIMBLK2
  1

  9
$DIMSTYLE
  2
EZDXF
  9
$DIMCLRD
 70
0
  9
$DIMCLRE
 70
0
  9
$DIMCLRT
 70
0
  9
$DIMTFAC
 40
0.5
  9
$DIMGAP
 40
0.1
  9
$DIMJUST
 70
0
  9
$DIMSD1
 70
0
  9
$DIMSD2
 70
0
  9
$DIMTOLJ
 70
0
  9
$DIMTZIN
 70
8
  9
$DIMALTZ
 70
0
  9
$DIMALTTZ
 70
0
  9
$DIMUPT
 70
1
  9
$DIMDEC
 70
2
  9
$DIMTDEC
 70
2
  9
$DIMALTU
 70
2
  9
$DIMALTTD
 70
3
  9
$DIMTXSTY
  7
OpenSansCondensed-Light
  9
$DIMAUNIT
 70
0
  9
$DIMADEC
 70
2
  9
$DIMALTRND
 40
0.0
  9
$DIMAZIN
 70
3
  9
$DIMDSEP
 70
46
  9
$DIMATFIT
 70
3
  9
$DIMFRAC
 70
0
  9
$DIMLDRBLK
  1

  9
$DIMLUNIT
 70
2
  9
$DIMLWD
 70
-2
  9
$DIMLWE
 70
-2
  9
$DIMTMOVE
 70
2
  9
$DIMFXL
 40
1.0
  9
$DIMFXLON
 70
0
  9
$DIMJOGANG
 40
0.785398163397
  9
$DIMTFILL
 70
0
  9
$DIMTFILLCLR
 70
0
  9
$DIMARCSYM
 70
0
  9
$DIMLTYPE
  6

  9
$DIMLTEX1
  6

  9
$DIMLTEX2
  6

  9
$DIMTXTDIRECTION
 70
0
  9
$LUNITS
 70
2
  9
$LUPREC
 70
4
  9
$SKETCHINC
 40
1.0
  9
$FILLETRAD
 40
10.0
  9
$AUNITS
 70
0
  9
$AUPREC
 70
2
  9
$MENU
  1
.
  9
$ELEVATION
 40
0.0
  9
$PELEVATION
 40
0.0
  9
$THICKNESS
 40
0.0
  9
$LIMCHECK
 70
0
  9
$CHAMFERA
 40
0.0
  9
$CHAMFERB
 40
0.0
  9
$CHAMFERC
 40
0.0
  9
$CHAMFERD
 40
0.0
  9
$SKPOLY
 70
0
  9
$TDCREATE
 40
2461300.647847222
  9
$TDUCREATE
 40
2458532.153996898
  9
$TDUPDATE
 40
2461300.6479282407
  9
$TDUUPDATE
 40
2458532.1544311
  9
$TDINDWG
 40
0.0
  9
$TDUSRTIMER
 40
0.0
  9
$USRTIMER
 70
1
  9
$ANGBASE
 50
0.0
  9
$ANGDIR
 70
0
  9
$PDMODE
 70
0
  9
$PDSIZE
 40
0.0
  9
$PLINEWID
 40
0.0
  9
$SPLFRAME
 70
0
  9
$SPLINETYPE
 70
6
  9
$SPLINESEGS
 70
8
  9
$HANDSEED
  5
101
  9
$SURFTAB1
 70
6
  9
$SURFTAB2
 70
6
  9
$SURFTYPE
 70
6
  9
$SURFU
 70
6
  9
$SURFV
 70
6
  9
$UCSBASE
  2

  9
$UCSNAME
  2

  9
$UCSORG
 10
0.0
 20
0.0
 30
0.0
  9
$UCSXDIR
 10
1.0
 20
0.0
 30
0.0
  9
$UCSYDIR
 10
0.0
 20
1.0
 30
0.0
  9
$UCSORTHOREF
  2

  9
$UCSORTHOVIEW
 70
0
  9
$UCSORGTOP
 10
0.0
 20
0.0
 30
0.0
  9
$UCSORGBOTTOM
 10
0.0
 20
0.0
 30
0.0
  9
$UCSORGLEFT
 10
0.0
 20
0.0
 30
0.0
  9
$UCSORGRIGHT
 10
0.0
 20
0.0
 30
0.0
  9
$UCSORGFRONT
 10
0.0
 20
0.0
 30
0.0
  9
$UCSORGBACK
 10
0.0
 20
0.0
 30
0.0
  9
$PUCSBASE
  2

  9
$PUCSNAME
  2

  9
$PUCSORG
 10
0.0
 20
0.0
 30
0.0
  9
$PUCSXDIR
 10
1.0
 20
0.0
 30
0.0
  9
$PUCSYDIR
 10
0.0
 20
1.0
 30
0.0
  9
$PUCSORTHOREF
  2

  9
$PUCSORTHOVIEW
 70
0
  9
$PUCSORGTOP
 10
0.0
 20
0.0
 30
0.0
  9
$PUCSORGBOTTOM
 10
0.0
 20
0.0
 30
0.0
  9
$PUCSORGLEFT
 10
0.0
 20
0.0
 30
0.0
  9
$PUCSORGRIGHT
 10
0.0
 20
0.0
 30
0.0
  9
$PUCSORGFRONT
 10
0.0
 20
0.0
 30
0.0
  9
$PUCSORGBACK
 10
0.0
 20
0.0
 30
0.0
  9
$USERI1
 70
0
  9
$USERI2
 70
0
  9
$USERI3
 70
0
  9
$USERI4
 70
0
  9
$USERI5
 70
0
  9
$USERR1
 40
0.0
  9
$USERR2
 40
0.0
  9
$USERR3
 40
0.0
  9
$USERR4
 40
0.0
  9
$USERR5
 40
0.0
  9
$WORLDVIEW
 70
1
  9
$SHADEDGE
 70
3
  9
$SHADEDIF
 70
70
  9
$TILEMODE
 70
1
  9
$MAXACTVP
 70
64
  9
$PINSBASE
 10
0.0
 20
0.0
 30
0.0
  9
$PLIMCHECK
 70
0
  9
$PEXTMIN
 10
1e+20
 20
1e+20
 30
1e+20
  9
$PEXTMAX
 10
-1e+20
 20
-1e+20
 30
-1e+20
  9
$PLIMMIN
 10
0.0
 20
0.0
  9
$PLIMMAX
 10
420.0
 20
297.0
  9
$UNITMODE
 70
0
  9
$VISRETAIN
 70
1
  9
$PLINEGEN
 70
0
  9
$PSLTSCALE
 70
1
  9
$TREEDEPTH
 70
3020
  9
$CMLSTYLE
  2
Standard
  9
$CMLJUST
 70
0
  9
$CMLSCALE
 40
20.0
  9
$PROXYGRAPHICS
 70
1
  9
$MEASUREMENT
 70
1
  9
$CELWEIGHT
370
-1
  9
$ENDCAPS
280
0
  9
$JOINSTYLE
280
0
  9
$LWDISPLAY
290
0
  9
$INSUNITS
 70
6
  9
$HYPERLINKBASE
  1

  9
$STYLESHEET
  1

  9
$XEDIT
290
1
  9
$CEPSNTYPE
380
0
  9
$PSTYLEMODE
290
1
  9
$FINGERPRINTGUID
  2
{D39D53AE-458D-40EE-A1B3-BE03B86A650F}
  9
$VERSIONGUID
  2
{8AFCDCA1-4BD0-40AF-AF7E-B525C7AC01D2}
  9
$EXTNAMES
290
1
  9
$PSVPSCALE
 40
0.0
  9
$OLESTARTUP
290
0
  9
$SORTENTS
280
127
  9
$INDEXCTL
280
0
  9
$HIDETEXT
280
1
  9
$XCLIPFRAME
280
1
  9
$HALOGAP
280
0
  9
$OBSCOLOR
 70
257
  9
$OBSLTYPE
280
0
  9
$INTERSECTIONDISPLAY
280
0
  9
$INTERSECTIONCOLOR
 70
257
  9
$DIMASSOC
280
2
  9
$PROJECTNAME
  1

  9
$CAMERADISPLAY
290
0
  9
$LENSLENGTH
 40
50.0
  9
$CAMERAHEIGHT
 40
0.0
  9
$STEPSPERSEC
 40
24.0
  9
$STEPSIZE
 40
100.0
  9
$3DDWFPREC
 40
2.0
  9
$PSOLWIDTH
 40
0.005
  9
$PSOLHEIGHT
 40
0.08
  9
$LOFTANG1
 40
1.570796326795
  9
$LOFTANG2
 40
1.570796326795
  9
$LOFTMAG1
 40
0.0
  9
$LOFTMAG2
 40
0.0
  9
$LOFTPARAM
 70
7
  9
$LOFTNORMALS
280
1
  9
$LATITUDE
 40
37.795
  9
$LONGITUDE
 40
-122.394
  9
$NORTHDIRECTION
 40
0.0
  9
$TIMEZONE
 70
-8000
  9
$LIGHTGLYPHDISPLAY
280
1
  9
$TILEMODELIGHTSYNCH
280
1
  9
$CMATERIAL
347
20
  9
$SOLIDHIST
280
0
  9
$SHOWHIST
280
1
  9
$DWFFRAME
280
2
  9
$DGNFRAME
280
2
  9
$REALWORLDSCALE
290
1
  9
$INTERFERECOLOR
 62
256
  9
$CSHADOW
280
0
  9
$SHADOWPLANELOCATION
 40
0.0
  0
ENDSEC
  0
SECTION
  2
CLASSES
  0
CLASS
  1
ACDBDICTIONARYWDFLT
  2
AcDbDictionaryWithDefault
  3
ObjectDBX Classes
 90
0
 91
0
280
0
281
0
  0
CLASS
  1
SUN
  2
AcDbSun
  3
SCENEOE
 90
1153
 91
0
280
0
281
0
  0
CLASS
  1
VISUALSTYLE
  2
AcDbVisualStyle
  3
ObjectDBX Classes
 90
4095
 91
0
280
0
281
0
  0
CLASS
  1
MATERIAL
  2
AcDbMaterial
  3
ObjectDBX Classes
 90
1153
 91
0
280
0
281
0
  0
CLASS
  1
SCALE
  2
AcDbScale
  3
ObjectDBX Classes
 90
1153
 91
0
280
0
281
0
  0
CLASS
  1
TABLESTYLE
  2
AcDbTableStyle
  3
ObjectDBX Classes
 90
4095
 91
0
280
0
281
0
  0
CLASS
  1
MLEADERSTYLE
  2
AcDbMLeaderStyle
  3
ACDB_MLEADERSTYLE_CLASS
 90
4095
 91
0
280
0
281
0
  0
CLASS
  1
DICTIONARYVAR
  2
AcDbDictionaryVar
  3
ObjectDBX Classes
 90
0
 91
0
280
0
281
0
  0
CLASS
  1
CELLSTYLEMAP
  2
AcDbCellStyleMap
  3
ObjectDBX Classes
 90
1152
 91
0
280
0
281
0
  0
CLASS
  1
MENTALRAYRENDERSETTINGS
  2
AcDbMentalRayRenderSettings
  3
SCENEOE
 90
1024
 91
0
280
0
281
0
  0
CLASS
  1
ACDBDETAILVIEWSTYLE
  2
AcDbDetailViewStyle
  3
ObjectDBX Classes
 90
1025
 91
0
280
0
281
0
  0
CLASS
  1
ACDBSECTIONVIEWSTYLE
  2
AcDbSectionViewStyle
  3
ObjectDBX Classes
 90
1025
 91
0
280
0
281
0
  0
CLASS
  1
RASTERVARIABLES
  2
AcDbRasterVariables
  3
ISM
 90
0
 91
0
280
0
281
0
  0
CLASS
  1
LAYOUT
  2
AcDbLayout
  3
ObjectDBX Classes
 90
0
 91
0
280
0
281
0
  0
CLASS
  1
ACDBPLACEHOLDER
  2
AcDbPlaceHolder
  3
ObjectDBX Classes
 90
0
 91
0
280
0
281
0
  0
ENDSEC
  0
SECTION
  2
TABLES
  0
TABLE
  2
VPORT
  5
8
330
0
100
AcDbSymbolTable
 70
1
  0
VPORT
  5
23
330
8
100
AcDbSymbolTableRecord
100
AcDbViewportTableRecord
  2
*Active
 70
0
 10
0.0
 20
0.0
 11
1.0
 21
1.0
 12
0.0
 22
0.0
 13
0.0
 23
0.0
 14
0.5
 24
0.5
 15
0.5
 25
0.5
 16
0.0
 26
0.0
 36
1.0
 17
0.0
 27
0.0
 37
0.0
 40
1000.0
 41
1.34
 42
50.0
 43
0.0
 44
0.0
 50
0.0
 51
0.0
 71
0
 72
1000
 73
1
 74
3
 75
0
 76
0
 77
0
 78
0
281
0
 65
0
146
0.0
  0
ENDTAB
  0
TABLE
  2
LTYPE
  5
2
330
0
100
AcDbSymbolTable
 70
21
  0
LTYPE
  5
24
330
2
100
AcDbSymbolTableRecord
100
AcDbLinetypeTableRecord
  2
ByBlock
 70
0
  3

 72
65
 73
0
 40
0.0
  0
LTYPE
  5
25
330
2
100
AcDbSymbolTableRecord
100
AcDbLinetypeTableRecord
  2
ByLayer
 70
0
  3

 72
65
 73
0
 40
0.0
  0
LTYPE
  5
26
330
2
100
AcDbSymbolTableRecord
100
AcDbLinetypeTableRecord
  2
Continuous
 70
0
  3

 72
65
 73
0
 40
0.0
  0
LTYPE
  5
2F
330
2
100
AcDbSymbolTableRecord
100
AcDbLinetypeTableRecord
  2
CENTER
 70
0
  3
Center ____ _ ____ _ ____ _ ____ _ ____ _ ____
 72
65
 73
4
 40
5.08
 49
3.175
 74
0
 49
-0.635
 74
0
 49
0.635
 74
0
 49
-0.635
 74
0
  0
LTYPE
  5
30
330
2
100
AcDbSymbolTableRecord
100
AcDbLinetypeTableRecord
  2
CENTERX2
 70
0
  3
Center (2x) ________  __  ________  __  ________
 72
65
 73
4
 40
8.89
 49
6.35
 74
0
 49
-0.635
 74
0
 49
1.27
 74
0
 49
-0.635
 74
0
  0
LTYPE
  5
31
330
2
100
AcDbSymbolTableRecord
100
AcDbLinetypeTableRecord
  2
CENTER2
 70
0
  3
Center (.5x) ____ _ ____ _ ____ _ ____ _ ____
 72
65
 73
4
 40
2.54
 49
1.587
 74
0
 49
-0.318
 74
0
 49
0.318
 74
0
 49
-0.318
 74
0
  0
LTYPE
  5
32
330
2
100
AcDbSymbolTableRecord
100
AcDbLinetypeTableRecord
  2
DASHED
 70
0
  3
Dashed __ __ __ __ __ __ __ __ __ __ __ __ __ _
 72
65
 73
2
 40
1.524
 49
1.27
 74
0
 49
-0.254
 74
0
  0
LTYPE
  5
33
330
2
100
AcDbSymbolTableRecord
100
AcDbLinetypeTableRecord
  2
DASHEDX2
 70
0
  3
Dashed (2x) ____  ____  ____  ____  ____  ____
 72
65
 73
2
 40
3.048
 49
2.54
 74
0
 49
-0.508
 74
0
  0
LTYPE
  5
34
330
2
100
AcDbSymbolTableRecord
100
AcDbLinetypeTableRecord
  2
DASHED2
 70
0
  3
Dashed (.5x) _ _ _ _ _ _ _ _ _ _ _ _ _ _
 72
65
 73
2
 40
0.762
 49
0.635
 74
0
 49
-0.127
 74
0
  0
LTYPE
  5
35
330
2
100
AcDbSymbolTableRecord
100
AcDbLinetypeTableRecord
  2
PHANTOM
 70
0
  3
Phantom ______  __  __  ______  __  __  ______
 72
65
 73
6
 40
6.35
 49
3.175
 74
0
 49
-0.635
 74
0
 49
0.635
 74
0
 49
-0.635
 74
0
 49
0.635
 74
0
 49
-0.635
 74
0
  0
LTYPE
  5
36
330
2
100
AcDbSymbolTableRecord
100
AcDbLinetypeTableRecord
  2
PHANTOMX2
 70
0
  3
Phantom (2x)____________    ____    ____    ____________
 72
65
 73
6
 40
10.795
 49
6.35
 74
0
 49
-0.635
 74
0
 49
1.27
 74
0
 49
-0.635
 74
0
 49
1.27
 74
0
 49
-0.635
 74
0
  0
LTYPE
  5
37
330
2
100
AcDbSymbolTableRecord
100
AcDbLinetypeTableRecord
  2
PHANTOM2
 70
0
  3
Phantom (.5x) ___ _ _ ___ _ _ ___ _ _ ___ _ _ ___
 72
65
 73
6
 40
3.175
 49
1.587
 74
0
 49
-0.318
 74
0
 49
0.318
 74
0
 49
-0.318
 74
0
 49
0.318
 74
0
 49
-0.318
 74
0
  0
LTYPE
  5
38
330
2
100
AcDbSymbolTableRecord
100
AcDbLinetypeTableRecord
  2
DASHDOT
 70
0
  3
Dash dot __ . __ . __ . __ . __ . __ . __ . __
 72
65
 73
4
 40
3.556
 49
2.54
 74
0
 49
-0.508
 74
0
 49
0.0
 74
0
 49
-0.508
 74
0
  0
LTYPE
  5
39
330
2
100
AcDbSymbolTableRecord
100
AcDbLinetypeTableRecord
  2
DASHDOTX2
 70
0
  3
Dash dot (2x) ____  .  ____  .  ____  .  ____
 72
65
 73
4
 40
6.096
 49
5.08
 74
0
 49
-0.508
 74
0
 49
0.0
 74
0
 49
-0.508
 74
0
  0
LTYPE
  5
3A
330
2
100
AcDbSymbolTableRecord
100
AcDbLinetypeTableRecord
  2
DASHDOT2
 70
0
  3
Dash dot (.5x) _ . _ . _ . _ . _ . _ . _ . _
 72
65
 73
4
 40
1.778
 49
1.27
 74
0
 49
-0.254
 74
0
 49
0.0
 74
0
 49
-0.254
 74
0
  0
LTYPE
  5
3B
330
2
100
AcDbSymbolTableRecord
100
AcDbLinetypeTableRecord
  2
DOT
 70
0
  3
Dot .  .  .  .  .  .  .  .  .  .  .  .  .  .  .  .
 72
65
 73
2
 40
0.508
 49
0.0
 74
0
 49
-0.508
 74
0
  0
LTYPE
  5
3C
330
2
100
AcDbSymbolTableRecord
100
AcDbLinetypeTableRecord
  2
DOTX2
 70
0
  3
Dot (2x) .    .    .    .    .    .    .    . 
 72
65
 73
2
 40
1.016
 49
0.0
 74
0
 49
-1.016
 74
0
  0
LTYPE
  5
3D
330
2
100
AcDbSymbolTableRecord
100
AcDbLinetypeTableRecord
  2
DOT2
 70
0
  3
Dot (.5) . . . . . . . . . . . . . . . . . . . 
 72
65
 73
2
 40
0.254
 49
0.0
 74
0
 49
-0.254
 74
0
  0
LTYPE
  5
3E
330
2
100
AcDbSymbolTableRecord
100
AcDbLinetypeTableRecord
  2
DIVIDE
 70
0
  3
Divide __ . . __ . . __ . . __ . . __ . . __
 72
65
 73
6
 40
4.064
 49
2.54
 74
0
 49
-0.508
 74
0
 49
0.0
 74
0
 49
-0.508
 74
0
 49
0.0
 74
0
 49
-0.508
 74
0
  0
LTYPE
  5
3F
330
2
100
AcDbSymbolTableRecord
100
AcDbLinetypeTableRecord
  2
DIVIDEX2
 70
0
  3
Divide (2x) ____  . .  ____  . .  ____  . .  ____
 72
65
 73
6
 40
6.604
 49
5.08
 74
0
 49
-0.508
 74
0
 49
0.0
 74
0
 49
-0.508
 74
0
 49
0.0
 74
0
 49
-0.508
 74
0
  0
LTYPE
  5
40
330
2
100
AcDbSymbolTableRecord
100
AcDbLinetypeTableRecord
  2
DIVIDE2
 70
0
  3
Divide(.5x) _ . _ . _ . _ . _ . _ . _ . _
 72
65
 73
6
 40
2.032
 49
1.27
 74
0
 49
-0.254
 74
0
 49
0.0
 74
0
 49
-0.254
 74
0
 49
0.0
 74
0
 49
-0.254
 74
0
  0
ENDTAB
  0
TABLE
  2
LAYER
  5
1
330
0
100
AcDbSymbolTable
 70
11
  0
LAYER
  5
27
330
1
100
AcDbSymbolTableRecord
100
AcDbLayerTableRecord
  2
0
 70
0
 62
7
  6
Continuous
370
-3
390
13
347
21
  0
LAYER
  5
28
330
1
100
AcDbSymbolTableRecord
100
AcDbLayerTableRecord
  2
Defpoints
 70
0
 62
7
  6
Continuous
290
0
370
-3
390
13
347
21
  0
LAYER
  5
8A
330
1
100
AcDbSymbolTableRecord
100
AcDbLayerTableRecord
  2
BUILDING
 70
0
 62
7
  6
Continuous
370
-3
390
13
347
21
  0
LAYER
  5
8B
330
1
100
AcDbSymbolTableRecord
100
AcDbLayerTableRecord
  2
ELECTR_CABLE_COMM
 70
0
 62
7
  6
Continuous
370
-3
390
13
347
21
  0
LAYER
  5
8C
330
1
100
AcDbSymbolTableRecord
100
AcDbLayerTableRecord
  2
WATER_PIPELINE
 70
0
 62
7
  6
Continuous
370
-3
390
13
347
21
  0
LAYER
  5
8D
330
1
100
AcDbSymbolTableRecord
100
AcDbLayerTableRecord
  2
ELECTR_CABLE
 70
0
 62
7
  6
Continuous
370
-3
390
13
347
21
  0
LAYER
  5
8E
330
1
100
AcDbSymbolTableRecord
100
AcDbLayerTableRecord
  2
HEAT
 70
0
 62
7
  6
Continuous
370
-3
390
13
347
21
  0
LAYER
  5
8F
330
1
100
AcDbSymbolTableRecord
100
AcDbLayerTableRecord
  2
OVERHEAD_POWER_LINE
 70
0
 62
7
  6
Continuous
370
-3
390
13
347
21
  0
LAYER
  5
90
330
1
100
AcDbSymbolTableRecord
100
AcDbLayerTableRecord
  2
SEWER
 70
0
 62
7
  6
Continuous
370
-3
390
13
347
21
  0
LAYER
  5
91
330
1
100
AcDbSymbolTableRecord
100
AcDbLayerTableRecord
  2
BOUNDARY
 70
0
 62
7
  6
Continuous
370
-3
390
13
347
21
  0
LAYER
  5
92
330
1
100
AcDbSymbolTableRecord
100
AcDbLayerTableRecord
  2
GAS
 70
0
 62
7
  6
Continuous
370
-3
390
13
347
21
  0
ENDTAB
  0
TABLE
  2
STYLE
  5
5
330
0
100
AcDbSymbolTable
 70
26
  0
STYLE
  5
29
330
5
100
AcDbSymbolTableRecord
100
AcDbTextStyleTableRecord
  2
Standard
 70
0
 40
0.0
 41
1.0
 50
0.0
 71
0
 42
2.5
  3
txt
  4

  0
STYLE
  5
41
330
5
100
AcDbSymbolTableRecord
100
AcDbTextStyleTableRecord
  2
OpenSans-Light
 70
0
 40
0.0
 41
1.0
 50
0.0
 71
0
 42
2.5
  3
OpenSans-Light.ttf
  4

  0
STYLE
  5
42
330
5
100
AcDbSymbolTableRecord
100
AcDbTextStyleTableRecord
  2
OpenSans-Light-Italic
 70
0
 40
0.0
 41
1.0
 50
0.0
 71
0
 42
2.5
  3
OpenSans-LightItalic.ttf
  4

  0
STYLE
  5
43
330
5
100
AcDbSymbolTableRecord
100
AcDbTextStyleTableRecord
  2
OpenSans
 70
0
 40
0.0
 41
1.0
 50
0.0
 71
0
 42
2.5
  3
OpenSans-Regular.ttf
  4

  0
STYLE
  5
44
330
5
100
AcDbSymbolTableRecord
100
AcDbTextStyleTableRecord
  2
OpenSans-Italic
 70
0
 40
0.0
 41
1.0
 50
0.0
 71
0
 42
2.5
  3
OpenSans-Italic.ttf
  4

  0
STYLE
  5
45
330
5
100
AcDbSymbolTableRecord
100
AcDbTextStyleTableRecord
  2
OpenSans-SemiBold
 70
0
 40
0.0
 41
1.0
 50
0.0
 71
0
 42
2.5
  3
OpenSans-SemiBold.ttf
  4

  0
STYLE
  5
46
330
5
100
AcDbSymbolTableRecord
100
AcDbTextStyleTableRecord
  2
OpenSans-SemiBoldItalic
 70
0
 40
0.0
 41
1.0
 50
0.0
 71
0
 42
2.5
  3
OpenSans-SemiBoldItalic.ttf
  4

  0
STYLE
  5
47
330
5
100
AcDbSymbolTableRecord
100
AcDbTextStyleTableRecord
  2
OpenSans-Bold
 70
0
 40
0.0
 41
1.0
 50
0.0
 71
0
 42
2.5
  3
OpenSans-Bold.ttf
  4

  0
STYLE
  5
48
330
5
100
AcDbSymbolTableRecord
100
AcDbTextStyleTableRecord
  2
OpenSans-BoldItalic
 70
0
 40
0.0
 41
1.0
 50
0.0
 71
0
 42
2.5
  3
OpenSans-BoldItalic.ttf
  4

  0
STYLE
  5
49
330
5
100
AcDbSymbolTableRecord
100
AcDbTextStyleTableRecord
  2
OpenSans-ExtraBold
 70
0
 40
0.0
 41
1.0
 50
0.0
 71
0
 42
2.5
  3
OpenSans-ExtraBold.ttf
  4

  0
STYLE
  5
4A
330
5
100
AcDbSymbolTableRecord
100
AcDbTextStyleTableRecord
  2
OpenSans-ExtraBoldItalic
 70
0
 40
0.0
 41
1.0
 50
0.0
 71
0
 42
2.5
  3
OpenSans-ExtraBoldItalic.ttf
  4

  0
STYLE
  5
4B
330
5
100
AcDbSymbolTableRecord
100
AcDbTextStyleTableRecord
  2
OpenSansCondensed-Bold
 70
0
 40
0.0
 41
1.0
 50
0.0
 71
0
 42
2.5
  3
OpenSansCondensed-Bold.ttf
  4

  0
STYLE
  5
4C
330
5
100
AcDbSymbolTableRecord
100
AcDbTextStyleTableRecord
  2
OpenSansCondensed-Light
 70
0
 40
0.0
 41
1.0
 50
0.0
 71
0
 42
2.5
  3
OpenSansCondensed-Light.ttf
  4

  0
STYLE
  5
4D
330
5
100
AcDbSymbolTableRecord
100
AcDbTextStyleTableRecord
  2
OpenSansCondensed-Italic
 70
0
 40
0.0
 41
1.0
 50
0.0
 71
0
 42
2.5
  3
OpenSansCondensed-LightItalic.ttf
  4

  0
STYLE
  5
4E
330
5
100
AcDbSymbolTableRecord
100
AcDbTextStyleTableRecord
  2
LiberationSans
 70
0
 40
0.0
 41
1.0
 50
0.0
 71
0
 42
2.5
  3
LiberationSans-Regular.ttf
  4

  0
STYLE
  5
4F
330
5
100
AcDbSymbolTableRecord
100
AcDbTextStyleTableRecord
  2
LiberationSans-Bold
 70
0
 40
0.0
 41
1.0
 50
0.0
 71
0
 42
2.5
  3
LiberationSans-Bold.ttf
  4

  0
STYLE
  5
50
330
5
100
AcDbSymbolTableRecord
100
AcDbTextStyleTableRecord
  2
LiberationSans-BoldItalic
 70
0
 40
0.0
 41
1.0
 50
0.0
 71
0
 42
2.5
  3
LiberationSans-BoldItalic.ttf
  4

  0
STYLE
  5
51
330
5
100
AcDbSymbolTableRecord
100
AcDbTextStyleTableRecord
  2
LiberationSans-Italic
 70
0
 40
0.0
 41
1.0
 50
0.0
 71
0
 42
2.5
  3
LiberationSans-Italic.ttf
  4

  0
STYLE
  5
52
330
5
100
AcDbSymbolTableRecord
100
AcDbTextStyleTableRecord
  2
LiberationSerif
 70
0
 40
0.0
 41
1.0
 50
0.0
 71
0
 42
2.5
  3
LiberationSerif-Regular.ttf
  4

  0
STYLE
  5
53
330
5
100
AcDbSymbolTableRecord
100
AcDbTextStyleTableRecord
  2
LiberationSerif-Bold
 70
0
 40
0.0
 41
1.0
 50
0.0
 71
0
 42
2.5
  3
LiberationSerif-Bold.ttf
  4

  0
STYLE
  5
54
330
5
100
AcDbSymbolTableRecord
100
AcDbTextStyleTableRecord
  2
LiberationSerif-BoldItalic
 70
0
 40
0.0
 41
1.0
 50
0.0
 71
0
 42
2.5
  3
LiberationSerif-BoldItalic.ttf
  4

  0
STYLE
  5
55
330
5
100
AcDbSymbolTableRecord
100
AcDbTextStyleTableRecord
  2
LiberationSerif-Italic
 70
0
 40
0.0
 41
1.0
 50
0.0
 71
0
 42
2.5
  3
LiberationSerif-Italic.ttf
  4

  0
STYLE
  5
56
330
5
100
AcDbSymbolTableRecord
100
AcDbTextStyleTableRecord
  2
LiberationMono
 70
0
 40
0.0
 41
1.0
 50
0.0
 71
0
 42
2.5
  3
LiberationMono-Regular.ttf
  4

  0
STYLE
  5
57
330
5
100
AcDbSymbolTableRecord
100
AcDbTextStyleTableRecord
  2
LiberationMono-Bold
 70
0
 40
0.0
 41
1.0
 50
0.0
 71
0
 42
2.5
  3
LiberationMono-Bold.ttf
  4

  0
STYLE
  5
58
330
5
100
AcDbSymbolTableRecord
100
AcDbTextStyleTableRecord
  2
LiberationMono-BoldItalic
 70
0
 40
0.0
 41
1.0
 50
0.0
 71
0
 42
2.5
  3
LiberationMono-BoldItalic.ttf
  4

  0
STYLE
  5
59
330
5
100
AcDbSymbolTableRecord
100
AcDbTextStyleTableRecord
  2
LiberationMono-Italic
 70
0
 40
0.0
 41
1.0
 50
0.0
 71
0
 42
2.5
  3
LiberationMono-Italic.ttf
  4

  0
ENDTAB
  0
TABLE
  2
VIEW
  5
7
330
0
100
AcDbSymbolTable
 70
0
  0
ENDTAB
  0
TABLE
  2
UCS
  5
6
330
0
100
AcDbSymbolTable
 70
0
  0
ENDTAB
  0
TABLE
  2
APPID
  5
3
330
0
100
AcDbSymbolTable
 70
3
  0
APPID
  5
2A
330
3
100
AcDbSymbolTableRecord
100
AcDbRegAppTableRecord
  2
ACAD
 70
0
  0
APPID
  5
FE
330
3
100
AcDbSymbolTableRecord
100
AcDbRegAppTableRecord
  2
HATCHBACKGROUNDCOLOR
 70
0
  0
APPID
  5
FF
330
3
100
AcDbSymbolTableRecord
100
AcDbRegAppTableRecord
  2
EZDXF
 70
0
  0
ENDTAB
  0
TABLE
  2
DIMSTYLE
  5
4
330
0
100
AcDbSymbolTable
 70
12
100
AcDbDimStyleTable
  0
DIMSTYLE
105
2B
330
4
100
AcDbSymbolTableRecord
100
AcDbDimStyleTableRecord
  2
Standard
 70
0
 40
1.0
 41
2.5
 42
0.625
 43
3.75
 44
1.25
 45
0.0
 46
0.0
 47
0.0
 48
0.0
 49
2.5
140
2.5
141
2.5
142
0.0
143
0.03937007874
144
1.0
145
0.0
146
1.0
147
0.625
148
0.0
 69
0
 70
0
 71
0
 72
0
 73
0
 74
0
 75
0
 76
0
 77
1
 78
8
 79
3
170
0
171
3
172
1
173
0
174
0
175
0
176
0
177
0
178
0
179
2
271
2
272
2
273
2
274
3
275
0
276
0
277
2
278
44
279
0
280
0
281
0
282
0
283
0
284
8
285
0
286
0
288
0
289
3
290
0
371
-2
372
-2
  0
DIMSTYLE
105
73
330
4
100
AcDbSymbolTableRecord
100
AcDbDimStyleTableRecord
  2
EZDXF
 70
0
 40
1.0
 41
0.175
 42
0.125
 43
3.75
 44
0.375
 45
0.0
 46
0.0
 47
0.0
 48
0.0
 49
2.5
140
0.25
141
2.5
142
0.0
143
0.03937007874
144
100.0
145
0.0
146
0.5
147
0.1
148
0.0
 69
0
 70
0
 71
0
 72
0
 73
0
 74
0
 75
0
 76
0
 77
1
 78
12
 79
3
170
0
171
3
172
1
173
0
174
0
175
0
176
0
177
0
178
0
179
2
271
2
272
2
273
2
274
3
275
0
276
0
277
2
278
46
279
2
280
0
281
0
282
0
283
0
284
8
285
0
286
0
288
1
289
3
290
0
340
4C
342
74
371
-2
372
-2
  0
DIMSTYLE
105
7C
330
4
100
AcDbSymbolTableRecord
100
AcDbDimStyleTableRecord
  2
EZ_M_100_H25_CM
 70
0
 40
1.0
 41
0.25
 42
0.125
 43
3.75
 44
0.375
 45
0.0
 46
0.0
 47
0.0
 48
0.0
 49
2.5
140
0.25
141
2.5
142
0.125
143
0.03937007874
144
100.0
145
0.0
146
0.5
147
0.1
148
0.0
 69
0
 70
0
 71
0
 72
0
 73
0
 74
0
 75
0
 76
0
 77
1
 78
12
 79
3
170
0
171
3
172
1
173
0
174
0
175
0
176
0
177
0
178
0
179
2
271
2
272
2
273
2
274
3
275
0
276
0
277
2
278
46
279
2
280
0
281
0
282
0
283
0
284
8
285
0
286
0
288
1
289
3
290
0
340
4C
371
-2
372
-2
  0
DIMSTYLE
105
7D
330
4
100
AcDbSymbolTableRecord
100
AcDbDimStyleTableRecord
  2
EZ_M_50_H25_CM
 70
0
 40
1.0
 41
0.125
 42
0.0625
 43
3.75
 44
0.1875
 45
0.0
 46
0.0
 47
0.0
 48
0.0
 49
2.5
140
0.125
141
2.5
142
0.0625
143
0.03937007874
144
100.0
145
0.0
146
0.5
147
0.05
148
0.0
 69
0
 70
0
 71
0
 72
0
 73
0
 74
0
 75
0
 76
0
 77
1
 78
12
 79
3
170
0
171
3
172
1
173
0
174
0
175
0
176
0
177
0
178
0
179
2
271
2
272
2
273
2
274
3
275
0
276
0
277
2
278
46
279
2
280
0
281
0
282
0
283
0
284
8
285
0
286
0
288
1
289
3
290
0
340
4C
371
-2
372
-2
  0
DIMSTYLE
105
7E
330
4
100
AcDbSymbolTableRecord
100
AcDbDimStyleTableRecord
  2
EZ_M_25_H25_CM
 70
0
 40
1.0
 41
0.0625
 42
0.03125
 43
3.75
 44
0.09375
 45
0.0
 46
0.0
 47
0.0
 48
0.0
 49
2.5
140
0.0625
141
2.5
142
0.03125
143
0.03937007874
144
100.0
145
0.0
146
0.5
147
0.025
148
0.0
 69
0
 70
0
 71
0
 72
0
 73
0
 74
0
 75
0
 76
0
 77
1
 78
12
 79
3
170
0
171
3
172
1
173
0
174
0
175
0
176
0
177
0
178
0
179
2
271
2
272
2
273
2
274
3
275
0
276
0
277
2
278
46
279
2
280
0
281
0
282
0
283
0
284
8
285
0
286
0
288
1
289
3
290
0
340
4C
371
-2
372
-2
  0
DIMSTYLE
105
7F
330
4
100
AcDbSymbolTableRecord
100
AcDbDimStyleTableRecord
  2
EZ_M_20_H25_CM
 70
0
 40
1.0
 41
0.05
 42
0.025
 43
3.75
 44
0.07500000000000001
 45
0.0
 46
0.0
 47
0.0
 48
0.0
 49
2.5
140
0.05
141
2.5
142
0.025
143
0.03937007874
144
100.0
145
0.0
146
0.5
147
0.020000000000000004
148
0.0
 69
0
 70
0
 71
0
 72
0
 73
0
 74
0
 75
0
 76
0
 77
1
 78
12
 79
3
170
0
171
3
172
1
173
0
174
0
175
0
176
0
177
0
178
0
179
2
271
2
272
2
273
2
274
3
275
0
276
0
277
2
278
46
279
2
280
0
281
0
282
0
283
0
284
8
285
0
286
0
288
1
289
3
290
0
340
4C
371
-2
372
-2
  0
DIMSTYLE
105
80
330
4
100
AcDbSymbolTableRecord
100
AcDbDimStyleTableRecord
  2
EZ_M_10_H25_CM
 70
0
 40
1.0
 41
0.025
 42
0.0125
 43
3.75
 44
0.037500000000000006
 45
0.0
 46
0.0
 47
0.0
 48
0.0
 49
2.5
140
0.025
141
2.5
142
0.0125
143
0.03937007874
144
100.0
145
0.0
146
0.5
147
0.010000000000000002
148
0.0
 69
0
 70
0
 71
0
 72
0
 73
0
 74
0
 75
0
 76
0
 77
1
 78
12
 79
3
170
0
171
3
172
1
173
0
174
0
175
0
176
0
177
0
178
0
179
2
271
2
272
2
273
2
274
3
275
0
276
0
277
2
278
46
279
2
280
0
281
0
282
0
283
0
284
8
285
0
286
0
288
1
289
3
290
0
340
4C
371
-2
372
-2
  0
DIMSTYLE
105
81
330
4
100
AcDbSymbolTableRecord
100
AcDbDimStyleTableRecord
  2
EZ_M_5_H25_CM
 70
0
 40
1.0
 41
0.0125
 42
0.00625
 43
3.75
 44
0.018750000000000003
 45
0.0
 46
0.0
 47
0.0
 48
0.0
 49
2.5
140
0.0125
141
2.5
142
0.00625
143
0.03937007874
144
100.0
145
0.0
146
0.5
147
0.005000000000000001
148
0.0
 69
0
 70
0
 71
0
 72
0
 73
0
 74
0
 75
0
 76
0
 77
1
 78
12
 79
3
170
0
171
3
172
1
173
0
174
0
175
0
176
0
177
0
178
0
179
2
271
2
272
2
273
2
274
3
275
0
276
0
277
2
278
46
279
2
280
0
281
0
282
0
283
0
284
8
285
0
286
0
288
1
289
3
290
0
340
4C
371
-2
372
-2
  0
DIMSTYLE
105
82
330
4
100
AcDbSymbolTableRecord
100
AcDbDimStyleTableRecord
  2
EZ_M_1_H25_CM
 70
0
 40
1.0
 41
0.0025
 42
0.00125
 43
3.75
 44
0.00375
 45
0.0
 46
0.0
 47
0.0
 48
0.0
 49
2.5
140
0.0025
141
2.5
142
0.00125
143
0.03937007874
144
100.0
145
0.0
146
0.5
147
0.001
148
0.0
 69
0
 70
0
 71
0
 72
0
 73
0
 74
0
 75
0
 76
0
 77
1
 78
12
 79
3
170
0
171
3
172
1
173
0
174
0
175
0
176
0
177
0
178
0
179
2
271
2
272
2
273
2
274
3
275
0
276
0
277
2
278
46
279
2
280
0
281
0
282
0
283
0
284
8
285
0
286
0
288
1
289
3
290
0
340
4C
371
-2
372
-2
  0
DIMSTYLE
105
83
330
4
100
AcDbSymbolTableRecord
100
AcDbDimStyleTableRecord
  2
EZ_RADIUS
 70
0
 40
1.0
 41
0.25
 42
0.125
 43
3.75
 44
0.375
 45
0.0
 46
0.0
 47
0.0
 48
0.0
 49
2.5
140
0.25
141
0.0
142
0.0
143
0.03937007874
144
100.0
145
0.0
146
0.5
147
0.1
148
0.0
 69
0
 70
0
 71
0
 72
0
 73
0
 74
0
 75
0
 76
0
 77
1
 78
12
 79
3
170
0
171
3
172
0
173
0
174
0
175
0
176
0
177
0
178
0
179
2
271
2
272
2
273
2
274
3
275
0
276
0
277
2
278
46
279
1
280
0
281
0
282
0
283
0
284
8
285
0
286
0
288
1
289
3
290
0
340
4C
342
84
371
-2
372
-2
  0
DIMSTYLE
105
88
330
4
100
AcDbSymbolTableRecord
100
AcDbDimStyleTableRecord
  2
EZ_RADIUS_INSIDE
 70
0
 40
1.0
 41
0.25
 42
0.125
 43
3.75
 44
0.375
 45
0.0
 46
0.0
 47
0.0
 48
0.0
 49
2.5
140
0.25
141
0.0
142
0.0
143
0.03937007874
144
100.0
145
0.0
146
0.5
147
0.1
148
0.0
 69
0
 70
0
 71
0
 72
0
 73
0
 74
0
 75
0
 76
0
 77
0
 78
12
 79
3
170
0
171
3
172
0
173
0
174
1
175
0
176
0
177
0
178
0
179
2
271
2
272
2
273
2
274
3
275
0
276
0
277
2
278
46
279
0
280
0
281
0
282
0
283
0
284
8
285
0
286
0
288
1
289
0
290
0
340
4C
342
84
371
-2
372
-2
  0
DIMSTYLE
105
89
330
4
100
AcDbSymbolTableRecord
100
AcDbDimStyleTableRecord
  2
EZ_CURVED
 70
0
 40
1.0
 41
0.25
 42
0.125
 43
3.75
 44
0.375
 45
0.0
 46
0.0
 47
0.0
 48
0.0
 49
2.5
140
0.25
141
2.5
142
0.0
143
0.03937007874
144
100.0
145
0.0
146
0.5
147
0.1
148
0.0
 69
0
 70
0
 71
0
 72
0
 73
0
 74
0
 75
0
 76
0
 77
1
 78
12
 79
2
 90
2
170
0
171
3
172
1
173
0
174
0
175
0
176
0
177
0
178
0
179
2
271
2
272
2
273
2
274
3
275
0
276
0
277
2
278
46
279
2
280
0
281
0
282
0
283
0
284
8
285
0
286
0
288
1
289
3
290
0
340
4C
371
-2
372
-2
  0
ENDTAB
  0
TABLE
  2
BLOCK_RECORD
  5
9
330
0
100
AcDbSymbolTable
 70
5
  0
BLOCK_RECORD
  5
17
330
9
100
AcDbSymbolTableRecord
100
AcDbBlockTableRecord
  2
*Model_Space
340
1A
 70
0
280
1
281
0
  0
BLOCK_RECORD
  5
1B
330
9
100
AcDbSymbolTableRecord
100
AcDbBlockTableRecord
  2
*Paper_Space
340
1E
 70
0
280
1
281
0
  0
BLOCK_RECORD
  5
74
330
9
100
AcDbSymbolTableRecord
100
AcDbBlockTableRecord
  2
_ARCHTICK
340
0
 70
0
280
1
281
0
  0
BLOCK_RECORD
  5
78
330
9
100
AcDbSymbolTableRecord
100
AcDbBlockTableRecord
  2
_CLOSEDFILLED
340
0
 70
0
280
1
281
0
  0
BLOCK_RECORD
  5
84
330
9
100
AcDbSymbolTableRecord
100
AcDbBlockTableRecord
  2
_CLOSEDBLANK
340
0
 70
0
280
1
281
0
  0
ENDTAB
  0
ENDSEC
  0
SECTION
  2
BLOCKS
  0
BLOCK
  5
18
330
17
100
AcDbEntity
  8
0
100
AcDbBlockBegin
  2
*Model_Space
 70
0
 10
0.0
 20
0.0
 30
0.0
  3
*Model_Space
  1

  0
ENDBLK
  5
19
330
17
100
AcDbEntity
  8
0
100
AcDbBlockEnd
  0
BLOCK
  5
1C
330
1B
100
AcDbEntity
  8
0
100
AcDbBlockBegin
  2
*Paper_Space
 70
0
 10
0.0
 20
0.0
 30
0.0
  3
*Paper_Space
  1

  0
ENDBLK
  5
1D
330
1B
100
AcDbEntity
  8
0
100
AcDbBlockEnd
  0
BLOCK
  5
75
330
74
100
AcDbEntity
  8
0
100
AcDbBlockBegin
  2
_ARCHTICK
 70
0
 10
0.0
 20
0.0
 30
0.0
  3
_ARCHTICK
  1

  0
LWPOLYLINE
  5
77
330
74
100
AcDbEntity
  8
0
  6
BYBLOCK
 62
0
100
AcDbPolyline
 90
2
 70
0
 43
0.15
 10
-0.5
 20
-0.5
 10
0.5
 20
0.5
  0
ENDBLK
  5
76
330
74
100
AcDbEntity
  8
0
100
AcDbBlockEnd
  0
BLOCK
  5
79
330
78
100
AcDbEntity
  8
0
100
AcDbBlockBegin
  2
_CLOSEDFILLED
 70
0
 10
0.0
 20
0.0
 30
0.0
  3
_CLOSEDFILLED
  1

  0
SOLID
  5
7B
330
78
100
AcDbEntity
  8
0
  6
BYBLOCK
 62
0
100
AcDbTrace
 10
-1.0
 20
0.16439898372402537
 30
0.0
 11
0.0
 21
0.0
 31
0.0
 12
-1.0
 22
-0.16439898372402537
 32
0.0
 13
-1.0
 23
-0.16439898372402537
 33
0.0
  0
ENDBLK
  5
7A
330
78
100
AcDbEntity
  8
0
100
AcDbBlockEnd
  0
BLOCK
  5
85
330
84
100
AcDbEntity
  8
0
100
AcDbBlockBegin
  2
_CLOSEDBLANK
 70
0
 10
0.0
 20
0.0
 30
0.0
  3
_CLOSEDBLANK
  1

  0
LWPOLYLINE
  5
87
330
84
100
AcDbEntity
  8
0
  6
BYBLOCK
 62
0
100
AcDbPolyline
 90
3
 70
1
 10
-1.0
 20
0.16439898372402537
 10
0.0
 20
0.0
 10
-1.0
 20
-0.16439898372402537
  0
ENDBLK
  5
86
330
84
100
AcDbEntity
  8
0
100
AcDbBlockEnd
  0
ENDSEC
  0
SECTION
  2
ENTITIES
  0
LWPOLYLINE
  5
93
330
17
100
AcDbEntity
  8
BUILDING
  6
Continuous
 62
251
370
9
100
AcDbPolyline
 90
5
 70
129
 10
772.4856748863185
 20
15002.99613794366
 10
773.3263648792994
 20
15003.04114792322
 10
773.3477499923704
 20
15002.64171999268
 10
772.5070599993896
 20
15002.59671001313
 10
772.4856748863185
 20
15002.99613794366
  0
LWPOLYLINE
  5
94
330
17
100
AcDbEntity
  8
BUILDING
  6
Continuous
 62
251
370
9
100
AcDbPolyline
 90
5
 70
129
 10
774.8580000000003
 20
15002.62200000001
 10
774.7882995730447
 20
15003.11711801672
 10
775.6221960628196
 20
15003.21820392619
 10
775.6750000000003
 20
15002.721
 10
774.8580000000003
 20
15002.62200000001
  0
LWPOLYLINE
  5
95
330
17
100
AcDbEntity
  8
BUILDING
  6
Continuous
 62
251
370
9
100
AcDbPolyline
 90
6
 70
129
 10
713.4902033448287
 20
14895.12612170782
 10
713.0727900021362
 20
14895.16367000336
 10
713.0888634907071
 20
14895.34235438093
 10
712.159
 20
14895.426
 10
712.4343279824215
 20
14898.48673906675
 10
712.8613732108524
 20
14898.4483243202
  0
LWPOLYLINE
  5
96
330
17
100
AcDbEntity
  8
BUILDING
  6
Continuous
 62
251
370
9
100
AcDbPolyline
 90
204
 70
129
 10
703.0113936637243
 20
14782.97297624155
 10
703.0458401654175
 20
14783.35723267238
 10
703.2889574319828
 20
14786.0692460419
 10
703.3246871593763
 20
14786.46781706793
 10
703.6220723899048
 20
14786.43241187781
 10
703.7499689321573
 20
14787.64320166631
 10
703.8716801355022
 20
14788.79543516343
 10
704.2904945219276
 20
14792.7603284402
 10
703.8918650166331
 20
14792.79477999207
 10
703.9265543216105
 20
14793.19331866814
 10
704.1460609149449
 20
14795.71502749718
 10
704.1807324747459
 20
14796.11352201911
 10
703.6599605395678
 20
14796.1588324839
 10
703.8569992675558
 20
14798.34925470748
 10
703.9656711935788
 20
14799.55732847072
 10
704.0246822717978
 20
14800.2133370159
 10
704.1982715842158
 20
14802.14307840205
 10
704.252027375103
 20
14802.74066548662
 10
704.3283458357498
 20
14803.58907550279
 10
704.3552237311936
 20
14803.88786904508
 10
704.8532521439253
 20
14803.84306903287
 10
704.8622138126774
 20
14803.9426933195
 10
705.0964563737907
 20
14806.54669841609
 10
705.1322968230231
 20
14806.94512625508
 10
705.5544907681509
 20
14806.9071478927
 10
705.6797333903015
 20
14808.29943308817
 10
705.7872449415571
 20
14809.49460725731
 10
706.1309374675742
 20
14813.31533558153
 10
705.7087434919279
 20
14813.35331394391
 10
705.7447408368175
 20
14813.75348567156
 10
705.9717648548844
 20
14816.27724469741
 10
705.4737364421527
 20
14816.32204470962
 10
705.50904852443
 20
14816.71459855953
 10
705.6987172154912
 20
14818.82308966338
 10
705.8082012085337
 20
14820.04019083224
 10
705.8671774346141
 20
14820.69581215858
 10
706.0426386303293
 20
14822.64636219367
 10
706.0963943906979
 20
14823.24394927824
 10
706.1656916714988
 20
14824.0143066805
 10
706.2005218359935
 20
14824.40150328074
 10
706.6985502487258
 20
14824.35670326853
 10
706.935149815363
 20
14826.9869111301
 10
706.970986999115
 20
14827.38530252999
 10
707.3932020020143
 20
14827.34755748161
 10
707.4766680196539
 20
14828.27542469558
 10
707.5841795709097
 20
14829.47059886472
 10
707.8145513779107
 20
14832.03157432783
 10
707.9220629291666
 20
14833.22674849696
 10
707.9708280281993
 20
14833.76885552538
 10
707.9871102023377
 20
14833.94985979797
 10
707.5649162266915
 20
14833.98783812983
 10
707.5844709006012
 20
14834.20522165594
 10
707.8285949583423
 20
14836.91907687614
 10
707.3305665150915
 20
14836.96387688833
 10
707.3482796716208
 20
14837.16078868984
 10
707.3841168553728
 20
14837.55918008973
 10
707.5967162999359
 20
14839.92258528397
 10
707.6662851039155
 20
14840.69596139409
 10
707.7293216345714
 20
14841.39671971801
 10
707.8945244911039
 20
14843.2332313303
 10
707.9482802819913
 20
14843.83081841487
 10
707.965310892056
 20
14844.02014267403
 10
708.0290615558336
 20
14844.72883986938
 10
708.058771874142
 20
14845.05912073124
 10
708.5568003173925
 20
14845.01432071902
 10
708.5629271828363
 20
14845.08243119602
 10
708.792980895413
 20
14847.63987044893
 10
708.828845271157
 20
14848.03856413466
 10
709.2510392468032
 20
14848.00058580279
 10
709.3294822840053
 20
14848.87261394086
 10
709.4369938352611
 20
14850.06778811
 10
709.817133457442
 20
14854.29368828395
 10
709.3949394817957
 20
14854.3316666158
 10
709.4307766655477
 20
14854.73005801569
 10
709.6551539658805
 20
14857.22439387189
 10
709.6607643971068
 20
14857.28676348155
 10
709.162735953856
 20
14857.33156349376
 10
709.1929627063814
 20
14857.66758528398
 10
709.4214031800286
 20
14860.20709073153
 10
709.4971704458756
 20
14861.0493731193
 10
709.5571183812984
 20
14861.71579647206
 10
709.7283128452407
 20
14863.61891457869
 10
709.78206860561
 20
14864.21650166326
 10
709.7884612262337
 20
14864.28756678976
 10
709.8641906796475
 20
14865.12942875454
 10
709.8910685750914
 20
14865.42822229682
 10
710.3890970183417
 20
14865.38342228462
 10
710.3980542619098
 20
14865.48299743645
 10
710.6270304574724
 20
14868.02845793024
 10
710.6628709372236
 20
14868.42688604389
 10
711.0850648823512
 20
14868.38890771203
 10
711.2193547166356
 20
14869.88176802881
 10
711.3256606646931
 20
14871.06353975037
 10
711.6477529831843
 20
14874.644145085
 10
711.225559007538
 20
14874.68212341685
 10
711.2614012573625
 20
14875.08057100131
 10
711.4867155369732
 20
14877.58532334361
 10
711.5000669270913
 20
14877.73374675741
 10
711.0020384838405
 20
14877.77854676962
 10
711.0245242774743
 20
14878.0285147557
 10
711.2573261818293
 20
14880.61650471511
 10
711.3322913907284
 20
14881.44987087619
 10
711.3959308450575
 20
14882.1573320719
 10
711.5710889919736
 20
14884.10451332133
 10
711.6248447828608
 20
14884.7021004059
 10
711.6331801202429
 20
14884.79476186407
 10
711.707347605823
 20
14885.61926004822
 10
711.7281378826258
 20
14885.85037937559
 10
712.2261663258766
 20
14885.80557936338
 10
712.2412132328258
 20
14885.9728514359
 10
712.4576671956542
 20
14888.37910626545
 10
712.4935099948118
 20
14888.77756001465
 10
712.521829096347
 20
14888.77501257363
 10
712.9157039399396
 20
14888.73958165227
 10
713.0282453077792
 20
14889.99067079684
 10
713.1393419904174
 20
14891.22569988098
 10
713.4902033448287
 20
14895.12612170782
 10
713.753067506943
 20
14898.04830509354
 10
712.8328451185645
 20
14898.13108343761
 10
712.8613732108524
 20
14898.4483243202
 10
712.947088412122
 20
14899.40109231849
 10
713.0008441724907
 20
14899.99867940306
 10
713.1697267372662
 20
14901.87609720145
 10
713.228824243904
 20
14902.53438880581
 10
713.2738735923338
 20
14903.03545045321
 10
713.5312450331126
 20
14905.89749690237
 10
713.5627799920652
 20
14906.24817499314
 10
714.4832500991852
 20
14906.1655295877
 10
714.7233445234535
 20
14908.83458836635
 10
714.7591817072054
 20
14909.23297976623
 10
715.297710013123
 20
14915.21964000366
 10
715.5965035554063
 20
14915.19276210822
 10
715.696101398234
 20
14915.18380281252
 10
720.5280004882961
 20
14914.7491507004
 10
721.9402153536143
 20
14914.6221153395
 10
722.0730585345011
 20
14914.61016547136
 10
722.3386067384869
 20
14914.58627814571
 10
722.250059724723
 20
14913.60192715232
 10
726.670590807825
 20
14913.20427954955
 10
727.4839653920103
 20
14913.13111267434
 10
728.6511486251411
 20
14913.02611902219
 10
728.6153114491697
 20
14912.62772765399
 10
728.5265814996797
 20
14911.64134284494
 10
728.107014557329
 20
14906.97714093448
 10
728.0777537223672
 20
14906.65185686469
 10
727.7312049623097
 20
14902.79937653737
 10
727.6629899899289
 20
14902.0410511185
 10
727.6271528061769
 20
14901.64265971862
 10
727.4244536271249
 20
14899.38931284524
 10
727.3886164433729
 20
14898.99092144536
 10
726.931692342906
 20
14893.91143122654
 10
726.9164315317239
 20
14893.74178127384
 10
726.671872768334
 20
14891.02309366131
 10
726.3923875240333
 20
14887.91613870663
 10
725.8713300881985
 20
14882.12369685966
 10
725.8444521927549
 20
14881.82490331736
 10
725.619698568682
 20
14879.32638343455
 10
725.5928206732384
 20
14879.02758989227
 10
725.0591885433516
 20
14873.09535889767
 10
724.5354055909909
 20
14867.27261851864
 10
724.521630763786
 20
14867.11948782801
 10
724.0365822321238
 20
14861.72734638509
 10
724.0097043366802
 20
14861.4285528428
 10
723.7807299417096
 20
14858.88311188086
 10
723.753852046266
 20
14858.58431836909
 10
723.2573474532304
 20
14853.06482348094
 10
722.7183639637442
 20
14847.07310299999
 10
721.4208792077395
 20
14832.64934803309
 10
720.8833214445918
 20
14826.67347696195
 10
720.8771261940367
 20
14826.60460618916
 10
720.7430458693198
 20
14825.11407492294
 10
720.7072086855678
 20
14824.71568352306
 10
720.0456417126987
 20
14817.36123868526
 10
719.5606714072085
 20
14811.96996682638
 10
719.0361843928342
 20
14806.13939979247
 10
719.023486671361
 20
14805.99406231538
 10
717.7644539628285
 20
14791.58323767816
 10
717.228734822251
 20
14785.60720178448
 10
717.2257325052644
 20
14785.57371044039
 10
716.0092936185796
 20
14772.0041332133
 10
715.9884337816818
 20
14771.77143828412
 10
715.5239764702299
 20
14766.59034018983
 10
715.4527146118965
 20
14765.79540239306
 10
715.417
 20
14765.397
 10
715.2823924680318
 20
14765.40906683554
 10
708.9378368785669
 20
14765.97782183295
 10
708.8560599993896
 20
14765.1028300119
 10
708.4577955987769
 20
14765.14005187651
 10
702.1636215255328
 20
14765.72830655048
 10
701.7653400067142
 20
14765.76553001496
 10
702.0981647389141
 20
14769.72228766747
 10
702.2000743430891
 20
14770.93383126316
 10
702.3251699880977
 20
14772.42101998963
 10
702.0675384704966
 20
14772.44411525569
 10
702.1046644485692
 20
14772.85826168927
 10
702.331705029468
 20
14775.39093696783
 10
702.3662220995072
 20
14775.77598060026
 10
701.8370014859888
 20
14775.82342235346
 10
702.0640381812822
 20
14778.35605428745
 10
702.1564172102751
 20
14779.38655765413
 10
702.4277119074006
 20
14782.41289492782
 10
702.4479903418907
 20
14782.63910422273
 10
702.4821730502059
 20
14783.02041799475
 10
703.0113936637243
 20
14782.97297624155
  0
LWPOLYLINE
  5
97
330
17
100
AcDbEntity
  8
BUILDING
  6
Continuous
 62
251
370
9
100
AcDbPolyline
 90
10
 70
129
 10
687.5556100021662
 20
14832.7016299937
 10
687.0872899868773
 20
14823.6059099704
 10
682.3582896511734
 20
14823.86404123051
 10
681.2605699942015
 20
14823.92395999024
 10
681.6828722881856
 20
14832.12592294518
 10
681.7288900112918
 20
14833.01968001343
 10
685.6566300241096
 20
14832.80528534807
 10
685.9561842629433
 20
14832.78893425372
 10
686.6783200525322
 20
14832.74951664951
 10
687.5556100021662
 20
14832.7016299937
  0
LWPOLYLINE
  5
98
330
17
100
AcDbEntity
  8
BUILDING
  6
Continuous
 62
251
370
9
100
AcDbPolyline
 90
45
 70
129
 10
689.119999523129
 20
14937.095182585
 10
689.3656473586234
 20
14937.10338886685
 10
689.4666732078005
 20
14934.07926770837
 10
689.6283314004944
 20
14929.24016989655
 10
690.474895352031
 20
14929.26845078891
 10
695.0723306680502
 20
14929.42203585925
 10
702.5004487746819
 20
14929.67018463699
 10
707.097884090701
 20
14929.82376967681
 10
707.913
 20
14929.851
 10
707.6497740409558
 20
14937.73044035157
 10
707.9367835932493
 20
14937.74002838221
 10
707.9185736259042
 20
14938.28512833033
 10
707.724922910245
 20
14944.08189461959
 10
707.7075099948119
 20
14944.60313504442
 10
707.5315039216284
 20
14949.87172411268
 10
707.519342875454
 20
14950.23575429548
 10
707.50264885403
 20
14950.73547553943
 10
707.4422131717887
 20
14952.54456517229
 10
707.3089981078524
 20
14956.53224182867
 10
707.291
 20
14957.071
 10
707.0039904477065
 20
14957.06141196936
 10
706.8781636707663
 20
14960.82792739647
 10
706.8421661484975
 20
14961.90548191954
 10
706.7666967083485
 20
14964.16459397673
 10
706.7435085909605
 20
14964.85871010468
 10
706.244
 20
14964.842
 10
705.0868247932372
 20
14964.80335239723
 10
703.4988413037507
 20
14964.75031653798
 10
701.3191168553728
 20
14964.67749919126
 10
695.5304421521654
 20
14964.48411877804
 10
693.8699450361645
 20
14964.42864708397
 10
692.6706140629292
 20
14964.38858140813
 10
691.0715061189611
 20
14964.33516049684
 10
689.1725654469436
 20
14964.27172319712
 10
688.4588399914549
 20
14964.24788000122
 10
688.5663486692058
 20
14961.02970086745
 10
688.5819383831295
 20
14960.56303628651
 10
688.643496245014
 20
14958.72035505965
 10
688.6714752037111
 20
14957.8828291879
 10
688.7210243232524
 20
14956.39961973937
 10
688.463
 20
14956.391
 10
688.6755671254616
 20
14950.02798785363
 10
688.781098117008
 20
14946.86900903348
 10
688.8972020630513
 20
14943.39353859066
 10
689.0935607369148
 20
14937.51571181727
  0
LWPOLYLINE
  5
99
330
17
100
AcDbEntity
  8
BUILDING
  6
Continuous
 62
251
370
9
100
AcDbPolyline
 90
6
 70
129
 10
695.3114401782237
 20
14595.87971140096
 10
706.6286800134282
 20
14593.23095999023
 10
707.333882168035
 20
14596.26544050417
 10
707.8614284493545
 20
14598.53546897794
 10
709.4949100009155
 20
14605.56432999664
 10
697.9700963183313
 20
14608.26569788282
  0
LWPOLYLINE
  5
9A
330
17
100
AcDbEntity
  8
BUILDING
  6
Continuous
 62
251
370
9
100
AcDbPolyline
 90
4
 70
129
 10
809.4852200954433
 20
14594.32429731989
 10
808.7318562578204
 20
14594.32951329081
 10
808.7802500076297
 20
14599.33623999756
 10
809.3677162345397
 20
14599.33056169601
  0
LWPOLYLINE
  5
9B
330
17
100
AcDbEntity
  8
BUILDING
  6
Continuous
 62
251
370
9
100
AcDbPolyline
 90
9
 70
129
 10
663.801132084109
 20
14554.88967839595
 10
662.475
 20
14549.279
 10
663.4147832895885
 20
14549.05687413351
 10
664.8763523056734
 20
14548.71141972106
 10
670.8837544175542
 20
14547.29151857051
 10
673.2475272072512
 20
14546.73282055117
 10
674.5736592913602
 20
14552.34349894711
 10
672.235602191229
 20
14552.89611883908
 10
663.801132084109
 20
14554.88967839595
  0
LWPOLYLINE
  5
9C
330
17
100
AcDbEntity
  8
BUILDING
  6
Continuous
 62
251
370
9
100
AcDbPolyline
 90
35
 70
129
 10
723.7387900631733
 20
14627.87357234413
 10
723.4812476271859
 20
14626.80414636678
 10
723.3641828669088
 20
14626.31804364147
 10
717.663109256264
 20
14627.69130005799
 10
717.7956320993683
 20
14628.24159144871
 10
716.2448359019746
 20
14628.61505887021
 10
712.7448963591418
 20
14629.45792492447
 10
712.4159200109866
 20
14629.53714999848
 10
715.5379375896482
 20
14643.09798416089
 10
716.3083342692344
 20
14646.44428876614
 10
719.437
 20
14660.034
 10
724.8536478164007
 20
14658.77914465774
 10
724.9577645496994
 20
14659.24704693747
 10
725.1559641149225
 20
14659.20294394896
 10
725.4488018738365
 20
14659.13778225044
 10
730.8433400067141
 20
14657.93740000611
 10
730.7398297677541
 20
14657.47222315134
 10
735.3391318704795
 20
14656.39758787805
 10
735.8351600085451
 20
14656.28168999299
 10
733.9270006103702
 20
14648.04870802942
 10
733.8405874813075
 20
14647.67586831263
 10
732.6843131809443
 20
14642.38215222633
 10
732.6443382671592
 20
14642.21615921507
 10
731.9350988799707
 20
14639.27109485153
 10
731.8746497695854
 20
14639.02008426161
 10
730.744243263039
 20
14634.32615433211
 10
730.5693522141179
 20
14633.6040332957
 10
730.2028644062624
 20
14632.09081356243
 10
730.1285491500595
 20
14631.81371611683
 10
729.8988474684896
 20
14630.84049577319
 10
729.8320476699117
 20
14630.54646617023
 10
728.6338733481857
 20
14625.56299832149
 10
727.9533378704184
 20
14625.72692352062
 10
728.2108802758873
 20
14626.79634949797
 10
723.7387900631733
 20
14627.87357234413
  0
LWPOLYLINE
  5
9D
330
17
100
AcDbEntity
  8
BUILDING
  6
Continuous
 62
251
370
9
100
AcDbPolyline
 90
37
 70
129
 10
715.2610628070926
 20
14545.46152555925
 10
714.7210499893188
 20
14543.14880999176
 10
715.4038427076022
 20
14542.98937354656
 10
719.8949320657979
 20
14541.94067561876
 10
719.7805548570208
 20
14541.45393353069
 10
724.8111762192781
 20
14540.27181181682
 10
725.8161567125461
 20
14540.03565623951
 10
725.9305339213232
 20
14540.52239832759
 10
726.1821637623218
 20
14541.59323090304
 10
730.757539353618
 20
14540.51808520768
 10
730.5059095126194
 20
14539.44725263222
 10
731.09
 20
14539.31
 10
732.2729078646202
 20
14544.34396710105
 10
732.3513289590137
 20
14544.67769487594
 10
732.622526657918
 20
14545.83180019532
 10
732.7009858088932
 20
14546.16568993195
 10
732.9657860042115
 20
14547.29257017731
 10
734.3039144871365
 20
14552.9870913419
 10
734.3154369335001
 20
14553.03612677389
 10
734.3954162419507
 20
14553.37648500015
 10
734.952605609302
 20
14555.74765236366
 10
735.0441073641164
 20
14556.13704602192
 10
735.0474510025331
 20
14556.15127613147
 10
735.9410040894803
 20
14559.95386889249
 10
736.3742264778589
 20
14561.79748429823
 10
738.2602976165047
 20
14569.82382241279
 10
737.6762070986053
 20
14569.96107504502
 10
733.1008315683463
 20
14571.03622074038
 10
733.2152087466048
 20
14571.52296282846
 10
727.5690005493332
 20
14572.84973836482
 10
727.1796068910796
 20
14572.94124011963
 10
727.0652296823026
 20
14572.45449803156
 10
723.2086086306348
 20
14573.37236375012
 10
721.85
 20
14573.68
 10
718.5486646320993
 20
14559.54135447249
 10
718.0320080874053
 20
14557.32866689047
 10
715.2610628070926
 20
14545.46152555925
  0
LWPOLYLINE
  5
9E
330
17
100
AcDbEntity
  8
BUILDING
  6
Continuous
 62
251
370
9
100
AcDbPolyline
 90
36
 70
129
 10
711.3219067774097
 20
14721.945
 10
711.9629232154301
 20
14724.66982869961
 10
712.7364870448928
 20
14727.95808902249
 10
715.8722641376995
 20
14741.28763078708
 10
716.4563201595619
 20
14741.15023150278
 10
716.607750572222
 20
14741.11460747093
 10
720.6742524544281
 20
14740.15796215899
 10
721.0565556199834
 20
14740.06802526933
 10
721.165
 20
14740.529
 10
727.157458967864
 20
14739.12170012513
 10
727.0484735865156
 20
14738.65842572619
 10
731.6748090679691
 20
14737.57007928903
 10
732.232
 20
14737.439
 10
730.3627526169622
 20
14729.49321488083
 10
729.0345550096133
 20
14723.84732071902
 10
728.9914375133519
 20
14723.66403711051
 10
728.5870337160792
 20
14721.945
 10
728.1212264473406
 20
14719.96494940031
 10
728.072756736961
 20
14719.75891457869
 10
726.950658742027
 20
14714.98910748619
 10
726.5610009155553
 20
14713.33275240333
 10
726.1690809961242
 20
14711.66678160955
 10
725.0534958342234
 20
14706.9246591998
 10
724.4117295754876
 20
14707.07563481552
 10
724.6861367229225
 20
14708.24208294931
 10
720.131239906003
 20
14709.31362331004
 10
719.8568327280497
 20
14708.14717511521
 10
719.7484399853512
 20
14707.68641999573
 10
714.2973067415387
 20
14708.91804388562
 10
714.0046827906125
 20
14708.98415906247
 10
713.8004199957273
 20
14709.03031000702
 10
713.9211582995086
 20
14709.54354359569
 10
711.7200181279946
 20
14710.06136222419
 10
709.383794061098
 20
14710.61095934935
 10
708.6937600024418
 20
14710.77328998688
 10
711.3219067774097
 20
14721.945
  0
LWPOLYLINE
  5
9F
330
17
100
AcDbEntity
  8
BUILDING
  6
Continuous
 62
251
370
9
100
AcDbPolyline
 90
12
 70
129
 10
696.4630409578006
 20
14693.10295354731
 10
701.9176711630604
 20
14691.80837424849
 10
702.3101602832118
 20
14693.46210299997
 10
703.1523485213783
 20
14697.01061128575
 10
703.6015945005646
 20
14698.90348152104
 10
704.4696010010072
 20
14702.56077349162
 10
704.838
 20
14704.113
 10
699.2412669759209
 20
14705.44130539873
 10
698.8520780053103
 20
14705.53367387921
 10
696.2893994567705
 20
14706.1418893704
 10
695.90021048616
 20
14706.23425788141
 10
690.4461180621508
 20
14707.52870956522
  0
LWPOLYLINE
  5
A0
330
17
100
AcDbEntity
  8
BUILDING
  6
Continuous
 62
251
370
9
100
AcDbPolyline
 90
18
 70
129
 10
811.6260833825178
 20
14511.51596261036
 10
808.8428137150182
 20
14512.84603872799
 10
808.4819069185461
 20
14513.0185098117
 10
806.6834687032685
 20
14513.87795211646
 10
806.3225619067964
 20
14514.05042320017
 10
793.7423089999088
 20
14520.06230698569
 10
793.381402600177
 20
14520.23477788629
 10
792.1294048651822
 20
14520.83308578419
 10
791.9981393169958
 20
14520.89581530198
 10
791.6372329172643
 20
14521.06828617207
 10
791.4859010211923
 20
14521.14060504996
 10
787.0322895596179
 20
14523.26890841395
 10
781.0291129184851
 20
14526.1377220069
 10
778.362603503525
 20
14520.57952247688
 10
775.6412468368479
 20
14514.90699677159
 10
787.3401635792108
 20
14509.26498886074
 10
792.3090900716177
 20
14506.86863682614
 10
806.5514682117337
 20
14500.0
  0
LWPOLYLINE
  5
A1
330
17
100
AcDbEntity
  8
BUILDING
  6
Continuous
 62
251
370
9
100
AcDbPolyline
 90
11
 70
129
 10
712.5601529587694
 20
14500.0
 10
712.9105000152592
 20
14501.49513000885
 10
707.7405817438276
 20
14502.70657353435
 10
707.3511309244057
 20
14502.79783178198
 10
704.499441053499
 20
14503.46605536058
 10
704.109990234077
 20
14503.55731360821
 10
689.1529441206092
 20
14507.06213046663
 10
688.7634933011872
 20
14507.15338871426
 10
685.8698995941038
 20
14507.83143140965
 10
685.4804487746819
 20
14507.92268965728
 10
676.657853048325
 20
14509.99004853498
  0
LWPOLYLINE
  5
A2
330
17
100
AcDbEntity
  8
BUILDING
  6
Continuous
 62
251
370
9
100
AcDbPolyline
 90
3
 70
129
 10
848.605268578471
 20
14370.05905515409
 10
848.839
 20
14370.574
 10
847.2779197973571
 20
14371.30089916685
  0
LWPOLYLINE
  5
A3
330
17
100
AcDbEntity
  8
BUILDING
  6
Continuous
 62
251
370
9
100
AcDbPolyline
 90
21
 70
129
 10
861.367733326923
 20
14363.96560960576
 10
862.5022002014224
 20
14366.44777694022
 10
862.8848927274391
 20
14367.28509262368
 10
863.0509238563188
 20
14367.64836194952
 10
863.935810174871
 20
14369.58445716727
 10
864.412653706473
 20
14370.62777138585
 10
864.7191385845515
 20
14371.29834778894
 10
866.1405577562791
 20
14374.40835499131
 10
866.4038952604755
 20
14374.98452674947
 10
866.6847946551832
 20
14375.59912317323
 10
867.2298057191687
 20
14376.7915851619
 10
867.4376500137333
 20
14377.24634000672
 10
866.8352003845333
 20
14377.52332236702
 10
866.2370773033846
 20
14377.79831553087
 10
864.2260994293039
 20
14378.72288305307
 10
864.1643733017479
 20
14378.75126227231
 10
863.3791422772912
 20
14379.11228022096
 10
862.2213172849515
 20
14379.64460203469
 10
860.7867945335504
 20
14380.30413845679
 10
860.5182266914884
 20
14380.42761525315
 10
853.1129975851265
 20
14383.83224465849
  0
LWPOLYLINE
  5
A4
330
17
100
AcDbEntity
  8
BUILDING
  6
Continuous
 62
251
370
9
100
AcDbPolyline
 90
7
 70
129
 10
847.0462414545119
 20
14370.8034134795
 10
847.2779197973571
 20
14371.30089916685
 10
853.1129976047789
 20
14383.8322446596
 10
840.9365690176093
 20
14389.47884224983
 10
838.142280037843
 20
14390.77464299448
 10
837.9530359813226
 20
14390.86240150151
 10
834.5878232768015
 20
14392.42295776636
  0
LWPOLYLINE
  5
A5
330
17
100
AcDbEntity
  8
BUILDING
  6
Continuous
 62
251
370
9
100
AcDbPolyline
 90
4
 70
129
 10
723.6246959746087
 20
14457.29881554613
 10
723.6938085879085
 20
14457.590746086
 10
723.9831947691275
 20
14458.81310885952
 10
720.6405157875581
 20
14459.60446573923
  0
LINE
  5
A6
330
17
100
AcDbEntity
  8
OVERHEAD_POWER_LINE
  6
Continuous
 62
251
370
9
100
AcDbLine
 10
867.7850446421346
 20
14377.01185003106
 30
0.0
 11
867.4376500137333
 21
14377.24634000672
 31
0.0
  0
LWPOLYLINE
  5
A7
330
17
100
AcDbEntity
  8
BUILDING
  6
Continuous
 62
251
370
9
100
AcDbPolyline
 90
32
 70
129
 10
844.4129180824942
 20
14435.65450476374
 10
844.081036044664
 20
14434.91945383433
 10
843.6603144322032
 20
14433.987641377
 10
843.4957112338634
 20
14433.62307892087
 10
841.9766283761104
 20
14430.25862065493
 10
840.9821877986833
 20
14428.05613787168
 10
839.9195815301981
 20
14425.70268196661
 10
839.6786599932859
 20
14425.16908999909
 10
840.1567060193604
 20
14424.94636299403
 10
840.2822121373325
 20
14424.88788828606
 10
847.0583304849391
 20
14421.73081875057
 10
849.0896546525468
 20
14420.78440202033
 10
849.3044959767129
 20
14420.68430503734
 10
849.5835997044369
 20
14420.55426747964
 10
849.7237459687121
 20
14420.48897176297
 10
862.0893930771152
 20
14414.72767805895
 10
862.2253598839001
 20
14414.66432959841
 10
865.3764099856563
 20
14413.19622000794
 10
867.276346049379
 20
14412.30608578753
 10
868.2455725272379
 20
14411.85199594104
 10
870.1140056764427
 20
14410.97662108219
 10
873.079445620943
 20
14409.58729035117
 10
873.5425297694321
 20
14409.37033196928
 10
874.3504399853512
 20
14408.99182000183
 10
874.8699818720054
 20
14410.13213495285
 10
874.9134148686178
 20
14410.22746372875
 10
875.6080571306497
 20
14411.75209714042
 10
875.6616493728446
 20
14411.86972392956
 10
877.3333128147221
 20
14415.53876934111
 10
877.8377402264475
 20
14416.6459103061
 10
878.4538085268715
 20
14417.99808590961
 10
878.5328260438097
 20
14418.17151727353
  0
LWPOLYLINE
  5
A8
330
17
100
AcDbEntity
  8
BUILDING
  6
Continuous
 62
251
370
9
100
AcDbPolyline
 90
30
 70
129
 10
724.5715976767655
 20
14484.83473748256
 10
725.2808123416852
 20
14487.83044907987
 10
725.3960000000002
 20
14488.317
 10
727.5583282265696
 20
14487.80508328501
 10
730.6622562639241
 20
14487.07024909208
 10
730.9273898434402
 20
14488.19016925565
 10
731.0195399945067
 20
14488.57940998566
 10
736.945085116123
 20
14487.17657683035
 10
736.5878013855403
 20
14485.66741593677
 10
739.0784606663243
 20
14485.07776901652
 10
741.8777847834712
 20
14484.41504776147
 10
741.762597094638
 20
14483.92849684134
 10
741.2905150171766
 20
14481.93442956624
 10
740.3803450117497
 20
14478.08988576922
 10
740.2651573229164
 20
14477.60333484909
 10
738.903105288858
 20
14471.85004843288
 10
738.8829052400281
 20
14471.76472374646
 10
738.3114793847469
 20
14469.3510299997
 10
738.191779198584
 20
14468.84541825617
 10
736.8095270851771
 20
14463.00680718406
 10
736.6860997344893
 20
14462.48545197913
 10
735.303847651601
 20
14456.64684090701
 10
735.1886599932859
 20
14456.16028998688
 10
733.7050126956999
 20
14456.5115335551
 10
732.3778750267037
 20
14456.82572450941
 10
729.9536087832271
 20
14457.39965330973
 10
729.5951099887081
 20
14455.88535999634
 10
723.6246959746087
 20
14457.29881554613
 10
723.6938085744242
 20
14457.5907460892
 10
723.9831947691275
 20
14458.81310885952
  0
LWPOLYLINE
  5
A9
330
17
100
AcDbEntity
  8
BUILDING
  6
Continuous
 62
251
370
9
100
AcDbPolyline
 90
15
 70
129
 10
673.5977425657417
 20
14497.68551037771
 10
679.2642961210975
 20
14496.35805169836
 10
701.4847892696921
 20
14491.15263252663
 10
704.3731076693015
 20
14490.47600900296
 10
710.0197856379895
 20
14489.1532064272
 10
710.7543759269997
 20
14492.28974074526
 10
710.822786095767
 20
14492.58183669546
 10
711.040440870388
 20
14493.51117325358
 10
711.1696912137212
 20
14494.06304300058
 10
711.2381013824885
 20
14494.35513898129
 10
711.6716812341684
 20
14496.20642686239
 10
711.740091402936
 20
14496.4985228431
 10
712.0474050721763
 20
14497.81068257698
 10
712.1158152409437
 20
14498.1027785577
 10
712.5601529587694
 20
14500.0
  0
LWPOLYLINE
  5
AA
330
17
100
AcDbEntity
  8
BUILDING
  6
Continuous
 62
251
370
9
100
AcDbPolyline
 90
6
 70
129
 10
806.5514682117337
 20
14500.0
 10
809.7658730124821
 20
14498.4497968688
 10
810.1261629078035
 20
14498.27604074222
 10
811.6380796838283
 20
14497.54689226966
 10
811.9983695791498
 20
14497.37313614308
 10
812.2273611190902
 20
14497.26270094949
  0
LWPOLYLINE
  5
AB
330
17
100
AcDbEntity
  8
WATER_PIPELINE
  6
Continuous
 62
252
370
9
100
AcDbPolyline
 90
5
 70
128
 10
777.8086512039552
 20
14984.35438456374
 10
778.7276677144688
 20
14984.42667757195
 10
779.2766711020233
 20
14977.99790176092
 10
778.3576545915097
 20
14977.92560875271
 10
777.8086512039552
 20
14984.35438456374
  0
LWPOLYLINE
  5
AC
330
17
100
AcDbEntity
  8
SEWER
  6
Continuous
 62
252
370
9
100
AcDbPolyline
 90
2
 70
128
 10
782.4815464408014
 20
14990.51616996442
 10
782.5209618114454
 20
14990.26685145788
  0
LWPOLYLINE
  5
AD
330
17
100
AcDbEntity
  8
SEWER
  6
Continuous
 62
252
370
9
100
AcDbPolyline
 90
2
 70
128
 10
782.064882023786
 20
14990.43333339334
 10
782.4815464408014
 20
14990.51616996442
  0
LWPOLYLINE
  5
AE
330
17
100
AcDbEntity
  8
WATER_PIPELINE
  6
Continuous
 62
252
370
9
100
AcDbPolyline
 90
4
 70
128
 10
698.7298976203493
 20
14993.70483756636
 10
700.6156498306223
 20
14983.80794586017
 10
699.8559091158787
 20
14983.66318497269
 10
697.9674164308273
 20
14993.57445936499
  0
LWPOLYLINE
  5
AF
330
17
100
AcDbEntity
  8
SEWER
  6
Continuous
 62
252
370
9
100
AcDbPolyline
 90
2
 70
128
 10
707.3066530045472
 20
14986.09943757439
 10
716.4360407770866
 20
14987.74748268097
  0
LWPOLYLINE
  5
B0
330
17
100
AcDbEntity
  8
SEWER
  6
Continuous
 62
252
370
9
100
AcDbPolyline
 90
4
 70
128
 10
717.2498073622553
 20
14987.19336550171
 10
717.2637918027283
 20
14987.11589834285
 10
707.4431922360912
 20
14985.34307507554
 10
707.3066530045472
 20
14986.09943757439
  0
LWPOLYLINE
  5
B1
330
17
100
AcDbEntity
  8
SEWER
  6
Continuous
 62
252
370
9
100
AcDbPolyline
 90
5
 70
128
 10
693.0011670295811
 20
14983.65332536575
 10
707.3044190468657
 20
14986.12692348167
 10
707.4401294262109
 20
14985.34493074507
 10
693.1368774089261
 20
14982.87133262916
 10
693.0011670295811
 20
14983.65332536575
  0
LWPOLYLINE
  5
B2
330
17
100
AcDbEntity
  8
WATER_PIPELINE
  6
Continuous
 62
252
370
9
100
AcDbPolyline
 90
5
 70
128
 10
748.0692348725444
 20
14751.13093977799
 10
748.0375896807354
 20
14751.76014452667
 10
772.3711774040955
 20
14752.96560237434
 10
772.4028225959045
 20
14752.33639762566
 10
748.0692348725444
 20
14751.13093977799
  0
LWPOLYLINE
  5
B3
330
17
100
AcDbEntity
  8
WATER_PIPELINE
  6
Continuous
 62
252
370
9
100
AcDbPolyline
 90
5
 70
128
 10
754.4211706289865
 20
14600.18102063051
 10
755.0955921811579
 20
14584.76840028077
 10
754.0641568346202
 20
14584.72326697592
 10
753.3897352824488
 20
14600.13588735618
 10
754.4211706289865
 20
14600.18102063051
  0
LWPOLYLINE
  5
B4
330
17
100
AcDbEntity
  8
SEWER
  6
Continuous
 62
252
370
9
100
AcDbPolyline
 90
5
 70
128
 10
784.6576286602887
 20
14989.48690803117
 10
784.4599127535404
 20
14990.78919686734
 10
785.4519083834346
 20
14990.93980349132
 10
785.7220916165655
 20
14989.16019650868
 10
785.6024294969687
 20
14989.14202918283
  0
LWPOLYLINE
  5
B5
330
17
100
AcDbEntity
  8
SEWER
  6
Continuous
 62
252
370
9
100
AcDbPolyline
 90
3
 70
128
 10
691.5301037489489
 20
14983.39892577661
 10
691.6501049696893
 20
14982.67885656063
 10
686.3096726586314
 20
14981.79559315473
  0
LWPOLYLINE
  5
B6
330
17
100
AcDbEntity
  8
SEWER
  6
Continuous
 62
252
370
9
100
AcDbPolyline
 90
2
 70
128
 10
686.2636326476941
 20
14982.52789494408
 10
691.5301037489489
 20
14983.39892577661
  0
LWPOLYLINE
  5
B7
330
17
100
AcDbEntity
  8
WATER_PIPELINE
  6
Continuous
 62
252
370
9
100
AcDbPolyline
 90
6
 70
128
 10
731.5184449293497
 20
14750.76317322306
 10
731.508
 20
14751.078
 10
731.4975550706503
 20
14751.39282677694
 10
741.5045550706503
 20
14751.72482677694
 10
741.5254449293498
 20
14751.09517322306
 10
731.5184449293497
 20
14750.76317322306
  0
LWPOLYLINE
  5
B8
330
17
100
AcDbEntity
  8
WATER_PIPELINE
  6
Continuous
 62
252
370
9
100
AcDbPolyline
 90
5
 70
128
 10
708.4192375560777
 20
14750.4832403943
 10
708.4357817011017
 20
14749.85345768609
 10
700.447268715476
 20
14749.64360292368
 10
700.4307245704521
 20
14750.27338563189
 10
708.4192375560777
 20
14750.4832403943
  0
LWPOLYLINE
  5
B9
330
17
100
AcDbEntity
  8
SEWER
  6
Continuous
 62
252
370
9
100
AcDbPolyline
 90
5
 70
128
 10
720.3814517727234
 20
14683.1488115251
 10
721.7804071019916
 20
14686.97878760009
 10
722.343987825437
 20
14686.77293141689
 10
720.9450324961688
 20
14682.9429553419
 10
720.3814517727234
 20
14683.1488115251
  0
LWPOLYLINE
  5
BA
330
17
100
AcDbEntity
  8
GAS
  6
Continuous
 62
252
370
9
100
AcDbPolyline
 90
5
 70
128
 10
710.4197794286372
 20
14550.07691270163
 10
712.0177157163988
 20
14543.31285204914
 10
711.4337886871309
 20
14543.17490559399
 10
709.8358523993693
 20
14549.93896624647
 10
710.4197794286372
 20
14550.07691270163
  0
LWPOLYLINE
  5
BB
330
17
100
AcDbEntity
  8
GAS
  6
Continuous
 62
252
370
9
100
AcDbPolyline
 90
5
 70
128
 10
718.603995073135
 20
14515.66364099515
 10
720.1238603917784
 20
14509.29283366971
 10
719.5402387782806
 20
14509.15360072728
 10
718.0203734596372
 20
14515.52440805273
 10
718.603995073135
 20
14515.66364099515
  0
LWPOLYLINE
  5
BC
330
17
100
AcDbEntity
  8
WATER_PIPELINE
  6
Continuous
 62
252
370
9
100
AcDbPolyline
 90
5
 70
128
 10
775.0631551517638
 20
14755.18566220035
 10
801.9981286015635
 20
14752.21776714584
 10
801.9618182980369
 20
14751.90444274513
 10
775.0268448482371
 20
14754.87233779965
 10
775.0631551517638
 20
14755.18566220035
  0
LWPOLYLINE
  5
BD
330
17
100
AcDbEntity
  8
SEWER
  6
Continuous
 62
252
370
9
100
AcDbPolyline
 90
3
 70
128
 10
789.5459895623877
 20
15000.0
 10
789.5715670902813
 20
14999.85661945115
 10
766.8167927487232
 20
14995.99931435399
  0
LWPOLYLINE
  5
BE
330
17
100
AcDbEntity
  8
SEWER
  6
Continuous
 62
252
370
9
100
AcDbPolyline
 90
2
 70
128
 10
765.4867506779992
 20
14996.4848170756
 10
786.5015952690711
 20
15000.0
  0
LWPOLYLINE
  5
BF
330
17
100
AcDbEntity
  8
WATER_PIPELINE
  6
Continuous
 62
252
370
9
100
AcDbPolyline
 90
5
 70
128
 10
793.7749014252144
 20
14431.17873247475
 10
794.1050985747856
 20
14431.71526752526
 10
799.8100985747857
 20
14428.20426752526
 10
799.4799014252144
 20
14427.66773247475
 10
793.7749014252144
 20
14431.17873247475
  0
LWPOLYLINE
  5
C0
330
17
100
AcDbEntity
  8
SEWER
  6
Continuous
 62
252
370
9
100
AcDbPolyline
 90
3
 70
128
 10
789.0071434219669
 20
14421.11166711627
 10
789.0773290355417
 20
14421.70754797201
 10
797.452174788541
 20
14420.76225281104
  0
LWPOLYLINE
  5
C1
330
17
100
AcDbEntity
  8
SEWER
  6
Continuous
 62
252
370
9
100
AcDbPolyline
 90
2
 70
128
 10
796.7574816679481
 20
14420.23686208035
 10
788.9660975835636
 20
14421.18617974016
  0
LWPOLYLINE
  5
C2
330
17
100
AcDbEntity
  8
GAS
  6
Continuous
 62
252
370
9
100
AcDbPolyline
 90
5
 70
128
 10
718.8977077252163
 20
14498.48800514878
 10
718.0872776876527
 20
14493.29298946778
 10
717.4944480114648
 20
14493.38547176355
 10
718.3048780490285
 20
14498.58048744455
 10
718.8977077252163
 20
14498.48800514878
  0
LWPOLYLINE
  5
C3
330
17
100
AcDbEntity
  8
WATER_PIPELINE
  6
Continuous
 62
252
370
9
100
AcDbPolyline
 90
4
 70
128
 10
686.4485063029045
 20
14979.58733724746
 10
698.919607
 20
14982.149555
 10
699.046393
 20
14981.532445
 10
686.4884262111528
 20
14978.95238039915
  0
LWPOLYLINE
  5
C4
330
17
100
AcDbEntity
  8
WATER_PIPELINE
  6
Continuous
 62
252
370
9
100
AcDbPolyline
 90
2
 70
128
 10
686.489205555178
 20
14978.93998433293
 10
720.2756829942435
 20
14985.13295936001
  0
LWPOLYLINE
  5
C5
330
17
100
AcDbEntity
  8
WATER_PIPELINE
  6
Continuous
 62
252
370
9
100
AcDbPolyline
 90
2
 70
128
 10
721.4755925016345
 20
14984.31590630854
 10
686.5536588525973
 20
14977.91480505801
  0
LWPOLYLINE
  5
C6
330
17
100
AcDbEntity
  8
WATER_PIPELINE
  6
Continuous
 62
252
370
9
100
AcDbPolyline
 90
2
 70
128
 10
771.3775117404365
 20
14994.33452379454
 10
799.9745033780084
 20
14999.52938528562
  0
LWPOLYLINE
  5
C7
330
17
100
AcDbEntity
  8
WATER_PIPELINE
  6
Continuous
 62
252
370
9
100
AcDbPolyline
 90
2
 70
128
 10
799.9987326739282
 20
14998.49709357973
 10
773.2738355564784
 20
14993.64231232693
  0
LWPOLYLINE
  5
C8
330
17
100
AcDbEntity
  8
WATER_PIPELINE
  6
Continuous
 62
252
370
9
100
AcDbPolyline
 90
4
 70
128
 10
737.2115061916572
 20
14978.861416173
 10
738.6053736624705
 20
14971.48011042541
 10
737.9863146793663
 20
14971.36320886239
 10
736.5929808330677
 20
14978.74168877052
  0
LWPOLYLINE
  5
C9
330
17
100
AcDbEntity
  8
SEWER
  6
Continuous
 62
252
370
9
100
AcDbPolyline
 90
4
 70
128
 10
692.3902969706684
 20
14992.62081642393
 10
695.7779479391339
 20
14971.72633209914
 10
695.057675103659
 20
14971.60755882115
 10
691.665254239018
 20
14992.49683990021
  0
LWPOLYLINE
  5
CA
330
17
100
AcDbEntity
  8
SEWER
  6
Continuous
 62
252
370
9
100
AcDbPolyline
 90
3
 70
128
 10
703.938519104587
 20
14975.09613376263
 10
703.6292779473251
 20
14976.71611947996
 10
726.94333507237
 20
14980.59276241761
  0
LWPOLYLINE
  5
CB
330
17
100
AcDbEntity
  8
SEWER
  6
Continuous
 62
252
370
9
100
AcDbPolyline
 90
2
 70
128
 10
728.6474151734267
 20
14979.43240504236
 10
703.94
 20
14974.75
  0
LWPOLYLINE
  5
CC
330
17
100
AcDbEntity
  8
SEWER
  6
Continuous
 62
252
370
9
100
AcDbPolyline
 90
5
 70
128
 10
773.4475955381939
 20
14442.70347712638
 10
773.8188070925015
 20
14443.22267458113
 10
788.1722392956328
 20
14422.33791976684
 10
787.6777607043672
 20
14421.99808023316
 10
773.4475955381939
 20
14442.70347712638
  0
LWPOLYLINE
  5
CD
330
17
100
AcDbEntity
  8
WATER_PIPELINE
  6
Continuous
 62
252
370
9
100
AcDbPolyline
 90
2
 70
128
 10
802.9869565680503
 20
14752.30423767749
 10
805.7796829579039
 20
14752.1990975465
  0
LWPOLYLINE
  5
CE
330
17
100
AcDbEntity
  8
WATER_PIPELINE
  6
Continuous
 62
252
370
9
100
AcDbPolyline
 90
3
 70
128
 10
805.7943688213776
 20
14751.57340478565
 10
802.949268853587
 20
14751.67354949209
 10
802.9869565680503
 20
14752.30423767749
  0
LWPOLYLINE
  5
CF
330
17
100
AcDbEntity
  8
GAS
  6
Continuous
 62
252
370
9
100
AcDbPolyline
 90
5
 70
128
 10
714.0233251781734
 20
14589.31471300039
 10
714.2366748218266
 20
14589.26528699961
 10
712.8466748218267
 20
14583.26528699961
 10
712.6333251781735
 20
14583.31471300039
 10
714.0233251781734
 20
14589.31471300039
  0
LWPOLYLINE
  5
D0
330
17
100
AcDbEntity
  8
GAS
  6
Continuous
 62
252
370
9
100
AcDbPolyline
 90
5
 70
128
 10
703.420746316647
 20
14543.44734048185
 10
703.639253683353
 20
14543.43265951815
 10
703.209253683353
 20
14537.03265951815
 10
702.990746316647
 20
14537.04734048185
 10
703.420746316647
 20
14543.44734048185
  0
LWPOLYLINE
  5
D1
330
17
100
AcDbEntity
  8
GAS
  6
Continuous
 62
252
370
9
100
AcDbPolyline
 90
3
 70
128
 10
721.672492872149
 20
14490.57079585202
 10
721.887507127851
 20
14490.52920414799
 10
720.9605769100967
 20
14485.7373059687
  0
LWPOLYLINE
  5
D2
330
17
100
AcDbEntity
  8
GAS
  6
Continuous
 62
252
370
9
100
AcDbPolyline
 90
2
 70
128
 10
720.7478046579647
 20
14485.79048803048
 10
721.672492872149
 20
14490.57079585202
  0
LWPOLYLINE
  5
D3
330
17
100
AcDbEntity
  8
GAS
  6
Continuous
 62
252
370
9
100
AcDbPolyline
 90
5
 70
128
 10
800.0777511583279
 20
14995.13050272508
 10
793.5223583632843
 20
14994.14620951261
 10
787.0466351527782
 20
14993.0352276326
 10
780.247029913107
 20
14991.74340277853
 10
779.1776078300685
 20
14991.48726958827
  0
LWPOLYLINE
  5
D4
330
17
100
AcDbEntity
  8
GAS
  6
Continuous
 62
252
370
9
100
AcDbPolyline
 90
5
 70
128
 10
780.1981769528213
 20
14991.1147331869
 10
780.3729700869015
 20
14991.15659722148
 10
787.153364847176
 20
14992.44477236739
 10
793.6176416367597
 20
14993.5537904874
 10
800.0919418306918
 20
14994.52590763364
  0
LWPOLYLINE
  5
D5
330
17
100
AcDbEntity
  8
GAS
  6
Continuous
 62
252
370
9
100
AcDbPolyline
 90
5
 70
128
 10
743.519927747704
 20
14971.72658377983
 10
743.3399277477039
 20
14979.92658377983
 10
742.740072252296
 20
14979.91341622017
 10
742.9200722522961
 20
14971.71341622018
 10
743.519927747704
 20
14971.72658377983
  0
LWPOLYLINE
  5
D6
330
17
100
AcDbEntity
  8
WATER_PIPELINE
  6
Continuous
 62
252
370
9
100
AcDbPolyline
 90
5
 70
128
 10
701.9817291693546
 20
14982.67611441001
 10
702.4993245394062
 20
14982.76589442163
 10
702.6058662006974
 20
14982.15166560162
 10
702.0882708306457
 20
14982.06188559
 10
701.9817291693546
 20
14982.67611441001
  0
LWPOLYLINE
  5
D7
330
17
100
AcDbEntity
  8
WATER_PIPELINE
  6
Continuous
 62
252
370
9
100
AcDbPolyline
 90
5
 70
128
 10
702.5640931160766
 20
14982.04882338263
 10
712.6511715567541
 20
14967.12995551033
 10
713.3891003270234
 20
14967.62889051351
 10
703.302021886346
 20
14982.54775838581
 10
702.5640931160766
 20
14982.04882338263
  0
LWPOLYLINE
  5
D8
330
17
100
AcDbEntity
  8
WATER_PIPELINE
  6
Continuous
 62
252
370
9
100
AcDbPolyline
 90
5
 70
128
 10
713.3641882724952
 20
14967.50581716014
 10
714.223523754925
 20
14967.6027464538
 10
714.2915643141108
 20
14966.99952667839
 10
713.432228831681
 20
14966.90259738473
 10
713.3641882724952
 20
14967.50581716014
  0
LWPOLYLINE
  5
D9
330
17
100
AcDbEntity
  8
SEWER
  6
Continuous
 62
252
370
9
100
AcDbPolyline
 90
2
 70
128
 10
791.1008096043711
 20
15000.94060656021
 10
799.9070510584306
 20
15002.40319846923
  0
LWPOLYLINE
  5
DA
330
17
100
AcDbEntity
  8
SEWER
  6
Continuous
 62
252
370
9
100
AcDbPolyline
 90
3
 70
128
 10
799.9289136728149
 20
15001.47173947954
 10
791.2518928893835
 20
15000.03060927635
 10
791.1008096043711
 20
15000.94060656021
  0
LWPOLYLINE
  5
DB
330
17
100
AcDbEntity
  8
SEWER
  6
Continuous
 62
252
370
9
100
AcDbPolyline
 90
3
 70
128
 10
786.5015952690711
 20
15000.0
 10
789.4729861445967
 20
15000.4783600879
 10
789.5459895623877
 20
15000.0
  0
LWPOLYLINE
  5
DC
330
17
100
AcDbEntity
  8
BUILDING
  6
Continuous
 62
251
370
9
100
AcDbPolyline
 90
11
 70
129
 10
444.8165709102818
 20
14346.52838196397
 10
444.9391178014466
 20
14346.30666069521
 10
445.7870917996765
 20
14344.77244096195
 10
449.3116963713492
 20
14338.39545542772
 10
459.5937629627369
 20
14344.07842567217
 10
463.4713789178136
 20
14346.22161119419
 10
472.3250272835475
 20
14351.11508465835
 10
474.2608411206397
 20
14352.18502252266
 10
478.1384570757164
 20
14354.32820804468
 10
488.498
 20
14360.054
 10
483.9354326405954
 20
14368.30894757227
  0
LWPOLYLINE
  5
DD
330
17
100
AcDbEntity
  8
BUILDING
  6
Continuous
 62
251
370
9
100
AcDbPolyline
 90
39
 70
129
 10
394.8143140417648
 20
14256.45077655165
 10
395.3745253516767
 20
14255.44017995126
 10
397.8056100039674
 20
14251.05461000397
 10
398.8385506738433
 20
14251.62774127947
 10
400.1715501833132
 20
14252.36736140615
 10
400.6025440630857
 20
14252.60650008976
 10
404.235007681514
 20
14254.62198710422
 10
404.9743942037318
 20
14255.03223868296
 10
406.7338183856451
 20
14256.00846225023
 10
407.8614128849151
 20
14256.63411258278
 10
408.5504959839907
 20
14257.01645310535
 10
470.0572434766686
 20
14291.14371883297
 10
480.550329996643
 20
14296.96585000153
 10
477.0161776177253
 20
14303.27874648274
 10
476.8207813043613
 20
14303.62777407148
 10
476.3265555589465
 20
14304.51058714561
 10
475.5018561052278
 20
14305.98371050142
 10
474.2317799920652
 20
14308.25238999604
 10
473.9193066194649
 20
14308.07902844325
 10
473.2220875576037
 20
14307.69220838038
 10
472.732268898587
 20
14307.42045493942
 10
471.1592403942992
 20
14306.54773213905
 10
470.4308651692252
 20
14306.14362651448
 10
468.9055223548082
 20
14305.29735990478
 10
468.6650964079715
 20
14305.16397058016
 10
468.4674199957274
 20
14305.52026999726
 10
465.6055800042728
 20
14303.90237998596
 10
465.7904748680075
 20
14303.56911850338
 10
465.5471934568316
 20
14303.43414496293
 10
464.2355393841366
 20
14302.70643375958
 10
463.864528214362
 20
14302.50059520249
 10
460.9802239448226
 20
14300.90037107456
 10
459.3893551438948
 20
14300.01775038911
 10
457.9028138676107
 20
14299.1930110477
 10
453.7631999572741
 20
14296.89633588672
 10
452.7031676076541
 20
14296.30822550127
 10
451.5282483596301
 20
14295.65637537767
 10
451.3413599963378
 20
14295.99322998749
 10
451.1726594022627
 20
14295.90040068263
  0
LWPOLYLINE
  5
DE
330
17
100
AcDbEntity
  8
BUILDING
  6
Continuous
 62
251
370
9
100
AcDbPolyline
 90
11
 70
129
 10
470.0572434766686
 20
14291.14371883297
 10
470.6434366893521
 20
14290.09662843715
 10
458.3140600299081
 20
14283.25562431715
 10
458.0517328669725
 20
14283.11007103758
 10
455.8656731512787
 20
14281.89712702755
 10
455.603345988342
 20
14281.75157374798
 10
428.2050458082828
 20
14266.549516892
 10
419.4608693807795
 20
14261.69777550585
 10
409.0139329440888
 20
14255.90125090315
 10
408.4432070986053
 20
14255.58458137761
 10
407.8614128849147
 20
14256.63411258278
  0
LWPOLYLINE
  5
DF
330
17
100
AcDbEntity
  8
BUILDING
  6
Continuous
 62
251
370
9
100
AcDbPolyline
 90
5
 70
129
 10
432.0927787938191
 20
14330.69631770847
 10
436.6829363994262
 20
14332.82809726249
 10
436.5439598762608
 20
14333.12734215564
 10
433.987
 20
14338.633
 10
429.0086058266921
 20
14336.3209140495
  0
LWPOLYLINE
  5
E0
330
17
100
AcDbEntity
  8
BUILDING
  6
Continuous
 62
251
370
9
100
AcDbPolyline
 90
47
 70
129
 10
589.7101507597437
 20
14362.62702366895
 10
590.0877737357707
 20
14361.12779357281
 10
591.2483400067141
 20
14356.52013998841
 10
589.5245538804285
 20
14355.562621601
 10
587.7731193578906
 20
14354.58974523149
 10
585.7491833857234
 20
14353.46550138859
 10
584.3219670705283
 20
14352.67271980957
 10
582.5194822229682
 20
14351.67148631245
 10
580.630172521134
 20
14350.62202386548
 10
579.113631550035
 20
14349.77962477493
 10
577.2474812158574
 20
14348.74302676474
 10
573.6837709585864
 20
14346.7634783166
 10
572.984407696768
 20
14346.37500021363
 10
569.3033115329447
 20
14344.33024695578
 10
563.4413371990113
 20
14341.0740725425
 10
563.0916621906185
 20
14340.87983715324
 10
561.0771669972838
 20
14339.7608374279
 10
560.7274919888913
 20
14339.56660203864
 10
556.7019217505417
 20
14337.33050239571
 10
555.3384452650533
 20
14336.57288000122
 10
551.404903378399
 20
14334.38718817713
 10
542.4014630878628
 20
14329.38438248848
 10
542.0518149357586
 20
14329.1900987579
 10
540.2161620532853
 20
14328.17010925626
 10
527.6092032532731
 20
14321.16499087497
 10
525.107304300058
 20
14319.77465691092
 10
524.4339249244666
 20
14319.40045225379
 10
523.7346454054384
 20
14319.01185460983
 10
521.7643711050753
 20
14317.91695056002
 10
521.065091586047
 20
14317.52835288553
 10
514.14
 20
14313.68
 10
510.815014496292
 20
14319.6557027192
 10
510.6205271462142
 20
14320.00523764764
 10
509.709367015595
 20
14321.64278527177
 10
509.5148796655171
 20
14321.9923202002
 10
509.2024666585285
 20
14322.55379250466
 10
508.8284326303904
 20
14323.22601083407
 10
508.6339452803125
 20
14323.57554576251
 10
508.0793661610768
 20
14324.57224179816
 10
507.8848788109989
 20
14324.92177672659
 10
506.25
 20
14327.86
 10
508.9089614551225
 20
14329.34922452468
 10
510.0380106509598
 20
14329.98157960753
 10
515.4801720633565
 20
14333.0296118656
 10
516.5271446882534
 20
14333.61599771111
 10
520.6664752952667
 20
14335.93434369945
 10
522.7115350436364
 20
14337.07973570615
  0
LWPOLYLINE
  5
E1
330
17
100
AcDbEntity
  8
BUILDING
  6
Continuous
 62
251
370
9
100
AcDbPolyline
 90
27
 70
129
 10
701.1978929715873
 20
14250.0
 10
696.8457613618946
 20
14251.76730114561
 10
696.5195699942016
 20
14251.89976000244
 10
699.3927336649679
 20
14258.97517349773
 10
698.1087499923703
 20
14259.49535999634
 10
703.9911199987793
 20
14273.96928998688
 10
704.3618529923399
 20
14273.81909314249
 10
705.2542506790369
 20
14273.45755177465
 10
706.7587599719229
 20
14277.14990414136
 10
708.1278900112918
 20
14280.51001001007
 10
711.2035145420698
 20
14279.2567965331
 10
711.8431569566942
 20
14278.99616379284
 10
713.4147797784356
 20
14278.35578038881
 10
714.6601152684103
 20
14277.84834809412
 10
716.2710481887265
 20
14277.19194717246
 10
717.3645639820552
 20
14276.74637629322
 10
718.8572736289559
 20
14276.13814737389
 10
719.950289986877
 20
14275.69277999207
 10
717.0295498519852
 20
14268.52472743919
 10
718.2484300057985
 20
14268.03549998475
 10
717.7975568407238
 20
14266.91217722099
 10
717.0146549577319
 20
14264.96162523271
 10
716.6958559526353
 20
14264.16735709708
 10
715.8782794274728
 20
14262.13041538743
 10
712.4830299251454
 20
14253.67136002624
 10
711.2375750907926
 20
14254.17125385297
 10
709.5437242652671
 20
14250.0
  0
LWPOLYLINE
  5
E2
330
17
100
AcDbEntity
  8
BUILDING
  6
Continuous
 62
251
370
9
100
AcDbPolyline
 90
28
 70
129
 10
750.0
 20
14327.01587974688
 10
749.2188948332164
 20
14326.39817548144
 10
746.6844031189917
 20
14324.39387899411
 10
744.7316516006958
 20
14322.84962733848
 10
743.6685550706503
 20
14322.00892202521
 10
740.8445197607349
 20
14319.77565211951
 10
739.2001189001129
 20
14318.4752466506
 10
738.6407492294077
 20
14318.03289260537
 10
737.8965807061984
 20
14317.44439814448
 10
736.6635004425184
 20
14316.46926831874
 10
736.3497510605182
 20
14316.22115277566
 10
736.2060311899166
 20
14316.10749794
 10
735.892249488815
 20
14315.85935685293
 10
734.3061488082521
 20
14314.60505560473
 10
733.9923994262523
 20
14314.35694006165
 10
733.7113714102603
 20
14314.13470085757
 10
734.6497395550401
 20
14312.93551780755
 10
733.9135396282845
 20
14312.35943684195
 10
733.5941580553606
 20
14312.10951878415
 10
730.5254971770379
 20
14309.70827277444
 10
729.9434500869778
 20
14309.2528173162
 10
729.7951557054355
 20
14309.13677602467
 10
728.7366534623249
 20
14308.30849153112
 10
727.4623095051454
 20
14307.31130952534
 10
719.8215053794136
 20
14317.20802764957
 10
717.2243899960329
 20
14320.57192999054
 10
719.3973646961882
 20
14322.265902707
 10
750.0
 20
14346.12261378826
  0
LWPOLYLINE
  5
E3
330
17
100
AcDbEntity
  8
BUILDING
  6
Continuous
 62
251
370
9
100
AcDbPolyline
 90
31
 70
129
 10
826.6602814722129
 20
14396.09921127965
 10
824.0389558702353
 20
14397.309127781
 10
823.1757926068113
 20
14397.70830112708
 10
823.1138419141209
 20
14397.73695046846
 10
821.5178719443343
 20
14398.47501327555
 10
819.2414043092135
 20
14399.52777495651
 10
818.0181799981689
 20
14400.09346000549
 10
811.7270394604327
 20
14395.17231092258
 10
810.6573167210914
 20
14394.33553657643
 10
810.4224716940828
 20
14394.15183260598
 10
805.677534440138
 20
14390.44017755669
 10
793.434379894406
 20
14380.86315594959
 10
790.299149998474
 20
14378.41067000336
 10
793.3569023712881
 20
14374.49841132847
 10
795.0005773491623
 20
14372.39540202033
 10
795.5481167027802
 20
14371.69484969634
 10
795.8851846675008
 20
14371.26358616901
 10
796.4800767845699
 20
14370.50244804224
 10
796.9694152043214
 20
14369.87636121708
 10
799.4576306039613
 20
14366.69279989014
 10
800.547
 20
14365.299
 10
804.171098178045
 20
14368.08569621876
 10
807.2835268105106
 20
14370.47895178076
 10
810.7195473799859
 20
14373.12102853481
 10
814.5950000058292
 20
14376.10099999243
 10
813.3824683675651
 20
14377.67789730522
 10
817.677294534135
 20
14380.98033979309
 10
818.3427142857144
 20
14381.49200439467
 10
818.9724456617939
 20
14381.97622693564
 10
819.361
 20
14382.275
 10
820.8040000915555
 20
14382.40099996948
  0
LWPOLYLINE
  5
E4
330
17
100
AcDbEntity
  8
BUILDING
  6
Continuous
 62
251
370
9
100
AcDbPolyline
 90
8
 70
129
 10
834.5875018830798
 20
14392.42310680686
 10
833.1672429464999
 20
14393.08172609063
 10
826.6602814722129
 20
14396.09921127965
 10
824.6080941342113
 20
14391.69153006976
 10
823.1679915158544
 20
14388.59848240608
 10
820.3734607684561
 20
14382.59639844966
 10
820.8040000915555
 20
14382.40099996948
 10
821.7018481236422
 20
14381.99351535994
  0
LWPOLYLINE
  5
E5
330
17
100
AcDbEntity
  8
BUILDING
  6
Continuous
 62
251
370
9
100
AcDbPolyline
 90
26
 70
129
 10
750.0
 20
14346.12261378826
 10
756.7113774224067
 20
14351.35456163213
 10
763.3219898373363
 20
14356.50795669424
 10
777.5454199957273
 20
14367.5960299997
 10
780.168901699881
 20
14364.23337330241
 10
782.2182489394818
 20
14361.60661540575
 10
782.8507301858577
 20
14360.79593038728
 10
787.248704977569
 20
14355.15881105991
 10
787.7488800012208
 20
14354.51771001313
 10
780.5060000079908
 20
14348.71799999002
 10
779.3184045533616
 20
14350.20111059908
 10
779.0137235633412
 20
14349.96016641743
 10
776.8203110446485
 20
14348.22559810175
 10
776.5065616626483
 20
14347.97748255867
 10
771.07467220069
 20
14343.68190054018
 10
768.2417272255626
 20
14341.44158479568
 10
767.9279778435622
 20
14341.1934692526
 10
765.0257960448012
 20
14338.89840046388
 10
757.8787235938597
 20
14333.24643791009
 10
755.3904422437212
 20
14331.27868495743
 10
754.1874507889036
 20
14330.32734958953
 10
753.8737014069034
 20
14330.07923404645
 10
751.9112212591938
 20
14328.52728894925
 10
751.1355632190924
 20
14327.91389230018
 10
750.8218138370922
 20
14327.6657767571
 10
750.0
 20
14327.01587974688
  0
LWPOLYLINE
  5
E6
330
17
100
AcDbEntity
  8
BUILDING
  6
Continuous
 62
251
370
9
100
AcDbPolyline
 90
4
 70
129
 10
460.0244133121739
 20
14113.78320026247
 10
459.2906013061922
 20
14113.49361540575
 10
459.4376013061922
 20
14113.12161540575
 10
460.1727160863063
 20
14113.41210428175
  0
LWPOLYLINE
  5
E7
330
17
100
AcDbEntity
  8
BUILDING
  6
Continuous
 62
251
370
9
100
AcDbPolyline
 90
42
 70
129
 10
500.0000000000001
 20
14131.53012684422
 10
494.0167868880296
 20
14139.32702536404
 10
491.095
 20
14143.134
 10
481.2935217749565
 20
14135.56353364666
 10
480.9769557786798
 20
14135.31902194281
 10
478.7833130893887
 20
14133.62467918943
 10
478.466747093112
 20
14133.38016748558
 10
470.6760107119968
 20
14127.36269801935
 10
470.3594447057732
 20
14127.11818630478
 10
469.626069311618
 20
14126.55173611265
 10
469.3095033112587
 20
14126.3072244026
 10
468.1827003997925
 20
14125.4368956267
 10
467.8661344159407
 20
14125.19238393062
 10
467.0653707561235
 20
14124.57388386867
 10
466.7488047730949
 20
14124.32937217323
 10
466.0501516769921
 20
14123.78974108097
 10
465.7335856971286
 20
14123.54522938985
 10
464.8134505477947
 20
14122.83452825412
 10
464.4968845789971
 20
14122.59001657155
 10
462.1937597582934
 20
14120.81111114841
 10
461.95633527463
 20
14120.62772737775
 10
461.1988089501608
 20
14120.04262329911
 10
460.9613844416639
 20
14119.85923950926
 10
459.0512096689415
 20
14118.38384389429
 10
458.39
 20
14117.873
 10
460.0244133121739
 20
14113.78320026247
 10
460.1727160863063
 20
14113.41210428175
 10
460.54387612537
 20
14112.48335569323
 10
461.1203300881985
 20
14111.0409030427
 10
461.9085168166339
 20
14109.06863444141
 10
462.4849707681715
 20
14107.62618179282
 10
463.1418153521215
 20
14105.98256879077
 10
463.7182692986362
 20
14104.54011615475
 10
464.4131403241066
 20
14102.80135013886
 10
464.9895942564169
 20
14101.35889751885
 10
465.5140796838282
 20
14100.04648500015
 10
466.9070916776025
 20
14096.56076204719
 10
467.3470520340587
 20
14095.41897607349
 10
467.4549191259499
 20
14095.13903912473
 10
468.041310159612
 20
14093.6172359386
 10
468.149177251503
 20
14093.33729898984
 10
468.427658643675
 20
14092.61458347218
  0
LWPOLYLINE
  5
E8
330
17
100
AcDbEntity
  8
BUILDING
  6
Continuous
 62
251
370
9
100
AcDbPolyline
 90
33
 70
129
 10
480.6589501902788
 20
14102.12166113133
 10
479.3762118594927
 20
14105.43585805841
 10
479.3266960966831
 20
14105.56379137547
 10
479.182426862392
 20
14105.9365381634
 10
478.753036957915
 20
14107.04594814906
 10
478.6086127506333
 20
14107.41909540086
 10
477.5219553514206
 20
14110.2266801355
 10
477.3711566820277
 20
14110.61629703665
 10
476.1907000030519
 20
14113.66622998749
 10
477.352367015595
 20
14114.57170818201
 10
477.784003051851
 20
14114.01794845424
 10
478.0994858851894
 20
14114.26385610524
 10
478.4149687490463
 20
14114.50976378674
 10
479.2036758629109
 20
14115.12453294473
 10
479.5191586962493
 20
14115.37044059572
 10
486.8578140812403
 20
14121.09066161077
 10
487.1732969145787
 20
14121.33656926176
 10
488.1924477065344
 20
14122.1309610889
 10
488.5079305398725
 20
14122.37686873989
 10
488.8234133732109
 20
14122.62277639088
 10
490.7395710318308
 20
14124.11635319071
 10
491.0550538346507
 20
14124.36226081118
 10
492.2270000000002
 20
14122.859
 10
494.6624653462325
 20
14124.7575892819
 10
494.9779892880032
 20
14125.00344419691
 10
495.2934721213416
 20
14125.2493518479
 10
495.6089549851985
 20
14125.49525949889
 10
496.2398529313032
 20
14125.98716171758
 10
498.7303322855312
 20
14127.9284885403
 10
499.0456200750755
 20
14128.17464644307
 10
499.3611029389325
 20
14128.42055409406
 10
499.6765857722709
 20
14128.66646174505
 10
500.0
 20
14128.91819358854
  0
LWPOLYLINE
  5
E9
330
17
100
AcDbEntity
  8
BUILDING
  6
Continuous
 62
251
370
9
100
AcDbPolyline
 90
3
 70
129
 10
500.0
 20
14128.91819358853
 10
501.2541524094363
 20
14129.89580446791
 10
500.0000000000001
 20
14131.53012684422
  0
LWPOLYLINE
  5
EA
330
17
100
AcDbEntity
  8
BUILDING
  6
Continuous
 62
251
370
9
100
AcDbPolyline
 90
6
 70
129
 10
521.7884045838802
 20
14160.03741019929
 10
521.2056974885077
 20
14160.7849016041
 10
520.9428500015259
 20
14161.12207998902
 10
535.5605099948118
 20
14172.51728000733
 10
535.7551791436506
 20
14172.26756016724
 10
536.4041753288369
 20
14171.43503369244
  0
LWPOLYLINE
  5
EB
330
17
100
AcDbEntity
  8
BUILDING
  6
Continuous
 62
251
370
9
100
AcDbPolyline
 90
3
 70
129
 10
709.543724265267
 20
14250.0
 10
708.362319986572
 20
14247.09068999298
 10
701.1978929715873
 20
14250.0
  0
LWPOLYLINE
  5
EC
330
17
100
AcDbEntity
  8
BUILDING
  6
Continuous
 62
251
370
9
100
AcDbPolyline
 90
44
 70
129
 10
540.9325791192362
 20
14164.3055650502
 10
535.802
 20
14170.953
 10
536.4041753288369
 20
14171.43503369244
 10
536.6433775444807
 20
14171.62651203955
 10
537.7867484969636
 20
14172.54176595355
 10
538.4728802453689
 20
14173.09100570697
 10
538.7851688283944
 20
14173.34098876919
 10
540.6739282509842
 20
14174.85291668447
 10
540.9862168034914
 20
14175.10289971618
 10
546.473
 20
14179.495
 10
548.3976081423383
 20
14177.00138138981
 10
548.6420065614795
 20
14176.68472658467
 10
549.9952444227424
 20
14174.93140394299
 10
550.7284396496476
 20
14173.98143952757
 10
555.937921109653
 20
14167.23177480392
 10
556.1823188879056
 20
14166.91512082278
 10
556.8407923520615
 20
14166.05895562609
 10
557.3310444349497
 20
14165.42677455977
 10
558.565
 20
14163.828
 10
544.2206707358013
 20
14152.50825009919
 10
537.660879238258
 20
14147.33162611774
 10
530.064519333476
 20
14141.33699975586
 10
528.8527530747401
 20
14140.38074095889
 10
524.02
 20
14136.567
 10
522.4700444044313
 20
14138.48917416914
 10
521.2070159611804
 20
14140.05551628163
 10
520.3375098117008
 20
14141.13383251442
 10
517.2566774803919
 20
14144.95452027955
 10
517.084929013947
 20
14145.16751377911
 10
515.9029582811976
 20
14146.63333231605
 10
514.9613976561784
 20
14147.80100674459
 10
514.0198370006409
 20
14148.96868120365
 10
513.2665885189367
 20
14149.90282073428
 10
512.3250279244362
 20
14151.07049516282
 10
512.1617354045229
 20
14151.27300201423
 10
511.4982099978637
 20
14152.12476000244
 10
517.3995195776238
 20
14156.66257490768
 10
517.7166172978912
 20
14156.90640736107
 10
519.5150166020692
 20
14158.28928739281
 10
519.8321125827815
 20
14158.53311850338
 10
521.7884045838802
 20
14160.03741019929
 10
522.416
 20
14160.52
 10
527.578
 20
14153.895
 10
540.9325791192362
 20
14164.3055650502
  0
LWPOLYLINE
  5
ED
330
17
100
AcDbEntity
  8
BUILDING
  6
Continuous
 62
251
370
9
100
AcDbPolyline
 90
64
 70
129
 10
612.0400255982782
 20
14202.23778769316
 10
611.8658688009277
 20
14202.30128650777
 10
610.5509457991272
 20
14202.78071684927
 10
603.988784356212
 20
14205.17332789087
 10
600.3679500106815
 20
14206.49350999481
 10
598.9352940153202
 20
14206.21816006959
 10
598.5424832605976
 20
14206.14266365551
 10
597.1612776026839
 20
14205.87720225547
 10
596.1061738639485
 20
14205.6744161504
 10
595.7133631092257
 20
14205.59891973632
 10
594.5477799920652
 20
14205.37489999085
 10
593.6273183996094
 20
14204.6458570513
 10
592.6993085726492
 20
14203.91083562731
 10
591.4758268379773
 20
14202.94178844569
 10
591.0070571001312
 20
14202.57050376904
 10
589.3805476546526
 20
14201.28224228645
 10
584.8146625263222
 20
14197.6658760033
 10
580.1365349894711
 20
14193.96060917997
 10
579.8229737235633
 20
14193.71225592822
 10
578.2078847315897
 20
14192.43303991821
 10
577.894323465682
 20
14192.18468666647
 10
575.7230837733085
 20
14190.4649767449
 10
576.8628048437091
 20
14189.02947795007
 10
569.9933269555657
 20
14183.74939017401
 10
566.0525387659314
 20
14188.70475632883
 10
563.8764940336314
 20
14191.44103595081
 10
562.4007957528966
 20
14193.29666101495
 10
560.7935449690236
 20
14195.31770751061
 10
559.570469985046
 20
14196.85567000336
 10
560.8306581316568
 20
14197.84371852779
 10
562.3490118717002
 20
14199.0341813715
 10
573.4017611011078
 20
14207.70007193213
 10
573.7165430158391
 20
14207.94687618641
 10
575.2274056215094
 20
14209.1314656209
 10
575.5421875362408
 20
14209.37826987518
 10
580.0824046754357
 20
14212.93801995911
 10
581.6683682363354
 20
14214.181492172
 10
582.9264596087528
 20
14215.16789672537
 10
584.374233436079
 20
14216.30302151555
 10
585.5301936094241
 20
14217.20935026094
 10
587.0367741019928
 20
14218.39058232368
 10
588.5391185644094
 20
14219.56849311808
 10
589.9912985015411
 20
14220.70707248146
 10
592.0910262153997
 20
14222.35023548082
 10
594.5511499984741
 20
14224.2754300058
 10
595.9146713156529
 20
14223.78829322185
 10
598.7711637623219
 20
14222.78822952971
 10
599.0547680288095
 20
14222.69041016877
 10
599.3383722952971
 20
14222.59259080783
 10
599.465577623829
 20
14222.54871578112
 10
600.3782545548876
 20
14222.23391979736
 10
600.7563935361796
 20
14222.1034939726
 10
601.323602069155
 20
14221.90785525071
 10
601.8908105716116
 20
14221.71221649831
 10
606.1800040894802
 20
14220.2328092288
 10
616.2113185216834
 20
14216.77285821101
 10
620.367498624658
 20
14215.33282696782
 10
622.8092120731224
 20
14214.48694830165
 10
624.8212255317851
 20
14213.7899947203
 10
629.6486899929808
 20
14212.11777999207
 10
630.0500000000004
 20
14210.678
 10
629.8573437910093
 20
14210.6243009125
 10
630.4696964629048
 20
14208.2396753441
 10
632.1459874409376
 20
14201.71185801402
  0
LWPOLYLINE
  5
EE
330
17
100
AcDbEntity
  8
BUILDING
  6
Continuous
 62
251
370
9
100
AcDbPolyline
 90
5
 70
129
 10
509.6039999999999
 20
14122.509
 10
506.4792557994563
 20
14130.32867724733
 10
506.406
 20
14130.512
 10
512.593475065295
 20
14132.98451596387
 10
515.673
 20
14125.278
  0
LWPOLYLINE
  5
EF
330
17
100
AcDbEntity
  8
BUILDING
  6
Continuous
 62
251
370
9
100
AcDbPolyline
 90
26
 70
129
 10
680.5375933680845
 20
14212.79992924068
 10
676.1216959440901
 20
14230.6641391644
 10
680.7551227454451
 20
14231.80955668814
 10
682.4009645069735
 20
14232.21651515245
 10
686.2706080914538
 20
14233.17317781105
 10
686.9892479695394
 20
14233.35084169382
 10
687.3509484542376
 20
14233.440262154
 10
687.9
 20
14233.576
 10
689.1905539505412
 20
14228.34658719043
 10
689.5508239766364
 20
14226.8867484223
 10
689.6227037054176
 20
14226.59548684871
 10
689.8971402364393
 20
14225.48345126884
 10
690.0563920407727
 20
14224.83815207373
 10
690.161888088626
 20
14224.41067488632
 10
690.2337678151799
 20
14224.11941331218
 10
690.3299805597095
 20
14223.72955269021
 10
690.5595501876888
 20
14222.79932084109
 10
690.65538984344
 20
14222.41097204505
 10
690.8949889522996
 20
14221.4401000702
 10
691.0132132938628
 20
14220.96104699851
 10
691.0832050233467
 20
14220.67743574328
 10
691.2543876461074
 20
14219.98379204688
 10
691.493986754967
 20
14219.01292007203
 10
691.7838040711691
 20
14217.83856050295
 10
692.2127841120639
 20
14216.10030405592
 10
692.350454688055
 20
14215.54245346624
  0
LWPOLYLINE
  5
F0
330
17
100
AcDbEntity
  8
WATER_PIPELINE
  6
Continuous
 62
252
370
9
100
AcDbPolyline
 90
5
 70
128
 10
437.8579999999991
 20
14127.126
 10
440.3899422770552
 20
14120.25015675473
 10
439.640000000001
 20
14119.974
 10
437.1080577229447
 20
14126.84984324528
 10
437.8579999999991
 20
14127.126
  0
LWPOLYLINE
  5
F1
330
17
100
AcDbEntity
  8
GAS
  6
Continuous
 62
252
370
9
100
AcDbPolyline
 90
5
 70
128
 10
428.1415678273877
 20
14131.17584408094
 10
431.776274336271
 20
14122.40433795418
 10
431.037
 20
14122.098
 10
427.4022934911167
 20
14130.86950612677
 10
428.1415678273877
 20
14131.17584408094
  0
LWPOLYLINE
  5
F2
330
17
100
AcDbEntity
  8
WATER_PIPELINE
  6
Continuous
 62
252
370
9
100
AcDbPolyline
 90
11
 70
128
 10
733.7757861873226
 20
14339.51648365734
 10
733.3582138126774
 20
14339.98751634266
 10
734.1399447614979
 20
14340.6070036317
 10
731.9454686117131
 20
14343.21101452681
 10
745.8261414227729
 20
14353.69297579882
 10
747.1625242677046
 20
14352.01561448839
 10
746.6174757322955
 20
14351.57638551161
 10
745.707301248207
 20
14352.68596853542
 10
732.8961121250038
 20
14343.05104116947
 10
735.0372811670278
 20
14340.49146729942
 10
733.7757861873226
 20
14339.51648365734
  0
LWPOLYLINE
  5
F3
330
17
100
AcDbEntity
  8
WATER_PIPELINE
  6
Continuous
 62
252
370
9
100
AcDbPolyline
 90
5
 70
128
 10
621.9050103762933
 20
14261.2247220069
 10
621.2309896237068
 20
14260.9192779931
 10
619.8859896237068
 20
14263.88727799311
 10
620.5600103762932
 20
14264.1927220069
 10
621.9050103762933
 20
14261.2247220069
  0
LWPOLYLINE
  5
F4
330
17
100
AcDbEntity
  8
WATER_PIPELINE
  6
Continuous
 62
252
370
9
100
AcDbPolyline
 90
5
 70
128
 10
616.6799777977844
 20
14249.86052677999
 10
616.1107979216896
 20
14250.4423066805
 10
621.343099429304
 20
14254.81953587451
 10
621.8209005706962
 20
14254.25446412549
 10
616.6799777977844
 20
14249.86052677999
  0
LWPOLYLINE
  5
F5
330
17
100
AcDbEntity
  8
SEWER
  6
Continuous
 62
252
370
9
100
AcDbPolyline
 90
5
 70
128
 10
614.2801205753955
 20
14287.60699380805
 10
614.7132360301537
 20
14286.55161676382
 10
614.0332357860057
 20
14286.23580167547
 10
613.6001203007288
 20
14287.2911787197
 10
614.2801205753955
 20
14287.60699380805
  0
LWPOLYLINE
  5
F6
330
17
100
AcDbEntity
  8
GAS
  6
Continuous
 62
252
370
9
100
AcDbPolyline
 90
5
 70
128
 10
610.1598345286417
 20
14250.1054877163
 10
610.5741654713584
 20
14250.2045122837
 10
613.1281496627705
 20
14239.45619644765
 10
612.7118503372295
 20
14239.36580355236
 10
610.1598345286417
 20
14250.1054877163
  0
LWPOLYLINE
  5
F7
330
17
100
AcDbEntity
  8
GAS
  6
Continuous
 62
252
370
9
100
AcDbPolyline
 90
5
 70
128
 10
636.2115791141797
 20
14280.81286928657
 10
636.3084208858203
 20
14281.62713071343
 10
661.0284208858203
 20
14278.68713071343
 10
660.9315791141797
 20
14277.87286928657
 10
636.2115791141797
 20
14280.81286928657
  0
LWPOLYLINE
  5
F8
330
17
100
AcDbEntity
  8
WATER_PIPELINE
  6
Continuous
 62
252
370
9
100
AcDbPolyline
 90
6
 70
128
 10
632.6522944730979
 20
14245.15059355449
 10
623.687294473098
 20
14254.81759355449
 10
623.1447055269022
 20
14254.31440644551
 10
632.1097055269021
 20
14244.64740644551
 10
632.435099612415
 20
14244.94917099521
 10
632.6522944730979
 20
14245.15059355449
  0
LWPOLYLINE
  5
F9
330
17
100
AcDbEntity
  8
SEWER
  6
Continuous
 62
252
370
9
100
AcDbPolyline
 90
4
 70
128
 10
797.4521747885411
 20
14420.76225281104
 10
805.3837704341706
 20
14419.86698868276
 10
805.3135848205959
 20
14419.27110782702
 10
796.7574816679481
 20
14420.23686208035
  0
LWPOLYLINE
  5
FA
330
17
100
AcDbEntity
  8
SEWER
  6
Continuous
 62
252
370
9
100
AcDbPolyline
 90
18
 70
128
 10
806.88
 20
14419.668
 10
806.8462361147785
 20
14419.8486208329
 10
806.749504458895
 20
14420.00484782152
 10
806.6028691784553
 20
14420.1155816454
 10
806.4261341805719
 20
14420.16586708807
 10
806.2431685059769
 20
14420.14891282188
 10
806.0786826828178
 20
14420.06700861441
 10
805.9548914329093
 20
14419.9312160827
 10
805.8885134504633
 20
14419.75987476057
 10
805.8885134498021
 20
14419.57612524297
 10
805.9548914310159
 20
14419.40478392036
 10
806.0786826799493
 20
14419.26899138776
 10
806.2431685025199
 20
14419.18708717911
 10
806.4261341769928
 20
14419.1701329116
 10
806.6028691752385
 20
14419.220418353
 10
806.7495044564754
 20
14419.33115217583
 10
806.8462361134822
 20
14419.48737916376
 10
806.88
 20
14419.668
  0
LWPOLYLINE
  5
FB
330
17
100
AcDbEntity
  8
GAS
  6
Continuous
 62
252
370
9
100
AcDbPolyline
 90
133
 70
128
 10
727.9690000000006
 20
14305.283
 10
727.9650005715689
 20
14305.45025180669
 10
727.9530114287505
 20
14305.61712128479
 10
727.9330599780773
 20
14305.7832269797
 10
727.9051918274869
 20
14305.9481891828
 10
727.8694706820638
 20
14306.1116307994
 10
727.8259781984149
 20
14306.27317821081
 10
727.7748137980052
 20
14306.43246212839
 10
727.716094439887
 20
14306.5891184377
 10
727.6499543533367
 20
14306.74278903092
 10
727.5765447310152
 20
14306.89312262536
 10
727.4960333833487
 20
14307.03977556656
 10
727.4086043549232
 20
14307.18241261384
 10
727.3144575037694
 20
14307.32070770662
 10
727.2138080444967
 20
14307.45434470978
 10
727.1068860563254
 20
14307.58301813638
 10
726.9939359571375
 20
14307.70643384592
 10
726.8752159447507
 20
14307.82430971676
 10
726.7509974066924
 20
14307.93637629103
 10
726.621564299822
 20
14308.04237739062
 10
726.4872125012214
 20
14308.14207070273
 10
726.3482491318355
 20
14308.23522833385
 10
726.2049918544107
 20
14308.32163733068
 10
726.0577681473352
 20
14308.40110016691
 10
725.9069145560408
 20
14308.47343519481
 10
725.7527759236779
 20
14308.53847706041
 10
725.5957046028235
 20
14308.59607708152
 10
725.4360596500217
 20
14308.64610358762
 10
725.2742060050001
 20
14308.68844222081
 10
725.110513656437
 20
14308.72299619727
 10
724.9453567961881
 20
14308.74968652848
 10
724.7791129639031
 20
14308.76845220178
 10
724.6121621839912
 20
14308.77925031987
 10
724.444886096906
 20
14308.78205619882
 10
724.2776670867346
 20
14308.77686342455
 10
724.1108874070904
 20
14308.76368386745
 10
723.9449283073008
 20
14308.7425476553
 10
723.7801691608917
 20
14308.71350310431
 10
723.6169865983609
 20
14308.67661660878
 10
723.4557536462198
 20
14308.63197248922
 10
723.2968388742775
 20
14308.57967279968
 10
723.1406055531069
 20
14308.51983709442
 10
722.9874108236306
 20
14308.45260215464
 10
722.8376048807145
 20
14308.37812167576
 10
722.6915301726414
 20
14308.29656591613
 10
722.5495206182936
 20
14308.2081213078
 10
722.4119008438319
 20
14308.11299003038
 10
722.2789854406171
 20
14308.01138954881
 10
722.151078246072
 20
14307.9035521163
 10
722.0284716491255
 20
14307.78972424338
 10
721.9114459218271
 20
14307.67016613442
 10
721.8002685786598
 20
14307.54515109279
 10
721.6951937650172
 20
14307.41496489612
 10
721.5964616762399
 20
14307.279905143
 10
721.504298008543
 20
14307.14028057272
 10
721.4189134430861
 20
14306.99641035952
 10
721.3405031643678
 20
14306.84862338289
 10
721.2692464140442
 20
14306.6972574759
 10
721.2053060811926
 20
14306.5426586528
 10
721.1488283299557
 20
14306.38518031816
 10
721.0999422654182
 20
14306.22518245892
 10
721.0587596384796
 20
14306.06303082154
 10
721.0253745903976
 20
14305.89909607588
 10
720.9998634375864
 20
14305.73375296792
 10
720.9822844971618
 20
14305.56737946306
 10
720.9726779536308
 20
14305.40035588213
 10
720.9710657670317
 20
14305.23306403199
 10
720.9774516227368
 20
14305.06588633278
 10
720.9918209230248
 20
14304.89920494366
 10
721.0141408204524
 20
14304.73340088929
 10
721.0443602929417
 20
14304.56885318876
 10
721.0824102604125
 20
14304.40593798922
 10
721.1282037426973
 20
14304.24502770599
 10
721.1816360583726
 20
14304.08649017129
 10
721.2425850640548
 20
14303.93068779334
 10
721.3109114336125
 20
14303.77797672796
 10
721.3864589766614
 20
14303.62870606438
 10
721.4690549956038
 20
14303.48321702726
 10
721.5585106804074
 20
14303.34184219667
 10
721.6546215402153
 20
14303.20490474783
 10
721.7571678708002
 20
14303.07271771235
 10
721.8659152567966
 20
14302.94558326262
 10
721.9806151075619
 20
14302.82379202114
 10
722.101005225441
 20
14302.70762239609
 10
722.2268104051354
 20
14302.59733994495
 10
722.357743062809
 20
14302.49319676744
 10
722.4935038934877
 20
14302.39543092923
 10
722.6337825552556
 20
14302.30426591774
 10
722.7782583786787
 20
14302.21991013126
 10
722.9266010998389
 20
14302.14255640254
 10
723.0784716152988
 20
14302.07238155804
 10
723.2335227572743
 20
14302.00954601364
 10
723.3914000872404
 20
14301.95419340801
 10
723.5517427061603
 20
14301.90645027421
 10
723.7141840794791
 20
14301.86642575046
 10
723.8783528750035
 20
14301.83421133065
 10
724.0438738117456
 20
14301.80988065522
 10
724.2103685177966
 20
14301.79348934275
 10
724.3774563952637
 20
14301.78507486292
 10
724.5447554902959
 20
14301.78465645076
 10
724.7118833662104
 20
14301.79223506274
 10
724.8784579777222
 20
14301.80779337457
 10
725.0440985442787
 20
14301.83129582079
 10
725.2084264205035
 20
14301.86268867607
 10
725.3710659617594
 20
14301.90190017805
 10
725.5316453828517
 20
14301.94884069135
 10
725.6897976079088
 20
14302.0034029125
 10
725.8451611094978
 20
14302.06546211521
 10
725.9973807350573
 20
14302.13487643551
 10
726.146108518756
 20
14302.211487196
 10
726.2910044769246
 20
14302.29511926864
 10
726.4317373852394
 20
14302.38558147503
 10
726.567985535884
 20
14302.48266702345
 10
726.6994374729545
 20
14302.5861539816
 10
726.8257927044328
 20
14302.69580578389
 10
726.946762389094
 20
14302.81137177223
 10
727.0620699967815
 20
14302.93258776902
 10
727.1714519405401
 20
14303.05917668104
 10
727.2746581791632
 20
14303.19084913289
 10
727.3714527887712
 20
14303.32730412847
 10
727.4616145021212
 20
14303.46822973903
 10
727.5449372144135
 20
14303.61330381626
 10
727.621230454434
 20
14303.76219472866
 10
727.6903198199625
 20
14303.91456211965
 10
727.7520473764463
 20
14304.07005768563
 10
727.8062720180299
 20
14304.22832597213
 10
727.8528697901152
 20
14304.38900518642
 10
727.8917341727156
 20
14304.5517280245
 10
727.9227763239545
 20
14304.71612251076
 10
727.9459252831531
 20
14304.8818128483
 10
727.9611281330427
 20
14305.04842027797
 10
727.9683501207307
 20
14305.21556394421
 10
727.9690000000006
 20
14305.283
  0
LWPOLYLINE
  5
FC
330
17
100
AcDbEntity
  8
ELECTR_CABLE
  6
Continuous
 62
252
370
9
100
AcDbPolyline
 90
18
 70
128
 10
819.0450000000002
 20
14402.32
 10
819.0112361147776
 20
14402.5006208329
 10
818.9145044588931
 20
14402.65684782152
 10
818.7678691784516
 20
14402.7675816454
 10
818.5911341805663
 20
14402.81786708808
 10
818.4081685059704
 20
14402.80091282188
 10
818.2436826828094
 20
14402.71900861441
 10
818.1198914329
 20
14402.5832160827
 10
818.053513450455
 20
14402.41187476057
 10
818.0535134497956
 20
14402.22812524296
 10
818.1198914310113
 20
14402.05678392035
 10
818.2436826799475
 20
14401.92099138775
 10
818.4081685025199
 20
14401.8390871791
 10
818.5911341769937
 20
14401.82213291159
 10
818.7678691752396
 20
14401.872418353
 10
818.9145044564754
 20
14401.98315217583
 10
819.0112361134821
 20
14402.13937916375
 10
819.0450000000002
 20
14402.32
  0
LWPOLYLINE
  5
FD
330
17
100
AcDbEntity
  8
BOUNDARY
100
AcDbPolyline
 90
4
 70
1
 10
379.8143140417648
 20
14077.61458347218
 10
893.5328260438097
 20
14077.61458347218
 10
893.5328260438097
 20
15018.21820392619
 10
379.8143140417648
 20
15018.21820392619
  0
ENDSEC
  0
SECTION
  2
OBJECTS
  0
DICTIONARY
  5
A
330
0
100
AcDbDictionary
281
1
  3
ACAD_COLOR
350
B
  3
ACAD_GROUP
350
C
  3
ACAD_LAYOUT
350
D
  3
ACAD_MATERIAL
350
E
  3
ACAD_MLEADERSTYLE
350
F
  3
ACAD_MLINESTYLE
350
10
  3
ACAD_PLOTSETTINGS
350
11
  3
ACAD_PLOTSTYLENAME
350
12
  3
ACAD_SCALELIST
350
14
  3
ACAD_TABLESTYLE
350
15
  3
ACAD_VISUALSTYLE
350
16
  3
EZDXF_META
350
2D
  0
DICTIONARY
  5
B
330
A
100
AcDbDictionary
281
1
  0
DICTIONARY
  5
C
330
A
100
AcDbDictionary
281
1
  0
DICTIONARY
  5
D
330
A
100
AcDbDictionary
281
1
  3
Model
350
1A
  3
Layout1
350
1E
  0
DICTIONARY
  5
E
330
A
100
AcDbDictionary
281
1
  3
ByBlock
350
1F
  3
ByLayer
350
20
  3
Global
350
21
  0
DICTIONARY
  5
F
330
A
100
AcDbDictionary
281
1
  3
Standard
350
2C
  0
DICTIONARY
  5
10
330
A
100
AcDbDictionary
281
1
  3
Standard
350
22
  0
DICTIONARY
  5
11
330
A
100
AcDbDictionary
281
1
  0
ACDBDICTIONARYWDFLT
  5
12
330
A
100
AcDbDictionary
281
1
  3
Normal
350
13
100
AcDbDictionaryWithDefault
340
13
  0
ACDBPLACEHOLDER
  5
13
330
12
  0
DICTIONARY
  5
14
330
A
100
AcDbDictionary
281
1
  0
DICTIONARY
  5
15
330
A
100
AcDbDictionary
281
1
  0
DICTIONARY
  5
16
330
A
100
AcDbDictionary
281
1
  3
2dWireframe
350
5A
  3
Basic
350
5B
  3
Brighten
350
5C
  3
ColorChange
350
5D
  3
Conceptual
350
5E
  3
Dim
350
5F
  3
EdgeColorOff
350
60
  3
Facepattern
350
61
  3
Flat
350
62
  3
FlatWithEdges
350
63
  3
Gouraud
350
64
  3
GouraudWithEdges
350
65
  3
Hidden
350
66
  3
JitterOff
350
67
  3
Linepattern
350
68
  3
Modeling
350
69
  3
OverhangOff
350
6A
  3
Realistic
350
6B
  3
Shaded
350
6C
  3
Shaded with edges
350
6D
  3
Shades of Gray
350
6E
  3
Sketchy
350
6F
  3
Thicken
350
70
  3
Wireframe
350
71
  3
X-Ray
350
72
  0
LAYOUT
  5
1A
330
D
100
AcDbPlotSettings
  1

  4
A3
  6

 40
7.5
 41
20.0
 42
7.5
 43
20.0
 44
420.0
 45
297.0
 46
0.0
 47
0.0
 48
0.0
 49
0.0
140
0.0
141
0.0
142
1.0
143
1.0
 70
1024
 72
1
 73
0
 74
5
  7

 75
16
 76
0
 77
2
 78
300
147
1.0
148
0.0
149
0.0
100
AcDbLayout
  1
Model
 70
1
 71
0
 10
0.0
 20
0.0
 11
420.0
 21
297.0
 12
0.0
 22
0.0
 32
0.0
 14
1e+20
 24
1e+20
 34
1e+20
 15
-1e+20
 25
-1e+20
 35
-1e+20
146
0.0
 13
0.0
 23
0.0
 33
0.0
 16
1.0
 26
0.0
 36
0.0
 17
0.0
 27
1.0
 37
0.0
 76
1
330
17
  0
LAYOUT
  5
1E
330
D
100
AcDbPlotSettings
  1

  4
A3
  6

 40
7.5
 41
20.0
 42
7.5
 43
20.0
 44
420.0
 45
297.0
 46
0.0
 47
0.0
 48
0.0
 49
0.0
140
0.0
141
0.0
142
1.0
143
1.0
 70
0
 72
1
 73
0
 74
5
  7

 75
16
 76
0
 77
2
 78
300
147
1.0
148
0.0
149
0.0
100
AcDbLayout
  1
Layout1
 70
1
 71
1
 10
0.0
 20
0.0
 11
420.0
 21
297.0
 12
0.0
 22
0.0
 32
0.0
 14
1e+20
 24
1e+20
 34
1e+20
 15
-1e+20
 25
-1e+20
 35
-1e+20
146
0.0
 13
0.0
 23
0.0
 33
0.0
 16
1.0
 26
0.0
 36
0.0
 17
0.0
 27
1.0
 37
0.0
 76
1
330
1B
  0
MATERIAL
  5
1F
102
{ACAD_REACTORS
330
E
102
}
330
E
100
AcDbMaterial
  1
ByBlock
  2

 70
0
 40
1.0
 71
1
 41
1.0
 91
-1023410177
 42
1.0
 72
1
  3

 73
1
 74
1
 75
1
 44
0.5
 73
0
 45
1.0
 46
1.0
 77
1
  4

 78
1
 79
1
170
1
 48
1.0
171
1
  6

172
1
173
1
174
1
140
1.0
141
1.0
175
1
  7

176
1
177
1
178
1
143
1.0
179
1
  8

270
1
271
1
272
1
145
1.0
146
1.0
273
1
  9

274
1
275
1
276
1
 42
1.0
 72
1
  3

 73
1
 74
1
 75
1
 94
63
  0
MATERIAL
  5
20
102
{ACAD_REACTORS
330
E
102
}
330
E
100
AcDbMaterial
  1
ByLayer
  2

 70
0
 40
1.0
 71
1
 41
1.0
 91
-1023410177
 42
1.0
 72
1
  3

 73
1
 74
1
 75
1
 44
0.5
 73
0
 45
1.0
 46
1.0
 77
1
  4

 78
1
 79
1
170
1
 48
1.0
171
1
  6

172
1
173
1
174
1
140
1.0
141
1.0
175
1
  7

176
1
177
1
178
1
143
1.0
179
1
  8

270
1
271
1
272
1
145
1.0
146
1.0
273
1
  9

274
1
275
1
276
1
 42
1.0
 72
1
  3

 73
1
 74
1
 75
1
 94
63
  0
MATERIAL
  5
21
102
{ACAD_REACTORS
330
E
102
}
330
E
100
AcDbMaterial
  1
Global
  2

 70
0
 40
1.0
 71
1
 41
1.0
 91
-1023410177
 42
1.0
 72
1
  3

 73
1
 74
1
 75
1
 44
0.5
 73
0
 45
1.0
 46
1.0
 77
1
  4

 78
1
 79
1
170
1
 48
1.0
171
1
  6

172
1
173
1
174
1
140
1.0
141
1.0
175
1
  7

176
1
177
1
178
1
143
1.0
179
1
  8

270
1
271
1
272
1
145
1.0
146
1.0
273
1
  9

274
1
275
1
276
1
 42
1.0
 72
1
  3

 73
1
 74
1
 75
1
 94
63
  0
MLINESTYLE
  5
22
102
{ACAD_REACTORS
330
10
102
}
330
10
100
AcDbMlineStyle
  2
Standard
 70
0
  3

 62
256
 51
90.0
 52
90.0
 71
2
 49
0.5
 62
256
  6
BYLAYER
 49
-0.5
 62
256
  6
BYLAYER
  0
MLEADERSTYLE
  5
2C
102
{ACAD_REACTORS
330
F
102
}
330
F
100
AcDbMLeaderStyle
179
2
170
2
171
1
172
0
 90
2
 40
0.0
 41
0.0
173
1
 91
-1056964608
 92
-2
290
1
 42
2.0
291
1
 43
8.0
  3
Standard
 44
4.0
300

342
29
174
1
175
1
176
0
178
1
 93
-1056964608
 45
4.0
292
0
297
0
 46
4.0
 94
-1056964608
 47
1.0
 49
1.0
140
1.0
294
1
141
0.0
177
0
142
1.0
295
0
296
0
143
3.75
271
0
272
9
273
9
  0
DICTIONARY
  5
2D
330
A
100
AcDbDictionary
280
1
281
1
  3
CREATED_BY_EZDXF
350
2E
  3
WRITTEN_BY_EZDXF
350
100
  0
DICTIONARYVAR
  5
2E
330
2D
100
DictionaryVariables
280
0
  1
1.4.4 @ 2026-09-16T12:32:54.776853+00:00
  0
VISUALSTYLE
  5
5A
102
{ACAD_REACTORS
330
16
102
}
330
16
100
AcDbVisualStyle
  2
2dWireframe
 70
4
 90
0
 40
0.6
 62
7
290
0
291
0
  0
VISUALSTYLE
  5
5B
102
{ACAD_REACTORS
330
16
102
}
330
16
100
AcDbVisualStyle
  2
Basic
 70
7
 90
1
 40
0.6
 62
7
290
0
291
1
  0
VISUALSTYLE
  5
5C
102
{ACAD_REACTORS
330
16
102
}
330
16
100
AcDbVisualStyle
  2
Brighten
 70
12
 90
2
 40
0.6
 62
7
290
0
291
1
  0
VISUALSTYLE
  5
5D
102
{ACAD_REACTORS
330
16
102
}
330
16
100
AcDbVisualStyle
  2
ColorChange
 70
16
 90
2
 40
0.6
 62
8
290
0
291
1
  0
VISUALSTYLE
  5
5E
102
{ACAD_REACTORS
330
16
102
}
330
16
100
AcDbVisualStyle
  2
Conceptual
 70
9
 90
3
 40
0.6
 62
7
290
0
291
0
  0
VISUALSTYLE
  5
5F
102
{ACAD_REACTORS
330
16
102
}
330
16
100
AcDbVisualStyle
  2
Dim
 70
11
 90
2
 40
0.6
 62
7
290
0
291
1
  0
VISUALSTYLE
  5
60
102
{ACAD_REACTORS
330
16
102
}
330
16
100
AcDbVisualStyle
  2
EdgeColorOff
 70
22
 90
2
 40
0.6
 62
7
290
0
291
1
  0
VISUALSTYLE
  5
61
102
{ACAD_REACTORS
330
16
102
}
330
16
100
AcDbVisualStyle
  2
Facepattern
 70
15
 90
2
 40
0.6
 62
7
290
0
291
1
  0
VISUALSTYLE
  5
62
102
{ACAD_REACTORS
330
16
102
}
330
16
100
AcDbVisualStyle
  2
Flat
 70
0
 90
2
 40
0.6
 62
7
290
0
291
1
  0
VISUALSTYLE
  5
63
102
{ACAD_REACTORS
330
16
102
}
330
16
100
AcDbVisualStyle
  2
FlatWithEdges
 70
1
 90
2
 40
0.6
 62
7
290
0
291
1
  0
VISUALSTYLE
  5
64
102
{ACAD_REACTORS
330
16
102
}
330
16
100
AcDbVisualStyle
  2
Gouraud
 70
2
 90
2
 40
0.6
 62
7
290
0
291
1
  0
VISUALSTYLE
  5
65
102
{ACAD_REACTORS
330
16
102
}
330
16
100
AcDbVisualStyle
  2
GouraudWithEdges
 70
3
 90
2
 40
0.6
 62
7
290
0
291
1
  0
VISUALSTYLE
  5
66
102
{ACAD_REACTORS
330
16
102
}
330
16
100
AcDbVisualStyle
  2
Hidden
 70
6
 90
1
 40
0.6
 62
7
290
0
291
0
  0
VISUALSTYLE
  5
67
102
{ACAD_REACTORS
330
16
102
}
330
16
100
AcDbVisualStyle
  2
JitterOff
 70
20
 90
2
 40
0.6
 62
7
290
0
291
1
  0
VISUALSTYLE
  5
68
102
{ACAD_REACTORS
330
16
102
}
330
16
100
AcDbVisualStyle
  2
Linepattern
 70
14
 90
2
 40
0.6
 62
7
290
0
291
1
  0
VISUALSTYLE
  5
69
102
{ACAD_REACTORS
330
16
102
}
330
16
100
AcDbVisualStyle
  2
Modeling
 70
10
 90
2
 40
0.6
 62
7
290
0
291
0
  0
VISUALSTYLE
  5
6A
102
{ACAD_REACTORS
330
16
102
}
330
16
100
AcDbVisualStyle
  2
OverhangOff
 70
21
 90
2
 40
0.6
 62
7
290
0
291
1
  0
VISUALSTYLE
  5
6B
102
{ACAD_REACTORS
330
16
102
}
330
16
100
AcDbVisualStyle
  2
Realistic
 70
8
 90
2
 40
0.6
 62
7
290
0
291
0
  0
VISUALSTYLE
  5
6C
102
{ACAD_REACTORS
330
16
102
}
330
16
100
AcDbVisualStyle
  2
Shaded
 70
27
 90
2
 40
0.6
 62
7
290
0
291
0
  0
VISUALSTYLE
  5
6D
102
{ACAD_REACTORS
330
16
102
}
330
16
100
AcDbVisualStyle
  2
Shaded with edges
 70
26
 90
2
 40
0.6
 62
7
290
0
291
0
  0
VISUALSTYLE
  5
6E
102
{ACAD_REACTORS
330
16
102
}
330
16
100
AcDbVisualStyle
  2
Shades of Gray
 70
23
 90
2
 40
0.6
 62
7
290
0
291
0
  0
VISUALSTYLE
  5
6F
102
{ACAD_REACTORS
330
16
102
}
330
16
100
AcDbVisualStyle
  2
Sketchy
 70
24
 90
1
 40
0.6
 62
7
290
0
291
0
  0
VISUALSTYLE
  5
70
102
{ACAD_REACTORS
330
16
102
}
330
16
100
AcDbVisualStyle
  2
Thicken
 70
13
 90
2
 40
0.6
 62
7
290
0
291
1
  0
VISUALSTYLE
  5
71
102
{ACAD_REACTORS
330
16
102
}
330
16
100
AcDbVisualStyle
  2
Wireframe
 70
5
 90
0
 40
0.6
 62
7
290
0
291
0
  0
VISUALSTYLE
  5
72
102
{ACAD_REACTORS
330
16
102
}
330
16
100
AcDbVisualStyle
  2
X-Ray
 70
25
 90
2
 40
0.5
 62
7
290
0
291
0
  0
DICTIONARYVAR
  5
100
330
2D
100
DictionaryVariables
280
0
  1
1.4.4 @ 2026-09-16T12:33:01.949486+00:00
  0
ENDSEC
  0
EOF
