<svg xmlns="http://www.w3.org/2000/svg" width="998" height="1960" viewBox="0 0 998 1960">
<defs><marker id="arrow" viewBox="0 0 10 10" refX="10" refY="5" markerWidth="9" markerHeight="9" orient="auto-start-reverse"><path d="M0 0 L10 5 L0 10 z" fill="#2b2b2b"/></marker></defs>
<rect width="100%" height="100%" fill="#ffffff"/>
<rect x="24" y="24" width="950" height="1912" fill="none" stroke="#2b2b2b" stroke-width="1.5"/>
<text font-family="Arial, Helvetica, sans-serif" font-size="14" font-weight="bold" text-anchor="middle" dominant-baseline="middle" fill="#2b2b2b"><tspan x="499.0" y="41.0">GreenCity: от входного DXF до выходного DXF и файла объяснений</tspan></text>
<line x1="24" y1="58" x2="974" y2="58" stroke="#2b2b2b"/>
<rect x="24" y="58" width="190" height="1878" fill="none" stroke="#2b2b2b" stroke-width="1"/>
<line x1="24" y1="92" x2="214" y2="92" stroke="#2b2b2b" stroke-width="0.6"/>
<text font-family="Arial, Helvetica, sans-serif" font-size="13" font-weight="bold" text-anchor="middle" dominant-baseline="middle" fill="#2b2b2b"><tspan x="119.0" y="75.0">Пользователь (редактор)</tspan></text>
<rect x="214" y="58" width="570" height="1878" fill="none" stroke="#2b2b2b" stroke-width="1"/>
<line x1="214" y1="92" x2="784" y2="92" stroke="#2b2b2b" stroke-width="0.6"/>
<text font-family="Arial, Helvetica, sans-serif" font-size="13" font-weight="bold" text-anchor="middle" dominant-baseline="middle" fill="#2b2b2b"><tspan x="499.0" y="75.0">Бэкенд GreenCity</tspan></text>
<rect x="784" y="58" width="190" height="1878" fill="none" stroke="#2b2b2b" stroke-width="1"/>
<line x1="784" y1="92" x2="974" y2="92" stroke="#2b2b2b" stroke-width="0.6"/>
<text font-family="Arial, Helvetica, sans-serif" font-size="13" font-weight="bold" text-anchor="middle" dominant-baseline="middle" fill="#2b2b2b"><tspan x="879.0" y="75.0">Yandex AI Studio (LLM)</tspan></text>
<path d="M119.0 158.0 L119.0 203.0" fill="none" stroke="#2b2b2b" stroke-width="1.4" marker-end="url(#arrow)"/>
<path d="M119.0 269.0 L119.0 332.0 L286.0 332.0" fill="none" stroke="#2b2b2b" stroke-width="1.4" marker-end="url(#arrow)"/>
<path d="M332.0 332.0 L499.0 332.0 L499.0 395.0" fill="none" stroke="#2b2b2b" stroke-width="1.4" marker-end="url(#arrow)"/>
<text font-family="Arial, Helvetica, sans-serif" font-size="11" font-weight="normal" text-anchor="start" dominant-baseline="middle" fill="#2b2b2b"><tspan x="346.0" y="323.0">DWG</tspan></text>
<path d="M309.0 355.0 L309.0 501.0" fill="none" stroke="#2b2b2b" stroke-width="1.4" marker-end="url(#arrow)"/>
<text font-family="Arial, Helvetica, sans-serif" font-size="11" font-weight="normal" text-anchor="start" dominant-baseline="middle" fill="#2b2b2b"><tspan x="315.0" y="367.0">DXF</tspan></text>
<path d="M499.0 461.0 L499.0 524.0 L332.0 524.0" fill="none" stroke="#2b2b2b" stroke-width="1.4" marker-end="url(#arrow)"/>
<path d="M309.0 547.0 L309.0 587.0" fill="none" stroke="#2b2b2b" stroke-width="1.4" marker-end="url(#arrow)"/>
<path d="M309.0 653.0 L309.0 683.0" fill="none" stroke="#2b2b2b" stroke-width="1.4" marker-end="url(#arrow)"/>
<path d="M309.0 749.0 L309.0 812.0 L203.0 812.0" fill="none" stroke="#2b2b2b" stroke-width="1.4" marker-end="url(#arrow)"/>
<path d="M119.0 845.0 L119.0 908.0 L225.0 908.0" fill="none" stroke="#2b2b2b" stroke-width="1.4" marker-end="url(#arrow)"/>
<path d="M309.0 941.0 L309.0 1004.0 L203.0 1004.0" fill="none" stroke="#2b2b2b" stroke-width="1.4" marker-end="url(#arrow)"/>
<path d="M119.0 1037.0 L119.0 1077.0" fill="none" stroke="#2b2b2b" stroke-width="1.4" marker-end="url(#arrow)"/>
<path d="M142.0 1100.0 L879.0 1100.0 L879.0 1163.0" fill="none" stroke="#2b2b2b" stroke-width="1.4" marker-end="url(#arrow)"/>
<text font-family="Arial, Helvetica, sans-serif" font-size="11" font-weight="normal" text-anchor="start" dominant-baseline="middle" fill="#2b2b2b"><tspan x="156.0" y="1091.0">да</tspan></text>
<path d="M119.0 1123.0 L119.0 1365.0" fill="none" stroke="#2b2b2b" stroke-width="1.4" marker-end="url(#arrow)"/>
<text font-family="Arial, Helvetica, sans-serif" font-size="11" font-weight="normal" text-anchor="start" dominant-baseline="middle" fill="#2b2b2b"><tspan x="125.0" y="1135.0">нет</tspan></text>
<path d="M879.0 1229.0 L879.0 1292.0 L393.0 1292.0" fill="none" stroke="#2b2b2b" stroke-width="1.4" marker-end="url(#arrow)"/>
<path d="M309.0 1325.0 L309.0 1388.0 L142.0 1388.0" fill="none" stroke="#2b2b2b" stroke-width="1.4" marker-end="url(#arrow)"/>
<path d="M119.0 1411.0 L119.0 1461.0" fill="none" stroke="#2b2b2b" stroke-width="1.4" marker-end="url(#arrow)"/>
<path d="M142.0 1484.0 L309.0 1484.0 L309.0 1547.0" fill="none" stroke="#2b2b2b" stroke-width="1.4" marker-end="url(#arrow)"/>
<path d="M142.0 1484.0 L499.0 1484.0 L499.0 1547.0" fill="none" stroke="#2b2b2b" stroke-width="1.4" marker-end="url(#arrow)"/>
<path d="M142.0 1484.0 L879.0 1484.0 L879.0 1547.0" fill="none" stroke="#2b2b2b" stroke-width="1.4" marker-end="url(#arrow)"/>
<path d="M879.0 1613.0 L879.0 1676.0 L773.0 1676.0" fill="none" stroke="#2b2b2b" stroke-width="1.4" marker-end="url(#arrow)"/>
<path d="M309.0 1613.0 L309.0 1749.0" fill="none" stroke="#2b2b2b" stroke-width="1.4" marker-end="url(#arrow)"/>
<path d="M499.0 1613.0 L499.0 1772.0 L332.0 1772.0" fill="none" stroke="#2b2b2b" stroke-width="1.4" marker-end="url(#arrow)"/>
<path d="M689.0 1709.0 L689.0 1772.0 L332.0 1772.0" fill="none" stroke="#2b2b2b" stroke-width="1.4" marker-end="url(#arrow)"/>
<path d="M286.0 1772.0 L119.0 1772.0 L119.0 1850.0" fill="none" stroke="#2b2b2b" stroke-width="1.4" marker-end="url(#arrow)"/>
<path d="M393.0 620.0 L660.0 620.0" fill="none" stroke="#2b2b2b" stroke-width="1.2" stroke-dasharray="4 4" marker-end="url(#arrow)"/>
<path d="M660.0 908.0 L393.0 908.0" fill="none" stroke="#2b2b2b" stroke-width="1.2" stroke-dasharray="4 4" marker-end="url(#arrow)"/>
<circle cx="119.0" cy="140.0" r="18.0" fill="#fff" stroke="#2b2b2b" stroke-width="1.5"/><text font-family="Arial, Helvetica, sans-serif" font-size="11" font-weight="normal" text-anchor="middle" dominant-baseline="middle" fill="#2b2b2b"><tspan x="119.0" y="94.5">Чертёж участка: DXF или</tspan><tspan x="119.0" y="107.5">папка DWG</tspan></text>
<rect x="35.0" y="203.0" width="168" height="66" rx="9" fill="#ffffff" stroke="#2b2b2b" stroke-width="1.3"/><text font-family="Arial, Helvetica, sans-serif" font-size="12" font-weight="normal" text-anchor="middle" dominant-baseline="middle" fill="#2b2b2b"><tspan x="119.0" y="229.0">Загрузить чертёж в</tspan><tspan x="119.0" y="243.0">редактор</tspan></text>
<polygon points="309.0,309.0 332.0,332.0 309.0,355.0 286.0,332.0" fill="#fff" stroke="#2b2b2b" stroke-width="1.5"/><path d="M300.0 323.0 L318.0 341.0 M318.0 323.0 L300.0 341.0" stroke="#2b2b2b" stroke-width="3"/><text font-family="Arial, Helvetica, sans-serif" font-size="11" font-weight="normal" text-anchor="start" dominant-baseline="middle" fill="#2b2b2b"><tspan x="328.0" y="303.0">Формат?</tspan></text>
<rect x="415.0" y="395.0" width="168" height="66" rx="9" fill="#ffffff" stroke="#2b2b2b" stroke-width="1.3"/><text font-family="Arial, Helvetica, sans-serif" font-size="12" font-weight="normal" text-anchor="middle" dominant-baseline="middle" fill="#2b2b2b"><tspan x="499.0" y="414.0">DWG → DXF (LibreDWG),</tspan><tspan x="499.0" y="428.0">склейка пачки в один</tspan><tspan x="499.0" y="442.0">документ</tspan></text>
<polygon points="309.0,501.0 332.0,524.0 309.0,547.0 286.0,524.0" fill="#fff" stroke="#2b2b2b" stroke-width="1.5"/><path d="M300.0 515.0 L318.0 533.0 M318.0 515.0 L300.0 533.0" stroke="#2b2b2b" stroke-width="3"/>
<rect x="225.0" y="587.0" width="168" height="66" rx="9" fill="#ffffff" stroke="#2b2b2b" stroke-width="1.3"/><text font-family="Arial, Helvetica, sans-serif" font-size="12" font-weight="normal" text-anchor="middle" dominant-baseline="middle" fill="#2b2b2b"><tspan x="309.0" y="613.0">Сохранить исходный</tspan><tspan x="309.0" y="627.0">чертёж (id = sha256)</tspan></text>
<path d="M660.0 603.0 A29.0 7 0 0 1 718.0 603.0 L718.0 637.0 A29.0 7 0 0 1 660.0 637.0 Z" fill="#f2f2f2" stroke="#2b2b2b" stroke-width="1.3"/><path d="M660.0 603.0 A29.0 7 0 0 0 718.0 603.0" fill="none" stroke="#2b2b2b" stroke-width="1.3"/><text font-family="Arial, Helvetica, sans-serif" font-size="11" font-weight="normal" text-anchor="middle" dominant-baseline="middle" fill="#2b2b2b"><tspan x="689.0" y="661.0">Хранилище исходных чертежей</tspan></text>
<rect x="225.0" y="683.0" width="168" height="66" rx="9" fill="#ffffff" stroke="#2b2b2b" stroke-width="1.3"/><text font-family="Arial, Helvetica, sans-serif" font-size="12" font-weight="normal" text-anchor="middle" dominant-baseline="middle" fill="#2b2b2b"><tspan x="309.0" y="702.0">Разбор слоёв: граница,</tspan><tspan x="309.0" y="716.0">зоны ограничений,</tspan><tspan x="309.0" y="730.0">здания, объекты → сцена</tspan></text>
<rect x="35.0" y="779.0" width="168" height="66" rx="9" fill="#ffffff" stroke="#2b2b2b" stroke-width="1.3"/><text font-family="Arial, Helvetica, sans-serif" font-size="12" font-weight="normal" text-anchor="middle" dominant-baseline="middle" fill="#2b2b2b"><tspan x="119.0" y="798.0">3D-сцена, зоны</tspan><tspan x="119.0" y="812.0">ограничений; параметры</tspan><tspan x="119.0" y="826.0">GreenPlan</tspan></text>
<rect x="225.0" y="875.0" width="168" height="66" rx="9" fill="#e3f3e6" stroke="#2b2b2b" stroke-width="2"/><text font-family="Arial, Helvetica, sans-serif" font-size="12" font-weight="bold" text-anchor="middle" dominant-baseline="middle" fill="#2b2b2b"><tspan x="309.0" y="895.0">GreenPlan: озеленение</tspan><tspan x="309.0" y="909.0">по проектам-аналогам</tspan></text><rect x="302.0" y="925.0" width="14" height="14" fill="#fff" stroke="#2b2b2b"/><path d="M305.0 932.0 L313.0 932.0 M309.0 928.0 L309.0 936.0" stroke="#2b2b2b" stroke-width="1.5"/>
<path d="M660.0 891.0 A29.0 7 0 0 1 718.0 891.0 L718.0 925.0 A29.0 7 0 0 1 660.0 925.0 Z" fill="#f2f2f2" stroke="#2b2b2b" stroke-width="1.3"/><path d="M660.0 891.0 A29.0 7 0 0 0 718.0 891.0" fill="none" stroke="#2b2b2b" stroke-width="1.3"/><text font-family="Arial, Helvetica, sans-serif" font-size="11" font-weight="normal" text-anchor="middle" dominant-baseline="middle" fill="#2b2b2b"><tspan x="689.0" y="942.5">Корпус 34 проектов, нормы</tspan><tspan x="689.0" y="955.5">НПА, ассортимент</tspan></text>
<rect x="35.0" y="971.0" width="168" height="66" rx="9" fill="#ffffff" stroke="#2b2b2b" stroke-width="1.3"/><text font-family="Arial, Helvetica, sans-serif" font-size="12" font-weight="normal" text-anchor="middle" dominant-baseline="middle" fill="#2b2b2b"><tspan x="119.0" y="997.0">Проверка результата,</tspan><tspan x="119.0" y="1011.0">ручные правки на сцене</tspan></text>
<polygon points="119.0,1077.0 142.0,1100.0 119.0,1123.0 96.0,1100.0" fill="#fff" stroke="#2b2b2b" stroke-width="1.5"/><path d="M110.0 1091.0 L128.0 1109.0 M128.0 1091.0 L110.0 1109.0" stroke="#2b2b2b" stroke-width="3"/><text font-family="Arial, Helvetica, sans-serif" font-size="11" font-weight="normal" text-anchor="start" dominant-baseline="middle" fill="#2b2b2b"><tspan x="138.0" y="1071.0">Правка текстом?</tspan></text>
<rect x="795.0" y="1163.0" width="168" height="66" rx="9" fill="#fff4d6" stroke="#2b2b2b" stroke-width="1.3"/><text font-family="Arial, Helvetica, sans-serif" font-size="12" font-weight="normal" text-anchor="middle" dominant-baseline="middle" fill="#2b2b2b"><tspan x="879.0" y="1182.0">ИИ-ассистент: список</tspan><tspan x="879.0" y="1196.0">операций правки (Qwen3</tspan><tspan x="879.0" y="1210.0">235B)</tspan></text>
<rect x="225.0" y="1259.0" width="168" height="66" rx="9" fill="#ffffff" stroke="#2b2b2b" stroke-width="1.3"/><text font-family="Arial, Helvetica, sans-serif" font-size="12" font-weight="normal" text-anchor="middle" dominant-baseline="middle" fill="#2b2b2b"><tspan x="309.0" y="1278.0">Применение операций</tspan><tspan x="309.0" y="1292.0">планировщиком с</tspan><tspan x="309.0" y="1306.0">проверкой норм</tspan></text>
<polygon points="119.0,1365.0 142.0,1388.0 119.0,1411.0 96.0,1388.0" fill="#fff" stroke="#2b2b2b" stroke-width="1.5"/><path d="M110.0 1379.0 L128.0 1397.0 M128.0 1379.0 L110.0 1397.0" stroke="#2b2b2b" stroke-width="3"/>
<polygon points="119.0,1461.0 142.0,1484.0 119.0,1507.0 96.0,1484.0" fill="#fff" stroke="#2b2b2b" stroke-width="1.5"/><path d="M119.0 1473.0 L119.0 1495.0 M108.0 1484.0 L130.0 1484.0" stroke="#2b2b2b" stroke-width="3"/>
<rect x="225.0" y="1547.0" width="168" height="66" rx="9" fill="#ffffff" stroke="#2b2b2b" stroke-width="1.3"/><text font-family="Arial, Helvetica, sans-serif" font-size="12" font-weight="normal" text-anchor="middle" dominant-baseline="middle" fill="#2b2b2b"><tspan x="309.0" y="1566.0">Экспорт DXF поверх</tspan><tspan x="309.0" y="1580.0">исходника: слои NEW_*,</tspan><tspan x="309.0" y="1594.0">USER_*, XDATA с id</tspan></text>
<rect x="415.0" y="1547.0" width="168" height="66" rx="9" fill="#ffffff" stroke="#2b2b2b" stroke-width="1.3"/><text font-family="Arial, Helvetica, sans-serif" font-size="12" font-weight="normal" text-anchor="middle" dominant-baseline="middle" fill="#2b2b2b"><tspan x="499.0" y="1566.0">Объяснения посадок со</tspan><tspan x="499.0" y="1580.0">ссылками на НПА (JSON,</tspan><tspan x="499.0" y="1594.0">CSV)</tspan></text>
<rect x="795.0" y="1547.0" width="168" height="66" rx="9" fill="#fff4d6" stroke="#2b2b2b" stroke-width="1.3"/><text font-family="Arial, Helvetica, sans-serif" font-size="12" font-weight="normal" text-anchor="middle" dominant-baseline="middle" fill="#2b2b2b"><tspan x="879.0" y="1566.0">Текст-обоснование</tspan><tspan x="879.0" y="1580.0">решений (YandexGPT 5.1</tspan><tspan x="879.0" y="1594.0">Pro)</tspan></text>
<rect x="605.0" y="1643.0" width="168" height="66" rx="9" fill="#ffffff" stroke="#2b2b2b" stroke-width="1.3"/><text font-family="Arial, Helvetica, sans-serif" font-size="12" font-weight="normal" text-anchor="middle" dominant-baseline="middle" fill="#2b2b2b"><tspan x="689.0" y="1669.0">Пояснительная записка</tspan><tspan x="689.0" y="1683.0">(DOCX)</tspan></text>
<polygon points="309.0,1749.0 332.0,1772.0 309.0,1795.0 286.0,1772.0" fill="#fff" stroke="#2b2b2b" stroke-width="1.5"/><path d="M309.0 1761.0 L309.0 1783.0 M298.0 1772.0 L320.0 1772.0" stroke="#2b2b2b" stroke-width="3"/>
<circle cx="119.0" cy="1868.0" r="18.0" fill="#fff" stroke="#2b2b2b" stroke-width="4"/><text font-family="Arial, Helvetica, sans-serif" font-size="11" font-weight="normal" text-anchor="middle" dominant-baseline="middle" fill="#2b2b2b"><tspan x="119.0" y="1900.5">Выходной DXF, файл</tspan><tspan x="119.0" y="1913.5">объяснений, записка</tspan></text>
</svg>