  0
SECTION
  2
HEADER
  9
$ACADVER
  1
AC1032
  9
$ACADMAINTVER
 90
4
  9
$DWGCODEPAGE
  3
ANSI_1252
  9
$LASTSAVEDBY
  1
ezdxf
  9
$REQUIREDVERSIONS
160
0
  9
$INSBASE
 10
0.0
 20
0.0
 30
0.0
  9
$EXTMIN
 10
1e+20
 20
1e+20
 30
1e+20
  9
$EXTMAX
 10
-1e+20
 20
-1e+20
 30
-1e+20
  9
$LIMMIN
 10
0.0
 20
0.0
  9
$LIMMAX
 10
420.0
 20
297.0
  9
$ORTHOMODE
 70
0
  9
$REGENMODE
 70
1
  9
$FILLMODE
 70
1
  9
$QTEXTMODE
 70
0
  9
$MIRRTEXT
 70
1
  9
$LTSCALE
 40
1.0
  9
$ATTMODE
 70
1
  9
$TEXTSIZE
 40
2.5
  9
$TRACEWID
 40
1.0
  9
$TEXTSTYLE
  7
Standard
  9
$CLAYER
  8
0
  9
$CELTYPE
  6
ByLayer
  9
$CECOLOR
 62
256
  9
$CELTSCALE
 40
1.0
  9
$DISPSILH
 70
0
  9
$DIMSCALE
 40
1.0
  9
$DIMASZ
 40
2.5
  9
$DIMEXO
 40
0.625
  9
$DIMDLI
 40
3.75
  9
$DIMRND
 40
0.0
  9
$DIMDLE
 40
0.0
  9
$DIMEXE
 40
1.25
  9
$DIMTP
 40
0.0
  9
$DIMTM
 40
0.0
  9
$DIMTXT
 40
2.5
  9
$DIMCEN
 40
2.5
  9
$DIMTSZ
 40
0.0
  9
$DIMTOL
 70
0
  9
$DIMLIM
 70
0
  9
$DIMTIH
 70
0
  9
$DIMTOH
 70
0
  9
$DIMSE1
 70
0
  9
$DIMSE2
 70
0
  9
$DIMTAD
 70
1
  9
$DIMZIN
 70
8
  9
$DIMBLK
  1

  9
$DIMASO
 70
1
  9
$DIMSHO
 70
1
  9
$DIMPOST
  1

  9
$DIMAPOST
  1

  9
$DIMALT
 70
0
  9
$DIMALTD
 70
3
  9
$DIMALTF
 40
0.03937007874
  9
$DIMLFAC
 40
1.0
  9
$DIMTOFL
 70
1
  9
$DIMTVP
 40
0.0
  9
$DIMTIX
 70
0
  9
$DIMSOXD
 70
0
  9
$DIMSAH
 70
0
  9
$DIMBLK1
  1

  9
$DIMBLK2
  1

  9
$DIMSTYLE
  2
ISO-25
  9
$DIMCLRD
 70
0
  9
$DIMCLRE
 70
0
  9
$DIMCLRT
 70
0
  9
$DIMTFAC
 40
1.0
  9
$DIMGAP
 40
0.625
  9
$DIMJUST
 70
0
  9
$DIMSD1
 70
0
  9
$DIMSD2
 70
0
  9
$DIMTOLJ
 70
0
  9
$DIMTZIN
 70
8
  9
$DIMALTZ
 70
0
  9
$DIMALTTZ
 70
0
  9
$DIMUPT
 70
0
  9
$DIMDEC
 70
2
  9
$DIMTDEC
 70
2
  9
$DIMALTU
 70
2
  9
$DIMALTTD
 70
3
  9
$DIMTXSTY
  7
Standard
  9
$DIMAUNIT
 70
0
  9
$DIMADEC
 70
0
  9
$DIMALTRND
 40
0.0
  9
$DIMAZIN
 70
0
  9
$DIMDSEP
 70
44
  9
$DIMATFIT
 70
3
  9
$DIMFRAC
 70
0
  9
$DIMLDRBLK
  1

  9
$DIMLUNIT
 70
2
  9
$DIMLWD
 70
-2
  9
$DIMLWE
 70
-2
  9
$DIMTMOVE
 70
0
  9
$DIMFXL
 40
1.0
  9
$DIMFXLON
 70
0
  9
$DIMJOGANG
 40
0.785398163397
  9
$DIMTFILL
 70
0
  9
$DIMTFILLCLR
 70
0
  9
$DIMARCSYM
 70
0
  9
$DIMLTYPE
  6

  9
$DIMLTEX1
  6

  9
$DIMLTEX2
  6

  9
$DIMTXTDIRECTION
 70
0
  9
$LUNITS
 70
2
  9
$LUPREC
 70
4
  9
$SKETCHINC
 40
1.0
  9
$FILLETRAD
 40
10.0
  9
$AUNITS
 70
0
  9
$AUPREC
 70
2
  9
$MENU
  1
.
  9
$ELEVATION
 40
0.0
  9
$PELEVATION
 40
0.0
  9
$THICKNESS
 40
0.0
  9
$LIMCHECK
 70
0
  9
$CHAMFERA
 40
0.0
  9
$CHAMFERB
 40
0.0
  9
$CHAMFERC
 40
0.0
  9
$CHAMFERD
 40
0.0
  9
$SKPOLY
 70
0
  9
$TDCREATE
 40
2461310.7561689815
  9
$TDUCREATE
 40
2458532.153996898
  9
$TDUPDATE
 40
2461310.7561689815
  9
$TDUUPDATE
 40
2458532.1544311
  9
$TDINDWG
 40
0.0
  9
$TDUSRTIMER
 40
0.0
  9
$USRTIMER
 70
1
  9
$ANGBASE
 50
0.0
  9
$ANGDIR
 70
0
  9
$PDMODE
 70
0
  9
$PDSIZE
 40
0.0
  9
$PLINEWID
 40
0.0
  9
$SPLFRAME
 70
0
  9
$SPLINETYPE
 70
6
  9
$SPLINESEGS
 70
8
  9
$HANDSEED
  5
170
  9
$SURFTAB1
 70
6
  9
$SURFTAB2
 70
6
  9
$SURFTYPE
 70
6
  9
$SURFU
 70
6
  9
$SURFV
 70
6
  9
$UCSBASE
  2

  9
$UCSNAME
  2

  9
$UCSORG
 10
0.0
 20
0.0
 30
0.0
  9
$UCSXDIR
 10
1.0
 20
0.0
 30
0.0
  9
$UCSYDIR
 10
0.0
 20
1.0
 30
0.0
  9
$UCSORTHOREF
  2

  9
$UCSORTHOVIEW
 70
0
  9
$UCSORGTOP
 10
0.0
 20
0.0
 30
0.0
  9
$UCSORGBOTTOM
 10
0.0
 20
0.0
 30
0.0
  9
$UCSORGLEFT
 10
0.0
 20
0.0
 30
0.0
  9
$UCSORGRIGHT
 10
0.0
 20
0.0
 30
0.0
  9
$UCSORGFRONT
 10
0.0
 20
0.0
 30
0.0
  9
$UCSORGBACK
 10
0.0
 20
0.0
 30
0.0
  9
$PUCSBASE
  2

  9
$PUCSNAME
  2

  9
$PUCSORG
 10
0.0
 20
0.0
 30
0.0
  9
$PUCSXDIR
 10
1.0
 20
0.0
 30
0.0
  9
$PUCSYDIR
 10
0.0
 20
1.0
 30
0.0
  9
$PUCSORTHOREF
  2

  9
$PUCSORTHOVIEW
 70
0
  9
$PUCSORGTOP
 10
0.0
 20
0.0
 30
0.0
  9
$PUCSORGBOTTOM
 10
0.0
 20
0.0
 30
0.0
  9
$PUCSORGLEFT
 10
0.0
 20
0.0
 30
0.0
  9
$PUCSORGRIGHT
 10
0.0
 20
0.0
 30
0.0
  9
$PUCSORGFRONT
 10
0.0
 20
0.0
 30
0.0
  9
$PUCSORGBACK
 10
0.0
 20
0.0
 30
0.0
  9
$USERI1
 70
0
  9
$USERI2
 70
0
  9
$USERI3
 70
0
  9
$USERI4
 70
0
  9
$USERI5
 70
0
  9
$USERR1
 40
0.0
  9
$USERR2
 40
0.0
  9
$USERR3
 40
0.0
  9
$USERR4
 40
0.0
  9
$USERR5
 40
0.0
  9
$WORLDVIEW
 70
1
  9
$SHADEDGE
 70
3
  9
$SHADEDIF
 70
70
  9
$TILEMODE
 70
1
  9
$MAXACTVP
 70
64
  9
$PINSBASE
 10
0.0
 20
0.0
 30
0.0
  9
$PLIMCHECK
 70
0
  9
$PEXTMIN
 10
1e+20
 20
1e+20
 30
1e+20
  9
$PEXTMAX
 10
-1e+20
 20
-1e+20
 30
-1e+20
  9
$PLIMMIN
 10
0.0
 20
0.0
  9
$PLIMMAX
 10
420.0
 20
297.0
  9
$UNITMODE
 70
0
  9
$VISRETAIN
 70
1
  9
$PLINEGEN
 70
0
  9
$PSLTSCALE
 70
1
  9
$TREEDEPTH
 70
3020
  9
$CMLSTYLE
  2
Standard
  9
$CMLJUST
 70
0
  9
$CMLSCALE
 40
20.0
  9
$PROXYGRAPHICS
 70
1
  9
$MEASUREMENT
 70
1
  9
$CELWEIGHT
370
-1
  9
$ENDCAPS
280
0
  9
$JOINSTYLE
280
0
  9
$LWDISPLAY
290
0
  9
$INSUNITS
 70
6
  9
$HYPERLINKBASE
  1

  9
$STYLESHEET
  1

  9
$XEDIT
290
1
  9
$CEPSNTYPE
380
0
  9
$PSTYLEMODE
290
1
  9
$FINGERPRINTGUID
  2
{7FCDF639-9BEC-4B28-91AC-36650E6AABDD}
  9
$VERSIONGUID
  2
{C02C596F-2588-4CD7-B105-F277EA17B186}
  9
$EXTNAMES
290
1
  9
$PSVPSCALE
 40
0.0
  9
$OLESTARTUP
290
0
  9
$SORTENTS
280
127
  9
$INDEXCTL
280
0
  9
$HIDETEXT
280
1
  9
$XCLIPFRAME
280
1
  9
$HALOGAP
280
0
  9
$OBSCOLOR
 70
257
  9
$OBSLTYPE
280
0
  9
$INTERSECTIONDISPLAY
280
0
  9
$INTERSECTIONCOLOR
 70
257
  9
$DIMASSOC
280
2
  9
$PROJECTNAME
  1

  9
$CAMERADISPLAY
290
0
  9
$LENSLENGTH
 40
50.0
  9
$CAMERAHEIGHT
 40
0.0
  9
$STEPSPERSEC
 40
24.0
  9
$STEPSIZE
 40
100.0
  9
$3DDWFPREC
 40
2.0
  9
$PSOLWIDTH
 40
0.005
  9
$PSOLHEIGHT
 40
0.08
  9
$LOFTANG1
 40
1.570796326795
  9
$LOFTANG2
 40
1.570796326795
  9
$LOFTMAG1
 40
0.0
  9
$LOFTMAG2
 40
0.0
  9
$LOFTPARAM
 70
7
  9
$LOFTNORMALS
280
1
  9
$LATITUDE
 40
37.795
  9
$LONGITUDE
 40
-122.394
  9
$NORTHDIRECTION
 40
0.0
  9
$TIMEZONE
 70
-8000
  9
$LIGHTGLYPHDISPLAY
280
1
  9
$TILEMODELIGHTSYNCH
280
1
  9
$CMATERIAL
347
20
  9
$SOLIDHIST
280
0
  9
$SHOWHIST
280
1
  9
$DWFFRAME
280
2
  9
$DGNFRAME
280
2
  9
$REALWORLDSCALE
290
1
  9
$INTERFERECOLOR
 62
256
  9
$CSHADOW
280
0
  9
$SHADOWPLANELOCATION
 40
0.0
  0
ENDSEC
  0
SECTION
  2
CLASSES
  0
CLASS
  1
ACDBDICTIONARYWDFLT
  2
AcDbDictionaryWithDefault
  3
ObjectDBX Classes
 90
0
 91
0
280
0
281
0
  0
CLASS
  1
SUN
  2
AcDbSun
  3
SCENEOE
 90
1153
 91
0
280
0
281
0
  0
CLASS
  1
VISUALSTYLE
  2
AcDbVisualStyle
  3
ObjectDBX Classes
 90
4095
 91
0
280
0
281
0
  0
CLASS
  1
MATERIAL
  2
AcDbMaterial
  3
ObjectDBX Classes
 90
1153
 91
0
280
0
281
0
  0
CLASS
  1
SCALE
  2
AcDbScale
  3
ObjectDBX Classes
 90
1153
 91
0
280
0
281
0
  0
CLASS
  1
TABLESTYLE
  2
AcDbTableStyle
  3
ObjectDBX Classes
 90
4095
 91
0
280
0
281
0
  0
CLASS
  1
MLEADERSTYLE
  2
AcDbMLeaderStyle
  3
ACDB_MLEADERSTYLE_CLASS
 90
4095
 91
0
280
0
281
0
  0
CLASS
  1
DICTIONARYVAR
  2
AcDbDictionaryVar
  3
ObjectDBX Classes
 90
0
 91
0
280
0
281
0
  0
CLASS
  1
CELLSTYLEMAP
  2
AcDbCellStyleMap
  3
ObjectDBX Classes
 90
1152
 91
0
280
0
281
0
  0
CLASS
  1
MENTALRAYRENDERSETTINGS
  2
AcDbMentalRayRenderSettings
  3
SCENEOE
 90
1024
 91
0
280
0
281
0
  0
CLASS
  1
ACDBDETAILVIEWSTYLE
  2
AcDbDetailViewStyle
  3
ObjectDBX Classes
 90
1025
 91
0
280
0
281
0
  0
CLASS
  1
ACDBSECTIONVIEWSTYLE
  2
AcDbSectionViewStyle
  3
ObjectDBX Classes
 90
1025
 91
0
280
0
281
0
  0
CLASS
  1
RASTERVARIABLES
  2
AcDbRasterVariables
  3
ISM
 90
0
 91
0
280
0
281
0
  0
CLASS
  1
LAYOUT
  2
AcDbLayout
  3
ObjectDBX Classes
 90
0
 91
0
280
0
281
0
  0
CLASS
  1
ACDBPLACEHOLDER
  2
AcDbPlaceHolder
  3
ObjectDBX Classes
 90
0
 91
0
280
0
281
0
  0
ENDSEC
  0
SECTION
  2
TABLES
  0
TABLE
  2
VPORT
  5
8
330
0
100
AcDbSymbolTable
 70
1
  0
VPORT
  5
23
330
8
100
AcDbSymbolTableRecord
100
AcDbViewportTableRecord
  2
*Active
 70
0
 10
0.0
 20
0.0
 11
1.0
 21
1.0
 12
0.0
 22
0.0
 13
0.0
 23
0.0
 14
0.5
 24
0.5
 15
0.5
 25
0.5
 16
0.0
 26
0.0
 36
1.0
 17
0.0
 27
0.0
 37
0.0
 40
1000.0
 41
1.34
 42
50.0
 43
0.0
 44
0.0
 50
0.0
 51
0.0
 71
0
 72
1000
 73
1
 74
3
 75
0
 76
0
 77
0
 78
0
281
0
 65
0
146
0.0
  0
ENDTAB
  0
TABLE
  2
LTYPE
  5
2
330
0
100
AcDbSymbolTable
 70
3
  0
LTYPE
  5
24
330
2
100
AcDbSymbolTableRecord
100
AcDbLinetypeTableRecord
  2
ByBlock
 70
0
  3

 72
65
 73
0
 40
0.0
  0
LTYPE
  5
25
330
2
100
AcDbSymbolTableRecord
100
AcDbLinetypeTableRecord
  2
ByLayer
 70
0
  3

 72
65
 73
0
 40
0.0
  0
LTYPE
  5
26
330
2
100
AcDbSymbolTableRecord
100
AcDbLinetypeTableRecord
  2
Continuous
 70
0
  3

 72
65
 73
0
 40
0.0
  0
ENDTAB
  0
TABLE
  2
LAYER
  5
1
330
0
100
AcDbSymbolTable
 70
26
  0
LAYER
  5
27
330
1
100
AcDbSymbolTableRecord
100
AcDbLayerTableRecord
  2
0
 70
0
 62
7
  6
Continuous
370
-3
390
13
347
21
  0
LAYER
  5
28
330
1
100
AcDbSymbolTableRecord
100
AcDbLayerTableRecord
  2
Defpoints
 70
0
 62
7
  6
Continuous
290
0
370
-3
390
13
347
21
  0
LAYER
  5
2F
330
1
100
AcDbSymbolTableRecord
100
AcDbLayerTableRecord
  2
TERRITORY_BOUNDARY
 70
0
 62
8
  6
Continuous
370
-3
390
13
347
21
  0
LAYER
  5
31
330
1
100
AcDbSymbolTableRecord
100
AcDbLayerTableRecord
  2
GRASS
 70
0
 62
84
  6
Continuous
370
-3
390
13
347
21
  0
LAYER
  5
33
330
1
100
AcDbSymbolTableRecord
100
AcDbLayerTableRecord
  2
PATH_RING_1
 70
0
 62
9
  6
Continuous
370
-3
390
13
347
21
  0
LAYER
  5
35
330
1
100
AcDbSymbolTableRecord
100
AcDbLayerTableRecord
  2
PATH_RAY_1
 70
0
 62
9
  6
Continuous
370
-3
390
13
347
21
  0
LAYER
  5
37
330
1
100
AcDbSymbolTableRecord
100
AcDbLayerTableRecord
  2
PATH_RING_2
 70
0
 62
9
  6
Continuous
370
-3
390
13
347
21
  0
LAYER
  5
39
330
1
100
AcDbSymbolTableRecord
100
AcDbLayerTableRecord
  2
PATH_RAY_2
 70
0
 62
9
  6
Continuous
370
-3
390
13
347
21
  0
LAYER
  5
3B
330
1
100
AcDbSymbolTableRecord
100
AcDbLayerTableRecord
  2
PATH_RING_3
 70
0
 62
9
  6
Continuous
370
-3
390
13
347
21
  0
LAYER
  5
3D
330
1
100
AcDbSymbolTableRecord
100
AcDbLayerTableRecord
  2
PATH_RAY_3
 70
0
 62
9
  6
Continuous
370
-3
390
13
347
21
  0
LAYER
  5
3F
330
1
100
AcDbSymbolTableRecord
100
AcDbLayerTableRecord
  2
PATH_RING_4
 70
0
 62
9
  6
Continuous
370
-3
390
13
347
21
  0
LAYER
  5
41
330
1
100
AcDbSymbolTableRecord
100
AcDbLayerTableRecord
  2
PATH_RAY_4
 70
0
 62
9
  6
Continuous
370
-3
390
13
347
21
  0
LAYER
  5
43
330
1
100
AcDbSymbolTableRecord
100
AcDbLayerTableRecord
  2
WATER_SUPPLY
 70
0
 62
9
  6
Continuous
370
-3
390
13
347
21
  0
LAYER
  5
45
330
1
100
AcDbSymbolTableRecord
100
AcDbLayerTableRecord
  2
CURB
 70
0
 62
9
  6
Continuous
370
-3
390
13
347
21
  0
LAYER
  5
47
330
1
100
AcDbSymbolTableRecord
100
AcDbLayerTableRecord
  2
ГОРТЕНЗИЯ МЕТЕЛЬЧАТАЯ
 70
0
 62
3
  6
Continuous
370
-3
390
13
347
21
  0
LAYER
  5
4D
330
1
100
AcDbSymbolTableRecord
100
AcDbLayerTableRecord
  2
СПИРЕЯ ЯПОНСКАЯ
 70
0
 62
3
  6
Continuous
370
-3
390
13
347
21
  0
LAYER
  5
58
330
1
100
AcDbSymbolTableRecord
100
AcDbLayerTableRecord
  2
СПИРЕЯ БУМАЛЬДА
 70
0
 62
3
  6
Continuous
370
-3
390
13
347
21
  0
LAYER
  5
69
330
1
100
AcDbSymbolTableRecord
100
AcDbLayerTableRecord
  2
ЯБЛОНЯ НЕДЗВЕДЦКОГО
 70
0
 62
3
  6
Continuous
370
-3
390
13
347
21
  0
LAYER
  5
6B
330
1
100
AcDbSymbolTableRecord
100
AcDbLayerTableRecord
  2
ЧЕРЕМУХА МААКА
 70
0
 62
3
  6
Continuous
370
-3
390
13
347
21
  0
LAYER
  5
6F
330
1
100
AcDbSymbolTableRecord
100
AcDbLayerTableRecord
  2
СПИРЕЯ ВАНГУТТА
 70
0
 62
3
  6
Continuous
370
-3
390
13
347
21
  0
LAYER
  5
7B
330
1
100
AcDbSymbolTableRecord
100
AcDbLayerTableRecord
  2
ЛИПА МЕЛКОЛИСТНАЯ
 70
0
 62
3
  6
Continuous
370
-3
390
13
347
21
  0
LAYER
  5
7D
330
1
100
AcDbSymbolTableRecord
100
AcDbLayerTableRecord
  2
КЛЕН ОСТРОЛИСТНЫЙ
 70
0
 62
3
  6
Continuous
370
-3
390
13
347
21
  0
LAYER
  5
83
330
1
100
AcDbSymbolTableRecord
100
AcDbLayerTableRecord
  2
КИЗИЛЬНИК БЛЕСТЯЩИЙ
 70
0
 62
3
  6
Continuous
370
-3
390
13
347
21
  0
LAYER
  5
14A
330
1
100
AcDbSymbolTableRecord
100
AcDbLayerTableRecord
  2
BENCH
 70
0
 62
30
  6
Continuous
370
-3
390
13
347
21
  0
LAYER
  5
14D
330
1
100
AcDbSymbolTableRecord
100
AcDbLayerTableRecord
  2
URN
 70
0
 62
2
  6
Continuous
370
-3
390
13
347
21
  0
LAYER
  5
164
330
1
100
AcDbSymbolTableRecord
100
AcDbLayerTableRecord
  2
LAMPS
 70
0
 62
2
  6
Continuous
370
-3
390
13
347
21
  0
ENDTAB
  0
TABLE
  2
STYLE
  5
5
330
0
100
AcDbSymbolTable
 70
1
  0
STYLE
  5
29
330
5
100
AcDbSymbolTableRecord
100
AcDbTextStyleTableRecord
  2
Standard
 70
0
 40
0.0
 41
1.0
 50
0.0
 71
0
 42
2.5
  3
txt
  4

  0
ENDTAB
  0
TABLE
  2
VIEW
  5
7
330
0
100
AcDbSymbolTable
 70
0
  0
ENDTAB
  0
TABLE
  2
UCS
  5
6
330
0
100
AcDbSymbolTable
 70
0
  0
ENDTAB
  0
TABLE
  2
APPID
  5
3
330
0
100
AcDbSymbolTable
 70
3
  0
APPID
  5
2A
330
3
100
AcDbSymbolTableRecord
100
AcDbRegAppTableRecord
  2
ACAD
 70
0
  0
APPID
  5
16D
330
3
100
AcDbSymbolTableRecord
100
AcDbRegAppTableRecord
  2
HATCHBACKGROUNDCOLOR
 70
0
  0
APPID
  5
16E
330
3
100
AcDbSymbolTableRecord
100
AcDbRegAppTableRecord
  2
EZDXF
 70
0
  0
ENDTAB
  0
TABLE
  2
DIMSTYLE
  5
4
330
0
100
AcDbSymbolTable
 70
1
100
AcDbDimStyleTable
  0
DIMSTYLE
105
2B
330
4
100
AcDbSymbolTableRecord
100
AcDbDimStyleTableRecord
  2
Standard
 70
0
 40
1.0
 41
2.5
 42
0.625
 43
3.75
 44
1.25
 45
0.0
 46
0.0
 47
0.0
 48
0.0
 49
2.5
140
2.5
141
2.5
142
0.0
143
0.03937007874
144
1.0
145
0.0
146
1.0
147
0.625
148
0.0
 69
0
 70
0
 71
0
 72
0
 73
0
 74
0
 75
0
 76
0
 77
1
 78
8
 79
3
170
0
171
3
172
1
173
0
174
0
175
0
176
0
177
0
178
0
179
2
271
2
272
2
273
2
274
3
275
0
276
0
277
2
278
44
279
0
280
0
281
0
282
0
283
0
284
8
285
0
286
0
288
0
289
3
290
0
371
-2
372
-2
  0
ENDTAB
  0
TABLE
  2
BLOCK_RECORD
  5
9
330
0
100
AcDbSymbolTable
 70
3
  0
BLOCK_RECORD
  5
17
330
9
100
AcDbSymbolTableRecord
100
AcDbBlockTableRecord
  2
*Model_Space
340
1A
 70
0
280
1
281
0
  0
BLOCK_RECORD
  5
1B
330
9
100
AcDbSymbolTableRecord
100
AcDbBlockTableRecord
  2
*Paper_Space
340
1E
 70
0
280
1
281
0
  0
BLOCK_RECORD
  5
146
330
9
100
AcDbSymbolTableRecord
100
AcDbBlockTableRecord
  2
BENCH_BLOCK
340
0
 70
0
280
1
281
0
  0
ENDTAB
  0
ENDSEC
  0
SECTION
  2
BLOCKS
  0
BLOCK
  5
18
330
17
100
AcDbEntity
  8
0
100
AcDbBlockBegin
  2
*Model_Space
 70
0
 10
0.0
 20
0.0
 30
0.0
  3
*Model_Space
  1

  0
ENDBLK
  5
19
330
17
100
AcDbEntity
  8
0
100
AcDbBlockEnd
  0
BLOCK
  5
1C
330
1B
100
AcDbEntity
  8
0
100
AcDbBlockBegin
  2
*Paper_Space
 70
0
 10
0.0
 20
0.0
 30
0.0
  3
*Paper_Space
  1

  0
ENDBLK
  5
1D
330
1B
100
AcDbEntity
  8
0
100
AcDbBlockEnd
  0
BLOCK
  5
147
330
146
100
AcDbEntity
  8
0
100
AcDbBlockBegin
  2
BENCH_BLOCK
 70
0
 10
0.0
 20
0.0
 30
0.0
  3
BENCH_BLOCK
  1

  0
LWPOLYLINE
  5
149
330
146
100
AcDbEntity
  8
0
100
AcDbPolyline
 90
4
 70
1
 10
-0.75
 20
-0.25
 10
0.75
 20
-0.25
 10
0.75
 20
0.25
 10
-0.75
 20
0.25
  0
ENDBLK
  5
148
330
146
100
AcDbEntity
  8
0
100
AcDbBlockEnd
  0
ENDSEC
  0
SECTION
  2
ENTITIES
  0
LWPOLYLINE
  5
30
330
17
100
AcDbEntity
  8
TERRITORY_BOUNDARY
100
AcDbPolyline
 90
96
 70
1
 10
76.0
 20
40.0
 10
75.92292123658973
 20
42.35451265228515
 10
75.69201500945718
 20
44.698942919921855
 10
75.3082700945163
 20
47.023251592580614
 10
74.77332974640646
 20
49.31748562369074
 10
74.0894846618238
 20
51.571820750913815
 10
73.25966317040633
 20
53.77660356514323
 10
72.28741869517678
 20
55.92239284788404
 10
71.17691453623979
 20
58.0
 10
69.93290604289163
 20
60.000528388705675
 10
68.56072025048447
 20
61.915411444313946
 10
67.0662330692432
 20
63.73644934360248
 10
65.45584412271572
 20
65.45584412271572
 10
63.73644934360248
 20
67.06623306924318
 10
61.915411444313946
 20
68.56072025048447
 10
60.00052838870569
 20
69.93290604289163
 10
58.0
 20
71.17691453623979
 10
55.92239284788404
 20
72.28741869517678
 10
53.77660356514323
 20
73.25966317040633
 10
51.57182075091382
 20
74.0894846618238
 10
49.31748562369074
 20
74.77332974640646
 10
47.02325159258062
 20
75.3082700945163
 10
44.69894291992186
 20
75.69201500945718
 10
42.35451265228516
 20
75.92292123658973
 10
40.0
 20
76.0
 10
37.64548734771485
 20
75.92292123658973
 10
35.301057080078145
 20
75.69201500945718
 10
32.976748407419386
 20
75.3082700945163
 10
30.682514376309257
 20
74.77332974640646
 10
28.428179249086185
 20
74.0894846618238
 10
26.223396434856777
 20
73.25966317040633
 10
24.07760715211596
 20
72.28741869517678
 10
22.000000000000007
 20
71.17691453623979
 10
19.999471611294314
 20
69.93290604289163
 10
18.084588555686057
 20
68.56072025048447
 10
16.26355065639752
 20
67.06623306924318
 10
14.54415587728429
 20
65.45584412271572
 10
12.933766930756818
 20
63.73644934360249
 10
11.439279749515538
 20
61.91541144431395
 10
10.06709395710838
 20
60.00052838870569
 10
8.823085463760208
 20
58.0
 10
7.712581304823225
 20
55.92239284788406
 10
6.74033682959368
 20
53.77660356514323
 10
5.910515338176197
 20
51.57182075091382
 10
5.2266702535935465
 20
49.31748562369076
 10
4.6917299054837045
 20
47.023251592580614
 10
4.307984990542828
 20
44.69894291992187
 10
4.077078763410277
 20
42.35451265228515
 10
4.0
 20
40.00000000000001
 10
4.077078763410277
 20
37.645487347714855
 10
4.307984990542828
 20
35.30105708007814
 10
4.691729905483697
 20
32.97674840741939
 10
5.226670253593539
 20
30.68251437630925
 10
5.910515338176197
 20
28.428179249086185
 10
6.740336829593673
 20
26.223396434856774
 10
7.712581304823225
 20
24.077607152115945
 10
8.8230854637602
 20
22.000000000000007
 10
10.067093957108362
 20
19.99947161129433
 10
11.439279749515535
 20
18.084588555686057
 10
12.93376693075681
 20
16.26355065639752
 10
14.544155877284275
 20
14.544155877284304
 10
16.263550656397513
 20
12.933766930756818
 10
18.084588555686047
 20
11.439279749515542
 10
19.99947161129432
 20
10.067093957108373
 10
21.999999999999986
 20
8.823085463760219
 10
24.077607152115952
 20
7.712581304823225
 10
26.223396434856777
 20
6.740336829593673
 10
28.428179249086174
 20
5.910515338176197
 10
30.682514376309257
 20
5.226670253593539
 10
32.976748407419365
 20
4.691729905483712
 10
35.30105708007814
 20
4.307984990542828
 10
37.64548734771486
 20
4.077078763410277
 10
39.99999999999999
 20
4.0
 10
42.35451265228512
 20
4.07707876341027
 10
44.69894291992185
 20
4.3079849905428205
 10
47.02325159258062
 20
4.6917299054837045
 10
49.31748562369073
 20
5.226670253593539
 10
51.571820750913815
 20
5.910515338176197
 10
53.77660356514321
 20
6.740336829593673
 10
55.92239284788404
 20
7.7125813048232175
 10
58.0
 20
8.823085463760211
 10
60.00052838870567
 20
10.067093957108362
 10
61.91541144431392
 20
11.439279749515514
 10
63.73644934360249
 20
12.933766930756821
 10
65.4558441227157
 20
14.544155877284282
 10
67.0662330692432
 20
16.263550656397527
 10
68.56072025048445
 20
18.084588555686047
 10
69.93290604289162
 20
19.999471611294293
 10
71.17691453623978
 20
21.999999999999986
 10
72.28741869517677
 20
24.07760715211595
 10
73.25966317040633
 20
26.223396434856774
 10
74.0894846618238
 20
28.42817924908617
 10
74.77332974640646
 20
30.68251437630922
 10
75.30827009451629
 20
32.976748407419365
 10
75.69201500945718
 20
35.30105708007814
 10
75.92292123658973
 20
37.64548734771486
  0
LWPOLYLINE
  5
32
330
17
100
AcDbEntity
  8
GRASS
100
AcDbPolyline
 90
96
 70
1
 10
76.0
 20
40.0
 10
75.92292123658973
 20
42.35451265228515
 10
75.69201500945718
 20
44.698942919921855
 10
75.3082700945163
 20
47.023251592580614
 10
74.77332974640646
 20
49.31748562369074
 10
74.0894846618238
 20
51.571820750913815
 10
73.25966317040633
 20
53.77660356514323
 10
72.28741869517678
 20
55.92239284788404
 10
71.17691453623979
 20
58.0
 10
69.93290604289163
 20
60.000528388705675
 10
68.56072025048447
 20
61.915411444313946
 10
67.0662330692432
 20
63.73644934360248
 10
65.45584412271572
 20
65.45584412271572
 10
63.73644934360248
 20
67.06623306924318
 10
61.915411444313946
 20
68.56072025048447
 10
60.00052838870569
 20
69.93290604289163
 10
58.0
 20
71.17691453623979
 10
55.92239284788404
 20
72.28741869517678
 10
53.77660356514323
 20
73.25966317040633
 10
51.57182075091382
 20
74.0894846618238
 10
49.31748562369074
 20
74.77332974640646
 10
47.02325159258062
 20
75.3082700945163
 10
44.69894291992186
 20
75.69201500945718
 10
42.35451265228516
 20
75.92292123658973
 10
40.0
 20
76.0
 10
37.64548734771485
 20
75.92292123658973
 10
35.301057080078145
 20
75.69201500945718
 10
32.976748407419386
 20
75.3082700945163
 10
30.682514376309257
 20
74.77332974640646
 10
28.428179249086185
 20
74.0894846618238
 10
26.223396434856777
 20
73.25966317040633
 10
24.07760715211596
 20
72.28741869517678
 10
22.000000000000007
 20
71.17691453623979
 10
19.999471611294314
 20
69.93290604289163
 10
18.084588555686057
 20
68.56072025048447
 10
16.26355065639752
 20
67.06623306924318
 10
14.54415587728429
 20
65.45584412271572
 10
12.933766930756818
 20
63.73644934360249
 10
11.439279749515538
 20
61.91541144431395
 10
10.06709395710838
 20
60.00052838870569
 10
8.823085463760208
 20
58.0
 10
7.712581304823225
 20
55.92239284788406
 10
6.74033682959368
 20
53.77660356514323
 10
5.910515338176197
 20
51.57182075091382
 10
5.2266702535935465
 20
49.31748562369076
 10
4.6917299054837045
 20
47.023251592580614
 10
4.307984990542828
 20
44.69894291992187
 10
4.077078763410277
 20
42.35451265228515
 10
4.0
 20
40.00000000000001
 10
4.077078763410277
 20
37.645487347714855
 10
4.307984990542828
 20
35.30105708007814
 10
4.691729905483697
 20
32.97674840741939
 10
5.226670253593539
 20
30.68251437630925
 10
5.910515338176197
 20
28.428179249086185
 10
6.740336829593673
 20
26.223396434856774
 10
7.712581304823225
 20
24.077607152115945
 10
8.8230854637602
 20
22.000000000000007
 10
10.067093957108362
 20
19.99947161129433
 10
11.439279749515535
 20
18.084588555686057
 10
12.93376693075681
 20
16.26355065639752
 10
14.544155877284275
 20
14.544155877284304
 10
16.263550656397513
 20
12.933766930756818
 10
18.084588555686047
 20
11.439279749515542
 10
19.99947161129432
 20
10.067093957108373
 10
21.999999999999986
 20
8.823085463760219
 10
24.077607152115952
 20
7.712581304823225
 10
26.223396434856777
 20
6.740336829593673
 10
28.428179249086174
 20
5.910515338176197
 10
30.682514376309257
 20
5.226670253593539
 10
32.976748407419365
 20
4.691729905483712
 10
35.30105708007814
 20
4.307984990542828
 10
37.64548734771486
 20
4.077078763410277
 10
39.99999999999999
 20
4.0
 10
42.35451265228512
 20
4.07707876341027
 10
44.69894291992185
 20
4.3079849905428205
 10
47.02325159258062
 20
4.6917299054837045
 10
49.31748562369073
 20
5.226670253593539
 10
51.571820750913815
 20
5.910515338176197
 10
53.77660356514321
 20
6.740336829593673
 10
55.92239284788404
 20
7.7125813048232175
 10
58.0
 20
8.823085463760211
 10
60.00052838870567
 20
10.067093957108362
 10
61.91541144431392
 20
11.439279749515514
 10
63.73644934360249
 20
12.933766930756821
 10
65.4558441227157
 20
14.544155877284282
 10
67.0662330692432
 20
16.263550656397527
 10
68.56072025048445
 20
18.084588555686047
 10
69.93290604289162
 20
19.999471611294293
 10
71.17691453623978
 20
21.999999999999986
 10
72.28741869517677
 20
24.07760715211595
 10
73.25966317040633
 20
26.223396434856774
 10
74.0894846618238
 20
28.42817924908617
 10
74.77332974640646
 20
30.68251437630922
 10
75.30827009451629
 20
32.976748407419365
 10
75.69201500945718
 20
35.30105708007814
 10
75.92292123658973
 20
37.64548734771486
  0
LWPOLYLINE
  5
34
330
17
100
AcDbEntity
  8
PATH_RING_1
100
AcDbPolyline
 90
50
 70
1
 10
46.01040764008565
 20
46.01040764008565
 10
45.60443942835059
 20
46.390638363571306
 10
45.174472146574125
 20
46.743503392475496
 10
44.72234698066662
 20
47.06749170457164
 10
44.25
 20
47.36121593216773
 10
43.75945386686151
 20
47.62341830302785
 10
43.252809175103266
 20
47.852976026345935
 10
42.732235455076875
 20
48.04890610070839
 10
42.19996188337143
 20
48.21036952345708
 10
41.65826773713709
 20
48.33667488342746
 10
41.10947263387044
 20
48.427281321677384
 10
40.55592659845622
 20
48.48180084752813
 10
40.0
 20
48.5
 10
39.44407340154378
 20
48.48180084752813
 10
38.89052736612956
 20
48.427281321677384
 10
38.34173226286291
 20
48.33667488342746
 10
37.80003811662857
 20
48.21036952345708
 10
37.267764544923125
 20
48.0489061007084
 10
36.747190824896734
 20
47.852976026345935
 10
36.24054613313849
 20
47.62341830302785
 10
35.75
 20
47.36121593216773
 10
35.27765301933338
 20
47.06749170457164
 10
34.825527853425875
 20
46.743503392475496
 10
34.39556057164941
 20
46.390638363571306
 10
33.98959235991435
 20
46.01040764008565
 10
36.110912703473986
 20
43.889087296526014
 10
36.37359801694962
 20
44.13511894113438
 10
36.65181214045204
 20
44.36344337160179
 10
36.94436371839219
 20
44.573082867664
 10
37.25
 20
44.763139720814415
 10
37.56741220379549
 20
44.932800078429786
 10
37.89524112199201
 20
45.08133742881208
 10
38.23208294083261
 20
45.20811571222308
 10
38.57649525193614
 20
45.31259204458988
 10
38.927003228911296
 20
45.39431904221777
 10
39.28210594278972
 20
45.452946737555955
 10
39.64028278923421
 20
45.48822407781232
 10
40.0
 20
45.5
 10
40.35971721076579
 20
45.48822407781232
 10
40.71789405721029
 20
45.452946737555955
 10
41.072996771088704
 20
45.39431904221777
 10
41.42350474806386
 20
45.31259204458988
 10
41.76791705916739
 20
45.20811571222308
 10
42.10475887800799
 20
45.08133742881208
 10
42.43258779620451
 20
44.932800078429786
 10
42.75
 20
44.763139720814415
 10
43.05563628160781
 20
44.573082867664
 10
43.34818785954796
 20
44.36344337160179
 10
43.62640198305038
 20
44.13511894113438
 10
43.889087296526014
 20
43.889087296526014
  0
LWPOLYLINE
  5
36
330
17
100
AcDbEntity
  8
PATH_RAY_1
100
AcDbPolyline
 90
5
 70
1
 10
46.717514421272206
 20
44.59619407771256
 10
44.59619407771256
 20
46.717514421272206
 10
64.36046153211178
 20
66.48178187567142
 10
65.45584412271572
 20
65.45584412271572
 10
66.48178187567142
 20
64.36046153211178
  0
LWPOLYLINE
  5
38
330
17
100
AcDbEntity
  8
PATH_RING_2
100
AcDbPolyline
 90
50
 70
1
 10
33.98959235991435
 20
46.01040764008565
 10
33.609361636428694
 20
45.60443942835059
 10
33.256496607524504
 20
45.174472146574125
 10
32.93250829542836
 20
44.722346980666615
 10
32.63878406783227
 20
44.25
 10
32.37658169697215
 20
43.75945386686151
 10
32.147023973654065
 20
43.252809175103266
 10
31.951093899291603
 20
42.732235455076875
 10
31.789630476542918
 20
42.19996188337143
 10
31.66332511657254
 20
41.65826773713709
 10
31.572718678322612
 20
41.10947263387044
 10
31.518199152471873
 20
40.55592659845622
 10
31.5
 20
40.0
 10
31.518199152471873
 20
39.44407340154378
 10
31.57271867832261
 20
38.89052736612956
 10
31.66332511657254
 20
38.34173226286291
 10
31.789630476542918
 20
37.80003811662857
 10
31.9510938992916
 20
37.267764544923125
 10
32.147023973654065
 20
36.74719082489674
 10
32.37658169697215
 20
36.240546133138494
 10
32.63878406783227
 20
35.75
 10
32.93250829542836
 20
35.27765301933338
 10
33.256496607524504
 20
34.825527853425875
 10
33.60936163642869
 20
34.39556057164941
 10
33.98959235991435
 20
33.98959235991435
 10
36.110912703473986
 20
36.110912703473986
 10
35.86488105886562
 20
36.37359801694962
 10
35.63655662839821
 20
36.65181214045204
 10
35.426917132336
 20
36.94436371839219
 10
35.236860279185585
 20
37.25
 10
35.067199921570214
 20
37.56741220379549
 10
34.91866257118792
 20
37.89524112199201
 10
34.79188428777692
 20
38.23208294083261
 10
34.68740795541012
 20
38.57649525193614
 10
34.60568095778223
 20
38.927003228911296
 10
34.547053262444045
 20
39.28210594278972
 10
34.51177592218768
 20
39.64028278923421
 10
34.5
 20
40.0
 10
34.51177592218768
 20
40.35971721076579
 10
34.547053262444045
 20
40.71789405721028
 10
34.60568095778223
 20
41.072996771088704
 10
34.68740795541012
 20
41.42350474806386
 10
34.79188428777692
 20
41.76791705916739
 10
34.91866257118792
 20
42.10475887800799
 10
35.067199921570214
 20
42.43258779620451
 10
35.236860279185585
 20
42.75
 10
35.426917132336
 20
43.05563628160781
 10
35.63655662839821
 20
43.34818785954796
 10
35.86488105886563
 20
43.62640198305038
 10
36.110912703473986
 20
43.889087296526014
  0
LWPOLYLINE
  5
3A
330
17
100
AcDbEntity
  8
PATH_RAY_2
100
AcDbPolyline
 90
5
 70
1
 10
35.40380592228744
 20
46.717514421272206
 10
33.282485578727794
 20
44.59619407771256
 10
13.51821812432858
 20
64.36046153211178
 10
14.54415587728429
 20
65.45584412271572
 10
15.63953846788822
 20
66.48178187567142
  0
LWPOLYLINE
  5
3C
330
17
100
AcDbEntity
  8
PATH_RING_3
100
AcDbPolyline
 90
50
 70
1
 10
33.98959235991435
 20
33.98959235991435
 10
34.39556057164941
 20
33.609361636428694
 10
34.825527853425875
 20
33.256496607524504
 10
35.277653019333385
 20
32.93250829542836
 10
35.75
 20
32.638784067832276
 10
36.24054613313849
 20
32.37658169697215
 10
36.74719082489674
 20
32.147023973654065
 10
37.267764544923125
 20
31.951093899291603
 10
37.80003811662858
 20
31.789630476542918
 10
38.341732262862905
 20
31.663325116572544
 10
38.89052736612956
 20
31.572718678322612
 10
39.44407340154379
 20
31.518199152471873
 10
40.0
 20
31.5
 10
40.55592659845622
 20
31.518199152471873
 10
41.10947263387044
 20
31.57271867832261
 10
41.65826773713709
 20
31.66332511657254
 10
42.19996188337142
 20
31.789630476542918
 10
42.732235455076875
 20
31.9510938992916
 10
43.252809175103266
 20
32.147023973654065
 10
43.759453866861506
 20
32.376581696972146
 10
44.25
 20
32.63878406783227
 10
44.722346980666615
 20
32.93250829542836
 10
45.174472146574125
 20
33.256496607524504
 10
45.60443942835059
 20
33.609361636428694
 10
46.01040764008565
 20
33.98959235991435
 10
43.88908729652601
 20
36.110912703473986
 10
43.62640198305038
 20
35.86488105886563
 10
43.34818785954796
 20
35.63655662839821
 10
43.05563628160781
 20
35.426917132336
 10
42.75
 20
35.236860279185585
 10
42.43258779620451
 20
35.067199921570214
 10
42.10475887800799
 20
34.91866257118792
 10
41.76791705916739
 20
34.79188428777692
 10
41.42350474806386
 20
34.68740795541012
 10
41.072996771088704
 20
34.60568095778223
 10
40.71789405721028
 20
34.547053262444045
 10
40.35971721076579
 20
34.51177592218768
 10
40.0
 20
34.5
 10
39.64028278923421
 20
34.51177592218768
 10
39.28210594278971
 20
34.547053262444045
 10
38.92700322891129
 20
34.60568095778223
 10
38.57649525193614
 20
34.68740795541012
 10
38.23208294083261
 20
34.79188428777692
 10
37.89524112199201
 20
34.91866257118792
 10
37.56741220379549
 20
35.067199921570214
 10
37.25
 20
35.23686027918559
 10
36.94436371839219
 20
35.426917132336
 10
36.65181214045204
 20
35.63655662839821
 10
36.37359801694962
 20
35.86488105886563
 10
36.110912703473986
 20
36.110912703473986
  0
LWPOLYLINE
  5
3E
330
17
100
AcDbEntity
  8
PATH_RAY_3
100
AcDbPolyline
 90
5
 70
1
 10
33.282485578727794
 20
35.40380592228744
 10
35.40380592228744
 20
33.282485578727794
 10
15.639538467888219
 20
13.518218124328584
 10
14.544155877284275
 20
14.544155877284304
 10
13.518218124328577
 20
15.639538467888224
  0
LWPOLYLINE
  5
40
330
17
100
AcDbEntity
  8
PATH_RING_4
100
AcDbPolyline
 90
50
 70
1
 10
46.01040764008565
 20
33.98959235991435
 10
46.39063836357131
 20
34.39556057164941
 10
46.743503392475496
 20
34.825527853425875
 10
47.06749170457164
 20
35.277653019333385
 10
47.361215932167724
 20
35.75
 10
47.62341830302785
 20
36.24054613313849
 10
47.852976026345935
 20
36.74719082489674
 10
48.04890610070839
 20
37.267764544923125
 10
48.21036952345708
 20
37.80003811662857
 10
48.336674883427456
 20
38.341732262862905
 10
48.427281321677384
 20
38.89052736612956
 10
48.48180084752813
 20
39.44407340154379
 10
48.5
 20
40.0
 10
48.48180084752813
 20
40.55592659845622
 10
48.42728132167739
 20
41.10947263387043
 10
48.33667488342746
 20
41.65826773713709
 10
48.21036952345708
 20
42.19996188337142
 10
48.0489061007084
 20
42.732235455076875
 10
47.852976026345935
 20
43.252809175103266
 10
47.623418303027854
 20
43.759453866861506
 10
47.36121593216773
 20
44.25
 10
47.06749170457164
 20
44.722346980666615
 10
46.7435033924755
 20
45.174472146574125
 10
46.390638363571306
 20
45.60443942835059
 10
46.01040764008565
 20
46.01040764008565
 10
43.889087296526014
 20
43.88908729652601
 10
44.13511894113437
 20
43.62640198305038
 10
44.3634433716018
 20
43.34818785954796
 10
44.573082867664
 20
43.05563628160781
 10
44.763139720814415
 20
42.75
 10
44.932800078429786
 20
42.43258779620451
 10
45.08133742881208
 20
42.10475887800799
 10
45.20811571222308
 20
41.76791705916739
 10
45.31259204458988
 20
41.42350474806386
 10
45.39431904221777
 20
41.072996771088704
 10
45.452946737555955
 20
40.71789405721028
 10
45.48822407781232
 20
40.35971721076579
 10
45.5
 20
40.0
 10
45.48822407781232
 20
39.64028278923421
 10
45.452946737555955
 20
39.28210594278971
 10
45.39431904221777
 20
38.92700322891129
 10
45.31259204458988
 20
38.57649525193614
 10
45.20811571222308
 20
38.23208294083261
 10
45.08133742881208
 20
37.89524112199201
 10
44.932800078429786
 20
37.56741220379549
 10
44.76313972081441
 20
37.25
 10
44.573082867664
 20
36.94436371839219
 10
44.36344337160179
 20
36.65181214045204
 10
44.13511894113438
 20
36.37359801694962
 10
43.88908729652601
 20
36.110912703473986
  0
LWPOLYLINE
  5
42
330
17
100
AcDbEntity
  8
PATH_RAY_4
100
AcDbPolyline
 90
5
 70
1
 10
44.59619407771255
 20
33.282485578727794
 10
46.7175144212722
 20
35.40380592228744
 10
66.48178187567142
 20
15.639538467888215
 10
65.4558441227157
 20
14.544155877284282
 10
64.36046153211177
 20
13.51821812432858
  0
LWPOLYLINE
  5
44
330
17
100
AcDbEntity
  8
WATER_SUPPLY
100
AcDbPolyline
 90
6
 70
1
 10
63.08605245663303
 20
12.4
 10
61.91541144431392
 20
11.439279749515514
 10
61.02329758705463
 20
10.8
 10
18.97670241294538
 20
10.8
 10
18.084588555686047
 20
11.439279749515542
 10
16.91394754336697
 20
12.4
  0
LWPOLYLINE
  5
46
330
17
100
AcDbEntity
  8
CURB
100
AcDbPolyline
 90
49
 70
0
 10
45.0
 20
40.0
 10
44.95722430686905
 20
40.65263096110026
 10
44.829629131445344
 20
41.294095225512606
 10
44.61939766255644
 20
41.91341716182545
 10
44.33012701892219
 20
42.5
 10
43.96676670145617
 20
43.0438071450436
 10
43.53553390593274
 20
43.53553390593274
 10
43.0438071450436
 20
43.96676670145617
 10
42.5
 20
44.33012701892219
 10
41.91341716182545
 20
44.61939766255644
 10
41.294095225512606
 20
44.829629131445344
 10
40.65263096110026
 20
44.95722430686905
 10
40.0
 20
45.0
 10
39.34736903889974
 20
44.95722430686905
 10
38.705904774487394
 20
44.829629131445344
 10
38.08658283817455
 20
44.61939766255644
 10
37.5
 20
44.33012701892219
 10
36.9561928549564
 20
43.96676670145617
 10
36.46446609406726
 20
43.53553390593274
 10
36.03323329854383
 20
43.0438071450436
 10
35.66987298107781
 20
42.5
 10
35.38060233744356
 20
41.91341716182545
 10
35.170370868554656
 20
41.294095225512606
 10
35.04277569313095
 20
40.65263096110026
 10
35.0
 20
40.0
 10
35.04277569313095
 20
39.34736903889974
 10
35.170370868554656
 20
38.705904774487394
 10
35.38060233744356
 20
38.08658283817455
 10
35.6698729810778
 20
37.5
 10
36.03323329854383
 20
36.9561928549564
 10
36.46446609406726
 20
36.46446609406726
 10
36.9561928549564
 20
36.03323329854383
 10
37.5
 20
35.66987298107781
 10
38.08658283817455
 20
35.38060233744356
 10
38.705904774487394
 20
35.170370868554656
 10
39.34736903889974
 20
35.04277569313095
 10
40.0
 20
35.0
 10
40.65263096110026
 20
35.04277569313095
 10
41.2940952255126
 20
35.170370868554656
 10
41.91341716182544
 20
35.38060233744356
 10
42.5
 20
35.66987298107781
 10
43.0438071450436
 20
36.03323329854382
 10
43.53553390593274
 20
36.46446609406726
 10
43.96676670145617
 20
36.9561928549564
 10
44.33012701892219
 20
37.5
 10
44.61939766255644
 20
38.08658283817455
 10
44.829629131445344
 20
38.705904774487394
 10
44.95722430686905
 20
39.34736903889974
 10
45.0
 20
40.0
  0
POINT
  5
48
330
17
100
AcDbEntity
  8
ГОРТЕНЗИЯ МЕТЕЛЬЧАТАЯ
100
AcDbPoint
 10
41.2
 20
40.0
 30
0.0
  0
POINT
  5
49
330
17
100
AcDbEntity
  8
ГОРТЕНЗИЯ МЕТЕЛЬЧАТАЯ
100
AcDbPoint
 10
40.370820393249936
 20
41.14126781955419
 30
0.0
  0
POINT
  5
4A
330
17
100
AcDbEntity
  8
ГОРТЕНЗИЯ МЕТЕЛЬЧАТАЯ
100
AcDbPoint
 10
39.02917960675006
 20
40.70534230275097
 30
0.0
  0
POINT
  5
4B
330
17
100
AcDbEntity
  8
ГОРТЕНЗИЯ МЕТЕЛЬЧАТАЯ
100
AcDbPoint
 10
39.02917960675006
 20
39.29465769724903
 30
0.0
  0
POINT
  5
4C
330
17
100
AcDbEntity
  8
ГОРТЕНЗИЯ МЕТЕЛЬЧАТАЯ
100
AcDbPoint
 10
40.370820393249936
 20
38.85873218044581
 30
0.0
  0
POINT
  5
4E
330
17
100
AcDbEntity
  8
СПИРЕЯ ЯПОНСКАЯ
100
AcDbPoint
 10
42.6
 20
40.0
 30
0.0
  0
POINT
  5
4F
330
17
100
AcDbEntity
  8
СПИРЕЯ ЯПОНСКАЯ
100
AcDbPoint
 10
42.10344418537486
 20
41.52824165596043
 30
0.0
  0
POINT
  5
50
330
17
100
AcDbEntity
  8
СПИРЕЯ ЯПОНСКАЯ
100
AcDbPoint
 10
40.803444185374865
 20
42.4727469423674
 30
0.0
  0
POINT
  5
51
330
17
100
AcDbEntity
  8
СПИРЕЯ ЯПОНСКАЯ
100
AcDbPoint
 10
39.196555814625135
 20
42.4727469423674
 30
0.0
  0
POINT
  5
52
330
17
100
AcDbEntity
  8
СПИРЕЯ ЯПОНСКАЯ
100
AcDbPoint
 10
37.89655581462514
 20
41.52824165596043
 30
0.0
  0
POINT
  5
53
330
17
100
AcDbEntity
  8
СПИРЕЯ ЯПОНСКАЯ
100
AcDbPoint
 10
37.4
 20
40.0
 30
0.0
  0
POINT
  5
54
330
17
100
AcDbEntity
  8
СПИРЕЯ ЯПОНСКАЯ
100
AcDbPoint
 10
37.89655581462514
 20
38.47175834403957
 30
0.0
  0
POINT
  5
55
330
17
100
AcDbEntity
  8
СПИРЕЯ ЯПОНСКАЯ
100
AcDbPoint
 10
39.196555814625135
 20
37.5272530576326
 30
0.0
  0
POINT
  5
56
330
17
100
AcDbEntity
  8
СПИРЕЯ ЯПОНСКАЯ
100
AcDbPoint
 10
40.803444185374865
 20
37.5272530576326
 30
0.0
  0
POINT
  5
57
330
17
100
AcDbEntity
  8
СПИРЕЯ ЯПОНСКАЯ
100
AcDbPoint
 10
42.10344418537486
 20
38.47175834403957
 30
0.0
  0
POINT
  5
59
330
17
100
AcDbEntity
  8
СПИРЕЯ БУМАЛЬДА
100
AcDbPoint
 10
44.0
 20
40.0
 30
0.0
  0
POINT
  5
5A
330
17
100
AcDbEntity
  8
СПИРЕЯ БУМАЛЬДА
100
AcDbPoint
 10
43.695518130045144
 20
41.53073372946036
 30
0.0
  0
POINT
  5
5B
330
17
100
AcDbEntity
  8
СПИРЕЯ БУМАЛЬДА
100
AcDbPoint
 10
42.82842712474619
 20
42.82842712474619
 30
0.0
  0
POINT
  5
5C
330
17
100
AcDbEntity
  8
СПИРЕЯ БУМАЛЬДА
100
AcDbPoint
 10
41.53073372946036
 20
43.695518130045144
 30
0.0
  0
POINT
  5
5D
330
17
100
AcDbEntity
  8
СПИРЕЯ БУМАЛЬДА
100
AcDbPoint
 10
40.0
 20
44.0
 30
0.0
  0
POINT
  5
5E
330
17
100
AcDbEntity
  8
СПИРЕЯ БУМАЛЬДА
100
AcDbPoint
 10
38.46926627053964
 20
43.695518130045144
 30
0.0
  0
POINT
  5
5F
330
17
100
AcDbEntity
  8
СПИРЕЯ БУМАЛЬДА
100
AcDbPoint
 10
37.17157287525381
 20
42.82842712474619
 30
0.0
  0
POINT
  5
60
330
17
100
AcDbEntity
  8
СПИРЕЯ БУМАЛЬДА
100
AcDbPoint
 10
36.304481869954856
 20
41.53073372946036
 30
0.0
  0
POINT
  5
61
330
17
100
AcDbEntity
  8
СПИРЕЯ БУМАЛЬДА
100
AcDbPoint
 10
36.0
 20
40.0
 30
0.0
  0
POINT
  5
62
330
17
100
AcDbEntity
  8
СПИРЕЯ БУМАЛЬДА
100
AcDbPoint
 10
36.304481869954856
 20
38.46926627053964
 30
0.0
  0
POINT
  5
63
330
17
100
AcDbEntity
  8
СПИРЕЯ БУМАЛЬДА
100
AcDbPoint
 10
37.17157287525381
 20
37.17157287525381
 30
0.0
  0
POINT
  5
64
330
17
100
AcDbEntity
  8
СПИРЕЯ БУМАЛЬДА
100
AcDbPoint
 10
38.46926627053964
 20
36.304481869954856
 30
0.0
  0
POINT
  5
65
330
17
100
AcDbEntity
  8
СПИРЕЯ БУМАЛЬДА
100
AcDbPoint
 10
40.0
 20
36.0
 30
0.0
  0
POINT
  5
66
330
17
100
AcDbEntity
  8
СПИРЕЯ БУМАЛЬДА
100
AcDbPoint
 10
41.53073372946036
 20
36.304481869954856
 30
0.0
  0
POINT
  5
67
330
17
100
AcDbEntity
  8
СПИРЕЯ БУМАЛЬДА
100
AcDbPoint
 10
42.82842712474619
 20
37.17157287525381
 30
0.0
  0
POINT
  5
68
330
17
100
AcDbEntity
  8
СПИРЕЯ БУМАЛЬДА
100
AcDbPoint
 10
43.695518130045144
 20
38.46926627053964
 30
0.0
  0
POINT
  5
6A
330
17
100
AcDbEntity
  8
ЯБЛОНЯ НЕДЗВЕДЦКОГО
100
AcDbPoint
 10
46.8098574960932
 20
53.36509786282552
 30
0.0
  0
POINT
  5
6C
330
17
100
AcDbEntity
  8
ЧЕРЕМУХА МААКА
100
AcDbPoint
 10
42.346516975603464
 20
54.81532510892707
 30
0.0
  0
POINT
  5
6D
330
17
100
AcDbEntity
  8
ЯБЛОНЯ НЕДЗВЕДЦКОГО
100
AcDbPoint
 10
37.653483024396536
 20
54.81532510892707
 30
0.0
  0
POINT
  5
6E
330
17
100
AcDbEntity
  8
ЧЕРЕМУХА МААКА
100
AcDbPoint
 10
33.1901425039068
 20
53.36509786282552
 30
0.0
  0
POINT
  5
70
330
17
100
AcDbEntity
  8
СПИРЕЯ ВАНГУТТА
100
AcDbPoint
 10
51.75831694519644
 20
56.79261690792433
 30
0.0
  0
POINT
  5
71
330
17
100
AcDbEntity
  8
СПИРЕЯ ВАНГУТТА
100
AcDbPoint
 10
49.624167037110766
 20
58.100425653608
 30
0.0
  0
POINT
  5
72
330
17
100
AcDbEntity
  8
СПИРЕЯ ВАНГУТТА
100
AcDbPoint
 10
47.34654296567866
 20
59.13839874319264
 30
0.0
  0
POINT
  5
73
330
17
100
AcDbEntity
  8
СПИРЕЯ ВАНГУТТА
100
AcDbPoint
 10
44.95939885979319
 20
59.89106238865793
 30
0.0
  0
POINT
  5
74
330
17
100
AcDbEntity
  8
СПИРЕЯ ВАНГУТТА
100
AcDbPoint
 10
42.498321539805524
 20
60.3471961086471
 30
0.0
  0
POINT
  5
75
330
17
100
AcDbEntity
  8
СПИРЕЯ ВАНГУТТА
100
AcDbPoint
 10
40.0
 20
60.5
 30
0.0
  0
POINT
  5
76
330
17
100
AcDbEntity
  8
СПИРЕЯ ВАНГУТТА
100
AcDbPoint
 10
37.501678460194476
 20
60.347196108647104
 30
0.0
  0
POINT
  5
77
330
17
100
AcDbEntity
  8
СПИРЕЯ ВАНГУТТА
100
AcDbPoint
 10
35.04060114020681
 20
59.89106238865793
 30
0.0
  0
POINT
  5
78
330
17
100
AcDbEntity
  8
СПИРЕЯ ВАНГУТТА
100
AcDbPoint
 10
32.65345703432134
 20
59.13839874319264
 30
0.0
  0
POINT
  5
79
330
17
100
AcDbEntity
  8
СПИРЕЯ ВАНГУТТА
100
AcDbPoint
 10
30.375832962889234
 20
58.100425653608
 30
0.0
  0
POINT
  5
7A
330
17
100
AcDbEntity
  8
СПИРЕЯ ВАНГУТТА
100
AcDbPoint
 10
28.241683054803552
 20
56.79261690792433
 30
0.0
  0
POINT
  5
7C
330
17
100
AcDbEntity
  8
ЛИПА МЕЛКОЛИСТНАЯ
100
AcDbPoint
 10
53.5
 20
63.382685902179844
 30
0.0
  0
POINT
  5
7E
330
17
100
AcDbEntity
  8
КЛЕН ОСТРОЛИСТНЫЙ
100
AcDbPoint
 10
48.34345884812358
 20
65.67852593996915
 30
0.0
  0
POINT
  5
7F
330
17
100
AcDbEntity
  8
ЛИПА МЕЛКОЛИСТНАЯ
100
AcDbPoint
 10
42.82226850822664
 20
66.85209117494338
 30
0.0
  0
POINT
  5
80
330
17
100
AcDbEntity
  8
КЛЕН ОСТРОЛИСТНЫЙ
100
AcDbPoint
 10
37.17773149177336
 20
66.85209117494338
 30
0.0
  0
POINT
  5
81
330
17
100
AcDbEntity
  8
ЛИПА МЕЛКОЛИСТНАЯ
100
AcDbPoint
 10
31.65654115187642
 20
65.67852593996915
 30
0.0
  0
POINT
  5
82
330
17
100
AcDbEntity
  8
КЛЕН ОСТРОЛИСТНЫЙ
100
AcDbPoint
 10
26.500000000000007
 20
63.382685902179844
 30
0.0
  0
POINT
  5
84
330
17
100
AcDbEntity
  8
КИЗИЛЬНИК БЛЕСТЯЩИЙ
100
AcDbPoint
 10
61.40482740256176
 20
65.50927995586197
 30
0.0
  0
POINT
  5
85
330
17
100
AcDbEntity
  8
КИЗИЛЬНИК БЛЕСТЯЩИЙ
100
AcDbPoint
 10
60.36385043818818
 20
66.34774364781742
 30
0.0
  0
POINT
  5
86
330
17
100
AcDbEntity
  8
КИЗИЛЬНИК БЛЕСТЯЩИЙ
100
AcDbPoint
 10
59.29006303901121
 20
67.14375559776084
 30
0.0
  0
POINT
  5
87
330
17
100
AcDbEntity
  8
КИЗИЛЬНИК БЛЕСТЯЩИЙ
100
AcDbPoint
 10
58.185195301780496
 20
67.89603326346061
 30
0.0
  0
POINT
  5
88
330
17
100
AcDbEntity
  8
КИЗИЛЬНИК БЛЕСТЯЩИЙ
100
AcDbPoint
 10
57.05102740019004
 20
68.60336456779112
 30
0.0
  0
POINT
  5
89
330
17
100
AcDbEntity
  8
КИЗИЛЬНИК БЛЕСТЯЩИЙ
100
AcDbPoint
 10
55.889386716644964
 20
69.26460985164344
 30
0.0
  0
POINT
  5
8A
330
17
100
AcDbEntity
  8
КИЗИЛЬНИК БЛЕСТЯЩИЙ
100
AcDbPoint
 10
54.70214489796512
 20
69.87870371015514
 30
0.0
  0
POINT
  5
8B
330
17
100
AcDbEntity
  8
КИЗИЛЬНИК БЛЕСТЯЩИЙ
100
AcDbPoint
 10
53.491214839769434
 20
70.44465670930097
 30
0.0
  0
POINT
  5
8C
330
17
100
AcDbEntity
  8
КИЗИЛЬНИК БЛЕСТЯЩИЙ
100
AcDbPoint
 10
52.25854760439979
 20
70.96155698007877
 30
0.0
  0
POINT
  5
8D
330
17
100
AcDbEntity
  8
КИЗИЛЬНИК БЛЕСТЯЩИЙ
100
AcDbPoint
 10
51.00612927735034
 20
71.42857168772153
 30
0.0
  0
POINT
  5
8E
330
17
100
AcDbEntity
  8
КИЗИЛЬНИК БЛЕСТЯЩИЙ
100
AcDbPoint
 10
49.735977767267144
 20
71.84494837356908
 30
0.0
  0
POINT
  5
8F
330
17
100
AcDbEntity
  8
КИЗИЛЬНИК БЛЕСТЯЩИЙ
100
AcDbPoint
 10
48.450139554674045
 20
72.21001616743669
 30
0.0
  0
POINT
  5
90
330
17
100
AcDbEntity
  8
КИЗИЛЬНИК БЛЕСТЯЩИЙ
100
AcDbPoint
 10
47.150686394663225
 20
72.52318686852779
 30
0.0
  0
POINT
  5
91
330
17
100
AcDbEntity
  8
КИЗИЛЬНИК БЛЕСТЯЩИЙ
100
AcDbPoint
 10
45.83971197886319
 20
72.78395589314873
 30
0.0
  0
POINT
  5
92
330
17
100
AcDbEntity
  8
КИЗИЛЬНИК БЛЕСТЯЩИЙ
100
AcDbPoint
 10
44.519328562062356
 20
72.99190308769906
 30
0.0
  0
POINT
  5
93
330
17
100
AcDbEntity
  8
КИЗИЛЬНИК БЛЕСТЯЩИЙ
100
AcDbPoint
 10
43.19166355892348
 20
73.14669340562705
 30
0.0
  0
POINT
  5
94
330
17
100
AcDbEntity
  8
КИЗИЛЬНИК БЛЕСТЯЩИЙ
100
AcDbPoint
 10
41.85885611627238
 20
73.24807744725996
 30
0.0
  0
POINT
  5
95
330
17
100
AcDbEntity
  8
КИЗИЛЬНИК БЛЕСТЯЩИЙ
100
AcDbPoint
 10
40.523053666483655
 20
73.29589186163929
 30
0.0
  0
POINT
  5
96
330
17
100
AcDbEntity
  8
КИЗИЛЬНИК БЛЕСТЯЩИЙ
100
AcDbPoint
 10
39.18640846751668
 20
73.2900596097134
 30
0.0
  0
POINT
  5
97
330
17
100
AcDbEntity
  8
КИЗИЛЬНИК БЛЕСТЯЩИЙ
100
AcDbPoint
 10
37.85107413517653
 20
73.23059008846356
 30
0.0
  0
POINT
  5
98
330
17
100
AcDbEntity
  8
КИЗИЛЬНИК БЛЕСТЯЩИЙ
100
AcDbPoint
 10
36.519202173187175
 20
73.1175791157635
 30
0.0
  0
POINT
  5
99
330
17
100
AcDbEntity
  8
КИЗИЛЬНИК БЛЕСТЯЩИЙ
100
AcDbPoint
 10
35.19293850666763
 20
72.95120877599669
 30
0.0
  0
POINT
  5
9A
330
17
100
AcDbEntity
  8
КИЗИЛЬНИК БЛЕСТЯЩИЙ
100
AcDbPoint
 10
33.87442002459646
 20
72.73174712668016
 30
0.0
  0
POINT
  5
9B
330
17
100
AcDbEntity
  8
КИЗИЛЬНИК БЛЕСТЯЩИЙ
100
AcDbPoint
 10
32.56577113683536
 20
72.4595477665677
 30
0.0
  0
POINT
  5
9C
330
17
100
AcDbEntity
  8
КИЗИЛЬНИК БЛЕСТЯЩИЙ
100
AcDbPoint
 10
31.269100351259247
 20
72.13504926592798
 30
0.0
  0
POINT
  5
9D
330
17
100
AcDbEntity
  8
КИЗИЛЬНИК БЛЕСТЯЩИЙ
100
AcDbPoint
 10
29.986496876507747
 20
71.75877445991597
 30
0.0
  0
POINT
  5
9E
330
17
100
AcDbEntity
  8
КИЗИЛЬНИК БЛЕСТЯЩИЙ
100
AcDbPoint
 10
28.72002725583184
 20
71.33132960617573
 30
0.0
  0
POINT
  5
9F
330
17
100
AcDbEntity
  8
КИЗИЛЬНИК БЛЕСТЯЩИЙ
100
AcDbPoint
 10
27.47173203745917
 20
70.8534034080322
 30
0.0
  0
POINT
  5
A0
330
17
100
AcDbEntity
  8
КИЗИЛЬНИК БЛЕСТЯЩИЙ
100
AcDbPoint
 10
26.243622486842803
 20
70.32576590484571
 30
0.0
  0
POINT
  5
A1
330
17
100
AcDbEntity
  8
КИЗИЛЬНИК БЛЕСТЯЩИЙ
100
AcDbPoint
 10
25.03767734609069
 20
69.749267231317
 30
0.0
  0
POINT
  5
A2
330
17
100
AcDbEntity
  8
КИЗИЛЬНИК БЛЕСТЯЩИЙ
100
AcDbPoint
 10
23.85583964579702
 20
69.1248362477419
 30
0.0
  0
POINT
  5
A3
330
17
100
AcDbEntity
  8
КИЗИЛЬНИК БЛЕСТЯЩИЙ
100
AcDbPoint
 10
22.700013574412388
 20
68.45347904342252
 30
0.0
  0
POINT
  5
A4
330
17
100
AcDbEntity
  8
КИЗИЛЬНИК БЛЕСТЯЩИЙ
100
AcDbPoint
 10
21.572061410196685
 20
67.73627731564633
 30
0.0
  0
POINT
  5
A5
330
17
100
AcDbEntity
  8
КИЗИЛЬНИК БЛЕСТЯЩИЙ
100
AcDbPoint
 10
20.473800520698266
 20
66.97438662684505
 30
0.0
  0
POINT
  5
A6
330
17
100
AcDbEntity
  8
КИЗИЛЬНИК БЛЕСТЯЩИЙ
100
AcDbPoint
 10
19.407000434593492
 20
66.16903454274092
 30
0.0
  0
POINT
  5
A7
330
17
100
AcDbEntity
  8
ЯБЛОНЯ НЕДЗВЕДЦКОГО
100
AcDbPoint
 10
26.634902137174485
 20
46.8098574960932
 30
0.0
  0
POINT
  5
A8
330
17
100
AcDbEntity
  8
ЧЕРЕМУХА МААКА
100
AcDbPoint
 10
25.184674891072937
 20
42.346516975603464
 30
0.0
  0
POINT
  5
A9
330
17
100
AcDbEntity
  8
ЯБЛОНЯ НЕДЗВЕДЦКОГО
100
AcDbPoint
 10
25.184674891072934
 20
37.653483024396536
 30
0.0
  0
POINT
  5
AA
330
17
100
AcDbEntity
  8
ЧЕРЕМУХА МААКА
100
AcDbPoint
 10
26.634902137174482
 20
33.1901425039068
 30
0.0
  0
POINT
  5
AB
330
17
100
AcDbEntity
  8
СПИРЕЯ ВАНГУТТА
100
AcDbPoint
 10
23.207383092075666
 20
51.75831694519644
 30
0.0
  0
POINT
  5
AC
330
17
100
AcDbEntity
  8
СПИРЕЯ ВАНГУТТА
100
AcDbPoint
 10
21.899574346391997
 20
49.62416703711076
 30
0.0
  0
POINT
  5
AD
330
17
100
AcDbEntity
  8
СПИРЕЯ ВАНГУТТА
100
AcDbPoint
 10
20.861601256807365
 20
47.34654296567865
 30
0.0
  0
POINT
  5
AE
330
17
100
AcDbEntity
  8
СПИРЕЯ ВАНГУТТА
100
AcDbPoint
 10
20.10893761134207
 20
44.95939885979319
 30
0.0
  0
POINT
  5
AF
330
17
100
AcDbEntity
  8
СПИРЕЯ ВАНГУТТА
100
AcDbPoint
 10
19.6528038913529
 20
42.498321539805524
 30
0.0
  0
POINT
  5
B0
330
17
100
AcDbEntity
  8
СПИРЕЯ ВАНГУТТА
100
AcDbPoint
 10
19.5
 20
40.0
 30
0.0
  0
POINT
  5
B1
330
17
100
AcDbEntity
  8
СПИРЕЯ ВАНГУТТА
100
AcDbPoint
 10
19.652803891352896
 20
37.50167846019448
 30
0.0
  0
POINT
  5
B2
330
17
100
AcDbEntity
  8
СПИРЕЯ ВАНГУТТА
100
AcDbPoint
 10
20.10893761134207
 20
35.04060114020682
 30
0.0
  0
POINT
  5
B3
330
17
100
AcDbEntity
  8
СПИРЕЯ ВАНГУТТА
100
AcDbPoint
 10
20.861601256807365
 20
32.65345703432134
 30
0.0
  0
POINT
  5
B4
330
17
100
AcDbEntity
  8
СПИРЕЯ ВАНГУТТА
100
AcDbPoint
 10
21.899574346392
 20
30.375832962889238
 30
0.0
  0
POINT
  5
B5
330
17
100
AcDbEntity
  8
СПИРЕЯ ВАНГУТТА
100
AcDbPoint
 10
23.20738309207567
 20
28.241683054803552
 30
0.0
  0
POINT
  5
B6
330
17
100
AcDbEntity
  8
ЛИПА МЕЛКОЛИСТНАЯ
100
AcDbPoint
 10
16.617314097820156
 20
53.5
 30
0.0
  0
POINT
  5
B7
330
17
100
AcDbEntity
  8
КЛЕН ОСТРОЛИСТНЫЙ
100
AcDbPoint
 10
14.321474060030855
 20
48.34345884812358
 30
0.0
  0
POINT
  5
B8
330
17
100
AcDbEntity
  8
ЛИПА МЕЛКОЛИСТНАЯ
100
AcDbPoint
 10
13.147908825056621
 20
42.82226850822665
 30
0.0
  0
POINT
  5
B9
330
17
100
AcDbEntity
  8
КЛЕН ОСТРОЛИСТНЫЙ
100
AcDbPoint
 10
13.147908825056621
 20
37.17773149177336
 30
0.0
  0
POINT
  5
BA
330
17
100
AcDbEntity
  8
ЛИПА МЕЛКОЛИСТНАЯ
100
AcDbPoint
 10
14.321474060030852
 20
31.656541151876425
 30
0.0
  0
POINT
  5
BB
330
17
100
AcDbEntity
  8
КЛЕН ОСТРОЛИСТНЫЙ
100
AcDbPoint
 10
16.61731409782016
 20
26.499999999999996
 30
0.0
  0
POINT
  5
BC
330
17
100
AcDbEntity
  8
КИЗИЛЬНИК БЛЕСТЯЩИЙ
100
AcDbPoint
 10
14.490720044138037
 20
61.404827402561764
 30
0.0
  0
POINT
  5
BD
330
17
100
AcDbEntity
  8
КИЗИЛЬНИК БЛЕСТЯЩИЙ
100
AcDbPoint
 10
13.652256352182583
 20
60.36385043818818
 30
0.0
  0
POINT
  5
BE
330
17
100
AcDbEntity
  8
КИЗИЛЬНИК БЛЕСТЯЩИЙ
100
AcDbPoint
 10
12.856244402239145
 20
59.2900630390112
 30
0.0
  0
POINT
  5
BF
330
17
100
AcDbEntity
  8
КИЗИЛЬНИК БЛЕСТЯЩИЙ
100
AcDbPoint
 10
12.103966736539377
 20
58.18519530178047
 30
0.0
  0
POINT
  5
C0
330
17
100
AcDbEntity
  8
КИЗИЛЬНИК БЛЕСТЯЩИЙ
100
AcDbPoint
 10
11.39663543220886
 20
57.05102740019
 30
0.0
  0
POINT
  5
C1
330
17
100
AcDbEntity
  8
КИЗИЛЬНИК БЛЕСТЯЩИЙ
100
AcDbPoint
 10
10.73539014835654
 20
55.88938671664493
 30
0.0
  0
POINT
  5
C2
330
17
100
AcDbEntity
  8
КИЗИЛЬНИК БЛЕСТЯЩИЙ
100
AcDbPoint
 10
10.12129628984485
 20
54.70214489796508
 30
0.0
  0
POINT
  5
C3
330
17
100
AcDbEntity
  8
КИЗИЛЬНИК БЛЕСТЯЩИЙ
100
AcDbPoint
 10
9.555343290699
 20
53.49121483976938
 30
0.0
  0
POINT
  5
C4
330
17
100
AcDbEntity
  8
КИЗИЛЬНИК БЛЕСТЯЩИЙ
100
AcDbPoint
 10
9.03844301992121
 20
52.25854760439972
 30
0.0
  0
POINT
  5
C5
330
17
100
AcDbEntity
  8
КИЗИЛЬНИК БЛЕСТЯЩИЙ
100
AcDbPoint
 10
8.571428312278446
 20
51.00612927735027
 30
0.0
  0
POINT
  5
C6
330
17
100
AcDbEntity
  8
КИЗИЛЬНИК БЛЕСТЯЩИЙ
100
AcDbPoint
 10
8.155051626430904
 20
49.73597776726707
 30
0.0
  0
POINT
  5
C7
330
17
100
AcDbEntity
  8
КИЗИЛЬНИК БЛЕСТЯЩИЙ
100
AcDbPoint
 10
7.789983832563287
 20
48.45013955467396
 30
0.0
  0
POINT
  5
C8
330
17
100
AcDbEntity
  8
КИЗИЛЬНИК БЛЕСТЯЩИЙ
100
AcDbPoint
 10
7.476813131472198
 20
47.15068639466313
 30
0.0
  0
POINT
  5
C9
330
17
100
AcDbEntity
  8
КИЗИЛЬНИК БЛЕСТЯЩИЙ
100
AcDbPoint
 10
7.21604410685125
 20
45.83971197886309
 30
0.0
  0
POINT
  5
CA
330
17
100
AcDbEntity
  8
КИЗИЛЬНИК БЛЕСТЯЩИЙ
100
AcDbPoint
 10
7.008096912300921
 20
44.51932856206225
 30
0.0
  0
POINT
  5
CB
330
17
100
AcDbEntity
  8
КИЗИЛЬНИК БЛЕСТЯЩИЙ
100
AcDbPoint
 10
6.853306594372938
 20
43.191663558923366
 30
0.0
  0
POINT
  5
CC
330
17
100
AcDbEntity
  8
КИЗИЛЬНИК БЛЕСТЯЩИЙ
100
AcDbPoint
 10
6.751922552740034
 20
41.85885611627226
 30
0.0
  0
POINT
  5
CD
330
17
100
AcDbEntity
  8
КИЗИЛЬНИК БЛЕСТЯЩИЙ
100
AcDbPoint
 10
6.704108138360702
 20
40.52305366648351
 30
0.0
  0
POINT
  5
CE
330
17
100
AcDbEntity
  8
КИЗИЛЬНИК БЛЕСТЯЩИЙ
100
AcDbPoint
 10
6.7099403902866115
 20
39.18640846751653
 30
0.0
  0
POINT
  5
CF
330
17
100
AcDbEntity
  8
КИЗИЛЬНИК БЛЕСТЯЩИЙ
100
AcDbPoint
 10
6.7694099115364565
 20
37.85107413517637
 30
0.0
  0
POINT
  5
D0
330
17
100
AcDbEntity
  8
КИЗИЛЬНИК БЛЕСТЯЩИЙ
100
AcDbPoint
 10
6.882420884236517
 20
36.519202173187004
 30
0.0
  0
POINT
  5
D1
330
17
100
AcDbEntity
  8
КИЗИЛЬНИК БЛЕСТЯЩИЙ
100
AcDbPoint
 10
7.048791224003338
 20
35.19293850666745
 30
0.0
  0
POINT
  5
D2
330
17
100
AcDbEntity
  8
КИЗИЛЬНИК БЛЕСТЯЩИЙ
100
AcDbPoint
 10
7.268252873319874
 20
33.874420024596276
 30
0.0
  0
POINT
  5
D3
330
17
100
AcDbEntity
  8
КИЗИЛЬНИК БЛЕСТЯЩИЙ
100
AcDbPoint
 10
7.5404522334323545
 20
32.565771136835174
 30
0.0
  0
POINT
  5
D4
330
17
100
AcDbEntity
  8
КИЗИЛЬНИК БЛЕСТЯЩИЙ
100
AcDbPoint
 10
7.864950734072075
 20
31.269100351259056
 30
0.0
  0
POINT
  5
D5
330
17
100
AcDbEntity
  8
КИЗИЛЬНИК БЛЕСТЯЩИЙ
100
AcDbPoint
 10
8.241225540084095
 20
29.98649687650755
 30
0.0
  0
POINT
  5
D6
330
17
100
AcDbEntity
  8
КИЗИЛЬНИК БЛЕСТЯЩИЙ
100
AcDbPoint
 10
8.66867039382435
 20
28.720027255831642
 30
0.0
  0
POINT
  5
D7
330
17
100
AcDbEntity
  8
КИЗИЛЬНИК БЛЕСТЯЩИЙ
100
AcDbPoint
 10
9.146596591967885
 20
27.471732037458967
 30
0.0
  0
POINT
  5
D8
330
17
100
AcDbEntity
  8
КИЗИЛЬНИК БЛЕСТЯЩИЙ
100
AcDbPoint
 10
9.674234095154379
 20
26.243622486842597
 30
0.0
  0
POINT
  5
D9
330
17
100
AcDbEntity
  8
КИЗИЛЬНИК БЛЕСТЯЩИЙ
100
AcDbPoint
 10
10.250732768683097
 20
25.037677346090483
 30
0.0
  0
POINT
  5
DA
330
17
100
AcDbEntity
  8
КИЗИЛЬНИК БЛЕСТЯЩИЙ
100
AcDbPoint
 10
10.875163752258214
 20
23.855839645796813
 30
0.0
  0
POINT
  5
DB
330
17
100
AcDbEntity
  8
КИЗИЛЬНИК БЛЕСТЯЩИЙ
100
AcDbPoint
 10
11.546520956577627
 20
22.70001357441216
 30
0.0
  0
POINT
  5
DC
330
17
100
AcDbEntity
  8
КИЗИЛЬНИК БЛЕСТЯЩИЙ
100
AcDbPoint
 10
12.263722684353809
 20
21.572061410196465
 30
0.0
  0
POINT
  5
DD
330
17
100
AcDbEntity
  8
КИЗИЛЬНИК БЛЕСТЯЩИЙ
100
AcDbPoint
 10
13.025613373155124
 20
20.47380052069804
 30
0.0
  0
POINT
  5
DE
330
17
100
AcDbEntity
  8
КИЗИЛЬНИК БЛЕСТЯЩИЙ
100
AcDbPoint
 10
13.83096545725926
 20
19.40700043459327
 30
0.0
  0
POINT
  5
DF
330
17
100
AcDbEntity
  8
ЯБЛОНЯ НЕДЗВЕДЦКОГО
100
AcDbPoint
 10
33.1901425039068
 20
26.634902137174485
 30
0.0
  0
POINT
  5
E0
330
17
100
AcDbEntity
  8
ЧЕРЕМУХА МААКА
100
AcDbPoint
 10
37.653483024396536
 20
25.184674891072937
 30
0.0
  0
POINT
  5
E1
330
17
100
AcDbEntity
  8
ЯБЛОНЯ НЕДЗВЕДЦКОГО
100
AcDbPoint
 10
42.34651697560346
 20
25.184674891072934
 30
0.0
  0
POINT
  5
E2
330
17
100
AcDbEntity
  8
ЧЕРЕМУХА МААКА
100
AcDbPoint
 10
46.8098574960932
 20
26.634902137174482
 30
0.0
  0
POINT
  5
E3
330
17
100
AcDbEntity
  8
СПИРЕЯ ВАНГУТТА
100
AcDbPoint
 10
28.24168305480355
 20
23.207383092075673
 30
0.0
  0
POINT
  5
E4
330
17
100
AcDbEntity
  8
СПИРЕЯ ВАНГУТТА
100
AcDbPoint
 10
30.37583296288924
 20
21.899574346391997
 30
0.0
  0
POINT
  5
E5
330
17
100
AcDbEntity
  8
СПИРЕЯ ВАНГУТТА
100
AcDbPoint
 10
32.653457034321335
 20
20.86160125680737
 30
0.0
  0
POINT
  5
E6
330
17
100
AcDbEntity
  8
СПИРЕЯ ВАНГУТТА
100
AcDbPoint
 10
35.04060114020681
 20
20.10893761134207
 30
0.0
  0
POINT
  5
E7
330
17
100
AcDbEntity
  8
СПИРЕЯ ВАНГУТТА
100
AcDbPoint
 10
37.50167846019448
 20
19.652803891352896
 30
0.0
  0
POINT
  5
E8
330
17
100
AcDbEntity
  8
СПИРЕЯ ВАНГУТТА
100
AcDbPoint
 10
39.99999999999999
 20
19.5
 30
0.0
  0
POINT
  5
E9
330
17
100
AcDbEntity
  8
СПИРЕЯ ВАНГУТТА
100
AcDbPoint
 10
42.49832153980553
 20
19.6528038913529
 30
0.0
  0
POINT
  5
EA
330
17
100
AcDbEntity
  8
СПИРЕЯ ВАНГУТТА
100
AcDbPoint
 10
44.95939885979318
 20
20.10893761134207
 30
0.0
  0
POINT
  5
EB
330
17
100
AcDbEntity
  8
СПИРЕЯ ВАНГУТТА
100
AcDbPoint
 10
47.34654296567866
 20
20.861601256807365
 30
0.0
  0
POINT
  5
EC
330
17
100
AcDbEntity
  8
СПИРЕЯ ВАНГУТТА
100
AcDbPoint
 10
49.62416703711075
 20
21.899574346391994
 30
0.0
  0
POINT
  5
ED
330
17
100
AcDbEntity
  8
СПИРЕЯ ВАНГУТТА
100
AcDbPoint
 10
51.75831694519644
 20
23.20738309207567
 30
0.0
  0
POINT
  5
EE
330
17
100
AcDbEntity
  8
ЛИПА МЕЛКОЛИСТНАЯ
100
AcDbPoint
 10
26.499999999999986
 20
16.617314097820163
 30
0.0
  0
POINT
  5
EF
330
17
100
AcDbEntity
  8
КЛЕН ОСТРОЛИСТНЫЙ
100
AcDbPoint
 10
53.5
 20
16.61731409782016
 30
0.0
  0
POINT
  5
F0
330
17
100
AcDbEntity
  8
КИЗИЛЬНИК БЛЕСТЯЩИЙ
100
AcDbPoint
 10
18.595172597438236
 20
14.490720044138037
 30
0.0
  0
POINT
  5
F1
330
17
100
AcDbEntity
  8
КИЗИЛЬНИК БЛЕСТЯЩИЙ
100
AcDbPoint
 10
19.63614956181182
 20
13.652256352182583
 30
0.0
  0
POINT
  5
F2
330
17
100
AcDbEntity
  8
КИЗИЛЬНИК БЛЕСТЯЩИЙ
100
AcDbPoint
 10
20.7099369609888
 20
12.856244402239145
 30
0.0
  0
POINT
  5
F3
330
17
100
AcDbEntity
  8
КИЗИЛЬНИК БЛЕСТЯЩИЙ
100
AcDbPoint
 10
24.110613283355057
 20
10.735390148356547
 30
0.0
  0
POINT
  5
F4
330
17
100
AcDbEntity
  8
КИЗИЛЬНИК БЛЕСТЯЩИЙ
100
AcDbPoint
 10
25.29785510203491
 20
10.121296289844857
 30
0.0
  0
POINT
  5
F5
330
17
100
AcDbEntity
  8
КИЗИЛЬНИК БЛЕСТЯЩИЙ
100
AcDbPoint
 10
26.508785160230605
 20
9.555343290699007
 30
0.0
  0
POINT
  5
F6
330
17
100
AcDbEntity
  8
КИЗИЛЬНИК БЛЕСТЯЩИЙ
100
AcDbPoint
 10
27.741452395600255
 20
9.038443019921218
 30
0.0
  0
POINT
  5
F7
330
17
100
AcDbEntity
  8
КИЗИЛЬНИК БЛЕСТЯЩИЙ
100
AcDbPoint
 10
28.99387072264974
 20
8.571428312278439
 30
0.0
  0
POINT
  5
F8
330
17
100
AcDbEntity
  8
КИЗИЛЬНИК БЛЕСТЯЩИЙ
100
AcDbPoint
 10
30.26402223273294
 20
8.1550516264309
 30
0.0
  0
POINT
  5
F9
330
17
100
AcDbEntity
  8
КИЗИЛЬНИК БЛЕСТЯЩИЙ
100
AcDbPoint
 10
31.549860445326054
 20
7.789983832563287
 30
0.0
  0
POINT
  5
FA
330
17
100
AcDbEntity
  8
КИЗИЛЬНИК БЛЕСТЯЩИЙ
100
AcDbPoint
 10
32.84931360533688
 20
7.476813131472191
 30
0.0
  0
POINT
  5
FB
330
17
100
AcDbEntity
  8
КИЗИЛЬНИК БЛЕСТЯЩИЙ
100
AcDbPoint
 10
34.16028802113692
 20
7.216044106851243
 30
0.0
  0
POINT
  5
FC
330
17
100
AcDbEntity
  8
КИЗИЛЬНИК БЛЕСТЯЩИЙ
100
AcDbPoint
 10
35.48067143793776
 20
7.008096912300914
 30
0.0
  0
POINT
  5
FD
330
17
100
AcDbEntity
  8
КИЗИЛЬНИК БЛЕСТЯЩИЙ
100
AcDbPoint
 10
36.80833644107665
 20
6.853306594372938
 30
0.0
  0
POINT
  5
FE
330
17
100
AcDbEntity
  8
КИЗИЛЬНИК БЛЕСТЯЩИЙ
100
AcDbPoint
 10
38.14114388372776
 20
6.751922552740034
 30
0.0
  0
POINT
  5
FF
330
17
100
AcDbEntity
  8
КИЗИЛЬНИК БЛЕСТЯЩИЙ
100
AcDbPoint
 10
39.47694633351649
 20
6.704108138360702
 30
0.0
  0
POINT
  5
100
330
17
100
AcDbEntity
  8
КИЗИЛЬНИК БЛЕСТЯЩИЙ
100
AcDbPoint
 10
40.81359153248347
 20
6.7099403902866115
 30
0.0
  0
POINT
  5
101
330
17
100
AcDbEntity
  8
КИЗИЛЬНИК БЛЕСТЯЩИЙ
100
AcDbPoint
 10
42.148925864823624
 20
6.7694099115364565
 30
0.0
  0
POINT
  5
102
330
17
100
AcDbEntity
  8
КИЗИЛЬНИК БЛЕСТЯЩИЙ
100
AcDbPoint
 10
43.48079782681299
 20
6.882420884236517
 30
0.0
  0
POINT
  5
103
330
17
100
AcDbEntity
  8
КИЗИЛЬНИК БЛЕСТЯЩИЙ
100
AcDbPoint
 10
44.80706149333254
 20
7.048791224003338
 30
0.0
  0
POINT
  5
104
330
17
100
AcDbEntity
  8
КИЗИЛЬНИК БЛЕСТЯЩИЙ
100
AcDbPoint
 10
46.125579975403724
 20
7.268252873319874
 30
0.0
  0
POINT
  5
105
330
17
100
AcDbEntity
  8
КИЗИЛЬНИК БЛЕСТЯЩИЙ
100
AcDbPoint
 10
47.434228863164826
 20
7.5404522334323545
 30
0.0
  0
POINT
  5
106
330
17
100
AcDbEntity
  8
КИЗИЛЬНИК БЛЕСТЯЩИЙ
100
AcDbPoint
 10
48.730899648740944
 20
7.864950734072075
 30
0.0
  0
POINT
  5
107
330
17
100
AcDbEntity
  8
КИЗИЛЬНИК БЛЕСТЯЩИЙ
100
AcDbPoint
 10
50.01350312349244
 20
8.241225540084095
 30
0.0
  0
POINT
  5
108
330
17
100
AcDbEntity
  8
КИЗИЛЬНИК БЛЕСТЯЩИЙ
100
AcDbPoint
 10
51.279972744168354
 20
8.66867039382435
 30
0.0
  0
POINT
  5
109
330
17
100
AcDbEntity
  8
КИЗИЛЬНИК БЛЕСТЯЩИЙ
100
AcDbPoint
 10
52.52826796254103
 20
9.146596591967885
 30
0.0
  0
POINT
  5
10A
330
17
100
AcDbEntity
  8
КИЗИЛЬНИК БЛЕСТЯЩИЙ
100
AcDbPoint
 10
53.7563775131574
 20
9.674234095154379
 30
0.0
  0
POINT
  5
10B
330
17
100
AcDbEntity
  8
КИЗИЛЬНИК БЛЕСТЯЩИЙ
100
AcDbPoint
 10
54.96232265390952
 20
10.250732768683093
 30
0.0
  0
POINT
  5
10C
330
17
100
AcDbEntity
  8
КИЗИЛЬНИК БЛЕСТЯЩИЙ
100
AcDbPoint
 10
59.52619947930195
 20
13.025613373155114
 30
0.0
  0
POINT
  5
10D
330
17
100
AcDbEntity
  8
КИЗИЛЬНИК БЛЕСТЯЩИЙ
100
AcDbPoint
 10
60.592999565406714
 20
13.83096545725925
 30
0.0
  0
POINT
  5
10E
330
17
100
AcDbEntity
  8
ЯБЛОНЯ НЕДЗВЕДЦКОГО
100
AcDbPoint
 10
53.365097862825515
 20
33.1901425039068
 30
0.0
  0
POINT
  5
10F
330
17
100
AcDbEntity
  8
ЧЕРЕМУХА МААКА
100
AcDbPoint
 10
54.81532510892706
 20
37.653483024396536
 30
0.0
  0
POINT
  5
110
330
17
100
AcDbEntity
  8
ЯБЛОНЯ НЕДЗВЕДЦКОГО
100
AcDbPoint
 10
54.81532510892707
 20
42.34651697560346
 30
0.0
  0
POINT
  5
111
330
17
100
AcDbEntity
  8
ЧЕРЕМУХА МААКА
100
AcDbPoint
 10
53.36509786282552
 20
46.8098574960932
 30
0.0
  0
POINT
  5
112
330
17
100
AcDbEntity
  8
СПИРЕЯ ВАНГУТТА
100
AcDbPoint
 10
56.79261690792433
 20
28.241683054803545
 30
0.0
  0
POINT
  5
113
330
17
100
AcDbEntity
  8
СПИРЕЯ ВАНГУТТА
100
AcDbPoint
 10
58.100425653608
 20
30.375832962889238
 30
0.0
  0
POINT
  5
114
330
17
100
AcDbEntity
  8
СПИРЕЯ ВАНГУТТА
100
AcDbPoint
 10
59.13839874319263
 20
32.653457034321335
 30
0.0
  0
POINT
  5
115
330
17
100
AcDbEntity
  8
СПИРЕЯ ВАНГУТТА
100
AcDbPoint
 10
59.89106238865793
 20
35.04060114020681
 30
0.0
  0
POINT
  5
116
330
17
100
AcDbEntity
  8
СПИРЕЯ ВАНГУТТА
100
AcDbPoint
 10
60.347196108647104
 20
37.50167846019448
 30
0.0
  0
POINT
  5
117
330
17
100
AcDbEntity
  8
СПИРЕЯ ВАНГУТТА
100
AcDbPoint
 10
60.5
 20
39.99999999999999
 30
0.0
  0
POINT
  5
118
330
17
100
AcDbEntity
  8
СПИРЕЯ ВАНГУТТА
100
AcDbPoint
 10
60.3471961086471
 20
42.498321539805524
 30
0.0
  0
POINT
  5
119
330
17
100
AcDbEntity
  8
СПИРЕЯ ВАНГУТТА
100
AcDbPoint
 10
59.89106238865793
 20
44.95939885979318
 30
0.0
  0
POINT
  5
11A
330
17
100
AcDbEntity
  8
СПИРЕЯ ВАНГУТТА
100
AcDbPoint
 10
59.13839874319264
 20
47.34654296567866
 30
0.0
  0
POINT
  5
11B
330
17
100
AcDbEntity
  8
СПИРЕЯ ВАНГУТТА
100
AcDbPoint
 10
58.100425653608006
 20
49.62416703711075
 30
0.0
  0
POINT
  5
11C
330
17
100
AcDbEntity
  8
СПИРЕЯ ВАНГУТТА
100
AcDbPoint
 10
56.79261690792433
 20
51.75831694519644
 30
0.0
  0
POINT
  5
11D
330
17
100
AcDbEntity
  8
ЛИПА МЕЛКОЛИСТНАЯ
100
AcDbPoint
 10
63.38268590217984
 20
26.499999999999986
 30
0.0
  0
POINT
  5
11E
330
17
100
AcDbEntity
  8
КЛЕН ОСТРОЛИСТНЫЙ
100
AcDbPoint
 10
65.67852593996915
 20
31.65654115187641
 30
0.0
  0
POINT
  5
11F
330
17
100
AcDbEntity
  8
ЛИПА МЕЛКОЛИСТНАЯ
100
AcDbPoint
 10
66.85209117494338
 20
37.17773149177336
 30
0.0
  0
POINT
  5
120
330
17
100
AcDbEntity
  8
КЛЕН ОСТРОЛИСТНЫЙ
100
AcDbPoint
 10
66.85209117494338
 20
42.82226850822663
 30
0.0
  0
POINT
  5
121
330
17
100
AcDbEntity
  8
ЛИПА МЕЛКОЛИСТНАЯ
100
AcDbPoint
 10
65.67852593996915
 20
48.343458848123575
 30
0.0
  0
POINT
  5
122
330
17
100
AcDbEntity
  8
КЛЕН ОСТРОЛИСТНЫЙ
100
AcDbPoint
 10
63.382685902179844
 20
53.5
 30
0.0
  0
POINT
  5
123
330
17
100
AcDbEntity
  8
КИЗИЛЬНИК БЛЕСТЯЩИЙ
100
AcDbPoint
 10
65.50927995586196
 20
18.595172597438232
 30
0.0
  0
POINT
  5
124
330
17
100
AcDbEntity
  8
КИЗИЛЬНИК БЛЕСТЯЩИЙ
100
AcDbPoint
 10
66.34774364781741
 20
19.63614956181182
 30
0.0
  0
POINT
  5
125
330
17
100
AcDbEntity
  8
КИЗИЛЬНИК БЛЕСТЯЩИЙ
100
AcDbPoint
 10
67.14375559776084
 20
20.709936960988795
 30
0.0
  0
POINT
  5
126
330
17
100
AcDbEntity
  8
КИЗИЛЬНИК БЛЕСТЯЩИЙ
100
AcDbPoint
 10
67.89603326346061
 20
21.814804698219522
 30
0.0
  0
POINT
  5
127
330
17
100
AcDbEntity
  8
КИЗИЛЬНИК БЛЕСТЯЩИЙ
100
AcDbPoint
 10
68.60336456779112
 20
22.948972599809977
 30
0.0
  0
POINT
  5
128
330
17
100
AcDbEntity
  8
КИЗИЛЬНИК БЛЕСТЯЩИЙ
100
AcDbPoint
 10
69.26460985164346
 20
24.110613283355057
 30
0.0
  0
POINT
  5
129
330
17
100
AcDbEntity
  8
КИЗИЛЬНИК БЛЕСТЯЩИЙ
100
AcDbPoint
 10
69.87870371015515
 20
25.29785510203491
 30
0.0
  0
POINT
  5
12A
330
17
100
AcDbEntity
  8
КИЗИЛЬНИК БЛЕСТЯЩИЙ
100
AcDbPoint
 10
70.444656709301
 20
26.5087851602306
 30
0.0
  0
POINT
  5
12B
330
17
100
AcDbEntity
  8
КИЗИЛЬНИК БЛЕСТЯЩИЙ
100
AcDbPoint
 10
70.9615569800788
 20
27.741452395600284
 30
0.0
  0
POINT
  5
12C
330
17
100
AcDbEntity
  8
КИЗИЛЬНИК БЛЕСТЯЩИЙ
100
AcDbPoint
 10
71.42857168772156
 20
28.99387072264974
 30
0.0
  0
POINT
  5
12D
330
17
100
AcDbEntity
  8
КИЗИЛЬНИК БЛЕСТЯЩИЙ
100
AcDbPoint
 10
71.8449483735691
 20
30.26402223273294
 30
0.0
  0
POINT
  5
12E
330
17
100
AcDbEntity
  8
КИЗИЛЬНИК БЛЕСТЯЩИЙ
100
AcDbPoint
 10
72.21001616743672
 20
31.54986044532605
 30
0.0
  0
POINT
  5
12F
330
17
100
AcDbEntity
  8
КИЗИЛЬНИК БЛЕСТЯЩИЙ
100
AcDbPoint
 10
72.5231868685278
 20
32.84931360533688
 30
0.0
  0
POINT
  5
130
330
17
100
AcDbEntity
  8
КИЗИЛЬНИК БЛЕСТЯЩИЙ
100
AcDbPoint
 10
72.78395589314876
 20
34.16028802113692
 30
0.0
  0
POINT
  5
131
330
17
100
AcDbEntity
  8
КИЗИЛЬНИК БЛЕСТЯЩИЙ
100
AcDbPoint
 10
72.99190308769909
 20
35.48067143793776
 30
0.0
  0
POINT
  5
132
330
17
100
AcDbEntity
  8
КИЗИЛЬНИК БЛЕСТЯЩИЙ
100
AcDbPoint
 10
73.14669340562706
 20
36.80833644107664
 30
0.0
  0
POINT
  5
133
330
17
100
AcDbEntity
  8
КИЗИЛЬНИК БЛЕСТЯЩИЙ
100
AcDbPoint
 10
73.24807744725996
 20
38.14114388372775
 30
0.0
  0
POINT
  5
134
330
17
100
AcDbEntity
  8
КИЗИЛЬНИК БЛЕСТЯЩИЙ
100
AcDbPoint
 10
73.29589186163929
 20
39.47694633351649
 30
0.0
  0
POINT
  5
135
330
17
100
AcDbEntity
  8
КИЗИЛЬНИК БЛЕСТЯЩИЙ
100
AcDbPoint
 10
73.29005960971338
 20
40.81359153248347
 30
0.0
  0
POINT
  5
136
330
17
100
AcDbEntity
  8
КИЗИЛЬНИК БЛЕСТЯЩИЙ
100
AcDbPoint
 10
73.23059008846354
 20
42.148925864823624
 30
0.0
  0
POINT
  5
137
330
17
100
AcDbEntity
  8
КИЗИЛЬНИК БЛЕСТЯЩИЙ
100
AcDbPoint
 10
73.11757911576348
 20
43.48079782681299
 30
0.0
  0
POINT
  5
138
330
17
100
AcDbEntity
  8
КИЗИЛЬНИК БЛЕСТЯЩИЙ
100
AcDbPoint
 10
72.95120877599666
 20
44.80706149333254
 30
0.0
  0
POINT
  5
139
330
17
100
AcDbEntity
  8
КИЗИЛЬНИК БЛЕСТЯЩИЙ
100
AcDbPoint
 10
72.73174712668012
 20
46.12557997540372
 30
0.0
  0
POINT
  5
13A
330
17
100
AcDbEntity
  8
КИЗИЛЬНИК БЛЕСТЯЩИЙ
100
AcDbPoint
 10
72.45954776656765
 20
47.43422886316482
 30
0.0
  0
POINT
  5
13B
330
17
100
AcDbEntity
  8
КИЗИЛЬНИК БЛЕСТЯЩИЙ
100
AcDbPoint
 10
72.13504926592793
 20
48.730899648740944
 30
0.0
  0
POINT
  5
13C
330
17
100
AcDbEntity
  8
КИЗИЛЬНИК БЛЕСТЯЩИЙ
100
AcDbPoint
 10
71.75877445991591
 20
50.01350312349244
 30
0.0
  0
POINT
  5
13D
330
17
100
AcDbEntity
  8
КИЗИЛЬНИК БЛЕСТЯЩИЙ
100
AcDbPoint
 10
71.33132960617564
 20
51.279972744168354
 30
0.0
  0
POINT
  5
13E
330
17
100
AcDbEntity
  8
КИЗИЛЬНИК БЛЕСТЯЩИЙ
100
AcDbPoint
 10
70.85340340803212
 20
52.52826796254103
 30
0.0
  0
POINT
  5
13F
330
17
100
AcDbEntity
  8
КИЗИЛЬНИК БЛЕСТЯЩИЙ
100
AcDbPoint
 10
70.32576590484562
 20
53.756377513157396
 30
0.0
  0
POINT
  5
140
330
17
100
AcDbEntity
  8
КИЗИЛЬНИК БЛЕСТЯЩИЙ
100
AcDbPoint
 10
69.7492672313169
 20
54.96232265390952
 30
0.0
  0
POINT
  5
141
330
17
100
AcDbEntity
  8
КИЗИЛЬНИК БЛЕСТЯЩИЙ
100
AcDbPoint
 10
69.12483624774178
 20
56.14416035420318
 30
0.0
  0
POINT
  5
142
330
17
100
AcDbEntity
  8
КИЗИЛЬНИК БЛЕСТЯЩИЙ
100
AcDbPoint
 10
68.45347904342239
 20
57.299986425587825
 30
0.0
  0
POINT
  5
143
330
17
100
AcDbEntity
  8
КИЗИЛЬНИК БЛЕСТЯЩИЙ
100
AcDbPoint
 10
67.7362773156462
 20
58.42793858980352
 30
0.0
  0
POINT
  5
144
330
17
100
AcDbEntity
  8
КИЗИЛЬНИК БЛЕСТЯЩИЙ
100
AcDbPoint
 10
66.97438662684489
 20
59.526199479301944
 30
0.0
  0
POINT
  5
145
330
17
100
AcDbEntity
  8
КИЗИЛЬНИК БЛЕСТЯЩИЙ
100
AcDbPoint
 10
66.16903454274075
 20
60.592999565406714
 30
0.0
  0
INSERT
  5
14B
330
17
100
AcDbEntity
  8
BENCH
100
AcDbBlockReference
  2
BENCH_BLOCK
 10
42.701246087006595
 20
49.42036462019553
 30
0.0
 50
164.0
  0
POINT
  5
14E
330
17
100
AcDbEntity
  8
URN
100
AcDbPoint
 10
41.45160588228678
 20
49.77869318275763
 30
0.0
  0
INSERT
  5
14F
330
17
100
AcDbEntity
  8
BENCH
100
AcDbBlockReference
  2
BENCH_BLOCK
 10
37.29875391299341
 20
49.42036462019553
 30
0.0
 50
196.0
  0
POINT
  5
151
330
17
100
AcDbEntity
  8
URN
100
AcDbPoint
 10
36.049113708273595
 20
49.06203605763343
 30
0.0
  0
INSERT
  5
152
330
17
100
AcDbEntity
  8
BENCH
100
AcDbBlockReference
  2
BENCH_BLOCK
 10
30.579635379804472
 20
42.701246087006595
 30
0.0
 50
254.0
  0
POINT
  5
154
330
17
100
AcDbEntity
  8
URN
100
AcDbPoint
 10
30.221306817242372
 20
41.45160588228678
 30
0.0
  0
INSERT
  5
155
330
17
100
AcDbEntity
  8
BENCH
100
AcDbBlockReference
  2
BENCH_BLOCK
 10
30.579635379804472
 20
37.29875391299341
 30
0.0
 50
286.0
  0
POINT
  5
157
330
17
100
AcDbEntity
  8
URN
100
AcDbPoint
 10
30.937963942366572
 20
36.049113708273595
 30
0.0
  0
INSERT
  5
158
330
17
100
AcDbEntity
  8
BENCH
100
AcDbBlockReference
  2
BENCH_BLOCK
 10
37.29875391299341
 20
30.579635379804472
 30
0.0
 50
344.0
  0
POINT
  5
15A
330
17
100
AcDbEntity
  8
URN
100
AcDbPoint
 10
38.54839411771323
 20
30.221306817242372
 30
0.0
  0
INSERT
  5
15B
330
17
100
AcDbEntity
  8
BENCH
100
AcDbBlockReference
  2
BENCH_BLOCK
 10
42.701246087006595
 20
30.579635379804476
 30
0.0
 50
376.0
  0
POINT
  5
15D
330
17
100
AcDbEntity
  8
URN
100
AcDbPoint
 10
43.95088629172641
 20
30.937963942366576
 30
0.0
  0
INSERT
  5
15E
330
17
100
AcDbEntity
  8
BENCH
100
AcDbBlockReference
  2
BENCH_BLOCK
 10
49.42036462019553
 20
37.29875391299341
 30
0.0
 50
434.0
  0
POINT
  5
160
330
17
100
AcDbEntity
  8
URN
100
AcDbPoint
 10
49.77869318275763
 20
38.54839411771323
 30
0.0
  0
INSERT
  5
161
330
17
100
AcDbEntity
  8
BENCH
100
AcDbBlockReference
  2
BENCH_BLOCK
 10
49.42036462019553
 20
42.701246087006595
 30
0.0
 50
466.0
  0
POINT
  5
163
330
17
100
AcDbEntity
  8
URN
100
AcDbPoint
 10
49.06203605763343
 20
43.95088629172641
 30
0.0
  0
POINT
  5
165
330
17
100
AcDbEntity
  8
LAMPS
100
AcDbPoint
 10
56.47558800164656
 20
53.22289680818844
 30
0.0
  0
POINT
  5
166
330
17
100
AcDbEntity
  8
LAMPS
100
AcDbPoint
 10
59.58685783886737
 20
62.839549032325486
 30
0.0
  0
POINT
  5
167
330
17
100
AcDbEntity
  8
LAMPS
100
AcDbPoint
 10
26.777103191811563
 20
56.47558800164656
 30
0.0
  0
POINT
  5
168
330
17
100
AcDbEntity
  8
LAMPS
100
AcDbPoint
 10
17.160450967674517
 20
59.58685783886737
 30
0.0
  0
POINT
  5
169
330
17
100
AcDbEntity
  8
LAMPS
100
AcDbPoint
 10
23.52441199835344
 20
26.777103191811563
 30
0.0
  0
POINT
  5
16A
330
17
100
AcDbEntity
  8
LAMPS
100
AcDbPoint
 10
20.41314216113263
 20
17.160450967674517
 30
0.0
  0
POINT
  5
16B
330
17
100
AcDbEntity
  8
LAMPS
100
AcDbPoint
 10
53.22289680818843
 20
23.52441199835344
 30
0.0
  0
POINT
  5
16C
330
17
100
AcDbEntity
  8
LAMPS
100
AcDbPoint
 10
62.83954903232548
 20
20.41314216113263
 30
0.0
  0
ENDSEC
  0
SECTION
  2
OBJECTS
  0
DICTIONARY
  5
A
330
0
100
AcDbDictionary
281
1
  3
ACAD_COLOR
350
B
  3
ACAD_GROUP
350
C
  3
ACAD_LAYOUT
350
D
  3
ACAD_MATERIAL
350
E
  3
ACAD_MLEADERSTYLE
350
F
  3
ACAD_MLINESTYLE
350
10
  3
ACAD_PLOTSETTINGS
350
11
  3
ACAD_PLOTSTYLENAME
350
12
  3
ACAD_SCALELIST
350
14
  3
ACAD_TABLESTYLE
350
15
  3
ACAD_VISUALSTYLE
350
16
  3
EZDXF_META
350
2D
  0
DICTIONARY
  5
B
330
A
100
AcDbDictionary
281
1
  0
DICTIONARY
  5
C
330
A
100
AcDbDictionary
281
1
  0
DICTIONARY
  5
D
330
A
100
AcDbDictionary
281
1
  3
Model
350
1A
  3
Layout1
350
1E
  0
DICTIONARY
  5
E
330
A
100
AcDbDictionary
281
1
  3
ByBlock
350
1F
  3
ByLayer
350
20
  3
Global
350
21
  0
DICTIONARY
  5
F
330
A
100
AcDbDictionary
281
1
  3
Standard
350
2C
  0
DICTIONARY
  5
10
330
A
100
AcDbDictionary
281
1
  3
Standard
350
22
  0
DICTIONARY
  5
11
330
A
100
AcDbDictionary
281
1
  0
ACDBDICTIONARYWDFLT
  5
12
330
A
100
AcDbDictionary
281
1
  3
Normal
350
13
100
AcDbDictionaryWithDefault
340
13
  0
ACDBPLACEHOLDER
  5
13
330
12
  0
DICTIONARY
  5
14
330
A
100
AcDbDictionary
281
1
  0
DICTIONARY
  5
15
330
A
100
AcDbDictionary
281
1
  0
DICTIONARY
  5
16
330
A
100
AcDbDictionary
281
1
  0
LAYOUT
  5
1A
330
D
100
AcDbPlotSettings
  1

  4
A3
  6

 40
7.5
 41
20.0
 42
7.5
 43
20.0
 44
420.0
 45
297.0
 46
0.0
 47
0.0
 48
0.0
 49
0.0
140
0.0
141
0.0
142
1.0
143
1.0
 70
1024
 72
1
 73
0
 74
5
  7

 75
16
 76
0
 77
2
 78
300
147
1.0
148
0.0
149
0.0
100
AcDbLayout
  1
Model
 70
1
 71
0
 10
0.0
 20
0.0
 11
420.0
 21
297.0
 12
0.0
 22
0.0
 32
0.0
 14
1e+20
 24
1e+20
 34
1e+20
 15
-1e+20
 25
-1e+20
 35
-1e+20
146
0.0
 13
0.0
 23
0.0
 33
0.0
 16
1.0
 26
0.0
 36
0.0
 17
0.0
 27
1.0
 37
0.0
 76
1
330
17
  0
LAYOUT
  5
1E
330
D
100
AcDbPlotSettings
  1

  4
A3
  6

 40
7.5
 41
20.0
 42
7.5
 43
20.0
 44
420.0
 45
297.0
 46
0.0
 47
0.0
 48
0.0
 49
0.0
140
0.0
141
0.0
142
1.0
143
1.0
 70
0
 72
1
 73
0
 74
5
  7

 75
16
 76
0
 77
2
 78
300
147
1.0
148
0.0
149
0.0
100
AcDbLayout
  1
Layout1
 70
1
 71
1
 10
0.0
 20
0.0
 11
420.0
 21
297.0
 12
0.0
 22
0.0
 32
0.0
 14
1e+20
 24
1e+20
 34
1e+20
 15
-1e+20
 25
-1e+20
 35
-1e+20
146
0.0
 13
0.0
 23
0.0
 33
0.0
 16
1.0
 26
0.0
 36
0.0
 17
0.0
 27
1.0
 37
0.0
 76
1
330
1B
  0
MATERIAL
  5
1F
102
{ACAD_REACTORS
330
E
102
}
330
E
100
AcDbMaterial
  1
ByBlock
  2

 70
0
 40
1.0
 71
1
 41
1.0
 91
-1023410177
 42
1.0
 72
1
  3

 73
1
 74
1
 75
1
 44
0.5
 73
0
 45
1.0
 46
1.0
 77
1
  4

 78
1
 79
1
170
1
 48
1.0
171
1
  6

172
1
173
1
174
1
140
1.0
141
1.0
175
1
  7

176
1
177
1
178
1
143
1.0
179
1
  8

270
1
271
1
272
1
145
1.0
146
1.0
273
1
  9

274
1
275
1
276
1
 42
1.0
 72
1
  3

 73
1
 74
1
 75
1
 94
63
  0
MATERIAL
  5
20
102
{ACAD_REACTORS
330
E
102
}
330
E
100
AcDbMaterial
  1
ByLayer
  2

 70
0
 40
1.0
 71
1
 41
1.0
 91
-1023410177
 42
1.0
 72
1
  3

 73
1
 74
1
 75
1
 44
0.5
 73
0
 45
1.0
 46
1.0
 77
1
  4

 78
1
 79
1
170
1
 48
1.0
171
1
  6

172
1
173
1
174
1
140
1.0
141
1.0
175
1
  7

176
1
177
1
178
1
143
1.0
179
1
  8

270
1
271
1
272
1
145
1.0
146
1.0
273
1
  9

274
1
275
1
276
1
 42
1.0
 72
1
  3

 73
1
 74
1
 75
1
 94
63
  0
MATERIAL
  5
21
102
{ACAD_REACTORS
330
E
102
}
330
E
100
AcDbMaterial
  1
Global
  2

 70
0
 40
1.0
 71
1
 41
1.0
 91
-1023410177
 42
1.0
 72
1
  3

 73
1
 74
1
 75
1
 44
0.5
 73
0
 45
1.0
 46
1.0
 77
1
  4

 78
1
 79
1
170
1
 48
1.0
171
1
  6

172
1
173
1
174
1
140
1.0
141
1.0
175
1
  7

176
1
177
1
178
1
143
1.0
179
1
  8

270
1
271
1
272
1
145
1.0
146
1.0
273
1
  9

274
1
275
1
276
1
 42
1.0
 72
1
  3

 73
1
 74
1
 75
1
 94
63
  0
MLINESTYLE
  5
22
102
{ACAD_REACTORS
330
10
102
}
330
10
100
AcDbMlineStyle
  2
Standard
 70
0
  3

 62
256
 51
90.0
 52
90.0
 71
2
 49
0.5
 62
256
  6
BYLAYER
 49
-0.5
 62
256
  6
BYLAYER
  0
MLEADERSTYLE
  5
2C
102
{ACAD_REACTORS
330
F
102
}
330
F
100
AcDbMLeaderStyle
179
2
170
2
171
1
172
0
 90
2
 40
0.0
 41
0.0
173
1
 91
-1056964608
 92
-2
290
1
 42
2.0
291
1
 43
8.0
  3
Standard
 44
4.0
300

342
29
174
1
175
1
176
0
178
1
 93
-1056964608
 45
4.0
292
0
297
0
 46
4.0
 94
-1056964608
 47
1.0
 49
1.0
140
1.0
294
1
141
0.0
177
0
142
1.0
295
0
296
0
143
3.75
271
0
272
9
273
9
  0
DICTIONARY
  5
2D
330
A
100
AcDbDictionary
280
1
281
1
  3
CREATED_BY_EZDXF
350
2E
  3
WRITTEN_BY_EZDXF
350
16F
  0
DICTIONARYVAR
  5
2E
330
2D
100
DictionaryVariables
280
0
  1
1.4.4 @ 2026-09-26T15:08:53.056729+00:00
  0
DICTIONARYVAR
  5
16F
330
2D
100
DictionaryVariables
280
0
  1
1.4.4 @ 2026-09-26T15:08:53.060061+00:00
  0
ENDSEC
  0
EOF
