  0
SECTION
  2
HEADER
  9
$ACADVER
  1
AC1032
  9
$ACADMAINTVER
 90
4
  9
$DWGCODEPAGE
  3
ANSI_1252
  9
$LASTSAVEDBY
  1
ezdxf
  9
$REQUIREDVERSIONS
160
0
  9
$INSBASE
 10
0.0
 20
0.0
 30
0.0
  9
$EXTMIN
 10
1e+20
 20
1e+20
 30
1e+20
  9
$EXTMAX
 10
-1e+20
 20
-1e+20
 30
-1e+20
  9
$LIMMIN
 10
0.0
 20
0.0
  9
$LIMMAX
 10
420.0
 20
297.0
  9
$ORTHOMODE
 70
0
  9
$REGENMODE
 70
1
  9
$FILLMODE
 70
1
  9
$QTEXTMODE
 70
0
  9
$MIRRTEXT
 70
1
  9
$LTSCALE
 40
1.0
  9
$ATTMODE
 70
1
  9
$TEXTSIZE
 40
2.5
  9
$TRACEWID
 40
1.0
  9
$TEXTSTYLE
  7
Standard
  9
$CLAYER
  8
0
  9
$CELTYPE
  6
ByLayer
  9
$CECOLOR
 62
256
  9
$CELTSCALE
 40
1.0
  9
$DISPSILH
 70
0
  9
$DIMSCALE
 40
1.0
  9
$DIMASZ
 40
2.5
  9
$DIMEXO
 40
0.625
  9
$DIMDLI
 40
3.75
  9
$DIMRND
 40
0.0
  9
$DIMDLE
 40
0.0
  9
$DIMEXE
 40
1.25
  9
$DIMTP
 40
0.0
  9
$DIMTM
 40
0.0
  9
$DIMTXT
 40
2.5
  9
$DIMCEN
 40
2.5
  9
$DIMTSZ
 40
0.0
  9
$DIMTOL
 70
0
  9
$DIMLIM
 70
0
  9
$DIMTIH
 70
0
  9
$DIMTOH
 70
0
  9
$DIMSE1
 70
0
  9
$DIMSE2
 70
0
  9
$DIMTAD
 70
1
  9
$DIMZIN
 70
8
  9
$DIMBLK
  1

  9
$DIMASO
 70
1
  9
$DIMSHO
 70
1
  9
$DIMPOST
  1

  9
$DIMAPOST
  1

  9
$DIMALT
 70
0
  9
$DIMALTD
 70
3
  9
$DIMALTF
 40
0.03937007874
  9
$DIMLFAC
 40
1.0
  9
$DIMTOFL
 70
1
  9
$DIMTVP
 40
0.0
  9
$DIMTIX
 70
0
  9
$DIMSOXD
 70
0
  9
$DIMSAH
 70
0
  9
$DIMBLK1
  1

  9
$DIMBLK2
  1

  9
$DIMSTYLE
  2
ISO-25
  9
$DIMCLRD
 70
0
  9
$DIMCLRE
 70
0
  9
$DIMCLRT
 70
0
  9
$DIMTFAC
 40
1.0
  9
$DIMGAP
 40
0.625
  9
$DIMJUST
 70
0
  9
$DIMSD1
 70
0
  9
$DIMSD2
 70
0
  9
$DIMTOLJ
 70
0
  9
$DIMTZIN
 70
8
  9
$DIMALTZ
 70
0
  9
$DIMALTTZ
 70
0
  9
$DIMUPT
 70
0
  9
$DIMDEC
 70
2
  9
$DIMTDEC
 70
2
  9
$DIMALTU
 70
2
  9
$DIMALTTD
 70
3
  9
$DIMTXSTY
  7
Standard
  9
$DIMAUNIT
 70
0
  9
$DIMADEC
 70
0
  9
$DIMALTRND
 40
0.0
  9
$DIMAZIN
 70
0
  9
$DIMDSEP
 70
44
  9
$DIMATFIT
 70
3
  9
$DIMFRAC
 70
0
  9
$DIMLDRBLK
  1

  9
$DIMLUNIT
 70
2
  9
$DIMLWD
 70
-2
  9
$DIMLWE
 70
-2
  9
$DIMTMOVE
 70
0
  9
$DIMFXL
 40
1.0
  9
$DIMFXLON
 70
0
  9
$DIMJOGANG
 40
0.785398163397
  9
$DIMTFILL
 70
0
  9
$DIMTFILLCLR
 70
0
  9
$DIMARCSYM
 70
0
  9
$DIMLTYPE
  6

  9
$DIMLTEX1
  6

  9
$DIMLTEX2
  6

  9
$DIMTXTDIRECTION
 70
0
  9
$LUNITS
 70
2
  9
$LUPREC
 70
4
  9
$SKETCHINC
 40
1.0
  9
$FILLETRAD
 40
10.0
  9
$AUNITS
 70
0
  9
$AUPREC
 70
2
  9
$MENU
  1
.
  9
$ELEVATION
 40
0.0
  9
$PELEVATION
 40
0.0
  9
$THICKNESS
 40
0.0
  9
$LIMCHECK
 70
0
  9
$CHAMFERA
 40
0.0
  9
$CHAMFERB
 40
0.0
  9
$CHAMFERC
 40
0.0
  9
$CHAMFERD
 40
0.0
  9
$SKPOLY
 70
0
  9
$TDCREATE
 40
2461310.676111111
  9
$TDUCREATE
 40
2458532.153996898
  9
$TDUPDATE
 40
2461310.676111111
  9
$TDUUPDATE
 40
2458532.1544311
  9
$TDINDWG
 40
0.0
  9
$TDUSRTIMER
 40
0.0
  9
$USRTIMER
 70
1
  9
$ANGBASE
 50
0.0
  9
$ANGDIR
 70
0
  9
$PDMODE
 70
0
  9
$PDSIZE
 40
0.0
  9
$PLINEWID
 40
0.0
  9
$SPLFRAME
 70
0
  9
$SPLINETYPE
 70
6
  9
$SPLINESEGS
 70
8
  9
$HANDSEED
  5
32C
  9
$SURFTAB1
 70
6
  9
$SURFTAB2
 70
6
  9
$SURFTYPE
 70
6
  9
$SURFU
 70
6
  9
$SURFV
 70
6
  9
$UCSBASE
  2

  9
$UCSNAME
  2

  9
$UCSORG
 10
0.0
 20
0.0
 30
0.0
  9
$UCSXDIR
 10
1.0
 20
0.0
 30
0.0
  9
$UCSYDIR
 10
0.0
 20
1.0
 30
0.0
  9
$UCSORTHOREF
  2

  9
$UCSORTHOVIEW
 70
0
  9
$UCSORGTOP
 10
0.0
 20
0.0
 30
0.0
  9
$UCSORGBOTTOM
 10
0.0
 20
0.0
 30
0.0
  9
$UCSORGLEFT
 10
0.0
 20
0.0
 30
0.0
  9
$UCSORGRIGHT
 10
0.0
 20
0.0
 30
0.0
  9
$UCSORGFRONT
 10
0.0
 20
0.0
 30
0.0
  9
$UCSORGBACK
 10
0.0
 20
0.0
 30
0.0
  9
$PUCSBASE
  2

  9
$PUCSNAME
  2

  9
$PUCSORG
 10
0.0
 20
0.0
 30
0.0
  9
$PUCSXDIR
 10
1.0
 20
0.0
 30
0.0
  9
$PUCSYDIR
 10
0.0
 20
1.0
 30
0.0
  9
$PUCSORTHOREF
  2

  9
$PUCSORTHOVIEW
 70
0
  9
$PUCSORGTOP
 10
0.0
 20
0.0
 30
0.0
  9
$PUCSORGBOTTOM
 10
0.0
 20
0.0
 30
0.0
  9
$PUCSORGLEFT
 10
0.0
 20
0.0
 30
0.0
  9
$PUCSORGRIGHT
 10
0.0
 20
0.0
 30
0.0
  9
$PUCSORGFRONT
 10
0.0
 20
0.0
 30
0.0
  9
$PUCSORGBACK
 10
0.0
 20
0.0
 30
0.0
  9
$USERI1
 70
0
  9
$USERI2
 70
0
  9
$USERI3
 70
0
  9
$USERI4
 70
0
  9
$USERI5
 70
0
  9
$USERR1
 40
0.0
  9
$USERR2
 40
0.0
  9
$USERR3
 40
0.0
  9
$USERR4
 40
0.0
  9
$USERR5
 40
0.0
  9
$WORLDVIEW
 70
1
  9
$SHADEDGE
 70
3
  9
$SHADEDIF
 70
70
  9
$TILEMODE
 70
1
  9
$MAXACTVP
 70
64
  9
$PINSBASE
 10
0.0
 20
0.0
 30
0.0
  9
$PLIMCHECK
 70
0
  9
$PEXTMIN
 10
1e+20
 20
1e+20
 30
1e+20
  9
$PEXTMAX
 10
-1e+20
 20
-1e+20
 30
-1e+20
  9
$PLIMMIN
 10
0.0
 20
0.0
  9
$PLIMMAX
 10
420.0
 20
297.0
  9
$UNITMODE
 70
0
  9
$VISRETAIN
 70
1
  9
$PLINEGEN
 70
0
  9
$PSLTSCALE
 70
1
  9
$TREEDEPTH
 70
3020
  9
$CMLSTYLE
  2
Standard
  9
$CMLJUST
 70
0
  9
$CMLSCALE
 40
20.0
  9
$PROXYGRAPHICS
 70
1
  9
$MEASUREMENT
 70
1
  9
$CELWEIGHT
370
-1
  9
$ENDCAPS
280
0
  9
$JOINSTYLE
280
0
  9
$LWDISPLAY
290
0
  9
$INSUNITS
 70
6
  9
$HYPERLINKBASE
  1

  9
$STYLESHEET
  1

  9
$XEDIT
290
1
  9
$CEPSNTYPE
380
0
  9
$PSTYLEMODE
290
1
  9
$FINGERPRINTGUID
  2
{6C36FFA0-094E-4A3F-999E-8B1CA92B134A}
  9
$VERSIONGUID
  2
{BD51E0B4-EA43-46A7-A00C-CE94C497127B}
  9
$EXTNAMES
290
1
  9
$PSVPSCALE
 40
0.0
  9
$OLESTARTUP
290
0
  9
$SORTENTS
280
127
  9
$INDEXCTL
280
0
  9
$HIDETEXT
280
1
  9
$XCLIPFRAME
280
1
  9
$HALOGAP
280
0
  9
$OBSCOLOR
 70
257
  9
$OBSLTYPE
280
0
  9
$INTERSECTIONDISPLAY
280
0
  9
$INTERSECTIONCOLOR
 70
257
  9
$DIMASSOC
280
2
  9
$PROJECTNAME
  1

  9
$CAMERADISPLAY
290
0
  9
$LENSLENGTH
 40
50.0
  9
$CAMERAHEIGHT
 40
0.0
  9
$STEPSPERSEC
 40
24.0
  9
$STEPSIZE
 40
100.0
  9
$3DDWFPREC
 40
2.0
  9
$PSOLWIDTH
 40
0.005
  9
$PSOLHEIGHT
 40
0.08
  9
$LOFTANG1
 40
1.570796326795
  9
$LOFTANG2
 40
1.570796326795
  9
$LOFTMAG1
 40
0.0
  9
$LOFTMAG2
 40
0.0
  9
$LOFTPARAM
 70
7
  9
$LOFTNORMALS
280
1
  9
$LATITUDE
 40
37.795
  9
$LONGITUDE
 40
-122.394
  9
$NORTHDIRECTION
 40
0.0
  9
$TIMEZONE
 70
-8000
  9
$LIGHTGLYPHDISPLAY
280
1
  9
$TILEMODELIGHTSYNCH
280
1
  9
$CMATERIAL
347
20
  9
$SOLIDHIST
280
0
  9
$SHOWHIST
280
1
  9
$DWFFRAME
280
2
  9
$DGNFRAME
280
2
  9
$REALWORLDSCALE
290
1
  9
$INTERFERECOLOR
 62
256
  9
$CSHADOW
280
0
  9
$SHADOWPLANELOCATION
 40
0.0
  0
ENDSEC
  0
SECTION
  2
CLASSES
  0
CLASS
  1
ACDBDICTIONARYWDFLT
  2
AcDbDictionaryWithDefault
  3
ObjectDBX Classes
 90
0
 91
0
280
0
281
0
  0
CLASS
  1
SUN
  2
AcDbSun
  3
SCENEOE
 90
1153
 91
0
280
0
281
0
  0
CLASS
  1
VISUALSTYLE
  2
AcDbVisualStyle
  3
ObjectDBX Classes
 90
4095
 91
0
280
0
281
0
  0
CLASS
  1
MATERIAL
  2
AcDbMaterial
  3
ObjectDBX Classes
 90
1153
 91
0
280
0
281
0
  0
CLASS
  1
SCALE
  2
AcDbScale
  3
ObjectDBX Classes
 90
1153
 91
0
280
0
281
0
  0
CLASS
  1
TABLESTYLE
  2
AcDbTableStyle
  3
ObjectDBX Classes
 90
4095
 91
0
280
0
281
0
  0
CLASS
  1
MLEADERSTYLE
  2
AcDbMLeaderStyle
  3
ACDB_MLEADERSTYLE_CLASS
 90
4095
 91
0
280
0
281
0
  0
CLASS
  1
DICTIONARYVAR
  2
AcDbDictionaryVar
  3
ObjectDBX Classes
 90
0
 91
0
280
0
281
0
  0
CLASS
  1
CELLSTYLEMAP
  2
AcDbCellStyleMap
  3
ObjectDBX Classes
 90
1152
 91
0
280
0
281
0
  0
CLASS
  1
MENTALRAYRENDERSETTINGS
  2
AcDbMentalRayRenderSettings
  3
SCENEOE
 90
1024
 91
0
280
0
281
0
  0
CLASS
  1
ACDBDETAILVIEWSTYLE
  2
AcDbDetailViewStyle
  3
ObjectDBX Classes
 90
1025
 91
0
280
0
281
0
  0
CLASS
  1
ACDBSECTIONVIEWSTYLE
  2
AcDbSectionViewStyle
  3
ObjectDBX Classes
 90
1025
 91
0
280
0
281
0
  0
CLASS
  1
RASTERVARIABLES
  2
AcDbRasterVariables
  3
ISM
 90
0
 91
0
280
0
281
0
  0
CLASS
  1
LAYOUT
  2
AcDbLayout
  3
ObjectDBX Classes
 90
0
 91
0
280
0
281
0
  0
CLASS
  1
ACDBPLACEHOLDER
  2
AcDbPlaceHolder
  3
ObjectDBX Classes
 90
0
 91
0
280
0
281
0
  0
ENDSEC
  0
SECTION
  2
TABLES
  0
TABLE
  2
VPORT
  5
8
330
0
100
AcDbSymbolTable
 70
1
  0
VPORT
  5
23
330
8
100
AcDbSymbolTableRecord
100
AcDbViewportTableRecord
  2
*Active
 70
0
 10
0.0
 20
0.0
 11
1.0
 21
1.0
 12
0.0
 22
0.0
 13
0.0
 23
0.0
 14
0.5
 24
0.5
 15
0.5
 25
0.5
 16
0.0
 26
0.0
 36
1.0
 17
0.0
 27
0.0
 37
0.0
 40
1000.0
 41
1.34
 42
50.0
 43
0.0
 44
0.0
 50
0.0
 51
0.0
 71
0
 72
1000
 73
1
 74
3
 75
0
 76
0
 77
0
 78
0
281
0
 65
0
146
0.0
  0
ENDTAB
  0
TABLE
  2
LTYPE
  5
2
330
0
100
AcDbSymbolTable
 70
3
  0
LTYPE
  5
24
330
2
100
AcDbSymbolTableRecord
100
AcDbLinetypeTableRecord
  2
ByBlock
 70
0
  3

 72
65
 73
0
 40
0.0
  0
LTYPE
  5
25
330
2
100
AcDbSymbolTableRecord
100
AcDbLinetypeTableRecord
  2
ByLayer
 70
0
  3

 72
65
 73
0
 40
0.0
  0
LTYPE
  5
26
330
2
100
AcDbSymbolTableRecord
100
AcDbLinetypeTableRecord
  2
Continuous
 70
0
  3

 72
65
 73
0
 40
0.0
  0
ENDTAB
  0
TABLE
  2
LAYER
  5
1
330
0
100
AcDbSymbolTable
 70
17
  0
LAYER
  5
27
330
1
100
AcDbSymbolTableRecord
100
AcDbLayerTableRecord
  2
0
 70
0
 62
7
  6
Continuous
370
-3
390
13
347
21
  0
LAYER
  5
28
330
1
100
AcDbSymbolTableRecord
100
AcDbLayerTableRecord
  2
Defpoints
 70
0
 62
7
  6
Continuous
290
0
370
-3
390
13
347
21
  0
LAYER
  5
2F
330
1
100
AcDbSymbolTableRecord
100
AcDbLayerTableRecord
  2
TERRITORY_BOUNDARY
 70
0
 62
8
  6
Continuous
370
-3
390
13
347
21
  0
LAYER
  5
31
330
1
100
AcDbSymbolTableRecord
100
AcDbLayerTableRecord
  2
GRASS
 70
0
 62
84
  6
Continuous
370
-3
390
13
347
21
  0
LAYER
  5
33
330
1
100
AcDbSymbolTableRecord
100
AcDbLayerTableRecord
  2
PATH_WAVE_S
 70
0
 62
9
  6
Continuous
370
-3
390
13
347
21
  0
LAYER
  5
35
330
1
100
AcDbSymbolTableRecord
100
AcDbLayerTableRecord
  2
PATH_WAVE_N
 70
0
 62
9
  6
Continuous
370
-3
390
13
347
21
  0
LAYER
  5
37
330
1
100
AcDbSymbolTableRecord
100
AcDbLayerTableRecord
  2
PATH_CROSS
 70
0
 62
9
  6
Continuous
370
-3
390
13
347
21
  0
LAYER
  5
39
330
1
100
AcDbSymbolTableRecord
100
AcDbLayerTableRecord
  2
SEWER
 70
0
 62
9
  6
Continuous
370
-3
390
13
347
21
  0
LAYER
  5
3B
330
1
100
AcDbSymbolTableRecord
100
AcDbLayerTableRecord
  2
ДЕРЕН КРОВАВО-КРАСНЫЙ
 70
0
 62
3
  6
Continuous
370
-3
390
13
347
21
  0
LAYER
  5
EA
330
1
100
AcDbSymbolTableRecord
100
AcDbLayerTableRecord
  2
СПИРЕЯ ВАНГУТТА
 70
0
 62
3
  6
Continuous
370
-3
390
13
347
21
  0
LAYER
  5
199
330
1
100
AcDbSymbolTableRecord
100
AcDbLayerTableRecord
  2
ГОРТЕНЗИЯ МЕТЕЛЬЧАТАЯ
 70
0
 62
3
  6
Continuous
370
-3
390
13
347
21
  0
LAYER
  5
248
330
1
100
AcDbSymbolTableRecord
100
AcDbLayerTableRecord
  2
СПИРЕЯ ЯПОНСКАЯ
 70
0
 62
3
  6
Continuous
370
-3
390
13
347
21
  0
LAYER
  5
2F7
330
1
100
AcDbSymbolTableRecord
100
AcDbLayerTableRecord
  2
БЕРЕЗА ПОВИСЛАЯ
 70
0
 62
3
  6
Continuous
370
-3
390
13
347
21
  0
LAYER
  5
2FE
330
1
100
AcDbSymbolTableRecord
100
AcDbLayerTableRecord
  2
ЕЛЬ КОЛЮЧАЯ
 70
0
 62
3
  6
Continuous
370
-3
390
13
347
21
  0
LAYER
  5
302
330
1
100
AcDbSymbolTableRecord
100
AcDbLayerTableRecord
  2
LAMPS
 70
0
 62
2
  6
Continuous
370
-3
390
13
347
21
  0
LAYER
  5
30E
330
1
100
AcDbSymbolTableRecord
100
AcDbLayerTableRecord
  2
BENCH
 70
0
 62
30
  6
Continuous
370
-3
390
13
347
21
  0
LAYER
  5
311
330
1
100
AcDbSymbolTableRecord
100
AcDbLayerTableRecord
  2
URN
 70
0
 62
2
  6
Continuous
370
-3
390
13
347
21
  0
ENDTAB
  0
TABLE
  2
STYLE
  5
5
330
0
100
AcDbSymbolTable
 70
1
  0
STYLE
  5
29
330
5
100
AcDbSymbolTableRecord
100
AcDbTextStyleTableRecord
  2
Standard
 70
0
 40
0.0
 41
1.0
 50
0.0
 71
0
 42
2.5
  3
txt
  4

  0
ENDTAB
  0
TABLE
  2
VIEW
  5
7
330
0
100
AcDbSymbolTable
 70
0
  0
ENDTAB
  0
TABLE
  2
UCS
  5
6
330
0
100
AcDbSymbolTable
 70
0
  0
ENDTAB
  0
TABLE
  2
APPID
  5
3
330
0
100
AcDbSymbolTable
 70
3
  0
APPID
  5
2A
330
3
100
AcDbSymbolTableRecord
100
AcDbRegAppTableRecord
  2
ACAD
 70
0
  0
APPID
  5
329
330
3
100
AcDbSymbolTableRecord
100
AcDbRegAppTableRecord
  2
HATCHBACKGROUNDCOLOR
 70
0
  0
APPID
  5
32A
330
3
100
AcDbSymbolTableRecord
100
AcDbRegAppTableRecord
  2
EZDXF
 70
0
  0
ENDTAB
  0
TABLE
  2
DIMSTYLE
  5
4
330
0
100
AcDbSymbolTable
 70
1
100
AcDbDimStyleTable
  0
DIMSTYLE
105
2B
330
4
100
AcDbSymbolTableRecord
100
AcDbDimStyleTableRecord
  2
Standard
 70
0
 40
1.0
 41
2.5
 42
0.625
 43
3.75
 44
1.25
 45
0.0
 46
0.0
 47
0.0
 48
0.0
 49
2.5
140
2.5
141
2.5
142
0.0
143
0.03937007874
144
1.0
145
0.0
146
1.0
147
0.625
148
0.0
 69
0
 70
0
 71
0
 72
0
 73
0
 74
0
 75
0
 76
0
 77
1
 78
8
 79
3
170
0
171
3
172
1
173
0
174
0
175
0
176
0
177
0
178
0
179
2
271
2
272
2
273
2
274
3
275
0
276
0
277
2
278
44
279
0
280
0
281
0
282
0
283
0
284
8
285
0
286
0
288
0
289
3
290
0
371
-2
372
-2
  0
ENDTAB
  0
TABLE
  2
BLOCK_RECORD
  5
9
330
0
100
AcDbSymbolTable
 70
3
  0
BLOCK_RECORD
  5
17
330
9
100
AcDbSymbolTableRecord
100
AcDbBlockTableRecord
  2
*Model_Space
340
1A
 70
0
280
1
281
0
  0
BLOCK_RECORD
  5
1B
330
9
100
AcDbSymbolTableRecord
100
AcDbBlockTableRecord
  2
*Paper_Space
340
1E
 70
0
280
1
281
0
  0
BLOCK_RECORD
  5
30A
330
9
100
AcDbSymbolTableRecord
100
AcDbBlockTableRecord
  2
BENCH_BLOCK
340
0
 70
0
280
1
281
0
  0
ENDTAB
  0
ENDSEC
  0
SECTION
  2
BLOCKS
  0
BLOCK
  5
18
330
17
100
AcDbEntity
  8
0
100
AcDbBlockBegin
  2
*Model_Space
 70
0
 10
0.0
 20
0.0
 30
0.0
  3
*Model_Space
  1

  0
ENDBLK
  5
19
330
17
100
AcDbEntity
  8
0
100
AcDbBlockEnd
  0
BLOCK
  5
1C
330
1B
100
AcDbEntity
  8
0
100
AcDbBlockBegin
  2
*Paper_Space
 70
0
 10
0.0
 20
0.0
 30
0.0
  3
*Paper_Space
  1

  0
ENDBLK
  5
1D
330
1B
100
AcDbEntity
  8
0
100
AcDbBlockEnd
  0
BLOCK
  5
30B
330
30A
100
AcDbEntity
  8
0
100
AcDbBlockBegin
  2
BENCH_BLOCK
 70
0
 10
0.0
 20
0.0
 30
0.0
  3
BENCH_BLOCK
  1

  0
LWPOLYLINE
  5
30D
330
30A
100
AcDbEntity
  8
0
100
AcDbPolyline
 90
4
 70
1
 10
-0.75
 20
-0.25
 10
0.75
 20
-0.25
 10
0.75
 20
0.25
 10
-0.75
 20
0.25
  0
ENDBLK
  5
30C
330
30A
100
AcDbEntity
  8
0
100
AcDbBlockEnd
  0
ENDSEC
  0
SECTION
  2
ENTITIES
  0
LWPOLYLINE
  5
30
330
17
100
AcDbEntity
  8
TERRITORY_BOUNDARY
100
AcDbPolyline
 90
4
 70
1
 10
110.0
 20
0.0
 10
110.0
 20
60.0
 10
0.0
 20
60.0
 10
0.0
 20
0.0
  0
LWPOLYLINE
  5
32
330
17
100
AcDbEntity
  8
GRASS
100
AcDbPolyline
 90
4
 70
1
 10
110.0
 20
0.0
 10
110.0
 20
60.0
 10
0.0
 20
60.0
 10
0.0
 20
0.0
  0
LWPOLYLINE
  5
34
330
17
100
AcDbEntity
  8
PATH_WAVE_S
100
AcDbPolyline
 90
315
 70
1
 10
0.3767574406878995
 20
16.63322886595009
 10
0.3907568259532356
 20
16.641607465599293
 10
1.3907568259532357
 20
17.230909345404875
 10
1.4193370136499421
 20
17.24722786902962
 10
2.419337013649942
 20
17.80015736738978
 10
2.463552682237681
 20
17.823417102186106
 10
3.463552682237681
 20
18.323173736088993
 10
3.5246661711418907
 20
18.351599522495942
 10
4.524666171141891
 20
18.782998439509477
 10
4.603646731465954
 20
18.81380911071411
 10
5.603646731465954
 20
19.163742473043225
 10
5.700396146181271
 20
19.19308612958341
 10
6.700396146181271
 20
19.450921389088553
 10
6.812835398674611
 20
19.47423822902889
 10
7.812835398674611
 20
19.63214119182094
 10
7.936282574914935
 20
19.645134312246817
 10
8.936282574914935
 20
19.69830717670409
 10
9.063717425085065
 20
19.69830717670409
 10
10.063717425085065
 20
19.645134312246817
 10
10.187164601325389
 20
19.63214119182094
 10
11.187164601325389
 20
19.47423822902889
 10
11.299603853818729
 20
19.450921389088553
 10
12.299603853818729
 20
19.19308612958341
 10
12.396353268534046
 20
19.163742473043225
 10
13.396353268534046
 20
18.81380911071411
 10
13.47533382885811
 20
18.782998439509477
 10
14.47533382885811
 20
18.351599522495942
 10
14.536447317762319
 20
18.323173736088993
 10
15.536447317762319
 20
17.823417102186106
 10
15.580662986350054
 20
17.80015736738978
 10
16.580662986350056
 20
17.247227869029622
 10
16.609243174046767
 20
17.230909345404875
 10
17.609243174046767
 20
16.641607465599286
 10
17.6232425593121
 20
16.633228865950088
 10
19.61627134608905
 20
15.421928506934666
 10
20.59506497734719
 20
14.845123580092508
 10
21.55879730149333
 20
14.31224754954891
 10
22.506289881666355
 20
13.838731847033678
 10
23.436388066025135
 20
13.437488497585045
 10
24.34859716981728
 20
13.118276098747833
 10
25.243942681000025
 20
12.887424456525265
 10
26.12577746851217
 20
12.748180130884002
 10
27.0
 20
12.701695214711705
 10
27.87422253148783
 20
12.748180130884002
 10
28.756057318999975
 20
12.887424456525265
 10
29.65140283018274
 20
13.118276098747838
 10
30.563611933974865
 20
13.437488497585043
 10
31.493710118333667
 20
13.838731847033685
 10
32.441202698506636
 20
14.312247549548895
 10
33.404935022652815
 20
14.84512358009251
 10
34.38372865391093
 20
15.421928506934652
 10
35.376757440687896
 20
16.025460244115834
 10
36.3767574406879
 20
16.633228865950088
 10
36.39075682595323
 20
16.64160746559929
 10
37.39075682595323
 20
17.23090934540487
 10
37.419337013649944
 20
17.24722786902962
 10
38.419337013649944
 20
17.800157367389776
 10
38.463552682237676
 20
17.8234171021861
 10
39.463552682237676
 20
18.32317373608899
 10
39.52466617114189
 20
18.351599522495942
 10
40.52466617114189
 20
18.782998439509477
 10
40.60364673146596
 20
18.81380911071411
 10
41.60364673146596
 20
19.163742473043225
 10
41.70039614618127
 20
19.19308612958341
 10
42.70039614618127
 20
19.450921389088553
 10
42.81283539867461
 20
19.47423822902889
 10
43.81283539867461
 20
19.63214119182094
 10
43.936282574914934
 20
19.645134312246817
 10
44.936282574914934
 20
19.69830717670409
 10
45.06371742508506
 20
19.69830717670409
 10
46.06371742508506
 20
19.64513431224682
 10
46.18716460132539
 20
19.632141191820942
 10
47.18716460132539
 20
19.47423822902889
 10
47.29960385381873
 20
19.450921389088553
 10
48.29960385381873
 20
19.19308612958341
 10
48.39635326853404
 20
19.16374247304323
 10
49.39635326853404
 20
18.813809110714118
 10
49.47533382885811
 20
18.78299843950948
 10
50.47533382885811
 20
18.351599522495942
 10
50.53644731776232
 20
18.323173736088993
 10
51.53644731776232
 20
17.823417102186106
 10
51.580662986350056
 20
17.80015736738978
 10
52.580662986350056
 20
17.24722786902962
 10
52.60924317404677
 20
17.230909345404875
 10
53.60924317404677
 20
16.641607465599293
 10
53.6232425593121
 20
16.63322886595009
 10
55.61627134608893
 20
15.421928506934737
 10
56.595064977347185
 20
14.845123580092512
 10
57.558797301493335
 20
14.312247549548912
 10
58.506289881666376
 20
13.838731847033664
 10
59.43638806602512
 20
13.437488497585054
 10
60.34859716981728
 20
13.118276098747835
 10
61.24394268100001
 20
12.887424456525268
 10
62.12577746851217
 20
12.748180130884002
 10
63.0
 20
12.701695214711705
 10
63.87422253148783
 20
12.748180130884002
 10
64.75605731899996
 20
12.887424456525265
 10
65.65140283018272
 20
13.118276098747838
 10
66.5636119339749
 20
13.437488497585052
 10
67.49371011833361
 20
13.838731847033664
 10
68.44120269850663
 20
14.312247549548893
 10
69.40493502265292
 20
14.845123580092572
 10
70.38372865391084
 20
15.421928506934595
 10
72.3767574406879
 20
16.633228865950088
 10
72.39075682595323
 20
16.641607465599286
 10
73.39075682595323
 20
17.23090934540487
 10
73.41933701364995
 20
17.24722786902962
 10
74.41933701364995
 20
17.800157367389776
 10
74.46355268223768
 20
17.823417102186102
 10
75.46355268223768
 20
18.32317373608899
 10
75.52466617114189
 20
18.35159952249594
 10
76.52466617114189
 20
18.782998439509477
 10
76.60364673146596
 20
18.813809110714114
 10
77.60364673146596
 20
19.163742473043225
 10
77.70039614618126
 20
19.193086129583406
 10
78.70039614618126
 20
19.450921389088553
 10
78.81283539867461
 20
19.47423822902889
 10
79.81283539867461
 20
19.63214119182094
 10
79.93628257491494
 20
19.645134312246817
 10
80.93628257491494
 20
19.69830717670409
 10
81.06371742508506
 20
19.69830717670409
 10
82.06371742508506
 20
19.64513431224682
 10
82.18716460132539
 20
19.632141191820942
 10
83.18716460132539
 20
19.47423822902889
 10
83.29960385381874
 20
19.450921389088553
 10
84.29960385381874
 20
19.193086129583406
 10
84.39635326853404
 20
19.163742473043225
 10
85.39635326853404
 20
18.813809110714114
 10
85.47533382885811
 20
18.78299843950948
 10
86.47533382885811
 20
18.35159952249595
 10
86.53644731776231
 20
18.323173736088997
 10
87.53644731776231
 20
17.823417102186113
 10
87.58066298635006
 20
17.800157367389787
 10
88.58066298635006
 20
17.247227869029626
 10
88.60924317404677
 20
17.23090934540488
 10
89.60924317404677
 20
16.64160746559929
 10
89.6232425593121
 20
16.63322886595009
 10
91.61627134608916
 20
15.421928506934599
 10
92.59506497734708
 20
14.845123580092576
 10
93.55879730149347
 20
14.312247549548838
 10
94.50628988166632
 20
13.838731847033685
 10
95.43638806602515
 20
13.437488497585045
 10
96.34859716981727
 20
13.11827609874784
 10
97.24394268100001
 20
12.887424456525272
 10
98.12577746851217
 20
12.748180130884002
 10
99.0
 20
12.701695214711705
 10
99.87422253148783
 20
12.748180130884
 10
100.75605731899995
 20
12.887424456525263
 10
101.65140283018272
 20
13.118276098747836
 10
102.56361193397491
 20
13.437488497585056
 10
103.49371011833358
 20
13.83873184703365
 10
104.44120269850674
 20
14.31224754954895
 10
105.40493502265275
 20
14.845123580092471
 10
106.38372865391074
 20
15.421928506934536
 10
108.3767574406879
 20
16.633228865950088
 10
108.39075682595323
 20
16.64160746559929
 10
109.39075682595323
 20
17.23090934540487
 10
110.60924317404677
 20
15.163231657874801
 10
109.61627134608916
 20
14.578071493065401
 10
107.6232425593121
 20
13.366771134049909
 10
107.60924317404677
 20
13.35839253440071
 10
106.60924317404677
 20
12.769090654595125
 10
106.58066298635005
 20
12.752772130970376
 10
105.58066298635005
 20
12.199842632610219
 10
105.53644731776232
 20
12.176582897813896
 10
104.53644731776232
 20
11.676826263911009
 10
104.47533382885811
 20
11.64840047750406
 10
103.47533382885811
 20
11.217001560490518
 10
103.39635326853404
 20
11.186190889285879
 10
102.39635326853404
 20
10.836257526956773
 10
102.29960385381874
 20
10.806913870416594
 10
101.29960385381874
 20
10.549078610911447
 10
101.18716460132539
 20
10.525761770971108
 10
100.18716460132539
 20
10.36785880817906
 10
100.06371742508506
 20
10.35486568775318
 10
99.06371742508506
 20
10.301692823295909
 10
98.93628257491494
 20
10.301692823295909
 10
97.93628257491494
 20
10.354865687753183
 10
97.81283539867461
 20
10.367858808179061
 10
96.81283539867461
 20
10.525761770971112
 10
96.70039614618128
 20
10.549078610911451
 10
95.70039614618128
 20
10.806913870416594
 10
95.60364673146596
 20
10.836257526956778
 10
94.60364673146596
 20
11.186190889285893
 10
94.5246661711419
 20
11.217001560490521
 10
93.5246661711419
 20
11.648400477504046
 10
93.46355268223768
 20
11.676826263911007
 10
92.46355268223768
 20
12.176582897813905
 10
92.41933701364994
 20
12.199842632610224
 10
91.41933701364994
 20
12.752772130970381
 10
91.39075682595323
 20
12.769090654595129
 10
90.39075682595323
 20
13.358392534400712
 10
90.3767574406879
 20
13.366771134049912
 10
88.38372865391074
 20
14.578071493065465
 10
87.40493502265292
 20
15.154876419907437
 10
86.44120269850653
 20
15.68775245045117
 10
85.49371011833375
 20
16.16126815296628
 10
84.56361193397485
 20
16.56251150241496
 10
83.65140283018275
 20
16.881723901252155
 10
82.75605731899995
 20
17.112575543474737
 10
81.87422253148783
 20
17.251819869116
 10
81.0
 20
17.298304785288295
 10
80.12577746851217
 20
17.251819869115998
 10
79.24394268100005
 20
17.112575543474737
 10
78.34859716981725
 20
16.881723901252155
 10
77.43638806602512
 20
16.562511502414946
 10
76.50628988166642
 20
16.161268152966343
 10
75.55879730149326
 20
15.687752450451047
 10
74.59506497734725
 20
15.154876419907525
 10
73.61627134608926
 20
14.57807149306546
 10
71.6232425593121
 20
13.366771134049909
 10
71.60924317404677
 20
13.358392534400709
 10
70.60924317404677
 20
12.769090654595125
 10
70.58066298635006
 20
12.752772130970378
 10
69.58066298635006
 20
12.19984263261022
 10
69.53644731776232
 20
12.176582897813896
 10
68.53644731776232
 20
11.676826263911009
 10
68.47533382885811
 20
11.648400477504058
 10
67.47533382885811
 20
11.21700156049052
 10
67.39635326853404
 20
11.186190889285882
 10
66.39635326853404
 20
10.836257526956775
 10
66.29960385381874
 20
10.806913870416595
 10
65.29960385381874
 20
10.54907861091145
 10
65.18716460132539
 20
10.525761770971108
 10
64.18716460132539
 20
10.36785880817906
 10
64.06371742508506
 20
10.35486568775318
 10
63.063717425085066
 20
10.301692823295909
 10
62.936282574914934
 20
10.301692823295909
 10
61.936282574914934
 20
10.35486568775318
 10
61.81283539867461
 20
10.36785880817906
 10
60.81283539867461
 20
10.525761770971108
 10
60.70039614618127
 20
10.54907861091145
 10
59.70039614618127
 20
10.806913870416595
 10
59.60364673146596
 20
10.836257526956777
 10
58.60364673146596
 20
11.18619088928589
 10
58.524666171141895
 20
11.217001560490523
 10
57.524666171141895
 20
11.648400477504055
 10
57.463552682237676
 20
11.676826263911009
 10
56.463552682237676
 20
12.176582897813901
 10
56.419337013649944
 20
12.199842632610224
 10
55.419337013649944
 20
12.752772130970381
 10
55.39075682595323
 20
12.769090654595129
 10
54.39075682595323
 20
13.358392534400712
 10
54.3767574406879
 20
13.366771134049912
 10
52.38372865391107
 20
14.578071493065266
 10
51.404935022652765
 20
15.154876419907518
 10
50.441202698506636
 20
15.687752450451107
 10
49.49371011833364
 20
16.161268152966326
 10
48.56361193397489
 20
16.56251150241495
 10
47.651402830182725
 20
16.881723901252165
 10
46.75605731899997
 20
17.112575543474733
 10
45.87422253148783
 20
17.251819869116
 10
45.00000000000001
 20
17.298304785288295
 10
44.12577746851217
 20
17.251819869115998
 10
43.24394268100003
 20
17.112575543474733
 10
42.34859716981724
 20
16.88172390125216
 10
41.43638806602515
 20
16.562511502414964
 10
40.50628988166636
 20
16.161268152966326
 10
39.558797301493364
 20
15.687752450451104
 10
38.595064977347185
 20
15.154876419907488
 10
37.61627134608893
 20
14.578071493065265
 10
36.6232425593121
 20
13.974539755884166
 10
35.623242559312104
 20
13.36677113404991
 10
35.60924317404677
 20
13.358392534400709
 10
34.60924317404677
 20
12.769090654595125
 10
34.580662986350056
 20
12.752772130970378
 10
33.580662986350056
 20
12.19984263261022
 10
33.536447317762324
 20
12.1765828978139
 10
32.536447317762324
 20
11.676826263911009
 10
32.47533382885811
 20
11.648400477504055
 10
31.47533382885811
 20
11.21700156049052
 10
31.396353268534043
 20
11.186190889285886
 10
30.396353268534043
 20
10.836257526956773
 10
30.29960385381873
 20
10.80691387041659
 10
29.29960385381873
 20
10.549078610911447
 10
29.187164601325392
 20
10.525761770971108
 10
28.187164601325392
 20
10.36785880817906
 10
28.063717425085063
 20
10.35486568775318
 10
27.063717425085063
 20
10.301692823295909
 10
26.936282574914937
 20
10.301692823295909
 10
25.936282574914937
 20
10.35486568775318
 10
25.812835398674608
 20
10.36785880817906
 10
24.812835398674608
 20
10.525761770971108
 10
24.70039614618127
 20
10.549078610911447
 10
23.70039614618127
 20
10.806913870416594
 10
23.603646731465957
 20
10.836257526956775
 10
22.603646731465957
 20
11.186190889285887
 10
22.52466617114189
 20
11.217001560490521
 10
21.52466617114189
 20
11.648400477504056
 10
21.46355268223768
 20
11.676826263911009
 10
20.46355268223768
 20
12.176582897813896
 10
20.419337013649944
 20
12.19984263261022
 10
19.419337013649944
 20
12.752772130970378
 10
19.390756825953233
 20
12.769090654595125
 10
18.390756825953233
 20
13.35839253440071
 10
18.3767574406879
 20
13.36677113404991
 10
16.383728653910854
 20
14.578071493065393
 10
15.404935022652806
 20
15.154876419907497
 10
14.44120269850664
 20
15.687752450451105
 10
13.493710118333617
 20
16.161268152966336
 10
12.56361193397487
 20
16.562511502414953
 10
11.65140283018274
 20
16.881723901252162
 10
10.756057318999973
 20
17.112575543474737
 10
9.874222531487836
 20
17.251819869115998
 10
9.0
 20
17.298304785288295
 10
8.125777468512164
 20
17.251819869115998
 10
7.243942681000027
 20
17.112575543474737
 10
6.34859716981726
 20
16.881723901252162
 10
5.436388066025125
 20
16.562511502414953
 10
4.506289881666389
 20
16.16126815296634
 10
3.5587973014933603
 20
15.687752450451105
 10
2.595064977347159
 20
15.154876419907474
 10
1.6162713460890656
 20
14.578071493065348
 10
0.6232425593121005
 20
13.974539755884168
 10
-0.6232425593121005
 20
16.025460244115834
  0
LWPOLYLINE
  5
36
330
17
100
AcDbEntity
  8
PATH_WAVE_N
100
AcDbPolyline
 90
319
 70
1
 10
0.3767574406879023
 20
46.63322886595009
 10
0.39075682595323025
 20
46.641607465599286
 10
1.3907568259532304
 20
47.230909345404875
 10
1.4193370136499448
 20
47.24722786902962
 10
2.419337013649945
 20
47.80015736738978
 10
2.463552682237678
 20
47.823417102186106
 10
3.463552682237678
 20
48.323173736089
 10
3.524666171141894
 20
48.351599522495945
 10
4.524666171141894
 20
48.78299843950948
 10
4.6036467314659575
 20
48.81380911071411
 10
5.6036467314659575
 20
49.16374247304322
 10
5.700396146181263
 20
49.193086129583406
 10
6.700396146181263
 20
49.450921389088556
 10
6.812835398674616
 20
49.4742382290289
 10
7.812835398674616
 20
49.63214119182094
 10
7.936282574914935
 20
49.64513431224682
 10
8.936282574914935
 20
49.69830717670409
 10
9.063717425085065
 20
49.69830717670409
 10
10.063717425085065
 20
49.64513431224682
 10
10.187164601325385
 20
49.63214119182094
 10
11.187164601325385
 20
49.4742382290289
 10
11.299603853818736
 20
49.450921389088556
 10
12.299603853818736
 20
49.193086129583406
 10
12.396353268534043
 20
49.16374247304322
 10
13.396353268534043
 20
48.81380911071411
 10
13.475333828858107
 20
48.78299843950948
 10
14.475333828858107
 20
48.351599522495945
 10
14.536447317762322
 20
48.323173736089
 10
15.536447317762322
 20
47.823417102186106
 10
15.580662986350054
 20
47.80015736738978
 10
16.580662986350056
 20
47.24722786902962
 10
16.60924317404677
 20
47.230909345404875
 10
17.60924317404677
 20
46.641607465599286
 10
17.623242559312096
 20
46.63322886595009
 10
19.616271346088915
 20
45.42192850693475
 10
20.595064977347246
 20
44.845123580092476
 10
21.55879730149333
 20
44.312247549548914
 10
22.50628988166636
 20
43.83873184703368
 10
23.436388066025152
 20
43.437488497585036
 10
24.348597169817225
 20
43.118276098747856
 10
25.24394268100002
 20
42.88742445652527
 10
26.12577746851219
 20
42.748180130884
 10
27.0
 20
42.701695214711705
 10
27.87422253148781
 20
42.748180130884
 10
28.756057319
 20
42.88742445652527
 10
29.65140283018273
 20
43.118276098747835
 10
30.563611933974915
 20
43.437488497585065
 10
31.493710118333567
 20
43.838731847033635
 10
32.441202698506736
 20
44.31224754954895
 10
33.40493502265281
 20
44.845123580092505
 10
34.38372865391097
 20
45.42192850693468
 10
36.3767574406879
 20
46.63322886595009
 10
36.39075682595323
 20
46.641607465599286
 10
37.39075682595323
 20
47.23090934540487
 10
37.41933701364994
 20
47.247227869029615
 10
38.41933701364994
 20
47.80015736738978
 10
38.463552682237676
 20
47.823417102186106
 10
39.463552682237676
 20
48.323173736089
 10
39.524666171141895
 20
48.351599522495945
 10
40.524666171141895
 20
48.78299843950948
 10
40.60364673146596
 20
48.81380911071411
 10
41.60364673146596
 20
49.16374247304322
 10
41.70039614618127
 20
49.193086129583406
 10
42.70039614618127
 20
49.45092138908855
 10
42.81283539867461
 20
49.474238229028884
 10
43.81283539867461
 20
49.632141191820935
 10
43.936282574914934
 20
49.64513431224682
 10
44.936282574914934
 20
49.69830717670409
 10
45.063717425085066
 20
49.69830717670409
 10
46.063717425085066
 20
49.64513431224682
 10
46.18716460132539
 20
49.632141191820935
 10
47.18716460132539
 20
49.474238229028884
 10
47.299603853818724
 20
49.45092138908855
 10
48.299603853818724
 20
49.19308612958341
 10
48.39635326853404
 20
49.16374247304323
 10
49.39635326853404
 20
48.81380911071412
 10
49.47533382885812
 20
48.782998439509484
 10
50.47533382885812
 20
48.35159952249594
 10
50.53644731776232
 20
48.32317373608899
 10
51.53644731776232
 20
47.823417102186106
 10
51.580662986350056
 20
47.80015736738978
 10
52.580662986350056
 20
47.24722786902962
 10
52.60924317404677
 20
47.230909345404875
 10
53.60924317404677
 20
46.641607465599286
 10
53.6232425593121
 20
46.63322886595009
 10
55.61627134608903
 20
45.42192850693468
 10
56.59506497734708
 20
44.845123580092576
 10
57.55879730149334
 20
44.31224754954891
 10
58.506289881666454
 20
43.83873184703363
 10
59.43638806602511
 20
43.43748849758505
 10
60.348597169817225
 20
43.118276098747856
 10
61.24394268100002
 20
42.88742445652527
 10
62.12577746851219
 20
42.748180130884
 10
63.0
 20
42.701695214711705
 10
63.87422253148781
 20
42.748180130884
 10
64.75605731899996
 20
42.88742445652526
 10
65.65140283018276
 20
43.11827609874785
 10
66.56361193397487
 20
43.43748849758504
 10
67.49371011833358
 20
43.83873184703365
 10
68.44120269850681
 20
44.312247549548985
 10
69.40493502265271
 20
44.84512358009244
 10
70.38372865391074
 20
45.421928506934535
 10
71.3767574406879
 20
46.025460244115834
 10
72.3767574406879
 20
46.63322886595009
 10
72.39075682595323
 20
46.641607465599286
 10
73.39075682595323
 20
47.23090934540487
 10
73.41933701364994
 20
47.247227869029615
 10
74.41933701364994
 20
47.80015736738978
 10
74.46355268223769
 20
47.823417102186106
 10
75.46355268223769
 20
48.32317373608899
 10
75.52466617114189
 20
48.35159952249594
 10
76.52466617114189
 20
48.78299843950948
 10
76.60364673146596
 20
48.81380911071411
 10
77.60364673146596
 20
49.16374247304322
 10
77.70039614618126
 20
49.193086129583406
 10
78.70039614618126
 20
49.450921389088556
 10
78.81283539867462
 20
49.4742382290289
 10
79.81283539867462
 20
49.63214119182094
 10
79.93628257491494
 20
49.64513431224682
 10
80.93628257491494
 20
49.69830717670409
 10
81.06371742508506
 20
49.69830717670409
 10
82.06371742508506
 20
49.645134312246824
 10
82.1871646013254
 20
49.63214119182094
 10
83.1871646013254
 20
49.474238229028884
 10
83.29960385381872
 20
49.45092138908855
 10
84.29960385381872
 20
49.193086129583406
 10
84.39635326853404
 20
49.16374247304322
 10
85.39635326853404
 20
48.81380911071411
 10
85.47533382885811
 20
48.78299843950948
 10
86.47533382885811
 20
48.351599522495945
 10
86.53644731776231
 20
48.323173736089
 10
87.53644731776231
 20
47.82341710218611
 10
87.58066298635005
 20
47.80015736738979
 10
88.58066298635005
 20
47.24722786902963
 10
88.60924317404677
 20
47.23090934540488
 10
89.60924317404677
 20
46.64160746559929
 10
89.6232425593121
 20
46.633228865950095
 10
90.6232425593121
 20
46.025460244115834
 10
91.61627134608926
 20
45.42192850693454
 10
92.59506497734729
 20
44.84512358009245
 10
93.55879730149333
 20
44.312247549548914
 10
94.5062898816663
 20
43.83873184703369
 10
95.43638806602515
 20
43.437488497585036
 10
96.34859716981725
 20
43.11827609874784
 10
97.24394268100005
 20
42.88742445652526
 10
98.12577746851214
 20
42.748180130884
 10
99.0
 20
42.701695214711705
 10
99.87422253148786
 20
42.748180130884
 10
100.75605731899995
 20
42.88742445652526
 10
101.65140283018272
 20
43.118276098747835
 10
102.56361193397487
 20
43.43748849758504
 10
103.49371011833358
 20
43.83873184703365
 10
104.44120269850681
 20
44.312247549548985
 10
105.40493502265271
 20
44.84512358009244
 10
106.38372865391074
 20
45.421928506934535
 10
107.3767574406879
 20
46.025460244115834
 10
108.3767574406879
 20
46.63322886595009
 10
108.39075682595323
 20
46.641607465599286
 10
109.39075682595323
 20
47.23090934540487
 10
110.60924317404677
 20
45.1632316578748
 10
109.61627134608926
 20
44.57807149306546
 10
108.6232425593121
 20
43.974539755884166
 10
107.6232425593121
 20
43.366771134049905
 10
107.60924317404677
 20
43.35839253440071
 10
106.60924317404677
 20
42.769090654595125
 10
106.58066298635005
 20
42.75277213097038
 10
105.58066298635005
 20
42.19984263261022
 10
105.53644731776232
 20
42.176582897813894
 10
104.53644731776232
 20
41.676826263911
 10
104.47533382885811
 20
41.648400477504055
 10
103.47533382885811
 20
41.217001560490516
 10
103.39635326853403
 20
41.186190889285875
 10
102.39635326853403
 20
40.83625752695677
 10
102.29960385381872
 20
40.806913870416594
 10
101.29960385381872
 20
40.54907861091145
 10
101.18716460132539
 20
40.525761770971116
 10
100.18716460132539
 20
40.367858808179065
 10
100.06371742508506
 20
40.35486568775318
 10
99.06371742508506
 20
40.30169282329591
 10
98.93628257491494
 20
40.30169282329591
 10
97.93628257491494
 20
40.35486568775318
 10
97.81283539867461
 20
40.367858808179065
 10
96.81283539867461
 20
40.525761770971116
 10
96.70039614618128
 20
40.54907861091145
 10
95.70039614618128
 20
40.806913870416594
 10
95.60364673146596
 20
40.83625752695678
 10
94.60364673146596
 20
41.18619088928589
 10
94.52466617114189
 20
41.21700156049052
 10
93.52466617114189
 20
41.648400477504055
 10
93.46355268223768
 20
41.67682626391101
 10
92.46355268223768
 20
42.17658289781391
 10
92.41933701364995
 20
42.19984263261023
 10
91.41933701364995
 20
42.752772130970385
 10
91.39075682595323
 20
42.76909065459513
 10
90.39075682595323
 20
43.358392534400714
 10
90.3767574406879
 20
43.36677113404991
 10
89.3767574406879
 20
43.974539755884166
 10
88.38372865391074
 20
44.57807149306547
 10
87.40493502265271
 20
45.154876419907566
 10
86.44120269850669
 20
45.68775245045109
 10
85.4937101183337
 20
46.1612681529663
 10
84.56361193397485
 20
46.562511502414964
 10
83.65140283018275
 20
46.88172390125216
 10
82.75605731899998
 20
47.11257554347473
 10
81.87422253148785
 20
47.251819869116005
 10
81.0
 20
47.298304785288295
 10
80.12577746851218
 20
47.251819869116
 10
79.24394268100004
 20
47.11257554347474
 10
78.34859716981722
 20
46.881723901252144
 10
77.43638806602516
 20
46.562511502414964
 10
76.5062898816663
 20
46.1612681529663
 10
75.55879730149347
 20
45.687752450451164
 10
74.59506497734708
 20
45.154876419907424
 10
73.61627134608926
 20
44.57807149306546
 10
72.6232425593121
 20
43.974539755884166
 10
71.6232425593121
 20
43.366771134049905
 10
71.60924317404677
 20
43.35839253440071
 10
70.60924317404677
 20
42.769090654595125
 10
70.58066298635005
 20
42.75277213097038
 10
69.58066298635005
 20
42.19984263261022
 10
69.53644731776232
 20
42.176582897813894
 10
68.53644731776232
 20
41.676826263911
 10
68.47533382885811
 20
41.648400477504055
 10
67.47533382885811
 20
41.217001560490516
 10
67.39635326853403
 20
41.186190889285875
 10
66.39635326853403
 20
40.83625752695677
 10
66.29960385381874
 20
40.806913870416594
 10
65.29960385381874
 20
40.549078610911444
 10
65.18716460132538
 20
40.5257617709711
 10
64.18716460132538
 20
40.36785880817906
 10
64.06371742508506
 20
40.35486568775318
 10
63.063717425085066
 20
40.30169282329591
 10
62.936282574914934
 20
40.30169282329591
 10
61.936282574914934
 20
40.35486568775318
 10
61.812835398674615
 20
40.36785880817906
 10
60.812835398674615
 20
40.5257617709711
 10
60.70039614618126
 20
40.549078610911444
 10
59.70039614618126
 20
40.806913870416594
 10
59.60364673146596
 20
40.83625752695678
 10
58.60364673146596
 20
41.18619088928589
 10
58.524666171141895
 20
41.21700156049052
 10
57.524666171141895
 20
41.648400477504055
 10
57.463552682237676
 20
41.676826263911
 10
56.463552682237676
 20
42.176582897813894
 10
56.41933701364994
 20
42.19984263261022
 10
55.41933701364994
 20
42.752772130970385
 10
55.39075682595323
 20
42.76909065459513
 10
54.39075682595323
 20
43.358392534400714
 10
54.3767574406879
 20
43.36677113404991
 10
52.38372865391097
 20
44.57807149306532
 10
51.40493502265281
 20
45.154876419907495
 10
50.44120269850667
 20
45.687752450451086
 10
49.49371011833368
 20
46.1612681529663
 10
48.563611933974805
 20
46.562511502414985
 10
47.65140283018275
 20
46.881723901252165
 10
46.75605731899996
 20
47.11257554347474
 10
45.87422253148787
 20
47.251819869116
 10
45.0
 20
47.298304785288295
 10
44.12577746851213
 20
47.251819869116
 10
43.243942681000064
 20
47.11257554347474
 10
42.34859716981724
 20
46.88172390125215
 10
41.43638806602511
 20
46.56251150241495
 10
40.506289881666454
 20
46.16126815296637
 10
39.55879730149334
 20
45.68775245045109
 10
38.59506497734708
 20
45.154876419907424
 10
37.61627134608903
 20
44.57807149306532
 10
35.6232425593121
 20
43.36677113404991
 10
35.60924317404677
 20
43.358392534400714
 10
34.60924317404677
 20
42.769090654595125
 10
34.580662986350056
 20
42.75277213097038
 10
33.580662986350056
 20
42.19984263261022
 10
33.536447317762324
 20
42.176582897813894
 10
32.536447317762324
 20
41.676826263911
 10
32.475333828858105
 20
41.648400477504055
 10
31.475333828858105
 20
41.21700156049052
 10
31.39635326853405
 20
41.18619088928589
 10
30.39635326853405
 20
40.83625752695677
 10
30.29960385381873
 20
40.80691387041659
 10
29.29960385381873
 20
40.549078610911444
 10
29.187164601325385
 20
40.5257617709711
 10
28.187164601325385
 20
40.36785880817906
 10
28.063717425085066
 20
40.35486568775318
 10
27.063717425085066
 20
40.30169282329591
 10
26.936282574914934
 20
40.30169282329591
 10
25.936282574914934
 20
40.35486568775318
 10
25.812835398674615
 20
40.36785880817906
 10
24.812835398674615
 20
40.5257617709711
 10
24.700396146181262
 20
40.549078610911444
 10
23.700396146181262
 20
40.806913870416594
 10
23.603646731465957
 20
40.83625752695678
 10
22.603646731465957
 20
41.18619088928589
 10
22.524666171141888
 20
41.21700156049052
 10
21.524666171141888
 20
41.64840047750406
 10
21.463552682237683
 20
41.67682626391101
 10
20.463552682237683
 20
42.176582897813894
 10
20.419337013649944
 20
42.19984263261022
 10
19.419337013649944
 20
42.75277213097038
 10
19.39075682595323
 20
42.769090654595125
 10
18.39075682595323
 20
43.358392534400714
 10
18.376757440687904
 20
43.36677113404991
 10
16.383728653911085
 20
44.57807149306525
 10
15.404935022652754
 20
45.15487641990753
 10
14.44120269850674
 20
45.68775245045105
 10
13.493710118333567
 20
46.161268152966365
 10
12.563611933974878
 20
46.56251150241495
 10
11.651402830182771
 20
46.88172390125215
 10
10.756057318999984
 20
47.11257554347473
 10
9.87422253148781
 20
47.251819869116
 10
9.0
 20
47.298304785288295
 10
8.12577746851219
 20
47.251819869116
 10
7.2439426810000205
 20
47.11257554347473
 10
6.348597169817226
 20
46.88172390125215
 10
5.436388066025118
 20
46.56251150241495
 10
4.506289881666438
 20
46.161268152966365
 10
3.5587973014932706
 20
45.68775245045106
 10
2.5950649773472385
 20
45.154876419907524
 10
1.6162713460890017
 20
44.57807149306531
 10
0.6232425593120977
 20
43.974539755884166
 10
-0.6232425593120977
 20
46.025460244115834
  0
LWPOLYLINE
  5
38
330
17
100
AcDbEntity
  8
PATH_CROSS
100
AcDbPolyline
 90
4
 70
1
 10
53.8
 20
60.0
 10
56.2
 20
60.0
 10
56.2
 20
0.0
 10
53.8
 20
0.0
  0
LWPOLYLINE
  5
3A
330
17
100
AcDbEntity
  8
SEWER
100
AcDbPolyline
 90
4
 70
1
 10
89.4
 20
0.0
 10
89.4
 20
60.0
 10
88.0
 20
60.0
 10
88.0
 20
0.0
  0
POINT
  5
3C
330
17
100
AcDbEntity
  8
ДЕРЕН КРОВАВО-КРАСНЫЙ
100
AcDbPoint
 10
0.8670789118854594
 20
5.324859597569471
 30
0.0
  0
POINT
  5
3D
330
17
100
AcDbEntity
  8
ДЕРЕН КРОВАВО-КРАСНЫЙ
100
AcDbPoint
 10
1.974749544565881
 20
5.985760578100471
 30
0.0
  0
POINT
  5
3E
330
17
100
AcDbEntity
  8
ДЕРЕН КРОВАВО-КРАСНЫЙ
100
AcDbPoint
 10
3.088578354416987
 20
6.613411442814098
 30
0.0
  0
POINT
  5
3F
330
17
100
AcDbEntity
  8
ДЕРЕН КРОВАВО-КРАСНЫЙ
100
AcDbPoint
 10
4.217156268509684
 20
7.187749236819773
 30
0.0
  0
POINT
  5
40
330
17
100
AcDbEntity
  8
ДЕРЕН КРОВАВО-КРАСНЫЙ
100
AcDbPoint
 10
5.3712198294059235
 20
7.675555766775091
 30
0.0
  0
POINT
  5
41
330
17
100
AcDbEntity
  8
ДЕРЕН КРОВАВО-КРАСНЫЙ
100
AcDbPoint
 10
6.551139604474994
 20
8.053587134163587
 30
0.0
  0
POINT
  5
42
330
17
100
AcDbEntity
  8
ДЕРЕН КРОВАВО-КРАСНЫЙ
100
AcDbPoint
 10
7.752394464096668
 20
8.300383721736269
 30
0.0
  0
POINT
  5
43
330
17
100
AcDbEntity
  8
ДЕРЕН КРОВАВО-КРАСНЫЙ
100
AcDbPoint
 10
8.96579574855125
 20
8.398061659932123
 30
0.0
  0
POINT
  5
44
330
17
100
AcDbEntity
  8
ДЕРЕН КРОВАВО-КРАСНЫЙ
100
AcDbPoint
 10
10.179821784194411
 20
8.311182770217803
 30
0.0
  0
POINT
  5
45
330
17
100
AcDbEntity
  8
ДЕРЕН КРОВАВО-КРАСНЫЙ
100
AcDbPoint
 10
11.381572864878356
 20
8.070919034452801
 30
0.0
  0
POINT
  5
46
330
17
100
AcDbEntity
  8
ДЕРЕН КРОВАВО-КРАСНЫЙ
100
AcDbPoint
 10
12.562613282074519
 20
7.6986414773826235
 30
0.0
  0
POINT
  5
47
330
17
100
AcDbEntity
  8
ДЕРЕН КРОВАВО-КРАСНЫЙ
100
AcDbPoint
 10
13.718869338602312
 20
7.217811545775136
 30
0.0
  0
POINT
  5
48
330
17
100
AcDbEntity
  8
ДЕРЕН КРОВАВО-КРАСНЫЙ
100
AcDbPoint
 10
14.848989941431505
 20
6.647958996456356
 30
0.0
  0
POINT
  5
49
330
17
100
AcDbEntity
  8
ДЕРЕН КРОВАВО-КРАСНЫЙ
100
AcDbPoint
 10
15.963242560377601
 20
6.0223079142678095
 30
0.0
  0
POINT
  5
4A
330
17
100
AcDbEntity
  8
ДЕРЕН КРОВАВО-КРАСНЫЙ
100
AcDbPoint
 10
17.070753436493725
 20
5.362643327625181
 30
0.0
  0
POINT
  5
4B
330
17
100
AcDbEntity
  8
ДЕРЕН КРОВАВО-КРАСНЫЙ
100
AcDbPoint
 10
18.18129933583993
 20
4.6876881947883975
 30
0.0
  0
POINT
  5
4C
330
17
100
AcDbEntity
  8
ДЕРЕН КРОВАВО-КРАСНЫЙ
100
AcDbPoint
 10
19.304798746703913
 20
4.01617995951119
 30
0.0
  0
POINT
  5
4D
330
17
100
AcDbEntity
  8
ДЕРЕН КРОВАВО-КРАСНЫЙ
100
AcDbPoint
 10
20.454385502078775
 20
3.366099352675187
 30
0.0
  0
POINT
  5
4E
330
17
100
AcDbEntity
  8
ДЕРЕН КРОВАВО-КРАСНЫЙ
100
AcDbPoint
 10
21.64083376262331
 20
2.759141039495724
 30
0.0
  0
POINT
  5
4F
330
17
100
AcDbEntity
  8
ДЕРЕН КРОВАВО-КРАСНЫЙ
100
AcDbPoint
 10
22.876544070058358
 20
2.2266291141541705
 30
0.0
  0
POINT
  5
50
330
17
100
AcDbEntity
  8
ДЕРЕН КРОВАВО-КРАСНЫЙ
100
AcDbPoint
 10
24.168295108377656
 20
1.8059544207679323
 30
0.0
  0
POINT
  5
51
330
17
100
AcDbEntity
  8
ДЕРЕН КРОВАВО-КРАСНЫЙ
100
AcDbPoint
 10
25.508673400452643
 20
1.5233480832025124
 30
0.0
  0
POINT
  5
52
330
17
100
AcDbEntity
  8
ДЕРЕН КРОВАВО-КРАСНЫЙ
100
AcDbPoint
 10
26.883379259735058
 20
1.405869526572154
 30
0.0
  0
POINT
  5
53
330
17
100
AcDbEntity
  8
ДЕРЕН КРОВАВО-КРАСНЫЙ
100
AcDbPoint
 10
28.260965044781543
 20
1.4872607234480135
 30
0.0
  0
POINT
  5
54
330
17
100
AcDbEntity
  8
ДЕРЕН КРОВАВО-КРАСНЫЙ
100
AcDbPoint
 10
29.60982990795758
 20
1.748690226338442
 30
0.0
  0
POINT
  5
55
330
17
100
AcDbEntity
  8
ДЕРЕН КРОВАВО-КРАСНЫЙ
100
AcDbPoint
 10
30.907512048849984
 20
2.1508582700650445
 30
0.0
  0
POINT
  5
56
330
17
100
AcDbEntity
  8
ДЕРЕН КРОВАВО-КРАСНЫЙ
100
AcDbPoint
 10
32.153588091906954
 20
2.6632113898103733
 30
0.0
  0
POINT
  5
57
330
17
100
AcDbEntity
  8
ДЕРЕН КРОВАВО-КРАСНЫЙ
100
AcDbPoint
 10
33.34865072782949
 20
3.257273942583414
 30
0.0
  0
POINT
  5
58
330
17
100
AcDbEntity
  8
ДЕРЕН КРОВАВО-КРАСНЫЙ
100
AcDbPoint
 10
34.50293707024807
 20
3.9028962164119148
 30
0.0
  0
POINT
  5
59
330
17
100
AcDbEntity
  8
ДЕРЕН КРОВАВО-КРАСНЫЙ
100
AcDbPoint
 10
35.6302097258133
 20
4.573130349743122
 30
0.0
  0
POINT
  5
5A
330
17
100
AcDbEntity
  8
ДЕРЕН КРОВАВО-КРАСНЫЙ
100
AcDbPoint
 10
36.7420048784186
 20
5.248843524622062
 30
0.0
  0
POINT
  5
5B
330
17
100
AcDbEntity
  8
ДЕРЕН КРОВАВО-КРАСНЫЙ
100
AcDbPoint
 10
37.85034317310653
 20
5.91244395648102
 30
0.0
  0
POINT
  5
5C
330
17
100
AcDbEntity
  8
ДЕРЕН КРОВАВО-КРАСНЫЙ
100
AcDbPoint
 10
38.963706709070955
 20
6.544330881599779
 30
0.0
  0
POINT
  5
5D
330
17
100
AcDbEntity
  8
ДЕРЕН КРОВАВО-КРАСНЫЙ
100
AcDbPoint
 10
40.090693393774565
 20
7.12442921018677
 30
0.0
  0
POINT
  5
5E
330
17
100
AcDbEntity
  8
ДЕРЕН КРОВАВО-КРАСНЫЙ
100
AcDbPoint
 10
41.23886993305966
 20
7.629429740328681
 30
0.0
  0
POINT
  5
5F
330
17
100
AcDbEntity
  8
ДЕРЕН КРОВАВО-КРАСНЫЙ
100
AcDbPoint
 10
42.41655112359574
 20
8.018990550356923
 30
0.0
  0
POINT
  5
60
330
17
100
AcDbEntity
  8
ДЕРЕН КРОВАВО-КРАСНЫЙ
100
AcDbPoint
 10
43.61680475271302
 20
8.278886624633198
 30
0.0
  0
POINT
  5
61
330
17
100
AcDbEntity
  8
ДЕРЕН КРОВАВО-КРАСНЫЙ
100
AcDbPoint
 10
44.82897662223221
 20
8.39039911885573
 30
0.0
  0
POINT
  5
62
330
17
100
AcDbEntity
  8
ДЕРЕН КРОВАВО-КРАСНЫЙ
100
AcDbPoint
 10
46.04427265734476
 20
8.332882634378933
 30
0.0
  0
POINT
  5
63
330
17
100
AcDbEntity
  8
ДЕРЕН КРОВАВО-КРАСНЫЙ
100
AcDbPoint
 10
47.2460538789538
 20
8.105886499971229
 30
0.0
  0
POINT
  5
64
330
17
100
AcDbEntity
  8
ДЕРЕН КРОВАВО-КРАСНЫЙ
100
AcDbPoint
 10
48.430294445684645
 20
7.744858694805005
 30
0.0
  0
POINT
  5
65
330
17
100
AcDbEntity
  8
ДЕРЕН КРОВАВО-КРАСНЫЙ
100
AcDbPoint
 10
49.58896512413128
 20
7.273732807879113
 30
0.0
  0
POINT
  5
66
330
17
100
AcDbEntity
  8
ДЕРЕН КРОВАВО-КРАСНЫЙ
100
AcDbPoint
 10
50.724134547626065
 20
6.717068773603861
 30
0.0
  0
POINT
  5
67
330
17
100
AcDbEntity
  8
ДЕРЕН КРОВАВО-КРАСНЫЙ
100
AcDbPoint
 10
51.839230511999546
 20
6.0954087989000785
 30
0.0
  0
POINT
  5
68
330
17
100
AcDbEntity
  8
ДЕРЕН КРОВАВО-КРАСНЫЙ
100
AcDbPoint
 10
52.94670076187985
 20
5.438041047141202
 30
0.0
  0
POINT
  5
69
330
17
100
AcDbEntity
  8
ДЕРЕН КРОВАВО-КРАСНЫЙ
100
AcDbPoint
 10
57.50545912440752
 20
2.826698729401812
 30
0.0
  0
POINT
  5
6A
330
17
100
AcDbEntity
  8
ДЕРЕН КРОВАВО-КРАСНЫЙ
100
AcDbPoint
 10
58.73389682667763
 20
2.2805204313858707
 30
0.0
  0
POINT
  5
6B
330
17
100
AcDbEntity
  8
ДЕРЕН КРОВАВО-КРАСНЫЙ
100
AcDbPoint
 10
60.01943896310667
 20
1.8444870186867597
 30
0.0
  0
POINT
  5
6C
330
17
100
AcDbEntity
  8
ДЕРЕН КРОВАВО-КРАСНЫЙ
100
AcDbPoint
 10
61.3560873038077
 20
1.5474196105178066
 30
0.0
  0
POINT
  5
6D
330
17
100
AcDbEntity
  8
ДЕРЕН КРОВАВО-КРАСНЫЙ
100
AcDbPoint
 10
62.72788988547407
 20
1.4138226396029911
 30
0.0
  0
POINT
  5
6E
330
17
100
AcDbEntity
  8
ДЕРЕН КРОВАВО-КРАСНЫЙ
100
AcDbPoint
 10
64.1073613381594
 20
1.4633722935954476
 30
0.0
  0
POINT
  5
6F
330
17
100
AcDbEntity
  8
ДЕРЕН КРОВАВО-КРАСНЫЙ
100
AcDbPoint
 10
65.4599492152063
 20
1.7101259770678325
 30
0.0
  0
POINT
  5
70
330
17
100
AcDbEntity
  8
ДЕРЕН КРОВАВО-КРАСНЫЙ
100
AcDbPoint
 10
66.7635249568351
 20
2.1004208224466048
 30
0.0
  0
POINT
  5
71
330
17
100
AcDbEntity
  8
ДЕРЕН КРОВАВО-КРАСНЫЙ
100
AcDbPoint
 10
68.01470354246632
 20
2.6031995673981356
 30
0.0
  0
POINT
  5
72
330
17
100
AcDbEntity
  8
ДЕРЕН КРОВАВО-КРАСНЫЙ
100
AcDbPoint
 10
69.21598869455224
 20
3.1872946200850096
 30
0.0
  0
POINT
  5
73
330
17
100
AcDbEntity
  8
ДЕРЕН КРОВАВО-КРАСНЫЙ
100
AcDbPoint
 10
70.37475473285954
 20
3.8273840872121165
 30
0.0
  0
POINT
  5
74
330
17
100
AcDbEntity
  8
ДЕРЕН КРОВАВО-КРАСНЫЙ
100
AcDbPoint
 10
71.5041137094314
 20
4.496496934257502
 30
0.0
  0
POINT
  5
75
330
17
100
AcDbEntity
  8
ДЕРЕН КРОВАВО-КРАСНЫЙ
100
AcDbPoint
 10
72.61693084495168
 20
5.172827451674621
 30
0.0
  0
POINT
  5
76
330
17
100
AcDbEntity
  8
ДЕРЕН КРОВАВО-КРАСНЫЙ
100
AcDbPoint
 10
73.72433808606849
 20
5.838188932587112
 30
0.0
  0
POINT
  5
77
330
17
100
AcDbEntity
  8
ДЕРЕН КРОВАВО-КРАСНЫЙ
100
AcDbPoint
 10
74.83846674035739
 20
6.47507196520301
 30
0.0
  0
POINT
  5
78
330
17
100
AcDbEntity
  8
ДЕРЕН КРОВАВО-КРАСНЫЙ
100
AcDbPoint
 10
75.96421224875543
 20
7.06114541672933
 30
0.0
  0
POINT
  5
79
330
17
100
AcDbEntity
  8
ДЕРЕН КРОВАВО-КРАСНЫЙ
100
AcDbPoint
 10
77.10966404515695
 20
7.575245175532473
 30
0.0
  0
POINT
  5
7A
330
17
100
AcDbEntity
  8
ДЕРЕН КРОВАВО-КРАСНЫЙ
100
AcDbPoint
 10
78.28194200063338
 20
7.984482991670529
 30
0.0
  0
POINT
  5
7B
330
17
100
AcDbEntity
  8
ДЕРЕН КРОВАВО-КРАСНЫЙ
100
AcDbPoint
 10
79.47990493094966
 20
8.257305693188396
 30
0.0
  0
POINT
  5
7C
330
17
100
AcDbEntity
  8
ДЕРЕН КРОВАВО-КРАСНЫЙ
100
AcDbPoint
 10
80.69214902189998
 20
8.38288166594423
 30
0.0
  0
POINT
  5
7D
330
17
100
AcDbEntity
  8
ДЕРЕН КРОВАВО-КРАСНЫЙ
100
AcDbPoint
 10
81.90841016585657
 20
8.351557925851594
 30
0.0
  0
POINT
  5
7E
330
17
100
AcDbEntity
  8
ДЕРЕН КРОВАВО-КРАСНЫЙ
100
AcDbPoint
 10
83.11249801194394
 20
8.140462996682466
 30
0.0
  0
POINT
  5
7F
330
17
100
AcDbEntity
  8
ДЕРЕН КРОВАВО-КРАСНЫЙ
100
AcDbPoint
 10
84.29658272531682
 20
7.791629327103716
 30
0.0
  0
POINT
  5
80
330
17
100
AcDbEntity
  8
ДЕРЕН КРОВАВО-КРАСНЫЙ
100
AcDbPoint
 10
85.45907691206459
 20
7.329691360321841
 30
0.0
  0
POINT
  5
81
330
17
100
AcDbEntity
  8
ДЕРЕН КРОВАВО-КРАСНЫЙ
100
AcDbPoint
 10
86.5965314901897
 20
6.780955346279368
 30
0.0
  0
POINT
  5
82
330
17
100
AcDbEntity
  8
ДЕРЕН КРОВАВО-КРАСНЫЙ
100
AcDbPoint
 10
87.71522336920634
 20
6.168518016200513
 30
0.0
  0
POINT
  5
83
330
17
100
AcDbEntity
  8
ДЕРЕН КРОВАВО-КРАСНЫЙ
100
AcDbPoint
 10
89.93115126890609
 20
4.839720340683283
 30
0.0
  0
POINT
  5
84
330
17
100
AcDbEntity
  8
ДЕРЕН КРОВАВО-КРАСНЫЙ
100
AcDbPoint
 10
91.05135107897016
 20
4.165537072347297
 30
0.0
  0
POINT
  5
85
330
17
100
AcDbEntity
  8
ДЕРЕН КРОВАВО-КРАСНЫЙ
100
AcDbPoint
 10
92.19376059949784
 20
3.5101820167035447
 30
0.0
  0
POINT
  5
86
330
17
100
AcDbEntity
  8
ДЕРЕН КРОВАВО-КРАСНЫЙ
100
AcDbPoint
 10
93.3701032018186
 20
2.8942924244644805
 30
0.0
  0
POINT
  5
87
330
17
100
AcDbEntity
  8
ДЕРЕН КРОВАВО-КРАСНЫЙ
100
AcDbPoint
 10
94.59374340777364
 20
2.340802577515136
 30
0.0
  0
POINT
  5
88
330
17
100
AcDbEntity
  8
ДЕРЕН КРОВАВО-КРАСНЫЙ
100
AcDbPoint
 10
95.87060510250119
 20
1.8831082448702434
 30
0.0
  0
POINT
  5
89
330
17
100
AcDbEntity
  8
ДЕРЕН КРОВАВО-КРАСНЫЙ
100
AcDbPoint
 10
97.20323238137924
 20
1.5716498264254262
 30
0.0
  0
POINT
  5
8A
330
17
100
AcDbEntity
  8
ДЕРЕН КРОВАВО-КРАСНЫЙ
100
AcDbPoint
 10
98.5724123640685
 20
1.4219206037589158
 30
0.0
  0
POINT
  5
8B
330
17
100
AcDbEntity
  8
ДЕРЕН КРОВАВО-КРАСНЫЙ
100
AcDbPoint
 10
99.9526163037133
 20
1.450310205822102
 30
0.0
  0
POINT
  5
8C
330
17
100
AcDbEntity
  8
ДЕРЕН КРОВАВО-КРАСНЫЙ
100
AcDbPoint
 10
101.31003375209733
 20
1.6716744368831455
 30
0.0
  0
POINT
  5
8D
330
17
100
AcDbEntity
  8
ДЕРЕН КРОВАВО-КРАСНЫЙ
100
AcDbPoint
 10
102.62152370553333
 20
2.0507329808949306
 30
0.0
  0
POINT
  5
8E
330
17
100
AcDbEntity
  8
ДЕРЕН КРОВАВО-КРАСНЫЙ
100
AcDbPoint
 10
103.87580345162539
 20
2.5432252297951656
 30
0.0
  0
POINT
  5
8F
330
17
100
AcDbEntity
  8
ДЕРЕН КРОВАВО-КРАСНЫЙ
100
AcDbPoint
 10
105.08181906685886
 20
3.1201815774156936
 30
0.0
  0
POINT
  5
90
330
17
100
AcDbEntity
  8
ДЕРЕН КРОВАВО-КРАСНЫЙ
100
AcDbPoint
 10
106.24577665615587
 20
3.753265470679409
 30
0.0
  0
POINT
  5
91
330
17
100
AcDbEntity
  8
ДЕРЕН КРОВАВО-КРАСНЫЙ
100
AcDbPoint
 10
107.37801645399148
 20
4.419865546123956
 30
0.0
  0
POINT
  5
92
330
17
100
AcDbEntity
  8
ДЕРЕН КРОВАВО-КРАСНЫЙ
100
AcDbPoint
 10
108.49185681148471
 20
5.096811378727151
 30
0.0
  0
POINT
  5
93
330
17
100
AcDbEntity
  8
ДЕРЕН КРОВАВО-КРАСНЫЙ
100
AcDbPoint
 10
0.8046019684456704
 20
6.689044868466286
 30
0.0
  0
POINT
  5
94
330
17
100
AcDbEntity
  8
ДЕРЕН КРОВАВО-КРАСНЫЙ
100
AcDbPoint
 10
1.9418215233684548
 20
7.3504996864170975
 30
0.0
  0
POINT
  5
95
330
17
100
AcDbEntity
  8
ДЕРЕН КРОВАВО-КРАСНЫЙ
100
AcDbPoint
 10
3.1115407114441185
 20
7.976495165171317
 30
0.0
  0
POINT
  5
96
330
17
100
AcDbEntity
  8
ДЕРЕН КРОВАВО-КРАСНЫЙ
100
AcDbPoint
 10
4.321776611441151
 20
8.542020797891446
 30
0.0
  0
POINT
  5
97
330
17
100
AcDbEntity
  8
ДЕРЕН КРОВАВО-КРАСНЫЙ
100
AcDbPoint
 10
5.587660583569853
 20
9.022320620513229
 30
0.0
  0
POINT
  5
98
330
17
100
AcDbEntity
  8
ДЕРЕН КРОВАВО-КРАСНЫЙ
100
AcDbPoint
 10
6.906579328076093
 20
9.38098473658186
 30
0.0
  0
POINT
  5
99
330
17
100
AcDbEntity
  8
ДЕРЕН КРОВАВО-КРАСНЫЙ
100
AcDbPoint
 10
8.27105441401128
 20
9.56197736015028
 30
0.0
  0
POINT
  5
9A
330
17
100
AcDbEntity
  8
ДЕРЕН КРОВАВО-КРАСНЫЙ
100
AcDbPoint
 10
9.651336265266428
 20
9.56617393524961
 30
0.0
  0
POINT
  5
9B
330
17
100
AcDbEntity
  8
ДЕРЕН КРОВАВО-КРАСНЫЙ
100
AcDbPoint
 10
11.017011173800341
 20
9.393227773834756
 30
0.0
  0
POINT
  5
9C
330
17
100
AcDbEntity
  8
ДЕРЕН КРОВАВО-КРАСНЫЙ
100
AcDbPoint
 10
12.339742034870719
 20
9.047626913469076
 30
0.0
  0
POINT
  5
9D
330
17
100
AcDbEntity
  8
ДЕРЕН КРОВАВО-КРАСНЫЙ
100
AcDbPoint
 10
13.60817611131434
 20
8.572225770270652
 30
0.0
  0
POINT
  5
9E
330
17
100
AcDbEntity
  8
ДЕРЕН КРОВАВО-КРАСНЫЙ
100
AcDbPoint
 10
14.821363926514891
 20
8.010029666658001
 30
0.0
  0
POINT
  5
9F
330
17
100
AcDbEntity
  8
ДЕРЕН КРОВАВО-КРАСНЫЙ
100
AcDbPoint
 10
15.993084562304931
 20
7.3864993658963325
 30
0.0
  0
POINT
  5
A0
330
17
100
AcDbEntity
  8
ДЕРЕН КРОВАВО-КРАСНЫЙ
100
AcDbPoint
 10
17.131837104086017
 20
6.7265045855560155
 30
0.0
  0
POINT
  5
A1
330
17
100
AcDbEntity
  8
ДЕРЕН КРОВАВО-КРАСНЫЙ
100
AcDbPoint
 10
18.249084262922622
 20
6.050738158531618
 30
0.0
  0
POINT
  5
A2
330
17
100
AcDbEntity
  8
ДЕРЕН КРОВАВО-КРАСНЫЙ
100
AcDbPoint
 10
19.356505708312255
 20
5.378562735510074
 30
0.0
  0
POINT
  5
A3
330
17
100
AcDbEntity
  8
ДЕРЕН КРОВАВО-КРАСНЫЙ
100
AcDbPoint
 10
20.46613017917014
 20
4.730780056602384
 30
0.0
  0
POINT
  5
A4
330
17
100
AcDbEntity
  8
ДЕРЕН КРОВАВО-КРАСНЫЙ
100
AcDbPoint
 10
21.58744461679125
 20
4.127163235184883
 30
0.0
  0
POINT
  5
A5
330
17
100
AcDbEntity
  8
ДЕРЕН КРОВАВО-КРАСНЫЙ
100
AcDbPoint
 10
22.72916136049698
 20
3.58913463864177
 30
0.0
  0
POINT
  5
A6
330
17
100
AcDbEntity
  8
ДЕРЕН КРОВАВО-КРАСНЫЙ
100
AcDbPoint
 10
23.89356192447296
 20
3.1417540958788357
 30
0.0
  0
POINT
  5
A7
330
17
100
AcDbEntity
  8
ДЕРЕН КРОВАВО-КРАСНЫЙ
100
AcDbPoint
 10
25.079904358279844
 20
2.809511401591599
 30
0.0
  0
POINT
  5
A8
330
17
100
AcDbEntity
  8
ДЕРЕН КРОВАВО-КРАСНЫЙ
100
AcDbPoint
 10
26.289154633494572
 20
2.638430818967244
 30
0.0
  0
POINT
  5
A9
330
17
100
AcDbEntity
  8
ДЕРЕН КРОВАВО-КРАСНЫЙ
100
AcDbPoint
 10
27.505204710324037
 20
2.6277059567814476
 30
0.0
  0
POINT
  5
AA
330
17
100
AcDbEntity
  8
ДЕРЕН КРОВАВО-КРАСНЫЙ
100
AcDbPoint
 10
28.7165031643742
 20
2.7734484529497476
 30
0.0
  0
POINT
  5
AB
330
17
100
AcDbEntity
  8
ДЕРЕН КРОВАВО-КРАСНЫЙ
100
AcDbPoint
 10
29.909785040231675
 20
3.072644775233585
 30
0.0
  0
POINT
  5
AC
330
17
100
AcDbEntity
  8
ДЕРЕН КРОВАВО-КРАСНЫЙ
100
AcDbPoint
 10
31.075718406228916
 20
3.504915210103035
 30
0.0
  0
POINT
  5
AD
330
17
100
AcDbEntity
  8
ДЕРЕН КРОВАВО-КРАСНЫЙ
100
AcDbPoint
 10
32.21944529170784
 20
4.03066771039548
 30
0.0
  0
POINT
  5
AE
330
17
100
AcDbEntity
  8
ДЕРЕН КРОВАВО-КРАСНЫЙ
100
AcDbPoint
 10
33.344892623937085
 20
4.626310992366139
 30
0.0
  0
POINT
  5
AF
330
17
100
AcDbEntity
  8
ДЕРЕН КРОВАВО-КРАСНЫЙ
100
AcDbPoint
 10
34.45588919191923
 20
5.26801612670675
 30
0.0
  0
POINT
  5
B0
330
17
100
AcDbEntity
  8
ДЕРЕН КРОВАВО-КРАСНЫЙ
100
AcDbPoint
 10
35.563304686877075
 20
5.9367140491105035
 30
0.0
  0
POINT
  5
B1
330
17
100
AcDbEntity
  8
ДЕРЕН КРОВАВО-КРАСНЫЙ
100
AcDbPoint
 10
36.67759670735506
 20
6.613930608512869
 30
0.0
  0
POINT
  5
B2
330
17
100
AcDbEntity
  8
ДЕРЕН КРОВАВО-КРАСНЫЙ
100
AcDbPoint
 10
37.81163716310219
 20
7.278493958509385
 30
0.0
  0
POINT
  5
B3
330
17
100
AcDbEntity
  8
ДЕРЕН КРОВАВО-КРАСНЫЙ
100
AcDbPoint
 10
38.977357017647805
 20
7.909410996051129
 30
0.0
  0
POINT
  5
B4
330
17
100
AcDbEntity
  8
ДЕРЕН КРОВАВО-КРАСНЫЙ
100
AcDbPoint
 10
40.185460462387994
 20
8.483213290563803
 30
0.0
  0
POINT
  5
B5
330
17
100
AcDbEntity
  8
ДЕРЕН КРОВАВО-КРАСНЫЙ
100
AcDbPoint
 10
41.442490052988504
 20
8.971643917617321
 30
0.0
  0
POINT
  5
B6
330
17
100
AcDbEntity
  8
ДЕРЕН КРОВАВО-КРАСНЫЙ
100
AcDbPoint
 10
42.75609340157821
 20
9.345247701421965
 30
0.0
  0
POINT
  5
B7
330
17
100
AcDbEntity
  8
ДЕРЕН КРОВАВО-КРАСНЫЙ
100
AcDbPoint
 10
44.11583729334164
 20
9.553480808208695
 30
0.0
  0
POINT
  5
B8
330
17
100
AcDbEntity
  8
ДЕРЕН КРОВАВО-КРАСНЫЙ
100
AcDbPoint
 10
45.496152501454375
 20
9.574462087612448
 30
0.0
  0
POINT
  5
B9
330
17
100
AcDbEntity
  8
ДЕРЕН КРОВАВО-КРАСНЫЙ
100
AcDbPoint
 10
46.86417733082033
 20
9.417626634491803
 30
0.0
  0
POINT
  5
BA
330
17
100
AcDbEntity
  8
ДЕРЕН КРОВАВО-КРАСНЫЙ
100
AcDbPoint
 10
48.19452502685353
 20
9.098174665948909
 30
0.0
  0
POINT
  5
BB
330
17
100
AcDbEntity
  8
ДЕРЕН КРОВАВО-КРАСНЫЙ
100
AcDbPoint
 10
49.46806046855668
 20
8.632592404580466
 30
0.0
  0
POINT
  5
BC
330
17
100
AcDbEntity
  8
ДЕРЕН КРОВАВО-КРАСНЫЙ
100
AcDbPoint
 10
50.68958675046075
 20
8.075885355548635
 30
0.0
  0
POINT
  5
BD
330
17
100
AcDbEntity
  8
ДЕРЕН КРОВАВО-КРАСНЫЙ
100
AcDbPoint
 10
51.86289332934408
 20
7.4584923214252825
 30
0.0
  0
POINT
  5
BE
330
17
100
AcDbEntity
  8
ДЕРЕН КРОВАВО-КРАСНЫЙ
100
AcDbPoint
 10
53.0047143482225
 20
6.801422482241398
 30
0.0
  0
POINT
  5
BF
330
17
100
AcDbEntity
  8
ДЕРЕН КРОВАВО-КРАСНЫЙ
100
AcDbPoint
 10
57.459776979846225
 20
4.190928549464831
 30
0.0
  0
POINT
  5
C0
330
17
100
AcDbEntity
  8
ДЕРЕН КРОВАВО-КРАСНЫЙ
100
AcDbPoint
 10
58.598202940811596
 20
3.64561724608447
 30
0.0
  0
POINT
  5
C1
330
17
100
AcDbEntity
  8
ДЕРЕН КРОВАВО-КРАСНЫЙ
100
AcDbPoint
 10
59.76241886103866
 20
3.187720377502406
 30
0.0
  0
POINT
  5
C2
330
17
100
AcDbEntity
  8
ДЕРЕН КРОВАВО-КРАСНЫЙ
100
AcDbPoint
 10
60.94639365852405
 20
2.844251743835003
 30
0.0
  0
POINT
  5
C3
330
17
100
AcDbEntity
  8
ДЕРЕН КРОВАВО-КРАСНЫЙ
100
AcDbPoint
 10
62.15205702404725
 20
2.6454084445007835
 30
0.0
  0
POINT
  5
C4
330
17
100
AcDbEntity
  8
ДЕРЕН КРОВАВО-КРАСНЫЙ
100
AcDbPoint
 10
63.368200600209754
 20
2.62038778912684
 30
0.0
  0
POINT
  5
C5
330
17
100
AcDbEntity
  8
ДЕРЕН КРОВАВО-КРАСНЫЙ
100
AcDbPoint
 10
64.58020309257574
 20
2.7521325071162894
 30
0.0
  0
POINT
  5
C6
330
17
100
AcDbEntity
  8
ДЕРЕН КРОВАВО-КРАСНЫЙ
100
AcDbPoint
 10
65.77743217380606
 20
3.030707823063373
 30
0.0
  0
POINT
  5
C7
330
17
100
AcDbEntity
  8
ДЕРЕН КРОВАВО-КРАСНЫЙ
100
AcDbPoint
 10
66.94706693590726
 20
3.4493010411187903
 30
0.0
  0
POINT
  5
C8
330
17
100
AcDbEntity
  8
ДЕРЕН КРОВАВО-КРАСНЫЙ
100
AcDbPoint
 10
68.09157586480852
 20
3.966753288707134
 30
0.0
  0
POINT
  5
C9
330
17
100
AcDbEntity
  8
ДЕРЕН КРОВАВО-КРАСНЫЙ
100
AcDbPoint
 10
69.21802326423649
 20
4.556163024699447
 30
0.0
  0
POINT
  5
CA
330
17
100
AcDbEntity
  8
ДЕРЕН КРОВАВО-КРАСНЫЙ
100
AcDbPoint
 10
70.33082062439685
 20
5.194315823529257
 30
0.0
  0
POINT
  5
CB
330
17
100
AcDbEntity
  8
ДЕРЕН КРОВАВО-КРАСНЫЙ
100
AcDbPoint
 10
71.43823065341016
 20
5.860697976163065
 30
0.0
  0
POINT
  5
CC
330
17
100
AcDbEntity
  8
ДЕРЕН КРОВАВО-КРАСНЫЙ
100
AcDbPoint
 10
72.55149890930281
 20
6.5373001168473515
 30
0.0
  0
POINT
  5
CD
330
17
100
AcDbEntity
  8
ДЕРЕН КРОВАВО-КРАСНЫЙ
100
AcDbPoint
 10
73.68177917204109
 20
7.205916432170456
 30
0.0
  0
POINT
  5
CE
330
17
100
AcDbEntity
  8
ДЕРЕН КРОВАВО-КРАСНЫЙ
100
AcDbPoint
 10
74.84318300429223
 20
7.842306750714452
 30
0.0
  0
POINT
  5
CF
330
17
100
AcDbEntity
  8
ДЕРЕН КРОВАВО-КРАСНЫЙ
100
AcDbPoint
 10
76.04655381187231
 20
8.423255604375056
 30
0.0
  0
POINT
  5
D0
330
17
100
AcDbEntity
  8
ДЕРЕН КРОВАВО-КРАСНЫЙ
100
AcDbPoint
 10
77.29891751077118
 20
8.921432156382595
 30
0.0
  0
POINT
  5
D1
330
17
100
AcDbEntity
  8
ДЕРЕН КРОВАВО-КРАСНЫЙ
100
AcDbPoint
 10
78.60616411271234
 20
9.30684631340735
 30
0.0
  0
POINT
  5
D2
330
17
100
AcDbEntity
  8
ДЕРЕН КРОВАВО-КРАСНЫЙ
100
AcDbPoint
 10
79.96062741344652
 20
9.544846572240477
 30
0.0
  0
POINT
  5
D3
330
17
100
AcDbEntity
  8
ДЕРЕН КРОВАВО-КРАСНЫЙ
100
AcDbPoint
 10
81.34068234712932
 20
9.582623728723743
 30
0.0
  0
POINT
  5
D4
330
17
100
AcDbEntity
  8
ДЕРЕН КРОВАВО-КРАСНЫЙ
100
AcDbPoint
 10
82.71132777626667
 20
9.441908595551729
 30
0.0
  0
POINT
  5
D5
330
17
100
AcDbEntity
  8
ДЕРЕН КРОВАВО-КРАСНЫЙ
100
AcDbPoint
 10
84.04620429112292
 20
9.138490706684792
 30
0.0
  0
POINT
  5
D6
330
17
100
AcDbEntity
  8
ДЕРЕН КРОВАВО-КРАСНЫЙ
100
AcDbPoint
 10
85.32791820958705
 20
8.692900586663937
 30
0.0
  0
POINT
  5
D7
330
17
100
AcDbEntity
  8
ДЕРЕН КРОВАВО-КРАСНЫЙ
100
AcDbPoint
 10
86.55423936291436
 20
8.143494781216585
 30
0.0
  0
POINT
  5
D8
330
17
100
AcDbEntity
  8
ДЕРЕН КРОВАВО-КРАСНЫЙ
100
AcDbPoint
 10
87.73464309607708
 20
7.529405691986667
 30
0.0
  0
POINT
  5
D9
330
17
100
AcDbEntity
  8
ДЕРЕН КРОВАВО-КРАСНЫЙ
100
AcDbPoint
 10
89.99893619598878
 20
6.202770304426506
 30
0.0
  0
POINT
  5
DA
330
17
100
AcDbEntity
  8
ДЕРЕН КРОВАВО-КРАСНЫЙ
100
AcDbPoint
 10
91.10800988942026
 20
5.528705595303569
 30
0.0
  0
POINT
  5
DB
330
17
100
AcDbEntity
  8
ДЕРЕН КРОВАВО-КРАСНЫЙ
100
AcDbPoint
 10
92.21546105346053
 20
4.872348816657088
 30
0.0
  0
POINT
  5
DC
330
17
100
AcDbEntity
  8
ДЕРЕН КРОВАВО-КРАСНЫЙ
100
AcDbPoint
 10
93.33209947938276
 20
4.25467387683805
 30
0.0
  0
POINT
  5
DD
330
17
100
AcDbEntity
  8
ДЕРЕН КРОВАВО-КРАСНЫЙ
100
AcDbPoint
 10
94.46832149312719
 20
3.701592367843443
 30
0.0
  0
POINT
  5
DE
330
17
100
AcDbEntity
  8
ДЕРЕН КРОВАВО-КРАСНЫЙ
100
AcDbPoint
 10
95.62805629383982
 20
3.2347385632227783
 30
0.0
  0
POINT
  5
DF
330
17
100
AcDbEntity
  8
ДЕРЕН КРОВАВО-КРАСНЫЙ
100
AcDbPoint
 10
96.81285266692034
 20
2.8788780913947027
 30
0.0
  0
POINT
  5
E0
330
17
100
AcDbEntity
  8
ДЕРЕН КРОВАВО-КРАСНЫЙ
100
AcDbPoint
 10
98.01550216394836
 20
2.6575037291250942
 30
0.0
  0
POINT
  5
E1
330
17
100
AcDbEntity
  8
ДЕРЕН КРОВАВО-КРАСНЫЙ
100
AcDbPoint
 10
99.23136711590108
 20
2.61293416754207
 30
0.0
  0
POINT
  5
E2
330
17
100
AcDbEntity
  8
ДЕРЕН КРОВАВО-КРАСНЫЙ
100
AcDbPoint
 10
100.44391627600946
 20
2.730699357938685
 30
0.0
  0
POINT
  5
E3
330
17
100
AcDbEntity
  8
ДЕРЕН КРОВАВО-КРАСНЫЙ
100
AcDbPoint
 10
101.64281290361421
 20
2.9962392724907563
 30
0.0
  0
POINT
  5
E4
330
17
100
AcDbEntity
  8
ДЕРЕН КРОВАВО-КРАСНЫЙ
100
AcDbPoint
 10
102.81844117220082
 20
3.3936280141927075
 30
0.0
  0
POINT
  5
E5
330
17
100
AcDbEntity
  8
ДЕРЕН КРОВАВО-КРАСНЫЙ
100
AcDbPoint
 10
103.96508637923661
 20
3.9034853298406462
 30
0.0
  0
POINT
  5
E6
330
17
100
AcDbEntity
  8
ДЕРЕН КРОВАВО-КРАСНЫЙ
100
AcDbPoint
 10
105.09136909251036
 20
4.4861296507284765
 30
0.0
  0
POINT
  5
E7
330
17
100
AcDbEntity
  8
ДЕРЕН КРОВАВО-КРАСНЫЙ
100
AcDbPoint
 10
106.2052690264048
 20
5.120328417231122
 30
0.0
  0
POINT
  5
E8
330
17
100
AcDbEntity
  8
ДЕРЕН КРОВАВО-КРАСНЫЙ
100
AcDbPoint
 10
107.3131566199432
 20
5.784681903215594
 30
0.0
  0
POINT
  5
E9
330
17
100
AcDbEntity
  8
ДЕРЕН КРОВАВО-КРАСНЫЙ
100
AcDbPoint
 10
108.42540234496644
 20
6.46066759457445
 30
0.0
  0
POINT
  5
EB
330
17
100
AcDbEntity
  8
СПИРЕЯ ВАНГУТТА
100
AcDbPoint
 10
0.8670789118854597
 20
24.32485959756947
 30
0.0
  0
POINT
  5
EC
330
17
100
AcDbEntity
  8
СПИРЕЯ ВАНГУТТА
100
AcDbPoint
 10
1.974749544565881
 20
24.985760578100468
 30
0.0
  0
POINT
  5
ED
330
17
100
AcDbEntity
  8
СПИРЕЯ ВАНГУТТА
100
AcDbPoint
 10
3.088578354416988
 20
25.613411442814098
 30
0.0
  0
POINT
  5
EE
330
17
100
AcDbEntity
  8
СПИРЕЯ ВАНГУТТА
100
AcDbPoint
 10
4.217156268509683
 20
26.187749236819773
 30
0.0
  0
POINT
  5
EF
330
17
100
AcDbEntity
  8
СПИРЕЯ ВАНГУТТА
100
AcDbPoint
 10
5.3712198294059235
 20
26.67555576677509
 30
0.0
  0
POINT
  5
F0
330
17
100
AcDbEntity
  8
СПИРЕЯ ВАНГУТТА
100
AcDbPoint
 10
6.551139604474991
 20
27.05358713416359
 30
0.0
  0
POINT
  5
F1
330
17
100
AcDbEntity
  8
СПИРЕЯ ВАНГУТТА
100
AcDbPoint
 10
7.752394464096666
 20
27.300383721736267
 30
0.0
  0
POINT
  5
F2
330
17
100
AcDbEntity
  8
СПИРЕЯ ВАНГУТТА
100
AcDbPoint
 10
8.96579574855125
 20
27.39806165993212
 30
0.0
  0
POINT
  5
F3
330
17
100
AcDbEntity
  8
СПИРЕЯ ВАНГУТТА
100
AcDbPoint
 10
10.179821784194413
 20
27.3111827702178
 30
0.0
  0
POINT
  5
F4
330
17
100
AcDbEntity
  8
СПИРЕЯ ВАНГУТТА
100
AcDbPoint
 10
11.381572864878358
 20
27.070919034452803
 30
0.0
  0
POINT
  5
F5
330
17
100
AcDbEntity
  8
СПИРЕЯ ВАНГУТТА
100
AcDbPoint
 10
12.562613282074519
 20
26.698641477382623
 30
0.0
  0
POINT
  5
F6
330
17
100
AcDbEntity
  8
СПИРЕЯ ВАНГУТТА
100
AcDbPoint
 10
13.718869338602314
 20
26.217811545775138
 30
0.0
  0
POINT
  5
F7
330
17
100
AcDbEntity
  8
СПИРЕЯ ВАНГУТТА
100
AcDbPoint
 10
14.84898994143151
 20
25.647958996456353
 30
0.0
  0
POINT
  5
F8
330
17
100
AcDbEntity
  8
СПИРЕЯ ВАНГУТТА
100
AcDbPoint
 10
15.963242560377605
 20
25.02230791426781
 30
0.0
  0
POINT
  5
F9
330
17
100
AcDbEntity
  8
СПИРЕЯ ВАНГУТТА
100
AcDbPoint
 10
17.070753436493728
 20
24.362643327625175
 30
0.0
  0
POINT
  5
FA
330
17
100
AcDbEntity
  8
СПИРЕЯ ВАНГУТТА
100
AcDbPoint
 10
18.181299335839938
 20
23.687688194788393
 30
0.0
  0
POINT
  5
FB
330
17
100
AcDbEntity
  8
СПИРЕЯ ВАНГУТТА
100
AcDbPoint
 10
19.304798746703923
 20
23.016179959511184
 30
0.0
  0
POINT
  5
FC
330
17
100
AcDbEntity
  8
СПИРЕЯ ВАНГУТТА
100
AcDbPoint
 10
20.454385502078786
 20
22.36609935267518
 30
0.0
  0
POINT
  5
FD
330
17
100
AcDbEntity
  8
СПИРЕЯ ВАНГУТТА
100
AcDbPoint
 10
21.640833762623316
 20
21.759141039495717
 30
0.0
  0
POINT
  5
FE
330
17
100
AcDbEntity
  8
СПИРЕЯ ВАНГУТТА
100
AcDbPoint
 10
22.87654407005837
 20
21.226629114154168
 30
0.0
  0
POINT
  5
FF
330
17
100
AcDbEntity
  8
СПИРЕЯ ВАНГУТТА
100
AcDbPoint
 10
24.16829510837767
 20
20.80595442076793
 30
0.0
  0
POINT
  5
100
330
17
100
AcDbEntity
  8
СПИРЕЯ ВАНГУТТА
100
AcDbPoint
 10
25.508673400452654
 20
20.523348083202514
 30
0.0
  0
POINT
  5
101
330
17
100
AcDbEntity
  8
СПИРЕЯ ВАНГУТТА
100
AcDbPoint
 10
26.88337925973507
 20
20.40586952657215
 30
0.0
  0
POINT
  5
102
330
17
100
AcDbEntity
  8
СПИРЕЯ ВАНГУТТА
100
AcDbPoint
 10
28.260965044781553
 20
20.487260723448014
 30
0.0
  0
POINT
  5
103
330
17
100
AcDbEntity
  8
СПИРЕЯ ВАНГУТТА
100
AcDbPoint
 10
29.60982990795759
 20
20.748690226338447
 30
0.0
  0
POINT
  5
104
330
17
100
AcDbEntity
  8
СПИРЕЯ ВАНГУТТА
100
AcDbPoint
 10
30.90751204884999
 20
21.15085827006505
 30
0.0
  0
POINT
  5
105
330
17
100
AcDbEntity
  8
СПИРЕЯ ВАНГУТТА
100
AcDbPoint
 10
32.15358809190696
 20
21.663211389810378
 30
0.0
  0
POINT
  5
106
330
17
100
AcDbEntity
  8
СПИРЕЯ ВАНГУТТА
100
AcDbPoint
 10
33.348650727829494
 20
22.257273942583417
 30
0.0
  0
POINT
  5
107
330
17
100
AcDbEntity
  8
СПИРЕЯ ВАНГУТТА
100
AcDbPoint
 10
34.50293707024807
 20
22.902896216411918
 30
0.0
  0
POINT
  5
108
330
17
100
AcDbEntity
  8
СПИРЕЯ ВАНГУТТА
100
AcDbPoint
 10
35.63020972581331
 20
23.573130349743124
 30
0.0
  0
POINT
  5
109
330
17
100
AcDbEntity
  8
СПИРЕЯ ВАНГУТТА
100
AcDbPoint
 10
36.7420048784186
 20
24.248843524622067
 30
0.0
  0
POINT
  5
10A
330
17
100
AcDbEntity
  8
СПИРЕЯ ВАНГУТТА
100
AcDbPoint
 10
37.85034317310654
 20
24.912443956481024
 30
0.0
  0
POINT
  5
10B
330
17
100
AcDbEntity
  8
СПИРЕЯ ВАНГУТТА
100
AcDbPoint
 10
38.96370670907096
 20
25.54433088159978
 30
0.0
  0
POINT
  5
10C
330
17
100
AcDbEntity
  8
СПИРЕЯ ВАНГУТТА
100
AcDbPoint
 10
40.090693393774565
 20
26.124429210186776
 30
0.0
  0
POINT
  5
10D
330
17
100
AcDbEntity
  8
СПИРЕЯ ВАНГУТТА
100
AcDbPoint
 10
41.23886993305967
 20
26.629429740328685
 30
0.0
  0
POINT
  5
10E
330
17
100
AcDbEntity
  8
СПИРЕЯ ВАНГУТТА
100
AcDbPoint
 10
42.416551123595745
 20
27.018990550356925
 30
0.0
  0
POINT
  5
10F
330
17
100
AcDbEntity
  8
СПИРЕЯ ВАНГУТТА
100
AcDbPoint
 10
43.61680475271302
 20
27.2788866246332
 30
0.0
  0
POINT
  5
110
330
17
100
AcDbEntity
  8
СПИРЕЯ ВАНГУТТА
100
AcDbPoint
 10
44.82897662223222
 20
27.39039911885573
 30
0.0
  0
POINT
  5
111
330
17
100
AcDbEntity
  8
СПИРЕЯ ВАНГУТТА
100
AcDbPoint
 10
46.04427265734477
 20
27.332882634378933
 30
0.0
  0
POINT
  5
112
330
17
100
AcDbEntity
  8
СПИРЕЯ ВАНГУТТА
100
AcDbPoint
 10
47.24605387895381
 20
27.105886499971227
 30
0.0
  0
POINT
  5
113
330
17
100
AcDbEntity
  8
СПИРЕЯ ВАНГУТТА
100
AcDbPoint
 10
48.43029444568465
 20
26.744858694805004
 30
0.0
  0
POINT
  5
114
330
17
100
AcDbEntity
  8
СПИРЕЯ ВАНГУТТА
100
AcDbPoint
 10
49.588965124131285
 20
26.27373280787911
 30
0.0
  0
POINT
  5
115
330
17
100
AcDbEntity
  8
СПИРЕЯ ВАНГУТТА
100
AcDbPoint
 10
50.72413454762607
 20
25.717068773603856
 30
0.0
  0
POINT
  5
116
330
17
100
AcDbEntity
  8
СПИРЕЯ ВАНГУТТА
100
AcDbPoint
 10
51.83923051199955
 20
25.09540879890007
 30
0.0
  0
POINT
  5
117
330
17
100
AcDbEntity
  8
СПИРЕЯ ВАНГУТТА
100
AcDbPoint
 10
52.94670076187986
 20
24.438041047141198
 30
0.0
  0
POINT
  5
118
330
17
100
AcDbEntity
  8
СПИРЕЯ ВАНГУТТА
100
AcDbPoint
 10
57.50545912440753
 20
21.82669872940181
 30
0.0
  0
POINT
  5
119
330
17
100
AcDbEntity
  8
СПИРЕЯ ВАНГУТТА
100
AcDbPoint
 10
58.733896826677636
 20
21.280520431385867
 30
0.0
  0
POINT
  5
11A
330
17
100
AcDbEntity
  8
СПИРЕЯ ВАНГУТТА
100
AcDbPoint
 10
60.01943896310667
 20
20.84448701868676
 30
0.0
  0
POINT
  5
11B
330
17
100
AcDbEntity
  8
СПИРЕЯ ВАНГУТТА
100
AcDbPoint
 10
61.3560873038077
 20
20.547419610517807
 30
0.0
  0
POINT
  5
11C
330
17
100
AcDbEntity
  8
СПИРЕЯ ВАНГУТТА
100
AcDbPoint
 10
62.72788988547407
 20
20.413822639602994
 30
0.0
  0
POINT
  5
11D
330
17
100
AcDbEntity
  8
СПИРЕЯ ВАНГУТТА
100
AcDbPoint
 10
64.1073613381594
 20
20.463372293595445
 30
0.0
  0
POINT
  5
11E
330
17
100
AcDbEntity
  8
СПИРЕЯ ВАНГУТТА
100
AcDbPoint
 10
65.4599492152063
 20
20.710125977067833
 30
0.0
  0
POINT
  5
11F
330
17
100
AcDbEntity
  8
СПИРЕЯ ВАНГУТТА
100
AcDbPoint
 10
66.7635249568351
 20
21.10042082244661
 30
0.0
  0
POINT
  5
120
330
17
100
AcDbEntity
  8
СПИРЕЯ ВАНГУТТА
100
AcDbPoint
 10
68.01470354246631
 20
21.603199567398136
 30
0.0
  0
POINT
  5
121
330
17
100
AcDbEntity
  8
СПИРЕЯ ВАНГУТТА
100
AcDbPoint
 10
69.21598869455224
 20
22.18729462008501
 30
0.0
  0
POINT
  5
122
330
17
100
AcDbEntity
  8
СПИРЕЯ ВАНГУТТА
100
AcDbPoint
 10
70.37475473285954
 20
22.827384087212113
 30
0.0
  0
POINT
  5
123
330
17
100
AcDbEntity
  8
СПИРЕЯ ВАНГУТТА
100
AcDbPoint
 10
71.5041137094314
 20
23.496496934257504
 30
0.0
  0
POINT
  5
124
330
17
100
AcDbEntity
  8
СПИРЕЯ ВАНГУТТА
100
AcDbPoint
 10
72.61693084495168
 20
24.17282745167462
 30
0.0
  0
POINT
  5
125
330
17
100
AcDbEntity
  8
СПИРЕЯ ВАНГУТТА
100
AcDbPoint
 10
73.72433808606849
 20
24.838188932587112
 30
0.0
  0
POINT
  5
126
330
17
100
AcDbEntity
  8
СПИРЕЯ ВАНГУТТА
100
AcDbPoint
 10
74.83846674035739
 20
25.47507196520301
 30
0.0
  0
POINT
  5
127
330
17
100
AcDbEntity
  8
СПИРЕЯ ВАНГУТТА
100
AcDbPoint
 10
75.96421224875543
 20
26.061145416729328
 30
0.0
  0
POINT
  5
128
330
17
100
AcDbEntity
  8
СПИРЕЯ ВАНГУТТА
100
AcDbPoint
 10
77.10966404515695
 20
26.57524517553247
 30
0.0
  0
POINT
  5
129
330
17
100
AcDbEntity
  8
СПИРЕЯ ВАНГУТТА
100
AcDbPoint
 10
78.28194200063338
 20
26.98448299167053
 30
0.0
  0
POINT
  5
12A
330
17
100
AcDbEntity
  8
СПИРЕЯ ВАНГУТТА
100
AcDbPoint
 10
79.47990493094966
 20
27.257305693188396
 30
0.0
  0
POINT
  5
12B
330
17
100
AcDbEntity
  8
СПИРЕЯ ВАНГУТТА
100
AcDbPoint
 10
80.69214902189998
 20
27.382881665944232
 30
0.0
  0
POINT
  5
12C
330
17
100
AcDbEntity
  8
СПИРЕЯ ВАНГУТТА
100
AcDbPoint
 10
81.90841016585657
 20
27.351557925851598
 30
0.0
  0
POINT
  5
12D
330
17
100
AcDbEntity
  8
СПИРЕЯ ВАНГУТТА
100
AcDbPoint
 10
83.11249801194394
 20
27.140462996682466
 30
0.0
  0
POINT
  5
12E
330
17
100
AcDbEntity
  8
СПИРЕЯ ВАНГУТТА
100
AcDbPoint
 10
84.29658272531682
 20
26.791629327103717
 30
0.0
  0
POINT
  5
12F
330
17
100
AcDbEntity
  8
СПИРЕЯ ВАНГУТТА
100
AcDbPoint
 10
85.45907691206459
 20
26.32969136032184
 30
0.0
  0
POINT
  5
130
330
17
100
AcDbEntity
  8
СПИРЕЯ ВАНГУТТА
100
AcDbPoint
 10
86.5965314901897
 20
25.78095534627937
 30
0.0
  0
POINT
  5
131
330
17
100
AcDbEntity
  8
СПИРЕЯ ВАНГУТТА
100
AcDbPoint
 10
87.71522336920634
 20
25.16851801620051
 30
0.0
  0
POINT
  5
132
330
17
100
AcDbEntity
  8
СПИРЕЯ ВАНГУТТА
100
AcDbPoint
 10
89.93115126890609
 20
23.839720340683286
 30
0.0
  0
POINT
  5
133
330
17
100
AcDbEntity
  8
СПИРЕЯ ВАНГУТТА
100
AcDbPoint
 10
91.05135107897016
 20
23.165537072347295
 30
0.0
  0
POINT
  5
134
330
17
100
AcDbEntity
  8
СПИРЕЯ ВАНГУТТА
100
AcDbPoint
 10
92.19376059949784
 20
22.510182016703546
 30
0.0
  0
POINT
  5
135
330
17
100
AcDbEntity
  8
СПИРЕЯ ВАНГУТТА
100
AcDbPoint
 10
93.3701032018186
 20
21.894292424464478
 30
0.0
  0
POINT
  5
136
330
17
100
AcDbEntity
  8
СПИРЕЯ ВАНГУТТА
100
AcDbPoint
 10
94.59374340777364
 20
21.340802577515138
 30
0.0
  0
POINT
  5
137
330
17
100
AcDbEntity
  8
СПИРЕЯ ВАНГУТТА
100
AcDbPoint
 10
95.87060510250119
 20
20.883108244870243
 30
0.0
  0
POINT
  5
138
330
17
100
AcDbEntity
  8
СПИРЕЯ ВАНГУТТА
100
AcDbPoint
 10
97.20323238137924
 20
20.57164982642543
 30
0.0
  0
POINT
  5
139
330
17
100
AcDbEntity
  8
СПИРЕЯ ВАНГУТТА
100
AcDbPoint
 10
98.5724123640685
 20
20.421920603758913
 30
0.0
  0
POINT
  5
13A
330
17
100
AcDbEntity
  8
СПИРЕЯ ВАНГУТТА
100
AcDbPoint
 10
99.9526163037133
 20
20.450310205822102
 30
0.0
  0
POINT
  5
13B
330
17
100
AcDbEntity
  8
СПИРЕЯ ВАНГУТТА
100
AcDbPoint
 10
101.31003375209733
 20
20.671674436883148
 30
0.0
  0
POINT
  5
13C
330
17
100
AcDbEntity
  8
СПИРЕЯ ВАНГУТТА
100
AcDbPoint
 10
102.62152370553332
 20
21.05073298089493
 30
0.0
  0
POINT
  5
13D
330
17
100
AcDbEntity
  8
СПИРЕЯ ВАНГУТТА
100
AcDbPoint
 10
103.87580345162539
 20
21.543225229795166
 30
0.0
  0
POINT
  5
13E
330
17
100
AcDbEntity
  8
СПИРЕЯ ВАНГУТТА
100
AcDbPoint
 10
105.08181906685886
 20
22.120181577415693
 30
0.0
  0
POINT
  5
13F
330
17
100
AcDbEntity
  8
СПИРЕЯ ВАНГУТТА
100
AcDbPoint
 10
106.24577665615587
 20
22.75326547067941
 30
0.0
  0
POINT
  5
140
330
17
100
AcDbEntity
  8
СПИРЕЯ ВАНГУТТА
100
AcDbPoint
 10
107.37801645399148
 20
23.419865546123955
 30
0.0
  0
POINT
  5
141
330
17
100
AcDbEntity
  8
СПИРЕЯ ВАНГУТТА
100
AcDbPoint
 10
108.49185681148471
 20
24.09681137872715
 30
0.0
  0
POINT
  5
142
330
17
100
AcDbEntity
  8
СПИРЕЯ ВАНГУТТА
100
AcDbPoint
 10
0.8046019684456707
 20
25.689044868466286
 30
0.0
  0
POINT
  5
143
330
17
100
AcDbEntity
  8
СПИРЕЯ ВАНГУТТА
100
AcDbPoint
 10
1.9418215233684548
 20
26.350499686417095
 30
0.0
  0
POINT
  5
144
330
17
100
AcDbEntity
  8
СПИРЕЯ ВАНГУТТА
100
AcDbPoint
 10
3.1115407114441176
 20
26.976495165171315
 30
0.0
  0
POINT
  5
145
330
17
100
AcDbEntity
  8
СПИРЕЯ ВАНГУТТА
100
AcDbPoint
 10
4.321776611441151
 20
27.542020797891446
 30
0.0
  0
POINT
  5
146
330
17
100
AcDbEntity
  8
СПИРЕЯ ВАНГУТТА
100
AcDbPoint
 10
5.5876605835698525
 20
28.02232062051323
 30
0.0
  0
POINT
  5
147
330
17
100
AcDbEntity
  8
СПИРЕЯ ВАНГУТТА
100
AcDbPoint
 10
6.906579328076094
 20
28.380984736581862
 30
0.0
  0
POINT
  5
148
330
17
100
AcDbEntity
  8
СПИРЕЯ ВАНГУТТА
100
AcDbPoint
 10
8.27105441401128
 20
28.56197736015028
 30
0.0
  0
POINT
  5
149
330
17
100
AcDbEntity
  8
СПИРЕЯ ВАНГУТТА
100
AcDbPoint
 10
9.651336265266428
 20
28.566173935249612
 30
0.0
  0
POINT
  5
14A
330
17
100
AcDbEntity
  8
СПИРЕЯ ВАНГУТТА
100
AcDbPoint
 10
11.017011173800341
 20
28.39322777383476
 30
0.0
  0
POINT
  5
14B
330
17
100
AcDbEntity
  8
СПИРЕЯ ВАНГУТТА
100
AcDbPoint
 10
12.339742034870723
 20
28.047626913469074
 30
0.0
  0
POINT
  5
14C
330
17
100
AcDbEntity
  8
СПИРЕЯ ВАНГУТТА
100
AcDbPoint
 10
13.608176111314338
 20
27.572225770270652
 30
0.0
  0
POINT
  5
14D
330
17
100
AcDbEntity
  8
СПИРЕЯ ВАНГУТТА
100
AcDbPoint
 10
14.821363926514891
 20
27.010029666658
 30
0.0
  0
POINT
  5
14E
330
17
100
AcDbEntity
  8
СПИРЕЯ ВАНГУТТА
100
AcDbPoint
 10
15.993084562304933
 20
26.38649936589633
 30
0.0
  0
POINT
  5
14F
330
17
100
AcDbEntity
  8
СПИРЕЯ ВАНГУТТА
100
AcDbPoint
 10
17.131837104086024
 20
25.726504585556015
 30
0.0
  0
POINT
  5
150
330
17
100
AcDbEntity
  8
СПИРЕЯ ВАНГУТТА
100
AcDbPoint
 10
18.24908426292263
 20
25.050738158531615
 30
0.0
  0
POINT
  5
151
330
17
100
AcDbEntity
  8
СПИРЕЯ ВАНГУТТА
100
AcDbPoint
 10
19.356505708312262
 20
24.378562735510073
 30
0.0
  0
POINT
  5
152
330
17
100
AcDbEntity
  8
СПИРЕЯ ВАНГУТТА
100
AcDbPoint
 10
20.466130179170147
 20
23.730780056602384
 30
0.0
  0
POINT
  5
153
330
17
100
AcDbEntity
  8
СПИРЕЯ ВАНГУТТА
100
AcDbPoint
 10
21.587444616791256
 20
23.12716323518488
 30
0.0
  0
POINT
  5
154
330
17
100
AcDbEntity
  8
СПИРЕЯ ВАНГУТТА
100
AcDbPoint
 10
22.72916136049699
 20
22.589134638641767
 30
0.0
  0
POINT
  5
155
330
17
100
AcDbEntity
  8
СПИРЕЯ ВАНГУТТА
100
AcDbPoint
 10
23.893561924472966
 20
22.141754095878834
 30
0.0
  0
POINT
  5
156
330
17
100
AcDbEntity
  8
СПИРЕЯ ВАНГУТТА
100
AcDbPoint
 10
25.079904358279855
 20
21.8095114015916
 30
0.0
  0
POINT
  5
157
330
17
100
AcDbEntity
  8
СПИРЕЯ ВАНГУТТА
100
AcDbPoint
 10
26.28915463349458
 20
21.638430818967244
 30
0.0
  0
POINT
  5
158
330
17
100
AcDbEntity
  8
СПИРЕЯ ВАНГУТТА
100
AcDbPoint
 10
27.505204710324048
 20
21.627705956781448
 30
0.0
  0
POINT
  5
159
330
17
100
AcDbEntity
  8
СПИРЕЯ ВАНГУТТА
100
AcDbPoint
 10
28.716503164374206
 20
21.77344845294975
 30
0.0
  0
POINT
  5
15A
330
17
100
AcDbEntity
  8
СПИРЕЯ ВАНГУТТА
100
AcDbPoint
 10
29.909785040231682
 20
22.072644775233588
 30
0.0
  0
POINT
  5
15B
330
17
100
AcDbEntity
  8
СПИРЕЯ ВАНГУТТА
100
AcDbPoint
 10
31.075718406228923
 20
22.50491521010304
 30
0.0
  0
POINT
  5
15C
330
17
100
AcDbEntity
  8
СПИРЕЯ ВАНГУТТА
100
AcDbPoint
 10
32.21944529170785
 20
23.030667710395484
 30
0.0
  0
POINT
  5
15D
330
17
100
AcDbEntity
  8
СПИРЕЯ ВАНГУТТА
100
AcDbPoint
 10
33.34489262393709
 20
23.62631099236614
 30
0.0
  0
POINT
  5
15E
330
17
100
AcDbEntity
  8
СПИРЕЯ ВАНГУТТА
100
AcDbPoint
 10
34.45588919191924
 20
24.268016126706755
 30
0.0
  0
POINT
  5
15F
330
17
100
AcDbEntity
  8
СПИРЕЯ ВАНГУТТА
100
AcDbPoint
 10
35.56330468687708
 20
24.93671404911051
 30
0.0
  0
POINT
  5
160
330
17
100
AcDbEntity
  8
СПИРЕЯ ВАНГУТТА
100
AcDbPoint
 10
36.677596707355065
 20
25.613930608512874
 30
0.0
  0
POINT
  5
161
330
17
100
AcDbEntity
  8
СПИРЕЯ ВАНГУТТА
100
AcDbPoint
 10
37.8116371631022
 20
26.27849395850939
 30
0.0
  0
POINT
  5
162
330
17
100
AcDbEntity
  8
СПИРЕЯ ВАНГУТТА
100
AcDbPoint
 10
38.97735701764781
 20
26.909410996051133
 30
0.0
  0
POINT
  5
163
330
17
100
AcDbEntity
  8
СПИРЕЯ ВАНГУТТА
100
AcDbPoint
 10
40.185460462387994
 20
27.483213290563803
 30
0.0
  0
POINT
  5
164
330
17
100
AcDbEntity
  8
СПИРЕЯ ВАНГУТТА
100
AcDbPoint
 10
41.44249005298851
 20
27.971643917617325
 30
0.0
  0
POINT
  5
165
330
17
100
AcDbEntity
  8
СПИРЕЯ ВАНГУТТА
100
AcDbPoint
 10
42.75609340157822
 20
28.345247701421968
 30
0.0
  0
POINT
  5
166
330
17
100
AcDbEntity
  8
СПИРЕЯ ВАНГУТТА
100
AcDbPoint
 10
44.11583729334165
 20
28.553480808208693
 30
0.0
  0
POINT
  5
167
330
17
100
AcDbEntity
  8
СПИРЕЯ ВАНГУТТА
100
AcDbPoint
 10
45.49615250145438
 20
28.57446208761245
 30
0.0
  0
POINT
  5
168
330
17
100
AcDbEntity
  8
СПИРЕЯ ВАНГУТТА
100
AcDbPoint
 10
46.86417733082034
 20
28.4176266344918
 30
0.0
  0
POINT
  5
169
330
17
100
AcDbEntity
  8
СПИРЕЯ ВАНГУТТА
100
AcDbPoint
 10
48.19452502685354
 20
28.098174665948907
 30
0.0
  0
POINT
  5
16A
330
17
100
AcDbEntity
  8
СПИРЕЯ ВАНГУТТА
100
AcDbPoint
 10
49.468060468556686
 20
27.632592404580464
 30
0.0
  0
POINT
  5
16B
330
17
100
AcDbEntity
  8
СПИРЕЯ ВАНГУТТА
100
AcDbPoint
 10
50.689586750460755
 20
27.075885355548632
 30
0.0
  0
POINT
  5
16C
330
17
100
AcDbEntity
  8
СПИРЕЯ ВАНГУТТА
100
AcDbPoint
 10
51.86289332934408
 20
26.45849232142528
 30
0.0
  0
POINT
  5
16D
330
17
100
AcDbEntity
  8
СПИРЕЯ ВАНГУТТА
100
AcDbPoint
 10
53.00471434822251
 20
25.801422482241396
 30
0.0
  0
POINT
  5
16E
330
17
100
AcDbEntity
  8
СПИРЕЯ ВАНГУТТА
100
AcDbPoint
 10
57.45977697984623
 20
23.19092854946483
 30
0.0
  0
POINT
  5
16F
330
17
100
AcDbEntity
  8
СПИРЕЯ ВАНГУТТА
100
AcDbPoint
 10
58.5982029408116
 20
22.645617246084466
 30
0.0
  0
POINT
  5
170
330
17
100
AcDbEntity
  8
СПИРЕЯ ВАНГУТТА
100
AcDbPoint
 10
59.76241886103866
 20
22.187720377502405
 30
0.0
  0
POINT
  5
171
330
17
100
AcDbEntity
  8
СПИРЕЯ ВАНГУТТА
100
AcDbPoint
 10
60.94639365852405
 20
21.844251743835002
 30
0.0
  0
POINT
  5
172
330
17
100
AcDbEntity
  8
СПИРЕЯ ВАНГУТТА
100
AcDbPoint
 10
62.15205702404726
 20
21.645408444500788
 30
0.0
  0
POINT
  5
173
330
17
100
AcDbEntity
  8
СПИРЕЯ ВАНГУТТА
100
AcDbPoint
 10
63.36820060020976
 20
21.62038778912684
 30
0.0
  0
POINT
  5
174
330
17
100
AcDbEntity
  8
СПИРЕЯ ВАНГУТТА
100
AcDbPoint
 10
64.58020309257574
 20
21.75213250711629
 30
0.0
  0
POINT
  5
175
330
17
100
AcDbEntity
  8
СПИРЕЯ ВАНГУТТА
100
AcDbPoint
 10
65.77743217380606
 20
22.030707823063373
 30
0.0
  0
POINT
  5
176
330
17
100
AcDbEntity
  8
СПИРЕЯ ВАНГУТТА
100
AcDbPoint
 10
66.94706693590726
 20
22.44930104111879
 30
0.0
  0
POINT
  5
177
330
17
100
AcDbEntity
  8
СПИРЕЯ ВАНГУТТА
100
AcDbPoint
 10
68.0915758648085
 20
22.96675328870713
 30
0.0
  0
POINT
  5
178
330
17
100
AcDbEntity
  8
СПИРЕЯ ВАНГУТТА
100
AcDbPoint
 10
69.21802326423649
 20
23.556163024699448
 30
0.0
  0
POINT
  5
179
330
17
100
AcDbEntity
  8
СПИРЕЯ ВАНГУТТА
100
AcDbPoint
 10
70.33082062439685
 20
24.194315823529255
 30
0.0
  0
POINT
  5
17A
330
17
100
AcDbEntity
  8
СПИРЕЯ ВАНГУТТА
100
AcDbPoint
 10
71.43823065341016
 20
24.860697976163067
 30
0.0
  0
POINT
  5
17B
330
17
100
AcDbEntity
  8
СПИРЕЯ ВАНГУТТА
100
AcDbPoint
 10
72.55149890930281
 20
25.53730011684735
 30
0.0
  0
POINT
  5
17C
330
17
100
AcDbEntity
  8
СПИРЕЯ ВАНГУТТА
100
AcDbPoint
 10
73.68177917204109
 20
26.205916432170458
 30
0.0
  0
POINT
  5
17D
330
17
100
AcDbEntity
  8
СПИРЕЯ ВАНГУТТА
100
AcDbPoint
 10
74.84318300429223
 20
26.842306750714453
 30
0.0
  0
POINT
  5
17E
330
17
100
AcDbEntity
  8
СПИРЕЯ ВАНГУТТА
100
AcDbPoint
 10
76.04655381187231
 20
27.423255604375058
 30
0.0
  0
POINT
  5
17F
330
17
100
AcDbEntity
  8
СПИРЕЯ ВАНГУТТА
100
AcDbPoint
 10
77.29891751077118
 20
27.921432156382593
 30
0.0
  0
POINT
  5
180
330
17
100
AcDbEntity
  8
СПИРЕЯ ВАНГУТТА
100
AcDbPoint
 10
78.60616411271234
 20
28.30684631340735
 30
0.0
  0
POINT
  5
181
330
17
100
AcDbEntity
  8
СПИРЕЯ ВАНГУТТА
100
AcDbPoint
 10
79.96062741344652
 20
28.544846572240477
 30
0.0
  0
POINT
  5
182
330
17
100
AcDbEntity
  8
СПИРЕЯ ВАНГУТТА
100
AcDbPoint
 10
81.34068234712932
 20
28.582623728723743
 30
0.0
  0
POINT
  5
183
330
17
100
AcDbEntity
  8
СПИРЕЯ ВАНГУТТА
100
AcDbPoint
 10
82.71132777626667
 20
28.441908595551727
 30
0.0
  0
POINT
  5
184
330
17
100
AcDbEntity
  8
СПИРЕЯ ВАНГУТТА
100
AcDbPoint
 10
84.04620429112292
 20
28.13849070668479
 30
0.0
  0
POINT
  5
185
330
17
100
AcDbEntity
  8
СПИРЕЯ ВАНГУТТА
100
AcDbPoint
 10
85.32791820958705
 20
27.692900586663935
 30
0.0
  0
POINT
  5
186
330
17
100
AcDbEntity
  8
СПИРЕЯ ВАНГУТТА
100
AcDbPoint
 10
86.55423936291436
 20
27.143494781216585
 30
0.0
  0
POINT
  5
187
330
17
100
AcDbEntity
  8
СПИРЕЯ ВАНГУТТА
100
AcDbPoint
 10
87.73464309607708
 20
26.529405691986668
 30
0.0
  0
POINT
  5
188
330
17
100
AcDbEntity
  8
СПИРЕЯ ВАНГУТТА
100
AcDbPoint
 10
89.99893619598878
 20
25.202770304426505
 30
0.0
  0
POINT
  5
189
330
17
100
AcDbEntity
  8
СПИРЕЯ ВАНГУТТА
100
AcDbPoint
 10
91.10800988942027
 20
24.52870559530357
 30
0.0
  0
POINT
  5
18A
330
17
100
AcDbEntity
  8
СПИРЕЯ ВАНГУТТА
100
AcDbPoint
 10
92.21546105346053
 20
23.87234881665709
 30
0.0
  0
POINT
  5
18B
330
17
100
AcDbEntity
  8
СПИРЕЯ ВАНГУТТА
100
AcDbPoint
 10
93.33209947938276
 20
23.254673876838048
 30
0.0
  0
POINT
  5
18C
330
17
100
AcDbEntity
  8
СПИРЕЯ ВАНГУТТА
100
AcDbPoint
 10
94.46832149312719
 20
22.701592367843443
 30
0.0
  0
POINT
  5
18D
330
17
100
AcDbEntity
  8
СПИРЕЯ ВАНГУТТА
100
AcDbPoint
 10
95.62805629383982
 20
22.23473856322278
 30
0.0
  0
POINT
  5
18E
330
17
100
AcDbEntity
  8
СПИРЕЯ ВАНГУТТА
100
AcDbPoint
 10
96.81285266692034
 20
21.878878091394704
 30
0.0
  0
POINT
  5
18F
330
17
100
AcDbEntity
  8
СПИРЕЯ ВАНГУТТА
100
AcDbPoint
 10
98.01550216394836
 20
21.657503729125093
 30
0.0
  0
POINT
  5
190
330
17
100
AcDbEntity
  8
СПИРЕЯ ВАНГУТТА
100
AcDbPoint
 10
99.23136711590108
 20
21.61293416754207
 30
0.0
  0
POINT
  5
191
330
17
100
AcDbEntity
  8
СПИРЕЯ ВАНГУТТА
100
AcDbPoint
 10
100.44391627600946
 20
21.730699357938683
 30
0.0
  0
POINT
  5
192
330
17
100
AcDbEntity
  8
СПИРЕЯ ВАНГУТТА
100
AcDbPoint
 10
101.6428129036142
 20
21.996239272490758
 30
0.0
  0
POINT
  5
193
330
17
100
AcDbEntity
  8
СПИРЕЯ ВАНГУТТА
100
AcDbPoint
 10
102.81844117220082
 20
22.393628014192707
 30
0.0
  0
POINT
  5
194
330
17
100
AcDbEntity
  8
СПИРЕЯ ВАНГУТТА
100
AcDbPoint
 10
103.96508637923661
 20
22.903485329840645
 30
0.0
  0
POINT
  5
195
330
17
100
AcDbEntity
  8
СПИРЕЯ ВАНГУТТА
100
AcDbPoint
 10
105.09136909251036
 20
23.486129650728476
 30
0.0
  0
POINT
  5
196
330
17
100
AcDbEntity
  8
СПИРЕЯ ВАНГУТТА
100
AcDbPoint
 10
106.20526902640478
 20
24.12032841723112
 30
0.0
  0
POINT
  5
197
330
17
100
AcDbEntity
  8
СПИРЕЯ ВАНГУТТА
100
AcDbPoint
 10
107.3131566199432
 20
24.784681903215596
 30
0.0
  0
POINT
  5
198
330
17
100
AcDbEntity
  8
СПИРЕЯ ВАНГУТТА
100
AcDbPoint
 10
108.42540234496644
 20
25.460667594574453
 30
0.0
  0
POINT
  5
19A
330
17
100
AcDbEntity
  8
ГОРТЕНЗИЯ МЕТЕЛЬЧАТАЯ
100
AcDbPoint
 10
0.8670789118854603
 20
35.32485959756947
 30
0.0
  0
POINT
  5
19B
330
17
100
AcDbEntity
  8
ГОРТЕНЗИЯ МЕТЕЛЬЧАТАЯ
100
AcDbPoint
 10
1.9747495445658836
 20
35.98576057810047
 30
0.0
  0
POINT
  5
19C
330
17
100
AcDbEntity
  8
ГОРТЕНЗИЯ МЕТЕЛЬЧАТАЯ
100
AcDbPoint
 10
3.088578354416989
 20
36.6134114428141
 30
0.0
  0
POINT
  5
19D
330
17
100
AcDbEntity
  8
ГОРТЕНЗИЯ МЕТЕЛЬЧАТАЯ
100
AcDbPoint
 10
4.217156268509683
 20
37.187749236819776
 30
0.0
  0
POINT
  5
19E
330
17
100
AcDbEntity
  8
ГОРТЕНЗИЯ МЕТЕЛЬЧАТАЯ
100
AcDbPoint
 10
5.371219829405921
 20
37.67555576677509
 30
0.0
  0
POINT
  5
19F
330
17
100
AcDbEntity
  8
ГОРТЕНЗИЯ МЕТЕЛЬЧАТАЯ
100
AcDbPoint
 10
6.551139604474996
 20
38.053587134163585
 30
0.0
  0
POINT
  5
1A0
330
17
100
AcDbEntity
  8
ГОРТЕНЗИЯ МЕТЕЛЬЧАТАЯ
100
AcDbPoint
 10
7.752394464096667
 20
38.30038372173627
 30
0.0
  0
POINT
  5
1A1
330
17
100
AcDbEntity
  8
ГОРТЕНЗИЯ МЕТЕЛЬЧАТАЯ
100
AcDbPoint
 10
8.965795748551246
 20
38.398061659932125
 30
0.0
  0
POINT
  5
1A2
330
17
100
AcDbEntity
  8
ГОРТЕНЗИЯ МЕТЕЛЬЧАТАЯ
100
AcDbPoint
 10
10.179821784194413
 20
38.311182770217805
 30
0.0
  0
POINT
  5
1A3
330
17
100
AcDbEntity
  8
ГОРТЕНЗИЯ МЕТЕЛЬЧАТАЯ
100
AcDbPoint
 10
11.381572864878354
 20
38.0709190344528
 30
0.0
  0
POINT
  5
1A4
330
17
100
AcDbEntity
  8
ГОРТЕНЗИЯ МЕТЕЛЬЧАТАЯ
100
AcDbPoint
 10
12.562613282074523
 20
37.69864147738262
 30
0.0
  0
POINT
  5
1A5
330
17
100
AcDbEntity
  8
ГОРТЕНЗИЯ МЕТЕЛЬЧАТАЯ
100
AcDbPoint
 10
13.718869338602314
 20
37.217811545775135
 30
0.0
  0
POINT
  5
1A6
330
17
100
AcDbEntity
  8
ГОРТЕНЗИЯ МЕТЕЛЬЧАТАЯ
100
AcDbPoint
 10
14.84898994143151
 20
36.647958996456346
 30
0.0
  0
POINT
  5
1A7
330
17
100
AcDbEntity
  8
ГОРТЕНЗИЯ МЕТЕЛЬЧАТАЯ
100
AcDbPoint
 10
15.963242560377601
 20
36.022307914267806
 30
0.0
  0
POINT
  5
1A8
330
17
100
AcDbEntity
  8
ГОРТЕНЗИЯ МЕТЕЛЬЧАТАЯ
100
AcDbPoint
 10
17.07075343649373
 20
35.36264332762517
 30
0.0
  0
POINT
  5
1A9
330
17
100
AcDbEntity
  8
ГОРТЕНЗИЯ МЕТЕЛЬЧАТАЯ
100
AcDbPoint
 10
18.181299335839945
 20
34.68768819478839
 30
0.0
  0
POINT
  5
1AA
330
17
100
AcDbEntity
  8
ГОРТЕНЗИЯ МЕТЕЛЬЧАТАЯ
100
AcDbPoint
 10
19.304798746703927
 20
34.016179959511184
 30
0.0
  0
POINT
  5
1AB
330
17
100
AcDbEntity
  8
ГОРТЕНЗИЯ МЕТЕЛЬЧАТАЯ
100
AcDbPoint
 10
20.45438550207879
 20
33.36609935267518
 30
0.0
  0
POINT
  5
1AC
330
17
100
AcDbEntity
  8
ГОРТЕНЗИЯ МЕТЕЛЬЧАТАЯ
100
AcDbPoint
 10
21.640833762623327
 20
32.759141039495724
 30
0.0
  0
POINT
  5
1AD
330
17
100
AcDbEntity
  8
ГОРТЕНЗИЯ МЕТЕЛЬЧАТАЯ
100
AcDbPoint
 10
22.876544070058376
 20
32.226629114154164
 30
0.0
  0
POINT
  5
1AE
330
17
100
AcDbEntity
  8
ГОРТЕНЗИЯ МЕТЕЛЬЧАТАЯ
100
AcDbPoint
 10
24.168295108377677
 20
31.80595442076793
 30
0.0
  0
POINT
  5
1AF
330
17
100
AcDbEntity
  8
ГОРТЕНЗИЯ МЕТЕЛЬЧАТАЯ
100
AcDbPoint
 10
25.508673400452665
 20
31.523348083202507
 30
0.0
  0
POINT
  5
1B0
330
17
100
AcDbEntity
  8
ГОРТЕНЗИЯ МЕТЕЛЬЧАТАЯ
100
AcDbPoint
 10
26.88337925973508
 20
31.40586952657215
 30
0.0
  0
POINT
  5
1B1
330
17
100
AcDbEntity
  8
ГОРТЕНЗИЯ МЕТЕЛЬЧАТАЯ
100
AcDbPoint
 10
28.260965044781564
 20
31.487260723448014
 30
0.0
  0
POINT
  5
1B2
330
17
100
AcDbEntity
  8
ГОРТЕНЗИЯ МЕТЕЛЬЧАТАЯ
100
AcDbPoint
 10
29.609829907957607
 20
31.748690226338447
 30
0.0
  0
POINT
  5
1B3
330
17
100
AcDbEntity
  8
ГОРТЕНЗИЯ МЕТЕЛЬЧАТАЯ
100
AcDbPoint
 10
30.90751204885001
 20
32.15085827006505
 30
0.0
  0
POINT
  5
1B4
330
17
100
AcDbEntity
  8
ГОРТЕНЗИЯ МЕТЕЛЬЧАТАЯ
100
AcDbPoint
 10
32.153588091906975
 20
32.66321138981038
 30
0.0
  0
POINT
  5
1B5
330
17
100
AcDbEntity
  8
ГОРТЕНЗИЯ МЕТЕЛЬЧАТАЯ
100
AcDbPoint
 10
33.34865072782951
 20
33.257273942583424
 30
0.0
  0
POINT
  5
1B6
330
17
100
AcDbEntity
  8
ГОРТЕНЗИЯ МЕТЕЛЬЧАТАЯ
100
AcDbPoint
 10
34.50293707024809
 20
33.902896216411925
 30
0.0
  0
POINT
  5
1B7
330
17
100
AcDbEntity
  8
ГОРТЕНЗИЯ МЕТЕЛЬЧАТАЯ
100
AcDbPoint
 10
35.630209725813316
 20
34.57313034974313
 30
0.0
  0
POINT
  5
1B8
330
17
100
AcDbEntity
  8
ГОРТЕНЗИЯ МЕТЕЛЬЧАТАЯ
100
AcDbPoint
 10
36.74200487841862
 20
35.248843524622075
 30
0.0
  0
POINT
  5
1B9
330
17
100
AcDbEntity
  8
ГОРТЕНЗИЯ МЕТЕЛЬЧАТАЯ
100
AcDbPoint
 10
37.85034317310655
 20
35.912443956481034
 30
0.0
  0
POINT
  5
1BA
330
17
100
AcDbEntity
  8
ГОРТЕНЗИЯ МЕТЕЛЬЧАТАЯ
100
AcDbPoint
 10
38.963706709070976
 20
36.54433088159979
 30
0.0
  0
POINT
  5
1BB
330
17
100
AcDbEntity
  8
ГОРТЕНЗИЯ МЕТЕЛЬЧАТАЯ
100
AcDbPoint
 10
40.09069339377457
 20
37.124429210186776
 30
0.0
  0
POINT
  5
1BC
330
17
100
AcDbEntity
  8
ГОРТЕНЗИЯ МЕТЕЛЬЧАТАЯ
100
AcDbPoint
 10
41.23886993305967
 20
37.62942974032868
 30
0.0
  0
POINT
  5
1BD
330
17
100
AcDbEntity
  8
ГОРТЕНЗИЯ МЕТЕЛЬЧАТАЯ
100
AcDbPoint
 10
42.41655112359575
 20
38.01899055035692
 30
0.0
  0
POINT
  5
1BE
330
17
100
AcDbEntity
  8
ГОРТЕНЗИЯ МЕТЕЛЬЧАТАЯ
100
AcDbPoint
 10
43.61680475271304
 20
38.278886624633195
 30
0.0
  0
POINT
  5
1BF
330
17
100
AcDbEntity
  8
ГОРТЕНЗИЯ МЕТЕЛЬЧАТАЯ
100
AcDbPoint
 10
44.828976622232226
 20
38.390399118855726
 30
0.0
  0
POINT
  5
1C0
330
17
100
AcDbEntity
  8
ГОРТЕНЗИЯ МЕТЕЛЬЧАТАЯ
100
AcDbPoint
 10
46.04427265734478
 20
38.332882634378926
 30
0.0
  0
POINT
  5
1C1
330
17
100
AcDbEntity
  8
ГОРТЕНЗИЯ МЕТЕЛЬЧАТАЯ
100
AcDbPoint
 10
47.246053878953816
 20
38.10588649997123
 30
0.0
  0
POINT
  5
1C2
330
17
100
AcDbEntity
  8
ГОРТЕНЗИЯ МЕТЕЛЬЧАТАЯ
100
AcDbPoint
 10
48.43029444568466
 20
37.744858694805
 30
0.0
  0
POINT
  5
1C3
330
17
100
AcDbEntity
  8
ГОРТЕНЗИЯ МЕТЕЛЬЧАТАЯ
100
AcDbPoint
 10
49.58896512413129
 20
37.2737328078791
 30
0.0
  0
POINT
  5
1C4
330
17
100
AcDbEntity
  8
ГОРТЕНЗИЯ МЕТЕЛЬЧАТАЯ
100
AcDbPoint
 10
50.72413454762608
 20
36.717068773603856
 30
0.0
  0
POINT
  5
1C5
330
17
100
AcDbEntity
  8
ГОРТЕНЗИЯ МЕТЕЛЬЧАТАЯ
100
AcDbPoint
 10
51.83923051199956
 20
36.09540879890007
 30
0.0
  0
POINT
  5
1C6
330
17
100
AcDbEntity
  8
ГОРТЕНЗИЯ МЕТЕЛЬЧАТАЯ
100
AcDbPoint
 10
52.94670076187987
 20
35.43804104714119
 30
0.0
  0
POINT
  5
1C7
330
17
100
AcDbEntity
  8
ГОРТЕНЗИЯ МЕТЕЛЬЧАТАЯ
100
AcDbPoint
 10
57.50545912440754
 20
32.826698729401805
 30
0.0
  0
POINT
  5
1C8
330
17
100
AcDbEntity
  8
ГОРТЕНЗИЯ МЕТЕЛЬЧАТАЯ
100
AcDbPoint
 10
58.733896826677636
 20
32.28052043138587
 30
0.0
  0
POINT
  5
1C9
330
17
100
AcDbEntity
  8
ГОРТЕНЗИЯ МЕТЕЛЬЧАТАЯ
100
AcDbPoint
 10
60.01943896310669
 20
31.844487018686756
 30
0.0
  0
POINT
  5
1CA
330
17
100
AcDbEntity
  8
ГОРТЕНЗИЯ МЕТЕЛЬЧАТАЯ
100
AcDbPoint
 10
61.35608730380771
 20
31.547419610517803
 30
0.0
  0
POINT
  5
1CB
330
17
100
AcDbEntity
  8
ГОРТЕНЗИЯ МЕТЕЛЬЧАТАЯ
100
AcDbPoint
 10
62.72788988547409
 20
31.413822639602994
 30
0.0
  0
POINT
  5
1CC
330
17
100
AcDbEntity
  8
ГОРТЕНЗИЯ МЕТЕЛЬЧАТАЯ
100
AcDbPoint
 10
64.1073613381594
 20
31.46337229359545
 30
0.0
  0
POINT
  5
1CD
330
17
100
AcDbEntity
  8
ГОРТЕНЗИЯ МЕТЕЛЬЧАТАЯ
100
AcDbPoint
 10
65.4599492152063
 20
31.710125977067833
 30
0.0
  0
POINT
  5
1CE
330
17
100
AcDbEntity
  8
ГОРТЕНЗИЯ МЕТЕЛЬЧАТАЯ
100
AcDbPoint
 10
66.7635249568351
 20
32.1004208224466
 30
0.0
  0
POINT
  5
1CF
330
17
100
AcDbEntity
  8
ГОРТЕНЗИЯ МЕТЕЛЬЧАТАЯ
100
AcDbPoint
 10
68.01470354246632
 20
32.603199567398136
 30
0.0
  0
POINT
  5
1D0
330
17
100
AcDbEntity
  8
ГОРТЕНЗИЯ МЕТЕЛЬЧАТАЯ
100
AcDbPoint
 10
69.21598869455224
 20
33.18729462008501
 30
0.0
  0
POINT
  5
1D1
330
17
100
AcDbEntity
  8
ГОРТЕНЗИЯ МЕТЕЛЬЧАТАЯ
100
AcDbPoint
 10
70.37475473285954
 20
33.82738408721212
 30
0.0
  0
POINT
  5
1D2
330
17
100
AcDbEntity
  8
ГОРТЕНЗИЯ МЕТЕЛЬЧАТАЯ
100
AcDbPoint
 10
71.5041137094314
 20
34.4964969342575
 30
0.0
  0
POINT
  5
1D3
330
17
100
AcDbEntity
  8
ГОРТЕНЗИЯ МЕТЕЛЬЧАТАЯ
100
AcDbPoint
 10
72.61693084495168
 20
35.17282745167462
 30
0.0
  0
POINT
  5
1D4
330
17
100
AcDbEntity
  8
ГОРТЕНЗИЯ МЕТЕЛЬЧАТАЯ
100
AcDbPoint
 10
73.72433808606849
 20
35.83818893258711
 30
0.0
  0
POINT
  5
1D5
330
17
100
AcDbEntity
  8
ГОРТЕНЗИЯ МЕТЕЛЬЧАТАЯ
100
AcDbPoint
 10
74.83846674035739
 20
36.47507196520301
 30
0.0
  0
POINT
  5
1D6
330
17
100
AcDbEntity
  8
ГОРТЕНЗИЯ МЕТЕЛЬЧАТАЯ
100
AcDbPoint
 10
75.96421224875543
 20
37.061145416729325
 30
0.0
  0
POINT
  5
1D7
330
17
100
AcDbEntity
  8
ГОРТЕНЗИЯ МЕТЕЛЬЧАТАЯ
100
AcDbPoint
 10
77.10966404515695
 20
37.57524517553247
 30
0.0
  0
POINT
  5
1D8
330
17
100
AcDbEntity
  8
ГОРТЕНЗИЯ МЕТЕЛЬЧАТАЯ
100
AcDbPoint
 10
78.28194200063339
 20
37.984482991670525
 30
0.0
  0
POINT
  5
1D9
330
17
100
AcDbEntity
  8
ГОРТЕНЗИЯ МЕТЕЛЬЧАТАЯ
100
AcDbPoint
 10
79.47990493094966
 20
38.2573056931884
 30
0.0
  0
POINT
  5
1DA
330
17
100
AcDbEntity
  8
ГОРТЕНЗИЯ МЕТЕЛЬЧАТАЯ
100
AcDbPoint
 10
80.69214902189998
 20
38.382881665944225
 30
0.0
  0
POINT
  5
1DB
330
17
100
AcDbEntity
  8
ГОРТЕНЗИЯ МЕТЕЛЬЧАТАЯ
100
AcDbPoint
 10
81.90841016585657
 20
38.3515579258516
 30
0.0
  0
POINT
  5
1DC
330
17
100
AcDbEntity
  8
ГОРТЕНЗИЯ МЕТЕЛЬЧАТАЯ
100
AcDbPoint
 10
83.11249801194396
 20
38.14046299668246
 30
0.0
  0
POINT
  5
1DD
330
17
100
AcDbEntity
  8
ГОРТЕНЗИЯ МЕТЕЛЬЧАТАЯ
100
AcDbPoint
 10
84.29658272531684
 20
37.79162932710371
 30
0.0
  0
POINT
  5
1DE
330
17
100
AcDbEntity
  8
ГОРТЕНЗИЯ МЕТЕЛЬЧАТАЯ
100
AcDbPoint
 10
85.4590769120646
 20
37.32969136032183
 30
0.0
  0
POINT
  5
1DF
330
17
100
AcDbEntity
  8
ГОРТЕНЗИЯ МЕТЕЛЬЧАТАЯ
100
AcDbPoint
 10
86.59653149018972
 20
36.78095534627936
 30
0.0
  0
POINT
  5
1E0
330
17
100
AcDbEntity
  8
ГОРТЕНЗИЯ МЕТЕЛЬЧАТАЯ
100
AcDbPoint
 10
87.71522336920636
 20
36.16851801620051
 30
0.0
  0
POINT
  5
1E1
330
17
100
AcDbEntity
  8
ГОРТЕНЗИЯ МЕТЕЛЬЧАТАЯ
100
AcDbPoint
 10
89.9311512689061
 20
34.83972034068327
 30
0.0
  0
POINT
  5
1E2
330
17
100
AcDbEntity
  8
ГОРТЕНЗИЯ МЕТЕЛЬЧАТАЯ
100
AcDbPoint
 10
91.05135107897017
 20
34.16553707234729
 30
0.0
  0
POINT
  5
1E3
330
17
100
AcDbEntity
  8
ГОРТЕНЗИЯ МЕТЕЛЬЧАТАЯ
100
AcDbPoint
 10
92.19376059949785
 20
33.51018201670354
 30
0.0
  0
POINT
  5
1E4
330
17
100
AcDbEntity
  8
ГОРТЕНЗИЯ МЕТЕЛЬЧАТАЯ
100
AcDbPoint
 10
93.37010320181861
 20
32.894292424464474
 30
0.0
  0
POINT
  5
1E5
330
17
100
AcDbEntity
  8
ГОРТЕНЗИЯ МЕТЕЛЬЧАТАЯ
100
AcDbPoint
 10
94.59374340777366
 20
32.34080257751513
 30
0.0
  0
POINT
  5
1E6
330
17
100
AcDbEntity
  8
ГОРТЕНЗИЯ МЕТЕЛЬЧАТАЯ
100
AcDbPoint
 10
95.8706051025012
 20
31.883108244870233
 30
0.0
  0
POINT
  5
1E7
330
17
100
AcDbEntity
  8
ГОРТЕНЗИЯ МЕТЕЛЬЧАТАЯ
100
AcDbPoint
 10
97.20323238137925
 20
31.571649826425425
 30
0.0
  0
POINT
  5
1E8
330
17
100
AcDbEntity
  8
ГОРТЕНЗИЯ МЕТЕЛЬЧАТАЯ
100
AcDbPoint
 10
98.57241236406851
 20
31.421920603758917
 30
0.0
  0
POINT
  5
1E9
330
17
100
AcDbEntity
  8
ГОРТЕНЗИЯ МЕТЕЛЬЧАТАЯ
100
AcDbPoint
 10
99.95261630371331
 20
31.450310205822102
 30
0.0
  0
POINT
  5
1EA
330
17
100
AcDbEntity
  8
ГОРТЕНЗИЯ МЕТЕЛЬЧАТАЯ
100
AcDbPoint
 10
101.31003375209733
 20
31.67167443688315
 30
0.0
  0
POINT
  5
1EB
330
17
100
AcDbEntity
  8
ГОРТЕНЗИЯ МЕТЕЛЬЧАТАЯ
100
AcDbPoint
 10
102.62152370553335
 20
32.050732980894935
 30
0.0
  0
POINT
  5
1EC
330
17
100
AcDbEntity
  8
ГОРТЕНЗИЯ МЕТЕЛЬЧАТАЯ
100
AcDbPoint
 10
103.8758034516254
 20
32.54322522979517
 30
0.0
  0
POINT
  5
1ED
330
17
100
AcDbEntity
  8
ГОРТЕНЗИЯ МЕТЕЛЬЧАТАЯ
100
AcDbPoint
 10
105.08181906685886
 20
33.12018157741569
 30
0.0
  0
POINT
  5
1EE
330
17
100
AcDbEntity
  8
ГОРТЕНЗИЯ МЕТЕЛЬЧАТАЯ
100
AcDbPoint
 10
106.24577665615588
 20
33.753265470679416
 30
0.0
  0
POINT
  5
1EF
330
17
100
AcDbEntity
  8
ГОРТЕНЗИЯ МЕТЕЛЬЧАТАЯ
100
AcDbPoint
 10
107.37801645399149
 20
34.419865546123965
 30
0.0
  0
POINT
  5
1F0
330
17
100
AcDbEntity
  8
ГОРТЕНЗИЯ МЕТЕЛЬЧАТАЯ
100
AcDbPoint
 10
108.49185681148472
 20
35.09681137872716
 30
0.0
  0
POINT
  5
1F1
330
17
100
AcDbEntity
  8
ГОРТЕНЗИЯ МЕТЕЛЬЧАТАЯ
100
AcDbPoint
 10
0.80460196844567
 20
36.68904486846628
 30
0.0
  0
POINT
  5
1F2
330
17
100
AcDbEntity
  8
ГОРТЕНЗИЯ МЕТЕЛЬЧАТАЯ
100
AcDbPoint
 10
1.941821523368452
 20
37.350499686417095
 30
0.0
  0
POINT
  5
1F3
330
17
100
AcDbEntity
  8
ГОРТЕНЗИЯ МЕТЕЛЬЧАТАЯ
100
AcDbPoint
 10
3.1115407114441163
 20
37.976495165171315
 30
0.0
  0
POINT
  5
1F4
330
17
100
AcDbEntity
  8
ГОРТЕНЗИЯ МЕТЕЛЬЧАТАЯ
100
AcDbPoint
 10
4.321776611441148
 20
38.542020797891446
 30
0.0
  0
POINT
  5
1F5
330
17
100
AcDbEntity
  8
ГОРТЕНЗИЯ МЕТЕЛЬЧАТАЯ
100
AcDbPoint
 10
5.587660583569854
 20
39.02232062051323
 30
0.0
  0
POINT
  5
1F6
330
17
100
AcDbEntity
  8
ГОРТЕНЗИЯ МЕТЕЛЬЧАТАЯ
100
AcDbPoint
 10
6.906579328076092
 20
39.380984736581865
 30
0.0
  0
POINT
  5
1F7
330
17
100
AcDbEntity
  8
ГОРТЕНЗИЯ МЕТЕЛЬЧАТАЯ
100
AcDbPoint
 10
8.271054414011278
 20
39.56197736015027
 30
0.0
  0
POINT
  5
1F8
330
17
100
AcDbEntity
  8
ГОРТЕНЗИЯ МЕТЕЛЬЧАТАЯ
100
AcDbPoint
 10
9.651336265266428
 20
39.56617393524961
 30
0.0
  0
POINT
  5
1F9
330
17
100
AcDbEntity
  8
ГОРТЕНЗИЯ МЕТЕЛЬЧАТАЯ
100
AcDbPoint
 10
11.017011173800343
 20
39.39322777383476
 30
0.0
  0
POINT
  5
1FA
330
17
100
AcDbEntity
  8
ГОРТЕНЗИЯ МЕТЕЛЬЧАТАЯ
100
AcDbPoint
 10
12.33974203487072
 20
39.047626913469074
 30
0.0
  0
POINT
  5
1FB
330
17
100
AcDbEntity
  8
ГОРТЕНЗИЯ МЕТЕЛЬЧАТАЯ
100
AcDbPoint
 10
13.60817611131434
 20
38.572225770270656
 30
0.0
  0
POINT
  5
1FC
330
17
100
AcDbEntity
  8
ГОРТЕНЗИЯ МЕТЕЛЬЧАТАЯ
100
AcDbPoint
 10
14.821363926514895
 20
38.010029666658006
 30
0.0
  0
POINT
  5
1FD
330
17
100
AcDbEntity
  8
ГОРТЕНЗИЯ МЕТЕЛЬЧАТАЯ
100
AcDbPoint
 10
15.993084562304933
 20
37.386499365896334
 30
0.0
  0
POINT
  5
1FE
330
17
100
AcDbEntity
  8
ГОРТЕНЗИЯ МЕТЕЛЬЧАТАЯ
100
AcDbPoint
 10
17.13183710408602
 20
36.72650458555601
 30
0.0
  0
POINT
  5
1FF
330
17
100
AcDbEntity
  8
ГОРТЕНЗИЯ МЕТЕЛЬЧАТАЯ
100
AcDbPoint
 10
18.24908426292263
 20
36.050738158531615
 30
0.0
  0
POINT
  5
200
330
17
100
AcDbEntity
  8
ГОРТЕНЗИЯ МЕТЕЛЬЧАТАЯ
100
AcDbPoint
 10
19.356505708312266
 20
35.37856273551007
 30
0.0
  0
POINT
  5
201
330
17
100
AcDbEntity
  8
ГОРТЕНЗИЯ МЕТЕЛЬЧАТАЯ
100
AcDbPoint
 10
20.466130179170147
 20
34.730780056602384
 30
0.0
  0
POINT
  5
202
330
17
100
AcDbEntity
  8
ГОРТЕНЗИЯ МЕТЕЛЬЧАТАЯ
100
AcDbPoint
 10
21.587444616791263
 20
34.127163235184874
 30
0.0
  0
POINT
  5
203
330
17
100
AcDbEntity
  8
ГОРТЕНЗИЯ МЕТЕЛЬЧАТАЯ
100
AcDbPoint
 10
22.729161360497
 20
33.58913463864177
 30
0.0
  0
POINT
  5
204
330
17
100
AcDbEntity
  8
ГОРТЕНЗИЯ МЕТЕЛЬЧАТАЯ
100
AcDbPoint
 10
23.893561924472976
 20
33.14175409587883
 30
0.0
  0
POINT
  5
205
330
17
100
AcDbEntity
  8
ГОРТЕНЗИЯ МЕТЕЛЬЧАТАЯ
100
AcDbPoint
 10
25.07990435827986
 20
32.80951140159159
 30
0.0
  0
POINT
  5
206
330
17
100
AcDbEntity
  8
ГОРТЕНЗИЯ МЕТЕЛЬЧАТАЯ
100
AcDbPoint
 10
26.289154633494586
 20
32.638430818967244
 30
0.0
  0
POINT
  5
207
330
17
100
AcDbEntity
  8
ГОРТЕНЗИЯ МЕТЕЛЬЧАТАЯ
100
AcDbPoint
 10
27.505204710324055
 20
32.62770595678145
 30
0.0
  0
POINT
  5
208
330
17
100
AcDbEntity
  8
ГОРТЕНЗИЯ МЕТЕЛЬЧАТАЯ
100
AcDbPoint
 10
28.716503164374224
 20
32.773448452949744
 30
0.0
  0
POINT
  5
209
330
17
100
AcDbEntity
  8
ГОРТЕНЗИЯ МЕТЕЛЬЧАТАЯ
100
AcDbPoint
 10
29.909785040231693
 20
33.07264477523359
 30
0.0
  0
POINT
  5
20A
330
17
100
AcDbEntity
  8
ГОРТЕНЗИЯ МЕТЕЛЬЧАТАЯ
100
AcDbPoint
 10
31.075718406228937
 20
33.50491521010305
 30
0.0
  0
POINT
  5
20B
330
17
100
AcDbEntity
  8
ГОРТЕНЗИЯ МЕТЕЛЬЧАТАЯ
100
AcDbPoint
 10
32.21944529170786
 20
34.030667710395484
 30
0.0
  0
POINT
  5
20C
330
17
100
AcDbEntity
  8
ГОРТЕНЗИЯ МЕТЕЛЬЧАТАЯ
100
AcDbPoint
 10
33.344892623937106
 20
34.62631099236614
 30
0.0
  0
POINT
  5
20D
330
17
100
AcDbEntity
  8
ГОРТЕНЗИЯ МЕТЕЛЬЧАТАЯ
100
AcDbPoint
 10
34.45588919191925
 20
35.26801612670676
 30
0.0
  0
POINT
  5
20E
330
17
100
AcDbEntity
  8
ГОРТЕНЗИЯ МЕТЕЛЬЧАТАЯ
100
AcDbPoint
 10
35.563304686877096
 20
35.93671404911052
 30
0.0
  0
POINT
  5
20F
330
17
100
AcDbEntity
  8
ГОРТЕНЗИЯ МЕТЕЛЬЧАТАЯ
100
AcDbPoint
 10
36.67759670735507
 20
36.61393060851288
 30
0.0
  0
POINT
  5
210
330
17
100
AcDbEntity
  8
ГОРТЕНЗИЯ МЕТЕЛЬЧАТАЯ
100
AcDbPoint
 10
37.811637163102205
 20
37.278493958509394
 30
0.0
  0
POINT
  5
211
330
17
100
AcDbEntity
  8
ГОРТЕНЗИЯ МЕТЕЛЬЧАТАЯ
100
AcDbPoint
 10
38.97735701764781
 20
37.909410996051136
 30
0.0
  0
POINT
  5
212
330
17
100
AcDbEntity
  8
ГОРТЕНЗИЯ МЕТЕЛЬЧАТАЯ
100
AcDbPoint
 10
40.18546046238801
 20
38.48321329056381
 30
0.0
  0
POINT
  5
213
330
17
100
AcDbEntity
  8
ГОРТЕНЗИЯ МЕТЕЛЬЧАТАЯ
100
AcDbPoint
 10
41.442490052988525
 20
38.97164391761733
 30
0.0
  0
POINT
  5
214
330
17
100
AcDbEntity
  8
ГОРТЕНЗИЯ МЕТЕЛЬЧАТАЯ
100
AcDbPoint
 10
42.75609340157823
 20
39.34524770142196
 30
0.0
  0
POINT
  5
215
330
17
100
AcDbEntity
  8
ГОРТЕНЗИЯ МЕТЕЛЬЧАТАЯ
100
AcDbPoint
 10
44.115837293341656
 20
39.55348080820869
 30
0.0
  0
POINT
  5
216
330
17
100
AcDbEntity
  8
ГОРТЕНЗИЯ МЕТЕЛЬЧАТАЯ
100
AcDbPoint
 10
45.4961525014544
 20
39.574462087612446
 30
0.0
  0
POINT
  5
217
330
17
100
AcDbEntity
  8
ГОРТЕНЗИЯ МЕТЕЛЬЧАТАЯ
100
AcDbPoint
 10
46.86417733082035
 20
39.417626634491796
 30
0.0
  0
POINT
  5
218
330
17
100
AcDbEntity
  8
ГОРТЕНЗИЯ МЕТЕЛЬЧАТАЯ
100
AcDbPoint
 10
48.19452502685355
 20
39.09817466594891
 30
0.0
  0
POINT
  5
219
330
17
100
AcDbEntity
  8
ГОРТЕНЗИЯ МЕТЕЛЬЧАТАЯ
100
AcDbPoint
 10
49.46806046855669
 20
38.63259240458046
 30
0.0
  0
POINT
  5
21A
330
17
100
AcDbEntity
  8
ГОРТЕНЗИЯ МЕТЕЛЬЧАТАЯ
100
AcDbPoint
 10
50.68958675046077
 20
38.07588535554862
 30
0.0
  0
POINT
  5
21B
330
17
100
AcDbEntity
  8
ГОРТЕНЗИЯ МЕТЕЛЬЧАТАЯ
100
AcDbPoint
 10
51.8628933293441
 20
37.458492321425275
 30
0.0
  0
POINT
  5
21C
330
17
100
AcDbEntity
  8
ГОРТЕНЗИЯ МЕТЕЛЬЧАТАЯ
100
AcDbPoint
 10
53.00471434822253
 20
36.801422482241385
 30
0.0
  0
POINT
  5
21D
330
17
100
AcDbEntity
  8
ГОРТЕНЗИЯ МЕТЕЛЬЧАТАЯ
100
AcDbPoint
 10
57.45977697984623
 20
34.19092854946482
 30
0.0
  0
POINT
  5
21E
330
17
100
AcDbEntity
  8
ГОРТЕНЗИЯ МЕТЕЛЬЧАТАЯ
100
AcDbPoint
 10
58.59820294081161
 20
33.64561724608446
 30
0.0
  0
POINT
  5
21F
330
17
100
AcDbEntity
  8
ГОРТЕНЗИЯ МЕТЕЛЬЧАТАЯ
100
AcDbPoint
 10
59.76241886103867
 20
33.1877203775024
 30
0.0
  0
POINT
  5
220
330
17
100
AcDbEntity
  8
ГОРТЕНЗИЯ МЕТЕЛЬЧАТАЯ
100
AcDbPoint
 10
60.946393658524066
 20
32.844251743834995
 30
0.0
  0
POINT
  5
221
330
17
100
AcDbEntity
  8
ГОРТЕНЗИЯ МЕТЕЛЬЧАТАЯ
100
AcDbPoint
 10
62.152057024047274
 20
32.64540844450079
 30
0.0
  0
POINT
  5
222
330
17
100
AcDbEntity
  8
ГОРТЕНЗИЯ МЕТЕЛЬЧАТАЯ
100
AcDbPoint
 10
63.36820060020977
 20
32.62038778912684
 30
0.0
  0
POINT
  5
223
330
17
100
AcDbEntity
  8
ГОРТЕНЗИЯ МЕТЕЛЬЧАТАЯ
100
AcDbPoint
 10
64.58020309257574
 20
32.752132507116286
 30
0.0
  0
POINT
  5
224
330
17
100
AcDbEntity
  8
ГОРТЕНЗИЯ МЕТЕЛЬЧАТАЯ
100
AcDbPoint
 10
65.77743217380606
 20
33.03070782306337
 30
0.0
  0
POINT
  5
225
330
17
100
AcDbEntity
  8
ГОРТЕНЗИЯ МЕТЕЛЬЧАТАЯ
100
AcDbPoint
 10
66.94706693590726
 20
33.44930104111879
 30
0.0
  0
POINT
  5
226
330
17
100
AcDbEntity
  8
ГОРТЕНЗИЯ МЕТЕЛЬЧАТАЯ
100
AcDbPoint
 10
68.0915758648085
 20
33.96675328870713
 30
0.0
  0
POINT
  5
227
330
17
100
AcDbEntity
  8
ГОРТЕНЗИЯ МЕТЕЛЬЧАТАЯ
100
AcDbPoint
 10
69.21802326423649
 20
34.556163024699444
 30
0.0
  0
POINT
  5
228
330
17
100
AcDbEntity
  8
ГОРТЕНЗИЯ МЕТЕЛЬЧАТАЯ
100
AcDbPoint
 10
70.33082062439685
 20
35.19431582352926
 30
0.0
  0
POINT
  5
229
330
17
100
AcDbEntity
  8
ГОРТЕНЗИЯ МЕТЕЛЬЧАТАЯ
100
AcDbPoint
 10
71.43823065341016
 20
35.86069797616307
 30
0.0
  0
POINT
  5
22A
330
17
100
AcDbEntity
  8
ГОРТЕНЗИЯ МЕТЕЛЬЧАТАЯ
100
AcDbPoint
 10
72.55149890930281
 20
36.53730011684735
 30
0.0
  0
POINT
  5
22B
330
17
100
AcDbEntity
  8
ГОРТЕНЗИЯ МЕТЕЛЬЧАТАЯ
100
AcDbPoint
 10
73.68177917204109
 20
37.205916432170454
 30
0.0
  0
POINT
  5
22C
330
17
100
AcDbEntity
  8
ГОРТЕНЗИЯ МЕТЕЛЬЧАТАЯ
100
AcDbPoint
 10
74.84318300429223
 20
37.84230675071446
 30
0.0
  0
POINT
  5
22D
330
17
100
AcDbEntity
  8
ГОРТЕНЗИЯ МЕТЕЛЬЧАТАЯ
100
AcDbPoint
 10
76.0465538118723
 20
38.42325560437505
 30
0.0
  0
POINT
  5
22E
330
17
100
AcDbEntity
  8
ГОРТЕНЗИЯ МЕТЕЛЬЧАТАЯ
100
AcDbPoint
 10
77.29891751077118
 20
38.92143215638259
 30
0.0
  0
POINT
  5
22F
330
17
100
AcDbEntity
  8
ГОРТЕНЗИЯ МЕТЕЛЬЧАТАЯ
100
AcDbPoint
 10
78.60616411271234
 20
39.306846313407355
 30
0.0
  0
POINT
  5
230
330
17
100
AcDbEntity
  8
ГОРТЕНЗИЯ МЕТЕЛЬЧАТАЯ
100
AcDbPoint
 10
79.96062741344652
 20
39.54484657224047
 30
0.0
  0
POINT
  5
231
330
17
100
AcDbEntity
  8
ГОРТЕНЗИЯ МЕТЕЛЬЧАТАЯ
100
AcDbPoint
 10
81.34068234712932
 20
39.58262372872374
 30
0.0
  0
POINT
  5
232
330
17
100
AcDbEntity
  8
ГОРТЕНЗИЯ МЕТЕЛЬЧАТАЯ
100
AcDbPoint
 10
82.71132777626669
 20
39.44190859555172
 30
0.0
  0
POINT
  5
233
330
17
100
AcDbEntity
  8
ГОРТЕНЗИЯ МЕТЕЛЬЧАТАЯ
100
AcDbPoint
 10
84.04620429112293
 20
39.138490706684784
 30
0.0
  0
POINT
  5
234
330
17
100
AcDbEntity
  8
ГОРТЕНЗИЯ МЕТЕЛЬЧАТАЯ
100
AcDbPoint
 10
85.32791820958707
 20
38.69290058666393
 30
0.0
  0
POINT
  5
235
330
17
100
AcDbEntity
  8
ГОРТЕНЗИЯ МЕТЕЛЬЧАТАЯ
100
AcDbPoint
 10
86.55423936291437
 20
38.143494781216575
 30
0.0
  0
POINT
  5
236
330
17
100
AcDbEntity
  8
ГОРТЕНЗИЯ МЕТЕЛЬЧАТАЯ
100
AcDbPoint
 10
87.7346430960771
 20
37.52940569198667
 30
0.0
  0
POINT
  5
237
330
17
100
AcDbEntity
  8
ГОРТЕНЗИЯ МЕТЕЛЬЧАТАЯ
100
AcDbPoint
 10
89.99893619598879
 20
36.2027703044265
 30
0.0
  0
POINT
  5
238
330
17
100
AcDbEntity
  8
ГОРТЕНЗИЯ МЕТЕЛЬЧАТАЯ
100
AcDbPoint
 10
91.10800988942027
 20
35.528705595303556
 30
0.0
  0
POINT
  5
239
330
17
100
AcDbEntity
  8
ГОРТЕНЗИЯ МЕТЕЛЬЧАТАЯ
100
AcDbPoint
 10
92.21546105346054
 20
34.87234881665709
 30
0.0
  0
POINT
  5
23A
330
17
100
AcDbEntity
  8
ГОРТЕНЗИЯ МЕТЕЛЬЧАТАЯ
100
AcDbPoint
 10
93.33209947938278
 20
34.25467387683805
 30
0.0
  0
POINT
  5
23B
330
17
100
AcDbEntity
  8
ГОРТЕНЗИЯ МЕТЕЛЬЧАТАЯ
100
AcDbPoint
 10
94.4683214931272
 20
33.701592367843446
 30
0.0
  0
POINT
  5
23C
330
17
100
AcDbEntity
  8
ГОРТЕНЗИЯ МЕТЕЛЬЧАТАЯ
100
AcDbPoint
 10
95.62805629383983
 20
33.23473856322277
 30
0.0
  0
POINT
  5
23D
330
17
100
AcDbEntity
  8
ГОРТЕНЗИЯ МЕТЕЛЬЧАТАЯ
100
AcDbPoint
 10
96.81285266692035
 20
32.878878091394704
 30
0.0
  0
POINT
  5
23E
330
17
100
AcDbEntity
  8
ГОРТЕНЗИЯ МЕТЕЛЬЧАТАЯ
100
AcDbPoint
 10
98.01550216394837
 20
32.6575037291251
 30
0.0
  0
POINT
  5
23F
330
17
100
AcDbEntity
  8
ГОРТЕНЗИЯ МЕТЕЛЬЧАТАЯ
100
AcDbPoint
 10
99.2313671159011
 20
32.61293416754207
 30
0.0
  0
POINT
  5
240
330
17
100
AcDbEntity
  8
ГОРТЕНЗИЯ МЕТЕЛЬЧАТАЯ
100
AcDbPoint
 10
100.44391627600947
 20
32.73069935793869
 30
0.0
  0
POINT
  5
241
330
17
100
AcDbEntity
  8
ГОРТЕНЗИЯ МЕТЕЛЬЧАТАЯ
100
AcDbPoint
 10
101.64281290361423
 20
32.99623927249076
 30
0.0
  0
POINT
  5
242
330
17
100
AcDbEntity
  8
ГОРТЕНЗИЯ МЕТЕЛЬЧАТАЯ
100
AcDbPoint
 10
102.81844117220083
 20
33.393628014192714
 30
0.0
  0
POINT
  5
243
330
17
100
AcDbEntity
  8
ГОРТЕНЗИЯ МЕТЕЛЬЧАТАЯ
100
AcDbPoint
 10
103.96508637923661
 20
33.90348532984065
 30
0.0
  0
POINT
  5
244
330
17
100
AcDbEntity
  8
ГОРТЕНЗИЯ МЕТЕЛЬЧАТАЯ
100
AcDbPoint
 10
105.09136909251038
 20
34.486129650728486
 30
0.0
  0
POINT
  5
245
330
17
100
AcDbEntity
  8
ГОРТЕНЗИЯ МЕТЕЛЬЧАТАЯ
100
AcDbPoint
 10
106.2052690264048
 20
35.12032841723113
 30
0.0
  0
POINT
  5
246
330
17
100
AcDbEntity
  8
ГОРТЕНЗИЯ МЕТЕЛЬЧАТАЯ
100
AcDbPoint
 10
107.3131566199432
 20
35.7846819032156
 30
0.0
  0
POINT
  5
247
330
17
100
AcDbEntity
  8
ГОРТЕНЗИЯ МЕТЕЛЬЧАТАЯ
100
AcDbPoint
 10
108.42540234496646
 20
36.46066759457446
 30
0.0
  0
POINT
  5
249
330
17
100
AcDbEntity
  8
СПИРЕЯ ЯПОНСКАЯ
100
AcDbPoint
 10
0.8670789118854603
 20
54.32485959756947
 30
0.0
  0
POINT
  5
24A
330
17
100
AcDbEntity
  8
СПИРЕЯ ЯПОНСКАЯ
100
AcDbPoint
 10
1.9747495445658836
 20
54.98576057810047
 30
0.0
  0
POINT
  5
24B
330
17
100
AcDbEntity
  8
СПИРЕЯ ЯПОНСКАЯ
100
AcDbPoint
 10
3.088578354416989
 20
55.6134114428141
 30
0.0
  0
POINT
  5
24C
330
17
100
AcDbEntity
  8
СПИРЕЯ ЯПОНСКАЯ
100
AcDbPoint
 10
4.217156268509683
 20
56.187749236819776
 30
0.0
  0
POINT
  5
24D
330
17
100
AcDbEntity
  8
СПИРЕЯ ЯПОНСКАЯ
100
AcDbPoint
 10
5.371219829405921
 20
56.67555576677509
 30
0.0
  0
POINT
  5
24E
330
17
100
AcDbEntity
  8
СПИРЕЯ ЯПОНСКАЯ
100
AcDbPoint
 10
6.551139604474996
 20
57.053587134163585
 30
0.0
  0
POINT
  5
24F
330
17
100
AcDbEntity
  8
СПИРЕЯ ЯПОНСКАЯ
100
AcDbPoint
 10
7.752394464096667
 20
57.30038372173627
 30
0.0
  0
POINT
  5
250
330
17
100
AcDbEntity
  8
СПИРЕЯ ЯПОНСКАЯ
100
AcDbPoint
 10
8.965795748551246
 20
57.398061659932125
 30
0.0
  0
POINT
  5
251
330
17
100
AcDbEntity
  8
СПИРЕЯ ЯПОНСКАЯ
100
AcDbPoint
 10
10.179821784194413
 20
57.311182770217805
 30
0.0
  0
POINT
  5
252
330
17
100
AcDbEntity
  8
СПИРЕЯ ЯПОНСКАЯ
100
AcDbPoint
 10
11.381572864878354
 20
57.0709190344528
 30
0.0
  0
POINT
  5
253
330
17
100
AcDbEntity
  8
СПИРЕЯ ЯПОНСКАЯ
100
AcDbPoint
 10
12.562613282074523
 20
56.69864147738262
 30
0.0
  0
POINT
  5
254
330
17
100
AcDbEntity
  8
СПИРЕЯ ЯПОНСКАЯ
100
AcDbPoint
 10
13.718869338602314
 20
56.217811545775135
 30
0.0
  0
POINT
  5
255
330
17
100
AcDbEntity
  8
СПИРЕЯ ЯПОНСКАЯ
100
AcDbPoint
 10
14.84898994143151
 20
55.647958996456346
 30
0.0
  0
POINT
  5
256
330
17
100
AcDbEntity
  8
СПИРЕЯ ЯПОНСКАЯ
100
AcDbPoint
 10
15.963242560377601
 20
55.022307914267806
 30
0.0
  0
POINT
  5
257
330
17
100
AcDbEntity
  8
СПИРЕЯ ЯПОНСКАЯ
100
AcDbPoint
 10
17.07075343649373
 20
54.36264332762517
 30
0.0
  0
POINT
  5
258
330
17
100
AcDbEntity
  8
СПИРЕЯ ЯПОНСКАЯ
100
AcDbPoint
 10
18.181299335839945
 20
53.68768819478839
 30
0.0
  0
POINT
  5
259
330
17
100
AcDbEntity
  8
СПИРЕЯ ЯПОНСКАЯ
100
AcDbPoint
 10
19.304798746703927
 20
53.016179959511184
 30
0.0
  0
POINT
  5
25A
330
17
100
AcDbEntity
  8
СПИРЕЯ ЯПОНСКАЯ
100
AcDbPoint
 10
20.45438550207879
 20
52.36609935267518
 30
0.0
  0
POINT
  5
25B
330
17
100
AcDbEntity
  8
СПИРЕЯ ЯПОНСКАЯ
100
AcDbPoint
 10
21.640833762623327
 20
51.759141039495724
 30
0.0
  0
POINT
  5
25C
330
17
100
AcDbEntity
  8
СПИРЕЯ ЯПОНСКАЯ
100
AcDbPoint
 10
22.876544070058376
 20
51.226629114154164
 30
0.0
  0
POINT
  5
25D
330
17
100
AcDbEntity
  8
СПИРЕЯ ЯПОНСКАЯ
100
AcDbPoint
 10
24.168295108377677
 20
50.80595442076793
 30
0.0
  0
POINT
  5
25E
330
17
100
AcDbEntity
  8
СПИРЕЯ ЯПОНСКАЯ
100
AcDbPoint
 10
25.508673400452665
 20
50.52334808320251
 30
0.0
  0
POINT
  5
25F
330
17
100
AcDbEntity
  8
СПИРЕЯ ЯПОНСКАЯ
100
AcDbPoint
 10
26.88337925973508
 20
50.405869526572154
 30
0.0
  0
POINT
  5
260
330
17
100
AcDbEntity
  8
СПИРЕЯ ЯПОНСКАЯ
100
AcDbPoint
 10
28.260965044781564
 20
50.48726072344802
 30
0.0
  0
POINT
  5
261
330
17
100
AcDbEntity
  8
СПИРЕЯ ЯПОНСКАЯ
100
AcDbPoint
 10
29.609829907957607
 20
50.74869022633845
 30
0.0
  0
POINT
  5
262
330
17
100
AcDbEntity
  8
СПИРЕЯ ЯПОНСКАЯ
100
AcDbPoint
 10
30.90751204885001
 20
51.15085827006505
 30
0.0
  0
POINT
  5
263
330
17
100
AcDbEntity
  8
СПИРЕЯ ЯПОНСКАЯ
100
AcDbPoint
 10
32.153588091906975
 20
51.66321138981038
 30
0.0
  0
POINT
  5
264
330
17
100
AcDbEntity
  8
СПИРЕЯ ЯПОНСКАЯ
100
AcDbPoint
 10
33.34865072782951
 20
52.257273942583424
 30
0.0
  0
POINT
  5
265
330
17
100
AcDbEntity
  8
СПИРЕЯ ЯПОНСКАЯ
100
AcDbPoint
 10
34.50293707024809
 20
52.902896216411925
 30
0.0
  0
POINT
  5
266
330
17
100
AcDbEntity
  8
СПИРЕЯ ЯПОНСКАЯ
100
AcDbPoint
 10
35.630209725813316
 20
53.57313034974313
 30
0.0
  0
POINT
  5
267
330
17
100
AcDbEntity
  8
СПИРЕЯ ЯПОНСКАЯ
100
AcDbPoint
 10
36.74200487841862
 20
54.248843524622075
 30
0.0
  0
POINT
  5
268
330
17
100
AcDbEntity
  8
СПИРЕЯ ЯПОНСКАЯ
100
AcDbPoint
 10
37.85034317310655
 20
54.912443956481034
 30
0.0
  0
POINT
  5
269
330
17
100
AcDbEntity
  8
СПИРЕЯ ЯПОНСКАЯ
100
AcDbPoint
 10
38.963706709070976
 20
55.54433088159979
 30
0.0
  0
POINT
  5
26A
330
17
100
AcDbEntity
  8
СПИРЕЯ ЯПОНСКАЯ
100
AcDbPoint
 10
40.09069339377457
 20
56.124429210186776
 30
0.0
  0
POINT
  5
26B
330
17
100
AcDbEntity
  8
СПИРЕЯ ЯПОНСКАЯ
100
AcDbPoint
 10
41.23886993305967
 20
56.62942974032868
 30
0.0
  0
POINT
  5
26C
330
17
100
AcDbEntity
  8
СПИРЕЯ ЯПОНСКАЯ
100
AcDbPoint
 10
42.41655112359575
 20
57.01899055035692
 30
0.0
  0
POINT
  5
26D
330
17
100
AcDbEntity
  8
СПИРЕЯ ЯПОНСКАЯ
100
AcDbPoint
 10
43.61680475271304
 20
57.278886624633195
 30
0.0
  0
POINT
  5
26E
330
17
100
AcDbEntity
  8
СПИРЕЯ ЯПОНСКАЯ
100
AcDbPoint
 10
44.828976622232226
 20
57.390399118855726
 30
0.0
  0
POINT
  5
26F
330
17
100
AcDbEntity
  8
СПИРЕЯ ЯПОНСКАЯ
100
AcDbPoint
 10
46.04427265734478
 20
57.332882634378926
 30
0.0
  0
POINT
  5
270
330
17
100
AcDbEntity
  8
СПИРЕЯ ЯПОНСКАЯ
100
AcDbPoint
 10
47.246053878953816
 20
57.10588649997123
 30
0.0
  0
POINT
  5
271
330
17
100
AcDbEntity
  8
СПИРЕЯ ЯПОНСКАЯ
100
AcDbPoint
 10
48.43029444568466
 20
56.744858694805
 30
0.0
  0
POINT
  5
272
330
17
100
AcDbEntity
  8
СПИРЕЯ ЯПОНСКАЯ
100
AcDbPoint
 10
49.58896512413129
 20
56.2737328078791
 30
0.0
  0
POINT
  5
273
330
17
100
AcDbEntity
  8
СПИРЕЯ ЯПОНСКАЯ
100
AcDbPoint
 10
50.72413454762608
 20
55.717068773603856
 30
0.0
  0
POINT
  5
274
330
17
100
AcDbEntity
  8
СПИРЕЯ ЯПОНСКАЯ
100
AcDbPoint
 10
51.83923051199956
 20
55.09540879890007
 30
0.0
  0
POINT
  5
275
330
17
100
AcDbEntity
  8
СПИРЕЯ ЯПОНСКАЯ
100
AcDbPoint
 10
52.94670076187987
 20
54.43804104714119
 30
0.0
  0
POINT
  5
276
330
17
100
AcDbEntity
  8
СПИРЕЯ ЯПОНСКАЯ
100
AcDbPoint
 10
57.50545912440754
 20
51.826698729401805
 30
0.0
  0
POINT
  5
277
330
17
100
AcDbEntity
  8
СПИРЕЯ ЯПОНСКАЯ
100
AcDbPoint
 10
58.733896826677636
 20
51.28052043138587
 30
0.0
  0
POINT
  5
278
330
17
100
AcDbEntity
  8
СПИРЕЯ ЯПОНСКАЯ
100
AcDbPoint
 10
60.01943896310669
 20
50.844487018686756
 30
0.0
  0
POINT
  5
279
330
17
100
AcDbEntity
  8
СПИРЕЯ ЯПОНСКАЯ
100
AcDbPoint
 10
61.35608730380771
 20
50.54741961051781
 30
0.0
  0
POINT
  5
27A
330
17
100
AcDbEntity
  8
СПИРЕЯ ЯПОНСКАЯ
100
AcDbPoint
 10
62.72788988547409
 20
50.41382263960299
 30
0.0
  0
POINT
  5
27B
330
17
100
AcDbEntity
  8
СПИРЕЯ ЯПОНСКАЯ
100
AcDbPoint
 10
64.1073613381594
 20
50.463372293595455
 30
0.0
  0
POINT
  5
27C
330
17
100
AcDbEntity
  8
СПИРЕЯ ЯПОНСКАЯ
100
AcDbPoint
 10
65.4599492152063
 20
50.71012597706783
 30
0.0
  0
POINT
  5
27D
330
17
100
AcDbEntity
  8
СПИРЕЯ ЯПОНСКАЯ
100
AcDbPoint
 10
66.7635249568351
 20
51.1004208224466
 30
0.0
  0
POINT
  5
27E
330
17
100
AcDbEntity
  8
СПИРЕЯ ЯПОНСКАЯ
100
AcDbPoint
 10
68.01470354246632
 20
51.603199567398136
 30
0.0
  0
POINT
  5
27F
330
17
100
AcDbEntity
  8
СПИРЕЯ ЯПОНСКАЯ
100
AcDbPoint
 10
69.21598869455224
 20
52.18729462008501
 30
0.0
  0
POINT
  5
280
330
17
100
AcDbEntity
  8
СПИРЕЯ ЯПОНСКАЯ
100
AcDbPoint
 10
70.37475473285954
 20
52.82738408721212
 30
0.0
  0
POINT
  5
281
330
17
100
AcDbEntity
  8
СПИРЕЯ ЯПОНСКАЯ
100
AcDbPoint
 10
71.5041137094314
 20
53.4964969342575
 30
0.0
  0
POINT
  5
282
330
17
100
AcDbEntity
  8
СПИРЕЯ ЯПОНСКАЯ
100
AcDbPoint
 10
72.61693084495168
 20
54.17282745167462
 30
0.0
  0
POINT
  5
283
330
17
100
AcDbEntity
  8
СПИРЕЯ ЯПОНСКАЯ
100
AcDbPoint
 10
73.72433808606849
 20
54.83818893258711
 30
0.0
  0
POINT
  5
284
330
17
100
AcDbEntity
  8
СПИРЕЯ ЯПОНСКАЯ
100
AcDbPoint
 10
74.83846674035739
 20
55.47507196520301
 30
0.0
  0
POINT
  5
285
330
17
100
AcDbEntity
  8
СПИРЕЯ ЯПОНСКАЯ
100
AcDbPoint
 10
75.96421224875543
 20
56.061145416729325
 30
0.0
  0
POINT
  5
286
330
17
100
AcDbEntity
  8
СПИРЕЯ ЯПОНСКАЯ
100
AcDbPoint
 10
77.10966404515695
 20
56.57524517553247
 30
0.0
  0
POINT
  5
287
330
17
100
AcDbEntity
  8
СПИРЕЯ ЯПОНСКАЯ
100
AcDbPoint
 10
78.28194200063339
 20
56.984482991670525
 30
0.0
  0
POINT
  5
288
330
17
100
AcDbEntity
  8
СПИРЕЯ ЯПОНСКАЯ
100
AcDbPoint
 10
79.47990493094966
 20
57.2573056931884
 30
0.0
  0
POINT
  5
289
330
17
100
AcDbEntity
  8
СПИРЕЯ ЯПОНСКАЯ
100
AcDbPoint
 10
80.69214902189998
 20
57.382881665944225
 30
0.0
  0
POINT
  5
28A
330
17
100
AcDbEntity
  8
СПИРЕЯ ЯПОНСКАЯ
100
AcDbPoint
 10
81.90841016585657
 20
57.3515579258516
 30
0.0
  0
POINT
  5
28B
330
17
100
AcDbEntity
  8
СПИРЕЯ ЯПОНСКАЯ
100
AcDbPoint
 10
83.11249801194396
 20
57.14046299668246
 30
0.0
  0
POINT
  5
28C
330
17
100
AcDbEntity
  8
СПИРЕЯ ЯПОНСКАЯ
100
AcDbPoint
 10
84.29658272531684
 20
56.79162932710371
 30
0.0
  0
POINT
  5
28D
330
17
100
AcDbEntity
  8
СПИРЕЯ ЯПОНСКАЯ
100
AcDbPoint
 10
85.4590769120646
 20
56.32969136032183
 30
0.0
  0
POINT
  5
28E
330
17
100
AcDbEntity
  8
СПИРЕЯ ЯПОНСКАЯ
100
AcDbPoint
 10
86.59653149018972
 20
55.78095534627936
 30
0.0
  0
POINT
  5
28F
330
17
100
AcDbEntity
  8
СПИРЕЯ ЯПОНСКАЯ
100
AcDbPoint
 10
87.71522336920636
 20
55.16851801620051
 30
0.0
  0
POINT
  5
290
330
17
100
AcDbEntity
  8
СПИРЕЯ ЯПОНСКАЯ
100
AcDbPoint
 10
89.9311512689061
 20
53.83972034068327
 30
0.0
  0
POINT
  5
291
330
17
100
AcDbEntity
  8
СПИРЕЯ ЯПОНСКАЯ
100
AcDbPoint
 10
91.05135107897017
 20
53.16553707234729
 30
0.0
  0
POINT
  5
292
330
17
100
AcDbEntity
  8
СПИРЕЯ ЯПОНСКАЯ
100
AcDbPoint
 10
92.19376059949785
 20
52.51018201670354
 30
0.0
  0
POINT
  5
293
330
17
100
AcDbEntity
  8
СПИРЕЯ ЯПОНСКАЯ
100
AcDbPoint
 10
93.37010320181861
 20
51.894292424464474
 30
0.0
  0
POINT
  5
294
330
17
100
AcDbEntity
  8
СПИРЕЯ ЯПОНСКАЯ
100
AcDbPoint
 10
94.59374340777366
 20
51.34080257751513
 30
0.0
  0
POINT
  5
295
330
17
100
AcDbEntity
  8
СПИРЕЯ ЯПОНСКАЯ
100
AcDbPoint
 10
95.8706051025012
 20
50.883108244870236
 30
0.0
  0
POINT
  5
296
330
17
100
AcDbEntity
  8
СПИРЕЯ ЯПОНСКАЯ
100
AcDbPoint
 10
97.20323238137925
 20
50.57164982642542
 30
0.0
  0
POINT
  5
297
330
17
100
AcDbEntity
  8
СПИРЕЯ ЯПОНСКАЯ
100
AcDbPoint
 10
98.57241236406851
 20
50.42192060375892
 30
0.0
  0
POINT
  5
298
330
17
100
AcDbEntity
  8
СПИРЕЯ ЯПОНСКАЯ
100
AcDbPoint
 10
99.95261630371331
 20
50.450310205822106
 30
0.0
  0
POINT
  5
299
330
17
100
AcDbEntity
  8
СПИРЕЯ ЯПОНСКАЯ
100
AcDbPoint
 10
101.31003375209733
 20
50.67167443688315
 30
0.0
  0
POINT
  5
29A
330
17
100
AcDbEntity
  8
СПИРЕЯ ЯПОНСКАЯ
100
AcDbPoint
 10
102.62152370553335
 20
51.050732980894935
 30
0.0
  0
POINT
  5
29B
330
17
100
AcDbEntity
  8
СПИРЕЯ ЯПОНСКАЯ
100
AcDbPoint
 10
103.8758034516254
 20
51.54322522979517
 30
0.0
  0
POINT
  5
29C
330
17
100
AcDbEntity
  8
СПИРЕЯ ЯПОНСКАЯ
100
AcDbPoint
 10
105.08181906685886
 20
52.12018157741569
 30
0.0
  0
POINT
  5
29D
330
17
100
AcDbEntity
  8
СПИРЕЯ ЯПОНСКАЯ
100
AcDbPoint
 10
106.24577665615588
 20
52.753265470679416
 30
0.0
  0
POINT
  5
29E
330
17
100
AcDbEntity
  8
СПИРЕЯ ЯПОНСКАЯ
100
AcDbPoint
 10
107.37801645399149
 20
53.419865546123965
 30
0.0
  0
POINT
  5
29F
330
17
100
AcDbEntity
  8
СПИРЕЯ ЯПОНСКАЯ
100
AcDbPoint
 10
108.49185681148472
 20
54.09681137872716
 30
0.0
  0
POINT
  5
2A0
330
17
100
AcDbEntity
  8
СПИРЕЯ ЯПОНСКАЯ
100
AcDbPoint
 10
0.80460196844567
 20
55.68904486846628
 30
0.0
  0
POINT
  5
2A1
330
17
100
AcDbEntity
  8
СПИРЕЯ ЯПОНСКАЯ
100
AcDbPoint
 10
1.941821523368452
 20
56.350499686417095
 30
0.0
  0
POINT
  5
2A2
330
17
100
AcDbEntity
  8
СПИРЕЯ ЯПОНСКАЯ
100
AcDbPoint
 10
3.1115407114441163
 20
56.976495165171315
 30
0.0
  0
POINT
  5
2A3
330
17
100
AcDbEntity
  8
СПИРЕЯ ЯПОНСКАЯ
100
AcDbPoint
 10
4.321776611441148
 20
57.542020797891446
 30
0.0
  0
POINT
  5
2A4
330
17
100
AcDbEntity
  8
СПИРЕЯ ЯПОНСКАЯ
100
AcDbPoint
 10
5.587660583569854
 20
58.02232062051323
 30
0.0
  0
POINT
  5
2A5
330
17
100
AcDbEntity
  8
СПИРЕЯ ЯПОНСКАЯ
100
AcDbPoint
 10
6.906579328076092
 20
58.380984736581865
 30
0.0
  0
POINT
  5
2A6
330
17
100
AcDbEntity
  8
СПИРЕЯ ЯПОНСКАЯ
100
AcDbPoint
 10
8.271054414011278
 20
58.56197736015027
 30
0.0
  0
POINT
  5
2A7
330
17
100
AcDbEntity
  8
СПИРЕЯ ЯПОНСКАЯ
100
AcDbPoint
 10
9.651336265266428
 20
58.56617393524961
 30
0.0
  0
POINT
  5
2A8
330
17
100
AcDbEntity
  8
СПИРЕЯ ЯПОНСКАЯ
100
AcDbPoint
 10
11.017011173800343
 20
58.39322777383476
 30
0.0
  0
POINT
  5
2A9
330
17
100
AcDbEntity
  8
СПИРЕЯ ЯПОНСКАЯ
100
AcDbPoint
 10
12.33974203487072
 20
58.047626913469074
 30
0.0
  0
POINT
  5
2AA
330
17
100
AcDbEntity
  8
СПИРЕЯ ЯПОНСКАЯ
100
AcDbPoint
 10
13.60817611131434
 20
57.572225770270656
 30
0.0
  0
POINT
  5
2AB
330
17
100
AcDbEntity
  8
СПИРЕЯ ЯПОНСКАЯ
100
AcDbPoint
 10
14.821363926514895
 20
57.010029666658006
 30
0.0
  0
POINT
  5
2AC
330
17
100
AcDbEntity
  8
СПИРЕЯ ЯПОНСКАЯ
100
AcDbPoint
 10
15.993084562304933
 20
56.386499365896334
 30
0.0
  0
POINT
  5
2AD
330
17
100
AcDbEntity
  8
СПИРЕЯ ЯПОНСКАЯ
100
AcDbPoint
 10
17.13183710408602
 20
55.72650458555601
 30
0.0
  0
POINT
  5
2AE
330
17
100
AcDbEntity
  8
СПИРЕЯ ЯПОНСКАЯ
100
AcDbPoint
 10
18.24908426292263
 20
55.050738158531615
 30
0.0
  0
POINT
  5
2AF
330
17
100
AcDbEntity
  8
СПИРЕЯ ЯПОНСКАЯ
100
AcDbPoint
 10
19.356505708312266
 20
54.37856273551007
 30
0.0
  0
POINT
  5
2B0
330
17
100
AcDbEntity
  8
СПИРЕЯ ЯПОНСКАЯ
100
AcDbPoint
 10
20.466130179170147
 20
53.730780056602384
 30
0.0
  0
POINT
  5
2B1
330
17
100
AcDbEntity
  8
СПИРЕЯ ЯПОНСКАЯ
100
AcDbPoint
 10
21.587444616791263
 20
53.127163235184874
 30
0.0
  0
POINT
  5
2B2
330
17
100
AcDbEntity
  8
СПИРЕЯ ЯПОНСКАЯ
100
AcDbPoint
 10
22.729161360497
 20
52.58913463864177
 30
0.0
  0
POINT
  5
2B3
330
17
100
AcDbEntity
  8
СПИРЕЯ ЯПОНСКАЯ
100
AcDbPoint
 10
23.893561924472976
 20
52.14175409587883
 30
0.0
  0
POINT
  5
2B4
330
17
100
AcDbEntity
  8
СПИРЕЯ ЯПОНСКАЯ
100
AcDbPoint
 10
25.07990435827986
 20
51.80951140159159
 30
0.0
  0
POINT
  5
2B5
330
17
100
AcDbEntity
  8
СПИРЕЯ ЯПОНСКАЯ
100
AcDbPoint
 10
26.289154633494586
 20
51.638430818967244
 30
0.0
  0
POINT
  5
2B6
330
17
100
AcDbEntity
  8
СПИРЕЯ ЯПОНСКАЯ
100
AcDbPoint
 10
27.505204710324055
 20
51.62770595678145
 30
0.0
  0
POINT
  5
2B7
330
17
100
AcDbEntity
  8
СПИРЕЯ ЯПОНСКАЯ
100
AcDbPoint
 10
28.716503164374224
 20
51.773448452949744
 30
0.0
  0
POINT
  5
2B8
330
17
100
AcDbEntity
  8
СПИРЕЯ ЯПОНСКАЯ
100
AcDbPoint
 10
29.909785040231693
 20
52.07264477523359
 30
0.0
  0
POINT
  5
2B9
330
17
100
AcDbEntity
  8
СПИРЕЯ ЯПОНСКАЯ
100
AcDbPoint
 10
31.075718406228937
 20
52.50491521010305
 30
0.0
  0
POINT
  5
2BA
330
17
100
AcDbEntity
  8
СПИРЕЯ ЯПОНСКАЯ
100
AcDbPoint
 10
32.21944529170786
 20
53.030667710395484
 30
0.0
  0
POINT
  5
2BB
330
17
100
AcDbEntity
  8
СПИРЕЯ ЯПОНСКАЯ
100
AcDbPoint
 10
33.344892623937106
 20
53.62631099236614
 30
0.0
  0
POINT
  5
2BC
330
17
100
AcDbEntity
  8
СПИРЕЯ ЯПОНСКАЯ
100
AcDbPoint
 10
34.45588919191925
 20
54.26801612670676
 30
0.0
  0
POINT
  5
2BD
330
17
100
AcDbEntity
  8
СПИРЕЯ ЯПОНСКАЯ
100
AcDbPoint
 10
35.563304686877096
 20
54.93671404911052
 30
0.0
  0
POINT
  5
2BE
330
17
100
AcDbEntity
  8
СПИРЕЯ ЯПОНСКАЯ
100
AcDbPoint
 10
36.67759670735507
 20
55.61393060851288
 30
0.0
  0
POINT
  5
2BF
330
17
100
AcDbEntity
  8
СПИРЕЯ ЯПОНСКАЯ
100
AcDbPoint
 10
37.811637163102205
 20
56.278493958509394
 30
0.0
  0
POINT
  5
2C0
330
17
100
AcDbEntity
  8
СПИРЕЯ ЯПОНСКАЯ
100
AcDbPoint
 10
38.97735701764781
 20
56.909410996051136
 30
0.0
  0
POINT
  5
2C1
330
17
100
AcDbEntity
  8
СПИРЕЯ ЯПОНСКАЯ
100
AcDbPoint
 10
40.18546046238801
 20
57.48321329056381
 30
0.0
  0
POINT
  5
2C2
330
17
100
AcDbEntity
  8
СПИРЕЯ ЯПОНСКАЯ
100
AcDbPoint
 10
41.442490052988525
 20
57.97164391761733
 30
0.0
  0
POINT
  5
2C3
330
17
100
AcDbEntity
  8
СПИРЕЯ ЯПОНСКАЯ
100
AcDbPoint
 10
42.75609340157823
 20
58.34524770142196
 30
0.0
  0
POINT
  5
2C4
330
17
100
AcDbEntity
  8
СПИРЕЯ ЯПОНСКАЯ
100
AcDbPoint
 10
44.115837293341656
 20
58.55348080820869
 30
0.0
  0
POINT
  5
2C5
330
17
100
AcDbEntity
  8
СПИРЕЯ ЯПОНСКАЯ
100
AcDbPoint
 10
45.4961525014544
 20
58.574462087612446
 30
0.0
  0
POINT
  5
2C6
330
17
100
AcDbEntity
  8
СПИРЕЯ ЯПОНСКАЯ
100
AcDbPoint
 10
46.86417733082035
 20
58.417626634491796
 30
0.0
  0
POINT
  5
2C7
330
17
100
AcDbEntity
  8
СПИРЕЯ ЯПОНСКАЯ
100
AcDbPoint
 10
48.19452502685355
 20
58.09817466594891
 30
0.0
  0
POINT
  5
2C8
330
17
100
AcDbEntity
  8
СПИРЕЯ ЯПОНСКАЯ
100
AcDbPoint
 10
49.46806046855669
 20
57.63259240458046
 30
0.0
  0
POINT
  5
2C9
330
17
100
AcDbEntity
  8
СПИРЕЯ ЯПОНСКАЯ
100
AcDbPoint
 10
50.68958675046077
 20
57.07588535554862
 30
0.0
  0
POINT
  5
2CA
330
17
100
AcDbEntity
  8
СПИРЕЯ ЯПОНСКАЯ
100
AcDbPoint
 10
51.8628933293441
 20
56.458492321425275
 30
0.0
  0
POINT
  5
2CB
330
17
100
AcDbEntity
  8
СПИРЕЯ ЯПОНСКАЯ
100
AcDbPoint
 10
53.00471434822253
 20
55.801422482241385
 30
0.0
  0
POINT
  5
2CC
330
17
100
AcDbEntity
  8
СПИРЕЯ ЯПОНСКАЯ
100
AcDbPoint
 10
57.45977697984623
 20
53.19092854946482
 30
0.0
  0
POINT
  5
2CD
330
17
100
AcDbEntity
  8
СПИРЕЯ ЯПОНСКАЯ
100
AcDbPoint
 10
58.59820294081161
 20
52.64561724608446
 30
0.0
  0
POINT
  5
2CE
330
17
100
AcDbEntity
  8
СПИРЕЯ ЯПОНСКАЯ
100
AcDbPoint
 10
59.76241886103867
 20
52.1877203775024
 30
0.0
  0
POINT
  5
2CF
330
17
100
AcDbEntity
  8
СПИРЕЯ ЯПОНСКАЯ
100
AcDbPoint
 10
60.946393658524066
 20
51.844251743834995
 30
0.0
  0
POINT
  5
2D0
330
17
100
AcDbEntity
  8
СПИРЕЯ ЯПОНСКАЯ
100
AcDbPoint
 10
62.152057024047274
 20
51.64540844450079
 30
0.0
  0
POINT
  5
2D1
330
17
100
AcDbEntity
  8
СПИРЕЯ ЯПОНСКАЯ
100
AcDbPoint
 10
63.36820060020977
 20
51.62038778912684
 30
0.0
  0
POINT
  5
2D2
330
17
100
AcDbEntity
  8
СПИРЕЯ ЯПОНСКАЯ
100
AcDbPoint
 10
64.58020309257574
 20
51.752132507116286
 30
0.0
  0
POINT
  5
2D3
330
17
100
AcDbEntity
  8
СПИРЕЯ ЯПОНСКАЯ
100
AcDbPoint
 10
65.77743217380606
 20
52.03070782306337
 30
0.0
  0
POINT
  5
2D4
330
17
100
AcDbEntity
  8
СПИРЕЯ ЯПОНСКАЯ
100
AcDbPoint
 10
66.94706693590726
 20
52.44930104111879
 30
0.0
  0
POINT
  5
2D5
330
17
100
AcDbEntity
  8
СПИРЕЯ ЯПОНСКАЯ
100
AcDbPoint
 10
68.0915758648085
 20
52.96675328870713
 30
0.0
  0
POINT
  5
2D6
330
17
100
AcDbEntity
  8
СПИРЕЯ ЯПОНСКАЯ
100
AcDbPoint
 10
69.21802326423649
 20
53.556163024699444
 30
0.0
  0
POINT
  5
2D7
330
17
100
AcDbEntity
  8
СПИРЕЯ ЯПОНСКАЯ
100
AcDbPoint
 10
70.33082062439685
 20
54.19431582352926
 30
0.0
  0
POINT
  5
2D8
330
17
100
AcDbEntity
  8
СПИРЕЯ ЯПОНСКАЯ
100
AcDbPoint
 10
71.43823065341016
 20
54.86069797616307
 30
0.0
  0
POINT
  5
2D9
330
17
100
AcDbEntity
  8
СПИРЕЯ ЯПОНСКАЯ
100
AcDbPoint
 10
72.55149890930281
 20
55.53730011684735
 30
0.0
  0
POINT
  5
2DA
330
17
100
AcDbEntity
  8
СПИРЕЯ ЯПОНСКАЯ
100
AcDbPoint
 10
73.68177917204109
 20
56.205916432170454
 30
0.0
  0
POINT
  5
2DB
330
17
100
AcDbEntity
  8
СПИРЕЯ ЯПОНСКАЯ
100
AcDbPoint
 10
74.84318300429223
 20
56.84230675071446
 30
0.0
  0
POINT
  5
2DC
330
17
100
AcDbEntity
  8
СПИРЕЯ ЯПОНСКАЯ
100
AcDbPoint
 10
76.0465538118723
 20
57.42325560437505
 30
0.0
  0
POINT
  5
2DD
330
17
100
AcDbEntity
  8
СПИРЕЯ ЯПОНСКАЯ
100
AcDbPoint
 10
77.29891751077118
 20
57.92143215638259
 30
0.0
  0
POINT
  5
2DE
330
17
100
AcDbEntity
  8
СПИРЕЯ ЯПОНСКАЯ
100
AcDbPoint
 10
78.60616411271234
 20
58.306846313407355
 30
0.0
  0
POINT
  5
2DF
330
17
100
AcDbEntity
  8
СПИРЕЯ ЯПОНСКАЯ
100
AcDbPoint
 10
79.96062741344652
 20
58.54484657224047
 30
0.0
  0
POINT
  5
2E0
330
17
100
AcDbEntity
  8
СПИРЕЯ ЯПОНСКАЯ
100
AcDbPoint
 10
81.34068234712932
 20
58.58262372872374
 30
0.0
  0
POINT
  5
2E1
330
17
100
AcDbEntity
  8
СПИРЕЯ ЯПОНСКАЯ
100
AcDbPoint
 10
82.71132777626669
 20
58.44190859555172
 30
0.0
  0
POINT
  5
2E2
330
17
100
AcDbEntity
  8
СПИРЕЯ ЯПОНСКАЯ
100
AcDbPoint
 10
84.04620429112293
 20
58.138490706684784
 30
0.0
  0
POINT
  5
2E3
330
17
100
AcDbEntity
  8
СПИРЕЯ ЯПОНСКАЯ
100
AcDbPoint
 10
85.32791820958707
 20
57.69290058666393
 30
0.0
  0
POINT
  5
2E4
330
17
100
AcDbEntity
  8
СПИРЕЯ ЯПОНСКАЯ
100
AcDbPoint
 10
86.55423936291437
 20
57.143494781216575
 30
0.0
  0
POINT
  5
2E5
330
17
100
AcDbEntity
  8
СПИРЕЯ ЯПОНСКАЯ
100
AcDbPoint
 10
87.7346430960771
 20
56.52940569198667
 30
0.0
  0
POINT
  5
2E6
330
17
100
AcDbEntity
  8
СПИРЕЯ ЯПОНСКАЯ
100
AcDbPoint
 10
89.99893619598879
 20
55.2027703044265
 30
0.0
  0
POINT
  5
2E7
330
17
100
AcDbEntity
  8
СПИРЕЯ ЯПОНСКАЯ
100
AcDbPoint
 10
91.10800988942027
 20
54.528705595303556
 30
0.0
  0
POINT
  5
2E8
330
17
100
AcDbEntity
  8
СПИРЕЯ ЯПОНСКАЯ
100
AcDbPoint
 10
92.21546105346054
 20
53.87234881665709
 30
0.0
  0
POINT
  5
2E9
330
17
100
AcDbEntity
  8
СПИРЕЯ ЯПОНСКАЯ
100
AcDbPoint
 10
93.33209947938278
 20
53.25467387683805
 30
0.0
  0
POINT
  5
2EA
330
17
100
AcDbEntity
  8
СПИРЕЯ ЯПОНСКАЯ
100
AcDbPoint
 10
94.4683214931272
 20
52.701592367843446
 30
0.0
  0
POINT
  5
2EB
330
17
100
AcDbEntity
  8
СПИРЕЯ ЯПОНСКАЯ
100
AcDbPoint
 10
95.62805629383983
 20
52.23473856322277
 30
0.0
  0
POINT
  5
2EC
330
17
100
AcDbEntity
  8
СПИРЕЯ ЯПОНСКАЯ
100
AcDbPoint
 10
96.81285266692035
 20
51.878878091394704
 30
0.0
  0
POINT
  5
2ED
330
17
100
AcDbEntity
  8
СПИРЕЯ ЯПОНСКАЯ
100
AcDbPoint
 10
98.01550216394837
 20
51.6575037291251
 30
0.0
  0
POINT
  5
2EE
330
17
100
AcDbEntity
  8
СПИРЕЯ ЯПОНСКАЯ
100
AcDbPoint
 10
99.2313671159011
 20
51.61293416754207
 30
0.0
  0
POINT
  5
2EF
330
17
100
AcDbEntity
  8
СПИРЕЯ ЯПОНСКАЯ
100
AcDbPoint
 10
100.44391627600947
 20
51.73069935793869
 30
0.0
  0
POINT
  5
2F0
330
17
100
AcDbEntity
  8
СПИРЕЯ ЯПОНСКАЯ
100
AcDbPoint
 10
101.64281290361423
 20
51.99623927249076
 30
0.0
  0
POINT
  5
2F1
330
17
100
AcDbEntity
  8
СПИРЕЯ ЯПОНСКАЯ
100
AcDbPoint
 10
102.81844117220083
 20
52.393628014192714
 30
0.0
  0
POINT
  5
2F2
330
17
100
AcDbEntity
  8
СПИРЕЯ ЯПОНСКАЯ
100
AcDbPoint
 10
103.96508637923661
 20
52.90348532984065
 30
0.0
  0
POINT
  5
2F3
330
17
100
AcDbEntity
  8
СПИРЕЯ ЯПОНСКАЯ
100
AcDbPoint
 10
105.09136909251038
 20
53.486129650728486
 30
0.0
  0
POINT
  5
2F4
330
17
100
AcDbEntity
  8
СПИРЕЯ ЯПОНСКАЯ
100
AcDbPoint
 10
106.2052690264048
 20
54.12032841723113
 30
0.0
  0
POINT
  5
2F5
330
17
100
AcDbEntity
  8
СПИРЕЯ ЯПОНСКАЯ
100
AcDbPoint
 10
107.3131566199432
 20
54.7846819032156
 30
0.0
  0
POINT
  5
2F6
330
17
100
AcDbEntity
  8
СПИРЕЯ ЯПОНСКАЯ
100
AcDbPoint
 10
108.42540234496646
 20
55.46066759457446
 30
0.0
  0
POINT
  5
2F8
330
17
100
AcDbEntity
  8
БЕРЕЗА ПОВИСЛАЯ
100
AcDbPoint
 10
9.0
 20
33.5
 30
0.0
  0
POINT
  5
2F9
330
17
100
AcDbEntity
  8
БЕРЕЗА ПОВИСЛАЯ
100
AcDbPoint
 10
12.2
 20
34.46816833654749
 30
0.0
  0
POINT
  5
2FA
330
17
100
AcDbEntity
  8
БЕРЕЗА ПОВИСЛАЯ
100
AcDbPoint
 10
45.0
 20
33.5
 30
0.0
  0
POINT
  5
2FB
330
17
100
AcDbEntity
  8
БЕРЕЗА ПОВИСЛАЯ
100
AcDbPoint
 10
48.2
 20
34.46816833654749
 30
0.0
  0
POINT
  5
2FC
330
17
100
AcDbEntity
  8
БЕРЕЗА ПОВИСЛАЯ
100
AcDbPoint
 10
81.0
 20
33.5
 30
0.0
  0
POINT
  5
2FD
330
17
100
AcDbEntity
  8
БЕРЕЗА ПОВИСЛАЯ
100
AcDbPoint
 10
84.2
 20
34.46816833654749
 30
0.0
  0
POINT
  5
2FF
330
17
100
AcDbEntity
  8
ЕЛЬ КОЛЮЧАЯ
100
AcDbPoint
 10
27.0
 20
26.5
 30
0.0
  0
POINT
  5
300
330
17
100
AcDbEntity
  8
ЕЛЬ КОЛЮЧАЯ
100
AcDbPoint
 10
63.0
 20
26.5
 30
0.0
  0
POINT
  5
301
330
17
100
AcDbEntity
  8
ЕЛЬ КОЛЮЧАЯ
100
AcDbPoint
 10
99.0
 20
26.5
 30
0.0
  0
POINT
  5
303
330
17
100
AcDbEntity
  8
LAMPS
100
AcDbPoint
 10
8.371316364037497
 20
16.564714623214957
 30
0.0
  0
POINT
  5
304
330
17
100
AcDbEntity
  8
LAMPS
100
AcDbPoint
 10
25.112205023236804
 20
13.644071445636058
 30
0.0
  0
POINT
  5
305
330
17
100
AcDbEntity
  8
LAMPS
100
AcDbPoint
 10
41.832120697531806
 20
15.959907363318285
 30
0.0
  0
POINT
  5
306
330
17
100
AcDbEntity
  8
LAMPS
100
AcDbPoint
 10
58.55302715966379
 20
14.597802660364863
 30
0.0
  0
POINT
  5
307
330
17
100
AcDbEntity
  8
LAMPS
100
AcDbPoint
 10
75.25436879044877
 20
14.719557310967692
 30
0.0
  0
POINT
  5
308
330
17
100
AcDbEntity
  8
LAMPS
100
AcDbPoint
 10
91.94568099474857
 20
16.04082382111721
 30
0.0
  0
POINT
  5
309
330
17
100
AcDbEntity
  8
LAMPS
100
AcDbPoint
 10
108.61157861851022
 20
13.148306394641036
 30
0.0
  0
INSERT
  5
30F
330
17
100
AcDbEntity
  8
BENCH
100
AcDbBlockReference
  2
BENCH_BLOCK
 10
34.19379031362006
 20
11.739034841318125
 30
0.0
 50
28.527456728290595
  0
POINT
  5
312
330
17
100
AcDbEntity
  8
URN
100
AcDbPoint
 10
35.335955171696085
 20
12.359888638098157
 30
0.0
  0
INSERT
  5
313
330
17
100
AcDbEntity
  8
BENCH
100
AcDbBlockReference
  2
BENCH_BLOCK
 10
56.89043570037399
 20
11.180817199538815
 30
0.0
 50
-25.94601334552717
  0
POINT
  5
315
330
17
100
AcDbEntity
  8
URN
100
AcDbPoint
 10
58.05940441065659
 20
10.612035910834408
 30
0.0
  0
INSERT
  5
316
330
17
100
AcDbEntity
  8
BENCH
100
AcDbBlockReference
  2
BENCH_BLOCK
 10
82.53883274576734
 20
16.43966147496002
 30
0.0
 50
-11.204413122811731
  0
POINT
  5
318
330
17
100
AcDbEntity
  8
URN
100
AcDbPoint
 10
83.81405499514022
 20
16.18705859551414
 30
0.0
  0
POINT
  5
319
330
17
100
AcDbEntity
  8
LAMPS
100
AcDbPoint
 10
8.371316364037511
 20
46.56471462321496
 30
0.0
  0
POINT
  5
31A
330
17
100
AcDbEntity
  8
LAMPS
100
AcDbPoint
 10
25.11220502323682
 20
43.64407144563605
 30
0.0
  0
POINT
  5
31B
330
17
100
AcDbEntity
  8
LAMPS
100
AcDbPoint
 10
41.832120697531806
 20
45.95990736331828
 30
0.0
  0
POINT
  5
31C
330
17
100
AcDbEntity
  8
LAMPS
100
AcDbPoint
 10
58.5530271596638
 20
44.59780266036486
 30
0.0
  0
POINT
  5
31D
330
17
100
AcDbEntity
  8
LAMPS
100
AcDbPoint
 10
75.25436879044878
 20
44.71955731096771
 30
0.0
  0
POINT
  5
31E
330
17
100
AcDbEntity
  8
LAMPS
100
AcDbPoint
 10
91.94568099474857
 20
46.04082382111721
 30
0.0
  0
POINT
  5
31F
330
17
100
AcDbEntity
  8
LAMPS
100
AcDbPoint
 10
108.61157861851024
 20
43.14830639464104
 30
0.0
  0
INSERT
  5
320
330
17
100
AcDbEntity
  8
BENCH
100
AcDbBlockReference
  2
BENCH_BLOCK
 10
34.19379031362008
 20
41.73903484131813
 30
0.0
 50
28.52745672829049
  0
POINT
  5
322
330
17
100
AcDbEntity
  8
URN
100
AcDbPoint
 10
35.3359551716961
 20
42.35988863809816
 30
0.0
  0
INSERT
  5
323
330
17
100
AcDbEntity
  8
BENCH
100
AcDbBlockReference
  2
BENCH_BLOCK
 10
56.890435700374
 20
41.18081719953881
 30
0.0
 50
-25.946013345526985
  0
POINT
  5
325
330
17
100
AcDbEntity
  8
URN
100
AcDbPoint
 10
58.0594044106566
 20
40.61203591083441
 30
0.0
  0
INSERT
  5
326
330
17
100
AcDbEntity
  8
BENCH
100
AcDbBlockReference
  2
BENCH_BLOCK
 10
82.53883274576735
 20
46.43966147496001
 30
0.0
 50
-11.204413122811934
  0
POINT
  5
328
330
17
100
AcDbEntity
  8
URN
100
AcDbPoint
 10
83.81405499514024
 20
46.18705859551413
 30
0.0
  0
ENDSEC
  0
SECTION
  2
OBJECTS
  0
DICTIONARY
  5
A
330
0
100
AcDbDictionary
281
1
  3
ACAD_COLOR
350
B
  3
ACAD_GROUP
350
C
  3
ACAD_LAYOUT
350
D
  3
ACAD_MATERIAL
350
E
  3
ACAD_MLEADERSTYLE
350
F
  3
ACAD_MLINESTYLE
350
10
  3
ACAD_PLOTSETTINGS
350
11
  3
ACAD_PLOTSTYLENAME
350
12
  3
ACAD_SCALELIST
350
14
  3
ACAD_TABLESTYLE
350
15
  3
ACAD_VISUALSTYLE
350
16
  3
EZDXF_META
350
2D
  0
DICTIONARY
  5
B
330
A
100
AcDbDictionary
281
1
  0
DICTIONARY
  5
C
330
A
100
AcDbDictionary
281
1
  0
DICTIONARY
  5
D
330
A
100
AcDbDictionary
281
1
  3
Model
350
1A
  3
Layout1
350
1E
  0
DICTIONARY
  5
E
330
A
100
AcDbDictionary
281
1
  3
ByBlock
350
1F
  3
ByLayer
350
20
  3
Global
350
21
  0
DICTIONARY
  5
F
330
A
100
AcDbDictionary
281
1
  3
Standard
350
2C
  0
DICTIONARY
  5
10
330
A
100
AcDbDictionary
281
1
  3
Standard
350
22
  0
DICTIONARY
  5
11
330
A
100
AcDbDictionary
281
1
  0
ACDBDICTIONARYWDFLT
  5
12
330
A
100
AcDbDictionary
281
1
  3
Normal
350
13
100
AcDbDictionaryWithDefault
340
13
  0
ACDBPLACEHOLDER
  5
13
330
12
  0
DICTIONARY
  5
14
330
A
100
AcDbDictionary
281
1
  0
DICTIONARY
  5
15
330
A
100
AcDbDictionary
281
1
  0
DICTIONARY
  5
16
330
A
100
AcDbDictionary
281
1
  0
LAYOUT
  5
1A
330
D
100
AcDbPlotSettings
  1

  4
A3
  6

 40
7.5
 41
20.0
 42
7.5
 43
20.0
 44
420.0
 45
297.0
 46
0.0
 47
0.0
 48
0.0
 49
0.0
140
0.0
141
0.0
142
1.0
143
1.0
 70
1024
 72
1
 73
0
 74
5
  7

 75
16
 76
0
 77
2
 78
300
147
1.0
148
0.0
149
0.0
100
AcDbLayout
  1
Model
 70
1
 71
0
 10
0.0
 20
0.0
 11
420.0
 21
297.0
 12
0.0
 22
0.0
 32
0.0
 14
1e+20
 24
1e+20
 34
1e+20
 15
-1e+20
 25
-1e+20
 35
-1e+20
146
0.0
 13
0.0
 23
0.0
 33
0.0
 16
1.0
 26
0.0
 36
0.0
 17
0.0
 27
1.0
 37
0.0
 76
1
330
17
  0
LAYOUT
  5
1E
330
D
100
AcDbPlotSettings
  1

  4
A3
  6

 40
7.5
 41
20.0
 42
7.5
 43
20.0
 44
420.0
 45
297.0
 46
0.0
 47
0.0
 48
0.0
 49
0.0
140
0.0
141
0.0
142
1.0
143
1.0
 70
0
 72
1
 73
0
 74
5
  7

 75
16
 76
0
 77
2
 78
300
147
1.0
148
0.0
149
0.0
100
AcDbLayout
  1
Layout1
 70
1
 71
1
 10
0.0
 20
0.0
 11
420.0
 21
297.0
 12
0.0
 22
0.0
 32
0.0
 14
1e+20
 24
1e+20
 34
1e+20
 15
-1e+20
 25
-1e+20
 35
-1e+20
146
0.0
 13
0.0
 23
0.0
 33
0.0
 16
1.0
 26
0.0
 36
0.0
 17
0.0
 27
1.0
 37
0.0
 76
1
330
1B
  0
MATERIAL
  5
1F
102
{ACAD_REACTORS
330
E
102
}
330
E
100
AcDbMaterial
  1
ByBlock
  2

 70
0
 40
1.0
 71
1
 41
1.0
 91
-1023410177
 42
1.0
 72
1
  3

 73
1
 74
1
 75
1
 44
0.5
 73
0
 45
1.0
 46
1.0
 77
1
  4

 78
1
 79
1
170
1
 48
1.0
171
1
  6

172
1
173
1
174
1
140
1.0
141
1.0
175
1
  7

176
1
177
1
178
1
143
1.0
179
1
  8

270
1
271
1
272
1
145
1.0
146
1.0
273
1
  9

274
1
275
1
276
1
 42
1.0
 72
1
  3

 73
1
 74
1
 75
1
 94
63
  0
MATERIAL
  5
20
102
{ACAD_REACTORS
330
E
102
}
330
E
100
AcDbMaterial
  1
ByLayer
  2

 70
0
 40
1.0
 71
1
 41
1.0
 91
-1023410177
 42
1.0
 72
1
  3

 73
1
 74
1
 75
1
 44
0.5
 73
0
 45
1.0
 46
1.0
 77
1
  4

 78
1
 79
1
170
1
 48
1.0
171
1
  6

172
1
173
1
174
1
140
1.0
141
1.0
175
1
  7

176
1
177
1
178
1
143
1.0
179
1
  8

270
1
271
1
272
1
145
1.0
146
1.0
273
1
  9

274
1
275
1
276
1
 42
1.0
 72
1
  3

 73
1
 74
1
 75
1
 94
63
  0
MATERIAL
  5
21
102
{ACAD_REACTORS
330
E
102
}
330
E
100
AcDbMaterial
  1
Global
  2

 70
0
 40
1.0
 71
1
 41
1.0
 91
-1023410177
 42
1.0
 72
1
  3

 73
1
 74
1
 75
1
 44
0.5
 73
0
 45
1.0
 46
1.0
 77
1
  4

 78
1
 79
1
170
1
 48
1.0
171
1
  6

172
1
173
1
174
1
140
1.0
141
1.0
175
1
  7

176
1
177
1
178
1
143
1.0
179
1
  8

270
1
271
1
272
1
145
1.0
146
1.0
273
1
  9

274
1
275
1
276
1
 42
1.0
 72
1
  3

 73
1
 74
1
 75
1
 94
63
  0
MLINESTYLE
  5
22
102
{ACAD_REACTORS
330
10
102
}
330
10
100
AcDbMlineStyle
  2
Standard
 70
0
  3

 62
256
 51
90.0
 52
90.0
 71
2
 49
0.5
 62
256
  6
BYLAYER
 49
-0.5
 62
256
  6
BYLAYER
  0
MLEADERSTYLE
  5
2C
102
{ACAD_REACTORS
330
F
102
}
330
F
100
AcDbMLeaderStyle
179
2
170
2
171
1
172
0
 90
2
 40
0.0
 41
0.0
173
1
 91
-1056964608
 92
-2
290
1
 42
2.0
291
1
 43
8.0
  3
Standard
 44
4.0
300

342
29
174
1
175
1
176
0
178
1
 93
-1056964608
 45
4.0
292
0
297
0
 46
4.0
 94
-1056964608
 47
1.0
 49
1.0
140
1.0
294
1
141
0.0
177
0
142
1.0
295
0
296
0
143
3.75
271
0
272
9
273
9
  0
DICTIONARY
  5
2D
330
A
100
AcDbDictionary
280
1
281
1
  3
CREATED_BY_EZDXF
350
2E
  3
WRITTEN_BY_EZDXF
350
32B
  0
DICTIONARYVAR
  5
2E
330
2D
100
DictionaryVariables
280
0
  1
1.4.4 @ 2026-09-26T13:13:36.833003+00:00
  0
DICTIONARYVAR
  5
32B
330
2D
100
DictionaryVariables
280
0
  1
1.4.4 @ 2026-09-26T13:13:36.840379+00:00
  0
ENDSEC
  0
EOF
