  0
SECTION
  2
HEADER
  9
$ACADVER
  1
AC1024
  9
$ACADMAINTVER
 70
6
  9
$DWGCODEPAGE
  3
ANSI_1252
  9
$LASTSAVEDBY
  1
ezdxf
  9
$INSBASE
 10
0.0
 20
0.0
 30
0.0
  9
$EXTMIN
 10
1e+20
 20
1e+20
 30
1e+20
  9
$EXTMAX
 10
-1e+20
 20
-1e+20
 30
-1e+20
  9
$LIMMIN
 10
0.0
 20
0.0
  9
$LIMMAX
 10
420.0
 20
297.0
  9
$ORTHOMODE
 70
0
  9
$REGENMODE
 70
1
  9
$FILLMODE
 70
1
  9
$QTEXTMODE
 70
0
  9
$MIRRTEXT
 70
1
  9
$LTSCALE
 40
1.0
  9
$ATTMODE
 70
1
  9
$TEXTSIZE
 40
2.5
  9
$TRACEWID
 40
1.0
  9
$TEXTSTYLE
  7
Standard
  9
$CLAYER
  8
0
  9
$CELTYPE
  6
ByLayer
  9
$CECOLOR
 62
256
  9
$CELTSCALE
 40
1.0
  9
$DISPSILH
 70
0
  9
$DIMSCALE
 40
1.0
  9
$DIMASZ
 40
2.5
  9
$DIMEXO
 40
0.625
  9
$DIMDLI
 40
3.75
  9
$DIMRND
 40
0.0
  9
$DIMDLE
 40
0.0
  9
$DIMEXE
 40
1.25
  9
$DIMTP
 40
0.0
  9
$DIMTM
 40
0.0
  9
$DIMTXT
 40
2.5
  9
$DIMCEN
 40
2.5
  9
$DIMTSZ
 40
0.0
  9
$DIMTOL
 70
0
  9
$DIMLIM
 70
0
  9
$DIMTIH
 70
0
  9
$DIMTOH
 70
0
  9
$DIMSE1
 70
0
  9
$DIMSE2
 70
0
  9
$DIMTAD
 70
1
  9
$DIMZIN
 70
8
  9
$DIMBLK
  1

  9
$DIMASO
 70
1
  9
$DIMSHO
 70
1
  9
$DIMPOST
  1

  9
$DIMAPOST
  1

  9
$DIMALT
 70
0
  9
$DIMALTD
 70
3
  9
$DIMALTF
 40
0.03937007874
  9
$DIMLFAC
 40
1.0
  9
$DIMTOFL
 70
1
  9
$DIMTVP
 40
0.0
  9
$DIMTIX
 70
0
  9
$DIMSOXD
 70
0
  9
$DIMSAH
 70
0
  9
$DIMBLK1
  1

  9
$DIMBLK2
  1

  9
$DIMSTYLE
  2
ISO-25
  9
$DIMCLRD
 70
0
  9
$DIMCLRE
 70
0
  9
$DIMCLRT
 70
0
  9
$DIMTFAC
 40
1.0
  9
$DIMGAP
 40
0.625
  9
$DIMJUST
 70
0
  9
$DIMSD1
 70
0
  9
$DIMSD2
 70
0
  9
$DIMTOLJ
 70
0
  9
$DIMTZIN
 70
8
  9
$DIMALTZ
 70
0
  9
$DIMALTTZ
 70
0
  9
$DIMUPT
 70
0
  9
$DIMDEC
 70
2
  9
$DIMTDEC
 70
2
  9
$DIMALTU
 70
2
  9
$DIMALTTD
 70
3
  9
$DIMTXSTY
  7
Standard
  9
$DIMAUNIT
 70
0
  9
$DIMADEC
 70
0
  9
$DIMALTRND
 40
0.0
  9
$DIMAZIN
 70
0
  9
$DIMDSEP
 70
44
  9
$DIMATFIT
 70
3
  9
$DIMFRAC
 70
0
  9
$DIMLDRBLK
  1

  9
$DIMLUNIT
 70
2
  9
$DIMLWD
 70
-2
  9
$DIMLWE
 70
-2
  9
$DIMTMOVE
 70
0
  9
$DIMFXL
 40
1.0
  9
$DIMFXLON
 70
0
  9
$DIMJOGANG
 40
0.785398163397
  9
$DIMTFILL
 70
0
  9
$DIMTFILLCLR
 70
0
  9
$DIMARCSYM
 70
0
  9
$DIMLTYPE
  6

  9
$DIMLTEX1
  6

  9
$DIMLTEX2
  6

  9
$DIMTXTDIRECTION
 70
0
  9
$LUNITS
 70
2
  9
$LUPREC
 70
4
  9
$SKETCHINC
 40
1.0
  9
$FILLETRAD
 40
10.0
  9
$AUNITS
 70
0
  9
$AUPREC
 70
2
  9
$MENU
  1
.
  9
$ELEVATION
 40
0.0
  9
$PELEVATION
 40
0.0
  9
$THICKNESS
 40
0.0
  9
$LIMCHECK
 70
0
  9
$CHAMFERA
 40
0.0
  9
$CHAMFERB
 40
0.0
  9
$CHAMFERC
 40
0.0
  9
$CHAMFERD
 40
0.0
  9
$SKPOLY
 70
0
  9
$TDCREATE
 40
2461305.7407523147
  9
$TDUCREATE
 40
2458532.153996898
  9
$TDUPDATE
 40
2461305.7407523147
  9
$TDUUPDATE
 40
2458532.1544311
  9
$TDINDWG
 40
0.0
  9
$TDUSRTIMER
 40
0.0
  9
$USRTIMER
 70
1
  9
$ANGBASE
 50
0.0
  9
$ANGDIR
 70
0
  9
$PDMODE
 70
0
  9
$PDSIZE
 40
0.0
  9
$PLINEWID
 40
0.0
  9
$SPLFRAME
 70
0
  9
$SPLINETYPE
 70
6
  9
$SPLINESEGS
 70
8
  9
$HANDSEED
  5
13E
  9
$SURFTAB1
 70
6
  9
$SURFTAB2
 70
6
  9
$SURFTYPE
 70
6
  9
$SURFU
 70
6
  9
$SURFV
 70
6
  9
$UCSBASE
  2

  9
$UCSNAME
  2

  9
$UCSORG
 10
0.0
 20
0.0
 30
0.0
  9
$UCSXDIR
 10
1.0
 20
0.0
 30
0.0
  9
$UCSYDIR
 10
0.0
 20
1.0
 30
0.0
  9
$UCSORTHOREF
  2

  9
$UCSORTHOVIEW
 70
0
  9
$UCSORGTOP
 10
0.0
 20
0.0
 30
0.0
  9
$UCSORGBOTTOM
 10
0.0
 20
0.0
 30
0.0
  9
$UCSORGLEFT
 10
0.0
 20
0.0
 30
0.0
  9
$UCSORGRIGHT
 10
0.0
 20
0.0
 30
0.0
  9
$UCSORGFRONT
 10
0.0
 20
0.0
 30
0.0
  9
$UCSORGBACK
 10
0.0
 20
0.0
 30
0.0
  9
$PUCSBASE
  2

  9
$PUCSNAME
  2

  9
$PUCSORG
 10
0.0
 20
0.0
 30
0.0
  9
$PUCSXDIR
 10
1.0
 20
0.0
 30
0.0
  9
$PUCSYDIR
 10
0.0
 20
1.0
 30
0.0
  9
$PUCSORTHOREF
  2

  9
$PUCSORTHOVIEW
 70
0
  9
$PUCSORGTOP
 10
0.0
 20
0.0
 30
0.0
  9
$PUCSORGBOTTOM
 10
0.0
 20
0.0
 30
0.0
  9
$PUCSORGLEFT
 10
0.0
 20
0.0
 30
0.0
  9
$PUCSORGRIGHT
 10
0.0
 20
0.0
 30
0.0
  9
$PUCSORGFRONT
 10
0.0
 20
0.0
 30
0.0
  9
$PUCSORGBACK
 10
0.0
 20
0.0
 30
0.0
  9
$USERI1
 70
0
  9
$USERI2
 70
0
  9
$USERI3
 70
0
  9
$USERI4
 70
0
  9
$USERI5
 70
0
  9
$USERR1
 40
0.0
  9
$USERR2
 40
0.0
  9
$USERR3
 40
0.0
  9
$USERR4
 40
0.0
  9
$USERR5
 40
0.0
  9
$WORLDVIEW
 70
1
  9
$SHADEDGE
 70
3
  9
$SHADEDIF
 70
70
  9
$TILEMODE
 70
1
  9
$MAXACTVP
 70
64
  9
$PINSBASE
 10
0.0
 20
0.0
 30
0.0
  9
$PLIMCHECK
 70
0
  9
$PEXTMIN
 10
1e+20
 20
1e+20
 30
1e+20
  9
$PEXTMAX
 10
-1e+20
 20
-1e+20
 30
-1e+20
  9
$PLIMMIN
 10
0.0
 20
0.0
  9
$PLIMMAX
 10
420.0
 20
297.0
  9
$UNITMODE
 70
0
  9
$VISRETAIN
 70
1
  9
$PLINEGEN
 70
0
  9
$PSLTSCALE
 70
1
  9
$TREEDEPTH
 70
3020
  9
$CMLSTYLE
  2
Standard
  9
$CMLJUST
 70
0
  9
$CMLSCALE
 40
20.0
  9
$PROXYGRAPHICS
 70
1
  9
$MEASUREMENT
 70
1
  9
$CELWEIGHT
370
-1
  9
$ENDCAPS
280
0
  9
$JOINSTYLE
280
0
  9
$LWDISPLAY
290
0
  9
$INSUNITS
 70
6
  9
$HYPERLINKBASE
  1

  9
$STYLESHEET
  1

  9
$XEDIT
290
1
  9
$CEPSNTYPE
380
0
  9
$PSTYLEMODE
290
1
  9
$FINGERPRINTGUID
  2
{DA4E880B-99AC-4BA4-992D-56E024F2639D}
  9
$VERSIONGUID
  2
{4B6E21E8-7BB5-4726-BC47-7328D1B4C7B2}
  9
$EXTNAMES
290
1
  9
$PSVPSCALE
 40
0.0
  9
$OLESTARTUP
290
0
  9
$SORTENTS
280
127
  9
$INDEXCTL
280
0
  9
$HIDETEXT
280
1
  9
$XCLIPFRAME
280
1
  9
$HALOGAP
280
0
  9
$OBSCOLOR
 70
257
  9
$OBSLTYPE
280
0
  9
$INTERSECTIONDISPLAY
280
0
  9
$INTERSECTIONCOLOR
 70
257
  9
$DIMASSOC
280
2
  9
$PROJECTNAME
  1

  9
$CAMERADISPLAY
290
0
  9
$LENSLENGTH
 40
50.0
  9
$CAMERAHEIGHT
 40
0.0
  9
$STEPSPERSEC
 40
24.0
  9
$STEPSIZE
 40
100.0
  9
$3DDWFPREC
 40
2.0
  9
$PSOLWIDTH
 40
0.005
  9
$PSOLHEIGHT
 40
0.08
  9
$LOFTANG1
 40
1.570796326795
  9
$LOFTANG2
 40
1.570796326795
  9
$LOFTMAG1
 40
0.0
  9
$LOFTMAG2
 40
0.0
  9
$LOFTPARAM
 70
7
  9
$LOFTNORMALS
280
1
  9
$LATITUDE
 40
37.795
  9
$LONGITUDE
 40
-122.394
  9
$NORTHDIRECTION
 40
0.0
  9
$TIMEZONE
 70
-8000
  9
$LIGHTGLYPHDISPLAY
280
1
  9
$TILEMODELIGHTSYNCH
280
1
  9
$CMATERIAL
347
20
  9
$SOLIDHIST
280
0
  9
$SHOWHIST
280
1
  9
$DWFFRAME
280
2
  9
$DGNFRAME
280
2
  9
$REALWORLDSCALE
290
1
  9
$INTERFERECOLOR
 62
256
  9
$CSHADOW
280
0
  9
$SHADOWPLANELOCATION
 40
0.0
  0
ENDSEC
  0
SECTION
  2
CLASSES
  0
CLASS
  1
ACDBDICTIONARYWDFLT
  2
AcDbDictionaryWithDefault
  3
ObjectDBX Classes
 90
0
 91
0
280
0
281
0
  0
CLASS
  1
SUN
  2
AcDbSun
  3
SCENEOE
 90
1153
 91
0
280
0
281
0
  0
CLASS
  1
VISUALSTYLE
  2
AcDbVisualStyle
  3
ObjectDBX Classes
 90
4095
 91
0
280
0
281
0
  0
CLASS
  1
MATERIAL
  2
AcDbMaterial
  3
ObjectDBX Classes
 90
1153
 91
0
280
0
281
0
  0
CLASS
  1
SCALE
  2
AcDbScale
  3
ObjectDBX Classes
 90
1153
 91
0
280
0
281
0
  0
CLASS
  1
TABLESTYLE
  2
AcDbTableStyle
  3
ObjectDBX Classes
 90
4095
 91
0
280
0
281
0
  0
CLASS
  1
MLEADERSTYLE
  2
AcDbMLeaderStyle
  3
ACDB_MLEADERSTYLE_CLASS
 90
4095
 91
0
280
0
281
0
  0
CLASS
  1
DICTIONARYVAR
  2
AcDbDictionaryVar
  3
ObjectDBX Classes
 90
0
 91
0
280
0
281
0
  0
CLASS
  1
CELLSTYLEMAP
  2
AcDbCellStyleMap
  3
ObjectDBX Classes
 90
1152
 91
0
280
0
281
0
  0
CLASS
  1
MENTALRAYRENDERSETTINGS
  2
AcDbMentalRayRenderSettings
  3
SCENEOE
 90
1024
 91
0
280
0
281
0
  0
CLASS
  1
ACDBDETAILVIEWSTYLE
  2
AcDbDetailViewStyle
  3
ObjectDBX Classes
 90
1025
 91
0
280
0
281
0
  0
CLASS
  1
ACDBSECTIONVIEWSTYLE
  2
AcDbSectionViewStyle
  3
ObjectDBX Classes
 90
1025
 91
0
280
0
281
0
  0
CLASS
  1
RASTERVARIABLES
  2
AcDbRasterVariables
  3
ISM
 90
0
 91
0
280
0
281
0
  0
CLASS
  1
ACDBPLACEHOLDER
  2
AcDbPlaceHolder
  3
ObjectDBX Classes
 90
0
 91
0
280
0
281
0
  0
CLASS
  1
LAYOUT
  2
AcDbLayout
  3
ObjectDBX Classes
 90
0
 91
0
280
0
281
0
  0
ENDSEC
  0
SECTION
  2
TABLES
  0
TABLE
  2
VPORT
  5
8
330
0
100
AcDbSymbolTable
 70
1
  0
VPORT
  5
23
330
8
100
AcDbSymbolTableRecord
100
AcDbViewportTableRecord
  2
*Active
 70
0
 10
0.0
 20
0.0
 11
1.0
 21
1.0
 12
0.0
 22
0.0
 13
0.0
 23
0.0
 14
0.5
 24
0.5
 15
0.5
 25
0.5
 16
0.0
 26
0.0
 36
1.0
 17
0.0
 27
0.0
 37
0.0
 40
1000.0
 41
1.34
 42
50.0
 43
0.0
 44
0.0
 50
0.0
 51
0.0
 71
0
 72
1000
 73
1
 74
3
 75
0
 76
0
 77
0
 78
0
281
0
 65
0
146
0.0
  0
ENDTAB
  0
TABLE
  2
LTYPE
  5
2
330
0
100
AcDbSymbolTable
 70
3
  0
LTYPE
  5
24
330
2
100
AcDbSymbolTableRecord
100
AcDbLinetypeTableRecord
  2
ByBlock
 70
0
  3

 72
65
 73
0
 40
0.0
  0
LTYPE
  5
25
330
2
100
AcDbSymbolTableRecord
100
AcDbLinetypeTableRecord
  2
ByLayer
 70
0
  3

 72
65
 73
0
 40
0.0
  0
LTYPE
  5
26
330
2
100
AcDbSymbolTableRecord
100
AcDbLinetypeTableRecord
  2
Continuous
 70
0
  3

 72
65
 73
0
 40
0.0
  0
ENDTAB
  0
TABLE
  2
LAYER
  5
1
330
0
100
AcDbSymbolTable
 70
5
  0
LAYER
  5
27
330
1
100
AcDbSymbolTableRecord
100
AcDbLayerTableRecord
  2
0
 70
0
 62
7
  6
Continuous
370
-3
390
13
347
21
  0
LAYER
  5
28
330
1
100
AcDbSymbolTableRecord
100
AcDbLayerTableRecord
  2
Defpoints
 70
0
 62
7
  6
Continuous
290
0
370
-3
390
13
347
21
  0
LAYER
  5
2F
330
1
100
AcDbSymbolTableRecord
100
AcDbLayerTableRecord
  2
TERRITORY_BOUNDARY
 70
0
 62
7
  6
Continuous
370
-3
390
13
347
21
  0
LAYER
  5
30
330
1
100
AcDbSymbolTableRecord
100
AcDbLayerTableRecord
  2
TREE
 70
0
 62
3
  6
Continuous
370
-3
390
13
347
21
  0
LAYER
  5
31
330
1
100
AcDbSymbolTableRecord
100
AcDbLayerTableRecord
  2
BUSH
 70
0
 62
2
  6
Continuous
370
-3
390
13
347
21
  0
ENDTAB
  0
TABLE
  2
STYLE
  5
5
330
0
100
AcDbSymbolTable
 70
1
  0
STYLE
  5
29
330
5
100
AcDbSymbolTableRecord
100
AcDbTextStyleTableRecord
  2
Standard
 70
0
 40
0.0
 41
1.0
 50
0.0
 71
0
 42
2.5
  3
txt
  4

  0
ENDTAB
  0
TABLE
  2
VIEW
  5
7
330
0
100
AcDbSymbolTable
 70
0
  0
ENDTAB
  0
TABLE
  2
UCS
  5
6
330
0
100
AcDbSymbolTable
 70
0
  0
ENDTAB
  0
TABLE
  2
APPID
  5
3
330
0
100
AcDbSymbolTable
 70
3
  0
APPID
  5
2A
330
3
100
AcDbSymbolTableRecord
100
AcDbRegAppTableRecord
  2
ACAD
 70
0
  0
APPID
  5
13B
330
3
100
AcDbSymbolTableRecord
100
AcDbRegAppTableRecord
  2
HATCHBACKGROUNDCOLOR
 70
0
  0
APPID
  5
13C
330
3
100
AcDbSymbolTableRecord
100
AcDbRegAppTableRecord
  2
EZDXF
 70
0
  0
ENDTAB
  0
TABLE
  2
DIMSTYLE
  5
4
330
0
100
AcDbSymbolTable
 70
1
100
AcDbDimStyleTable
  0
DIMSTYLE
105
2B
330
4
100
AcDbSymbolTableRecord
100
AcDbDimStyleTableRecord
  2
Standard
 70
0
 40
1.0
 41
2.5
 42
0.625
 43
3.75
 44
1.25
 45
0.0
 46
0.0
 47
0.0
 48
0.0
 49
2.5
140
2.5
141
2.5
142
0.0
143
0.03937007874
144
1.0
145
0.0
146
1.0
147
0.625
148
0.0
 69
0
 70
0
 71
0
 72
0
 73
0
 74
0
 75
0
 76
0
 77
1
 78
8
 79
3
170
0
171
3
172
1
173
0
174
0
175
0
176
0
177
0
178
0
179
2
271
2
272
2
273
2
274
3
275
0
276
0
277
2
278
44
279
0
280
0
281
0
282
0
283
0
284
8
285
0
286
0
288
0
289
3
290
0
371
-2
372
-2
  0
ENDTAB
  0
TABLE
  2
BLOCK_RECORD
  5
9
330
0
100
AcDbSymbolTable
 70
2
  0
BLOCK_RECORD
  5
17
330
9
100
AcDbSymbolTableRecord
100
AcDbBlockTableRecord
  2
*Model_Space
340
1A
 70
0
280
1
281
0
  0
BLOCK_RECORD
  5
1B
330
9
100
AcDbSymbolTableRecord
100
AcDbBlockTableRecord
  2
*Paper_Space
340
1E
 70
0
280
1
281
0
  0
ENDTAB
  0
ENDSEC
  0
SECTION
  2
BLOCKS
  0
BLOCK
  5
18
330
17
100
AcDbEntity
  8
0
100
AcDbBlockBegin
  2
*Model_Space
 70
0
 10
0.0
 20
0.0
 30
0.0
  3
*Model_Space
  1

  0
ENDBLK
  5
19
330
17
100
AcDbEntity
  8
0
100
AcDbBlockEnd
  0
BLOCK
  5
1C
330
1B
100
AcDbEntity
  8
0
100
AcDbBlockBegin
  2
*Paper_Space
 70
0
 10
0.0
 20
0.0
 30
0.0
  3
*Paper_Space
  1

  0
ENDBLK
  5
1D
330
1B
100
AcDbEntity
  8
0
100
AcDbBlockEnd
  0
ENDSEC
  0
SECTION
  2
ENTITIES
  0
LWPOLYLINE
  5
32
330
17
100
AcDbEntity
  8
TERRITORY_BOUNDARY
100
AcDbPolyline
 90
5
 70
1
 10
0.0
 20
0.0
 10
70.0
 20
0.0
 10
70.0
 20
50.0
 10
0.0
 20
50.0
 10
0.0
 20
0.0
  0
POINT
  5
33
330
17
100
AcDbEntity
  8
TREE
100
AcDbPoint
 10
4.5
 20
40.94162386240012
 30
0.0
  0
POINT
  5
34
330
17
100
AcDbEntity
  8
TREE
100
AcDbPoint
 10
11.699999999999998
 20
36.84450780013851
 30
0.0
  0
POINT
  5
35
330
17
100
AcDbEntity
  8
TREE
100
AcDbPoint
 10
18.899999999999995
 20
33.9595626953809
 30
0.0
  0
POINT
  5
36
330
17
100
AcDbEntity
  8
TREE
100
AcDbPoint
 10
26.09999999999999
 20
35.59997899182688
 30
0.0
  0
POINT
  5
37
330
17
100
AcDbEntity
  8
TREE
100
AcDbPoint
 10
33.29999999999999
 20
39.88183467372962
 30
0.0
  0
POINT
  5
38
330
17
100
AcDbEntity
  8
TREE
100
AcDbPoint
 10
40.50000000000001
 20
41.88766933493251
 30
0.0
  0
POINT
  5
39
330
17
100
AcDbEntity
  8
TREE
100
AcDbPoint
 10
47.700000000000024
 20
39.31389937511702
 30
0.0
  0
POINT
  5
3A
330
17
100
AcDbEntity
  8
TREE
100
AcDbPoint
 10
54.90000000000004
 20
35.11634881363073
 30
0.0
  0
POINT
  5
3B
330
17
100
AcDbEntity
  8
TREE
100
AcDbPoint
 10
62.10000000000006
 20
34.115658564689824
 30
0.0
  0
POINT
  5
3C
330
17
100
AcDbEntity
  8
BUSH
100
AcDbPoint
 10
4.5
 20
14.697792193320733
 30
0.0
  0
POINT
  5
3D
330
17
100
AcDbEntity
  8
BUSH
100
AcDbPoint
 10
5.7
 20
15.221721629353318
 30
0.0
  0
POINT
  5
3E
330
17
100
AcDbEntity
  8
BUSH
100
AcDbPoint
 10
6.9
 20
15.635062520354774
 30
0.0
  0
POINT
  5
3F
330
17
100
AcDbEntity
  8
BUSH
100
AcDbPoint
 10
8.1
 20
15.92317205919332
 30
0.0
  0
POINT
  5
40
330
17
100
AcDbEntity
  8
BUSH
100
AcDbPoint
 10
9.299999999999999
 20
16.07584382182072
 30
0.0
  0
POINT
  5
41
330
17
100
AcDbEntity
  8
BUSH
100
AcDbPoint
 10
10.499999999999998
 20
16.08766933493251
 30
0.0
  0
POINT
  5
42
330
17
100
AcDbEntity
  8
BUSH
100
AcDbPoint
 10
11.699999999999998
 20
15.958229673831193
 30
0.0
  0
POINT
  5
43
330
17
100
AcDbEntity
  8
BUSH
100
AcDbPoint
 10
12.899999999999997
 20
15.692110303042464
 30
0.0
  0
POINT
  5
44
330
17
100
AcDbEntity
  8
BUSH
100
AcDbPoint
 10
14.099999999999996
 20
15.298738633948364
 30
0.0
  0
POINT
  5
45
330
17
100
AcDbEntity
  8
BUSH
100
AcDbPoint
 10
15.299999999999995
 20
14.792050054039095
 30
0.0
  0
POINT
  5
46
330
17
100
AcDbEntity
  8
BUSH
100
AcDbPoint
 10
16.499999999999996
 20
14.189994258863797
 30
0.0
  0
POINT
  5
47
330
17
100
AcDbEntity
  8
BUSH
100
AcDbPoint
 10
17.699999999999996
 20
13.513899375117031
 30
0.0
  0
POINT
  5
48
330
17
100
AcDbEntity
  8
BUSH
100
AcDbPoint
 10
18.899999999999995
 20
12.787716401117642
 30
0.0
  0
POINT
  5
49
330
17
100
AcDbEntity
  8
BUSH
100
AcDbPoint
 10
20.099999999999994
 20
12.037170730752722
 30
0.0
  0
POINT
  5
4A
330
17
100
AcDbEntity
  8
BUSH
100
AcDbPoint
 10
21.299999999999994
 20
11.288850818573955
 30
0.0
  0
POINT
  5
4B
330
17
100
AcDbEntity
  8
BUSH
100
AcDbPoint
 10
22.499999999999993
 20
10.569266270539647
 30
0.0
  0
POINT
  5
4C
330
17
100
AcDbEntity
  8
BUSH
100
AcDbPoint
 10
23.699999999999992
 20
9.903908728007476
 30
0.0
  0
POINT
  5
4D
330
17
100
AcDbEntity
  8
BUSH
100
AcDbPoint
 10
24.89999999999999
 20
9.316348813630746
 30
0.0
  0
POINT
  5
4E
330
17
100
AcDbEntity
  8
BUSH
100
AcDbPoint
 10
26.09999999999999
 20
8.827401130299911
 30
0.0
  0
POINT
  5
4F
330
17
100
AcDbEntity
  8
BUSH
100
AcDbPoint
 10
27.29999999999999
 20
8.45438689345822
 30
0.0
  0
POINT
  5
50
330
17
100
AcDbEntity
  8
BUSH
100
AcDbPoint
 10
28.49999999999999
 20
8.210520318409294
 30
0.0
  0
POINT
  5
51
330
17
100
AcDbEntity
  8
BUSH
100
AcDbPoint
 10
29.69999999999999
 20
8.10444050015212
 30
0.0
  0
POINT
  5
52
330
17
100
AcDbEntity
  8
BUSH
100
AcDbPoint
 10
30.899999999999988
 20
8.139905369133768
 30
0.0
  0
POINT
  5
53
330
17
100
AcDbEntity
  8
BUSH
100
AcDbPoint
 10
32.09999999999999
 20
8.315658564689816
 30
0.0
  0
POINT
  5
54
330
17
100
AcDbEntity
  8
BUSH
100
AcDbPoint
 10
33.29999999999999
 20
8.62547394224723
 30
0.0
  0
POINT
  5
55
330
17
100
AcDbEntity
  8
BUSH
100
AcDbPoint
 10
34.49999999999999
 20
9.058376137599872
 30
0.0
  0
POINT
  5
56
330
17
100
AcDbEntity
  8
BUSH
100
AcDbPoint
 10
35.699999999999996
 20
9.599029374657176
 30
0.0
  0
POINT
  5
57
330
17
100
AcDbEntity
  8
BUSH
100
AcDbPoint
 10
36.9
 20
10.228280742957706
 30
0.0
  0
POINT
  5
58
330
17
100
AcDbEntity
  8
BUSH
100
AcDbPoint
 10
38.1
 20
10.923838699070785
 30
0.0
  0
POINT
  5
59
330
17
100
AcDbEntity
  8
BUSH
100
AcDbPoint
 10
39.300000000000004
 20
11.66106275563582
 30
0.0
  0
POINT
  5
5A
330
17
100
AcDbEntity
  8
BUSH
100
AcDbPoint
 10
40.50000000000001
 20
12.413836382911384
 30
0.0
  0
POINT
  5
5B
330
17
100
AcDbEntity
  8
BUSH
100
AcDbPoint
 10
41.70000000000001
 20
13.155492199861499
 30
0.0
  0
POINT
  5
5C
330
17
100
AcDbEntity
  8
BUSH
100
AcDbPoint
 10
42.90000000000001
 20
13.859756679423667
 30
0.0
  0
POINT
  5
5D
330
17
100
AcDbEntity
  8
BUSH
100
AcDbPoint
 10
44.100000000000016
 20
14.501680901303544
 30
0.0
  0
POINT
  5
5E
330
17
100
AcDbEntity
  8
BUSH
100
AcDbPoint
 10
45.30000000000002
 20
15.058524379914445
 30
0.0
  0
POINT
  5
5F
330
17
100
AcDbEntity
  8
BUSH
100
AcDbPoint
 10
46.50000000000002
 20
15.510560657416377
 30
0.0
  0
POINT
  5
60
330
17
100
AcDbEntity
  8
BUSH
100
AcDbPoint
 10
47.700000000000024
 20
15.841776123319473
 30
0.0
  0
POINT
  5
61
330
17
100
AcDbEntity
  8
BUSH
100
AcDbPoint
 10
48.90000000000003
 20
16.040437304619097
 30
0.0
  0
POINT
  5
62
330
17
100
AcDbEntity
  8
BUSH
100
AcDbPoint
 10
50.10000000000003
 20
16.099506529926643
 30
0.0
  0
POINT
  5
63
330
17
100
AcDbEntity
  8
BUSH
100
AcDbPoint
 10
51.30000000000003
 20
16.01689124248706
 30
0.0
  0
POINT
  5
64
330
17
100
AcDbEntity
  8
BUSH
100
AcDbPoint
 10
52.500000000000036
 20
15.795518130045139
 30
0.0
  0
POINT
  5
65
330
17
100
AcDbEntity
  8
BUSH
100
AcDbPoint
 10
53.70000000000004
 20
15.443229445473067
 30
0.0
  0
POINT
  5
66
330
17
100
AcDbEntity
  8
BUSH
100
AcDbPoint
 10
54.90000000000004
 20
14.972505191052736
 30
0.0
  0
POINT
  5
67
330
17
100
AcDbEntity
  8
BUSH
100
AcDbPoint
 10
56.100000000000044
 20
14.400021008173095
 30
0.0
  0
POINT
  5
68
330
17
100
AcDbEntity
  8
BUSH
100
AcDbPoint
 10
57.30000000000005
 20
13.746057434420411
 30
0.0
  0
POINT
  5
69
330
17
100
AcDbEntity
  8
BUSH
100
AcDbPoint
 10
58.50000000000005
 20
13.033781455423593
 30
0.0
  0
POINT
  5
6A
330
17
100
AcDbEntity
  8
BUSH
100
AcDbPoint
 10
59.70000000000005
 20
12.288425802838539
 30
0.0
  0
POINT
  5
6B
330
17
100
AcDbEntity
  8
BUSH
100
AcDbPoint
 10
60.900000000000055
 20
11.536395072249634
 30
0.0
  0
POINT
  5
6C
330
17
100
AcDbEntity
  8
BUSH
100
AcDbPoint
 10
62.10000000000006
 20
10.804330327207367
 30
0.0
  0
POINT
  5
6D
330
17
100
AcDbEntity
  8
BUSH
100
AcDbPoint
 10
63.30000000000006
 20
10.118165326270335
 30
0.0
  0
POINT
  5
6E
330
17
100
AcDbEntity
  8
BUSH
100
AcDbPoint
 10
64.50000000000006
 20
9.502207806679243
 30
0.0
  0
POINT
  5
6F
330
17
100
AcDbEntity
  8
BUSH
100
AcDbPoint
 10
4.5
 20
15.897792193320733
 30
0.0
  0
POINT
  5
70
330
17
100
AcDbEntity
  8
BUSH
100
AcDbPoint
 10
5.7
 20
16.421721629353318
 30
0.0
  0
POINT
  5
71
330
17
100
AcDbEntity
  8
BUSH
100
AcDbPoint
 10
6.9
 20
16.835062520354775
 30
0.0
  0
POINT
  5
72
330
17
100
AcDbEntity
  8
BUSH
100
AcDbPoint
 10
8.1
 20
17.12317205919332
 30
0.0
  0
POINT
  5
73
330
17
100
AcDbEntity
  8
BUSH
100
AcDbPoint
 10
9.299999999999999
 20
17.275843821820718
 30
0.0
  0
POINT
  5
74
330
17
100
AcDbEntity
  8
BUSH
100
AcDbPoint
 10
10.499999999999998
 20
17.28766933493251
 30
0.0
  0
POINT
  5
75
330
17
100
AcDbEntity
  8
BUSH
100
AcDbPoint
 10
11.699999999999998
 20
17.158229673831194
 30
0.0
  0
POINT
  5
76
330
17
100
AcDbEntity
  8
BUSH
100
AcDbPoint
 10
12.899999999999997
 20
16.892110303042465
 30
0.0
  0
POINT
  5
77
330
17
100
AcDbEntity
  8
BUSH
100
AcDbPoint
 10
14.099999999999996
 20
16.498738633948363
 30
0.0
  0
POINT
  5
78
330
17
100
AcDbEntity
  8
BUSH
100
AcDbPoint
 10
15.299999999999995
 20
15.992050054039094
 30
0.0
  0
POINT
  5
79
330
17
100
AcDbEntity
  8
BUSH
100
AcDbPoint
 10
16.499999999999996
 20
15.389994258863796
 30
0.0
  0
POINT
  5
7A
330
17
100
AcDbEntity
  8
BUSH
100
AcDbPoint
 10
17.699999999999996
 20
14.71389937511703
 30
0.0
  0
POINT
  5
7B
330
17
100
AcDbEntity
  8
BUSH
100
AcDbPoint
 10
18.899999999999995
 20
13.987716401117641
 30
0.0
  0
POINT
  5
7C
330
17
100
AcDbEntity
  8
BUSH
100
AcDbPoint
 10
20.099999999999994
 20
13.237170730752721
 30
0.0
  0
POINT
  5
7D
330
17
100
AcDbEntity
  8
BUSH
100
AcDbPoint
 10
21.299999999999994
 20
12.488850818573955
 30
0.0
  0
POINT
  5
7E
330
17
100
AcDbEntity
  8
BUSH
100
AcDbPoint
 10
22.499999999999993
 20
11.769266270539646
 30
0.0
  0
POINT
  5
7F
330
17
100
AcDbEntity
  8
BUSH
100
AcDbPoint
 10
23.699999999999992
 20
11.103908728007475
 30
0.0
  0
POINT
  5
80
330
17
100
AcDbEntity
  8
BUSH
100
AcDbPoint
 10
24.89999999999999
 20
10.516348813630746
 30
0.0
  0
POINT
  5
81
330
17
100
AcDbEntity
  8
BUSH
100
AcDbPoint
 10
26.09999999999999
 20
10.02740113029991
 30
0.0
  0
POINT
  5
82
330
17
100
AcDbEntity
  8
BUSH
100
AcDbPoint
 10
27.29999999999999
 20
9.65438689345822
 30
0.0
  0
POINT
  5
83
330
17
100
AcDbEntity
  8
BUSH
100
AcDbPoint
 10
28.49999999999999
 20
9.410520318409294
 30
0.0
  0
POINT
  5
84
330
17
100
AcDbEntity
  8
BUSH
100
AcDbPoint
 10
29.69999999999999
 20
9.304440500152118
 30
0.0
  0
POINT
  5
85
330
17
100
AcDbEntity
  8
BUSH
100
AcDbPoint
 10
30.899999999999988
 20
9.339905369133767
 30
0.0
  0
POINT
  5
86
330
17
100
AcDbEntity
  8
BUSH
100
AcDbPoint
 10
32.09999999999999
 20
9.515658564689815
 30
0.0
  0
POINT
  5
87
330
17
100
AcDbEntity
  8
BUSH
100
AcDbPoint
 10
33.29999999999999
 20
9.82547394224723
 30
0.0
  0
POINT
  5
88
330
17
100
AcDbEntity
  8
BUSH
100
AcDbPoint
 10
34.49999999999999
 20
10.258376137599871
 30
0.0
  0
POINT
  5
89
330
17
100
AcDbEntity
  8
BUSH
100
AcDbPoint
 10
35.699999999999996
 20
10.799029374657175
 30
0.0
  0
POINT
  5
8A
330
17
100
AcDbEntity
  8
BUSH
100
AcDbPoint
 10
36.9
 20
11.428280742957705
 30
0.0
  0
POINT
  5
8B
330
17
100
AcDbEntity
  8
BUSH
100
AcDbPoint
 10
38.1
 20
12.123838699070784
 30
0.0
  0
POINT
  5
8C
330
17
100
AcDbEntity
  8
BUSH
100
AcDbPoint
 10
39.300000000000004
 20
12.86106275563582
 30
0.0
  0
POINT
  5
8D
330
17
100
AcDbEntity
  8
BUSH
100
AcDbPoint
 10
40.50000000000001
 20
13.613836382911384
 30
0.0
  0
POINT
  5
8E
330
17
100
AcDbEntity
  8
BUSH
100
AcDbPoint
 10
41.70000000000001
 20
14.355492199861498
 30
0.0
  0
POINT
  5
8F
330
17
100
AcDbEntity
  8
BUSH
100
AcDbPoint
 10
42.90000000000001
 20
15.059756679423666
 30
0.0
  0
POINT
  5
90
330
17
100
AcDbEntity
  8
BUSH
100
AcDbPoint
 10
44.100000000000016
 20
15.701680901303543
 30
0.0
  0
POINT
  5
91
330
17
100
AcDbEntity
  8
BUSH
100
AcDbPoint
 10
45.30000000000002
 20
16.258524379914444
 30
0.0
  0
POINT
  5
92
330
17
100
AcDbEntity
  8
BUSH
100
AcDbPoint
 10
46.50000000000002
 20
16.710560657416377
 30
0.0
  0
POINT
  5
93
330
17
100
AcDbEntity
  8
BUSH
100
AcDbPoint
 10
47.700000000000024
 20
17.041776123319472
 30
0.0
  0
POINT
  5
94
330
17
100
AcDbEntity
  8
BUSH
100
AcDbPoint
 10
48.90000000000003
 20
17.240437304619096
 30
0.0
  0
POINT
  5
95
330
17
100
AcDbEntity
  8
BUSH
100
AcDbPoint
 10
50.10000000000003
 20
17.299506529926642
 30
0.0
  0
POINT
  5
96
330
17
100
AcDbEntity
  8
BUSH
100
AcDbPoint
 10
51.30000000000003
 20
17.21689124248706
 30
0.0
  0
POINT
  5
97
330
17
100
AcDbEntity
  8
BUSH
100
AcDbPoint
 10
52.500000000000036
 20
16.995518130045138
 30
0.0
  0
POINT
  5
98
330
17
100
AcDbEntity
  8
BUSH
100
AcDbPoint
 10
53.70000000000004
 20
16.643229445473068
 30
0.0
  0
POINT
  5
99
330
17
100
AcDbEntity
  8
BUSH
100
AcDbPoint
 10
54.90000000000004
 20
16.172505191052736
 30
0.0
  0
POINT
  5
9A
330
17
100
AcDbEntity
  8
BUSH
100
AcDbPoint
 10
56.100000000000044
 20
15.600021008173094
 30
0.0
  0
POINT
  5
9B
330
17
100
AcDbEntity
  8
BUSH
100
AcDbPoint
 10
57.30000000000005
 20
14.94605743442041
 30
0.0
  0
POINT
  5
9C
330
17
100
AcDbEntity
  8
BUSH
100
AcDbPoint
 10
58.50000000000005
 20
14.233781455423593
 30
0.0
  0
POINT
  5
9D
330
17
100
AcDbEntity
  8
BUSH
100
AcDbPoint
 10
59.70000000000005
 20
13.488425802838538
 30
0.0
  0
POINT
  5
9E
330
17
100
AcDbEntity
  8
BUSH
100
AcDbPoint
 10
60.900000000000055
 20
12.736395072249634
 30
0.0
  0
POINT
  5
9F
330
17
100
AcDbEntity
  8
BUSH
100
AcDbPoint
 10
62.10000000000006
 20
12.004330327207366
 30
0.0
  0
POINT
  5
A0
330
17
100
AcDbEntity
  8
BUSH
100
AcDbPoint
 10
63.30000000000006
 20
11.318165326270334
 30
0.0
  0
POINT
  5
A1
330
17
100
AcDbEntity
  8
BUSH
100
AcDbPoint
 10
64.50000000000006
 20
10.702207806679242
 30
0.0
  0
POINT
  5
A2
330
17
100
AcDbEntity
  8
BUSH
100
AcDbPoint
 10
4.5
 20
28.987669334932512
 30
0.0
  0
POINT
  5
A3
330
17
100
AcDbEntity
  8
BUSH
100
AcDbPoint
 10
5.7
 20
28.975843821820717
 30
0.0
  0
POINT
  5
A4
330
17
100
AcDbEntity
  8
BUSH
100
AcDbPoint
 10
6.9
 20
28.823172059193322
 30
0.0
  0
POINT
  5
A5
330
17
100
AcDbEntity
  8
BUSH
100
AcDbPoint
 10
8.1
 20
28.535062520354774
 30
0.0
  0
POINT
  5
A6
330
17
100
AcDbEntity
  8
BUSH
100
AcDbPoint
 10
9.299999999999999
 20
28.12172162935332
 30
0.0
  0
POINT
  5
A7
330
17
100
AcDbEntity
  8
BUSH
100
AcDbPoint
 10
10.499999999999998
 20
27.597792193320736
 30
0.0
  0
POINT
  5
A8
330
17
100
AcDbEntity
  8
BUSH
100
AcDbPoint
 10
11.699999999999998
 20
26.981834673729633
 30
0.0
  0
POINT
  5
A9
330
17
100
AcDbEntity
  8
BUSH
100
AcDbPoint
 10
12.899999999999997
 20
26.2956696727926
 30
0.0
  0
POINT
  5
AA
330
17
100
AcDbEntity
  8
BUSH
100
AcDbPoint
 10
14.099999999999996
 20
25.563604927750333
 30
0.0
  0
POINT
  5
AB
330
17
100
AcDbEntity
  8
BUSH
100
AcDbPoint
 10
15.299999999999995
 20
24.81157419716143
 30
0.0
  0
POINT
  5
AC
330
17
100
AcDbEntity
  8
BUSH
100
AcDbPoint
 10
16.499999999999996
 20
24.066218544576383
 30
0.0
  0
POINT
  5
AD
330
17
100
AcDbEntity
  8
BUSH
100
AcDbPoint
 10
17.699999999999996
 20
23.35394256557957
 30
0.0
  0
POINT
  5
AE
330
17
100
AcDbEntity
  8
BUSH
100
AcDbPoint
 10
18.899999999999995
 20
22.69997899182689
 30
0.0
  0
POINT
  5
AF
330
17
100
AcDbEntity
  8
BUSH
100
AcDbPoint
 10
20.099999999999994
 20
22.127494808947247
 30
0.0
  0
POINT
  5
B0
330
17
100
AcDbEntity
  8
BUSH
100
AcDbPoint
 10
21.299999999999994
 20
21.656770554526922
 30
0.0
  0
POINT
  5
B1
330
17
100
AcDbEntity
  8
BUSH
100
AcDbPoint
 10
22.499999999999993
 20
21.304481869954856
 30
0.0
  0
POINT
  5
B2
330
17
100
AcDbEntity
  8
BUSH
100
AcDbPoint
 10
23.699999999999992
 20
21.08310875751294
 30
0.0
  0
POINT
  5
B3
330
17
100
AcDbEntity
  8
BUSH
100
AcDbPoint
 10
24.89999999999999
 20
21.00049347007336
 30
0.0
  0
POINT
  5
B4
330
17
100
AcDbEntity
  8
BUSH
100
AcDbPoint
 10
26.09999999999999
 20
21.059562695380905
 30
0.0
  0
POINT
  5
B5
330
17
100
AcDbEntity
  8
BUSH
100
AcDbPoint
 10
27.29999999999999
 20
21.25822387668053
 30
0.0
  0
POINT
  5
B6
330
17
100
AcDbEntity
  8
BUSH
100
AcDbPoint
 10
28.49999999999999
 20
21.589439342583624
 30
0.0
  0
POINT
  5
B7
330
17
100
AcDbEntity
  8
BUSH
100
AcDbPoint
 10
29.69999999999999
 20
22.041475620085556
 30
0.0
  0
POINT
  5
B8
330
17
100
AcDbEntity
  8
BUSH
100
AcDbPoint
 10
30.899999999999988
 20
22.598319098696457
 30
0.0
  0
POINT
  5
B9
330
17
100
AcDbEntity
  8
BUSH
100
AcDbPoint
 10
32.09999999999999
 20
23.240243320576333
 30
0.0
  0
POINT
  5
BA
330
17
100
AcDbEntity
  8
BUSH
100
AcDbPoint
 10
33.29999999999999
 20
23.944507800138503
 30
0.0
  0
POINT
  5
BB
330
17
100
AcDbEntity
  8
BUSH
100
AcDbPoint
 10
34.49999999999999
 20
24.686163617088614
 30
0.0
  0
POINT
  5
BC
330
17
100
AcDbEntity
  8
BUSH
100
AcDbPoint
 10
35.699999999999996
 20
25.438937244364176
 30
0.0
  0
POINT
  5
BD
330
17
100
AcDbEntity
  8
BUSH
100
AcDbPoint
 10
36.9
 20
26.176161300929213
 30
0.0
  0
POINT
  5
BE
330
17
100
AcDbEntity
  8
BUSH
100
AcDbPoint
 10
38.1
 20
26.871719257042294
 30
0.0
  0
POINT
  5
BF
330
17
100
AcDbEntity
  8
BUSH
100
AcDbPoint
 10
39.300000000000004
 20
27.500970625342823
 30
0.0
  0
POINT
  5
C0
330
17
100
AcDbEntity
  8
BUSH
100
AcDbPoint
 10
40.50000000000001
 20
28.041623862400126
 30
0.0
  0
POINT
  5
C1
330
17
100
AcDbEntity
  8
BUSH
100
AcDbPoint
 10
41.70000000000001
 20
28.474526057752765
 30
0.0
  0
POINT
  5
C2
330
17
100
AcDbEntity
  8
BUSH
100
AcDbPoint
 10
42.90000000000001
 20
28.784341435310182
 30
0.0
  0
POINT
  5
C3
330
17
100
AcDbEntity
  8
BUSH
100
AcDbPoint
 10
44.100000000000016
 20
28.96009463086623
 30
0.0
  0
POINT
  5
C4
330
17
100
AcDbEntity
  8
BUSH
100
AcDbPoint
 10
45.30000000000002
 20
28.99555949984788
 30
0.0
  0
POINT
  5
C5
330
17
100
AcDbEntity
  8
BUSH
100
AcDbPoint
 10
46.50000000000002
 20
28.889479681590704
 30
0.0
  0
POINT
  5
C6
330
17
100
AcDbEntity
  8
BUSH
100
AcDbPoint
 10
47.700000000000024
 20
28.645613106541774
 30
0.0
  0
POINT
  5
C7
330
17
100
AcDbEntity
  8
BUSH
100
AcDbPoint
 10
48.90000000000003
 20
28.272598869700083
 30
0.0
  0
POINT
  5
C8
330
17
100
AcDbEntity
  8
BUSH
100
AcDbPoint
 10
50.10000000000003
 20
27.783651186369248
 30
0.0
  0
POINT
  5
C9
330
17
100
AcDbEntity
  8
BUSH
100
AcDbPoint
 10
51.30000000000003
 20
27.196091271992508
 30
0.0
  0
POINT
  5
CA
330
17
100
AcDbEntity
  8
BUSH
100
AcDbPoint
 10
52.500000000000036
 20
26.53073372946034
 30
0.0
  0
POINT
  5
CB
330
17
100
AcDbEntity
  8
BUSH
100
AcDbPoint
 10
53.70000000000004
 20
25.81114918142603
 30
0.0
  0
POINT
  5
CC
330
17
100
AcDbEntity
  8
BUSH
100
AcDbPoint
 10
54.90000000000004
 20
25.06282926924726
 30
0.0
  0
POINT
  5
CD
330
17
100
AcDbEntity
  8
BUSH
100
AcDbPoint
 10
56.100000000000044
 20
24.312283598882335
 30
0.0
  0
POINT
  5
CE
330
17
100
AcDbEntity
  8
BUSH
100
AcDbPoint
 10
57.30000000000005
 20
23.586100624882945
 30
0.0
  0
POINT
  5
CF
330
17
100
AcDbEntity
  8
BUSH
100
AcDbPoint
 10
58.50000000000005
 20
22.91000574113618
 30
0.0
  0
POINT
  5
D0
330
17
100
AcDbEntity
  8
BUSH
100
AcDbPoint
 10
59.70000000000005
 20
22.307949945960885
 30
0.0
  0
POINT
  5
D1
330
17
100
AcDbEntity
  8
BUSH
100
AcDbPoint
 10
60.900000000000055
 20
21.801261366051616
 30
0.0
  0
POINT
  5
D2
330
17
100
AcDbEntity
  8
BUSH
100
AcDbPoint
 10
62.10000000000006
 20
21.407889696957525
 30
0.0
  0
POINT
  5
D3
330
17
100
AcDbEntity
  8
BUSH
100
AcDbPoint
 10
63.30000000000006
 20
21.141770326168796
 30
0.0
  0
POINT
  5
D4
330
17
100
AcDbEntity
  8
BUSH
100
AcDbPoint
 10
64.50000000000006
 20
21.012330665067484
 30
0.0
  0
POINT
  5
D5
330
17
100
AcDbEntity
  8
BUSH
100
AcDbPoint
 10
4.5
 20
30.18766933493251
 30
0.0
  0
POINT
  5
D6
330
17
100
AcDbEntity
  8
BUSH
100
AcDbPoint
 10
5.7
 20
30.175843821820717
 30
0.0
  0
POINT
  5
D7
330
17
100
AcDbEntity
  8
BUSH
100
AcDbPoint
 10
6.9
 20
30.02317205919332
 30
0.0
  0
POINT
  5
D8
330
17
100
AcDbEntity
  8
BUSH
100
AcDbPoint
 10
8.1
 20
29.735062520354774
 30
0.0
  0
POINT
  5
D9
330
17
100
AcDbEntity
  8
BUSH
100
AcDbPoint
 10
9.299999999999999
 20
29.32172162935332
 30
0.0
  0
POINT
  5
DA
330
17
100
AcDbEntity
  8
BUSH
100
AcDbPoint
 10
10.499999999999998
 20
28.797792193320735
 30
0.0
  0
POINT
  5
DB
330
17
100
AcDbEntity
  8
BUSH
100
AcDbPoint
 10
11.699999999999998
 20
28.181834673729632
 30
0.0
  0
POINT
  5
DC
330
17
100
AcDbEntity
  8
BUSH
100
AcDbPoint
 10
12.899999999999997
 20
27.495669672792598
 30
0.0
  0
POINT
  5
DD
330
17
100
AcDbEntity
  8
BUSH
100
AcDbPoint
 10
14.099999999999996
 20
26.763604927750333
 30
0.0
  0
POINT
  5
DE
330
17
100
AcDbEntity
  8
BUSH
100
AcDbPoint
 10
15.299999999999995
 20
26.01157419716143
 30
0.0
  0
POINT
  5
DF
330
17
100
AcDbEntity
  8
BUSH
100
AcDbPoint
 10
16.499999999999996
 20
25.266218544576382
 30
0.0
  0
POINT
  5
E0
330
17
100
AcDbEntity
  8
BUSH
100
AcDbPoint
 10
17.699999999999996
 20
24.55394256557957
 30
0.0
  0
POINT
  5
E1
330
17
100
AcDbEntity
  8
BUSH
100
AcDbPoint
 10
18.899999999999995
 20
23.899978991826888
 30
0.0
  0
POINT
  5
E2
330
17
100
AcDbEntity
  8
BUSH
100
AcDbPoint
 10
20.099999999999994
 20
23.327494808947247
 30
0.0
  0
POINT
  5
E3
330
17
100
AcDbEntity
  8
BUSH
100
AcDbPoint
 10
21.299999999999994
 20
22.85677055452692
 30
0.0
  0
POINT
  5
E4
330
17
100
AcDbEntity
  8
BUSH
100
AcDbPoint
 10
22.499999999999993
 20
22.504481869954855
 30
0.0
  0
POINT
  5
E5
330
17
100
AcDbEntity
  8
BUSH
100
AcDbPoint
 10
23.699999999999992
 20
22.283108757512938
 30
0.0
  0
POINT
  5
E6
330
17
100
AcDbEntity
  8
BUSH
100
AcDbPoint
 10
24.89999999999999
 20
22.200493470073358
 30
0.0
  0
POINT
  5
E7
330
17
100
AcDbEntity
  8
BUSH
100
AcDbPoint
 10
26.09999999999999
 20
22.259562695380904
 30
0.0
  0
POINT
  5
E8
330
17
100
AcDbEntity
  8
BUSH
100
AcDbPoint
 10
27.29999999999999
 20
22.458223876680528
 30
0.0
  0
POINT
  5
E9
330
17
100
AcDbEntity
  8
BUSH
100
AcDbPoint
 10
28.49999999999999
 20
22.789439342583623
 30
0.0
  0
POINT
  5
EA
330
17
100
AcDbEntity
  8
BUSH
100
AcDbPoint
 10
29.69999999999999
 20
23.241475620085556
 30
0.0
  0
POINT
  5
EB
330
17
100
AcDbEntity
  8
BUSH
100
AcDbPoint
 10
30.899999999999988
 20
23.798319098696457
 30
0.0
  0
POINT
  5
EC
330
17
100
AcDbEntity
  8
BUSH
100
AcDbPoint
 10
32.09999999999999
 20
24.440243320576332
 30
0.0
  0
POINT
  5
ED
330
17
100
AcDbEntity
  8
BUSH
100
AcDbPoint
 10
33.29999999999999
 20
25.144507800138502
 30
0.0
  0
POINT
  5
EE
330
17
100
AcDbEntity
  8
BUSH
100
AcDbPoint
 10
34.49999999999999
 20
25.886163617088613
 30
0.0
  0
POINT
  5
EF
330
17
100
AcDbEntity
  8
BUSH
100
AcDbPoint
 10
35.699999999999996
 20
26.638937244364175
 30
0.0
  0
POINT
  5
F0
330
17
100
AcDbEntity
  8
BUSH
100
AcDbPoint
 10
36.9
 20
27.376161300929212
 30
0.0
  0
POINT
  5
F1
330
17
100
AcDbEntity
  8
BUSH
100
AcDbPoint
 10
38.1
 20
28.071719257042293
 30
0.0
  0
POINT
  5
F2
330
17
100
AcDbEntity
  8
BUSH
100
AcDbPoint
 10
39.300000000000004
 20
28.700970625342823
 30
0.0
  0
POINT
  5
F3
330
17
100
AcDbEntity
  8
BUSH
100
AcDbPoint
 10
40.50000000000001
 20
29.241623862400125
 30
0.0
  0
POINT
  5
F4
330
17
100
AcDbEntity
  8
BUSH
100
AcDbPoint
 10
41.70000000000001
 20
29.674526057752765
 30
0.0
  0
POINT
  5
F5
330
17
100
AcDbEntity
  8
BUSH
100
AcDbPoint
 10
42.90000000000001
 20
29.98434143531018
 30
0.0
  0
POINT
  5
F6
330
17
100
AcDbEntity
  8
BUSH
100
AcDbPoint
 10
44.100000000000016
 20
30.16009463086623
 30
0.0
  0
POINT
  5
F7
330
17
100
AcDbEntity
  8
BUSH
100
AcDbPoint
 10
45.30000000000002
 20
30.195559499847878
 30
0.0
  0
POINT
  5
F8
330
17
100
AcDbEntity
  8
BUSH
100
AcDbPoint
 10
46.50000000000002
 20
30.089479681590703
 30
0.0
  0
POINT
  5
F9
330
17
100
AcDbEntity
  8
BUSH
100
AcDbPoint
 10
47.700000000000024
 20
29.845613106541773
 30
0.0
  0
POINT
  5
FA
330
17
100
AcDbEntity
  8
BUSH
100
AcDbPoint
 10
48.90000000000003
 20
29.472598869700082
 30
0.0
  0
POINT
  5
FB
330
17
100
AcDbEntity
  8
BUSH
100
AcDbPoint
 10
50.10000000000003
 20
28.983651186369247
 30
0.0
  0
POINT
  5
FC
330
17
100
AcDbEntity
  8
BUSH
100
AcDbPoint
 10
51.30000000000003
 20
28.396091271992507
 30
0.0
  0
POINT
  5
FD
330
17
100
AcDbEntity
  8
BUSH
100
AcDbPoint
 10
52.500000000000036
 20
27.73073372946034
 30
0.0
  0
POINT
  5
FE
330
17
100
AcDbEntity
  8
BUSH
100
AcDbPoint
 10
53.70000000000004
 20
27.011149181426028
 30
0.0
  0
POINT
  5
FF
330
17
100
AcDbEntity
  8
BUSH
100
AcDbPoint
 10
54.90000000000004
 20
26.26282926924726
 30
0.0
  0
POINT
  5
100
330
17
100
AcDbEntity
  8
BUSH
100
AcDbPoint
 10
56.100000000000044
 20
25.512283598882334
 30
0.0
  0
POINT
  5
101
330
17
100
AcDbEntity
  8
BUSH
100
AcDbPoint
 10
57.30000000000005
 20
24.786100624882945
 30
0.0
  0
POINT
  5
102
330
17
100
AcDbEntity
  8
BUSH
100
AcDbPoint
 10
58.50000000000005
 20
24.11000574113618
 30
0.0
  0
POINT
  5
103
330
17
100
AcDbEntity
  8
BUSH
100
AcDbPoint
 10
59.70000000000005
 20
23.507949945960885
 30
0.0
  0
POINT
  5
104
330
17
100
AcDbEntity
  8
BUSH
100
AcDbPoint
 10
60.900000000000055
 20
23.001261366051615
 30
0.0
  0
POINT
  5
105
330
17
100
AcDbEntity
  8
BUSH
100
AcDbPoint
 10
62.10000000000006
 20
22.607889696957525
 30
0.0
  0
POINT
  5
106
330
17
100
AcDbEntity
  8
BUSH
100
AcDbPoint
 10
63.30000000000006
 20
22.341770326168795
 30
0.0
  0
POINT
  5
107
330
17
100
AcDbEntity
  8
BUSH
100
AcDbPoint
 10
64.50000000000006
 20
22.212330665067483
 30
0.0
  0
POINT
  5
108
330
17
100
AcDbEntity
  8
BUSH
100
AcDbPoint
 10
4.5
 20
40.94162386240012
 30
0.0
  0
POINT
  5
109
330
17
100
AcDbEntity
  8
BUSH
100
AcDbPoint
 10
5.7
 20
40.40097062534282
 30
0.0
  0
POINT
  5
10A
330
17
100
AcDbEntity
  8
BUSH
100
AcDbPoint
 10
6.9
 20
39.77171925704229
 30
0.0
  0
POINT
  5
10B
330
17
100
AcDbEntity
  8
BUSH
100
AcDbPoint
 10
8.1
 20
39.076161300929215
 30
0.0
  0
POINT
  5
10C
330
17
100
AcDbEntity
  8
BUSH
100
AcDbPoint
 10
9.299999999999999
 20
38.33893724436418
 30
0.0
  0
POINT
  5
10D
330
17
100
AcDbEntity
  8
BUSH
100
AcDbPoint
 10
10.499999999999998
 20
37.58616361708862
 30
0.0
  0
POINT
  5
10E
330
17
100
AcDbEntity
  8
BUSH
100
AcDbPoint
 10
11.699999999999998
 20
36.84450780013851
 30
0.0
  0
POINT
  5
10F
330
17
100
AcDbEntity
  8
BUSH
100
AcDbPoint
 10
12.899999999999997
 20
36.14024332057634
 30
0.0
  0
POINT
  5
110
330
17
100
AcDbEntity
  8
BUSH
100
AcDbPoint
 10
14.099999999999996
 20
35.49831909869646
 30
0.0
  0
POINT
  5
111
330
17
100
AcDbEntity
  8
BUSH
100
AcDbPoint
 10
15.299999999999995
 20
34.94147562008556
 30
0.0
  0
POINT
  5
112
330
17
100
AcDbEntity
  8
BUSH
100
AcDbPoint
 10
16.499999999999996
 20
34.48943934258363
 30
0.0
  0
POINT
  5
113
330
17
100
AcDbEntity
  8
BUSH
100
AcDbPoint
 10
17.699999999999996
 20
34.15822387668053
 30
0.0
  0
POINT
  5
114
330
17
100
AcDbEntity
  8
BUSH
100
AcDbPoint
 10
18.899999999999995
 20
33.9595626953809
 30
0.0
  0
POINT
  5
115
330
17
100
AcDbEntity
  8
BUSH
100
AcDbPoint
 10
20.099999999999994
 20
33.90049347007336
 30
0.0
  0
POINT
  5
116
330
17
100
AcDbEntity
  8
BUSH
100
AcDbPoint
 10
21.299999999999994
 20
33.98310875751294
 30
0.0
  0
POINT
  5
117
330
17
100
AcDbEntity
  8
BUSH
100
AcDbPoint
 10
22.499999999999993
 20
34.20448186995485
 30
0.0
  0
POINT
  5
118
330
17
100
AcDbEntity
  8
BUSH
100
AcDbPoint
 10
23.699999999999992
 20
34.55677055452691
 30
0.0
  0
POINT
  5
119
330
17
100
AcDbEntity
  8
BUSH
100
AcDbPoint
 10
24.89999999999999
 20
35.02749480894724
 30
0.0
  0
POINT
  5
11A
330
17
100
AcDbEntity
  8
BUSH
100
AcDbPoint
 10
26.09999999999999
 20
35.59997899182688
 30
0.0
  0
POINT
  5
11B
330
17
100
AcDbEntity
  8
BUSH
100
AcDbPoint
 10
27.29999999999999
 20
36.25394256557956
 30
0.0
  0
POINT
  5
11C
330
17
100
AcDbEntity
  8
BUSH
100
AcDbPoint
 10
28.49999999999999
 20
36.966218544576364
 30
0.0
  0
POINT
  5
11D
330
17
100
AcDbEntity
  8
BUSH
100
AcDbPoint
 10
29.69999999999999
 20
37.71157419716142
 30
0.0
  0
POINT
  5
11E
330
17
100
AcDbEntity
  8
BUSH
100
AcDbPoint
 10
30.899999999999988
 20
38.463604927750325
 30
0.0
  0
POINT
  5
11F
330
17
100
AcDbEntity
  8
BUSH
100
AcDbPoint
 10
32.09999999999999
 20
39.19566967279259
 30
0.0
  0
POINT
  5
120
330
17
100
AcDbEntity
  8
BUSH
100
AcDbPoint
 10
33.29999999999999
 20
39.88183467372962
 30
0.0
  0
POINT
  5
121
330
17
100
AcDbEntity
  8
BUSH
100
AcDbPoint
 10
34.49999999999999
 20
40.49779219332073
 30
0.0
  0
POINT
  5
122
330
17
100
AcDbEntity
  8
BUSH
100
AcDbPoint
 10
35.699999999999996
 20
41.021721629353316
 30
0.0
  0
POINT
  5
123
330
17
100
AcDbEntity
  8
BUSH
100
AcDbPoint
 10
36.9
 20
41.43506252035477
 30
0.0
  0
POINT
  5
124
330
17
100
AcDbEntity
  8
BUSH
100
AcDbPoint
 10
38.1
 20
41.72317205919332
 30
0.0
  0
POINT
  5
125
330
17
100
AcDbEntity
  8
BUSH
100
AcDbPoint
 10
39.300000000000004
 20
41.875843821820716
 30
0.0
  0
POINT
  5
126
330
17
100
AcDbEntity
  8
BUSH
100
AcDbPoint
 10
40.50000000000001
 20
41.88766933493251
 30
0.0
  0
POINT
  5
127
330
17
100
AcDbEntity
  8
BUSH
100
AcDbPoint
 10
41.70000000000001
 20
41.75822967383119
 30
0.0
  0
POINT
  5
128
330
17
100
AcDbEntity
  8
BUSH
100
AcDbPoint
 10
42.90000000000001
 20
41.49211030304246
 30
0.0
  0
POINT
  5
129
330
17
100
AcDbEntity
  8
BUSH
100
AcDbPoint
 10
44.100000000000016
 20
41.09873863394836
 30
0.0
  0
POINT
  5
12A
330
17
100
AcDbEntity
  8
BUSH
100
AcDbPoint
 10
45.30000000000002
 20
40.592050054039085
 30
0.0
  0
POINT
  5
12B
330
17
100
AcDbEntity
  8
BUSH
100
AcDbPoint
 10
46.50000000000002
 20
39.98999425886378
 30
0.0
  0
POINT
  5
12C
330
17
100
AcDbEntity
  8
BUSH
100
AcDbPoint
 10
47.700000000000024
 20
39.31389937511702
 30
0.0
  0
POINT
  5
12D
330
17
100
AcDbEntity
  8
BUSH
100
AcDbPoint
 10
48.90000000000003
 20
38.58771640111762
 30
0.0
  0
POINT
  5
12E
330
17
100
AcDbEntity
  8
BUSH
100
AcDbPoint
 10
50.10000000000003
 20
37.8371707307527
 30
0.0
  0
POINT
  5
12F
330
17
100
AcDbEntity
  8
BUSH
100
AcDbPoint
 10
51.30000000000003
 20
37.08885081857393
 30
0.0
  0
POINT
  5
130
330
17
100
AcDbEntity
  8
BUSH
100
AcDbPoint
 10
52.500000000000036
 20
36.36926627053962
 30
0.0
  0
POINT
  5
131
330
17
100
AcDbEntity
  8
BUSH
100
AcDbPoint
 10
53.70000000000004
 20
35.70390872800745
 30
0.0
  0
POINT
  5
132
330
17
100
AcDbEntity
  8
BUSH
100
AcDbPoint
 10
54.90000000000004
 20
35.11634881363073
 30
0.0
  0
POINT
  5
133
330
17
100
AcDbEntity
  8
BUSH
100
AcDbPoint
 10
56.100000000000044
 20
34.62740113029989
 30
0.0
  0
POINT
  5
134
330
17
100
AcDbEntity
  8
BUSH
100
AcDbPoint
 10
57.30000000000005
 20
34.254386893458204
 30
0.0
  0
POINT
  5
135
330
17
100
AcDbEntity
  8
BUSH
100
AcDbPoint
 10
58.50000000000005
 20
34.010520318409284
 30
0.0
  0
POINT
  5
136
330
17
100
AcDbEntity
  8
BUSH
100
AcDbPoint
 10
59.70000000000005
 20
33.90444050015212
 30
0.0
  0
POINT
  5
137
330
17
100
AcDbEntity
  8
BUSH
100
AcDbPoint
 10
60.900000000000055
 20
33.939905369133776
 30
0.0
  0
POINT
  5
138
330
17
100
AcDbEntity
  8
BUSH
100
AcDbPoint
 10
62.10000000000006
 20
34.115658564689824
 30
0.0
  0
POINT
  5
139
330
17
100
AcDbEntity
  8
BUSH
100
AcDbPoint
 10
63.30000000000006
 20
34.42547394224725
 30
0.0
  0
POINT
  5
13A
330
17
100
AcDbEntity
  8
BUSH
100
AcDbPoint
 10
64.50000000000006
 20
34.8583761375999
 30
0.0
  0
ENDSEC
  0
SECTION
  2
OBJECTS
  0
DICTIONARY
  5
A
330
0
100
AcDbDictionary
281
1
  3
ACAD_COLOR
350
B
  3
ACAD_GROUP
350
C
  3
ACAD_LAYOUT
350
D
  3
ACAD_MATERIAL
350
E
  3
ACAD_MLEADERSTYLE
350
F
  3
ACAD_MLINESTYLE
350
10
  3
ACAD_PLOTSETTINGS
350
11
  3
ACAD_PLOTSTYLENAME
350
12
  3
ACAD_SCALELIST
350
14
  3
ACAD_TABLESTYLE
350
15
  3
ACAD_VISUALSTYLE
350
16
  3
EZDXF_META
350
2D
  0
DICTIONARY
  5
B
330
A
100
AcDbDictionary
281
1
  0
DICTIONARY
  5
C
330
A
100
AcDbDictionary
281
1
  0
DICTIONARY
  5
D
330
A
100
AcDbDictionary
281
1
  3
Model
350
1A
  3
Layout1
350
1E
  0
DICTIONARY
  5
E
330
A
100
AcDbDictionary
281
1
  3
ByBlock
350
1F
  3
ByLayer
350
20
  3
Global
350
21
  0
DICTIONARY
  5
F
330
A
100
AcDbDictionary
281
1
  3
Standard
350
2C
  0
DICTIONARY
  5
10
330
A
100
AcDbDictionary
281
1
  3
Standard
350
22
  0
DICTIONARY
  5
11
330
A
100
AcDbDictionary
281
1
  0
ACDBDICTIONARYWDFLT
  5
12
330
A
100
AcDbDictionary
281
1
  3
Normal
350
13
100
AcDbDictionaryWithDefault
340
13
  0
ACDBPLACEHOLDER
  5
13
330
12
  0
DICTIONARY
  5
14
330
A
100
AcDbDictionary
281
1
  0
DICTIONARY
  5
15
330
A
100
AcDbDictionary
281
1
  0
DICTIONARY
  5
16
330
A
100
AcDbDictionary
281
1
  0
LAYOUT
  5
1A
330
D
100
AcDbPlotSettings
  1

  4
A3
  6

 40
7.5
 41
20.0
 42
7.5
 43
20.0
 44
420.0
 45
297.0
 46
0.0
 47
0.0
 48
0.0
 49
0.0
140
0.0
141
0.0
142
1.0
143
1.0
 70
1024
 72
1
 73
0
 74
5
  7

 75
16
 76
0
 77
2
 78
300
147
1.0
148
0.0
149
0.0
100
AcDbLayout
  1
Model
 70
1
 71
0
 10
0.0
 20
0.0
 11
420.0
 21
297.0
 12
0.0
 22
0.0
 32
0.0
 14
1e+20
 24
1e+20
 34
1e+20
 15
-1e+20
 25
-1e+20
 35
-1e+20
146
0.0
 13
0.0
 23
0.0
 33
0.0
 16
1.0
 26
0.0
 36
0.0
 17
0.0
 27
1.0
 37
0.0
 76
1
330
17
  0
LAYOUT
  5
1E
330
D
100
AcDbPlotSettings
  1

  4
A3
  6

 40
7.5
 41
20.0
 42
7.5
 43
20.0
 44
420.0
 45
297.0
 46
0.0
 47
0.0
 48
0.0
 49
0.0
140
0.0
141
0.0
142
1.0
143
1.0
 70
0
 72
1
 73
0
 74
5
  7

 75
16
 76
0
 77
2
 78
300
147
1.0
148
0.0
149
0.0
100
AcDbLayout
  1
Layout1
 70
1
 71
1
 10
0.0
 20
0.0
 11
420.0
 21
297.0
 12
0.0
 22
0.0
 32
0.0
 14
1e+20
 24
1e+20
 34
1e+20
 15
-1e+20
 25
-1e+20
 35
-1e+20
146
0.0
 13
0.0
 23
0.0
 33
0.0
 16
1.0
 26
0.0
 36
0.0
 17
0.0
 27
1.0
 37
0.0
 76
1
330
1B
  0
MATERIAL
  5
1F
102
{ACAD_REACTORS
330
E
102
}
330
E
100
AcDbMaterial
  1
ByBlock
  2

 70
0
 40
1.0
 71
1
 41
1.0
 91
-1023410177
 42
1.0
 72
1
  3

 73
1
 74
1
 75
1
 44
0.5
 73
0
 45
1.0
 46
1.0
 77
1
  4

 78
1
 79
1
170
1
 48
1.0
171
1
  6

172
1
173
1
174
1
140
1.0
141
1.0
175
1
  7

176
1
177
1
178
1
143
1.0
179
1
  8

270
1
271
1
272
1
145
1.0
146
1.0
273
1
  9

274
1
275
1
276
1
 42
1.0
 72
1
  3

 73
1
 74
1
 75
1
 94
63
  0
MATERIAL
  5
20
102
{ACAD_REACTORS
330
E
102
}
330
E
100
AcDbMaterial
  1
ByLayer
  2

 70
0
 40
1.0
 71
1
 41
1.0
 91
-1023410177
 42
1.0
 72
1
  3

 73
1
 74
1
 75
1
 44
0.5
 73
0
 45
1.0
 46
1.0
 77
1
  4

 78
1
 79
1
170
1
 48
1.0
171
1
  6

172
1
173
1
174
1
140
1.0
141
1.0
175
1
  7

176
1
177
1
178
1
143
1.0
179
1
  8

270
1
271
1
272
1
145
1.0
146
1.0
273
1
  9

274
1
275
1
276
1
 42
1.0
 72
1
  3

 73
1
 74
1
 75
1
 94
63
  0
MATERIAL
  5
21
102
{ACAD_REACTORS
330
E
102
}
330
E
100
AcDbMaterial
  1
Global
  2

 70
0
 40
1.0
 71
1
 41
1.0
 91
-1023410177
 42
1.0
 72
1
  3

 73
1
 74
1
 75
1
 44
0.5
 73
0
 45
1.0
 46
1.0
 77
1
  4

 78
1
 79
1
170
1
 48
1.0
171
1
  6

172
1
173
1
174
1
140
1.0
141
1.0
175
1
  7

176
1
177
1
178
1
143
1.0
179
1
  8

270
1
271
1
272
1
145
1.0
146
1.0
273
1
  9

274
1
275
1
276
1
 42
1.0
 72
1
  3

 73
1
 74
1
 75
1
 94
63
  0
MLINESTYLE
  5
22
102
{ACAD_REACTORS
330
10
102
}
330
10
100
AcDbMlineStyle
  2
Standard
 70
0
  3

 62
256
 51
90.0
 52
90.0
 71
2
 49
0.5
 62
256
  6
BYLAYER
 49
-0.5
 62
256
  6
BYLAYER
  0
MLEADERSTYLE
  5
2C
102
{ACAD_REACTORS
330
F
102
}
330
F
100
AcDbMLeaderStyle
179
2
170
2
171
1
172
0
 90
2
 40
0.0
 41
0.0
173
1
 91
-1056964608
 92
-2
290
1
 42
2.0
291
1
 43
8.0
  3
Standard
 44
4.0
300

342
29
174
1
175
1
176
0
178
1
 93
-1056964608
 45
4.0
292
0
297
0
 46
4.0
 94
-1056964608
 47
1.0
 49
1.0
140
1.0
294
1
141
0.0
177
0
142
1.0
295
0
296
0
143
3.75
271
0
272
9
273
9
  0
DICTIONARY
  5
2D
330
A
100
AcDbDictionary
280
1
281
1
  3
CREATED_BY_EZDXF
350
2E
  3
WRITTEN_BY_EZDXF
350
13D
  0
DICTIONARYVAR
  5
2E
330
2D
100
DictionaryVariables
280
0
  1
1.4.4 @ 2026-09-21T14:46:41.765075+00:00
  0
DICTIONARYVAR
  5
13D
330
2D
100
DictionaryVariables
280
0
  1
1.4.4 @ 2026-09-21T14:46:41.769648+00:00
  0
ENDSEC
  0
EOF
