  0
SECTION
  2
HEADER
  9
$ACADVER
  1
AC1032
  9
$ACADMAINTVER
 90
4
  9
$DWGCODEPAGE
  3
ANSI_1252
  9
$LASTSAVEDBY
  1
ezdxf
  9
$REQUIREDVERSIONS
160
0
  9
$INSBASE
 10
0.0
 20
0.0
 30
0.0
  9
$EXTMIN
 10
1e+20
 20
1e+20
 30
1e+20
  9
$EXTMAX
 10
-1e+20
 20
-1e+20
 30
-1e+20
  9
$LIMMIN
 10
0.0
 20
0.0
  9
$LIMMAX
 10
420.0
 20
297.0
  9
$ORTHOMODE
 70
0
  9
$REGENMODE
 70
1
  9
$FILLMODE
 70
1
  9
$QTEXTMODE
 70
0
  9
$MIRRTEXT
 70
1
  9
$LTSCALE
 40
1.0
  9
$ATTMODE
 70
1
  9
$TEXTSIZE
 40
2.5
  9
$TRACEWID
 40
1.0
  9
$TEXTSTYLE
  7
Standard
  9
$CLAYER
  8
0
  9
$CELTYPE
  6
ByLayer
  9
$CECOLOR
 62
256
  9
$CELTSCALE
 40
1.0
  9
$DISPSILH
 70
0
  9
$DIMSCALE
 40
1.0
  9
$DIMASZ
 40
2.5
  9
$DIMEXO
 40
0.625
  9
$DIMDLI
 40
3.75
  9
$DIMRND
 40
0.0
  9
$DIMDLE
 40
0.0
  9
$DIMEXE
 40
1.25
  9
$DIMTP
 40
0.0
  9
$DIMTM
 40
0.0
  9
$DIMTXT
 40
2.5
  9
$DIMCEN
 40
2.5
  9
$DIMTSZ
 40
0.0
  9
$DIMTOL
 70
0
  9
$DIMLIM
 70
0
  9
$DIMTIH
 70
0
  9
$DIMTOH
 70
0
  9
$DIMSE1
 70
0
  9
$DIMSE2
 70
0
  9
$DIMTAD
 70
1
  9
$DIMZIN
 70
8
  9
$DIMBLK
  1

  9
$DIMASO
 70
1
  9
$DIMSHO
 70
1
  9
$DIMPOST
  1

  9
$DIMAPOST
  1

  9
$DIMALT
 70
0
  9
$DIMALTD
 70
3
  9
$DIMALTF
 40
0.03937007874
  9
$DIMLFAC
 40
1.0
  9
$DIMTOFL
 70
1
  9
$DIMTVP
 40
0.0
  9
$DIMTIX
 70
0
  9
$DIMSOXD
 70
0
  9
$DIMSAH
 70
0
  9
$DIMBLK1
  1

  9
$DIMBLK2
  1

  9
$DIMSTYLE
  2
ISO-25
  9
$DIMCLRD
 70
0
  9
$DIMCLRE
 70
0
  9
$DIMCLRT
 70
0
  9
$DIMTFAC
 40
1.0
  9
$DIMGAP
 40
0.625
  9
$DIMJUST
 70
0
  9
$DIMSD1
 70
0
  9
$DIMSD2
 70
0
  9
$DIMTOLJ
 70
0
  9
$DIMTZIN
 70
8
  9
$DIMALTZ
 70
0
  9
$DIMALTTZ
 70
0
  9
$DIMUPT
 70
0
  9
$DIMDEC
 70
2
  9
$DIMTDEC
 70
2
  9
$DIMALTU
 70
2
  9
$DIMALTTD
 70
3
  9
$DIMTXSTY
  7
Standard
  9
$DIMAUNIT
 70
0
  9
$DIMADEC
 70
0
  9
$DIMALTRND
 40
0.0
  9
$DIMAZIN
 70
0
  9
$DIMDSEP
 70
44
  9
$DIMATFIT
 70
3
  9
$DIMFRAC
 70
0
  9
$DIMLDRBLK
  1

  9
$DIMLUNIT
 70
2
  9
$DIMLWD
 70
-2
  9
$DIMLWE
 70
-2
  9
$DIMTMOVE
 70
0
  9
$DIMFXL
 40
1.0
  9
$DIMFXLON
 70
0
  9
$DIMJOGANG
 40
0.785398163397
  9
$DIMTFILL
 70
0
  9
$DIMTFILLCLR
 70
0
  9
$DIMARCSYM
 70
0
  9
$DIMLTYPE
  6

  9
$DIMLTEX1
  6

  9
$DIMLTEX2
  6

  9
$DIMTXTDIRECTION
 70
0
  9
$LUNITS
 70
2
  9
$LUPREC
 70
4
  9
$SKETCHINC
 40
1.0
  9
$FILLETRAD
 40
10.0
  9
$AUNITS
 70
0
  9
$AUPREC
 70
2
  9
$MENU
  1
.
  9
$ELEVATION
 40
0.0
  9
$PELEVATION
 40
0.0
  9
$THICKNESS
 40
0.0
  9
$LIMCHECK
 70
0
  9
$CHAMFERA
 40
0.0
  9
$CHAMFERB
 40
0.0
  9
$CHAMFERC
 40
0.0
  9
$CHAMFERD
 40
0.0
  9
$SKPOLY
 70
0
  9
$TDCREATE
 40
2461310.7561689815
  9
$TDUCREATE
 40
2458532.153996898
  9
$TDUPDATE
 40
2461310.7561689815
  9
$TDUUPDATE
 40
2458532.1544311
  9
$TDINDWG
 40
0.0
  9
$TDUSRTIMER
 40
0.0
  9
$USRTIMER
 70
1
  9
$ANGBASE
 50
0.0
  9
$ANGDIR
 70
0
  9
$PDMODE
 70
0
  9
$PDSIZE
 40
0.0
  9
$PLINEWID
 40
0.0
  9
$SPLFRAME
 70
0
  9
$SPLINETYPE
 70
6
  9
$SPLINESEGS
 70
8
  9
$HANDSEED
  5
4DF
  9
$SURFTAB1
 70
6
  9
$SURFTAB2
 70
6
  9
$SURFTYPE
 70
6
  9
$SURFU
 70
6
  9
$SURFV
 70
6
  9
$UCSBASE
  2

  9
$UCSNAME
  2

  9
$UCSORG
 10
0.0
 20
0.0
 30
0.0
  9
$UCSXDIR
 10
1.0
 20
0.0
 30
0.0
  9
$UCSYDIR
 10
0.0
 20
1.0
 30
0.0
  9
$UCSORTHOREF
  2

  9
$UCSORTHOVIEW
 70
0
  9
$UCSORGTOP
 10
0.0
 20
0.0
 30
0.0
  9
$UCSORGBOTTOM
 10
0.0
 20
0.0
 30
0.0
  9
$UCSORGLEFT
 10
0.0
 20
0.0
 30
0.0
  9
$UCSORGRIGHT
 10
0.0
 20
0.0
 30
0.0
  9
$UCSORGFRONT
 10
0.0
 20
0.0
 30
0.0
  9
$UCSORGBACK
 10
0.0
 20
0.0
 30
0.0
  9
$PUCSBASE
  2

  9
$PUCSNAME
  2

  9
$PUCSORG
 10
0.0
 20
0.0
 30
0.0
  9
$PUCSXDIR
 10
1.0
 20
0.0
 30
0.0
  9
$PUCSYDIR
 10
0.0
 20
1.0
 30
0.0
  9
$PUCSORTHOREF
  2

  9
$PUCSORTHOVIEW
 70
0
  9
$PUCSORGTOP
 10
0.0
 20
0.0
 30
0.0
  9
$PUCSORGBOTTOM
 10
0.0
 20
0.0
 30
0.0
  9
$PUCSORGLEFT
 10
0.0
 20
0.0
 30
0.0
  9
$PUCSORGRIGHT
 10
0.0
 20
0.0
 30
0.0
  9
$PUCSORGFRONT
 10
0.0
 20
0.0
 30
0.0
  9
$PUCSORGBACK
 10
0.0
 20
0.0
 30
0.0
  9
$USERI1
 70
0
  9
$USERI2
 70
0
  9
$USERI3
 70
0
  9
$USERI4
 70
0
  9
$USERI5
 70
0
  9
$USERR1
 40
0.0
  9
$USERR2
 40
0.0
  9
$USERR3
 40
0.0
  9
$USERR4
 40
0.0
  9
$USERR5
 40
0.0
  9
$WORLDVIEW
 70
1
  9
$SHADEDGE
 70
3
  9
$SHADEDIF
 70
70
  9
$TILEMODE
 70
1
  9
$MAXACTVP
 70
64
  9
$PINSBASE
 10
0.0
 20
0.0
 30
0.0
  9
$PLIMCHECK
 70
0
  9
$PEXTMIN
 10
1e+20
 20
1e+20
 30
1e+20
  9
$PEXTMAX
 10
-1e+20
 20
-1e+20
 30
-1e+20
  9
$PLIMMIN
 10
0.0
 20
0.0
  9
$PLIMMAX
 10
420.0
 20
297.0
  9
$UNITMODE
 70
0
  9
$VISRETAIN
 70
1
  9
$PLINEGEN
 70
0
  9
$PSLTSCALE
 70
1
  9
$TREEDEPTH
 70
3020
  9
$CMLSTYLE
  2
Standard
  9
$CMLJUST
 70
0
  9
$CMLSCALE
 40
20.0
  9
$PROXYGRAPHICS
 70
1
  9
$MEASUREMENT
 70
1
  9
$CELWEIGHT
370
-1
  9
$ENDCAPS
280
0
  9
$JOINSTYLE
280
0
  9
$LWDISPLAY
290
0
  9
$INSUNITS
 70
6
  9
$HYPERLINKBASE
  1

  9
$STYLESHEET
  1

  9
$XEDIT
290
1
  9
$CEPSNTYPE
380
0
  9
$PSTYLEMODE
290
1
  9
$FINGERPRINTGUID
  2
{6728B1E3-2573-4560-81F9-8F9EB5892A4E}
  9
$VERSIONGUID
  2
{E73FC02A-4536-4EDF-909D-141227A5EF06}
  9
$EXTNAMES
290
1
  9
$PSVPSCALE
 40
0.0
  9
$OLESTARTUP
290
0
  9
$SORTENTS
280
127
  9
$INDEXCTL
280
0
  9
$HIDETEXT
280
1
  9
$XCLIPFRAME
280
1
  9
$HALOGAP
280
0
  9
$OBSCOLOR
 70
257
  9
$OBSLTYPE
280
0
  9
$INTERSECTIONDISPLAY
280
0
  9
$INTERSECTIONCOLOR
 70
257
  9
$DIMASSOC
280
2
  9
$PROJECTNAME
  1

  9
$CAMERADISPLAY
290
0
  9
$LENSLENGTH
 40
50.0
  9
$CAMERAHEIGHT
 40
0.0
  9
$STEPSPERSEC
 40
24.0
  9
$STEPSIZE
 40
100.0
  9
$3DDWFPREC
 40
2.0
  9
$PSOLWIDTH
 40
0.005
  9
$PSOLHEIGHT
 40
0.08
  9
$LOFTANG1
 40
1.570796326795
  9
$LOFTANG2
 40
1.570796326795
  9
$LOFTMAG1
 40
0.0
  9
$LOFTMAG2
 40
0.0
  9
$LOFTPARAM
 70
7
  9
$LOFTNORMALS
280
1
  9
$LATITUDE
 40
37.795
  9
$LONGITUDE
 40
-122.394
  9
$NORTHDIRECTION
 40
0.0
  9
$TIMEZONE
 70
-8000
  9
$LIGHTGLYPHDISPLAY
280
1
  9
$TILEMODELIGHTSYNCH
280
1
  9
$CMATERIAL
347
20
  9
$SOLIDHIST
280
0
  9
$SHOWHIST
280
1
  9
$DWFFRAME
280
2
  9
$DGNFRAME
280
2
  9
$REALWORLDSCALE
290
1
  9
$INTERFERECOLOR
 62
256
  9
$CSHADOW
280
0
  9
$SHADOWPLANELOCATION
 40
0.0
  0
ENDSEC
  0
SECTION
  2
CLASSES
  0
CLASS
  1
ACDBDICTIONARYWDFLT
  2
AcDbDictionaryWithDefault
  3
ObjectDBX Classes
 90
0
 91
0
280
0
281
0
  0
CLASS
  1
SUN
  2
AcDbSun
  3
SCENEOE
 90
1153
 91
0
280
0
281
0
  0
CLASS
  1
VISUALSTYLE
  2
AcDbVisualStyle
  3
ObjectDBX Classes
 90
4095
 91
0
280
0
281
0
  0
CLASS
  1
MATERIAL
  2
AcDbMaterial
  3
ObjectDBX Classes
 90
1153
 91
0
280
0
281
0
  0
CLASS
  1
SCALE
  2
AcDbScale
  3
ObjectDBX Classes
 90
1153
 91
0
280
0
281
0
  0
CLASS
  1
TABLESTYLE
  2
AcDbTableStyle
  3
ObjectDBX Classes
 90
4095
 91
0
280
0
281
0
  0
CLASS
  1
MLEADERSTYLE
  2
AcDbMLeaderStyle
  3
ACDB_MLEADERSTYLE_CLASS
 90
4095
 91
0
280
0
281
0
  0
CLASS
  1
DICTIONARYVAR
  2
AcDbDictionaryVar
  3
ObjectDBX Classes
 90
0
 91
0
280
0
281
0
  0
CLASS
  1
CELLSTYLEMAP
  2
AcDbCellStyleMap
  3
ObjectDBX Classes
 90
1152
 91
0
280
0
281
0
  0
CLASS
  1
MENTALRAYRENDERSETTINGS
  2
AcDbMentalRayRenderSettings
  3
SCENEOE
 90
1024
 91
0
280
0
281
0
  0
CLASS
  1
ACDBDETAILVIEWSTYLE
  2
AcDbDetailViewStyle
  3
ObjectDBX Classes
 90
1025
 91
0
280
0
281
0
  0
CLASS
  1
ACDBSECTIONVIEWSTYLE
  2
AcDbSectionViewStyle
  3
ObjectDBX Classes
 90
1025
 91
0
280
0
281
0
  0
CLASS
  1
RASTERVARIABLES
  2
AcDbRasterVariables
  3
ISM
 90
0
 91
0
280
0
281
0
  0
CLASS
  1
LAYOUT
  2
AcDbLayout
  3
ObjectDBX Classes
 90
0
 91
0
280
0
281
0
  0
CLASS
  1
ACDBPLACEHOLDER
  2
AcDbPlaceHolder
  3
ObjectDBX Classes
 90
0
 91
0
280
0
281
0
  0
ENDSEC
  0
SECTION
  2
TABLES
  0
TABLE
  2
VPORT
  5
8
330
0
100
AcDbSymbolTable
 70
1
  0
VPORT
  5
23
330
8
100
AcDbSymbolTableRecord
100
AcDbViewportTableRecord
  2
*Active
 70
0
 10
0.0
 20
0.0
 11
1.0
 21
1.0
 12
0.0
 22
0.0
 13
0.0
 23
0.0
 14
0.5
 24
0.5
 15
0.5
 25
0.5
 16
0.0
 26
0.0
 36
1.0
 17
0.0
 27
0.0
 37
0.0
 40
1000.0
 41
1.34
 42
50.0
 43
0.0
 44
0.0
 50
0.0
 51
0.0
 71
0
 72
1000
 73
1
 74
3
 75
0
 76
0
 77
0
 78
0
281
0
 65
0
146
0.0
  0
ENDTAB
  0
TABLE
  2
LTYPE
  5
2
330
0
100
AcDbSymbolTable
 70
3
  0
LTYPE
  5
24
330
2
100
AcDbSymbolTableRecord
100
AcDbLinetypeTableRecord
  2
ByBlock
 70
0
  3

 72
65
 73
0
 40
0.0
  0
LTYPE
  5
25
330
2
100
AcDbSymbolTableRecord
100
AcDbLinetypeTableRecord
  2
ByLayer
 70
0
  3

 72
65
 73
0
 40
0.0
  0
LTYPE
  5
26
330
2
100
AcDbSymbolTableRecord
100
AcDbLinetypeTableRecord
  2
Continuous
 70
0
  3

 72
65
 73
0
 40
0.0
  0
ENDTAB
  0
TABLE
  2
LAYER
  5
1
330
0
100
AcDbSymbolTable
 70
18
  0
LAYER
  5
27
330
1
100
AcDbSymbolTableRecord
100
AcDbLayerTableRecord
  2
0
 70
0
 62
7
  6
Continuous
370
-3
390
13
347
21
  0
LAYER
  5
28
330
1
100
AcDbSymbolTableRecord
100
AcDbLayerTableRecord
  2
Defpoints
 70
0
 62
7
  6
Continuous
290
0
370
-3
390
13
347
21
  0
LAYER
  5
2F
330
1
100
AcDbSymbolTableRecord
100
AcDbLayerTableRecord
  2
TERRITORY_BOUNDARY
 70
0
 62
8
  6
Continuous
370
-3
390
13
347
21
  0
LAYER
  5
31
330
1
100
AcDbSymbolTableRecord
100
AcDbLayerTableRecord
  2
GRASS
 70
0
 62
84
  6
Continuous
370
-3
390
13
347
21
  0
LAYER
  5
33
330
1
100
AcDbSymbolTableRecord
100
AcDbLayerTableRecord
  2
PATH_WAVE_S
 70
0
 62
9
  6
Continuous
370
-3
390
13
347
21
  0
LAYER
  5
35
330
1
100
AcDbSymbolTableRecord
100
AcDbLayerTableRecord
  2
PATH_WAVE_N
 70
0
 62
9
  6
Continuous
370
-3
390
13
347
21
  0
LAYER
  5
37
330
1
100
AcDbSymbolTableRecord
100
AcDbLayerTableRecord
  2
PATH_CROSS
 70
0
 62
9
  6
Continuous
370
-3
390
13
347
21
  0
LAYER
  5
39
330
1
100
AcDbSymbolTableRecord
100
AcDbLayerTableRecord
  2
SEWER
 70
0
 62
9
  6
Continuous
370
-3
390
13
347
21
  0
LAYER
  5
3B
330
1
100
AcDbSymbolTableRecord
100
AcDbLayerTableRecord
  2
СПИРЕЯ СЕРАЯ
 70
0
 62
3
  6
Continuous
370
-3
390
13
347
21
  0
LAYER
  5
90
330
1
100
AcDbSymbolTableRecord
100
AcDbLayerTableRecord
  2
ДЕРЕН КРОВАВО-КРАСНЫЙ
 70
0
 62
3
  6
Continuous
370
-3
390
13
347
21
  0
LAYER
  5
190
330
1
100
AcDbSymbolTableRecord
100
AcDbLayerTableRecord
  2
СПИРЕЯ ВАНГУТТА
 70
0
 62
3
  6
Continuous
370
-3
390
13
347
21
  0
LAYER
  5
290
330
1
100
AcDbSymbolTableRecord
100
AcDbLayerTableRecord
  2
СИРЕНЬ ОБЫКНОВЕННАЯ
 70
0
 62
3
  6
Continuous
370
-3
390
13
347
21
  0
LAYER
  5
48F
330
1
100
AcDbSymbolTableRecord
100
AcDbLayerTableRecord
  2
БЕРЕЗА ПОВИСЛАЯ
 70
0
 62
3
  6
Continuous
370
-3
390
13
347
21
  0
LAYER
  5
493
330
1
100
AcDbSymbolTableRecord
100
AcDbLayerTableRecord
  2
ЕЛЬ КОЛЮЧАЯ
 70
0
 62
3
  6
Continuous
370
-3
390
13
347
21
  0
LAYER
  5
4AE
330
1
100
AcDbSymbolTableRecord
100
AcDbLayerTableRecord
  2
ЛИПА МЕЛКОЛИСТНАЯ
 70
0
 62
3
  6
Continuous
370
-3
390
13
347
21
  0
LAYER
  5
4BA
330
1
100
AcDbSymbolTableRecord
100
AcDbLayerTableRecord
  2
LAMPS
 70
0
 62
2
  6
Continuous
370
-3
390
13
347
21
  0
LAYER
  5
4C5
330
1
100
AcDbSymbolTableRecord
100
AcDbLayerTableRecord
  2
BENCH
 70
0
 62
30
  6
Continuous
370
-3
390
13
347
21
  0
LAYER
  5
4C8
330
1
100
AcDbSymbolTableRecord
100
AcDbLayerTableRecord
  2
URN
 70
0
 62
2
  6
Continuous
370
-3
390
13
347
21
  0
ENDTAB
  0
TABLE
  2
STYLE
  5
5
330
0
100
AcDbSymbolTable
 70
1
  0
STYLE
  5
29
330
5
100
AcDbSymbolTableRecord
100
AcDbTextStyleTableRecord
  2
Standard
 70
0
 40
0.0
 41
1.0
 50
0.0
 71
0
 42
2.5
  3
txt
  4

  0
ENDTAB
  0
TABLE
  2
VIEW
  5
7
330
0
100
AcDbSymbolTable
 70
0
  0
ENDTAB
  0
TABLE
  2
UCS
  5
6
330
0
100
AcDbSymbolTable
 70
0
  0
ENDTAB
  0
TABLE
  2
APPID
  5
3
330
0
100
AcDbSymbolTable
 70
3
  0
APPID
  5
2A
330
3
100
AcDbSymbolTableRecord
100
AcDbRegAppTableRecord
  2
ACAD
 70
0
  0
APPID
  5
4DC
330
3
100
AcDbSymbolTableRecord
100
AcDbRegAppTableRecord
  2
HATCHBACKGROUNDCOLOR
 70
0
  0
APPID
  5
4DD
330
3
100
AcDbSymbolTableRecord
100
AcDbRegAppTableRecord
  2
EZDXF
 70
0
  0
ENDTAB
  0
TABLE
  2
DIMSTYLE
  5
4
330
0
100
AcDbSymbolTable
 70
1
100
AcDbDimStyleTable
  0
DIMSTYLE
105
2B
330
4
100
AcDbSymbolTableRecord
100
AcDbDimStyleTableRecord
  2
Standard
 70
0
 40
1.0
 41
2.5
 42
0.625
 43
3.75
 44
1.25
 45
0.0
 46
0.0
 47
0.0
 48
0.0
 49
2.5
140
2.5
141
2.5
142
0.0
143
0.03937007874
144
1.0
145
0.0
146
1.0
147
0.625
148
0.0
 69
0
 70
0
 71
0
 72
0
 73
0
 74
0
 75
0
 76
0
 77
1
 78
8
 79
3
170
0
171
3
172
1
173
0
174
0
175
0
176
0
177
0
178
0
179
2
271
2
272
2
273
2
274
3
275
0
276
0
277
2
278
44
279
0
280
0
281
0
282
0
283
0
284
8
285
0
286
0
288
0
289
3
290
0
371
-2
372
-2
  0
ENDTAB
  0
TABLE
  2
BLOCK_RECORD
  5
9
330
0
100
AcDbSymbolTable
 70
3
  0
BLOCK_RECORD
  5
17
330
9
100
AcDbSymbolTableRecord
100
AcDbBlockTableRecord
  2
*Model_Space
340
1A
 70
0
280
1
281
0
  0
BLOCK_RECORD
  5
1B
330
9
100
AcDbSymbolTableRecord
100
AcDbBlockTableRecord
  2
*Paper_Space
340
1E
 70
0
280
1
281
0
  0
BLOCK_RECORD
  5
4C1
330
9
100
AcDbSymbolTableRecord
100
AcDbBlockTableRecord
  2
BENCH_BLOCK
340
0
 70
0
280
1
281
0
  0
ENDTAB
  0
ENDSEC
  0
SECTION
  2
BLOCKS
  0
BLOCK
  5
18
330
17
100
AcDbEntity
  8
0
100
AcDbBlockBegin
  2
*Model_Space
 70
0
 10
0.0
 20
0.0
 30
0.0
  3
*Model_Space
  1

  0
ENDBLK
  5
19
330
17
100
AcDbEntity
  8
0
100
AcDbBlockEnd
  0
BLOCK
  5
1C
330
1B
100
AcDbEntity
  8
0
100
AcDbBlockBegin
  2
*Paper_Space
 70
0
 10
0.0
 20
0.0
 30
0.0
  3
*Paper_Space
  1

  0
ENDBLK
  5
1D
330
1B
100
AcDbEntity
  8
0
100
AcDbBlockEnd
  0
BLOCK
  5
4C2
330
4C1
100
AcDbEntity
  8
0
100
AcDbBlockBegin
  2
BENCH_BLOCK
 70
0
 10
0.0
 20
0.0
 30
0.0
  3
BENCH_BLOCK
  1

  0
LWPOLYLINE
  5
4C4
330
4C1
100
AcDbEntity
  8
0
100
AcDbPolyline
 90
4
 70
1
 10
-0.75
 20
-0.25
 10
0.75
 20
-0.25
 10
0.75
 20
0.25
 10
-0.75
 20
0.25
  0
ENDBLK
  5
4C3
330
4C1
100
AcDbEntity
  8
0
100
AcDbBlockEnd
  0
ENDSEC
  0
SECTION
  2
ENTITIES
  0
LWPOLYLINE
  5
30
330
17
100
AcDbEntity
  8
TERRITORY_BOUNDARY
100
AcDbPolyline
 90
4
 70
1
 10
110.0
 20
0.0
 10
110.0
 20
60.0
 10
0.0
 20
60.0
 10
0.0
 20
0.0
  0
LWPOLYLINE
  5
32
330
17
100
AcDbEntity
  8
GRASS
100
AcDbPolyline
 90
4
 70
1
 10
110.0
 20
0.0
 10
110.0
 20
60.0
 10
0.0
 20
60.0
 10
0.0
 20
0.0
  0
LWPOLYLINE
  5
34
330
17
100
AcDbEntity
  8
PATH_WAVE_S
100
AcDbPolyline
 90
315
 70
1
 10
0.3767574406878995
 20
16.63322886595009
 10
0.3907568259532356
 20
16.641607465599293
 10
1.3907568259532357
 20
17.230909345404875
 10
1.4193370136499421
 20
17.24722786902962
 10
2.419337013649942
 20
17.80015736738978
 10
2.463552682237681
 20
17.823417102186106
 10
3.463552682237681
 20
18.323173736088993
 10
3.5246661711418907
 20
18.351599522495942
 10
4.524666171141891
 20
18.782998439509477
 10
4.603646731465954
 20
18.81380911071411
 10
5.603646731465954
 20
19.163742473043225
 10
5.700396146181271
 20
19.19308612958341
 10
6.700396146181271
 20
19.450921389088553
 10
6.812835398674611
 20
19.47423822902889
 10
7.812835398674611
 20
19.63214119182094
 10
7.936282574914935
 20
19.645134312246817
 10
8.936282574914935
 20
19.69830717670409
 10
9.063717425085065
 20
19.69830717670409
 10
10.063717425085065
 20
19.645134312246817
 10
10.187164601325389
 20
19.63214119182094
 10
11.187164601325389
 20
19.47423822902889
 10
11.299603853818729
 20
19.450921389088553
 10
12.299603853818729
 20
19.19308612958341
 10
12.396353268534046
 20
19.163742473043225
 10
13.396353268534046
 20
18.81380911071411
 10
13.47533382885811
 20
18.782998439509477
 10
14.47533382885811
 20
18.351599522495942
 10
14.536447317762319
 20
18.323173736088993
 10
15.536447317762319
 20
17.823417102186106
 10
15.580662986350054
 20
17.80015736738978
 10
16.580662986350056
 20
17.247227869029622
 10
16.609243174046767
 20
17.230909345404875
 10
17.609243174046767
 20
16.641607465599286
 10
17.6232425593121
 20
16.633228865950088
 10
19.61627134608905
 20
15.421928506934666
 10
20.59506497734719
 20
14.845123580092508
 10
21.55879730149333
 20
14.31224754954891
 10
22.506289881666355
 20
13.838731847033678
 10
23.436388066025135
 20
13.437488497585045
 10
24.34859716981728
 20
13.118276098747833
 10
25.243942681000025
 20
12.887424456525265
 10
26.12577746851217
 20
12.748180130884002
 10
27.0
 20
12.701695214711705
 10
27.87422253148783
 20
12.748180130884002
 10
28.756057318999975
 20
12.887424456525265
 10
29.65140283018274
 20
13.118276098747838
 10
30.563611933974865
 20
13.437488497585043
 10
31.493710118333667
 20
13.838731847033685
 10
32.441202698506636
 20
14.312247549548895
 10
33.404935022652815
 20
14.84512358009251
 10
34.38372865391093
 20
15.421928506934652
 10
35.376757440687896
 20
16.025460244115834
 10
36.3767574406879
 20
16.633228865950088
 10
36.39075682595323
 20
16.64160746559929
 10
37.39075682595323
 20
17.23090934540487
 10
37.419337013649944
 20
17.24722786902962
 10
38.419337013649944
 20
17.800157367389776
 10
38.463552682237676
 20
17.8234171021861
 10
39.463552682237676
 20
18.32317373608899
 10
39.52466617114189
 20
18.351599522495942
 10
40.52466617114189
 20
18.782998439509477
 10
40.60364673146596
 20
18.81380911071411
 10
41.60364673146596
 20
19.163742473043225
 10
41.70039614618127
 20
19.19308612958341
 10
42.70039614618127
 20
19.450921389088553
 10
42.81283539867461
 20
19.47423822902889
 10
43.81283539867461
 20
19.63214119182094
 10
43.936282574914934
 20
19.645134312246817
 10
44.936282574914934
 20
19.69830717670409
 10
45.06371742508506
 20
19.69830717670409
 10
46.06371742508506
 20
19.64513431224682
 10
46.18716460132539
 20
19.632141191820942
 10
47.18716460132539
 20
19.47423822902889
 10
47.29960385381873
 20
19.450921389088553
 10
48.29960385381873
 20
19.19308612958341
 10
48.39635326853404
 20
19.16374247304323
 10
49.39635326853404
 20
18.813809110714118
 10
49.47533382885811
 20
18.78299843950948
 10
50.47533382885811
 20
18.351599522495942
 10
50.53644731776232
 20
18.323173736088993
 10
51.53644731776232
 20
17.823417102186106
 10
51.580662986350056
 20
17.80015736738978
 10
52.580662986350056
 20
17.24722786902962
 10
52.60924317404677
 20
17.230909345404875
 10
53.60924317404677
 20
16.641607465599293
 10
53.6232425593121
 20
16.63322886595009
 10
55.61627134608893
 20
15.421928506934737
 10
56.595064977347185
 20
14.845123580092512
 10
57.558797301493335
 20
14.312247549548912
 10
58.506289881666376
 20
13.838731847033664
 10
59.43638806602512
 20
13.437488497585054
 10
60.34859716981728
 20
13.118276098747835
 10
61.24394268100001
 20
12.887424456525268
 10
62.12577746851217
 20
12.748180130884002
 10
63.0
 20
12.701695214711705
 10
63.87422253148783
 20
12.748180130884002
 10
64.75605731899996
 20
12.887424456525265
 10
65.65140283018272
 20
13.118276098747838
 10
66.5636119339749
 20
13.437488497585052
 10
67.49371011833361
 20
13.838731847033664
 10
68.44120269850663
 20
14.312247549548893
 10
69.40493502265292
 20
14.845123580092572
 10
70.38372865391084
 20
15.421928506934595
 10
72.3767574406879
 20
16.633228865950088
 10
72.39075682595323
 20
16.641607465599286
 10
73.39075682595323
 20
17.23090934540487
 10
73.41933701364995
 20
17.24722786902962
 10
74.41933701364995
 20
17.800157367389776
 10
74.46355268223768
 20
17.823417102186102
 10
75.46355268223768
 20
18.32317373608899
 10
75.52466617114189
 20
18.35159952249594
 10
76.52466617114189
 20
18.782998439509477
 10
76.60364673146596
 20
18.813809110714114
 10
77.60364673146596
 20
19.163742473043225
 10
77.70039614618126
 20
19.193086129583406
 10
78.70039614618126
 20
19.450921389088553
 10
78.81283539867461
 20
19.47423822902889
 10
79.81283539867461
 20
19.63214119182094
 10
79.93628257491494
 20
19.645134312246817
 10
80.93628257491494
 20
19.69830717670409
 10
81.06371742508506
 20
19.69830717670409
 10
82.06371742508506
 20
19.64513431224682
 10
82.18716460132539
 20
19.632141191820942
 10
83.18716460132539
 20
19.47423822902889
 10
83.29960385381874
 20
19.450921389088553
 10
84.29960385381874
 20
19.193086129583406
 10
84.39635326853404
 20
19.163742473043225
 10
85.39635326853404
 20
18.813809110714114
 10
85.47533382885811
 20
18.78299843950948
 10
86.47533382885811
 20
18.35159952249595
 10
86.53644731776231
 20
18.323173736088997
 10
87.53644731776231
 20
17.823417102186113
 10
87.58066298635006
 20
17.800157367389787
 10
88.58066298635006
 20
17.247227869029626
 10
88.60924317404677
 20
17.23090934540488
 10
89.60924317404677
 20
16.64160746559929
 10
89.6232425593121
 20
16.63322886595009
 10
91.61627134608916
 20
15.421928506934599
 10
92.59506497734708
 20
14.845123580092576
 10
93.55879730149347
 20
14.312247549548838
 10
94.50628988166632
 20
13.838731847033685
 10
95.43638806602515
 20
13.437488497585045
 10
96.34859716981727
 20
13.11827609874784
 10
97.24394268100001
 20
12.887424456525272
 10
98.12577746851217
 20
12.748180130884002
 10
99.0
 20
12.701695214711705
 10
99.87422253148783
 20
12.748180130884
 10
100.75605731899995
 20
12.887424456525263
 10
101.65140283018272
 20
13.118276098747836
 10
102.56361193397491
 20
13.437488497585056
 10
103.49371011833358
 20
13.83873184703365
 10
104.44120269850674
 20
14.31224754954895
 10
105.40493502265275
 20
14.845123580092471
 10
106.38372865391074
 20
15.421928506934536
 10
108.3767574406879
 20
16.633228865950088
 10
108.39075682595323
 20
16.64160746559929
 10
109.39075682595323
 20
17.23090934540487
 10
110.60924317404677
 20
15.163231657874801
 10
109.61627134608916
 20
14.578071493065401
 10
107.6232425593121
 20
13.366771134049909
 10
107.60924317404677
 20
13.35839253440071
 10
106.60924317404677
 20
12.769090654595125
 10
106.58066298635005
 20
12.752772130970376
 10
105.58066298635005
 20
12.199842632610219
 10
105.53644731776232
 20
12.176582897813896
 10
104.53644731776232
 20
11.676826263911009
 10
104.47533382885811
 20
11.64840047750406
 10
103.47533382885811
 20
11.217001560490518
 10
103.39635326853404
 20
11.186190889285879
 10
102.39635326853404
 20
10.836257526956773
 10
102.29960385381874
 20
10.806913870416594
 10
101.29960385381874
 20
10.549078610911447
 10
101.18716460132539
 20
10.525761770971108
 10
100.18716460132539
 20
10.36785880817906
 10
100.06371742508506
 20
10.35486568775318
 10
99.06371742508506
 20
10.301692823295909
 10
98.93628257491494
 20
10.301692823295909
 10
97.93628257491494
 20
10.354865687753183
 10
97.81283539867461
 20
10.367858808179061
 10
96.81283539867461
 20
10.525761770971112
 10
96.70039614618128
 20
10.549078610911451
 10
95.70039614618128
 20
10.806913870416594
 10
95.60364673146596
 20
10.836257526956778
 10
94.60364673146596
 20
11.186190889285893
 10
94.5246661711419
 20
11.217001560490521
 10
93.5246661711419
 20
11.648400477504046
 10
93.46355268223768
 20
11.676826263911007
 10
92.46355268223768
 20
12.176582897813905
 10
92.41933701364994
 20
12.199842632610224
 10
91.41933701364994
 20
12.752772130970381
 10
91.39075682595323
 20
12.769090654595129
 10
90.39075682595323
 20
13.358392534400712
 10
90.3767574406879
 20
13.366771134049912
 10
88.38372865391074
 20
14.578071493065465
 10
87.40493502265292
 20
15.154876419907437
 10
86.44120269850653
 20
15.68775245045117
 10
85.49371011833375
 20
16.16126815296628
 10
84.56361193397485
 20
16.56251150241496
 10
83.65140283018275
 20
16.881723901252155
 10
82.75605731899995
 20
17.112575543474737
 10
81.87422253148783
 20
17.251819869116
 10
81.0
 20
17.298304785288295
 10
80.12577746851217
 20
17.251819869115998
 10
79.24394268100005
 20
17.112575543474737
 10
78.34859716981725
 20
16.881723901252155
 10
77.43638806602512
 20
16.562511502414946
 10
76.50628988166642
 20
16.161268152966343
 10
75.55879730149326
 20
15.687752450451047
 10
74.59506497734725
 20
15.154876419907525
 10
73.61627134608926
 20
14.57807149306546
 10
71.6232425593121
 20
13.366771134049909
 10
71.60924317404677
 20
13.358392534400709
 10
70.60924317404677
 20
12.769090654595125
 10
70.58066298635006
 20
12.752772130970378
 10
69.58066298635006
 20
12.19984263261022
 10
69.53644731776232
 20
12.176582897813896
 10
68.53644731776232
 20
11.676826263911009
 10
68.47533382885811
 20
11.648400477504058
 10
67.47533382885811
 20
11.21700156049052
 10
67.39635326853404
 20
11.186190889285882
 10
66.39635326853404
 20
10.836257526956775
 10
66.29960385381874
 20
10.806913870416595
 10
65.29960385381874
 20
10.54907861091145
 10
65.18716460132539
 20
10.525761770971108
 10
64.18716460132539
 20
10.36785880817906
 10
64.06371742508506
 20
10.35486568775318
 10
63.063717425085066
 20
10.301692823295909
 10
62.936282574914934
 20
10.301692823295909
 10
61.936282574914934
 20
10.35486568775318
 10
61.81283539867461
 20
10.36785880817906
 10
60.81283539867461
 20
10.525761770971108
 10
60.70039614618127
 20
10.54907861091145
 10
59.70039614618127
 20
10.806913870416595
 10
59.60364673146596
 20
10.836257526956777
 10
58.60364673146596
 20
11.18619088928589
 10
58.524666171141895
 20
11.217001560490523
 10
57.524666171141895
 20
11.648400477504055
 10
57.463552682237676
 20
11.676826263911009
 10
56.463552682237676
 20
12.176582897813901
 10
56.419337013649944
 20
12.199842632610224
 10
55.419337013649944
 20
12.752772130970381
 10
55.39075682595323
 20
12.769090654595129
 10
54.39075682595323
 20
13.358392534400712
 10
54.3767574406879
 20
13.366771134049912
 10
52.38372865391107
 20
14.578071493065266
 10
51.404935022652765
 20
15.154876419907518
 10
50.441202698506636
 20
15.687752450451107
 10
49.49371011833364
 20
16.161268152966326
 10
48.56361193397489
 20
16.56251150241495
 10
47.651402830182725
 20
16.881723901252165
 10
46.75605731899997
 20
17.112575543474733
 10
45.87422253148783
 20
17.251819869116
 10
45.00000000000001
 20
17.298304785288295
 10
44.12577746851217
 20
17.251819869115998
 10
43.24394268100003
 20
17.112575543474733
 10
42.34859716981724
 20
16.88172390125216
 10
41.43638806602515
 20
16.562511502414964
 10
40.50628988166636
 20
16.161268152966326
 10
39.558797301493364
 20
15.687752450451104
 10
38.595064977347185
 20
15.154876419907488
 10
37.61627134608893
 20
14.578071493065265
 10
36.6232425593121
 20
13.974539755884166
 10
35.623242559312104
 20
13.36677113404991
 10
35.60924317404677
 20
13.358392534400709
 10
34.60924317404677
 20
12.769090654595125
 10
34.580662986350056
 20
12.752772130970378
 10
33.580662986350056
 20
12.19984263261022
 10
33.536447317762324
 20
12.1765828978139
 10
32.536447317762324
 20
11.676826263911009
 10
32.47533382885811
 20
11.648400477504055
 10
31.47533382885811
 20
11.21700156049052
 10
31.396353268534043
 20
11.186190889285886
 10
30.396353268534043
 20
10.836257526956773
 10
30.29960385381873
 20
10.80691387041659
 10
29.29960385381873
 20
10.549078610911447
 10
29.187164601325392
 20
10.525761770971108
 10
28.187164601325392
 20
10.36785880817906
 10
28.063717425085063
 20
10.35486568775318
 10
27.063717425085063
 20
10.301692823295909
 10
26.936282574914937
 20
10.301692823295909
 10
25.936282574914937
 20
10.35486568775318
 10
25.812835398674608
 20
10.36785880817906
 10
24.812835398674608
 20
10.525761770971108
 10
24.70039614618127
 20
10.549078610911447
 10
23.70039614618127
 20
10.806913870416594
 10
23.603646731465957
 20
10.836257526956775
 10
22.603646731465957
 20
11.186190889285887
 10
22.52466617114189
 20
11.217001560490521
 10
21.52466617114189
 20
11.648400477504056
 10
21.46355268223768
 20
11.676826263911009
 10
20.46355268223768
 20
12.176582897813896
 10
20.419337013649944
 20
12.19984263261022
 10
19.419337013649944
 20
12.752772130970378
 10
19.390756825953233
 20
12.769090654595125
 10
18.390756825953233
 20
13.35839253440071
 10
18.3767574406879
 20
13.36677113404991
 10
16.383728653910854
 20
14.578071493065393
 10
15.404935022652806
 20
15.154876419907497
 10
14.44120269850664
 20
15.687752450451105
 10
13.493710118333617
 20
16.161268152966336
 10
12.56361193397487
 20
16.562511502414953
 10
11.65140283018274
 20
16.881723901252162
 10
10.756057318999973
 20
17.112575543474737
 10
9.874222531487836
 20
17.251819869115998
 10
9.0
 20
17.298304785288295
 10
8.125777468512164
 20
17.251819869115998
 10
7.243942681000027
 20
17.112575543474737
 10
6.34859716981726
 20
16.881723901252162
 10
5.436388066025125
 20
16.562511502414953
 10
4.506289881666389
 20
16.16126815296634
 10
3.5587973014933603
 20
15.687752450451105
 10
2.595064977347159
 20
15.154876419907474
 10
1.6162713460890656
 20
14.578071493065348
 10
0.6232425593121005
 20
13.974539755884168
 10
-0.6232425593121005
 20
16.025460244115834
  0
LWPOLYLINE
  5
36
330
17
100
AcDbEntity
  8
PATH_WAVE_N
100
AcDbPolyline
 90
319
 70
1
 10
0.3767574406879023
 20
46.63322886595009
 10
0.39075682595323025
 20
46.641607465599286
 10
1.3907568259532304
 20
47.230909345404875
 10
1.4193370136499448
 20
47.24722786902962
 10
2.419337013649945
 20
47.80015736738978
 10
2.463552682237678
 20
47.823417102186106
 10
3.463552682237678
 20
48.323173736089
 10
3.524666171141894
 20
48.351599522495945
 10
4.524666171141894
 20
48.78299843950948
 10
4.6036467314659575
 20
48.81380911071411
 10
5.6036467314659575
 20
49.16374247304322
 10
5.700396146181263
 20
49.193086129583406
 10
6.700396146181263
 20
49.450921389088556
 10
6.812835398674616
 20
49.4742382290289
 10
7.812835398674616
 20
49.63214119182094
 10
7.936282574914935
 20
49.64513431224682
 10
8.936282574914935
 20
49.69830717670409
 10
9.063717425085065
 20
49.69830717670409
 10
10.063717425085065
 20
49.64513431224682
 10
10.187164601325385
 20
49.63214119182094
 10
11.187164601325385
 20
49.4742382290289
 10
11.299603853818736
 20
49.450921389088556
 10
12.299603853818736
 20
49.193086129583406
 10
12.396353268534043
 20
49.16374247304322
 10
13.396353268534043
 20
48.81380911071411
 10
13.475333828858107
 20
48.78299843950948
 10
14.475333828858107
 20
48.351599522495945
 10
14.536447317762322
 20
48.323173736089
 10
15.536447317762322
 20
47.823417102186106
 10
15.580662986350054
 20
47.80015736738978
 10
16.580662986350056
 20
47.24722786902962
 10
16.60924317404677
 20
47.230909345404875
 10
17.60924317404677
 20
46.641607465599286
 10
17.623242559312096
 20
46.63322886595009
 10
19.616271346088915
 20
45.42192850693475
 10
20.595064977347246
 20
44.845123580092476
 10
21.55879730149333
 20
44.312247549548914
 10
22.50628988166636
 20
43.83873184703368
 10
23.436388066025152
 20
43.437488497585036
 10
24.348597169817225
 20
43.118276098747856
 10
25.24394268100002
 20
42.88742445652527
 10
26.12577746851219
 20
42.748180130884
 10
27.0
 20
42.701695214711705
 10
27.87422253148781
 20
42.748180130884
 10
28.756057319
 20
42.88742445652527
 10
29.65140283018273
 20
43.118276098747835
 10
30.563611933974915
 20
43.437488497585065
 10
31.493710118333567
 20
43.838731847033635
 10
32.441202698506736
 20
44.31224754954895
 10
33.40493502265281
 20
44.845123580092505
 10
34.38372865391097
 20
45.42192850693468
 10
36.3767574406879
 20
46.63322886595009
 10
36.39075682595323
 20
46.641607465599286
 10
37.39075682595323
 20
47.23090934540487
 10
37.41933701364994
 20
47.247227869029615
 10
38.41933701364994
 20
47.80015736738978
 10
38.463552682237676
 20
47.823417102186106
 10
39.463552682237676
 20
48.323173736089
 10
39.524666171141895
 20
48.351599522495945
 10
40.524666171141895
 20
48.78299843950948
 10
40.60364673146596
 20
48.81380911071411
 10
41.60364673146596
 20
49.16374247304322
 10
41.70039614618127
 20
49.193086129583406
 10
42.70039614618127
 20
49.45092138908855
 10
42.81283539867461
 20
49.474238229028884
 10
43.81283539867461
 20
49.632141191820935
 10
43.936282574914934
 20
49.64513431224682
 10
44.936282574914934
 20
49.69830717670409
 10
45.063717425085066
 20
49.69830717670409
 10
46.063717425085066
 20
49.64513431224682
 10
46.18716460132539
 20
49.632141191820935
 10
47.18716460132539
 20
49.474238229028884
 10
47.299603853818724
 20
49.45092138908855
 10
48.299603853818724
 20
49.19308612958341
 10
48.39635326853404
 20
49.16374247304323
 10
49.39635326853404
 20
48.81380911071412
 10
49.47533382885812
 20
48.782998439509484
 10
50.47533382885812
 20
48.35159952249594
 10
50.53644731776232
 20
48.32317373608899
 10
51.53644731776232
 20
47.823417102186106
 10
51.580662986350056
 20
47.80015736738978
 10
52.580662986350056
 20
47.24722786902962
 10
52.60924317404677
 20
47.230909345404875
 10
53.60924317404677
 20
46.641607465599286
 10
53.6232425593121
 20
46.63322886595009
 10
55.61627134608903
 20
45.42192850693468
 10
56.59506497734708
 20
44.845123580092576
 10
57.55879730149334
 20
44.31224754954891
 10
58.506289881666454
 20
43.83873184703363
 10
59.43638806602511
 20
43.43748849758505
 10
60.348597169817225
 20
43.118276098747856
 10
61.24394268100002
 20
42.88742445652527
 10
62.12577746851219
 20
42.748180130884
 10
63.0
 20
42.701695214711705
 10
63.87422253148781
 20
42.748180130884
 10
64.75605731899996
 20
42.88742445652526
 10
65.65140283018276
 20
43.11827609874785
 10
66.56361193397487
 20
43.43748849758504
 10
67.49371011833358
 20
43.83873184703365
 10
68.44120269850681
 20
44.312247549548985
 10
69.40493502265271
 20
44.84512358009244
 10
70.38372865391074
 20
45.421928506934535
 10
71.3767574406879
 20
46.025460244115834
 10
72.3767574406879
 20
46.63322886595009
 10
72.39075682595323
 20
46.641607465599286
 10
73.39075682595323
 20
47.23090934540487
 10
73.41933701364994
 20
47.247227869029615
 10
74.41933701364994
 20
47.80015736738978
 10
74.46355268223769
 20
47.823417102186106
 10
75.46355268223769
 20
48.32317373608899
 10
75.52466617114189
 20
48.35159952249594
 10
76.52466617114189
 20
48.78299843950948
 10
76.60364673146596
 20
48.81380911071411
 10
77.60364673146596
 20
49.16374247304322
 10
77.70039614618126
 20
49.193086129583406
 10
78.70039614618126
 20
49.450921389088556
 10
78.81283539867462
 20
49.4742382290289
 10
79.81283539867462
 20
49.63214119182094
 10
79.93628257491494
 20
49.64513431224682
 10
80.93628257491494
 20
49.69830717670409
 10
81.06371742508506
 20
49.69830717670409
 10
82.06371742508506
 20
49.645134312246824
 10
82.1871646013254
 20
49.63214119182094
 10
83.1871646013254
 20
49.474238229028884
 10
83.29960385381872
 20
49.45092138908855
 10
84.29960385381872
 20
49.193086129583406
 10
84.39635326853404
 20
49.16374247304322
 10
85.39635326853404
 20
48.81380911071411
 10
85.47533382885811
 20
48.78299843950948
 10
86.47533382885811
 20
48.351599522495945
 10
86.53644731776231
 20
48.323173736089
 10
87.53644731776231
 20
47.82341710218611
 10
87.58066298635005
 20
47.80015736738979
 10
88.58066298635005
 20
47.24722786902963
 10
88.60924317404677
 20
47.23090934540488
 10
89.60924317404677
 20
46.64160746559929
 10
89.6232425593121
 20
46.633228865950095
 10
90.6232425593121
 20
46.025460244115834
 10
91.61627134608926
 20
45.42192850693454
 10
92.59506497734729
 20
44.84512358009245
 10
93.55879730149333
 20
44.312247549548914
 10
94.5062898816663
 20
43.83873184703369
 10
95.43638806602515
 20
43.437488497585036
 10
96.34859716981725
 20
43.11827609874784
 10
97.24394268100005
 20
42.88742445652526
 10
98.12577746851214
 20
42.748180130884
 10
99.0
 20
42.701695214711705
 10
99.87422253148786
 20
42.748180130884
 10
100.75605731899995
 20
42.88742445652526
 10
101.65140283018272
 20
43.118276098747835
 10
102.56361193397487
 20
43.43748849758504
 10
103.49371011833358
 20
43.83873184703365
 10
104.44120269850681
 20
44.312247549548985
 10
105.40493502265271
 20
44.84512358009244
 10
106.38372865391074
 20
45.421928506934535
 10
107.3767574406879
 20
46.025460244115834
 10
108.3767574406879
 20
46.63322886595009
 10
108.39075682595323
 20
46.641607465599286
 10
109.39075682595323
 20
47.23090934540487
 10
110.60924317404677
 20
45.1632316578748
 10
109.61627134608926
 20
44.57807149306546
 10
108.6232425593121
 20
43.974539755884166
 10
107.6232425593121
 20
43.366771134049905
 10
107.60924317404677
 20
43.35839253440071
 10
106.60924317404677
 20
42.769090654595125
 10
106.58066298635005
 20
42.75277213097038
 10
105.58066298635005
 20
42.19984263261022
 10
105.53644731776232
 20
42.176582897813894
 10
104.53644731776232
 20
41.676826263911
 10
104.47533382885811
 20
41.648400477504055
 10
103.47533382885811
 20
41.217001560490516
 10
103.39635326853403
 20
41.186190889285875
 10
102.39635326853403
 20
40.83625752695677
 10
102.29960385381872
 20
40.806913870416594
 10
101.29960385381872
 20
40.54907861091145
 10
101.18716460132539
 20
40.525761770971116
 10
100.18716460132539
 20
40.367858808179065
 10
100.06371742508506
 20
40.35486568775318
 10
99.06371742508506
 20
40.30169282329591
 10
98.93628257491494
 20
40.30169282329591
 10
97.93628257491494
 20
40.35486568775318
 10
97.81283539867461
 20
40.367858808179065
 10
96.81283539867461
 20
40.525761770971116
 10
96.70039614618128
 20
40.54907861091145
 10
95.70039614618128
 20
40.806913870416594
 10
95.60364673146596
 20
40.83625752695678
 10
94.60364673146596
 20
41.18619088928589
 10
94.52466617114189
 20
41.21700156049052
 10
93.52466617114189
 20
41.648400477504055
 10
93.46355268223768
 20
41.67682626391101
 10
92.46355268223768
 20
42.17658289781391
 10
92.41933701364995
 20
42.19984263261023
 10
91.41933701364995
 20
42.752772130970385
 10
91.39075682595323
 20
42.76909065459513
 10
90.39075682595323
 20
43.358392534400714
 10
90.3767574406879
 20
43.36677113404991
 10
89.3767574406879
 20
43.974539755884166
 10
88.38372865391074
 20
44.57807149306547
 10
87.40493502265271
 20
45.154876419907566
 10
86.44120269850669
 20
45.68775245045109
 10
85.4937101183337
 20
46.1612681529663
 10
84.56361193397485
 20
46.562511502414964
 10
83.65140283018275
 20
46.88172390125216
 10
82.75605731899998
 20
47.11257554347473
 10
81.87422253148785
 20
47.251819869116005
 10
81.0
 20
47.298304785288295
 10
80.12577746851218
 20
47.251819869116
 10
79.24394268100004
 20
47.11257554347474
 10
78.34859716981722
 20
46.881723901252144
 10
77.43638806602516
 20
46.562511502414964
 10
76.5062898816663
 20
46.1612681529663
 10
75.55879730149347
 20
45.687752450451164
 10
74.59506497734708
 20
45.154876419907424
 10
73.61627134608926
 20
44.57807149306546
 10
72.6232425593121
 20
43.974539755884166
 10
71.6232425593121
 20
43.366771134049905
 10
71.60924317404677
 20
43.35839253440071
 10
70.60924317404677
 20
42.769090654595125
 10
70.58066298635005
 20
42.75277213097038
 10
69.58066298635005
 20
42.19984263261022
 10
69.53644731776232
 20
42.176582897813894
 10
68.53644731776232
 20
41.676826263911
 10
68.47533382885811
 20
41.648400477504055
 10
67.47533382885811
 20
41.217001560490516
 10
67.39635326853403
 20
41.186190889285875
 10
66.39635326853403
 20
40.83625752695677
 10
66.29960385381874
 20
40.806913870416594
 10
65.29960385381874
 20
40.549078610911444
 10
65.18716460132538
 20
40.5257617709711
 10
64.18716460132538
 20
40.36785880817906
 10
64.06371742508506
 20
40.35486568775318
 10
63.063717425085066
 20
40.30169282329591
 10
62.936282574914934
 20
40.30169282329591
 10
61.936282574914934
 20
40.35486568775318
 10
61.812835398674615
 20
40.36785880817906
 10
60.812835398674615
 20
40.5257617709711
 10
60.70039614618126
 20
40.549078610911444
 10
59.70039614618126
 20
40.806913870416594
 10
59.60364673146596
 20
40.83625752695678
 10
58.60364673146596
 20
41.18619088928589
 10
58.524666171141895
 20
41.21700156049052
 10
57.524666171141895
 20
41.648400477504055
 10
57.463552682237676
 20
41.676826263911
 10
56.463552682237676
 20
42.176582897813894
 10
56.41933701364994
 20
42.19984263261022
 10
55.41933701364994
 20
42.752772130970385
 10
55.39075682595323
 20
42.76909065459513
 10
54.39075682595323
 20
43.358392534400714
 10
54.3767574406879
 20
43.36677113404991
 10
52.38372865391097
 20
44.57807149306532
 10
51.40493502265281
 20
45.154876419907495
 10
50.44120269850667
 20
45.687752450451086
 10
49.49371011833368
 20
46.1612681529663
 10
48.563611933974805
 20
46.562511502414985
 10
47.65140283018275
 20
46.881723901252165
 10
46.75605731899996
 20
47.11257554347474
 10
45.87422253148787
 20
47.251819869116
 10
45.0
 20
47.298304785288295
 10
44.12577746851213
 20
47.251819869116
 10
43.243942681000064
 20
47.11257554347474
 10
42.34859716981724
 20
46.88172390125215
 10
41.43638806602511
 20
46.56251150241495
 10
40.506289881666454
 20
46.16126815296637
 10
39.55879730149334
 20
45.68775245045109
 10
38.59506497734708
 20
45.154876419907424
 10
37.61627134608903
 20
44.57807149306532
 10
35.6232425593121
 20
43.36677113404991
 10
35.60924317404677
 20
43.358392534400714
 10
34.60924317404677
 20
42.769090654595125
 10
34.580662986350056
 20
42.75277213097038
 10
33.580662986350056
 20
42.19984263261022
 10
33.536447317762324
 20
42.176582897813894
 10
32.536447317762324
 20
41.676826263911
 10
32.475333828858105
 20
41.648400477504055
 10
31.475333828858105
 20
41.21700156049052
 10
31.39635326853405
 20
41.18619088928589
 10
30.39635326853405
 20
40.83625752695677
 10
30.29960385381873
 20
40.80691387041659
 10
29.29960385381873
 20
40.549078610911444
 10
29.187164601325385
 20
40.5257617709711
 10
28.187164601325385
 20
40.36785880817906
 10
28.063717425085066
 20
40.35486568775318
 10
27.063717425085066
 20
40.30169282329591
 10
26.936282574914934
 20
40.30169282329591
 10
25.936282574914934
 20
40.35486568775318
 10
25.812835398674615
 20
40.36785880817906
 10
24.812835398674615
 20
40.5257617709711
 10
24.700396146181262
 20
40.549078610911444
 10
23.700396146181262
 20
40.806913870416594
 10
23.603646731465957
 20
40.83625752695678
 10
22.603646731465957
 20
41.18619088928589
 10
22.524666171141888
 20
41.21700156049052
 10
21.524666171141888
 20
41.64840047750406
 10
21.463552682237683
 20
41.67682626391101
 10
20.463552682237683
 20
42.176582897813894
 10
20.419337013649944
 20
42.19984263261022
 10
19.419337013649944
 20
42.75277213097038
 10
19.39075682595323
 20
42.769090654595125
 10
18.39075682595323
 20
43.358392534400714
 10
18.376757440687904
 20
43.36677113404991
 10
16.383728653911085
 20
44.57807149306525
 10
15.404935022652754
 20
45.15487641990753
 10
14.44120269850674
 20
45.68775245045105
 10
13.493710118333567
 20
46.161268152966365
 10
12.563611933974878
 20
46.56251150241495
 10
11.651402830182771
 20
46.88172390125215
 10
10.756057318999984
 20
47.11257554347473
 10
9.87422253148781
 20
47.251819869116
 10
9.0
 20
47.298304785288295
 10
8.12577746851219
 20
47.251819869116
 10
7.2439426810000205
 20
47.11257554347473
 10
6.348597169817226
 20
46.88172390125215
 10
5.436388066025118
 20
46.56251150241495
 10
4.506289881666438
 20
46.161268152966365
 10
3.5587973014932706
 20
45.68775245045106
 10
2.5950649773472385
 20
45.154876419907524
 10
1.6162713460890017
 20
44.57807149306531
 10
0.6232425593120977
 20
43.974539755884166
 10
-0.6232425593120977
 20
46.025460244115834
  0
LWPOLYLINE
  5
38
330
17
100
AcDbEntity
  8
PATH_CROSS
100
AcDbPolyline
 90
4
 70
1
 10
53.8
 20
60.0
 10
56.2
 20
60.0
 10
56.2
 20
0.0
 10
53.8
 20
0.0
  0
LWPOLYLINE
  5
3A
330
17
100
AcDbEntity
  8
SEWER
100
AcDbPolyline
 90
4
 70
1
 10
89.4
 20
0.0
 10
89.4
 20
60.0
 10
88.0
 20
60.0
 10
88.0
 20
0.0
  0
POINT
  5
3C
330
17
100
AcDbEntity
  8
СПИРЕЯ СЕРАЯ
100
AcDbPoint
 10
52.8
 20
0.6
 30
0.0
  0
POINT
  5
3D
330
17
100
AcDbEntity
  8
СПИРЕЯ СЕРАЯ
100
AcDbPoint
 10
52.8
 20
1.7999999999999998
 30
0.0
  0
POINT
  5
3E
330
17
100
AcDbEntity
  8
СПИРЕЯ СЕРАЯ
100
AcDbPoint
 10
52.8
 20
3.0
 30
0.0
  0
POINT
  5
3F
330
17
100
AcDbEntity
  8
СПИРЕЯ СЕРАЯ
100
AcDbPoint
 10
52.8
 20
4.2
 30
0.0
  0
POINT
  5
40
330
17
100
AcDbEntity
  8
СПИРЕЯ СЕРАЯ
100
AcDbPoint
 10
52.8
 20
5.4
 30
0.0
  0
POINT
  5
41
330
17
100
AcDbEntity
  8
СПИРЕЯ СЕРАЯ
100
AcDbPoint
 10
52.8
 20
6.6000000000000005
 30
0.0
  0
POINT
  5
42
330
17
100
AcDbEntity
  8
СПИРЕЯ СЕРАЯ
100
AcDbPoint
 10
52.8
 20
7.800000000000001
 30
0.0
  0
POINT
  5
43
330
17
100
AcDbEntity
  8
СПИРЕЯ СЕРАЯ
100
AcDbPoint
 10
52.8
 20
9.0
 30
0.0
  0
POINT
  5
44
330
17
100
AcDbEntity
  8
СПИРЕЯ СЕРАЯ
100
AcDbPoint
 10
52.8
 20
10.2
 30
0.0
  0
POINT
  5
45
330
17
100
AcDbEntity
  8
СПИРЕЯ СЕРАЯ
100
AcDbPoint
 10
52.8
 20
11.399999999999999
 30
0.0
  0
POINT
  5
46
330
17
100
AcDbEntity
  8
СПИРЕЯ СЕРАЯ
100
AcDbPoint
 10
52.8
 20
12.599999999999998
 30
0.0
  0
POINT
  5
47
330
17
100
AcDbEntity
  8
СПИРЕЯ СЕРАЯ
100
AcDbPoint
 10
52.8
 20
18.599999999999994
 30
0.0
  0
POINT
  5
48
330
17
100
AcDbEntity
  8
СПИРЕЯ СЕРАЯ
100
AcDbPoint
 10
52.8
 20
19.799999999999994
 30
0.0
  0
POINT
  5
49
330
17
100
AcDbEntity
  8
СПИРЕЯ СЕРАЯ
100
AcDbPoint
 10
52.8
 20
20.999999999999993
 30
0.0
  0
POINT
  5
4A
330
17
100
AcDbEntity
  8
СПИРЕЯ СЕРАЯ
100
AcDbPoint
 10
52.8
 20
22.199999999999992
 30
0.0
  0
POINT
  5
4B
330
17
100
AcDbEntity
  8
СПИРЕЯ СЕРАЯ
100
AcDbPoint
 10
52.8
 20
23.39999999999999
 30
0.0
  0
POINT
  5
4C
330
17
100
AcDbEntity
  8
СПИРЕЯ СЕРАЯ
100
AcDbPoint
 10
52.8
 20
24.59999999999999
 30
0.0
  0
POINT
  5
4D
330
17
100
AcDbEntity
  8
СПИРЕЯ СЕРАЯ
100
AcDbPoint
 10
52.8
 20
25.79999999999999
 30
0.0
  0
POINT
  5
4E
330
17
100
AcDbEntity
  8
СПИРЕЯ СЕРАЯ
100
AcDbPoint
 10
52.8
 20
26.99999999999999
 30
0.0
  0
POINT
  5
4F
330
17
100
AcDbEntity
  8
СПИРЕЯ СЕРАЯ
100
AcDbPoint
 10
52.8
 20
28.19999999999999
 30
0.0
  0
POINT
  5
50
330
17
100
AcDbEntity
  8
СПИРЕЯ СЕРАЯ
100
AcDbPoint
 10
52.8
 20
29.399999999999988
 30
0.0
  0
POINT
  5
51
330
17
100
AcDbEntity
  8
СПИРЕЯ СЕРАЯ
100
AcDbPoint
 10
52.8
 20
30.599999999999987
 30
0.0
  0
POINT
  5
52
330
17
100
AcDbEntity
  8
СПИРЕЯ СЕРАЯ
100
AcDbPoint
 10
52.8
 20
31.79999999999999
 30
0.0
  0
POINT
  5
53
330
17
100
AcDbEntity
  8
СПИРЕЯ СЕРАЯ
100
AcDbPoint
 10
52.8
 20
32.999999999999986
 30
0.0
  0
POINT
  5
54
330
17
100
AcDbEntity
  8
СПИРЕЯ СЕРАЯ
100
AcDbPoint
 10
52.8
 20
34.19999999999999
 30
0.0
  0
POINT
  5
55
330
17
100
AcDbEntity
  8
СПИРЕЯ СЕРАЯ
100
AcDbPoint
 10
52.8
 20
35.39999999999999
 30
0.0
  0
POINT
  5
56
330
17
100
AcDbEntity
  8
СПИРЕЯ СЕРАЯ
100
AcDbPoint
 10
52.8
 20
36.599999999999994
 30
0.0
  0
POINT
  5
57
330
17
100
AcDbEntity
  8
СПИРЕЯ СЕРАЯ
100
AcDbPoint
 10
52.8
 20
37.8
 30
0.0
  0
POINT
  5
58
330
17
100
AcDbEntity
  8
СПИРЕЯ СЕРАЯ
100
AcDbPoint
 10
52.8
 20
39.0
 30
0.0
  0
POINT
  5
59
330
17
100
AcDbEntity
  8
СПИРЕЯ СЕРАЯ
100
AcDbPoint
 10
52.8
 20
40.2
 30
0.0
  0
POINT
  5
5A
330
17
100
AcDbEntity
  8
СПИРЕЯ СЕРАЯ
100
AcDbPoint
 10
52.8
 20
41.400000000000006
 30
0.0
  0
POINT
  5
5B
330
17
100
AcDbEntity
  8
СПИРЕЯ СЕРАЯ
100
AcDbPoint
 10
52.8
 20
42.60000000000001
 30
0.0
  0
POINT
  5
5C
330
17
100
AcDbEntity
  8
СПИРЕЯ СЕРАЯ
100
AcDbPoint
 10
52.8
 20
48.60000000000002
 30
0.0
  0
POINT
  5
5D
330
17
100
AcDbEntity
  8
СПИРЕЯ СЕРАЯ
100
AcDbPoint
 10
52.8
 20
49.800000000000026
 30
0.0
  0
POINT
  5
5E
330
17
100
AcDbEntity
  8
СПИРЕЯ СЕРАЯ
100
AcDbPoint
 10
52.8
 20
51.00000000000003
 30
0.0
  0
POINT
  5
5F
330
17
100
AcDbEntity
  8
СПИРЕЯ СЕРАЯ
100
AcDbPoint
 10
52.8
 20
52.20000000000003
 30
0.0
  0
POINT
  5
60
330
17
100
AcDbEntity
  8
СПИРЕЯ СЕРАЯ
100
AcDbPoint
 10
52.8
 20
53.400000000000034
 30
0.0
  0
POINT
  5
61
330
17
100
AcDbEntity
  8
СПИРЕЯ СЕРАЯ
100
AcDbPoint
 10
52.8
 20
54.60000000000004
 30
0.0
  0
POINT
  5
62
330
17
100
AcDbEntity
  8
СПИРЕЯ СЕРАЯ
100
AcDbPoint
 10
52.8
 20
55.80000000000004
 30
0.0
  0
POINT
  5
63
330
17
100
AcDbEntity
  8
СПИРЕЯ СЕРАЯ
100
AcDbPoint
 10
52.8
 20
57.00000000000004
 30
0.0
  0
POINT
  5
64
330
17
100
AcDbEntity
  8
СПИРЕЯ СЕРАЯ
100
AcDbPoint
 10
52.8
 20
58.200000000000045
 30
0.0
  0
POINT
  5
65
330
17
100
AcDbEntity
  8
СПИРЕЯ СЕРАЯ
100
AcDbPoint
 10
52.8
 20
59.40000000000005
 30
0.0
  0
POINT
  5
66
330
17
100
AcDbEntity
  8
СПИРЕЯ СЕРАЯ
100
AcDbPoint
 10
57.2
 20
0.6
 30
0.0
  0
POINT
  5
67
330
17
100
AcDbEntity
  8
СПИРЕЯ СЕРАЯ
100
AcDbPoint
 10
57.2
 20
1.7999999999999998
 30
0.0
  0
POINT
  5
68
330
17
100
AcDbEntity
  8
СПИРЕЯ СЕРАЯ
100
AcDbPoint
 10
57.2
 20
3.0
 30
0.0
  0
POINT
  5
69
330
17
100
AcDbEntity
  8
СПИРЕЯ СЕРАЯ
100
AcDbPoint
 10
57.2
 20
4.2
 30
0.0
  0
POINT
  5
6A
330
17
100
AcDbEntity
  8
СПИРЕЯ СЕРАЯ
100
AcDbPoint
 10
57.2
 20
5.4
 30
0.0
  0
POINT
  5
6B
330
17
100
AcDbEntity
  8
СПИРЕЯ СЕРАЯ
100
AcDbPoint
 10
57.2
 20
6.6000000000000005
 30
0.0
  0
POINT
  5
6C
330
17
100
AcDbEntity
  8
СПИРЕЯ СЕРАЯ
100
AcDbPoint
 10
57.2
 20
7.800000000000001
 30
0.0
  0
POINT
  5
6D
330
17
100
AcDbEntity
  8
СПИРЕЯ СЕРАЯ
100
AcDbPoint
 10
57.2
 20
9.0
 30
0.0
  0
POINT
  5
6E
330
17
100
AcDbEntity
  8
СПИРЕЯ СЕРАЯ
100
AcDbPoint
 10
57.2
 20
10.2
 30
0.0
  0
POINT
  5
6F
330
17
100
AcDbEntity
  8
СПИРЕЯ СЕРАЯ
100
AcDbPoint
 10
57.2
 20
16.199999999999996
 30
0.0
  0
POINT
  5
70
330
17
100
AcDbEntity
  8
СПИРЕЯ СЕРАЯ
100
AcDbPoint
 10
57.2
 20
17.399999999999995
 30
0.0
  0
POINT
  5
71
330
17
100
AcDbEntity
  8
СПИРЕЯ СЕРАЯ
100
AcDbPoint
 10
57.2
 20
18.599999999999994
 30
0.0
  0
POINT
  5
72
330
17
100
AcDbEntity
  8
СПИРЕЯ СЕРАЯ
100
AcDbPoint
 10
57.2
 20
19.799999999999994
 30
0.0
  0
POINT
  5
73
330
17
100
AcDbEntity
  8
СПИРЕЯ СЕРАЯ
100
AcDbPoint
 10
57.2
 20
20.999999999999993
 30
0.0
  0
POINT
  5
74
330
17
100
AcDbEntity
  8
СПИРЕЯ СЕРАЯ
100
AcDbPoint
 10
57.2
 20
22.199999999999992
 30
0.0
  0
POINT
  5
75
330
17
100
AcDbEntity
  8
СПИРЕЯ СЕРАЯ
100
AcDbPoint
 10
57.2
 20
23.39999999999999
 30
0.0
  0
POINT
  5
76
330
17
100
AcDbEntity
  8
СПИРЕЯ СЕРАЯ
100
AcDbPoint
 10
57.2
 20
24.59999999999999
 30
0.0
  0
POINT
  5
77
330
17
100
AcDbEntity
  8
СПИРЕЯ СЕРАЯ
100
AcDbPoint
 10
57.2
 20
25.79999999999999
 30
0.0
  0
POINT
  5
78
330
17
100
AcDbEntity
  8
СПИРЕЯ СЕРАЯ
100
AcDbPoint
 10
57.2
 20
26.99999999999999
 30
0.0
  0
POINT
  5
79
330
17
100
AcDbEntity
  8
СПИРЕЯ СЕРАЯ
100
AcDbPoint
 10
57.2
 20
28.19999999999999
 30
0.0
  0
POINT
  5
7A
330
17
100
AcDbEntity
  8
СПИРЕЯ СЕРАЯ
100
AcDbPoint
 10
57.2
 20
29.399999999999988
 30
0.0
  0
POINT
  5
7B
330
17
100
AcDbEntity
  8
СПИРЕЯ СЕРАЯ
100
AcDbPoint
 10
57.2
 20
30.599999999999987
 30
0.0
  0
POINT
  5
7C
330
17
100
AcDbEntity
  8
СПИРЕЯ СЕРАЯ
100
AcDbPoint
 10
57.2
 20
31.79999999999999
 30
0.0
  0
POINT
  5
7D
330
17
100
AcDbEntity
  8
СПИРЕЯ СЕРАЯ
100
AcDbPoint
 10
57.2
 20
32.999999999999986
 30
0.0
  0
POINT
  5
7E
330
17
100
AcDbEntity
  8
СПИРЕЯ СЕРАЯ
100
AcDbPoint
 10
57.2
 20
34.19999999999999
 30
0.0
  0
POINT
  5
7F
330
17
100
AcDbEntity
  8
СПИРЕЯ СЕРАЯ
100
AcDbPoint
 10
57.2
 20
35.39999999999999
 30
0.0
  0
POINT
  5
80
330
17
100
AcDbEntity
  8
СПИРЕЯ СЕРАЯ
100
AcDbPoint
 10
57.2
 20
36.599999999999994
 30
0.0
  0
POINT
  5
81
330
17
100
AcDbEntity
  8
СПИРЕЯ СЕРАЯ
100
AcDbPoint
 10
57.2
 20
37.8
 30
0.0
  0
POINT
  5
82
330
17
100
AcDbEntity
  8
СПИРЕЯ СЕРАЯ
100
AcDbPoint
 10
57.2
 20
39.0
 30
0.0
  0
POINT
  5
83
330
17
100
AcDbEntity
  8
СПИРЕЯ СЕРАЯ
100
AcDbPoint
 10
57.2
 20
40.2
 30
0.0
  0
POINT
  5
84
330
17
100
AcDbEntity
  8
СПИРЕЯ СЕРАЯ
100
AcDbPoint
 10
57.2
 20
46.20000000000002
 30
0.0
  0
POINT
  5
85
330
17
100
AcDbEntity
  8
СПИРЕЯ СЕРАЯ
100
AcDbPoint
 10
57.2
 20
47.40000000000002
 30
0.0
  0
POINT
  5
86
330
17
100
AcDbEntity
  8
СПИРЕЯ СЕРАЯ
100
AcDbPoint
 10
57.2
 20
48.60000000000002
 30
0.0
  0
POINT
  5
87
330
17
100
AcDbEntity
  8
СПИРЕЯ СЕРАЯ
100
AcDbPoint
 10
57.2
 20
49.800000000000026
 30
0.0
  0
POINT
  5
88
330
17
100
AcDbEntity
  8
СПИРЕЯ СЕРАЯ
100
AcDbPoint
 10
57.2
 20
51.00000000000003
 30
0.0
  0
POINT
  5
89
330
17
100
AcDbEntity
  8
СПИРЕЯ СЕРАЯ
100
AcDbPoint
 10
57.2
 20
52.20000000000003
 30
0.0
  0
POINT
  5
8A
330
17
100
AcDbEntity
  8
СПИРЕЯ СЕРАЯ
100
AcDbPoint
 10
57.2
 20
53.400000000000034
 30
0.0
  0
POINT
  5
8B
330
17
100
AcDbEntity
  8
СПИРЕЯ СЕРАЯ
100
AcDbPoint
 10
57.2
 20
54.60000000000004
 30
0.0
  0
POINT
  5
8C
330
17
100
AcDbEntity
  8
СПИРЕЯ СЕРАЯ
100
AcDbPoint
 10
57.2
 20
55.80000000000004
 30
0.0
  0
POINT
  5
8D
330
17
100
AcDbEntity
  8
СПИРЕЯ СЕРАЯ
100
AcDbPoint
 10
57.2
 20
57.00000000000004
 30
0.0
  0
POINT
  5
8E
330
17
100
AcDbEntity
  8
СПИРЕЯ СЕРАЯ
100
AcDbPoint
 10
57.2
 20
58.200000000000045
 30
0.0
  0
POINT
  5
8F
330
17
100
AcDbEntity
  8
СПИРЕЯ СЕРАЯ
100
AcDbPoint
 10
57.2
 20
59.40000000000005
 30
0.0
  0
POINT
  5
91
330
17
100
AcDbEntity
  8
ДЕРЕН КРОВАВО-КРАСНЫЙ
100
AcDbPoint
 10
0.9709526717708095
 20
5.153949556883498
 30
0.0
  0
POINT
  5
92
330
17
100
AcDbEntity
  8
ДЕРЕН КРОВАВО-КРАСНЫЙ
100
AcDbPoint
 10
2.0757268773216895
 20
5.8131234492158566
 30
0.0
  0
POINT
  5
93
330
17
100
AcDbEntity
  8
ДЕРЕН КРОВАВО-КРАСНЫЙ
100
AcDbPoint
 10
3.183335184149268
 20
6.437283241724416
 30
0.0
  0
POINT
  5
94
330
17
100
AcDbEntity
  8
ДЕРЕН КРОВАВО-КРАСНЫЙ
100
AcDbPoint
 10
4.301927676379224
 20
7.006603415979721
 30
0.0
  0
POINT
  5
95
330
17
100
AcDbEntity
  8
ДЕРЕН КРОВАВО-КРАСНЫЙ
100
AcDbPoint
 10
5.441669776402831
 20
7.488374557867431
 30
0.0
  0
POINT
  5
96
330
17
100
AcDbEntity
  8
ДЕРЕН КРОВАВО-КРАСНЫЙ
100
AcDbPoint
 10
6.602541120188028
 20
7.860305256631309
 30
0.0
  0
POINT
  5
97
330
17
100
AcDbEntity
  8
ДЕРЕН КРОВАВО-КРАСНЫЙ
100
AcDbPoint
 10
7.780217926108105
 20
8.10232854012847
 30
0.0
  0
POINT
  5
98
330
17
100
AcDbEntity
  8
ДЕРЕН КРОВАВО-КРАСНЫЙ
100
AcDbPoint
 10
8.966573993556835
 20
8.198063174101078
 30
0.0
  0
POINT
  5
99
330
17
100
AcDbEntity
  8
ДЕРЕН КРОВАВО-КРАСНЫЙ
100
AcDbPoint
 10
10.153498936963446
 20
8.112922568176003
 30
0.0
  0
POINT
  5
9A
330
17
100
AcDbEntity
  8
ДЕРЕН КРОВАВО-КРАСНЫЙ
100
AcDbPoint
 10
11.3313633835975
 20
7.877324075867855
 30
0.0
  0
POINT
  5
9B
330
17
100
AcDbEntity
  8
ДЕРЕН КРОВАВО-КРАСНЫЙ
100
AcDbPoint
 10
12.49313241570448
 20
7.511098391110512
 30
0.0
  0
POINT
  5
9C
330
17
100
AcDbEntity
  8
ДЕРЕН КРОВАВО-КРАСНЫЙ
100
AcDbPoint
 10
13.63484351989772
 20
7.036318675967469
 30
0.0
  0
POINT
  5
9D
330
17
100
AcDbEntity
  8
ДЕРЕН КРОВАВО-КРАСНЫЙ
100
AcDbPoint
 10
14.754770261818528
 20
6.471542863481992
 30
0.0
  0
POINT
  5
9E
330
17
100
AcDbEntity
  8
ДЕРЕН КРОВАВО-КРАСНЫЙ
100
AcDbPoint
 10
15.862611922638838
 20
5.849468466373848
 30
0.0
  0
POINT
  5
9F
330
17
100
AcDbEntity
  8
ДЕРЕН КРОВАВО-КРАСНЫЙ
100
AcDbPoint
 10
16.96700279831258
 20
5.191658518133212
 30
0.0
  0
POINT
  5
A0
330
17
100
AcDbEntity
  8
ДЕРЕН КРОВАВО-КРАСНЫЙ
100
AcDbPoint
 10
18.07742557595458
 20
4.5167781541024254
 30
0.0
  0
POINT
  5
A1
330
17
100
AcDbEntity
  8
ДЕРЕН КРОВАВО-КРАСНЫЙ
100
AcDbPoint
 10
19.203475140208283
 20
3.843745836534562
 30
0.0
  0
POINT
  5
A2
330
17
100
AcDbEntity
  8
ДЕРЕН КРОВАВО-КРАСНЫЙ
100
AcDbPoint
 10
20.359092432534794
 20
3.1902607024958645
 30
0.0
  0
POINT
  5
A3
330
17
100
AcDbEntity
  8
ДЕРЕН КРОВАВО-КРАСНЫЙ
100
AcDbPoint
 10
21.555318213229732
 20
2.5783453238055705
 30
0.0
  0
POINT
  5
A4
330
17
100
AcDbEntity
  8
ДЕРЕН КРОВАВО-КРАСНЫЙ
100
AcDbPoint
 10
22.805126807406133
 20
2.039814835804621
 30
0.0
  0
POINT
  5
A5
330
17
100
AcDbEntity
  8
ДЕРЕН КРОВАВО-КРАСНЫЙ
100
AcDbPoint
 10
24.115703003372644
 20
1.612993102128311
 30
0.0
  0
POINT
  5
A6
330
17
100
AcDbEntity
  8
ДЕРЕН КРОВАВО-КРАСНЫЙ
100
AcDbPoint
 10
25.479351706599516
 20
1.3255091631953926
 30
0.0
  0
POINT
  5
A7
330
17
100
AcDbEntity
  8
ДЕРЕН КРОВАВО-КРАСНЫЙ
100
AcDbPoint
 10
26.88104466611225
 20
1.2058831528548017
 30
0.0
  0
POINT
  5
A8
330
17
100
AcDbEntity
  8
ДЕРЕН КРОВАВО-КРАСНЫЙ
100
AcDbPoint
 10
28.285785149763065
 20
1.2888067933062644
 30
0.0
  0
POINT
  5
A9
330
17
100
AcDbEntity
  8
ДЕРЕН КРОВАВО-КРАСНЫЙ
100
AcDbPoint
 10
29.659327319017525
 20
1.5549119863362102
 30
0.0
  0
POINT
  5
AA
330
17
100
AcDbEntity
  8
ДЕРЕН КРОВАВО-КРАСНЫЙ
100
AcDbPoint
 10
30.976022148205153
 20
1.9629583863866755
 30
0.0
  0
POINT
  5
AB
330
17
100
AcDbEntity
  8
ДЕРЕН КРОВАВО-КРАСНЫЙ
100
AcDbPoint
 10
32.236866911615664
 20
2.481374544842353
 30
0.0
  0
POINT
  5
AC
330
17
100
AcDbEntity
  8
ДЕРЕН КРОВАВО-КРАСНЫЙ
100
AcDbPoint
 10
33.442332361852316
 20
3.0805715050031344
 30
0.0
  0
POINT
  5
AD
330
17
100
AcDbEntity
  8
ДЕРЕН КРОВАВО-КРАСНЫЙ
100
AcDbPoint
 10
34.60322059583535
 20
3.729855138930913
 30
0.0
  0
POINT
  5
AE
330
17
100
AcDbEntity
  8
ДЕРЕН КРОВАВО-КРАСНЫЙ
100
AcDbPoint
 10
35.73379018964983
 20
4.402042397182428
 30
0.0
  0
POINT
  5
AF
330
17
100
AcDbEntity
  8
ДЕРЕН КРОВАВО-КРАСНЫЙ
100
AcDbPoint
 10
36.845878638303944
 20
5.077933483936089
 30
0.0
  0
POINT
  5
B0
330
17
100
AcDbEntity
  8
ДЕРЕН КРОВАВО-КРАСНЫЙ
100
AcDbPoint
 10
37.95188370211432
 20
5.740137482520181
 30
0.0
  0
POINT
  5
B1
330
17
100
AcDbEntity
  8
ДЕРЕН КРОВАВО-КРАСНЫЙ
100
AcDbPoint
 10
39.05953509336085
 20
6.368783392969528
 30
0.0
  0
POINT
  5
B2
330
17
100
AcDbEntity
  8
ДЕРЕН КРОВАВО-КРАСНЫЙ
100
AcDbPoint
 10
40.17695159946375
 20
6.943986637739796
 30
0.0
  0
POINT
  5
B3
330
17
100
AcDbEntity
  8
ДЕРЕН КРОВАВО-КРАСНЫЙ
100
AcDbPoint
 10
41.31125266820793
 20
7.442987417739481
 30
0.0
  0
POINT
  5
B4
330
17
100
AcDbEntity
  8
ДЕРЕН КРОВАВО-КРАСНЫЙ
100
AcDbPoint
 10
42.470332234977825
 20
7.826357240520571
 30
0.0
  0
POINT
  5
B5
330
17
100
AcDbEntity
  8
ДЕРЕН КРОВАВО-КРАСНЫЙ
100
AcDbPoint
 10
43.64762204163014
 20
8.081275150513402
 30
0.0
  0
POINT
  5
B6
330
17
100
AcDbEntity
  8
ДЕРЕН КРОВАВО-КРАСНЫЙ
100
AcDbPoint
 10
44.832867140418806
 20
8.190436962765533
 30
0.0
  0
POINT
  5
B7
330
17
100
AcDbEntity
  8
ДЕРЕН КРОВАВО-КРАСНЫЙ
100
AcDbPoint
 10
46.02095716519749
 20
8.134246313868482
 30
0.0
  0
POINT
  5
B8
330
17
100
AcDbEntity
  8
ДЕРЕН КРОВАВО-КРАСНЫЙ
100
AcDbPoint
 10
47.19791382499357
 20
7.911766600927607
 30
0.0
  0
POINT
  5
B9
330
17
100
AcDbEntity
  8
ДЕРЕН КРОВАВО-КРАСНЫЙ
100
AcDbPoint
 10
48.36275672078477
 20
7.556607119206422
 30
0.0
  0
POINT
  5
BA
330
17
100
AcDbEntity
  8
ДЕРЕН КРОВАВО-КРАСНЫЙ
100
AcDbPoint
 10
49.50643467522654
 20
7.09155507871448
 30
0.0
  0
POINT
  5
BB
330
17
100
AcDbEntity
  8
ДЕРЕН КРОВАВО-КРАСНЫЙ
100
AcDbPoint
 10
50.63099183975091
 20
6.540081666814458
 30
0.0
  0
POINT
  5
BC
330
17
100
AcDbEntity
  8
ДЕРЕН КРОВАВО-КРАСНЫЙ
100
AcDbPoint
 10
51.739294511539875
 20
5.922166783753275
 30
0.0
  0
POINT
  5
BD
330
17
100
AcDbEntity
  8
ДЕРЕН КРОВАВО-КРАСНЫЙ
100
AcDbPoint
 10
58.66055053995287
 20
2.0944550605516126
 30
0.0
  0
POINT
  5
BE
330
17
100
AcDbEntity
  8
ДЕРЕН КРОВАВО-КРАСНЫЙ
100
AcDbPoint
 10
59.964470565640134
 20
1.6521891370552626
 30
0.0
  0
POINT
  5
BF
330
17
100
AcDbEntity
  8
ДЕРЕН КРОВАВО-КРАСНЫЙ
100
AcDbPoint
 10
61.3240939751065
 20
1.3499951264267565
 30
0.0
  0
POINT
  5
C0
330
17
100
AcDbEntity
  8
ДЕРЕН КРОВАВО-КРАСНЫЙ
100
AcDbPoint
 10
62.72244414905163
 20
1.213896793462935
 30
0.0
  0
POINT
  5
C1
330
17
100
AcDbEntity
  8
ДЕРЕН КРОВАВО-КРАСНЫЙ
100
AcDbPoint
 10
64.12917060496711
 20
1.2645649600252051
 30
0.0
  0
POINT
  5
C2
330
17
100
AcDbEntity
  8
ДЕРЕН КРОВАВО-КРАСНЫЙ
100
AcDbPoint
 10
65.50672881797796
 20
1.5156737496068828
 30
0.0
  0
POINT
  5
C3
330
17
100
AcDbEntity
  8
ДЕРЕН КРОВАВО-КРАСНЫЙ
100
AcDbPoint
 10
66.83008877911877
 20
1.911822684696024
 30
0.0
  0
POINT
  5
C4
330
17
100
AcDbEntity
  8
ДЕРЕН КРОВАВО-КРАСНЫЙ
100
AcDbPoint
 10
68.09648428698502
 20
2.420684061684331
 30
0.0
  0
POINT
  5
C5
330
17
100
AcDbEntity
  8
ДЕРЕН КРОВАВО-КРАСНЫЙ
100
AcDbPoint
 10
69.30859161070998
 20
3.010024487465092
 30
0.0
  0
POINT
  5
C6
330
17
100
AcDbEntity
  8
ДЕРЕН КРОВАВО-КРАСНЫЙ
100
AcDbPoint
 10
70.4743427993891
 20
3.6539418287947854
 30
0.0
  0
POINT
  5
C7
330
17
100
AcDbEntity
  8
ДЕРЕН КРОВАВО-КРАСНЫЙ
100
AcDbPoint
 10
71.60735351229626
 20
4.325203200850748
 30
0.0
  0
POINT
  5
C8
330
17
100
AcDbEntity
  8
ДЕРЕН КРОВАВО-КРАСНЫЙ
100
AcDbPoint
 10
72.72080460483703
 20
5.001917410988648
 30
0.0
  0
POINT
  5
C9
330
17
100
AcDbEntity
  8
ДЕРЕН КРОВАВО-КРАСНЫЙ
100
AcDbPoint
 10
73.82590890613538
 20
5.665900312791905
 30
0.0
  0
POINT
  5
CA
330
17
100
AcDbEntity
  8
ДЕРЕН КРОВАВО-КРАСНЫЙ
100
AcDbPoint
 10
74.93524390474906
 20
6.300045737304713
 30
0.0
  0
POINT
  5
CB
330
17
100
AcDbEntity
  8
ДЕРЕН КРОВАВО-КРАСНЫЙ
100
AcDbPoint
 10
76.05195116216962
 20
6.881418170400628
 30
0.0
  0
POINT
  5
CC
330
17
100
AcDbEntity
  8
ДЕРЕН КРОВАВО-КРАСНЫЙ
100
AcDbPoint
 10
77.18397188523707
 20
7.3895617220353245
 30
0.0
  0
POINT
  5
CD
330
17
100
AcDbEntity
  8
ДЕРЕН КРОВАВО-КРАСНЫЙ
100
AcDbPoint
 10
78.33809582699017
 20
7.792527924570199
 30
0.0
  0
POINT
  5
CE
330
17
100
AcDbEntity
  8
ДЕРЕН КРОВАВО-КРАСНЫЙ
100
AcDbPoint
 10
79.51327934331259
 20
8.060109981776028
 30
0.0
  0
POINT
  5
CF
330
17
100
AcDbEntity
  8
ДЕРЕН КРОВАВО-КРАСНЫЙ
100
AcDbPoint
 10
80.69914898859652
 20
8.18300420231652
 30
0.0
  0
POINT
  5
D0
330
17
100
AcDbEntity
  8
ДЕРЕН КРОВАВО-КРАСНЫЙ
100
AcDbPoint
 10
81.88810847783995
 20
8.15259099024752
 30
0.0
  0
POINT
  5
D1
330
17
100
AcDbEntity
  8
ДЕРЕН КРОВАВО-КРАСНЫЙ
100
AcDbPoint
 10
83.0670817582759
 20
7.945687834244436
 30
0.0
  0
POINT
  5
D2
330
17
100
AcDbEntity
  8
ДЕРЕН КРОВАВО-КРАСНЫЙ
100
AcDbPoint
 10
84.23052384722783
 20
7.602853733804101
 30
0.0
  0
POINT
  5
D3
330
17
100
AcDbEntity
  8
ДЕРЕН КРОВАВО-КРАСНЫЙ
100
AcDbPoint
 10
85.3780471670945
 20
7.146841201913154
 30
0.0
  0
POINT
  5
D4
330
17
100
AcDbEntity
  8
ДЕРЕН КРОВАВО-КРАСНЫЙ
100
AcDbPoint
 10
86.50446921625895
 20
6.603403839052031
 30
0.0
  0
POINT
  5
D5
330
17
100
AcDbEntity
  8
ДЕРЕН КРОВАВО-КРАСНЫЙ
100
AcDbPoint
 10
87.61598364122074
 20
5.994876211356915
 30
0.0
  0
POINT
  5
D6
330
17
100
AcDbEntity
  8
ДЕРЕН КРОВАВО-КРАСНЫЙ
100
AcDbPoint
 10
89.82727750902075
 20
4.66881029999731
 30
0.0
  0
POINT
  5
D7
330
17
100
AcDbEntity
  8
ДЕРЕН КРОВАВО-КРАСНЫЙ
100
AcDbPoint
 10
90.94960889004018
 20
3.9933495960554994
 30
0.0
  0
POINT
  5
D8
330
17
100
AcDbEntity
  8
ДЕРЕН КРОВАВО-КРАСНЫЙ
100
AcDbPoint
 10
92.09698343510617
 20
3.3351557888052477
 30
0.0
  0
POINT
  5
D9
330
17
100
AcDbEntity
  8
ДЕРЕН КРОВАВО-КРАСНЫЙ
100
AcDbPoint
 10
93.28162631095286
 20
2.7149273225557384
 30
0.0
  0
POINT
  5
DA
330
17
100
AcDbEntity
  8
ДЕРЕН КРОВАВО-КРАСНЫЙ
100
AcDbPoint
 10
94.5184760893711
 20
2.1555059753323347
 30
0.0
  0
POINT
  5
DB
330
17
100
AcDbEntity
  8
ДЕРЕН КРОВАВО-КРАСНЫЙ
100
AcDbPoint
 10
95.81326784079498
 20
1.691503343001751
 30
0.0
  0
POINT
  5
DC
330
17
100
AcDbEntity
  8
ДЕРЕН КРОВАВО-КРАСНЫЙ
100
AcDbPoint
 10
97.16847780923548
 20
1.3746926744478842
 30
0.0
  0
POINT
  5
DD
330
17
100
AcDbEntity
  8
ДЕРЕН КРОВАВО-КРАСНЫЙ
100
AcDbPoint
 10
98.56385943579825
 20
1.222103568904517
 30
0.0
  0
POINT
  5
DE
330
17
100
AcDbEntity
  8
ДЕРЕН КРОВАВО-КРАСНЫЙ
100
AcDbPoint
 10
99.97140931929262
 20
1.2511951070339005
 30
0.0
  0
POINT
  5
DF
330
17
100
AcDbEntity
  8
ДЕРЕН КРОВАВО-КРАСНЫЙ
100
AcDbPoint
 10
101.3540839564615
 20
1.4765857916587901
 30
0.0
  0
POINT
  5
E0
330
17
100
AcDbEntity
  8
ДЕРЕН КРОВАВО-КРАСНЫЙ
100
AcDbPoint
 10
102.6868031976499
 20
1.861686457761067
 30
0.0
  0
POINT
  5
E1
330
17
100
AcDbEntity
  8
ДЕРЕН КРОВАВО-КРАСНЫЙ
100
AcDbPoint
 10
103.95608094048734
 20
2.360043558272007
 30
0.0
  0
POINT
  5
E2
330
17
100
AcDbEntity
  8
ДЕРЕН КРОВАВО-КРАСНЫЙ
100
AcDbPoint
 10
105.17333986318353
 20
2.942350354510099
 30
0.0
  0
POINT
  5
E3
330
17
100
AcDbEntity
  8
ДЕРЕН КРОВАВО-КРАСНЫЙ
100
AcDbPoint
 10
106.34466764518716
 20
3.5794248186775977
 30
0.0
  0
POINT
  5
E4
330
17
100
AcDbEntity
  8
ДЕРЕН КРОВАВО-КРАСНЫЙ
100
AcDbPoint
 10
107.48091518286535
 20
4.248366707655178
 30
0.0
  0
POINT
  5
E5
330
17
100
AcDbEntity
  8
ДЕРЕН КРОВАВО-КРАСНЫЙ
100
AcDbPoint
 10
108.59573057137005
 20
4.925901338041178
 30
0.0
  0
POINT
  5
E6
330
17
100
AcDbEntity
  8
ДЕРЕН КРОВАВО-КРАСНЫЙ
100
AcDbPoint
 10
1.1118215059257295
 20
6.17366524547898
 30
0.0
  0
POINT
  5
E7
330
17
100
AcDbEntity
  8
ДЕРЕН КРОВАВО-КРАСНЫЙ
100
AcDbPoint
 10
2.235472624550679
 20
6.827270261810198
 30
0.0
  0
POINT
  5
E8
330
17
100
AcDbEntity
  8
ДЕРЕН КРОВАВО-КРАСНЫЙ
100
AcDbPoint
 10
3.381407781216927
 20
7.440611068885341
 30
0.0
  0
POINT
  5
E9
330
17
100
AcDbEntity
  8
ДЕРЕН КРОВАВО-КРАСНЫЙ
100
AcDbPoint
 10
4.5586896080032036
 20
7.9907747257421855
 30
0.0
  0
POINT
  5
EA
330
17
100
AcDbEntity
  8
ДЕРЕН КРОВАВО-КРАСНЫЙ
100
AcDbPoint
 10
5.773390666638948
 20
8.451790747287342
 30
0.0
  0
POINT
  5
EB
330
17
100
AcDbEntity
  8
ДЕРЕН КРОВАВО-КРАСНЫЙ
100
AcDbPoint
 10
7.026878964244993
 20
8.793168440841745
 30
0.0
  0
POINT
  5
EC
330
17
100
AcDbEntity
  8
ДЕРЕН КРОВАВО-КРАСНЫЙ
100
AcDbPoint
 10
8.314377959486443
 20
8.963543512170855
 30
0.0
  0
POINT
  5
ED
330
17
100
AcDbEntity
  8
ДЕРЕН КРОВАВО-КРАСНЫЙ
100
AcDbPoint
 10
9.61254406758254
 20
8.967429277320328
 30
0.0
  0
POINT
  5
EE
330
17
100
AcDbEntity
  8
ДЕРЕН КРОВАВО-КРАСНЫЙ
100
AcDbPoint
 10
10.90083543970467
 20
8.804582550625282
 30
0.0
  0
POINT
  5
EF
330
17
100
AcDbEntity
  8
ДЕРЕН КРОВАВО-КРАСНЫЙ
100
AcDbPoint
 10
12.157535202960887
 20
8.475962089988235
 30
0.0
  0
POINT
  5
F0
330
17
100
AcDbEntity
  8
ДЕРЕН КРОВАВО-КРАСНЫЙ
100
AcDbPoint
 10
13.374115230061522
 20
8.019762645829614
 30
0.0
  0
POINT
  5
F1
330
17
100
AcDbEntity
  8
ДЕРЕН КРОВАВО-КРАСНЫЙ
100
AcDbPoint
 10
14.553130584686048
 20
7.473325954791453
 30
0.0
  0
POINT
  5
F2
330
17
100
AcDbEntity
  8
ДЕРЕН КРОВАВО-КРАСНЫЙ
100
AcDbPoint
 10
15.700484220939893
 20
6.862681611106498
 30
0.0
  0
POINT
  5
F3
330
17
100
AcDbEntity
  8
ДЕРЕН КРОВАВО-КРАСНЫЙ
100
AcDbPoint
 10
16.82513051396662
 20
6.210819538674363
 30
0.0
  0
POINT
  5
F4
330
17
100
AcDbEntity
  8
ДЕРЕН КРОВАВО-КРАСНЫЙ
100
AcDbPoint
 10
17.937462983266574
 20
5.538008036473701
 30
0.0
  0
POINT
  5
F5
330
17
100
AcDbEntity
  8
ДЕРЕН КРОВАВО-КРАСНЫЙ
100
AcDbPoint
 10
19.048773525818078
 20
4.863489047716405
 30
0.0
  0
POINT
  5
F6
330
17
100
AcDbEntity
  8
ДЕРЕН КРОВАВО-КРАСНЫЙ
100
AcDbPoint
 10
20.17142947004125
 20
4.208141087486103
 30
0.0
  0
POINT
  5
F7
330
17
100
AcDbEntity
  8
ДЕРЕН КРОВАВО-КРАСНЫЙ
100
AcDbPoint
 10
21.3159461471199
 20
3.5921038170207735
 30
0.0
  0
POINT
  5
F8
330
17
100
AcDbEntity
  8
ДЕРЕН КРОВАВО-КРАСНЫЙ
100
AcDbPoint
 10
22.491494446067925
 20
3.038213194345243
 30
0.0
  0
POINT
  5
F9
330
17
100
AcDbEntity
  8
ДЕРЕН КРОВАВО-КРАСНЫЙ
100
AcDbPoint
 10
23.704316536238778
 20
2.572380595413548
 30
0.0
  0
POINT
  5
FA
330
17
100
AcDbEntity
  8
ДЕРЕН КРОВАВО-КРАСНЫЙ
100
AcDbPoint
 10
24.95548658224238
 20
2.2225529558683172
 30
0.0
  0
POINT
  5
FB
330
17
100
AcDbEntity
  8
ДЕРЕН КРОВАВО-КРАСНЫЙ
100
AcDbPoint
 10
26.241299986555426
 20
2.040342252978619
 30
0.0
  0
POINT
  5
FC
330
17
100
AcDbEntity
  8
ДЕРЕН КРОВАВО-КРАСНЫЙ
100
AcDbPoint
 10
27.539466094651527
 20
2.0286849575301993
 30
0.0
  0
POINT
  5
FD
330
17
100
AcDbEntity
  8
ДЕРЕН КРОВАВО-КРАСНЫЙ
100
AcDbPoint
 10
28.828549843654333
 20
2.18400333959118
 30
0.0
  0
POINT
  5
FE
330
17
100
AcDbEntity
  8
ДЕРЕН КРОВАВО-КРАСНЫЙ
100
AcDbPoint
 10
30.088461072560715
 20
2.4998665673108746
 30
0.0
  0
POINT
  5
FF
330
17
100
AcDbEntity
  8
ДЕРЕН КРОВАВО-КРАСНЫЙ
100
AcDbPoint
 10
31.306920068126235
 20
2.951249434082955
 30
0.0
  0
POINT
  5
100
330
17
100
AcDbEntity
  8
ДЕРЕН КРОВАВО-КРАСНЫЙ
100
AcDbPoint
 10
32.487668950589004
 20
3.4939591593024284
 30
0.0
  0
POINT
  5
101
330
17
100
AcDbEntity
  8
ДЕРЕН КРОВАВО-КРАСНЫЙ
100
AcDbPoint
 10
33.63644106643045
 20
4.1019070395971955
 30
0.0
  0
POINT
  5
102
330
17
100
AcDbEntity
  8
ДЕРЕН КРОВАВО-КРАСНЫЙ
100
AcDbPoint
 10
34.76208253385896
 20
4.7520261681302465
 30
0.0
  0
POINT
  5
103
330
17
100
AcDbEntity
  8
ДЕРЕН КРОВАВО-КРАСНЫЙ
100
AcDbPoint
 10
35.87492596653313
 20
5.423983927052587
 30
0.0
  0
POINT
  5
104
330
17
100
AcDbEntity
  8
ДЕРЕН КРОВАВО-КРАСНЫЙ
100
AcDbPoint
 10
36.98584123099195
 20
6.099163366307361
 30
0.0
  0
POINT
  5
105
330
17
100
AcDbEntity
  8
ДЕРЕН КРОВАВО-КРАСНЫЙ
100
AcDbPoint
 10
38.107386315531805
 20
6.756447563217584
 30
0.0
  0
POINT
  5
106
330
17
100
AcDbEntity
  8
ДЕРЕН КРОВАВО-КРАСНЫЙ
100
AcDbPoint
 10
39.250484513022855
 20
7.3751812970731025
 30
0.0
  0
POINT
  5
107
330
17
100
AcDbEntity
  8
ДЕРЕН КРОВАВО-КРАСНЫЙ
100
AcDbPoint
 10
40.42429928413263
 20
7.932798885567321
 30
0.0
  0
POINT
  5
108
330
17
100
AcDbEntity
  8
ДЕРЕН КРОВАВО-КРАСНЫЙ
100
AcDbPoint
 10
41.63524240583859
 20
8.403448061885554
 30
0.0
  0
POINT
  5
109
330
17
100
AcDbEntity
  8
ДЕРЕН КРОВАВО-КРАСНЫЙ
100
AcDbPoint
 10
42.88462294829916
 20
8.759175900684456
 30
0.0
  0
POINT
  5
10A
330
17
100
AcDbEntity
  8
ДЕРЕН КРОВАВО-КРАСНЫЙ
100
AcDbPoint
 10
44.16822201362437
 20
8.955771981871907
 30
0.0
  0
POINT
  5
10B
330
17
100
AcDbEntity
  8
ДЕРЕН КРОВАВО-КРАСНЫЙ
100
AcDbPoint
 10
45.46638812172047
 20
8.975200807619276
 30
0.0
  0
POINT
  5
10C
330
17
100
AcDbEntity
  8
ДЕРЕН КРОВАВО-КРАСНЫЙ
100
AcDbPoint
 10
46.75626424760395
 20
8.827410770192364
 30
0.0
  0
POINT
  5
10D
330
17
100
AcDbEntity
  8
ДЕРЕН КРОВАВО-КРАСНЫЙ
100
AcDbPoint
 10
48.01938694216051
 20
8.52430477539003
 30
0.0
  0
POINT
  5
10E
330
17
100
AcDbEntity
  8
ДЕРЕН КРОВАВО-КРАСНЫЙ
100
AcDbPoint
 10
49.23972490619092
 20
8.077738486004492
 30
0.0
  0
POINT
  5
10F
330
17
100
AcDbEntity
  8
ДЕРЕН КРОВАВО-КРАСНЫЙ
100
AcDbPoint
 10
50.42220731649194
 20
7.5387557266037035
 30
0.0
  0
POINT
  5
110
330
17
100
AcDbEntity
  8
ДЕРЕН КРОВАВО-КРАСНЫЙ
100
AcDbPoint
 10
51.57239791192099
 20
6.933504309699127
 30
0.0
  0
POINT
  5
111
330
17
100
AcDbEntity
  8
ДЕРЕН КРОВАВО-КРАСНЫЙ
100
AcDbPoint
 10
58.35710412219731
 20
3.0961890345201226
 30
0.0
  0
POINT
  5
112
330
17
100
AcDbEntity
  8
ДЕРЕН КРОВАВО-КРАСНЫЙ
100
AcDbPoint
 10
59.56616827543839
 20
2.6207232808153487
 30
0.0
  0
POINT
  5
113
330
17
100
AcDbEntity
  8
ДЕРЕН КРОВАВО-КРАСНЫЙ
100
AcDbPoint
 10
60.81375931435594
 20
2.259095242762773
 30
0.0
  0
POINT
  5
114
330
17
100
AcDbEntity
  8
ДЕРЕН КРОВАВО-КРАСНЫЙ
100
AcDbPoint
 10
62.09514404069333
 20
2.0481137832775684
 30
0.0
  0
POINT
  5
115
330
17
100
AcDbEntity
  8
ДЕРЕН КРОВАВО-КРАСНЫЙ
100
AcDbPoint
 10
63.39331014878942
 20
2.0209134272312492
 30
0.0
  0
POINT
  5
116
330
17
100
AcDbEntity
  8
ДЕРЕН КРОВАВО-КРАСНЫЙ
100
AcDbPoint
 10
64.68397865155359
 20
2.161175120024093
 30
0.0
  0
POINT
  5
117
330
17
100
AcDbEntity
  8
ДЕРЕН КРОВАВО-КРАСНЫЙ
100
AcDbPoint
 10
65.94902556574097
 20
2.4557680802691597
 30
0.0
  0
POINT
  5
118
330
17
100
AcDbEntity
  8
ДЕРЕН КРОВАВО-КРАСНЫЙ
100
AcDbPoint
 10
67.17252974425561
 20
2.8932735939080696
 30
0.0
  0
POINT
  5
119
330
17
100
AcDbEntity
  8
ДЕРЕН КРОВАВО-КРАСНЫЙ
100
AcDbPoint
 10
68.35674568239489
 20
3.42852938749017
 30
0.0
  0
POINT
  5
11A
330
17
100
AcDbEntity
  8
ДЕРЕН КРОВАВО-КРАСНЫЙ
100
AcDbPoint
 10
69.50835475741152
 20
4.031084341004558
 30
0.0
  0
POINT
  5
11B
330
17
100
AcDbEntity
  8
ДЕРЕН КРОВАВО-КРАСНЫЙ
100
AcDbPoint
 10
70.63598657364359
 20
4.677717581739438
 30
0.0
  0
POINT
  5
11C
330
17
100
AcDbEntity
  8
ДЕРЕН КРОВАВО-КРАСНЫЙ
100
AcDbPoint
 10
71.74985193306621
 20
5.347967854105147
 30
0.0
  0
POINT
  5
11D
330
17
100
AcDbEntity
  8
ДЕРЕН КРОВАВО-КРАСНЫЙ
100
AcDbPoint
 10
72.86076719752504
 20
6.023147293359921
 30
0.0
  0
POINT
  5
11E
330
17
100
AcDbEntity
  8
ДЕРЕН КРОВАВО-КРАСНЫЙ
100
AcDbPoint
 10
73.9796216662405
 20
6.68506151124806
 30
0.0
  0
POINT
  5
11F
330
17
100
AcDbEntity
  8
ДЕРЕН КРОВАВО-КРАСНЫЙ
100
AcDbPoint
 10
75.11956124482873
 20
7.309751525260842
 30
0.0
  0
POINT
  5
120
330
17
100
AcDbEntity
  8
ДЕРЕН КРОВАВО-КРАСНЫЙ
100
AcDbPoint
 10
76.28990896026201
 20
7.874823045392436
 30
0.0
  0
POINT
  5
121
330
17
100
AcDbEntity
  8
ДЕРЕН КРОВАВО-КРАСНЫЙ
100
AcDbPoint
 10
77.49709414503819
 20
8.355105376483749
 30
0.0
  0
POINT
  5
122
330
17
100
AcDbEntity
  8
ДЕРЕН КРОВАВО-КРАСНЫЙ
100
AcDbPoint
 10
78.74289568041272
 20
8.722633613789997
 30
0.0
  0
POINT
  5
123
330
17
100
AcDbEntity
  8
ДЕРЕН КРОВАВО-КРАСНЫЙ
100
AcDbPoint
 10
80.02206606776227
 20
8.948000451572955
 30
0.0
  0
POINT
  5
124
330
17
100
AcDbEntity
  8
ДЕРЕН КРОВАВО-КРАСНЫЙ
100
AcDbPoint
 10
81.32023217585837
 20
8.982972337918227
 30
0.0
  0
POINT
  5
125
330
17
100
AcDbEntity
  8
ДЕРЕН КРОВАВО-КРАСНЫЙ
100
AcDbPoint
 10
82.6116930555032
 20
8.850238989759454
 30
0.0
  0
POINT
  5
126
330
17
100
AcDbEntity
  8
ДЕРЕН КРОВАВО-КРАСНЫЙ
100
AcDbPoint
 10
83.87816193179772
 20
8.562503063178076
 30
0.0
  0
POINT
  5
127
330
17
100
AcDbEntity
  8
ДЕРЕН КРОВАВО-КРАСНЫЙ
100
AcDbPoint
 10
85.10533458232028
 20
8.135714326179379
 30
0.0
  0
POINT
  5
128
330
17
100
AcDbEntity
  8
ДЕРЕН КРОВАВО-КРАСНЫЙ
100
AcDbPoint
 10
86.29128404829781
 20
7.604185498415974
 30
0.0
  0
POINT
  5
129
330
17
100
AcDbEntity
  8
ДЕРЕН КРОВАВО-КРАСНЫЙ
100
AcDbPoint
 10
87.44431160290205
 20
7.004327008291776
 30
0.0
  0
POINT
  5
12A
330
17
100
AcDbEntity
  8
ДЕРЕН КРОВАВО-КРАСНЫЙ
100
AcDbPoint
 10
89.68731491633272
 20
5.690040182368592
 30
0.0
  0
POINT
  5
12B
330
17
100
AcDbEntity
  8
ДЕРЕН КРОВАВО-КРАСНЫЙ
100
AcDbPoint
 10
90.79823018079155
 20
5.014860743113817
 30
0.0
  0
POINT
  5
12C
330
17
100
AcDbEntity
  8
ДЕРЕН КРОВАВО-КРАСНЫЙ
100
AcDbPoint
 10
91.91657368613279
 20
4.35209278194736
 30
0.0
  0
POINT
  5
12D
330
17
100
AcDbEntity
  8
ДЕРЕН КРОВАВО-КРАСНЫЙ
100
AcDbPoint
 10
93.05409961073164
 20
3.7229633606453025
 30
0.0
  0
POINT
  5
12E
330
17
100
AcDbEntity
  8
ДЕРЕН КРОВАВО-КРАСНЫЙ
100
AcDbPoint
 10
94.22271379832667
 20
3.1541648746950144
 30
0.0
  0
POINT
  5
12F
330
17
100
AcDbEntity
  8
ДЕРЕН КРОВАВО-КРАСНЫЙ
100
AcDbPoint
 10
95.42802001463795
 20
2.669065966217167
 30
0.0
  0
POINT
  5
130
330
17
100
AcDbEntity
  8
ДЕРЕН КРОВАВО-КРАСНЫЙ
100
AcDbPoint
 10
96.67203204646945
 20
2.295637529657243
 30
0.0
  0
POINT
  5
131
330
17
100
AcDbEntity
  8
ДЕРЕН КРОВАВО-КРАСНЫЙ
100
AcDbPoint
 10
97.94954121162786
 20
2.061140456640132
 30
0.0
  0
POINT
  5
132
330
17
100
AcDbEntity
  8
ДЕРЕН КРОВАВО-КРАСНЫЙ
100
AcDbPoint
 10
99.24715420292728
 20
2.013141896932297
 30
0.0
  0
POINT
  5
133
330
17
100
AcDbEntity
  8
ДЕРЕН КРОВАВО-КРАСНЫЙ
100
AcDbPoint
 10
100.53940745945279
 20
2.1383469004569995
 30
0.0
  0
POINT
  5
134
330
17
100
AcDbEntity
  8
ДЕРЕН КРОВАВО-КРАСНЫЙ
100
AcDbPoint
 10
101.80729829785446
 20
2.419225793374688
 30
0.0
  0
POINT
  5
135
330
17
100
AcDbEntity
  8
ДЕРЕН КРОВАВО-КРАСНЫЙ
100
AcDbPoint
 10
103.03813942038494
 20
2.8352977537331583
 30
0.0
  0
POINT
  5
136
330
17
100
AcDbEntity
  8
ДЕРЕН КРОВАВО-КРАСНЫЙ
100
AcDbPoint
 10
104.22582241420072
 20
3.3630996156778856
 30
0.0
  0
POINT
  5
137
330
17
100
AcDbEntity
  8
ДЕРЕН КРОВАВО-КРАСНЫЙ
100
AcDbPoint
 10
105.38026844839256
 20
3.9602616424118935
 30
0.0
  0
POINT
  5
138
330
17
100
AcDbEntity
  8
ДЕРЕН КРОВАВО-КРАСНЫЙ
100
AcDbPoint
 10
106.50989061342818
 20
4.603408995348605
 30
0.0
  0
POINT
  5
139
330
17
100
AcDbEntity
  8
ДЕРЕН КРОВАВО-КРАСНЫЙ
100
AcDbPoint
 10
107.62477789959925
 20
5.271951781157677
 30
0.0
  0
POINT
  5
13A
330
17
100
AcDbEntity
  8
ДЕРЕН КРОВАВО-КРАСНЫЙ
100
AcDbPoint
 10
108.73569316405806
 20
5.947131220412451
 30
0.0
  0
POINT
  5
13B
330
17
100
AcDbEntity
  8
ДЕРЕН КРОВАВО-КРАСНЫЙ
100
AcDbPoint
 10
1.267908215275223
 20
7.194220480292767
 30
0.0
  0
POINT
  5
13C
330
17
100
AcDbEntity
  8
ДЕРЕН КРОВАВО-КРАСНЫЙ
100
AcDbPoint
 10
2.4252805462910185
 20
7.846308850441873
 30
0.0
  0
POINT
  5
13D
330
17
100
AcDbEntity
  8
ДЕРЕН КРОВАВО-КРАСНЫЙ
100
AcDbPoint
 10
3.623756413422909
 20
8.455769982700136
 30
0.0
  0
POINT
  5
13E
330
17
100
AcDbEntity
  8
ДЕРЕН КРОВАВО-КРАСНЫЙ
100
AcDbPoint
 10
4.878070200427565
 20
8.985824229128706
 30
0.0
  0
POINT
  5
13F
330
17
100
AcDbEntity
  8
ДЕРЕН КРОВАВО-КРАСНЫЙ
100
AcDbPoint
 10
6.191328994483752
 20
9.406560276889536
 30
0.0
  0
POINT
  5
140
330
17
100
AcDbEntity
  8
ДЕРЕН КРОВАВО-КРАСНЫЙ
100
AcDbPoint
 10
7.557630230016609
 20
9.68676999299086
 30
0.0
  0
POINT
  5
141
330
17
100
AcDbEntity
  8
ДЕРЕН КРОВАВО-КРАСНЫЙ
100
AcDbPoint
 10
8.960348033512147
 20
9.798051060749449
 30
0.0
  0
POINT
  5
142
330
17
100
AcDbEntity
  8
ДЕРЕН КРОВАВО-КРАСНЫЙ
100
AcDbPoint
 10
10.364081714811165
 20
9.6990041845104
 30
0.0
  0
POINT
  5
143
330
17
100
AcDbEntity
  8
ДЕРЕН КРОВАВО-КРАСНЫЙ
100
AcDbPoint
 10
11.733039233844343
 20
9.426083744547434
 30
0.0
  0
POINT
  5
144
330
17
100
AcDbEntity
  8
ДЕРЕН КРОВАВО-КРАСНЫЙ
100
AcDbPoint
 10
13.04897934666479
 20
9.011443081287407
 30
0.0
  0
POINT
  5
145
330
17
100
AcDbEntity
  8
ДЕРЕН КРОВАВО-КРАСНЫЙ
100
AcDbPoint
 10
14.307050069534467
 20
8.488261634428806
 30
0.0
  0
POINT
  5
146
330
17
100
AcDbEntity
  8
ДЕРЕН КРОВАВО-КРАСНЫЙ
100
AcDbPoint
 10
15.508527698722332
 20
7.8828719272768994
 30
0.0
  0
POINT
  5
147
330
17
100
AcDbEntity
  8
ДЕРЕН КРОВАВО-КРАСНЫЙ
100
AcDbPoint
 10
16.667657024548955
 20
7.232184049525541
 30
0.0
  0
POINT
  5
148
330
17
100
AcDbEntity
  8
ДЕРЕН КРОВАВО-КРАСНЫЙ
100
AcDbPoint
 10
17.79700790376175
 20
6.559536994068963
 30
0.0
  0
POINT
  5
149
330
17
100
AcDbEntity
  8
ДЕРЕН КРОВАВО-КРАСНЫЙ
100
AcDbPoint
 10
18.908415655037384
 20
5.884058479590202
 30
0.0
  0
POINT
  5
14A
330
17
100
AcDbEntity
  8
ДЕРЕН КРОВАВО-КРАСНЫЙ
100
AcDbPoint
 10
20.014063992173327
 20
5.223218820347582
 30
0.0
  0
POINT
  5
14B
330
17
100
AcDbEntity
  8
ДЕРЕН КРОВАВО-КРАСНЫЙ
100
AcDbPoint
 10
21.121436988886636
 20
4.596969903930445
 30
0.0
  0
POINT
  5
14C
330
17
100
AcDbEntity
  8
ДЕРЕН КРОВАВО-КРАСНЫЙ
100
AcDbPoint
 10
22.239442608378347
 20
4.024711049326798
 30
0.0
  0
POINT
  5
14D
330
17
100
AcDbEntity
  8
ДЕРЕН КРОВАВО-КРАСНЫЙ
100
AcDbPoint
 10
23.37646490862393
 20
3.534329062601021
 30
0.0
  0
POINT
  5
14E
330
17
100
AcDbEntity
  8
ДЕРЕН КРОВАВО-КРАСНЫЙ
100
AcDbPoint
 10
24.536439843412758
 20
3.1566836512452823
 30
0.0
  0
POINT
  5
14F
330
17
100
AcDbEntity
  8
ДЕРЕН КРОВАВО-КРАСНЫЙ
100
AcDbPoint
 10
25.713925257424528
 20
2.908220523252351
 30
0.0
  0
POINT
  5
150
330
17
100
AcDbEntity
  8
ДЕРЕН КРОВАВО-КРАСНЫЙ
100
AcDbPoint
 10
26.899721415094707
 20
2.8057741425936173
 30
0.0
  0
POINT
  5
151
330
17
100
AcDbEntity
  8
ДЕРЕН КРОВАВО-КРАСНЫЙ
100
AcDbPoint
 10
28.08722430991088
 20
2.876438234440256
 30
0.0
  0
POINT
  5
152
330
17
100
AcDbEntity
  8
ДЕРЕН КРОВАВО-КРАСНЫЙ
100
AcDbPoint
 10
29.263348030537944
 20
3.1051379063540643
 30
0.0
  0
POINT
  5
153
330
17
100
AcDbEntity
  8
ДЕРЕН КРОВАВО-КРАСНЫЙ
100
AcDbPoint
 10
30.427941353363785
 20
3.4661574558136263
 30
0.0
  0
POINT
  5
154
330
17
100
AcDbEntity
  8
ДЕРЕН КРОВАВО-КРАСНЫЙ
100
AcDbPoint
 10
31.570636353945964
 20
3.936069304586514
 30
0.0
  0
POINT
  5
155
330
17
100
AcDbEntity
  8
ДЕРЕН КРОВАВО-КРАСНЫЙ
100
AcDbPoint
 10
32.69287928966967
 20
4.494191005645369
 30
0.0
  0
POINT
  5
156
330
17
100
AcDbEntity
  8
ДЕРЕН КРОВАВО-КРАСНЫЙ
100
AcDbPoint
 10
33.80095239113713
 20
5.114183758778925
 30
0.0
  0
POINT
  5
157
330
17
100
AcDbEntity
  8
ДЕРЕН КРОВАВО-КРАСНЫЙ
100
AcDbPoint
 10
34.905146478957626
 20
5.770746017667983
 30
0.0
  0
POINT
  5
158
330
17
100
AcDbEntity
  8
ДЕРЕН КРОВАВО-КРАСНЫЙ
100
AcDbPoint
 10
36.01488855922115
 20
6.445213809423869
 30
0.0
  0
POINT
  5
159
330
17
100
AcDbEntity
  8
ДЕРЕН КРОВАВО-КРАСНЫЙ
100
AcDbPoint
 10
37.13955947005197
 20
7.118589274206894
 30
0.0
  0
POINT
  5
15A
330
17
100
AcDbEntity
  8
ДЕРЕН КРОВАВО-КРАСНЫЙ
100
AcDbPoint
 10
38.29290801904169
 20
7.773163302011541
 30
0.0
  0
POINT
  5
15B
330
17
100
AcDbEntity
  8
ДЕРЕН КРОВАВО-КРАСНЫЙ
100
AcDbPoint
 10
39.48688595395025
 20
8.387527217315595
 30
0.0
  0
POINT
  5
15C
330
17
100
AcDbEntity
  8
ДЕРЕН КРОВАВО-КРАСНЫЙ
100
AcDbPoint
 10
40.732190787021764
 20
8.93452599845308
 30
0.0
  0
POINT
  5
15D
330
17
100
AcDbEntity
  8
ДЕРЕН КРОВАВО-КРАСНЫЙ
100
AcDbPoint
 10
42.04008334392115
 20
9.367423719211384
 30
0.0
  0
POINT
  5
15E
330
17
100
AcDbEntity
  8
ДЕРЕН КРОВАВО-КРАСНЫЙ
100
AcDbPoint
 10
43.401083730293166
 20
9.662166943471767
 30
0.0
  0
POINT
  5
15F
330
17
100
AcDbEntity
  8
ДЕРЕН КРОВАВО-КРАСНЫЙ
100
AcDbPoint
 10
44.80174299492605
 20
9.790134211487098
 30
0.0
  0
POINT
  5
160
330
17
100
AcDbEntity
  8
ДЕРЕН КРОВАВО-КРАСНЫЙ
100
AcDbPoint
 10
46.20748110237571
 20
9.723336877952084
 30
0.0
  0
POINT
  5
161
330
17
100
AcDbEntity
  8
ДЕРЕН КРОВАВО-КРАСНЫЙ
100
AcDbPoint
 10
47.583034256675454
 20
9.464725793276575
 30
0.0
  0
POINT
  5
162
330
17
100
AcDbEntity
  8
ДЕРЕН КРОВАВО-КРАСНЫЙ
100
AcDbPoint
 10
48.90305851998376
 20
9.062619723995088
 30
0.0
  0
POINT
  5
163
330
17
100
AcDbEntity
  8
ДЕРЕН КРОВАВО-КРАСНЫЙ
100
AcDbPoint
 10
50.16667826646445
 20
8.548976912031542
 30
0.0
  0
POINT
  5
164
330
17
100
AcDbEntity
  8
ДЕРЕН КРОВАВО-КРАСНЫЙ
100
AcDbPoint
 10
51.37613350275215
 20
7.9559785211296825
 30
0.0
  0
POINT
  5
165
330
17
100
AcDbEntity
  8
ДЕРЕН КРОВАВО-КРАСНЫЙ
100
AcDbPoint
 10
58.11445450021314
 20
4.087303597013934
 30
0.0
  0
POINT
  5
166
330
17
100
AcDbEntity
  8
ДЕРЕН КРОВАВО-КРАСНЫЙ
100
AcDbPoint
 10
59.247320833750926
 20
3.5829780272256757
 30
0.0
  0
POINT
  5
167
330
17
100
AcDbEntity
  8
ДЕРЕН КРОВАВО-КРАСНЫЙ
100
AcDbPoint
 10
60.4042177453724
 20
3.19057219010724
 30
0.0
  0
POINT
  5
168
330
17
100
AcDbEntity
  8
ДЕРЕН КРОВАВО-КРАСНЫЙ
100
AcDbPoint
 10
61.58004060471607
 20
2.929390999155156
 30
0.0
  0
POINT
  5
169
330
17
100
AcDbEntity
  8
ДЕРЕН КРОВАВО-КРАСНЫЙ
100
AcDbPoint
 10
62.766010040431134
 20
2.8133035625833833
 30
0.0
  0
POINT
  5
16A
330
17
100
AcDbEntity
  8
ДЕРЕН КРОВАВО-КРАСНЫЙ
100
AcDbPoint
 10
63.95469647050534
 20
2.855023628587144
 30
0.0
  0
POINT
  5
16B
330
17
100
AcDbEntity
  8
ДЕРЕН КРОВАВО-КРАСНЫЙ
100
AcDbPoint
 10
65.13249199580461
 20
3.0712915692944804
 30
0.0
  0
POINT
  5
16C
330
17
100
AcDbEntity
  8
ДЕРЕН КРОВАВО-КРАСНЫЙ
100
AcDbPoint
 10
66.29757820084936
 20
3.4206077867006695
 30
0.0
  0
POINT
  5
16D
330
17
100
AcDbEntity
  8
ДЕРЕН КРОВАВО-КРАСНЫЙ
100
AcDbPoint
 10
67.44223833083537
 20
3.8808081073947687
 30
0.0
  0
POINT
  5
16E
330
17
100
AcDbEntity
  8
ДЕРЕН КРОВАВО-КРАСНЫЙ
100
AcDbPoint
 10
68.56776828144808
 20
4.428185548424432
 30
0.0
  0
POINT
  5
16F
330
17
100
AcDbEntity
  8
ДЕРЕН КРОВАВО-КРАСНЫЙ
100
AcDbPoint
 10
69.67763826715263
 20
5.041479896133437
 30
0.0
  0
POINT
  5
170
330
17
100
AcDbEntity
  8
ДЕРЕН КРОВАВО-КРАСНЫЙ
100
AcDbPoint
 10
70.78143508937735
 20
5.695553068104781
 30
0.0
  0
POINT
  5
171
330
17
100
AcDbEntity
  8
ДЕРЕН КРОВАВО-КРАСНЫЙ
100
AcDbPoint
 10
71.88981452575423
 20
6.369197736476428
 30
0.0
  0
POINT
  5
172
330
17
100
AcDbEntity
  8
ДЕРЕН КРОВАВО-КРАСНЫЙ
100
AcDbPoint
 10
73.01334234560018
 20
7.04420927115356
 30
0.0
  0
POINT
  5
173
330
17
100
AcDbEntity
  8
ДЕРЕН КРОВАВО-КРАСНЫЙ
100
AcDbPoint
 10
74.16102658961566
 20
7.700255560491088
 30
0.0
  0
POINT
  5
174
330
17
100
AcDbEntity
  8
ДЕРЕН КРОВАВО-КРАСНЫЙ
100
AcDbPoint
 10
75.35003985485613
 20
8.319236141030244
 30
0.0
  0
POINT
  5
175
330
17
100
AcDbEntity
  8
ДЕРЕН КРОВАВО-КРАСНЫЙ
100
AcDbPoint
 10
76.58950916459611
 20
8.875029350012507
 30
0.0
  0
POINT
  5
176
330
17
100
AcDbEntity
  8
ДЕРЕН КРОВАВО-КРАСНЫЙ
100
AcDbPoint
 10
77.8888652161359
 20
9.328168461372838
 30
0.0
  0
POINT
  5
177
330
17
100
AcDbEntity
  8
ДЕРЕН КРОВАВО-КРАСНЫЙ
100
AcDbPoint
 10
79.24628404440922
 20
9.637675673074972
 30
0.0
  0
POINT
  5
178
330
17
100
AcDbEntity
  8
ДЕРЕН КРОВАВО-КРАСНЫЙ
100
AcDbPoint
 10
80.64314925502414
 20
9.782023911338213
 30
0.0
  0
POINT
  5
179
330
17
100
AcDbEntity
  8
ДЕРЕН КРОВАВО-КРАСНЫЙ
100
AcDbPoint
 10
82.05052198197288
 20
9.744326475080117
 30
0.0
  0
POINT
  5
17A
330
17
100
AcDbEntity
  8
ДЕРЕН КРОВАВО-КРАСНЫЙ
100
AcDbPoint
 10
83.4304117876202
 20
9.503889133748666
 30
0.0
  0
POINT
  5
17B
330
17
100
AcDbEntity
  8
ДЕРЕН КРОВАВО-КРАСНЫЙ
100
AcDbPoint
 10
84.75899487193988
 20
9.113058480201023
 30
0.0
  0
POINT
  5
17C
330
17
100
AcDbEntity
  8
ДЕРЕН КРОВАВО-КРАСНЫЙ
100
AcDbPoint
 10
86.02628512685523
 20
8.60964246918265
 30
0.0
  0
POINT
  5
17D
330
17
100
AcDbEntity
  8
ДЕРЕН КРОВАВО-КРАСНЫЙ
100
AcDbPoint
 10
87.24096740770496
 20
8.023815896870735
 30
0.0
  0
POINT
  5
17E
330
17
100
AcDbEntity
  8
ДЕРЕН КРОВАВО-КРАСНЫЙ
100
AcDbPoint
 10
89.54413455308143
 20
6.713215384254713
 30
0.0
  0
POINT
  5
17F
330
17
100
AcDbEntity
  8
ДЕРЕН КРОВАВО-КРАСНЫЙ
100
AcDbPoint
 10
90.65826758810354
 20
6.03609062548509
 30
0.0
  0
POINT
  5
180
330
17
100
AcDbEntity
  8
ДЕРЕН КРОВАВО-КРАСНЫЙ
100
AcDbPoint
 10
91.76354640147996
 20
5.3708494063898735
 30
0.0
  0
POINT
  5
181
330
17
100
AcDbEntity
  8
ДЕРЕН КРОВАВО-КРАСНЫЙ
100
AcDbPoint
 10
92.87120075023957
 20
4.7353656119916225
 30
0.0
  0
POINT
  5
182
330
17
100
AcDbEntity
  8
ДЕРЕН КРОВАВО-КРАСНЫЙ
100
AcDbPoint
 10
93.98944143787871
 20
4.149848137825673
 30
0.0
  0
POINT
  5
183
330
17
100
AcDbEntity
  8
ДЕРЕН КРОВАВО-КРАСНЫЙ
100
AcDbPoint
 10
95.12061463659138
 20
3.637878792794747
 30
0.0
  0
POINT
  5
184
330
17
100
AcDbEntity
  8
ДЕРЕН КРОВАВО-КРАСНЫЙ
100
AcDbPoint
 10
96.2719659344446
 20
3.2243425579496896
 30
0.0
  0
POINT
  5
185
330
17
100
AcDbEntity
  8
ДЕРЕН КРОВАВО-КРАСНЫЙ
100
AcDbPoint
 10
97.44651438638552
 20
2.950349890268219
 30
0.0
  0
POINT
  5
186
330
17
100
AcDbEntity
  8
ДЕРЕН КРОВАВО-КРАСНЫЙ
100
AcDbPoint
 10
98.63228286196023
 20
2.8206398477397068
 30
0.0
  0
POINT
  5
187
330
17
100
AcDbEntity
  8
ДЕРЕН КРОВАВО-КРАСНЫЙ
100
AcDbPoint
 10
99.82106519465803
 20
2.844115897339513
 30
0.0
  0
POINT
  5
188
330
17
100
AcDbEntity
  8
ДЕРЕН КРОВАВО-КРАСНЫЙ
100
AcDbPoint
 10
101.00168232154809
 20
3.0372949534536318
 30
0.0
  0
POINT
  5
189
330
17
100
AcDbEntity
  8
ДЕРЕН КРОВАВО-КРАСНЫЙ
100
AcDbPoint
 10
102.16456726071733
 20
3.3740586428319777
 30
0.0
  0
POINT
  5
18A
330
17
100
AcDbEntity
  8
ДЕРЕН КРОВАВО-КРАСНЫЙ
100
AcDbPoint
 10
103.31386102959169
 20
3.8254969304572746
 30
0.0
  0
POINT
  5
18B
330
17
100
AcDbEntity
  8
ДЕРЕН КРОВАВО-КРАСНЫЙ
100
AcDbPoint
 10
104.4411734925862
 20
4.365000137754856
 30
0.0
  0
POINT
  5
18C
330
17
100
AcDbEntity
  8
ДЕРЕН КРОВАВО-КРАСНЫЙ
100
AcDbPoint
 10
105.5535397329369
 20
4.970150034692089
 30
0.0
  0
POINT
  5
18D
330
17
100
AcDbEntity
  8
ДЕРЕН КРОВАВО-КРАСНЫЙ
100
AcDbPoint
 10
106.65772535187435
 20
5.620357415405412
 30
0.0
  0
POINT
  5
18E
330
17
100
AcDbEntity
  8
ДЕРЕН КРОВАВО-КРАСНЫЙ
100
AcDbPoint
 10
107.76474049228726
 20
6.293181663528958
 30
0.0
  0
POINT
  5
18F
330
17
100
AcDbEntity
  8
ДЕРЕН КРОВАВО-КРАСНЫЙ
100
AcDbPoint
 10
108.88587582968259
 20
6.9690908503777464
 30
0.0
  0
POINT
  5
191
330
17
100
AcDbEntity
  8
СПИРЕЯ ВАНГУТТА
100
AcDbPoint
 10
0.9709526717708099
 20
24.1539495568835
 30
0.0
  0
POINT
  5
192
330
17
100
AcDbEntity
  8
СПИРЕЯ ВАНГУТТА
100
AcDbPoint
 10
2.075726877321689
 20
24.813123449215855
 30
0.0
  0
POINT
  5
193
330
17
100
AcDbEntity
  8
СПИРЕЯ ВАНГУТТА
100
AcDbPoint
 10
3.183335184149269
 20
25.437283241724415
 30
0.0
  0
POINT
  5
194
330
17
100
AcDbEntity
  8
СПИРЕЯ ВАНГУТТА
100
AcDbPoint
 10
4.301927676379222
 20
26.006603415979722
 30
0.0
  0
POINT
  5
195
330
17
100
AcDbEntity
  8
СПИРЕЯ ВАНГУТТА
100
AcDbPoint
 10
5.441669776402832
 20
26.488374557867434
 30
0.0
  0
POINT
  5
196
330
17
100
AcDbEntity
  8
СПИРЕЯ ВАНГУТТА
100
AcDbPoint
 10
6.602541120188025
 20
26.86030525663131
 30
0.0
  0
POINT
  5
197
330
17
100
AcDbEntity
  8
СПИРЕЯ ВАНГУТТА
100
AcDbPoint
 10
7.780217926108102
 20
27.102328540128468
 30
0.0
  0
POINT
  5
198
330
17
100
AcDbEntity
  8
СПИРЕЯ ВАНГУТТА
100
AcDbPoint
 10
8.966573993556835
 20
27.198063174101076
 30
0.0
  0
POINT
  5
199
330
17
100
AcDbEntity
  8
СПИРЕЯ ВАНГУТТА
100
AcDbPoint
 10
10.153498936963448
 20
27.112922568176003
 30
0.0
  0
POINT
  5
19A
330
17
100
AcDbEntity
  8
СПИРЕЯ ВАНГУТТА
100
AcDbPoint
 10
11.331363383597502
 20
26.877324075867854
 30
0.0
  0
POINT
  5
19B
330
17
100
AcDbEntity
  8
СПИРЕЯ ВАНГУТТА
100
AcDbPoint
 10
12.49313241570448
 20
26.51109839111051
 30
0.0
  0
POINT
  5
19C
330
17
100
AcDbEntity
  8
СПИРЕЯ ВАНГУТТА
100
AcDbPoint
 10
13.63484351989772
 20
26.03631867596747
 30
0.0
  0
POINT
  5
19D
330
17
100
AcDbEntity
  8
СПИРЕЯ ВАНГУТТА
100
AcDbPoint
 10
14.754770261818534
 20
25.47154286348199
 30
0.0
  0
POINT
  5
19E
330
17
100
AcDbEntity
  8
СПИРЕЯ ВАНГУТТА
100
AcDbPoint
 10
15.862611922638841
 20
24.849468466373846
 30
0.0
  0
POINT
  5
19F
330
17
100
AcDbEntity
  8
СПИРЕЯ ВАНГУТТА
100
AcDbPoint
 10
16.967002798312585
 20
24.19165851813321
 30
0.0
  0
POINT
  5
1A0
330
17
100
AcDbEntity
  8
СПИРЕЯ ВАНГУТТА
100
AcDbPoint
 10
18.07742557595459
 20
23.516778154102422
 30
0.0
  0
POINT
  5
1A1
330
17
100
AcDbEntity
  8
СПИРЕЯ ВАНГУТТА
100
AcDbPoint
 10
19.203475140208294
 20
22.84374583653456
 30
0.0
  0
POINT
  5
1A2
330
17
100
AcDbEntity
  8
СПИРЕЯ ВАНГУТТА
100
AcDbPoint
 10
20.35909243253481
 20
22.19026070249586
 30
0.0
  0
POINT
  5
1A3
330
17
100
AcDbEntity
  8
СПИРЕЯ ВАНГУТТА
100
AcDbPoint
 10
21.55531821322974
 20
21.578345323805564
 30
0.0
  0
POINT
  5
1A4
330
17
100
AcDbEntity
  8
СПИРЕЯ ВАНГУТТА
100
AcDbPoint
 10
22.805126807406143
 20
21.039814835804616
 30
0.0
  0
POINT
  5
1A5
330
17
100
AcDbEntity
  8
СПИРЕЯ ВАНГУТТА
100
AcDbPoint
 10
24.115703003372655
 20
20.612993102128307
 30
0.0
  0
POINT
  5
1A6
330
17
100
AcDbEntity
  8
СПИРЕЯ ВАНГУТТА
100
AcDbPoint
 10
25.479351706599527
 20
20.32550916319539
 30
0.0
  0
POINT
  5
1A7
330
17
100
AcDbEntity
  8
СПИРЕЯ ВАНГУТТА
100
AcDbPoint
 10
26.88104466611226
 20
20.2058831528548
 30
0.0
  0
POINT
  5
1A8
330
17
100
AcDbEntity
  8
СПИРЕЯ ВАНГУТТА
100
AcDbPoint
 10
28.28578514976308
 20
20.288806793306264
 30
0.0
  0
POINT
  5
1A9
330
17
100
AcDbEntity
  8
СПИРЕЯ ВАНГУТТА
100
AcDbPoint
 10
29.65932731901754
 20
20.554911986336215
 30
0.0
  0
POINT
  5
1AA
330
17
100
AcDbEntity
  8
СПИРЕЯ ВАНГУТТА
100
AcDbPoint
 10
30.976022148205164
 20
20.96295838638668
 30
0.0
  0
POINT
  5
1AB
330
17
100
AcDbEntity
  8
СПИРЕЯ ВАНГУТТА
100
AcDbPoint
 10
32.23686691161567
 20
21.48137454484236
 30
0.0
  0
POINT
  5
1AC
330
17
100
AcDbEntity
  8
СПИРЕЯ ВАНГУТТА
100
AcDbPoint
 10
33.44233236185232
 20
22.08057150500314
 30
0.0
  0
POINT
  5
1AD
330
17
100
AcDbEntity
  8
СПИРЕЯ ВАНГУТТА
100
AcDbPoint
 10
34.60322059583535
 20
22.729855138930915
 30
0.0
  0
POINT
  5
1AE
330
17
100
AcDbEntity
  8
СПИРЕЯ ВАНГУТТА
100
AcDbPoint
 10
35.73379018964984
 20
23.40204239718243
 30
0.0
  0
POINT
  5
1AF
330
17
100
AcDbEntity
  8
СПИРЕЯ ВАНГУТТА
100
AcDbPoint
 10
36.84587863830395
 20
24.077933483936093
 30
0.0
  0
POINT
  5
1B0
330
17
100
AcDbEntity
  8
СПИРЕЯ ВАНГУТТА
100
AcDbPoint
 10
37.95188370211433
 20
24.740137482520183
 30
0.0
  0
POINT
  5
1B1
330
17
100
AcDbEntity
  8
СПИРЕЯ ВАНГУТТА
100
AcDbPoint
 10
39.05953509336085
 20
25.36878339296953
 30
0.0
  0
POINT
  5
1B2
330
17
100
AcDbEntity
  8
СПИРЕЯ ВАНГУТТА
100
AcDbPoint
 10
40.17695159946375
 20
25.943986637739798
 30
0.0
  0
POINT
  5
1B3
330
17
100
AcDbEntity
  8
СПИРЕЯ ВАНГУТТА
100
AcDbPoint
 10
41.31125266820794
 20
26.442987417739488
 30
0.0
  0
POINT
  5
1B4
330
17
100
AcDbEntity
  8
СПИРЕЯ ВАНГУТТА
100
AcDbPoint
 10
42.470332234977825
 20
26.826357240520572
 30
0.0
  0
POINT
  5
1B5
330
17
100
AcDbEntity
  8
СПИРЕЯ ВАНГУТТА
100
AcDbPoint
 10
43.64762204163015
 20
27.081275150513402
 30
0.0
  0
POINT
  5
1B6
330
17
100
AcDbEntity
  8
СПИРЕЯ ВАНГУТТА
100
AcDbPoint
 10
44.83286714041881
 20
27.19043696276553
 30
0.0
  0
POINT
  5
1B7
330
17
100
AcDbEntity
  8
СПИРЕЯ ВАНГУТТА
100
AcDbPoint
 10
46.020957165197494
 20
27.134246313868484
 30
0.0
  0
POINT
  5
1B8
330
17
100
AcDbEntity
  8
СПИРЕЯ ВАНГУТТА
100
AcDbPoint
 10
47.19791382499357
 20
26.911766600927606
 30
0.0
  0
POINT
  5
1B9
330
17
100
AcDbEntity
  8
СПИРЕЯ ВАНГУТТА
100
AcDbPoint
 10
48.36275672078478
 20
26.55660711920642
 30
0.0
  0
POINT
  5
1BA
330
17
100
AcDbEntity
  8
СПИРЕЯ ВАНГУТТА
100
AcDbPoint
 10
49.506434675226544
 20
26.091555078714478
 30
0.0
  0
POINT
  5
1BB
330
17
100
AcDbEntity
  8
СПИРЕЯ ВАНГУТТА
100
AcDbPoint
 10
50.63099183975091
 20
25.540081666814455
 30
0.0
  0
POINT
  5
1BC
330
17
100
AcDbEntity
  8
СПИРЕЯ ВАНГУТТА
100
AcDbPoint
 10
51.73929451153989
 20
24.92216678375327
 30
0.0
  0
POINT
  5
1BD
330
17
100
AcDbEntity
  8
СПИРЕЯ ВАНГУТТА
100
AcDbPoint
 10
58.66055053995289
 20
21.09445506055161
 30
0.0
  0
POINT
  5
1BE
330
17
100
AcDbEntity
  8
СПИРЕЯ ВАНГУТТА
100
AcDbPoint
 10
59.964470565640134
 20
20.65218913705526
 30
0.0
  0
POINT
  5
1BF
330
17
100
AcDbEntity
  8
СПИРЕЯ ВАНГУТТА
100
AcDbPoint
 10
61.3240939751065
 20
20.34999512642676
 30
0.0
  0
POINT
  5
1C0
330
17
100
AcDbEntity
  8
СПИРЕЯ ВАНГУТТА
100
AcDbPoint
 10
62.72244414905163
 20
20.213896793462936
 30
0.0
  0
POINT
  5
1C1
330
17
100
AcDbEntity
  8
СПИРЕЯ ВАНГУТТА
100
AcDbPoint
 10
64.12917060496711
 20
20.264564960025204
 30
0.0
  0
POINT
  5
1C2
330
17
100
AcDbEntity
  8
СПИРЕЯ ВАНГУТТА
100
AcDbPoint
 10
65.50672881797796
 20
20.515673749606883
 30
0.0
  0
POINT
  5
1C3
330
17
100
AcDbEntity
  8
СПИРЕЯ ВАНГУТТА
100
AcDbPoint
 10
66.83008877911877
 20
20.911822684696027
 30
0.0
  0
POINT
  5
1C4
330
17
100
AcDbEntity
  8
СПИРЕЯ ВАНГУТТА
100
AcDbPoint
 10
68.09648428698502
 20
21.42068406168433
 30
0.0
  0
POINT
  5
1C5
330
17
100
AcDbEntity
  8
СПИРЕЯ ВАНГУТТА
100
AcDbPoint
 10
69.30859161070998
 20
22.010024487465092
 30
0.0
  0
POINT
  5
1C6
330
17
100
AcDbEntity
  8
СПИРЕЯ ВАНГУТТА
100
AcDbPoint
 10
70.4743427993891
 20
22.653941828794782
 30
0.0
  0
POINT
  5
1C7
330
17
100
AcDbEntity
  8
СПИРЕЯ ВАНГУТТА
100
AcDbPoint
 10
71.60735351229626
 20
23.325203200850748
 30
0.0
  0
POINT
  5
1C8
330
17
100
AcDbEntity
  8
СПИРЕЯ ВАНГУТТА
100
AcDbPoint
 10
72.72080460483703
 20
24.00191741098865
 30
0.0
  0
POINT
  5
1C9
330
17
100
AcDbEntity
  8
СПИРЕЯ ВАНГУТТА
100
AcDbPoint
 10
73.82590890613538
 20
24.665900312791905
 30
0.0
  0
POINT
  5
1CA
330
17
100
AcDbEntity
  8
СПИРЕЯ ВАНГУТТА
100
AcDbPoint
 10
74.93524390474906
 20
25.30004573730471
 30
0.0
  0
POINT
  5
1CB
330
17
100
AcDbEntity
  8
СПИРЕЯ ВАНГУТТА
100
AcDbPoint
 10
76.05195116216962
 20
25.881418170400625
 30
0.0
  0
POINT
  5
1CC
330
17
100
AcDbEntity
  8
СПИРЕЯ ВАНГУТТА
100
AcDbPoint
 10
77.18397188523707
 20
26.389561722035324
 30
0.0
  0
POINT
  5
1CD
330
17
100
AcDbEntity
  8
СПИРЕЯ ВАНГУТТА
100
AcDbPoint
 10
78.33809582699017
 20
26.792527924570198
 30
0.0
  0
POINT
  5
1CE
330
17
100
AcDbEntity
  8
СПИРЕЯ ВАНГУТТА
100
AcDbPoint
 10
79.51327934331258
 20
27.060109981776026
 30
0.0
  0
POINT
  5
1CF
330
17
100
AcDbEntity
  8
СПИРЕЯ ВАНГУТТА
100
AcDbPoint
 10
80.69914898859652
 20
27.183004202316518
 30
0.0
  0
POINT
  5
1D0
330
17
100
AcDbEntity
  8
СПИРЕЯ ВАНГУТТА
100
AcDbPoint
 10
81.88810847783995
 20
27.15259099024752
 30
0.0
  0
POINT
  5
1D1
330
17
100
AcDbEntity
  8
СПИРЕЯ ВАНГУТТА
100
AcDbPoint
 10
83.0670817582759
 20
26.945687834244435
 30
0.0
  0
POINT
  5
1D2
330
17
100
AcDbEntity
  8
СПИРЕЯ ВАНГУТТА
100
AcDbPoint
 10
84.23052384722783
 20
26.6028537338041
 30
0.0
  0
POINT
  5
1D3
330
17
100
AcDbEntity
  8
СПИРЕЯ ВАНГУТТА
100
AcDbPoint
 10
85.3780471670945
 20
26.14684120191315
 30
0.0
  0
POINT
  5
1D4
330
17
100
AcDbEntity
  8
СПИРЕЯ ВАНГУТТА
100
AcDbPoint
 10
86.50446921625895
 20
25.60340383905203
 30
0.0
  0
POINT
  5
1D5
330
17
100
AcDbEntity
  8
СПИРЕЯ ВАНГУТТА
100
AcDbPoint
 10
87.61598364122074
 20
24.994876211356914
 30
0.0
  0
POINT
  5
1D6
330
17
100
AcDbEntity
  8
СПИРЕЯ ВАНГУТТА
100
AcDbPoint
 10
89.82727750902075
 20
23.668810299997315
 30
0.0
  0
POINT
  5
1D7
330
17
100
AcDbEntity
  8
СПИРЕЯ ВАНГУТТА
100
AcDbPoint
 10
90.94960889004018
 20
22.9933495960555
 30
0.0
  0
POINT
  5
1D8
330
17
100
AcDbEntity
  8
СПИРЕЯ ВАНГУТТА
100
AcDbPoint
 10
92.09698343510617
 20
22.33515578880525
 30
0.0
  0
POINT
  5
1D9
330
17
100
AcDbEntity
  8
СПИРЕЯ ВАНГУТТА
100
AcDbPoint
 10
93.28162631095286
 20
21.714927322555738
 30
0.0
  0
POINT
  5
1DA
330
17
100
AcDbEntity
  8
СПИРЕЯ ВАНГУТТА
100
AcDbPoint
 10
94.5184760893711
 20
21.155505975332336
 30
0.0
  0
POINT
  5
1DB
330
17
100
AcDbEntity
  8
СПИРЕЯ ВАНГУТТА
100
AcDbPoint
 10
95.81326784079498
 20
20.69150334300175
 30
0.0
  0
POINT
  5
1DC
330
17
100
AcDbEntity
  8
СПИРЕЯ ВАНГУТТА
100
AcDbPoint
 10
97.16847780923548
 20
20.374692674447886
 30
0.0
  0
POINT
  5
1DD
330
17
100
AcDbEntity
  8
СПИРЕЯ ВАНГУТТА
100
AcDbPoint
 10
98.56385943579825
 20
20.222103568904515
 30
0.0
  0
POINT
  5
1DE
330
17
100
AcDbEntity
  8
СПИРЕЯ ВАНГУТТА
100
AcDbPoint
 10
99.97140931929262
 20
20.2511951070339
 30
0.0
  0
POINT
  5
1DF
330
17
100
AcDbEntity
  8
СПИРЕЯ ВАНГУТТА
100
AcDbPoint
 10
101.3540839564615
 20
20.476585791658792
 30
0.0
  0
POINT
  5
1E0
330
17
100
AcDbEntity
  8
СПИРЕЯ ВАНГУТТА
100
AcDbPoint
 10
102.6868031976499
 20
20.86168645776107
 30
0.0
  0
POINT
  5
1E1
330
17
100
AcDbEntity
  8
СПИРЕЯ ВАНГУТТА
100
AcDbPoint
 10
103.95608094048734
 20
21.360043558272007
 30
0.0
  0
POINT
  5
1E2
330
17
100
AcDbEntity
  8
СПИРЕЯ ВАНГУТТА
100
AcDbPoint
 10
105.17333986318353
 20
21.942350354510097
 30
0.0
  0
POINT
  5
1E3
330
17
100
AcDbEntity
  8
СПИРЕЯ ВАНГУТТА
100
AcDbPoint
 10
106.34466764518716
 20
22.579424818677598
 30
0.0
  0
POINT
  5
1E4
330
17
100
AcDbEntity
  8
СПИРЕЯ ВАНГУТТА
100
AcDbPoint
 10
107.48091518286536
 20
23.248366707655176
 30
0.0
  0
POINT
  5
1E5
330
17
100
AcDbEntity
  8
СПИРЕЯ ВАНГУТТА
100
AcDbPoint
 10
108.59573057137005
 20
23.92590133804118
 30
0.0
  0
POINT
  5
1E6
330
17
100
AcDbEntity
  8
СПИРЕЯ ВАНГУТТА
100
AcDbPoint
 10
1.1118215059257293
 20
25.17366524547898
 30
0.0
  0
POINT
  5
1E7
330
17
100
AcDbEntity
  8
СПИРЕЯ ВАНГУТТА
100
AcDbPoint
 10
2.2354726245506793
 20
25.827270261810195
 30
0.0
  0
POINT
  5
1E8
330
17
100
AcDbEntity
  8
СПИРЕЯ ВАНГУТТА
100
AcDbPoint
 10
3.381407781216927
 20
26.44061106888534
 30
0.0
  0
POINT
  5
1E9
330
17
100
AcDbEntity
  8
СПИРЕЯ ВАНГУТТА
100
AcDbPoint
 10
4.5586896080032036
 20
26.990774725742185
 30
0.0
  0
POINT
  5
1EA
330
17
100
AcDbEntity
  8
СПИРЕЯ ВАНГУТТА
100
AcDbPoint
 10
5.773390666638948
 20
27.451790747287344
 30
0.0
  0
POINT
  5
1EB
330
17
100
AcDbEntity
  8
СПИРЕЯ ВАНГУТТА
100
AcDbPoint
 10
7.026878964244992
 20
27.793168440841747
 30
0.0
  0
POINT
  5
1EC
330
17
100
AcDbEntity
  8
СПИРЕЯ ВАНГУТТА
100
AcDbPoint
 10
8.314377959486443
 20
27.963543512170855
 30
0.0
  0
POINT
  5
1ED
330
17
100
AcDbEntity
  8
СПИРЕЯ ВАНГУТТА
100
AcDbPoint
 10
9.61254406758254
 20
27.967429277320328
 30
0.0
  0
POINT
  5
1EE
330
17
100
AcDbEntity
  8
СПИРЕЯ ВАНГУТТА
100
AcDbPoint
 10
10.900835439704672
 20
27.804582550625284
 30
0.0
  0
POINT
  5
1EF
330
17
100
AcDbEntity
  8
СПИРЕЯ ВАНГУТТА
100
AcDbPoint
 10
12.157535202960888
 20
27.475962089988233
 30
0.0
  0
POINT
  5
1F0
330
17
100
AcDbEntity
  8
СПИРЕЯ ВАНГУТТА
100
AcDbPoint
 10
13.374115230061522
 20
27.019762645829612
 30
0.0
  0
POINT
  5
1F1
330
17
100
AcDbEntity
  8
СПИРЕЯ ВАНГУТТА
100
AcDbPoint
 10
14.553130584686048
 20
26.473325954791452
 30
0.0
  0
POINT
  5
1F2
330
17
100
AcDbEntity
  8
СПИРЕЯ ВАНГУТТА
100
AcDbPoint
 10
15.700484220939897
 20
25.862681611106495
 30
0.0
  0
POINT
  5
1F3
330
17
100
AcDbEntity
  8
СПИРЕЯ ВАНГУТТА
100
AcDbPoint
 10
16.825130513966627
 20
25.21081953867436
 30
0.0
  0
POINT
  5
1F4
330
17
100
AcDbEntity
  8
СПИРЕЯ ВАНГУТТА
100
AcDbPoint
 10
17.937462983266578
 20
24.5380080364737
 30
0.0
  0
POINT
  5
1F5
330
17
100
AcDbEntity
  8
СПИРЕЯ ВАНГУТТА
100
AcDbPoint
 10
19.04877352581809
 20
23.863489047716403
 30
0.0
  0
POINT
  5
1F6
330
17
100
AcDbEntity
  8
СПИРЕЯ ВАНГУТТА
100
AcDbPoint
 10
20.171429470041257
 20
23.2081410874861
 30
0.0
  0
POINT
  5
1F7
330
17
100
AcDbEntity
  8
СПИРЕЯ ВАНГУТТА
100
AcDbPoint
 10
21.315946147119906
 20
22.59210381702077
 30
0.0
  0
POINT
  5
1F8
330
17
100
AcDbEntity
  8
СПИРЕЯ ВАНГУТТА
100
AcDbPoint
 10
22.491494446067936
 20
22.03821319434524
 30
0.0
  0
POINT
  5
1F9
330
17
100
AcDbEntity
  8
СПИРЕЯ ВАНГУТТА
100
AcDbPoint
 10
23.70431653623879
 20
21.572380595413545
 30
0.0
  0
POINT
  5
1FA
330
17
100
AcDbEntity
  8
СПИРЕЯ ВАНГУТТА
100
AcDbPoint
 10
24.95548658224239
 20
21.222552955868316
 30
0.0
  0
POINT
  5
1FB
330
17
100
AcDbEntity
  8
СПИРЕЯ ВАНГУТТА
100
AcDbPoint
 10
26.241299986555436
 20
21.04034225297862
 30
0.0
  0
POINT
  5
1FC
330
17
100
AcDbEntity
  8
СПИРЕЯ ВАНГУТТА
100
AcDbPoint
 10
27.539466094651537
 20
21.0286849575302
 30
0.0
  0
POINT
  5
1FD
330
17
100
AcDbEntity
  8
СПИРЕЯ ВАНГУТТА
100
AcDbPoint
 10
28.828549843654343
 20
21.184003339591182
 30
0.0
  0
POINT
  5
1FE
330
17
100
AcDbEntity
  8
СПИРЕЯ ВАНГУТТА
100
AcDbPoint
 10
30.088461072560722
 20
21.499866567310878
 30
0.0
  0
POINT
  5
1FF
330
17
100
AcDbEntity
  8
СПИРЕЯ ВАНГУТТА
100
AcDbPoint
 10
31.306920068126242
 20
21.95124943408296
 30
0.0
  0
POINT
  5
200
330
17
100
AcDbEntity
  8
СПИРЕЯ ВАНГУТТА
100
AcDbPoint
 10
32.48766895058901
 20
22.49395915930243
 30
0.0
  0
POINT
  5
201
330
17
100
AcDbEntity
  8
СПИРЕЯ ВАНГУТТА
100
AcDbPoint
 10
33.63644106643046
 20
23.101907039597197
 30
0.0
  0
POINT
  5
202
330
17
100
AcDbEntity
  8
СПИРЕЯ ВАНГУТТА
100
AcDbPoint
 10
34.762082533858965
 20
23.75202616813025
 30
0.0
  0
POINT
  5
203
330
17
100
AcDbEntity
  8
СПИРЕЯ ВАНГУТТА
100
AcDbPoint
 10
35.874925966533134
 20
24.423983927052593
 30
0.0
  0
POINT
  5
204
330
17
100
AcDbEntity
  8
СПИРЕЯ ВАНГУТТА
100
AcDbPoint
 10
36.98584123099196
 20
25.099163366307366
 30
0.0
  0
POINT
  5
205
330
17
100
AcDbEntity
  8
СПИРЕЯ ВАНГУТТА
100
AcDbPoint
 10
38.10738631553181
 20
25.756447563217588
 30
0.0
  0
POINT
  5
206
330
17
100
AcDbEntity
  8
СПИРЕЯ ВАНГУТТА
100
AcDbPoint
 10
39.25048451302286
 20
26.375181297073105
 30
0.0
  0
POINT
  5
207
330
17
100
AcDbEntity
  8
СПИРЕЯ ВАНГУТТА
100
AcDbPoint
 10
40.42429928413264
 20
26.932798885567323
 30
0.0
  0
POINT
  5
208
330
17
100
AcDbEntity
  8
СПИРЕЯ ВАНГУТТА
100
AcDbPoint
 10
41.635242405838596
 20
27.403448061885555
 30
0.0
  0
POINT
  5
209
330
17
100
AcDbEntity
  8
СПИРЕЯ ВАНГУТТА
100
AcDbPoint
 10
42.88462294829917
 20
27.759175900684458
 30
0.0
  0
POINT
  5
20A
330
17
100
AcDbEntity
  8
СПИРЕЯ ВАНГУТТА
100
AcDbPoint
 10
44.16822201362438
 20
27.955771981871905
 30
0.0
  0
POINT
  5
20B
330
17
100
AcDbEntity
  8
СПИРЕЯ ВАНГУТТА
100
AcDbPoint
 10
45.46638812172048
 20
27.975200807619277
 30
0.0
  0
POINT
  5
20C
330
17
100
AcDbEntity
  8
СПИРЕЯ ВАНГУТТА
100
AcDbPoint
 10
46.75626424760396
 20
27.827410770192362
 30
0.0
  0
POINT
  5
20D
330
17
100
AcDbEntity
  8
СПИРЕЯ ВАНГУТТА
100
AcDbPoint
 10
48.019386942160516
 20
27.52430477539003
 30
0.0
  0
POINT
  5
20E
330
17
100
AcDbEntity
  8
СПИРЕЯ ВАНГУТТА
100
AcDbPoint
 10
49.23972490619093
 20
27.07773848600449
 30
0.0
  0
POINT
  5
20F
330
17
100
AcDbEntity
  8
СПИРЕЯ ВАНГУТТА
100
AcDbPoint
 10
50.42220731649195
 20
26.5387557266037
 30
0.0
  0
POINT
  5
210
330
17
100
AcDbEntity
  8
СПИРЕЯ ВАНГУТТА
100
AcDbPoint
 10
51.57239791192099
 20
25.933504309699124
 30
0.0
  0
POINT
  5
211
330
17
100
AcDbEntity
  8
СПИРЕЯ ВАНГУТТА
100
AcDbPoint
 10
58.35710412219732
 20
22.09618903452012
 30
0.0
  0
POINT
  5
212
330
17
100
AcDbEntity
  8
СПИРЕЯ ВАНГУТТА
100
AcDbPoint
 10
59.56616827543839
 20
21.620723280815348
 30
0.0
  0
POINT
  5
213
330
17
100
AcDbEntity
  8
СПИРЕЯ ВАНГУТТА
100
AcDbPoint
 10
60.81375931435594
 20
21.259095242762772
 30
0.0
  0
POINT
  5
214
330
17
100
AcDbEntity
  8
СПИРЕЯ ВАНГУТТА
100
AcDbPoint
 10
62.09514404069333
 20
21.04811378327757
 30
0.0
  0
POINT
  5
215
330
17
100
AcDbEntity
  8
СПИРЕЯ ВАНГУТТА
100
AcDbPoint
 10
63.39331014878942
 20
21.02091342723125
 30
0.0
  0
POINT
  5
216
330
17
100
AcDbEntity
  8
СПИРЕЯ ВАНГУТТА
100
AcDbPoint
 10
64.68397865155359
 20
21.161175120024094
 30
0.0
  0
POINT
  5
217
330
17
100
AcDbEntity
  8
СПИРЕЯ ВАНГУТТА
100
AcDbPoint
 10
65.94902556574097
 20
21.45576808026916
 30
0.0
  0
POINT
  5
218
330
17
100
AcDbEntity
  8
СПИРЕЯ ВАНГУТТА
100
AcDbPoint
 10
67.17252974425561
 20
21.89327359390807
 30
0.0
  0
POINT
  5
219
330
17
100
AcDbEntity
  8
СПИРЕЯ ВАНГУТТА
100
AcDbPoint
 10
68.35674568239489
 20
22.42852938749017
 30
0.0
  0
POINT
  5
21A
330
17
100
AcDbEntity
  8
СПИРЕЯ ВАНГУТТА
100
AcDbPoint
 10
69.50835475741152
 20
23.031084341004558
 30
0.0
  0
POINT
  5
21B
330
17
100
AcDbEntity
  8
СПИРЕЯ ВАНГУТТА
100
AcDbPoint
 10
70.63598657364359
 20
23.677717581739437
 30
0.0
  0
POINT
  5
21C
330
17
100
AcDbEntity
  8
СПИРЕЯ ВАНГУТТА
100
AcDbPoint
 10
71.74985193306621
 20
24.34796785410515
 30
0.0
  0
POINT
  5
21D
330
17
100
AcDbEntity
  8
СПИРЕЯ ВАНГУТТА
100
AcDbPoint
 10
72.86076719752504
 20
25.023147293359923
 30
0.0
  0
POINT
  5
21E
330
17
100
AcDbEntity
  8
СПИРЕЯ ВАНГУТТА
100
AcDbPoint
 10
73.9796216662405
 20
25.685061511248062
 30
0.0
  0
POINT
  5
21F
330
17
100
AcDbEntity
  8
СПИРЕЯ ВАНГУТТА
100
AcDbPoint
 10
75.11956124482873
 20
26.309751525260843
 30
0.0
  0
POINT
  5
220
330
17
100
AcDbEntity
  8
СПИРЕЯ ВАНГУТТА
100
AcDbPoint
 10
76.28990896026201
 20
26.874823045392436
 30
0.0
  0
POINT
  5
221
330
17
100
AcDbEntity
  8
СПИРЕЯ ВАНГУТТА
100
AcDbPoint
 10
77.49709414503819
 20
27.35510537648375
 30
0.0
  0
POINT
  5
222
330
17
100
AcDbEntity
  8
СПИРЕЯ ВАНГУТТА
100
AcDbPoint
 10
78.74289568041272
 20
27.722633613789995
 30
0.0
  0
POINT
  5
223
330
17
100
AcDbEntity
  8
СПИРЕЯ ВАНГУТТА
100
AcDbPoint
 10
80.02206606776227
 20
27.948000451572955
 30
0.0
  0
POINT
  5
224
330
17
100
AcDbEntity
  8
СПИРЕЯ ВАНГУТТА
100
AcDbPoint
 10
81.32023217585837
 20
27.982972337918227
 30
0.0
  0
POINT
  5
225
330
17
100
AcDbEntity
  8
СПИРЕЯ ВАНГУТТА
100
AcDbPoint
 10
82.6116930555032
 20
27.850238989759454
 30
0.0
  0
POINT
  5
226
330
17
100
AcDbEntity
  8
СПИРЕЯ ВАНГУТТА
100
AcDbPoint
 10
83.87816193179772
 20
27.562503063178074
 30
0.0
  0
POINT
  5
227
330
17
100
AcDbEntity
  8
СПИРЕЯ ВАНГУТТА
100
AcDbPoint
 10
85.10533458232028
 20
27.13571432617938
 30
0.0
  0
POINT
  5
228
330
17
100
AcDbEntity
  8
СПИРЕЯ ВАНГУТТА
100
AcDbPoint
 10
86.29128404829781
 20
26.604185498415973
 30
0.0
  0
POINT
  5
229
330
17
100
AcDbEntity
  8
СПИРЕЯ ВАНГУТТА
100
AcDbPoint
 10
87.44431160290205
 20
26.004327008291778
 30
0.0
  0
POINT
  5
22A
330
17
100
AcDbEntity
  8
СПИРЕЯ ВАНГУТТА
100
AcDbPoint
 10
89.68731491633272
 20
24.69004018236859
 30
0.0
  0
POINT
  5
22B
330
17
100
AcDbEntity
  8
СПИРЕЯ ВАНГУТТА
100
AcDbPoint
 10
90.79823018079155
 20
24.014860743113818
 30
0.0
  0
POINT
  5
22C
330
17
100
AcDbEntity
  8
СПИРЕЯ ВАНГУТТА
100
AcDbPoint
 10
91.91657368613279
 20
23.352092781947363
 30
0.0
  0
POINT
  5
22D
330
17
100
AcDbEntity
  8
СПИРЕЯ ВАНГУТТА
100
AcDbPoint
 10
93.05409961073164
 20
22.722963360645302
 30
0.0
  0
POINT
  5
22E
330
17
100
AcDbEntity
  8
СПИРЕЯ ВАНГУТТА
100
AcDbPoint
 10
94.22271379832667
 20
22.154164874695013
 30
0.0
  0
POINT
  5
22F
330
17
100
AcDbEntity
  8
СПИРЕЯ ВАНГУТТА
100
AcDbPoint
 10
95.42802001463795
 20
21.66906596621717
 30
0.0
  0
POINT
  5
230
330
17
100
AcDbEntity
  8
СПИРЕЯ ВАНГУТТА
100
AcDbPoint
 10
96.67203204646945
 20
21.29563752965724
 30
0.0
  0
POINT
  5
231
330
17
100
AcDbEntity
  8
СПИРЕЯ ВАНГУТТА
100
AcDbPoint
 10
97.94954121162786
 20
21.061140456640132
 30
0.0
  0
POINT
  5
232
330
17
100
AcDbEntity
  8
СПИРЕЯ ВАНГУТТА
100
AcDbPoint
 10
99.24715420292728
 20
21.013141896932297
 30
0.0
  0
POINT
  5
233
330
17
100
AcDbEntity
  8
СПИРЕЯ ВАНГУТТА
100
AcDbPoint
 10
100.53940745945279
 20
21.138346900456998
 30
0.0
  0
POINT
  5
234
330
17
100
AcDbEntity
  8
СПИРЕЯ ВАНГУТТА
100
AcDbPoint
 10
101.80729829785446
 20
21.41922579337469
 30
0.0
  0
POINT
  5
235
330
17
100
AcDbEntity
  8
СПИРЕЯ ВАНГУТТА
100
AcDbPoint
 10
103.03813942038494
 20
21.83529775373316
 30
0.0
  0
POINT
  5
236
330
17
100
AcDbEntity
  8
СПИРЕЯ ВАНГУТТА
100
AcDbPoint
 10
104.22582241420072
 20
22.363099615677886
 30
0.0
  0
POINT
  5
237
330
17
100
AcDbEntity
  8
СПИРЕЯ ВАНГУТТА
100
AcDbPoint
 10
105.38026844839256
 20
22.960261642411893
 30
0.0
  0
POINT
  5
238
330
17
100
AcDbEntity
  8
СПИРЕЯ ВАНГУТТА
100
AcDbPoint
 10
106.50989061342817
 20
23.603408995348605
 30
0.0
  0
POINT
  5
239
330
17
100
AcDbEntity
  8
СПИРЕЯ ВАНГУТТА
100
AcDbPoint
 10
107.62477789959925
 20
24.27195178115768
 30
0.0
  0
POINT
  5
23A
330
17
100
AcDbEntity
  8
СПИРЕЯ ВАНГУТТА
100
AcDbPoint
 10
108.73569316405806
 20
24.94713122041245
 30
0.0
  0
POINT
  5
23B
330
17
100
AcDbEntity
  8
СПИРЕЯ ВАНГУТТА
100
AcDbPoint
 10
1.2679082152752241
 20
26.194220480292767
 30
0.0
  0
POINT
  5
23C
330
17
100
AcDbEntity
  8
СПИРЕЯ ВАНГУТТА
100
AcDbPoint
 10
2.425280546291017
 20
26.846308850441872
 30
0.0
  0
POINT
  5
23D
330
17
100
AcDbEntity
  8
СПИРЕЯ ВАНГУТТА
100
AcDbPoint
 10
3.6237564134229103
 20
27.455769982700136
 30
0.0
  0
POINT
  5
23E
330
17
100
AcDbEntity
  8
СПИРЕЯ ВАНГУТТА
100
AcDbPoint
 10
4.8780702004275645
 20
27.985824229128706
 30
0.0
  0
POINT
  5
23F
330
17
100
AcDbEntity
  8
СПИРЕЯ ВАНГУТТА
100
AcDbPoint
 10
6.191328994483753
 20
28.40656027688954
 30
0.0
  0
POINT
  5
240
330
17
100
AcDbEntity
  8
СПИРЕЯ ВАНГУТТА
100
AcDbPoint
 10
7.557630230016611
 20
28.68676999299086
 30
0.0
  0
POINT
  5
241
330
17
100
AcDbEntity
  8
СПИРЕЯ ВАНГУТТА
100
AcDbPoint
 10
8.960348033512147
 20
28.798051060749447
 30
0.0
  0
POINT
  5
242
330
17
100
AcDbEntity
  8
СПИРЕЯ ВАНГУТТА
100
AcDbPoint
 10
10.364081714811164
 20
28.6990041845104
 30
0.0
  0
POINT
  5
243
330
17
100
AcDbEntity
  8
СПИРЕЯ ВАНГУТТА
100
AcDbPoint
 10
11.733039233844345
 20
28.426083744547434
 30
0.0
  0
POINT
  5
244
330
17
100
AcDbEntity
  8
СПИРЕЯ ВАНГУТТА
100
AcDbPoint
 10
13.048979346664794
 20
28.011443081287407
 30
0.0
  0
POINT
  5
245
330
17
100
AcDbEntity
  8
СПИРЕЯ ВАНГУТТА
100
AcDbPoint
 10
14.307050069534471
 20
27.488261634428806
 30
0.0
  0
POINT
  5
246
330
17
100
AcDbEntity
  8
СПИРЕЯ ВАНГУТТА
100
AcDbPoint
 10
15.508527698722334
 20
26.8828719272769
 30
0.0
  0
POINT
  5
247
330
17
100
AcDbEntity
  8
СПИРЕЯ ВАНГУТТА
100
AcDbPoint
 10
16.66765702454896
 20
26.23218404952554
 30
0.0
  0
POINT
  5
248
330
17
100
AcDbEntity
  8
СПИРЕЯ ВАНГУТТА
100
AcDbPoint
 10
17.797007903761752
 20
25.559536994068957
 30
0.0
  0
POINT
  5
249
330
17
100
AcDbEntity
  8
СПИРЕЯ ВАНГУТТА
100
AcDbPoint
 10
18.90841565503739
 20
24.8840584795902
 30
0.0
  0
POINT
  5
24A
330
17
100
AcDbEntity
  8
СПИРЕЯ ВАНГУТТА
100
AcDbPoint
 10
20.014063992173337
 20
24.223218820347576
 30
0.0
  0
POINT
  5
24B
330
17
100
AcDbEntity
  8
СПИРЕЯ ВАНГУТТА
100
AcDbPoint
 10
21.121436988886643
 20
23.59696990393044
 30
0.0
  0
POINT
  5
24C
330
17
100
AcDbEntity
  8
СПИРЕЯ ВАНГУТТА
100
AcDbPoint
 10
22.239442608378354
 20
23.02471104932679
 30
0.0
  0
POINT
  5
24D
330
17
100
AcDbEntity
  8
СПИРЕЯ ВАНГУТТА
100
AcDbPoint
 10
23.37646490862394
 20
22.53432906260102
 30
0.0
  0
POINT
  5
24E
330
17
100
AcDbEntity
  8
СПИРЕЯ ВАНГУТТА
100
AcDbPoint
 10
24.53643984341277
 20
22.15668365124528
 30
0.0
  0
POINT
  5
24F
330
17
100
AcDbEntity
  8
СПИРЕЯ ВАНГУТТА
100
AcDbPoint
 10
25.71392525742454
 20
21.908220523252353
 30
0.0
  0
POINT
  5
250
330
17
100
AcDbEntity
  8
СПИРЕЯ ВАНГУТТА
100
AcDbPoint
 10
26.899721415094717
 20
21.805774142593616
 30
0.0
  0
POINT
  5
251
330
17
100
AcDbEntity
  8
СПИРЕЯ ВАНГУТТА
100
AcDbPoint
 10
28.087224309910887
 20
21.876438234440258
 30
0.0
  0
POINT
  5
252
330
17
100
AcDbEntity
  8
СПИРЕЯ ВАНГУТТА
100
AcDbPoint
 10
29.26334803053795
 20
22.105137906354067
 30
0.0
  0
POINT
  5
253
330
17
100
AcDbEntity
  8
СПИРЕЯ ВАНГУТТА
100
AcDbPoint
 10
30.42794135336379
 20
22.46615745581363
 30
0.0
  0
POINT
  5
254
330
17
100
AcDbEntity
  8
СПИРЕЯ ВАНГУТТА
100
AcDbPoint
 10
31.57063635394597
 20
22.936069304586518
 30
0.0
  0
POINT
  5
255
330
17
100
AcDbEntity
  8
СПИРЕЯ ВАНГУТТА
100
AcDbPoint
 10
32.692879289669676
 20
23.494191005645373
 30
0.0
  0
POINT
  5
256
330
17
100
AcDbEntity
  8
СПИРЕЯ ВАНГУТТА
100
AcDbPoint
 10
33.80095239113713
 20
24.11418375877893
 30
0.0
  0
POINT
  5
257
330
17
100
AcDbEntity
  8
СПИРЕЯ ВАНГУТТА
100
AcDbPoint
 10
34.90514647895763
 20
24.770746017667985
 30
0.0
  0
POINT
  5
258
330
17
100
AcDbEntity
  8
СПИРЕЯ ВАНГУТТА
100
AcDbPoint
 10
36.014888559221156
 20
25.445213809423876
 30
0.0
  0
POINT
  5
259
330
17
100
AcDbEntity
  8
СПИРЕЯ ВАНГУТТА
100
AcDbPoint
 10
37.13955947005198
 20
26.118589274206897
 30
0.0
  0
POINT
  5
25A
330
17
100
AcDbEntity
  8
СПИРЕЯ ВАНГУТТА
100
AcDbPoint
 10
38.292908019041704
 20
26.773163302011543
 30
0.0
  0
POINT
  5
25B
330
17
100
AcDbEntity
  8
СПИРЕЯ ВАНГУТТА
100
AcDbPoint
 10
39.48688595395025
 20
27.3875272173156
 30
0.0
  0
POINT
  5
25C
330
17
100
AcDbEntity
  8
СПИРЕЯ ВАНГУТТА
100
AcDbPoint
 10
40.732190787021764
 20
27.934525998453083
 30
0.0
  0
POINT
  5
25D
330
17
100
AcDbEntity
  8
СПИРЕЯ ВАНГУТТА
100
AcDbPoint
 10
42.04008334392116
 20
28.367423719211388
 30
0.0
  0
POINT
  5
25E
330
17
100
AcDbEntity
  8
СПИРЕЯ ВАНГУТТА
100
AcDbPoint
 10
43.40108373029317
 20
28.66216694347177
 30
0.0
  0
POINT
  5
25F
330
17
100
AcDbEntity
  8
СПИРЕЯ ВАНГУТТА
100
AcDbPoint
 10
44.80174299492606
 20
28.7901342114871
 30
0.0
  0
POINT
  5
260
330
17
100
AcDbEntity
  8
СПИРЕЯ ВАНГУТТА
100
AcDbPoint
 10
46.207481102375716
 20
28.723336877952082
 30
0.0
  0
POINT
  5
261
330
17
100
AcDbEntity
  8
СПИРЕЯ ВАНГУТТА
100
AcDbPoint
 10
47.58303425667547
 20
28.46472579327657
 30
0.0
  0
POINT
  5
262
330
17
100
AcDbEntity
  8
СПИРЕЯ ВАНГУТТА
100
AcDbPoint
 10
48.903058519983766
 20
28.062619723995084
 30
0.0
  0
POINT
  5
263
330
17
100
AcDbEntity
  8
СПИРЕЯ ВАНГУТТА
100
AcDbPoint
 10
50.16667826646446
 20
27.54897691203154
 30
0.0
  0
POINT
  5
264
330
17
100
AcDbEntity
  8
СПИРЕЯ ВАНГУТТА
100
AcDbPoint
 10
51.37613350275216
 20
26.955978521129676
 30
0.0
  0
POINT
  5
265
330
17
100
AcDbEntity
  8
СПИРЕЯ ВАНГУТТА
100
AcDbPoint
 10
58.11445450021314
 20
23.087303597013932
 30
0.0
  0
POINT
  5
266
330
17
100
AcDbEntity
  8
СПИРЕЯ ВАНГУТТА
100
AcDbPoint
 10
59.247320833750926
 20
22.58297802722567
 30
0.0
  0
POINT
  5
267
330
17
100
AcDbEntity
  8
СПИРЕЯ ВАНГУТТА
100
AcDbPoint
 10
60.4042177453724
 20
22.19057219010724
 30
0.0
  0
POINT
  5
268
330
17
100
AcDbEntity
  8
СПИРЕЯ ВАНГУТТА
100
AcDbPoint
 10
61.58004060471607
 20
21.929390999155157
 30
0.0
  0
POINT
  5
269
330
17
100
AcDbEntity
  8
СПИРЕЯ ВАНГУТТА
100
AcDbPoint
 10
62.766010040431134
 20
21.813303562583386
 30
0.0
  0
POINT
  5
26A
330
17
100
AcDbEntity
  8
СПИРЕЯ ВАНГУТТА
100
AcDbPoint
 10
63.95469647050534
 20
21.85502362858714
 30
0.0
  0
POINT
  5
26B
330
17
100
AcDbEntity
  8
СПИРЕЯ ВАНГУТТА
100
AcDbPoint
 10
65.13249199580461
 20
22.07129156929448
 30
0.0
  0
POINT
  5
26C
330
17
100
AcDbEntity
  8
СПИРЕЯ ВАНГУТТА
100
AcDbPoint
 10
66.29757820084936
 20
22.42060778670067
 30
0.0
  0
POINT
  5
26D
330
17
100
AcDbEntity
  8
СПИРЕЯ ВАНГУТТА
100
AcDbPoint
 10
67.44223833083537
 20
22.880808107394767
 30
0.0
  0
POINT
  5
26E
330
17
100
AcDbEntity
  8
СПИРЕЯ ВАНГУТТА
100
AcDbPoint
 10
68.56776828144808
 20
23.428185548424434
 30
0.0
  0
POINT
  5
26F
330
17
100
AcDbEntity
  8
СПИРЕЯ ВАНГУТТА
100
AcDbPoint
 10
69.67763826715263
 20
24.041479896133435
 30
0.0
  0
POINT
  5
270
330
17
100
AcDbEntity
  8
СПИРЕЯ ВАНГУТТА
100
AcDbPoint
 10
70.78143508937735
 20
24.695553068104783
 30
0.0
  0
POINT
  5
271
330
17
100
AcDbEntity
  8
СПИРЕЯ ВАНГУТТА
100
AcDbPoint
 10
71.88981452575423
 20
25.369197736476426
 30
0.0
  0
POINT
  5
272
330
17
100
AcDbEntity
  8
СПИРЕЯ ВАНГУТТА
100
AcDbPoint
 10
73.01334234560018
 20
26.044209271153562
 30
0.0
  0
POINT
  5
273
330
17
100
AcDbEntity
  8
СПИРЕЯ ВАНГУТТА
100
AcDbPoint
 10
74.16102658961566
 20
26.70025556049109
 30
0.0
  0
POINT
  5
274
330
17
100
AcDbEntity
  8
СПИРЕЯ ВАНГУТТА
100
AcDbPoint
 10
75.35003985485613
 20
27.319236141030242
 30
0.0
  0
POINT
  5
275
330
17
100
AcDbEntity
  8
СПИРЕЯ ВАНГУТТА
100
AcDbPoint
 10
76.58950916459611
 20
27.875029350012504
 30
0.0
  0
POINT
  5
276
330
17
100
AcDbEntity
  8
СПИРЕЯ ВАНГУТТА
100
AcDbPoint
 10
77.8888652161359
 20
28.328168461372837
 30
0.0
  0
POINT
  5
277
330
17
100
AcDbEntity
  8
СПИРЕЯ ВАНГУТТА
100
AcDbPoint
 10
79.24628404440924
 20
28.63767567307497
 30
0.0
  0
POINT
  5
278
330
17
100
AcDbEntity
  8
СПИРЕЯ ВАНГУТТА
100
AcDbPoint
 10
80.64314925502414
 20
28.782023911338214
 30
0.0
  0
POINT
  5
279
330
17
100
AcDbEntity
  8
СПИРЕЯ ВАНГУТТА
100
AcDbPoint
 10
82.05052198197288
 20
28.74432647508012
 30
0.0
  0
POINT
  5
27A
330
17
100
AcDbEntity
  8
СПИРЕЯ ВАНГУТТА
100
AcDbPoint
 10
83.4304117876202
 20
28.503889133748668
 30
0.0
  0
POINT
  5
27B
330
17
100
AcDbEntity
  8
СПИРЕЯ ВАНГУТТА
100
AcDbPoint
 10
84.75899487193988
 20
28.113058480201023
 30
0.0
  0
POINT
  5
27C
330
17
100
AcDbEntity
  8
СПИРЕЯ ВАНГУТТА
100
AcDbPoint
 10
86.02628512685523
 20
27.60964246918265
 30
0.0
  0
POINT
  5
27D
330
17
100
AcDbEntity
  8
СПИРЕЯ ВАНГУТТА
100
AcDbPoint
 10
87.24096740770496
 20
27.023815896870733
 30
0.0
  0
POINT
  5
27E
330
17
100
AcDbEntity
  8
СПИРЕЯ ВАНГУТТА
100
AcDbPoint
 10
89.54413455308143
 20
25.713215384254713
 30
0.0
  0
POINT
  5
27F
330
17
100
AcDbEntity
  8
СПИРЕЯ ВАНГУТТА
100
AcDbPoint
 10
90.65826758810354
 20
25.03609062548509
 30
0.0
  0
POINT
  5
280
330
17
100
AcDbEntity
  8
СПИРЕЯ ВАНГУТТА
100
AcDbPoint
 10
91.76354640147996
 20
24.370849406389876
 30
0.0
  0
POINT
  5
281
330
17
100
AcDbEntity
  8
СПИРЕЯ ВАНГУТТА
100
AcDbPoint
 10
92.87120075023957
 20
23.73536561199162
 30
0.0
  0
POINT
  5
282
330
17
100
AcDbEntity
  8
СПИРЕЯ ВАНГУТТА
100
AcDbPoint
 10
93.98944143787871
 20
23.14984813782567
 30
0.0
  0
POINT
  5
283
330
17
100
AcDbEntity
  8
СПИРЕЯ ВАНГУТТА
100
AcDbPoint
 10
95.12061463659138
 20
22.637878792794748
 30
0.0
  0
POINT
  5
284
330
17
100
AcDbEntity
  8
СПИРЕЯ ВАНГУТТА
100
AcDbPoint
 10
96.2719659344446
 20
22.22434255794969
 30
0.0
  0
POINT
  5
285
330
17
100
AcDbEntity
  8
СПИРЕЯ ВАНГУТТА
100
AcDbPoint
 10
97.44651438638552
 20
21.95034989026822
 30
0.0
  0
POINT
  5
286
330
17
100
AcDbEntity
  8
СПИРЕЯ ВАНГУТТА
100
AcDbPoint
 10
98.63228286196023
 20
21.820639847739706
 30
0.0
  0
POINT
  5
287
330
17
100
AcDbEntity
  8
СПИРЕЯ ВАНГУТТА
100
AcDbPoint
 10
99.82106519465803
 20
21.844115897339513
 30
0.0
  0
POINT
  5
288
330
17
100
AcDbEntity
  8
СПИРЕЯ ВАНГУТТА
100
AcDbPoint
 10
101.00168232154809
 20
22.03729495345363
 30
0.0
  0
POINT
  5
289
330
17
100
AcDbEntity
  8
СПИРЕЯ ВАНГУТТА
100
AcDbPoint
 10
102.16456726071733
 20
22.37405864283198
 30
0.0
  0
POINT
  5
28A
330
17
100
AcDbEntity
  8
СПИРЕЯ ВАНГУТТА
100
AcDbPoint
 10
103.31386102959169
 20
22.825496930457273
 30
0.0
  0
POINT
  5
28B
330
17
100
AcDbEntity
  8
СПИРЕЯ ВАНГУТТА
100
AcDbPoint
 10
104.4411734925862
 20
23.365000137754855
 30
0.0
  0
POINT
  5
28C
330
17
100
AcDbEntity
  8
СПИРЕЯ ВАНГУТТА
100
AcDbPoint
 10
105.5535397329369
 20
23.970150034692086
 30
0.0
  0
POINT
  5
28D
330
17
100
AcDbEntity
  8
СПИРЕЯ ВАНГУТТА
100
AcDbPoint
 10
106.65772535187433
 20
24.62035741540541
 30
0.0
  0
POINT
  5
28E
330
17
100
AcDbEntity
  8
СПИРЕЯ ВАНГУТТА
100
AcDbPoint
 10
107.76474049228726
 20
25.293181663528955
 30
0.0
  0
POINT
  5
28F
330
17
100
AcDbEntity
  8
СПИРЕЯ ВАНГУТТА
100
AcDbPoint
 10
108.88587582968259
 20
25.969090850377746
 30
0.0
  0
POINT
  5
291
330
17
100
AcDbEntity
  8
СИРЕНЬ ОБЫКНОВЕННАЯ
100
AcDbPoint
 10
0.9709526717708102
 20
35.1539495568835
 30
0.0
  0
POINT
  5
292
330
17
100
AcDbEntity
  8
СИРЕНЬ ОБЫКНОВЕННАЯ
100
AcDbPoint
 10
2.075726877321693
 20
35.81312344921586
 30
0.0
  0
POINT
  5
293
330
17
100
AcDbEntity
  8
СИРЕНЬ ОБЫКНОВЕННАЯ
100
AcDbPoint
 10
3.183335184149271
 20
36.437283241724415
 30
0.0
  0
POINT
  5
294
330
17
100
AcDbEntity
  8
СИРЕНЬ ОБЫКНОВЕННАЯ
100
AcDbPoint
 10
4.301927676379223
 20
37.006603415979725
 30
0.0
  0
POINT
  5
295
330
17
100
AcDbEntity
  8
СИРЕНЬ ОБЫКНОВЕННАЯ
100
AcDbPoint
 10
5.441669776402829
 20
37.48837455786743
 30
0.0
  0
POINT
  5
296
330
17
100
AcDbEntity
  8
СИРЕНЬ ОБЫКНОВЕННАЯ
100
AcDbPoint
 10
6.602541120188032
 20
37.86030525663131
 30
0.0
  0
POINT
  5
297
330
17
100
AcDbEntity
  8
СИРЕНЬ ОБЫКНОВЕННАЯ
100
AcDbPoint
 10
7.7802179261081035
 20
38.10232854012847
 30
0.0
  0
POINT
  5
298
330
17
100
AcDbEntity
  8
СИРЕНЬ ОБЫКНОВЕННАЯ
100
AcDbPoint
 10
8.966573993556832
 20
38.19806317410107
 30
0.0
  0
POINT
  5
299
330
17
100
AcDbEntity
  8
СИРЕНЬ ОБЫКНОВЕННАЯ
100
AcDbPoint
 10
10.153498936963448
 20
38.112922568176
 30
0.0
  0
POINT
  5
29A
330
17
100
AcDbEntity
  8
СИРЕНЬ ОБЫКНОВЕННАЯ
100
AcDbPoint
 10
11.3313633835975
 20
37.877324075867854
 30
0.0
  0
POINT
  5
29B
330
17
100
AcDbEntity
  8
СИРЕНЬ ОБЫКНОВЕННАЯ
100
AcDbPoint
 10
12.493132415704483
 20
37.51109839111051
 30
0.0
  0
POINT
  5
29C
330
17
100
AcDbEntity
  8
СИРЕНЬ ОБЫКНОВЕННАЯ
100
AcDbPoint
 10
13.63484351989772
 20
37.03631867596747
 30
0.0
  0
POINT
  5
29D
330
17
100
AcDbEntity
  8
СИРЕНЬ ОБЫКНОВЕННАЯ
100
AcDbPoint
 10
14.754770261818534
 20
36.471542863481986
 30
0.0
  0
POINT
  5
29E
330
17
100
AcDbEntity
  8
СИРЕНЬ ОБЫКНОВЕННАЯ
100
AcDbPoint
 10
15.862611922638836
 20
35.84946846637384
 30
0.0
  0
POINT
  5
29F
330
17
100
AcDbEntity
  8
СИРЕНЬ ОБЫКНОВЕННАЯ
100
AcDbPoint
 10
16.96700279831259
 20
35.1916585181332
 30
0.0
  0
POINT
  5
2A0
330
17
100
AcDbEntity
  8
СИРЕНЬ ОБЫКНОВЕННАЯ
100
AcDbPoint
 10
18.077425575954592
 20
34.51677815410242
 30
0.0
  0
POINT
  5
2A1
330
17
100
AcDbEntity
  8
СИРЕНЬ ОБЫКНОВЕННАЯ
100
AcDbPoint
 10
19.203475140208294
 20
33.84374583653456
 30
0.0
  0
POINT
  5
2A2
330
17
100
AcDbEntity
  8
СИРЕНЬ ОБЫКНОВЕННАЯ
100
AcDbPoint
 10
20.359092432534812
 20
33.190260702495856
 30
0.0
  0
POINT
  5
2A3
330
17
100
AcDbEntity
  8
СИРЕНЬ ОБЫКНОВЕННАЯ
100
AcDbPoint
 10
21.55531821322975
 20
32.578345323805564
 30
0.0
  0
POINT
  5
2A4
330
17
100
AcDbEntity
  8
СИРЕНЬ ОБЫКНОВЕННАЯ
100
AcDbPoint
 10
22.80512680740615
 20
32.03981483580461
 30
0.0
  0
POINT
  5
2A5
330
17
100
AcDbEntity
  8
СИРЕНЬ ОБЫКНОВЕННАЯ
100
AcDbPoint
 10
24.115703003372662
 20
31.61299310212831
 30
0.0
  0
POINT
  5
2A6
330
17
100
AcDbEntity
  8
СИРЕНЬ ОБЫКНОВЕННАЯ
100
AcDbPoint
 10
25.47935170659954
 20
31.325509163195385
 30
0.0
  0
POINT
  5
2A7
330
17
100
AcDbEntity
  8
СИРЕНЬ ОБЫКНОВЕННАЯ
100
AcDbPoint
 10
26.881044666112274
 20
31.2058831528548
 30
0.0
  0
POINT
  5
2A8
330
17
100
AcDbEntity
  8
СИРЕНЬ ОБЫКНОВЕННАЯ
100
AcDbPoint
 10
28.285785149763086
 20
31.288806793306264
 30
0.0
  0
POINT
  5
2A9
330
17
100
AcDbEntity
  8
СИРЕНЬ ОБЫКНОВЕННАЯ
100
AcDbPoint
 10
29.659327319017557
 20
31.554911986336215
 30
0.0
  0
POINT
  5
2AA
330
17
100
AcDbEntity
  8
СИРЕНЬ ОБЫКНОВЕННАЯ
100
AcDbPoint
 10
30.976022148205182
 20
31.962958386386685
 30
0.0
  0
POINT
  5
2AB
330
17
100
AcDbEntity
  8
СИРЕНЬ ОБЫКНОВЕННАЯ
100
AcDbPoint
 10
32.236866911615685
 20
32.48137454484236
 30
0.0
  0
POINT
  5
2AC
330
17
100
AcDbEntity
  8
СИРЕНЬ ОБЫКНОВЕННАЯ
100
AcDbPoint
 10
33.44233236185234
 20
33.08057150500315
 30
0.0
  0
POINT
  5
2AD
330
17
100
AcDbEntity
  8
СИРЕНЬ ОБЫКНОВЕННАЯ
100
AcDbPoint
 10
34.60322059583537
 20
33.72985513893092
 30
0.0
  0
POINT
  5
2AE
330
17
100
AcDbEntity
  8
СИРЕНЬ ОБЫКНОВЕННАЯ
100
AcDbPoint
 10
35.73379018964984
 20
34.402042397182434
 30
0.0
  0
POINT
  5
2AF
330
17
100
AcDbEntity
  8
СИРЕНЬ ОБЫКНОВЕННАЯ
100
AcDbPoint
 10
36.845878638303965
 20
35.07793348393611
 30
0.0
  0
POINT
  5
2B0
330
17
100
AcDbEntity
  8
СИРЕНЬ ОБЫКНОВЕННАЯ
100
AcDbPoint
 10
37.951883702114344
 20
35.74013748252019
 30
0.0
  0
POINT
  5
2B1
330
17
100
AcDbEntity
  8
СИРЕНЬ ОБЫКНОВЕННАЯ
100
AcDbPoint
 10
39.05953509336087
 20
36.36878339296954
 30
0.0
  0
POINT
  5
2B2
330
17
100
AcDbEntity
  8
СИРЕНЬ ОБЫКНОВЕННАЯ
100
AcDbPoint
 10
40.176951599463756
 20
36.943986637739805
 30
0.0
  0
POINT
  5
2B3
330
17
100
AcDbEntity
  8
СИРЕНЬ ОБЫКНОВЕННАЯ
100
AcDbPoint
 10
41.31125266820794
 20
37.44298741773948
 30
0.0
  0
POINT
  5
2B4
330
17
100
AcDbEntity
  8
СИРЕНЬ ОБЫКНОВЕННАЯ
100
AcDbPoint
 10
42.47033223497783
 20
37.826357240520565
 30
0.0
  0
POINT
  5
2B5
330
17
100
AcDbEntity
  8
СИРЕНЬ ОБЫКНОВЕННАЯ
100
AcDbPoint
 10
43.64762204163016
 20
38.0812751505134
 30
0.0
  0
POINT
  5
2B6
330
17
100
AcDbEntity
  8
СИРЕНЬ ОБЫКНОВЕННАЯ
100
AcDbPoint
 10
44.83286714041882
 20
38.19043696276553
 30
0.0
  0
POINT
  5
2B7
330
17
100
AcDbEntity
  8
СИРЕНЬ ОБЫКНОВЕННАЯ
100
AcDbPoint
 10
46.0209571651975
 20
38.13424631386847
 30
0.0
  0
POINT
  5
2B8
330
17
100
AcDbEntity
  8
СИРЕНЬ ОБЫКНОВЕННАЯ
100
AcDbPoint
 10
47.197913824993584
 20
37.911766600927606
 30
0.0
  0
POINT
  5
2B9
330
17
100
AcDbEntity
  8
СИРЕНЬ ОБЫКНОВЕННАЯ
100
AcDbPoint
 10
48.36275672078479
 20
37.55660711920642
 30
0.0
  0
POINT
  5
2BA
330
17
100
AcDbEntity
  8
СИРЕНЬ ОБЫКНОВЕННАЯ
100
AcDbPoint
 10
49.50643467522655
 20
37.09155507871447
 30
0.0
  0
POINT
  5
2BB
330
17
100
AcDbEntity
  8
СИРЕНЬ ОБЫКНОВЕННАЯ
100
AcDbPoint
 10
50.630991839750926
 20
36.54008166681445
 30
0.0
  0
POINT
  5
2BC
330
17
100
AcDbEntity
  8
СИРЕНЬ ОБЫКНОВЕННАЯ
100
AcDbPoint
 10
51.73929451153989
 20
35.92216678375326
 30
0.0
  0
POINT
  5
2BD
330
17
100
AcDbEntity
  8
СИРЕНЬ ОБЫКНОВЕННАЯ
100
AcDbPoint
 10
58.66055053995288
 20
32.0944550605516
 30
0.0
  0
POINT
  5
2BE
330
17
100
AcDbEntity
  8
СИРЕНЬ ОБЫКНОВЕННАЯ
100
AcDbPoint
 10
59.96447056564015
 20
31.652189137055256
 30
0.0
  0
POINT
  5
2BF
330
17
100
AcDbEntity
  8
СИРЕНЬ ОБЫКНОВЕННАЯ
100
AcDbPoint
 10
61.32409397510652
 20
31.349995126426755
 30
0.0
  0
POINT
  5
2C0
330
17
100
AcDbEntity
  8
СИРЕНЬ ОБЫКНОВЕННАЯ
100
AcDbPoint
 10
62.722444149051654
 20
31.213896793462936
 30
0.0
  0
POINT
  5
2C1
330
17
100
AcDbEntity
  8
СИРЕНЬ ОБЫКНОВЕННАЯ
100
AcDbPoint
 10
64.12917060496711
 20
31.26456496002521
 30
0.0
  0
POINT
  5
2C2
330
17
100
AcDbEntity
  8
СИРЕНЬ ОБЫКНОВЕННАЯ
100
AcDbPoint
 10
65.50672881797796
 20
31.515673749606883
 30
0.0
  0
POINT
  5
2C3
330
17
100
AcDbEntity
  8
СИРЕНЬ ОБЫКНОВЕННАЯ
100
AcDbPoint
 10
66.83008877911877
 20
31.91182268469602
 30
0.0
  0
POINT
  5
2C4
330
17
100
AcDbEntity
  8
СИРЕНЬ ОБЫКНОВЕННАЯ
100
AcDbPoint
 10
68.09648428698502
 20
32.420684061684334
 30
0.0
  0
POINT
  5
2C5
330
17
100
AcDbEntity
  8
СИРЕНЬ ОБЫКНОВЕННАЯ
100
AcDbPoint
 10
69.30859161070998
 20
33.010024487465095
 30
0.0
  0
POINT
  5
2C6
330
17
100
AcDbEntity
  8
СИРЕНЬ ОБЫКНОВЕННАЯ
100
AcDbPoint
 10
70.47434279938909
 20
33.653941828794785
 30
0.0
  0
POINT
  5
2C7
330
17
100
AcDbEntity
  8
СИРЕНЬ ОБЫКНОВЕННАЯ
100
AcDbPoint
 10
71.60735351229626
 20
34.325203200850744
 30
0.0
  0
POINT
  5
2C8
330
17
100
AcDbEntity
  8
СИРЕНЬ ОБЫКНОВЕННАЯ
100
AcDbPoint
 10
72.72080460483703
 20
35.00191741098865
 30
0.0
  0
POINT
  5
2C9
330
17
100
AcDbEntity
  8
СИРЕНЬ ОБЫКНОВЕННАЯ
100
AcDbPoint
 10
73.82590890613538
 20
35.665900312791905
 30
0.0
  0
POINT
  5
2CA
330
17
100
AcDbEntity
  8
СИРЕНЬ ОБЫКНОВЕННАЯ
100
AcDbPoint
 10
74.93524390474906
 20
36.300045737304714
 30
0.0
  0
POINT
  5
2CB
330
17
100
AcDbEntity
  8
СИРЕНЬ ОБЫКНОВЕННАЯ
100
AcDbPoint
 10
76.05195116216962
 20
36.88141817040062
 30
0.0
  0
POINT
  5
2CC
330
17
100
AcDbEntity
  8
СИРЕНЬ ОБЫКНОВЕННАЯ
100
AcDbPoint
 10
77.18397188523707
 20
37.389561722035324
 30
0.0
  0
POINT
  5
2CD
330
17
100
AcDbEntity
  8
СИРЕНЬ ОБЫКНОВЕННАЯ
100
AcDbPoint
 10
78.33809582699017
 20
37.7925279245702
 30
0.0
  0
POINT
  5
2CE
330
17
100
AcDbEntity
  8
СИРЕНЬ ОБЫКНОВЕННАЯ
100
AcDbPoint
 10
79.51327934331258
 20
38.06010998177603
 30
0.0
  0
POINT
  5
2CF
330
17
100
AcDbEntity
  8
СИРЕНЬ ОБЫКНОВЕННАЯ
100
AcDbPoint
 10
80.69914898859652
 20
38.18300420231652
 30
0.0
  0
POINT
  5
2D0
330
17
100
AcDbEntity
  8
СИРЕНЬ ОБЫКНОВЕННАЯ
100
AcDbPoint
 10
81.88810847783995
 20
38.152590990247525
 30
0.0
  0
POINT
  5
2D1
330
17
100
AcDbEntity
  8
СИРЕНЬ ОБЫКНОВЕННАЯ
100
AcDbPoint
 10
83.06708175827592
 20
37.94568783424443
 30
0.0
  0
POINT
  5
2D2
330
17
100
AcDbEntity
  8
СИРЕНЬ ОБЫКНОВЕННАЯ
100
AcDbPoint
 10
84.23052384722783
 20
37.602853733804096
 30
0.0
  0
POINT
  5
2D3
330
17
100
AcDbEntity
  8
СИРЕНЬ ОБЫКНОВЕННАЯ
100
AcDbPoint
 10
85.37804716709451
 20
37.14684120191315
 30
0.0
  0
POINT
  5
2D4
330
17
100
AcDbEntity
  8
СИРЕНЬ ОБЫКНОВЕННАЯ
100
AcDbPoint
 10
86.50446921625897
 20
36.60340383905202
 30
0.0
  0
POINT
  5
2D5
330
17
100
AcDbEntity
  8
СИРЕНЬ ОБЫКНОВЕННАЯ
100
AcDbPoint
 10
87.61598364122075
 20
35.99487621135691
 30
0.0
  0
POINT
  5
2D6
330
17
100
AcDbEntity
  8
СИРЕНЬ ОБЫКНОВЕННАЯ
100
AcDbPoint
 10
89.82727750902076
 20
34.6688102999973
 30
0.0
  0
POINT
  5
2D7
330
17
100
AcDbEntity
  8
СИРЕНЬ ОБЫКНОВЕННАЯ
100
AcDbPoint
 10
90.9496088900402
 20
33.993349596055495
 30
0.0
  0
POINT
  5
2D8
330
17
100
AcDbEntity
  8
СИРЕНЬ ОБЫКНОВЕННАЯ
100
AcDbPoint
 10
92.09698343510618
 20
33.335155788805245
 30
0.0
  0
POINT
  5
2D9
330
17
100
AcDbEntity
  8
СИРЕНЬ ОБЫКНОВЕННАЯ
100
AcDbPoint
 10
93.28162631095287
 20
32.71492732255574
 30
0.0
  0
POINT
  5
2DA
330
17
100
AcDbEntity
  8
СИРЕНЬ ОБЫКНОВЕННАЯ
100
AcDbPoint
 10
94.51847608937112
 20
32.15550597533233
 30
0.0
  0
POINT
  5
2DB
330
17
100
AcDbEntity
  8
СИРЕНЬ ОБЫКНОВЕННАЯ
100
AcDbPoint
 10
95.813267840795
 20
31.69150334300174
 30
0.0
  0
POINT
  5
2DC
330
17
100
AcDbEntity
  8
СИРЕНЬ ОБЫКНОВЕННАЯ
100
AcDbPoint
 10
97.1684778092355
 20
31.374692674447882
 30
0.0
  0
POINT
  5
2DD
330
17
100
AcDbEntity
  8
СИРЕНЬ ОБЫКНОВЕННАЯ
100
AcDbPoint
 10
98.56385943579826
 20
31.22210356890452
 30
0.0
  0
POINT
  5
2DE
330
17
100
AcDbEntity
  8
СИРЕНЬ ОБЫКНОВЕННАЯ
100
AcDbPoint
 10
99.97140931929263
 20
31.2511951070339
 30
0.0
  0
POINT
  5
2DF
330
17
100
AcDbEntity
  8
СИРЕНЬ ОБЫКНОВЕННАЯ
100
AcDbPoint
 10
101.35408395646151
 20
31.476585791658795
 30
0.0
  0
POINT
  5
2E0
330
17
100
AcDbEntity
  8
СИРЕНЬ ОБЫКНОВЕННАЯ
100
AcDbPoint
 10
102.68680319764991
 20
31.86168645776107
 30
0.0
  0
POINT
  5
2E1
330
17
100
AcDbEntity
  8
СИРЕНЬ ОБЫКНОВЕННАЯ
100
AcDbPoint
 10
103.95608094048735
 20
32.36004355827201
 30
0.0
  0
POINT
  5
2E2
330
17
100
AcDbEntity
  8
СИРЕНЬ ОБЫКНОВЕННАЯ
100
AcDbPoint
 10
105.17333986318353
 20
32.942350354510104
 30
0.0
  0
POINT
  5
2E3
330
17
100
AcDbEntity
  8
СИРЕНЬ ОБЫКНОВЕННАЯ
100
AcDbPoint
 10
106.34466764518717
 20
33.57942481867761
 30
0.0
  0
POINT
  5
2E4
330
17
100
AcDbEntity
  8
СИРЕНЬ ОБЫКНОВЕННАЯ
100
AcDbPoint
 10
107.48091518286536
 20
34.24836670765518
 30
0.0
  0
POINT
  5
2E5
330
17
100
AcDbEntity
  8
СИРЕНЬ ОБЫКНОВЕННАЯ
100
AcDbPoint
 10
108.59573057137007
 20
34.925901338041186
 30
0.0
  0
POINT
  5
2E6
330
17
100
AcDbEntity
  8
СИРЕНЬ ОБЫКНОВЕННАЯ
100
AcDbPoint
 10
1.1118215059257304
 20
36.17366524547898
 30
0.0
  0
POINT
  5
2E7
330
17
100
AcDbEntity
  8
СИРЕНЬ ОБЫКНОВЕННАЯ
100
AcDbPoint
 10
2.235472624550678
 20
36.8272702618102
 30
0.0
  0
POINT
  5
2E8
330
17
100
AcDbEntity
  8
СИРЕНЬ ОБЫКНОВЕННАЯ
100
AcDbPoint
 10
3.381407781216926
 20
37.44061106888534
 30
0.0
  0
POINT
  5
2E9
330
17
100
AcDbEntity
  8
СИРЕНЬ ОБЫКНОВЕННАЯ
100
AcDbPoint
 10
4.558689608003203
 20
37.990774725742185
 30
0.0
  0
POINT
  5
2EA
330
17
100
AcDbEntity
  8
СИРЕНЬ ОБЫКНОВЕННАЯ
100
AcDbPoint
 10
5.773390666638948
 20
38.45179074728734
 30
0.0
  0
POINT
  5
2EB
330
17
100
AcDbEntity
  8
СИРЕНЬ ОБЫКНОВЕННАЯ
100
AcDbPoint
 10
7.0268789642449905
 20
38.79316844084175
 30
0.0
  0
POINT
  5
2EC
330
17
100
AcDbEntity
  8
СИРЕНЬ ОБЫКНОВЕННАЯ
100
AcDbPoint
 10
8.314377959486443
 20
38.96354351217085
 30
0.0
  0
POINT
  5
2ED
330
17
100
AcDbEntity
  8
СИРЕНЬ ОБЫКНОВЕННАЯ
100
AcDbPoint
 10
9.61254406758254
 20
38.96742927732033
 30
0.0
  0
POINT
  5
2EE
330
17
100
AcDbEntity
  8
СИРЕНЬ ОБЫКНОВЕННАЯ
100
AcDbPoint
 10
10.900835439704672
 20
38.804582550625284
 30
0.0
  0
POINT
  5
2EF
330
17
100
AcDbEntity
  8
СИРЕНЬ ОБЫКНОВЕННАЯ
100
AcDbPoint
 10
12.157535202960887
 20
38.47596208998823
 30
0.0
  0
POINT
  5
2F0
330
17
100
AcDbEntity
  8
СИРЕНЬ ОБЫКНОВЕННАЯ
100
AcDbPoint
 10
13.374115230061523
 20
38.019762645829616
 30
0.0
  0
POINT
  5
2F1
330
17
100
AcDbEntity
  8
СИРЕНЬ ОБЫКНОВЕННАЯ
100
AcDbPoint
 10
14.55313058468605
 20
37.473325954791456
 30
0.0
  0
POINT
  5
2F2
330
17
100
AcDbEntity
  8
СИРЕНЬ ОБЫКНОВЕННАЯ
100
AcDbPoint
 10
15.700484220939897
 20
36.862681611106495
 30
0.0
  0
POINT
  5
2F3
330
17
100
AcDbEntity
  8
СИРЕНЬ ОБЫКНОВЕННАЯ
100
AcDbPoint
 10
16.825130513966624
 20
36.21081953867436
 30
0.0
  0
POINT
  5
2F4
330
17
100
AcDbEntity
  8
СИРЕНЬ ОБЫКНОВЕННАЯ
100
AcDbPoint
 10
17.93746298326658
 20
35.5380080364737
 30
0.0
  0
POINT
  5
2F5
330
17
100
AcDbEntity
  8
СИРЕНЬ ОБЫКНОВЕННАЯ
100
AcDbPoint
 10
19.048773525818092
 20
34.8634890477164
 30
0.0
  0
POINT
  5
2F6
330
17
100
AcDbEntity
  8
СИРЕНЬ ОБЫКНОВЕННАЯ
100
AcDbPoint
 10
20.17142947004126
 20
34.2081410874861
 30
0.0
  0
POINT
  5
2F7
330
17
100
AcDbEntity
  8
СИРЕНЬ ОБЫКНОВЕННАЯ
100
AcDbPoint
 10
21.315946147119913
 20
33.592103817020764
 30
0.0
  0
POINT
  5
2F8
330
17
100
AcDbEntity
  8
СИРЕНЬ ОБЫКНОВЕННАЯ
100
AcDbPoint
 10
22.491494446067943
 20
33.03821319434524
 30
0.0
  0
POINT
  5
2F9
330
17
100
AcDbEntity
  8
СИРЕНЬ ОБЫКНОВЕННАЯ
100
AcDbPoint
 10
23.7043165362388
 20
32.57238059541354
 30
0.0
  0
POINT
  5
2FA
330
17
100
AcDbEntity
  8
СИРЕНЬ ОБЫКНОВЕННАЯ
100
AcDbPoint
 10
24.9554865822424
 20
32.22255295586831
 30
0.0
  0
POINT
  5
2FB
330
17
100
AcDbEntity
  8
СИРЕНЬ ОБЫКНОВЕННАЯ
100
AcDbPoint
 10
26.241299986555447
 20
32.04034225297862
 30
0.0
  0
POINT
  5
2FC
330
17
100
AcDbEntity
  8
СИРЕНЬ ОБЫКНОВЕННАЯ
100
AcDbPoint
 10
27.539466094651548
 20
32.0286849575302
 30
0.0
  0
POINT
  5
2FD
330
17
100
AcDbEntity
  8
СИРЕНЬ ОБЫКНОВЕННАЯ
100
AcDbPoint
 10
28.828549843654358
 20
32.18400333959118
 30
0.0
  0
POINT
  5
2FE
330
17
100
AcDbEntity
  8
СИРЕНЬ ОБЫКНОВЕННАЯ
100
AcDbPoint
 10
30.088461072560737
 20
32.49986656731088
 30
0.0
  0
POINT
  5
2FF
330
17
100
AcDbEntity
  8
СИРЕНЬ ОБЫКНОВЕННАЯ
100
AcDbPoint
 10
31.306920068126256
 20
32.95124943408297
 30
0.0
  0
POINT
  5
300
330
17
100
AcDbEntity
  8
СИРЕНЬ ОБЫКНОВЕННАЯ
100
AcDbPoint
 10
32.487668950589025
 20
33.493959159302435
 30
0.0
  0
POINT
  5
301
330
17
100
AcDbEntity
  8
СИРЕНЬ ОБЫКНОВЕННАЯ
100
AcDbPoint
 10
33.63644106643047
 20
34.1019070395972
 30
0.0
  0
POINT
  5
302
330
17
100
AcDbEntity
  8
СИРЕНЬ ОБЫКНОВЕННАЯ
100
AcDbPoint
 10
34.76208253385897
 20
34.75202616813026
 30
0.0
  0
POINT
  5
303
330
17
100
AcDbEntity
  8
СИРЕНЬ ОБЫКНОВЕННАЯ
100
AcDbPoint
 10
35.87492596653315
 20
35.4239839270526
 30
0.0
  0
POINT
  5
304
330
17
100
AcDbEntity
  8
СИРЕНЬ ОБЫКНОВЕННАЯ
100
AcDbPoint
 10
36.985841230991966
 20
36.09916336630737
 30
0.0
  0
POINT
  5
305
330
17
100
AcDbEntity
  8
СИРЕНЬ ОБЫКНОВЕННАЯ
100
AcDbPoint
 10
38.10738631553182
 20
36.75644756321759
 30
0.0
  0
POINT
  5
306
330
17
100
AcDbEntity
  8
СИРЕНЬ ОБЫКНОВЕННАЯ
100
AcDbPoint
 10
39.25048451302286
 20
37.37518129707311
 30
0.0
  0
POINT
  5
307
330
17
100
AcDbEntity
  8
СИРЕНЬ ОБЫКНОВЕННАЯ
100
AcDbPoint
 10
40.424299284132644
 20
37.93279888556733
 30
0.0
  0
POINT
  5
308
330
17
100
AcDbEntity
  8
СИРЕНЬ ОБЫКНОВЕННАЯ
100
AcDbPoint
 10
41.6352424058386
 20
38.403448061885555
 30
0.0
  0
POINT
  5
309
330
17
100
AcDbEntity
  8
СИРЕНЬ ОБЫКНОВЕННАЯ
100
AcDbPoint
 10
42.884622948299175
 20
38.759175900684454
 30
0.0
  0
POINT
  5
30A
330
17
100
AcDbEntity
  8
СИРЕНЬ ОБЫКНОВЕННАЯ
100
AcDbPoint
 10
44.16822201362439
 20
38.955771981871905
 30
0.0
  0
POINT
  5
30B
330
17
100
AcDbEntity
  8
СИРЕНЬ ОБЫКНОВЕННАЯ
100
AcDbPoint
 10
45.466388121720485
 20
38.975200807619274
 30
0.0
  0
POINT
  5
30C
330
17
100
AcDbEntity
  8
СИРЕНЬ ОБЫКНОВЕННАЯ
100
AcDbPoint
 10
46.756264247603966
 20
38.82741077019236
 30
0.0
  0
POINT
  5
30D
330
17
100
AcDbEntity
  8
СИРЕНЬ ОБЫКНОВЕННАЯ
100
AcDbPoint
 10
48.01938694216053
 20
38.52430477539003
 30
0.0
  0
POINT
  5
30E
330
17
100
AcDbEntity
  8
СИРЕНЬ ОБЫКНОВЕННАЯ
100
AcDbPoint
 10
49.239724906190936
 20
38.077738486004485
 30
0.0
  0
POINT
  5
30F
330
17
100
AcDbEntity
  8
СИРЕНЬ ОБЫКНОВЕННАЯ
100
AcDbPoint
 10
50.42220731649196
 20
37.53875572660369
 30
0.0
  0
POINT
  5
310
330
17
100
AcDbEntity
  8
СИРЕНЬ ОБЫКНОВЕННАЯ
100
AcDbPoint
 10
51.572397911921
 20
36.93350430969912
 30
0.0
  0
POINT
  5
311
330
17
100
AcDbEntity
  8
СИРЕНЬ ОБЫКНОВЕННАЯ
100
AcDbPoint
 10
58.35710412219733
 20
33.096189034520116
 30
0.0
  0
POINT
  5
312
330
17
100
AcDbEntity
  8
СИРЕНЬ ОБЫКНОВЕННАЯ
100
AcDbPoint
 10
59.56616827543841
 20
32.62072328081534
 30
0.0
  0
POINT
  5
313
330
17
100
AcDbEntity
  8
СИРЕНЬ ОБЫКНОВЕННАЯ
100
AcDbPoint
 10
60.813759314355956
 20
32.25909524276277
 30
0.0
  0
POINT
  5
314
330
17
100
AcDbEntity
  8
СИРЕНЬ ОБЫКНОВЕННАЯ
100
AcDbPoint
 10
62.09514404069334
 20
32.04811378327757
 30
0.0
  0
POINT
  5
315
330
17
100
AcDbEntity
  8
СИРЕНЬ ОБЫКНОВЕННАЯ
100
AcDbPoint
 10
63.39331014878943
 20
32.02091342723125
 30
0.0
  0
POINT
  5
316
330
17
100
AcDbEntity
  8
СИРЕНЬ ОБЫКНОВЕННАЯ
100
AcDbPoint
 10
64.68397865155359
 20
32.16117512002409
 30
0.0
  0
POINT
  5
317
330
17
100
AcDbEntity
  8
СИРЕНЬ ОБЫКНОВЕННАЯ
100
AcDbPoint
 10
65.94902556574097
 20
32.45576808026916
 30
0.0
  0
POINT
  5
318
330
17
100
AcDbEntity
  8
СИРЕНЬ ОБЫКНОВЕННАЯ
100
AcDbPoint
 10
67.17252974425561
 20
32.89327359390806
 30
0.0
  0
POINT
  5
319
330
17
100
AcDbEntity
  8
СИРЕНЬ ОБЫКНОВЕННАЯ
100
AcDbPoint
 10
68.35674568239489
 20
33.428529387490165
 30
0.0
  0
POINT
  5
31A
330
17
100
AcDbEntity
  8
СИРЕНЬ ОБЫКНОВЕННАЯ
100
AcDbPoint
 10
69.50835475741152
 20
34.03108434100456
 30
0.0
  0
POINT
  5
31B
330
17
100
AcDbEntity
  8
СИРЕНЬ ОБЫКНОВЕННАЯ
100
AcDbPoint
 10
70.63598657364359
 20
34.67771758173944
 30
0.0
  0
POINT
  5
31C
330
17
100
AcDbEntity
  8
СИРЕНЬ ОБЫКНОВЕННАЯ
100
AcDbPoint
 10
71.74985193306621
 20
35.34796785410515
 30
0.0
  0
POINT
  5
31D
330
17
100
AcDbEntity
  8
СИРЕНЬ ОБЫКНОВЕННАЯ
100
AcDbPoint
 10
72.86076719752504
 20
36.02314729335992
 30
0.0
  0
POINT
  5
31E
330
17
100
AcDbEntity
  8
СИРЕНЬ ОБЫКНОВЕННАЯ
100
AcDbPoint
 10
73.9796216662405
 20
36.68506151124806
 30
0.0
  0
POINT
  5
31F
330
17
100
AcDbEntity
  8
СИРЕНЬ ОБЫКНОВЕННАЯ
100
AcDbPoint
 10
75.11956124482873
 20
37.30975152526084
 30
0.0
  0
POINT
  5
320
330
17
100
AcDbEntity
  8
СИРЕНЬ ОБЫКНОВЕННАЯ
100
AcDbPoint
 10
76.28990896026201
 20
37.87482304539243
 30
0.0
  0
POINT
  5
321
330
17
100
AcDbEntity
  8
СИРЕНЬ ОБЫКНОВЕННАЯ
100
AcDbPoint
 10
77.49709414503819
 20
38.35510537648375
 30
0.0
  0
POINT
  5
322
330
17
100
AcDbEntity
  8
СИРЕНЬ ОБЫКНОВЕННАЯ
100
AcDbPoint
 10
78.74289568041272
 20
38.72263361379
 30
0.0
  0
POINT
  5
323
330
17
100
AcDbEntity
  8
СИРЕНЬ ОБЫКНОВЕННАЯ
100
AcDbPoint
 10
80.02206606776227
 20
38.94800045157295
 30
0.0
  0
POINT
  5
324
330
17
100
AcDbEntity
  8
СИРЕНЬ ОБЫКНОВЕННАЯ
100
AcDbPoint
 10
81.32023217585837
 20
38.98297233791823
 30
0.0
  0
POINT
  5
325
330
17
100
AcDbEntity
  8
СИРЕНЬ ОБЫКНОВЕННАЯ
100
AcDbPoint
 10
82.61169305550321
 20
38.85023898975945
 30
0.0
  0
POINT
  5
326
330
17
100
AcDbEntity
  8
СИРЕНЬ ОБЫКНОВЕННАЯ
100
AcDbPoint
 10
83.87816193179773
 20
38.56250306317807
 30
0.0
  0
POINT
  5
327
330
17
100
AcDbEntity
  8
СИРЕНЬ ОБЫКНОВЕННАЯ
100
AcDbPoint
 10
85.1053345823203
 20
38.135714326179375
 30
0.0
  0
POINT
  5
328
330
17
100
AcDbEntity
  8
СИРЕНЬ ОБЫКНОВЕННАЯ
100
AcDbPoint
 10
86.29128404829783
 20
37.604185498415966
 30
0.0
  0
POINT
  5
329
330
17
100
AcDbEntity
  8
СИРЕНЬ ОБЫКНОВЕННАЯ
100
AcDbPoint
 10
87.44431160290206
 20
37.004327008291774
 30
0.0
  0
POINT
  5
32A
330
17
100
AcDbEntity
  8
СИРЕНЬ ОБЫКНОВЕННАЯ
100
AcDbPoint
 10
89.68731491633274
 20
35.690040182368584
 30
0.0
  0
POINT
  5
32B
330
17
100
AcDbEntity
  8
СИРЕНЬ ОБЫКНОВЕННАЯ
100
AcDbPoint
 10
90.79823018079155
 20
35.01486074311381
 30
0.0
  0
POINT
  5
32C
330
17
100
AcDbEntity
  8
СИРЕНЬ ОБЫКНОВЕННАЯ
100
AcDbPoint
 10
91.9165736861328
 20
34.352092781947356
 30
0.0
  0
POINT
  5
32D
330
17
100
AcDbEntity
  8
СИРЕНЬ ОБЫКНОВЕННАЯ
100
AcDbPoint
 10
93.05409961073165
 20
33.7229633606453
 30
0.0
  0
POINT
  5
32E
330
17
100
AcDbEntity
  8
СИРЕНЬ ОБЫКНОВЕННАЯ
100
AcDbPoint
 10
94.22271379832668
 20
33.15416487469501
 30
0.0
  0
POINT
  5
32F
330
17
100
AcDbEntity
  8
СИРЕНЬ ОБЫКНОВЕННАЯ
100
AcDbPoint
 10
95.42802001463797
 20
32.66906596621716
 30
0.0
  0
POINT
  5
330
330
17
100
AcDbEntity
  8
СИРЕНЬ ОБЫКНОВЕННАЯ
100
AcDbPoint
 10
96.67203204646947
 20
32.29563752965724
 30
0.0
  0
POINT
  5
331
330
17
100
AcDbEntity
  8
СИРЕНЬ ОБЫКНОВЕННАЯ
100
AcDbPoint
 10
97.94954121162787
 20
32.06114045664013
 30
0.0
  0
POINT
  5
332
330
17
100
AcDbEntity
  8
СИРЕНЬ ОБЫКНОВЕННАЯ
100
AcDbPoint
 10
99.24715420292729
 20
32.0131418969323
 30
0.0
  0
POINT
  5
333
330
17
100
AcDbEntity
  8
СИРЕНЬ ОБЫКНОВЕННАЯ
100
AcDbPoint
 10
100.5394074594528
 20
32.138346900457
 30
0.0
  0
POINT
  5
334
330
17
100
AcDbEntity
  8
СИРЕНЬ ОБЫКНОВЕННАЯ
100
AcDbPoint
 10
101.80729829785447
 20
32.41922579337469
 30
0.0
  0
POINT
  5
335
330
17
100
AcDbEntity
  8
СИРЕНЬ ОБЫКНОВЕННАЯ
100
AcDbPoint
 10
103.03813942038495
 20
32.835297753733165
 30
0.0
  0
POINT
  5
336
330
17
100
AcDbEntity
  8
СИРЕНЬ ОБЫКНОВЕННАЯ
100
AcDbPoint
 10
104.22582241420072
 20
33.36309961567789
 30
0.0
  0
POINT
  5
337
330
17
100
AcDbEntity
  8
СИРЕНЬ ОБЫКНОВЕННАЯ
100
AcDbPoint
 10
105.38026844839257
 20
33.9602616424119
 30
0.0
  0
POINT
  5
338
330
17
100
AcDbEntity
  8
СИРЕНЬ ОБЫКНОВЕННАЯ
100
AcDbPoint
 10
106.50989061342818
 20
34.60340899534861
 30
0.0
  0
POINT
  5
339
330
17
100
AcDbEntity
  8
СИРЕНЬ ОБЫКНОВЕННАЯ
100
AcDbPoint
 10
107.62477789959925
 20
35.27195178115768
 30
0.0
  0
POINT
  5
33A
330
17
100
AcDbEntity
  8
СИРЕНЬ ОБЫКНОВЕННАЯ
100
AcDbPoint
 10
108.73569316405808
 20
35.94713122041246
 30
0.0
  0
POINT
  5
33B
330
17
100
AcDbEntity
  8
СИРЕНЬ ОБЫКНОВЕННАЯ
100
AcDbPoint
 10
1.2679082152752184
 20
37.19422048029276
 30
0.0
  0
POINT
  5
33C
330
17
100
AcDbEntity
  8
СИРЕНЬ ОБЫКНОВЕННАЯ
100
AcDbPoint
 10
2.4252805462910145
 20
37.84630885044187
 30
0.0
  0
POINT
  5
33D
330
17
100
AcDbEntity
  8
СИРЕНЬ ОБЫКНОВЕННАЯ
100
AcDbPoint
 10
3.623756413422906
 20
38.45576998270013
 30
0.0
  0
POINT
  5
33E
330
17
100
AcDbEntity
  8
СИРЕНЬ ОБЫКНОВЕННАЯ
100
AcDbPoint
 10
4.878070200427567
 20
38.98582422912871
 30
0.0
  0
POINT
  5
33F
330
17
100
AcDbEntity
  8
СИРЕНЬ ОБЫКНОВЕННАЯ
100
AcDbPoint
 10
6.191328994483744
 20
39.406560276889536
 30
0.0
  0
POINT
  5
340
330
17
100
AcDbEntity
  8
СИРЕНЬ ОБЫКНОВЕННАЯ
100
AcDbPoint
 10
7.557630230016607
 20
39.68676999299086
 30
0.0
  0
POINT
  5
341
330
17
100
AcDbEntity
  8
СИРЕНЬ ОБЫКНОВЕННАЯ
100
AcDbPoint
 10
8.960348033512151
 20
39.79805106074945
 30
0.0
  0
POINT
  5
342
330
17
100
AcDbEntity
  8
СИРЕНЬ ОБЫКНОВЕННАЯ
100
AcDbPoint
 10
10.364081714811164
 20
39.6990041845104
 30
0.0
  0
POINT
  5
343
330
17
100
AcDbEntity
  8
СИРЕНЬ ОБЫКНОВЕННАЯ
100
AcDbPoint
 10
11.733039233844343
 20
39.426083744547434
 30
0.0
  0
POINT
  5
344
330
17
100
AcDbEntity
  8
СИРЕНЬ ОБЫКНОВЕННАЯ
100
AcDbPoint
 10
13.04897934666479
 20
39.01144308128741
 30
0.0
  0
POINT
  5
345
330
17
100
AcDbEntity
  8
СИРЕНЬ ОБЫКНОВЕННАЯ
100
AcDbPoint
 10
14.307050069534471
 20
38.4882616344288
 30
0.0
  0
POINT
  5
346
330
17
100
AcDbEntity
  8
СИРЕНЬ ОБЫКНОВЕННАЯ
100
AcDbPoint
 10
15.508527698722334
 20
37.882871927276895
 30
0.0
  0
POINT
  5
347
330
17
100
AcDbEntity
  8
СИРЕНЬ ОБЫКНОВЕННАЯ
100
AcDbPoint
 10
16.667657024548962
 20
37.232184049525536
 30
0.0
  0
POINT
  5
348
330
17
100
AcDbEntity
  8
СИРЕНЬ ОБЫКНОВЕННАЯ
100
AcDbPoint
 10
17.797007903761756
 20
36.55953699406896
 30
0.0
  0
POINT
  5
349
330
17
100
AcDbEntity
  8
СИРЕНЬ ОБЫКНОВЕННАЯ
100
AcDbPoint
 10
18.908415655037395
 20
35.8840584795902
 30
0.0
  0
POINT
  5
34A
330
17
100
AcDbEntity
  8
СИРЕНЬ ОБЫКНОВЕННАЯ
100
AcDbPoint
 10
20.014063992173345
 20
35.223218820347576
 30
0.0
  0
POINT
  5
34B
330
17
100
AcDbEntity
  8
СИРЕНЬ ОБЫКНОВЕННАЯ
100
AcDbPoint
 10
21.121436988886646
 20
34.596969903930436
 30
0.0
  0
POINT
  5
34C
330
17
100
AcDbEntity
  8
СИРЕНЬ ОБЫКНОВЕННАЯ
100
AcDbPoint
 10
22.239442608378365
 20
34.0247110493268
 30
0.0
  0
POINT
  5
34D
330
17
100
AcDbEntity
  8
СИРЕНЬ ОБЫКНОВЕННАЯ
100
AcDbPoint
 10
23.376464908623948
 20
33.53432906260101
 30
0.0
  0
POINT
  5
34E
330
17
100
AcDbEntity
  8
СИРЕНЬ ОБЫКНОВЕННАЯ
100
AcDbPoint
 10
24.536439843412783
 20
33.15668365124528
 30
0.0
  0
POINT
  5
34F
330
17
100
AcDbEntity
  8
СИРЕНЬ ОБЫКНОВЕННАЯ
100
AcDbPoint
 10
25.71392525742454
 20
32.908220523252346
 30
0.0
  0
POINT
  5
350
330
17
100
AcDbEntity
  8
СИРЕНЬ ОБЫКНОВЕННАЯ
100
AcDbPoint
 10
26.899721415094724
 20
32.80577414259361
 30
0.0
  0
POINT
  5
351
330
17
100
AcDbEntity
  8
СИРЕНЬ ОБЫКНОВЕННАЯ
100
AcDbPoint
 10
28.0872243099109
 20
32.87643823444026
 30
0.0
  0
POINT
  5
352
330
17
100
AcDbEntity
  8
СИРЕНЬ ОБЫКНОВЕННАЯ
100
AcDbPoint
 10
29.263348030537962
 20
33.10513790635407
 30
0.0
  0
POINT
  5
353
330
17
100
AcDbEntity
  8
СИРЕНЬ ОБЫКНОВЕННАЯ
100
AcDbPoint
 10
30.4279413533638
 20
33.46615745581363
 30
0.0
  0
POINT
  5
354
330
17
100
AcDbEntity
  8
СИРЕНЬ ОБЫКНОВЕННАЯ
100
AcDbPoint
 10
31.570636353945982
 20
33.93606930458652
 30
0.0
  0
POINT
  5
355
330
17
100
AcDbEntity
  8
СИРЕНЬ ОБЫКНОВЕННАЯ
100
AcDbPoint
 10
32.69287928966969
 20
34.494191005645376
 30
0.0
  0
POINT
  5
356
330
17
100
AcDbEntity
  8
СИРЕНЬ ОБЫКНОВЕННАЯ
100
AcDbPoint
 10
33.800952391137145
 20
35.11418375877893
 30
0.0
  0
POINT
  5
357
330
17
100
AcDbEntity
  8
СИРЕНЬ ОБЫКНОВЕННАЯ
100
AcDbPoint
 10
34.90514647895765
 20
35.770746017667996
 30
0.0
  0
POINT
  5
358
330
17
100
AcDbEntity
  8
СИРЕНЬ ОБЫКНОВЕННАЯ
100
AcDbPoint
 10
36.01488855922117
 20
36.445213809423876
 30
0.0
  0
POINT
  5
359
330
17
100
AcDbEntity
  8
СИРЕНЬ ОБЫКНОВЕННАЯ
100
AcDbPoint
 10
37.13955947005199
 20
37.118589274206904
 30
0.0
  0
POINT
  5
35A
330
17
100
AcDbEntity
  8
СИРЕНЬ ОБЫКНОВЕННАЯ
100
AcDbPoint
 10
38.29290801904171
 20
37.77316330201155
 30
0.0
  0
POINT
  5
35B
330
17
100
AcDbEntity
  8
СИРЕНЬ ОБЫКНОВЕННАЯ
100
AcDbPoint
 10
39.48688595395026
 20
38.3875272173156
 30
0.0
  0
POINT
  5
35C
330
17
100
AcDbEntity
  8
СИРЕНЬ ОБЫКНОВЕННАЯ
100
AcDbPoint
 10
40.73219078702178
 20
38.93452599845309
 30
0.0
  0
POINT
  5
35D
330
17
100
AcDbEntity
  8
СИРЕНЬ ОБЫКНОВЕННАЯ
100
AcDbPoint
 10
42.04008334392117
 20
39.36742371921139
 30
0.0
  0
POINT
  5
35E
330
17
100
AcDbEntity
  8
СИРЕНЬ ОБЫКНОВЕННАЯ
100
AcDbPoint
 10
43.40108373029318
 20
39.66216694347177
 30
0.0
  0
POINT
  5
35F
330
17
100
AcDbEntity
  8
СИРЕНЬ ОБЫКНОВЕННАЯ
100
AcDbPoint
 10
44.801742994926066
 20
39.7901342114871
 30
0.0
  0
POINT
  5
360
330
17
100
AcDbEntity
  8
СИРЕНЬ ОБЫКНОВЕННАЯ
100
AcDbPoint
 10
46.20748110237572
 20
39.72333687795208
 30
0.0
  0
POINT
  5
361
330
17
100
AcDbEntity
  8
СИРЕНЬ ОБЫКНОВЕННАЯ
100
AcDbPoint
 10
47.58303425667547
 20
39.46472579327657
 30
0.0
  0
POINT
  5
362
330
17
100
AcDbEntity
  8
СИРЕНЬ ОБЫКНОВЕННАЯ
100
AcDbPoint
 10
48.90305851998377
 20
39.062619723995084
 30
0.0
  0
POINT
  5
363
330
17
100
AcDbEntity
  8
СИРЕНЬ ОБЫКНОВЕННАЯ
100
AcDbPoint
 10
50.16667826646448
 20
38.54897691203153
 30
0.0
  0
POINT
  5
364
330
17
100
AcDbEntity
  8
СИРЕНЬ ОБЫКНОВЕННАЯ
100
AcDbPoint
 10
51.37613350275216
 20
37.95597852112967
 30
0.0
  0
POINT
  5
365
330
17
100
AcDbEntity
  8
СИРЕНЬ ОБЫКНОВЕННАЯ
100
AcDbPoint
 10
58.11445450021315
 20
34.08730359701393
 30
0.0
  0
POINT
  5
366
330
17
100
AcDbEntity
  8
СИРЕНЬ ОБЫКНОВЕННАЯ
100
AcDbPoint
 10
59.24732083375093
 20
33.58297802722567
 30
0.0
  0
POINT
  5
367
330
17
100
AcDbEntity
  8
СИРЕНЬ ОБЫКНОВЕННАЯ
100
AcDbPoint
 10
60.404217745372414
 20
33.19057219010723
 30
0.0
  0
POINT
  5
368
330
17
100
AcDbEntity
  8
СИРЕНЬ ОБЫКНОВЕННАЯ
100
AcDbPoint
 10
61.580040604716075
 20
32.92939099915515
 30
0.0
  0
POINT
  5
369
330
17
100
AcDbEntity
  8
СИРЕНЬ ОБЫКНОВЕННАЯ
100
AcDbPoint
 10
62.76601004043114
 20
32.813303562583386
 30
0.0
  0
POINT
  5
36A
330
17
100
AcDbEntity
  8
СИРЕНЬ ОБЫКНОВЕННАЯ
100
AcDbPoint
 10
63.95469647050535
 20
32.85502362858715
 30
0.0
  0
POINT
  5
36B
330
17
100
AcDbEntity
  8
СИРЕНЬ ОБЫКНОВЕННАЯ
100
AcDbPoint
 10
65.13249199580461
 20
33.07129156929448
 30
0.0
  0
POINT
  5
36C
330
17
100
AcDbEntity
  8
СИРЕНЬ ОБЫКНОВЕННАЯ
100
AcDbPoint
 10
66.29757820084936
 20
33.42060778670067
 30
0.0
  0
POINT
  5
36D
330
17
100
AcDbEntity
  8
СИРЕНЬ ОБЫКНОВЕННАЯ
100
AcDbPoint
 10
67.44223833083537
 20
33.88080810739476
 30
0.0
  0
POINT
  5
36E
330
17
100
AcDbEntity
  8
СИРЕНЬ ОБЫКНОВЕННАЯ
100
AcDbPoint
 10
68.56776828144808
 20
34.42818554842443
 30
0.0
  0
POINT
  5
36F
330
17
100
AcDbEntity
  8
СИРЕНЬ ОБЫКНОВЕННАЯ
100
AcDbPoint
 10
69.67763826715264
 20
35.04147989613344
 30
0.0
  0
POINT
  5
370
330
17
100
AcDbEntity
  8
СИРЕНЬ ОБЫКНОВЕННАЯ
100
AcDbPoint
 10
70.78143508937735
 20
35.69555306810478
 30
0.0
  0
POINT
  5
371
330
17
100
AcDbEntity
  8
СИРЕНЬ ОБЫКНОВЕННАЯ
100
AcDbPoint
 10
71.88981452575423
 20
36.36919773647642
 30
0.0
  0
POINT
  5
372
330
17
100
AcDbEntity
  8
СИРЕНЬ ОБЫКНОВЕННАЯ
100
AcDbPoint
 10
73.01334234560018
 20
37.04420927115356
 30
0.0
  0
POINT
  5
373
330
17
100
AcDbEntity
  8
СИРЕНЬ ОБЫКНОВЕННАЯ
100
AcDbPoint
 10
74.16102658961566
 20
37.70025556049109
 30
0.0
  0
POINT
  5
374
330
17
100
AcDbEntity
  8
СИРЕНЬ ОБЫКНОВЕННАЯ
100
AcDbPoint
 10
75.35003985485613
 20
38.319236141030245
 30
0.0
  0
POINT
  5
375
330
17
100
AcDbEntity
  8
СИРЕНЬ ОБЫКНОВЕННАЯ
100
AcDbPoint
 10
76.58950916459611
 20
38.87502935001251
 30
0.0
  0
POINT
  5
376
330
17
100
AcDbEntity
  8
СИРЕНЬ ОБЫКНОВЕННАЯ
100
AcDbPoint
 10
77.8888652161359
 20
39.32816846137283
 30
0.0
  0
POINT
  5
377
330
17
100
AcDbEntity
  8
СИРЕНЬ ОБЫКНОВЕННАЯ
100
AcDbPoint
 10
79.24628404440924
 20
39.63767567307497
 30
0.0
  0
POINT
  5
378
330
17
100
AcDbEntity
  8
СИРЕНЬ ОБЫКНОВЕННАЯ
100
AcDbPoint
 10
80.64314925502414
 20
39.78202391133821
 30
0.0
  0
POINT
  5
379
330
17
100
AcDbEntity
  8
СИРЕНЬ ОБЫКНОВЕННАЯ
100
AcDbPoint
 10
82.05052198197288
 20
39.74432647508012
 30
0.0
  0
POINT
  5
37A
330
17
100
AcDbEntity
  8
СИРЕНЬ ОБЫКНОВЕННАЯ
100
AcDbPoint
 10
83.43041178762022
 20
39.503889133748665
 30
0.0
  0
POINT
  5
37B
330
17
100
AcDbEntity
  8
СИРЕНЬ ОБЫКНОВЕННАЯ
100
AcDbPoint
 10
84.7589948719399
 20
39.11305848020102
 30
0.0
  0
POINT
  5
37C
330
17
100
AcDbEntity
  8
СИРЕНЬ ОБЫКНОВЕННАЯ
100
AcDbPoint
 10
86.02628512685524
 20
38.609642469182646
 30
0.0
  0
POINT
  5
37D
330
17
100
AcDbEntity
  8
СИРЕНЬ ОБЫКНОВЕННАЯ
100
AcDbPoint
 10
87.24096740770497
 20
38.02381589687073
 30
0.0
  0
POINT
  5
37E
330
17
100
AcDbEntity
  8
СИРЕНЬ ОБЫКНОВЕННАЯ
100
AcDbPoint
 10
89.54413455308145
 20
36.71321538425471
 30
0.0
  0
POINT
  5
37F
330
17
100
AcDbEntity
  8
СИРЕНЬ ОБЫКНОВЕННАЯ
100
AcDbPoint
 10
90.65826758810356
 20
36.03609062548508
 30
0.0
  0
POINT
  5
380
330
17
100
AcDbEntity
  8
СИРЕНЬ ОБЫКНОВЕННАЯ
100
AcDbPoint
 10
91.76354640147997
 20
35.370849406389866
 30
0.0
  0
POINT
  5
381
330
17
100
AcDbEntity
  8
СИРЕНЬ ОБЫКНОВЕННАЯ
100
AcDbPoint
 10
92.87120075023958
 20
34.73536561199162
 30
0.0
  0
POINT
  5
382
330
17
100
AcDbEntity
  8
СИРЕНЬ ОБЫКНОВЕННАЯ
100
AcDbPoint
 10
93.98944143787872
 20
34.14984813782567
 30
0.0
  0
POINT
  5
383
330
17
100
AcDbEntity
  8
СИРЕНЬ ОБЫКНОВЕННАЯ
100
AcDbPoint
 10
95.1206146365914
 20
33.63787879279474
 30
0.0
  0
POINT
  5
384
330
17
100
AcDbEntity
  8
СИРЕНЬ ОБЫКНОВЕННАЯ
100
AcDbPoint
 10
96.2719659344446
 20
33.22434255794968
 30
0.0
  0
POINT
  5
385
330
17
100
AcDbEntity
  8
СИРЕНЬ ОБЫКНОВЕННАЯ
100
AcDbPoint
 10
97.44651438638553
 20
32.95034989026822
 30
0.0
  0
POINT
  5
386
330
17
100
AcDbEntity
  8
СИРЕНЬ ОБЫКНОВЕННАЯ
100
AcDbPoint
 10
98.63228286196025
 20
32.820639847739706
 30
0.0
  0
POINT
  5
387
330
17
100
AcDbEntity
  8
СИРЕНЬ ОБЫКНОВЕННАЯ
100
AcDbPoint
 10
99.82106519465805
 20
32.84411589733951
 30
0.0
  0
POINT
  5
388
330
17
100
AcDbEntity
  8
СИРЕНЬ ОБЫКНОВЕННАЯ
100
AcDbPoint
 10
101.0016823215481
 20
33.03729495345364
 30
0.0
  0
POINT
  5
389
330
17
100
AcDbEntity
  8
СИРЕНЬ ОБЫКНОВЕННАЯ
100
AcDbPoint
 10
102.16456726071735
 20
33.37405864283198
 30
0.0
  0
POINT
  5
38A
330
17
100
AcDbEntity
  8
СИРЕНЬ ОБЫКНОВЕННАЯ
100
AcDbPoint
 10
103.3138610295917
 20
33.82549693045728
 30
0.0
  0
POINT
  5
38B
330
17
100
AcDbEntity
  8
СИРЕНЬ ОБЫКНОВЕННАЯ
100
AcDbPoint
 10
104.4411734925862
 20
34.365000137754855
 30
0.0
  0
POINT
  5
38C
330
17
100
AcDbEntity
  8
СИРЕНЬ ОБЫКНОВЕННАЯ
100
AcDbPoint
 10
105.55353973293691
 20
34.9701500346921
 30
0.0
  0
POINT
  5
38D
330
17
100
AcDbEntity
  8
СИРЕНЬ ОБЫКНОВЕННАЯ
100
AcDbPoint
 10
106.65772535187436
 20
35.62035741540542
 30
0.0
  0
POINT
  5
38E
330
17
100
AcDbEntity
  8
СИРЕНЬ ОБЫКНОВЕННАЯ
100
AcDbPoint
 10
107.76474049228727
 20
36.29318166352897
 30
0.0
  0
POINT
  5
38F
330
17
100
AcDbEntity
  8
СИРЕНЬ ОБЫКНОВЕННАЯ
100
AcDbPoint
 10
108.8858758296826
 20
36.969090850377754
 30
0.0
  0
POINT
  5
390
330
17
100
AcDbEntity
  8
СПИРЕЯ СЕРАЯ
100
AcDbPoint
 10
0.9709526717708102
 20
54.1539495568835
 30
0.0
  0
POINT
  5
391
330
17
100
AcDbEntity
  8
СПИРЕЯ СЕРАЯ
100
AcDbPoint
 10
2.075726877321693
 20
54.81312344921586
 30
0.0
  0
POINT
  5
392
330
17
100
AcDbEntity
  8
СПИРЕЯ СЕРАЯ
100
AcDbPoint
 10
3.183335184149271
 20
55.437283241724415
 30
0.0
  0
POINT
  5
393
330
17
100
AcDbEntity
  8
СПИРЕЯ СЕРАЯ
100
AcDbPoint
 10
4.301927676379223
 20
56.006603415979725
 30
0.0
  0
POINT
  5
394
330
17
100
AcDbEntity
  8
СПИРЕЯ СЕРАЯ
100
AcDbPoint
 10
5.441669776402829
 20
56.48837455786743
 30
0.0
  0
POINT
  5
395
330
17
100
AcDbEntity
  8
СПИРЕЯ СЕРАЯ
100
AcDbPoint
 10
6.602541120188032
 20
56.86030525663131
 30
0.0
  0
POINT
  5
396
330
17
100
AcDbEntity
  8
СПИРЕЯ СЕРАЯ
100
AcDbPoint
 10
7.7802179261081035
 20
57.10232854012847
 30
0.0
  0
POINT
  5
397
330
17
100
AcDbEntity
  8
СПИРЕЯ СЕРАЯ
100
AcDbPoint
 10
8.966573993556832
 20
57.19806317410107
 30
0.0
  0
POINT
  5
398
330
17
100
AcDbEntity
  8
СПИРЕЯ СЕРАЯ
100
AcDbPoint
 10
10.153498936963448
 20
57.112922568176
 30
0.0
  0
POINT
  5
399
330
17
100
AcDbEntity
  8
СПИРЕЯ СЕРАЯ
100
AcDbPoint
 10
11.3313633835975
 20
56.877324075867854
 30
0.0
  0
POINT
  5
39A
330
17
100
AcDbEntity
  8
СПИРЕЯ СЕРАЯ
100
AcDbPoint
 10
12.493132415704483
 20
56.51109839111051
 30
0.0
  0
POINT
  5
39B
330
17
100
AcDbEntity
  8
СПИРЕЯ СЕРАЯ
100
AcDbPoint
 10
13.63484351989772
 20
56.03631867596747
 30
0.0
  0
POINT
  5
39C
330
17
100
AcDbEntity
  8
СПИРЕЯ СЕРАЯ
100
AcDbPoint
 10
14.754770261818534
 20
55.471542863481986
 30
0.0
  0
POINT
  5
39D
330
17
100
AcDbEntity
  8
СПИРЕЯ СЕРАЯ
100
AcDbPoint
 10
15.862611922638836
 20
54.84946846637384
 30
0.0
  0
POINT
  5
39E
330
17
100
AcDbEntity
  8
СПИРЕЯ СЕРАЯ
100
AcDbPoint
 10
16.96700279831259
 20
54.1916585181332
 30
0.0
  0
POINT
  5
39F
330
17
100
AcDbEntity
  8
СПИРЕЯ СЕРАЯ
100
AcDbPoint
 10
18.077425575954592
 20
53.51677815410242
 30
0.0
  0
POINT
  5
3A0
330
17
100
AcDbEntity
  8
СПИРЕЯ СЕРАЯ
100
AcDbPoint
 10
19.203475140208294
 20
52.84374583653456
 30
0.0
  0
POINT
  5
3A1
330
17
100
AcDbEntity
  8
СПИРЕЯ СЕРАЯ
100
AcDbPoint
 10
20.359092432534812
 20
52.190260702495856
 30
0.0
  0
POINT
  5
3A2
330
17
100
AcDbEntity
  8
СПИРЕЯ СЕРАЯ
100
AcDbPoint
 10
21.55531821322975
 20
51.578345323805564
 30
0.0
  0
POINT
  5
3A3
330
17
100
AcDbEntity
  8
СПИРЕЯ СЕРАЯ
100
AcDbPoint
 10
22.80512680740615
 20
51.03981483580461
 30
0.0
  0
POINT
  5
3A4
330
17
100
AcDbEntity
  8
СПИРЕЯ СЕРАЯ
100
AcDbPoint
 10
24.115703003372662
 20
50.61299310212831
 30
0.0
  0
POINT
  5
3A5
330
17
100
AcDbEntity
  8
СПИРЕЯ СЕРАЯ
100
AcDbPoint
 10
25.47935170659954
 20
50.325509163195385
 30
0.0
  0
POINT
  5
3A6
330
17
100
AcDbEntity
  8
СПИРЕЯ СЕРАЯ
100
AcDbPoint
 10
26.881044666112274
 20
50.2058831528548
 30
0.0
  0
POINT
  5
3A7
330
17
100
AcDbEntity
  8
СПИРЕЯ СЕРАЯ
100
AcDbPoint
 10
28.285785149763086
 20
50.288806793306264
 30
0.0
  0
POINT
  5
3A8
330
17
100
AcDbEntity
  8
СПИРЕЯ СЕРАЯ
100
AcDbPoint
 10
29.659327319017557
 20
50.554911986336215
 30
0.0
  0
POINT
  5
3A9
330
17
100
AcDbEntity
  8
СПИРЕЯ СЕРАЯ
100
AcDbPoint
 10
30.976022148205182
 20
50.96295838638669
 30
0.0
  0
POINT
  5
3AA
330
17
100
AcDbEntity
  8
СПИРЕЯ СЕРАЯ
100
AcDbPoint
 10
32.236866911615685
 20
51.48137454484236
 30
0.0
  0
POINT
  5
3AB
330
17
100
AcDbEntity
  8
СПИРЕЯ СЕРАЯ
100
AcDbPoint
 10
33.44233236185234
 20
52.08057150500315
 30
0.0
  0
POINT
  5
3AC
330
17
100
AcDbEntity
  8
СПИРЕЯ СЕРАЯ
100
AcDbPoint
 10
34.60322059583537
 20
52.72985513893092
 30
0.0
  0
POINT
  5
3AD
330
17
100
AcDbEntity
  8
СПИРЕЯ СЕРАЯ
100
AcDbPoint
 10
35.73379018964984
 20
53.402042397182434
 30
0.0
  0
POINT
  5
3AE
330
17
100
AcDbEntity
  8
СПИРЕЯ СЕРАЯ
100
AcDbPoint
 10
36.845878638303965
 20
54.07793348393611
 30
0.0
  0
POINT
  5
3AF
330
17
100
AcDbEntity
  8
СПИРЕЯ СЕРАЯ
100
AcDbPoint
 10
37.951883702114344
 20
54.74013748252019
 30
0.0
  0
POINT
  5
3B0
330
17
100
AcDbEntity
  8
СПИРЕЯ СЕРАЯ
100
AcDbPoint
 10
39.05953509336087
 20
55.36878339296954
 30
0.0
  0
POINT
  5
3B1
330
17
100
AcDbEntity
  8
СПИРЕЯ СЕРАЯ
100
AcDbPoint
 10
40.176951599463756
 20
55.943986637739805
 30
0.0
  0
POINT
  5
3B2
330
17
100
AcDbEntity
  8
СПИРЕЯ СЕРАЯ
100
AcDbPoint
 10
41.31125266820794
 20
56.44298741773948
 30
0.0
  0
POINT
  5
3B3
330
17
100
AcDbEntity
  8
СПИРЕЯ СЕРАЯ
100
AcDbPoint
 10
42.47033223497783
 20
56.826357240520565
 30
0.0
  0
POINT
  5
3B4
330
17
100
AcDbEntity
  8
СПИРЕЯ СЕРАЯ
100
AcDbPoint
 10
43.64762204163016
 20
57.0812751505134
 30
0.0
  0
POINT
  5
3B5
330
17
100
AcDbEntity
  8
СПИРЕЯ СЕРАЯ
100
AcDbPoint
 10
44.83286714041882
 20
57.19043696276553
 30
0.0
  0
POINT
  5
3B6
330
17
100
AcDbEntity
  8
СПИРЕЯ СЕРАЯ
100
AcDbPoint
 10
46.0209571651975
 20
57.13424631386847
 30
0.0
  0
POINT
  5
3B7
330
17
100
AcDbEntity
  8
СПИРЕЯ СЕРАЯ
100
AcDbPoint
 10
47.197913824993584
 20
56.911766600927606
 30
0.0
  0
POINT
  5
3B8
330
17
100
AcDbEntity
  8
СПИРЕЯ СЕРАЯ
100
AcDbPoint
 10
48.36275672078479
 20
56.55660711920642
 30
0.0
  0
POINT
  5
3B9
330
17
100
AcDbEntity
  8
СПИРЕЯ СЕРАЯ
100
AcDbPoint
 10
49.50643467522655
 20
56.09155507871447
 30
0.0
  0
POINT
  5
3BA
330
17
100
AcDbEntity
  8
СПИРЕЯ СЕРАЯ
100
AcDbPoint
 10
50.630991839750926
 20
55.54008166681445
 30
0.0
  0
POINT
  5
3BB
330
17
100
AcDbEntity
  8
СПИРЕЯ СЕРАЯ
100
AcDbPoint
 10
51.73929451153989
 20
54.92216678375326
 30
0.0
  0
POINT
  5
3BC
330
17
100
AcDbEntity
  8
СПИРЕЯ СЕРАЯ
100
AcDbPoint
 10
58.66055053995288
 20
51.0944550605516
 30
0.0
  0
POINT
  5
3BD
330
17
100
AcDbEntity
  8
СПИРЕЯ СЕРАЯ
100
AcDbPoint
 10
59.96447056564015
 20
50.65218913705526
 30
0.0
  0
POINT
  5
3BE
330
17
100
AcDbEntity
  8
СПИРЕЯ СЕРАЯ
100
AcDbPoint
 10
61.32409397510652
 20
50.349995126426755
 30
0.0
  0
POINT
  5
3BF
330
17
100
AcDbEntity
  8
СПИРЕЯ СЕРАЯ
100
AcDbPoint
 10
62.722444149051654
 20
50.213896793462936
 30
0.0
  0
POINT
  5
3C0
330
17
100
AcDbEntity
  8
СПИРЕЯ СЕРАЯ
100
AcDbPoint
 10
64.12917060496711
 20
50.26456496002521
 30
0.0
  0
POINT
  5
3C1
330
17
100
AcDbEntity
  8
СПИРЕЯ СЕРАЯ
100
AcDbPoint
 10
65.50672881797796
 20
50.51567374960688
 30
0.0
  0
POINT
  5
3C2
330
17
100
AcDbEntity
  8
СПИРЕЯ СЕРАЯ
100
AcDbPoint
 10
66.83008877911877
 20
50.91182268469602
 30
0.0
  0
POINT
  5
3C3
330
17
100
AcDbEntity
  8
СПИРЕЯ СЕРАЯ
100
AcDbPoint
 10
68.09648428698502
 20
51.420684061684334
 30
0.0
  0
POINT
  5
3C4
330
17
100
AcDbEntity
  8
СПИРЕЯ СЕРАЯ
100
AcDbPoint
 10
69.30859161070998
 20
52.010024487465095
 30
0.0
  0
POINT
  5
3C5
330
17
100
AcDbEntity
  8
СПИРЕЯ СЕРАЯ
100
AcDbPoint
 10
70.47434279938909
 20
52.653941828794785
 30
0.0
  0
POINT
  5
3C6
330
17
100
AcDbEntity
  8
СПИРЕЯ СЕРАЯ
100
AcDbPoint
 10
71.60735351229626
 20
53.325203200850744
 30
0.0
  0
POINT
  5
3C7
330
17
100
AcDbEntity
  8
СПИРЕЯ СЕРАЯ
100
AcDbPoint
 10
72.72080460483703
 20
54.00191741098865
 30
0.0
  0
POINT
  5
3C8
330
17
100
AcDbEntity
  8
СПИРЕЯ СЕРАЯ
100
AcDbPoint
 10
73.82590890613538
 20
54.665900312791905
 30
0.0
  0
POINT
  5
3C9
330
17
100
AcDbEntity
  8
СПИРЕЯ СЕРАЯ
100
AcDbPoint
 10
74.93524390474906
 20
55.300045737304714
 30
0.0
  0
POINT
  5
3CA
330
17
100
AcDbEntity
  8
СПИРЕЯ СЕРАЯ
100
AcDbPoint
 10
76.05195116216962
 20
55.88141817040062
 30
0.0
  0
POINT
  5
3CB
330
17
100
AcDbEntity
  8
СПИРЕЯ СЕРАЯ
100
AcDbPoint
 10
77.18397188523707
 20
56.389561722035324
 30
0.0
  0
POINT
  5
3CC
330
17
100
AcDbEntity
  8
СПИРЕЯ СЕРАЯ
100
AcDbPoint
 10
78.33809582699017
 20
56.7925279245702
 30
0.0
  0
POINT
  5
3CD
330
17
100
AcDbEntity
  8
СПИРЕЯ СЕРАЯ
100
AcDbPoint
 10
79.51327934331258
 20
57.06010998177603
 30
0.0
  0
POINT
  5
3CE
330
17
100
AcDbEntity
  8
СПИРЕЯ СЕРАЯ
100
AcDbPoint
 10
80.69914898859652
 20
57.18300420231652
 30
0.0
  0
POINT
  5
3CF
330
17
100
AcDbEntity
  8
СПИРЕЯ СЕРАЯ
100
AcDbPoint
 10
81.88810847783995
 20
57.152590990247525
 30
0.0
  0
POINT
  5
3D0
330
17
100
AcDbEntity
  8
СПИРЕЯ СЕРАЯ
100
AcDbPoint
 10
83.06708175827592
 20
56.94568783424443
 30
0.0
  0
POINT
  5
3D1
330
17
100
AcDbEntity
  8
СПИРЕЯ СЕРАЯ
100
AcDbPoint
 10
84.23052384722783
 20
56.602853733804096
 30
0.0
  0
POINT
  5
3D2
330
17
100
AcDbEntity
  8
СПИРЕЯ СЕРАЯ
100
AcDbPoint
 10
85.37804716709451
 20
56.14684120191315
 30
0.0
  0
POINT
  5
3D3
330
17
100
AcDbEntity
  8
СПИРЕЯ СЕРАЯ
100
AcDbPoint
 10
86.50446921625897
 20
55.60340383905202
 30
0.0
  0
POINT
  5
3D4
330
17
100
AcDbEntity
  8
СПИРЕЯ СЕРАЯ
100
AcDbPoint
 10
87.61598364122075
 20
54.99487621135691
 30
0.0
  0
POINT
  5
3D5
330
17
100
AcDbEntity
  8
СПИРЕЯ СЕРАЯ
100
AcDbPoint
 10
89.82727750902076
 20
53.6688102999973
 30
0.0
  0
POINT
  5
3D6
330
17
100
AcDbEntity
  8
СПИРЕЯ СЕРАЯ
100
AcDbPoint
 10
90.9496088900402
 20
52.993349596055495
 30
0.0
  0
POINT
  5
3D7
330
17
100
AcDbEntity
  8
СПИРЕЯ СЕРАЯ
100
AcDbPoint
 10
92.09698343510618
 20
52.335155788805245
 30
0.0
  0
POINT
  5
3D8
330
17
100
AcDbEntity
  8
СПИРЕЯ СЕРАЯ
100
AcDbPoint
 10
93.28162631095287
 20
51.71492732255574
 30
0.0
  0
POINT
  5
3D9
330
17
100
AcDbEntity
  8
СПИРЕЯ СЕРАЯ
100
AcDbPoint
 10
94.51847608937112
 20
51.15550597533233
 30
0.0
  0
POINT
  5
3DA
330
17
100
AcDbEntity
  8
СПИРЕЯ СЕРАЯ
100
AcDbPoint
 10
95.813267840795
 20
50.69150334300174
 30
0.0
  0
POINT
  5
3DB
330
17
100
AcDbEntity
  8
СПИРЕЯ СЕРАЯ
100
AcDbPoint
 10
97.1684778092355
 20
50.37469267444788
 30
0.0
  0
POINT
  5
3DC
330
17
100
AcDbEntity
  8
СПИРЕЯ СЕРАЯ
100
AcDbPoint
 10
98.56385943579826
 20
50.22210356890452
 30
0.0
  0
POINT
  5
3DD
330
17
100
AcDbEntity
  8
СПИРЕЯ СЕРАЯ
100
AcDbPoint
 10
99.97140931929263
 20
50.2511951070339
 30
0.0
  0
POINT
  5
3DE
330
17
100
AcDbEntity
  8
СПИРЕЯ СЕРАЯ
100
AcDbPoint
 10
101.35408395646151
 20
50.47658579165879
 30
0.0
  0
POINT
  5
3DF
330
17
100
AcDbEntity
  8
СПИРЕЯ СЕРАЯ
100
AcDbPoint
 10
102.68680319764991
 20
50.86168645776107
 30
0.0
  0
POINT
  5
3E0
330
17
100
AcDbEntity
  8
СПИРЕЯ СЕРАЯ
100
AcDbPoint
 10
103.95608094048735
 20
51.36004355827201
 30
0.0
  0
POINT
  5
3E1
330
17
100
AcDbEntity
  8
СПИРЕЯ СЕРАЯ
100
AcDbPoint
 10
105.17333986318353
 20
51.942350354510104
 30
0.0
  0
POINT
  5
3E2
330
17
100
AcDbEntity
  8
СПИРЕЯ СЕРАЯ
100
AcDbPoint
 10
106.34466764518717
 20
52.57942481867761
 30
0.0
  0
POINT
  5
3E3
330
17
100
AcDbEntity
  8
СПИРЕЯ СЕРАЯ
100
AcDbPoint
 10
107.48091518286536
 20
53.24836670765518
 30
0.0
  0
POINT
  5
3E4
330
17
100
AcDbEntity
  8
СПИРЕЯ СЕРАЯ
100
AcDbPoint
 10
108.59573057137007
 20
53.925901338041186
 30
0.0
  0
POINT
  5
3E5
330
17
100
AcDbEntity
  8
СПИРЕЯ СЕРАЯ
100
AcDbPoint
 10
1.1118215059257304
 20
55.17366524547898
 30
0.0
  0
POINT
  5
3E6
330
17
100
AcDbEntity
  8
СПИРЕЯ СЕРАЯ
100
AcDbPoint
 10
2.235472624550678
 20
55.8272702618102
 30
0.0
  0
POINT
  5
3E7
330
17
100
AcDbEntity
  8
СПИРЕЯ СЕРАЯ
100
AcDbPoint
 10
3.381407781216926
 20
56.44061106888534
 30
0.0
  0
POINT
  5
3E8
330
17
100
AcDbEntity
  8
СПИРЕЯ СЕРАЯ
100
AcDbPoint
 10
4.558689608003203
 20
56.990774725742185
 30
0.0
  0
POINT
  5
3E9
330
17
100
AcDbEntity
  8
СПИРЕЯ СЕРАЯ
100
AcDbPoint
 10
5.773390666638948
 20
57.45179074728734
 30
0.0
  0
POINT
  5
3EA
330
17
100
AcDbEntity
  8
СПИРЕЯ СЕРАЯ
100
AcDbPoint
 10
7.0268789642449905
 20
57.79316844084175
 30
0.0
  0
POINT
  5
3EB
330
17
100
AcDbEntity
  8
СПИРЕЯ СЕРАЯ
100
AcDbPoint
 10
8.314377959486443
 20
57.96354351217085
 30
0.0
  0
POINT
  5
3EC
330
17
100
AcDbEntity
  8
СПИРЕЯ СЕРАЯ
100
AcDbPoint
 10
9.61254406758254
 20
57.96742927732033
 30
0.0
  0
POINT
  5
3ED
330
17
100
AcDbEntity
  8
СПИРЕЯ СЕРАЯ
100
AcDbPoint
 10
10.900835439704672
 20
57.804582550625284
 30
0.0
  0
POINT
  5
3EE
330
17
100
AcDbEntity
  8
СПИРЕЯ СЕРАЯ
100
AcDbPoint
 10
12.157535202960887
 20
57.47596208998823
 30
0.0
  0
POINT
  5
3EF
330
17
100
AcDbEntity
  8
СПИРЕЯ СЕРАЯ
100
AcDbPoint
 10
13.374115230061523
 20
57.019762645829616
 30
0.0
  0
POINT
  5
3F0
330
17
100
AcDbEntity
  8
СПИРЕЯ СЕРАЯ
100
AcDbPoint
 10
14.55313058468605
 20
56.473325954791456
 30
0.0
  0
POINT
  5
3F1
330
17
100
AcDbEntity
  8
СПИРЕЯ СЕРАЯ
100
AcDbPoint
 10
15.700484220939897
 20
55.862681611106495
 30
0.0
  0
POINT
  5
3F2
330
17
100
AcDbEntity
  8
СПИРЕЯ СЕРАЯ
100
AcDbPoint
 10
16.825130513966624
 20
55.21081953867436
 30
0.0
  0
POINT
  5
3F3
330
17
100
AcDbEntity
  8
СПИРЕЯ СЕРАЯ
100
AcDbPoint
 10
17.93746298326658
 20
54.5380080364737
 30
0.0
  0
POINT
  5
3F4
330
17
100
AcDbEntity
  8
СПИРЕЯ СЕРАЯ
100
AcDbPoint
 10
19.048773525818092
 20
53.8634890477164
 30
0.0
  0
POINT
  5
3F5
330
17
100
AcDbEntity
  8
СПИРЕЯ СЕРАЯ
100
AcDbPoint
 10
20.17142947004126
 20
53.2081410874861
 30
0.0
  0
POINT
  5
3F6
330
17
100
AcDbEntity
  8
СПИРЕЯ СЕРАЯ
100
AcDbPoint
 10
21.315946147119913
 20
52.592103817020764
 30
0.0
  0
POINT
  5
3F7
330
17
100
AcDbEntity
  8
СПИРЕЯ СЕРАЯ
100
AcDbPoint
 10
22.491494446067943
 20
52.03821319434524
 30
0.0
  0
POINT
  5
3F8
330
17
100
AcDbEntity
  8
СПИРЕЯ СЕРАЯ
100
AcDbPoint
 10
23.7043165362388
 20
51.57238059541354
 30
0.0
  0
POINT
  5
3F9
330
17
100
AcDbEntity
  8
СПИРЕЯ СЕРАЯ
100
AcDbPoint
 10
24.9554865822424
 20
51.22255295586831
 30
0.0
  0
POINT
  5
3FA
330
17
100
AcDbEntity
  8
СПИРЕЯ СЕРАЯ
100
AcDbPoint
 10
26.241299986555447
 20
51.04034225297862
 30
0.0
  0
POINT
  5
3FB
330
17
100
AcDbEntity
  8
СПИРЕЯ СЕРАЯ
100
AcDbPoint
 10
27.539466094651548
 20
51.0286849575302
 30
0.0
  0
POINT
  5
3FC
330
17
100
AcDbEntity
  8
СПИРЕЯ СЕРАЯ
100
AcDbPoint
 10
28.828549843654358
 20
51.18400333959118
 30
0.0
  0
POINT
  5
3FD
330
17
100
AcDbEntity
  8
СПИРЕЯ СЕРАЯ
100
AcDbPoint
 10
30.088461072560737
 20
51.49986656731088
 30
0.0
  0
POINT
  5
3FE
330
17
100
AcDbEntity
  8
СПИРЕЯ СЕРАЯ
100
AcDbPoint
 10
31.306920068126256
 20
51.95124943408297
 30
0.0
  0
POINT
  5
3FF
330
17
100
AcDbEntity
  8
СПИРЕЯ СЕРАЯ
100
AcDbPoint
 10
32.487668950589025
 20
52.493959159302435
 30
0.0
  0
POINT
  5
400
330
17
100
AcDbEntity
  8
СПИРЕЯ СЕРАЯ
100
AcDbPoint
 10
33.63644106643047
 20
53.1019070395972
 30
0.0
  0
POINT
  5
401
330
17
100
AcDbEntity
  8
СПИРЕЯ СЕРАЯ
100
AcDbPoint
 10
34.76208253385897
 20
53.75202616813026
 30
0.0
  0
POINT
  5
402
330
17
100
AcDbEntity
  8
СПИРЕЯ СЕРАЯ
100
AcDbPoint
 10
35.87492596653315
 20
54.4239839270526
 30
0.0
  0
POINT
  5
403
330
17
100
AcDbEntity
  8
СПИРЕЯ СЕРАЯ
100
AcDbPoint
 10
36.985841230991966
 20
55.09916336630737
 30
0.0
  0
POINT
  5
404
330
17
100
AcDbEntity
  8
СПИРЕЯ СЕРАЯ
100
AcDbPoint
 10
38.10738631553182
 20
55.75644756321759
 30
0.0
  0
POINT
  5
405
330
17
100
AcDbEntity
  8
СПИРЕЯ СЕРАЯ
100
AcDbPoint
 10
39.25048451302286
 20
56.37518129707311
 30
0.0
  0
POINT
  5
406
330
17
100
AcDbEntity
  8
СПИРЕЯ СЕРАЯ
100
AcDbPoint
 10
40.424299284132644
 20
56.93279888556733
 30
0.0
  0
POINT
  5
407
330
17
100
AcDbEntity
  8
СПИРЕЯ СЕРАЯ
100
AcDbPoint
 10
41.6352424058386
 20
57.403448061885555
 30
0.0
  0
POINT
  5
408
330
17
100
AcDbEntity
  8
СПИРЕЯ СЕРАЯ
100
AcDbPoint
 10
42.884622948299175
 20
57.759175900684454
 30
0.0
  0
POINT
  5
409
330
17
100
AcDbEntity
  8
СПИРЕЯ СЕРАЯ
100
AcDbPoint
 10
44.16822201362439
 20
57.955771981871905
 30
0.0
  0
POINT
  5
40A
330
17
100
AcDbEntity
  8
СПИРЕЯ СЕРАЯ
100
AcDbPoint
 10
45.466388121720485
 20
57.975200807619274
 30
0.0
  0
POINT
  5
40B
330
17
100
AcDbEntity
  8
СПИРЕЯ СЕРАЯ
100
AcDbPoint
 10
46.756264247603966
 20
57.82741077019236
 30
0.0
  0
POINT
  5
40C
330
17
100
AcDbEntity
  8
СПИРЕЯ СЕРАЯ
100
AcDbPoint
 10
48.01938694216053
 20
57.52430477539003
 30
0.0
  0
POINT
  5
40D
330
17
100
AcDbEntity
  8
СПИРЕЯ СЕРАЯ
100
AcDbPoint
 10
49.239724906190936
 20
57.077738486004485
 30
0.0
  0
POINT
  5
40E
330
17
100
AcDbEntity
  8
СПИРЕЯ СЕРАЯ
100
AcDbPoint
 10
50.42220731649196
 20
56.53875572660369
 30
0.0
  0
POINT
  5
40F
330
17
100
AcDbEntity
  8
СПИРЕЯ СЕРАЯ
100
AcDbPoint
 10
51.572397911921
 20
55.93350430969912
 30
0.0
  0
POINT
  5
410
330
17
100
AcDbEntity
  8
СПИРЕЯ СЕРАЯ
100
AcDbPoint
 10
58.35710412219733
 20
52.096189034520116
 30
0.0
  0
POINT
  5
411
330
17
100
AcDbEntity
  8
СПИРЕЯ СЕРАЯ
100
AcDbPoint
 10
59.56616827543841
 20
51.62072328081534
 30
0.0
  0
POINT
  5
412
330
17
100
AcDbEntity
  8
СПИРЕЯ СЕРАЯ
100
AcDbPoint
 10
60.813759314355956
 20
51.25909524276277
 30
0.0
  0
POINT
  5
413
330
17
100
AcDbEntity
  8
СПИРЕЯ СЕРАЯ
100
AcDbPoint
 10
62.09514404069334
 20
51.04811378327757
 30
0.0
  0
POINT
  5
414
330
17
100
AcDbEntity
  8
СПИРЕЯ СЕРАЯ
100
AcDbPoint
 10
63.39331014878943
 20
51.02091342723125
 30
0.0
  0
POINT
  5
415
330
17
100
AcDbEntity
  8
СПИРЕЯ СЕРАЯ
100
AcDbPoint
 10
64.68397865155359
 20
51.16117512002409
 30
0.0
  0
POINT
  5
416
330
17
100
AcDbEntity
  8
СПИРЕЯ СЕРАЯ
100
AcDbPoint
 10
65.94902556574097
 20
51.45576808026916
 30
0.0
  0
POINT
  5
417
330
17
100
AcDbEntity
  8
СПИРЕЯ СЕРАЯ
100
AcDbPoint
 10
67.17252974425561
 20
51.89327359390806
 30
0.0
  0
POINT
  5
418
330
17
100
AcDbEntity
  8
СПИРЕЯ СЕРАЯ
100
AcDbPoint
 10
68.35674568239489
 20
52.428529387490165
 30
0.0
  0
POINT
  5
419
330
17
100
AcDbEntity
  8
СПИРЕЯ СЕРАЯ
100
AcDbPoint
 10
69.50835475741152
 20
53.03108434100456
 30
0.0
  0
POINT
  5
41A
330
17
100
AcDbEntity
  8
СПИРЕЯ СЕРАЯ
100
AcDbPoint
 10
70.63598657364359
 20
53.67771758173944
 30
0.0
  0
POINT
  5
41B
330
17
100
AcDbEntity
  8
СПИРЕЯ СЕРАЯ
100
AcDbPoint
 10
71.74985193306621
 20
54.34796785410515
 30
0.0
  0
POINT
  5
41C
330
17
100
AcDbEntity
  8
СПИРЕЯ СЕРАЯ
100
AcDbPoint
 10
72.86076719752504
 20
55.02314729335992
 30
0.0
  0
POINT
  5
41D
330
17
100
AcDbEntity
  8
СПИРЕЯ СЕРАЯ
100
AcDbPoint
 10
73.9796216662405
 20
55.68506151124806
 30
0.0
  0
POINT
  5
41E
330
17
100
AcDbEntity
  8
СПИРЕЯ СЕРАЯ
100
AcDbPoint
 10
75.11956124482873
 20
56.30975152526084
 30
0.0
  0
POINT
  5
41F
330
17
100
AcDbEntity
  8
СПИРЕЯ СЕРАЯ
100
AcDbPoint
 10
76.28990896026201
 20
56.87482304539243
 30
0.0
  0
POINT
  5
420
330
17
100
AcDbEntity
  8
СПИРЕЯ СЕРАЯ
100
AcDbPoint
 10
77.49709414503819
 20
57.35510537648375
 30
0.0
  0
POINT
  5
421
330
17
100
AcDbEntity
  8
СПИРЕЯ СЕРАЯ
100
AcDbPoint
 10
78.74289568041272
 20
57.72263361379
 30
0.0
  0
POINT
  5
422
330
17
100
AcDbEntity
  8
СПИРЕЯ СЕРАЯ
100
AcDbPoint
 10
80.02206606776227
 20
57.94800045157295
 30
0.0
  0
POINT
  5
423
330
17
100
AcDbEntity
  8
СПИРЕЯ СЕРАЯ
100
AcDbPoint
 10
81.32023217585837
 20
57.98297233791823
 30
0.0
  0
POINT
  5
424
330
17
100
AcDbEntity
  8
СПИРЕЯ СЕРАЯ
100
AcDbPoint
 10
82.61169305550321
 20
57.85023898975945
 30
0.0
  0
POINT
  5
425
330
17
100
AcDbEntity
  8
СПИРЕЯ СЕРАЯ
100
AcDbPoint
 10
83.87816193179773
 20
57.56250306317807
 30
0.0
  0
POINT
  5
426
330
17
100
AcDbEntity
  8
СПИРЕЯ СЕРАЯ
100
AcDbPoint
 10
85.1053345823203
 20
57.135714326179375
 30
0.0
  0
POINT
  5
427
330
17
100
AcDbEntity
  8
СПИРЕЯ СЕРАЯ
100
AcDbPoint
 10
86.29128404829783
 20
56.604185498415966
 30
0.0
  0
POINT
  5
428
330
17
100
AcDbEntity
  8
СПИРЕЯ СЕРАЯ
100
AcDbPoint
 10
87.44431160290206
 20
56.004327008291774
 30
0.0
  0
POINT
  5
429
330
17
100
AcDbEntity
  8
СПИРЕЯ СЕРАЯ
100
AcDbPoint
 10
89.68731491633274
 20
54.690040182368584
 30
0.0
  0
POINT
  5
42A
330
17
100
AcDbEntity
  8
СПИРЕЯ СЕРАЯ
100
AcDbPoint
 10
90.79823018079155
 20
54.01486074311381
 30
0.0
  0
POINT
  5
42B
330
17
100
AcDbEntity
  8
СПИРЕЯ СЕРАЯ
100
AcDbPoint
 10
91.9165736861328
 20
53.352092781947356
 30
0.0
  0
POINT
  5
42C
330
17
100
AcDbEntity
  8
СПИРЕЯ СЕРАЯ
100
AcDbPoint
 10
93.05409961073165
 20
52.7229633606453
 30
0.0
  0
POINT
  5
42D
330
17
100
AcDbEntity
  8
СПИРЕЯ СЕРАЯ
100
AcDbPoint
 10
94.22271379832668
 20
52.15416487469501
 30
0.0
  0
POINT
  5
42E
330
17
100
AcDbEntity
  8
СПИРЕЯ СЕРАЯ
100
AcDbPoint
 10
95.42802001463797
 20
51.66906596621716
 30
0.0
  0
POINT
  5
42F
330
17
100
AcDbEntity
  8
СПИРЕЯ СЕРАЯ
100
AcDbPoint
 10
96.67203204646947
 20
51.29563752965724
 30
0.0
  0
POINT
  5
430
330
17
100
AcDbEntity
  8
СПИРЕЯ СЕРАЯ
100
AcDbPoint
 10
97.94954121162787
 20
51.06114045664013
 30
0.0
  0
POINT
  5
431
330
17
100
AcDbEntity
  8
СПИРЕЯ СЕРАЯ
100
AcDbPoint
 10
99.24715420292729
 20
51.0131418969323
 30
0.0
  0
POINT
  5
432
330
17
100
AcDbEntity
  8
СПИРЕЯ СЕРАЯ
100
AcDbPoint
 10
100.5394074594528
 20
51.138346900457
 30
0.0
  0
POINT
  5
433
330
17
100
AcDbEntity
  8
СПИРЕЯ СЕРАЯ
100
AcDbPoint
 10
101.80729829785447
 20
51.41922579337469
 30
0.0
  0
POINT
  5
434
330
17
100
AcDbEntity
  8
СПИРЕЯ СЕРАЯ
100
AcDbPoint
 10
103.03813942038495
 20
51.835297753733165
 30
0.0
  0
POINT
  5
435
330
17
100
AcDbEntity
  8
СПИРЕЯ СЕРАЯ
100
AcDbPoint
 10
104.22582241420072
 20
52.36309961567789
 30
0.0
  0
POINT
  5
436
330
17
100
AcDbEntity
  8
СПИРЕЯ СЕРАЯ
100
AcDbPoint
 10
105.38026844839257
 20
52.9602616424119
 30
0.0
  0
POINT
  5
437
330
17
100
AcDbEntity
  8
СПИРЕЯ СЕРАЯ
100
AcDbPoint
 10
106.50989061342818
 20
53.60340899534861
 30
0.0
  0
POINT
  5
438
330
17
100
AcDbEntity
  8
СПИРЕЯ СЕРАЯ
100
AcDbPoint
 10
107.62477789959925
 20
54.27195178115768
 30
0.0
  0
POINT
  5
439
330
17
100
AcDbEntity
  8
СПИРЕЯ СЕРАЯ
100
AcDbPoint
 10
108.73569316405808
 20
54.94713122041246
 30
0.0
  0
POINT
  5
43A
330
17
100
AcDbEntity
  8
СПИРЕЯ СЕРАЯ
100
AcDbPoint
 10
1.2679082152752184
 20
56.19422048029276
 30
0.0
  0
POINT
  5
43B
330
17
100
AcDbEntity
  8
СПИРЕЯ СЕРАЯ
100
AcDbPoint
 10
2.4252805462910145
 20
56.84630885044187
 30
0.0
  0
POINT
  5
43C
330
17
100
AcDbEntity
  8
СПИРЕЯ СЕРАЯ
100
AcDbPoint
 10
3.623756413422906
 20
57.45576998270013
 30
0.0
  0
POINT
  5
43D
330
17
100
AcDbEntity
  8
СПИРЕЯ СЕРАЯ
100
AcDbPoint
 10
4.878070200427567
 20
57.98582422912871
 30
0.0
  0
POINT
  5
43E
330
17
100
AcDbEntity
  8
СПИРЕЯ СЕРАЯ
100
AcDbPoint
 10
6.191328994483744
 20
58.406560276889536
 30
0.0
  0
POINT
  5
43F
330
17
100
AcDbEntity
  8
СПИРЕЯ СЕРАЯ
100
AcDbPoint
 10
7.557630230016607
 20
58.68676999299086
 30
0.0
  0
POINT
  5
440
330
17
100
AcDbEntity
  8
СПИРЕЯ СЕРАЯ
100
AcDbPoint
 10
8.960348033512151
 20
58.79805106074945
 30
0.0
  0
POINT
  5
441
330
17
100
AcDbEntity
  8
СПИРЕЯ СЕРАЯ
100
AcDbPoint
 10
10.364081714811164
 20
58.6990041845104
 30
0.0
  0
POINT
  5
442
330
17
100
AcDbEntity
  8
СПИРЕЯ СЕРАЯ
100
AcDbPoint
 10
11.733039233844343
 20
58.426083744547434
 30
0.0
  0
POINT
  5
443
330
17
100
AcDbEntity
  8
СПИРЕЯ СЕРАЯ
100
AcDbPoint
 10
13.04897934666479
 20
58.01144308128741
 30
0.0
  0
POINT
  5
444
330
17
100
AcDbEntity
  8
СПИРЕЯ СЕРАЯ
100
AcDbPoint
 10
14.307050069534471
 20
57.4882616344288
 30
0.0
  0
POINT
  5
445
330
17
100
AcDbEntity
  8
СПИРЕЯ СЕРАЯ
100
AcDbPoint
 10
15.508527698722334
 20
56.882871927276895
 30
0.0
  0
POINT
  5
446
330
17
100
AcDbEntity
  8
СПИРЕЯ СЕРАЯ
100
AcDbPoint
 10
16.667657024548962
 20
56.232184049525536
 30
0.0
  0
POINT
  5
447
330
17
100
AcDbEntity
  8
СПИРЕЯ СЕРАЯ
100
AcDbPoint
 10
17.797007903761756
 20
55.55953699406896
 30
0.0
  0
POINT
  5
448
330
17
100
AcDbEntity
  8
СПИРЕЯ СЕРАЯ
100
AcDbPoint
 10
18.908415655037395
 20
54.8840584795902
 30
0.0
  0
POINT
  5
449
330
17
100
AcDbEntity
  8
СПИРЕЯ СЕРАЯ
100
AcDbPoint
 10
20.014063992173345
 20
54.223218820347576
 30
0.0
  0
POINT
  5
44A
330
17
100
AcDbEntity
  8
СПИРЕЯ СЕРАЯ
100
AcDbPoint
 10
21.121436988886646
 20
53.596969903930436
 30
0.0
  0
POINT
  5
44B
330
17
100
AcDbEntity
  8
СПИРЕЯ СЕРАЯ
100
AcDbPoint
 10
22.239442608378365
 20
53.0247110493268
 30
0.0
  0
POINT
  5
44C
330
17
100
AcDbEntity
  8
СПИРЕЯ СЕРАЯ
100
AcDbPoint
 10
23.376464908623948
 20
52.53432906260101
 30
0.0
  0
POINT
  5
44D
330
17
100
AcDbEntity
  8
СПИРЕЯ СЕРАЯ
100
AcDbPoint
 10
24.536439843412783
 20
52.15668365124528
 30
0.0
  0
POINT
  5
44E
330
17
100
AcDbEntity
  8
СПИРЕЯ СЕРАЯ
100
AcDbPoint
 10
25.71392525742454
 20
51.908220523252346
 30
0.0
  0
POINT
  5
44F
330
17
100
AcDbEntity
  8
СПИРЕЯ СЕРАЯ
100
AcDbPoint
 10
26.899721415094724
 20
51.80577414259361
 30
0.0
  0
POINT
  5
450
330
17
100
AcDbEntity
  8
СПИРЕЯ СЕРАЯ
100
AcDbPoint
 10
28.0872243099109
 20
51.87643823444026
 30
0.0
  0
POINT
  5
451
330
17
100
AcDbEntity
  8
СПИРЕЯ СЕРАЯ
100
AcDbPoint
 10
29.263348030537962
 20
52.10513790635407
 30
0.0
  0
POINT
  5
452
330
17
100
AcDbEntity
  8
СПИРЕЯ СЕРАЯ
100
AcDbPoint
 10
30.4279413533638
 20
52.46615745581363
 30
0.0
  0
POINT
  5
453
330
17
100
AcDbEntity
  8
СПИРЕЯ СЕРАЯ
100
AcDbPoint
 10
31.570636353945982
 20
52.93606930458652
 30
0.0
  0
POINT
  5
454
330
17
100
AcDbEntity
  8
СПИРЕЯ СЕРАЯ
100
AcDbPoint
 10
32.69287928966969
 20
53.494191005645376
 30
0.0
  0
POINT
  5
455
330
17
100
AcDbEntity
  8
СПИРЕЯ СЕРАЯ
100
AcDbPoint
 10
33.800952391137145
 20
54.11418375877893
 30
0.0
  0
POINT
  5
456
330
17
100
AcDbEntity
  8
СПИРЕЯ СЕРАЯ
100
AcDbPoint
 10
34.90514647895765
 20
54.770746017667996
 30
0.0
  0
POINT
  5
457
330
17
100
AcDbEntity
  8
СПИРЕЯ СЕРАЯ
100
AcDbPoint
 10
36.01488855922117
 20
55.445213809423876
 30
0.0
  0
POINT
  5
458
330
17
100
AcDbEntity
  8
СПИРЕЯ СЕРАЯ
100
AcDbPoint
 10
37.13955947005199
 20
56.118589274206904
 30
0.0
  0
POINT
  5
459
330
17
100
AcDbEntity
  8
СПИРЕЯ СЕРАЯ
100
AcDbPoint
 10
38.29290801904171
 20
56.77316330201155
 30
0.0
  0
POINT
  5
45A
330
17
100
AcDbEntity
  8
СПИРЕЯ СЕРАЯ
100
AcDbPoint
 10
39.48688595395026
 20
57.3875272173156
 30
0.0
  0
POINT
  5
45B
330
17
100
AcDbEntity
  8
СПИРЕЯ СЕРАЯ
100
AcDbPoint
 10
40.73219078702178
 20
57.93452599845309
 30
0.0
  0
POINT
  5
45C
330
17
100
AcDbEntity
  8
СПИРЕЯ СЕРАЯ
100
AcDbPoint
 10
42.04008334392117
 20
58.36742371921139
 30
0.0
  0
POINT
  5
45D
330
17
100
AcDbEntity
  8
СПИРЕЯ СЕРАЯ
100
AcDbPoint
 10
43.40108373029318
 20
58.66216694347177
 30
0.0
  0
POINT
  5
45E
330
17
100
AcDbEntity
  8
СПИРЕЯ СЕРАЯ
100
AcDbPoint
 10
44.801742994926066
 20
58.7901342114871
 30
0.0
  0
POINT
  5
45F
330
17
100
AcDbEntity
  8
СПИРЕЯ СЕРАЯ
100
AcDbPoint
 10
46.20748110237572
 20
58.72333687795208
 30
0.0
  0
POINT
  5
460
330
17
100
AcDbEntity
  8
СПИРЕЯ СЕРАЯ
100
AcDbPoint
 10
47.58303425667547
 20
58.46472579327657
 30
0.0
  0
POINT
  5
461
330
17
100
AcDbEntity
  8
СПИРЕЯ СЕРАЯ
100
AcDbPoint
 10
48.90305851998377
 20
58.062619723995084
 30
0.0
  0
POINT
  5
462
330
17
100
AcDbEntity
  8
СПИРЕЯ СЕРАЯ
100
AcDbPoint
 10
50.16667826646448
 20
57.54897691203153
 30
0.0
  0
POINT
  5
463
330
17
100
AcDbEntity
  8
СПИРЕЯ СЕРАЯ
100
AcDbPoint
 10
51.37613350275216
 20
56.95597852112967
 30
0.0
  0
POINT
  5
464
330
17
100
AcDbEntity
  8
СПИРЕЯ СЕРАЯ
100
AcDbPoint
 10
58.11445450021315
 20
53.08730359701393
 30
0.0
  0
POINT
  5
465
330
17
100
AcDbEntity
  8
СПИРЕЯ СЕРАЯ
100
AcDbPoint
 10
59.24732083375093
 20
52.58297802722567
 30
0.0
  0
POINT
  5
466
330
17
100
AcDbEntity
  8
СПИРЕЯ СЕРАЯ
100
AcDbPoint
 10
60.404217745372414
 20
52.19057219010723
 30
0.0
  0
POINT
  5
467
330
17
100
AcDbEntity
  8
СПИРЕЯ СЕРАЯ
100
AcDbPoint
 10
61.580040604716075
 20
51.92939099915515
 30
0.0
  0
POINT
  5
468
330
17
100
AcDbEntity
  8
СПИРЕЯ СЕРАЯ
100
AcDbPoint
 10
62.76601004043114
 20
51.813303562583386
 30
0.0
  0
POINT
  5
469
330
17
100
AcDbEntity
  8
СПИРЕЯ СЕРАЯ
100
AcDbPoint
 10
63.95469647050535
 20
51.85502362858715
 30
0.0
  0
POINT
  5
46A
330
17
100
AcDbEntity
  8
СПИРЕЯ СЕРАЯ
100
AcDbPoint
 10
65.13249199580461
 20
52.07129156929448
 30
0.0
  0
POINT
  5
46B
330
17
100
AcDbEntity
  8
СПИРЕЯ СЕРАЯ
100
AcDbPoint
 10
66.29757820084936
 20
52.42060778670067
 30
0.0
  0
POINT
  5
46C
330
17
100
AcDbEntity
  8
СПИРЕЯ СЕРАЯ
100
AcDbPoint
 10
67.44223833083537
 20
52.88080810739476
 30
0.0
  0
POINT
  5
46D
330
17
100
AcDbEntity
  8
СПИРЕЯ СЕРАЯ
100
AcDbPoint
 10
68.56776828144808
 20
53.42818554842443
 30
0.0
  0
POINT
  5
46E
330
17
100
AcDbEntity
  8
СПИРЕЯ СЕРАЯ
100
AcDbPoint
 10
69.67763826715264
 20
54.04147989613344
 30
0.0
  0
POINT
  5
46F
330
17
100
AcDbEntity
  8
СПИРЕЯ СЕРАЯ
100
AcDbPoint
 10
70.78143508937735
 20
54.69555306810478
 30
0.0
  0
POINT
  5
470
330
17
100
AcDbEntity
  8
СПИРЕЯ СЕРАЯ
100
AcDbPoint
 10
71.88981452575423
 20
55.36919773647642
 30
0.0
  0
POINT
  5
471
330
17
100
AcDbEntity
  8
СПИРЕЯ СЕРАЯ
100
AcDbPoint
 10
73.01334234560018
 20
56.04420927115356
 30
0.0
  0
POINT
  5
472
330
17
100
AcDbEntity
  8
СПИРЕЯ СЕРАЯ
100
AcDbPoint
 10
74.16102658961566
 20
56.70025556049109
 30
0.0
  0
POINT
  5
473
330
17
100
AcDbEntity
  8
СПИРЕЯ СЕРАЯ
100
AcDbPoint
 10
75.35003985485613
 20
57.319236141030245
 30
0.0
  0
POINT
  5
474
330
17
100
AcDbEntity
  8
СПИРЕЯ СЕРАЯ
100
AcDbPoint
 10
76.58950916459611
 20
57.87502935001251
 30
0.0
  0
POINT
  5
475
330
17
100
AcDbEntity
  8
СПИРЕЯ СЕРАЯ
100
AcDbPoint
 10
77.8888652161359
 20
58.32816846137283
 30
0.0
  0
POINT
  5
476
330
17
100
AcDbEntity
  8
СПИРЕЯ СЕРАЯ
100
AcDbPoint
 10
79.24628404440924
 20
58.63767567307497
 30
0.0
  0
POINT
  5
477
330
17
100
AcDbEntity
  8
СПИРЕЯ СЕРАЯ
100
AcDbPoint
 10
80.64314925502414
 20
58.78202391133821
 30
0.0
  0
POINT
  5
478
330
17
100
AcDbEntity
  8
СПИРЕЯ СЕРАЯ
100
AcDbPoint
 10
82.05052198197288
 20
58.74432647508012
 30
0.0
  0
POINT
  5
479
330
17
100
AcDbEntity
  8
СПИРЕЯ СЕРАЯ
100
AcDbPoint
 10
83.43041178762022
 20
58.503889133748665
 30
0.0
  0
POINT
  5
47A
330
17
100
AcDbEntity
  8
СПИРЕЯ СЕРАЯ
100
AcDbPoint
 10
84.7589948719399
 20
58.11305848020102
 30
0.0
  0
POINT
  5
47B
330
17
100
AcDbEntity
  8
СПИРЕЯ СЕРАЯ
100
AcDbPoint
 10
86.02628512685524
 20
57.609642469182646
 30
0.0
  0
POINT
  5
47C
330
17
100
AcDbEntity
  8
СПИРЕЯ СЕРАЯ
100
AcDbPoint
 10
87.24096740770497
 20
57.02381589687073
 30
0.0
  0
POINT
  5
47D
330
17
100
AcDbEntity
  8
СПИРЕЯ СЕРАЯ
100
AcDbPoint
 10
89.54413455308145
 20
55.71321538425471
 30
0.0
  0
POINT
  5
47E
330
17
100
AcDbEntity
  8
СПИРЕЯ СЕРАЯ
100
AcDbPoint
 10
90.65826758810356
 20
55.03609062548508
 30
0.0
  0
POINT
  5
47F
330
17
100
AcDbEntity
  8
СПИРЕЯ СЕРАЯ
100
AcDbPoint
 10
91.76354640147997
 20
54.370849406389866
 30
0.0
  0
POINT
  5
480
330
17
100
AcDbEntity
  8
СПИРЕЯ СЕРАЯ
100
AcDbPoint
 10
92.87120075023958
 20
53.73536561199162
 30
0.0
  0
POINT
  5
481
330
17
100
AcDbEntity
  8
СПИРЕЯ СЕРАЯ
100
AcDbPoint
 10
93.98944143787872
 20
53.14984813782567
 30
0.0
  0
POINT
  5
482
330
17
100
AcDbEntity
  8
СПИРЕЯ СЕРАЯ
100
AcDbPoint
 10
95.1206146365914
 20
52.63787879279474
 30
0.0
  0
POINT
  5
483
330
17
100
AcDbEntity
  8
СПИРЕЯ СЕРАЯ
100
AcDbPoint
 10
96.2719659344446
 20
52.22434255794968
 30
0.0
  0
POINT
  5
484
330
17
100
AcDbEntity
  8
СПИРЕЯ СЕРАЯ
100
AcDbPoint
 10
97.44651438638553
 20
51.95034989026822
 30
0.0
  0
POINT
  5
485
330
17
100
AcDbEntity
  8
СПИРЕЯ СЕРАЯ
100
AcDbPoint
 10
98.63228286196025
 20
51.820639847739706
 30
0.0
  0
POINT
  5
486
330
17
100
AcDbEntity
  8
СПИРЕЯ СЕРАЯ
100
AcDbPoint
 10
99.82106519465805
 20
51.84411589733951
 30
0.0
  0
POINT
  5
487
330
17
100
AcDbEntity
  8
СПИРЕЯ СЕРАЯ
100
AcDbPoint
 10
101.0016823215481
 20
52.03729495345364
 30
0.0
  0
POINT
  5
488
330
17
100
AcDbEntity
  8
СПИРЕЯ СЕРАЯ
100
AcDbPoint
 10
102.16456726071735
 20
52.37405864283198
 30
0.0
  0
POINT
  5
489
330
17
100
AcDbEntity
  8
СПИРЕЯ СЕРАЯ
100
AcDbPoint
 10
103.3138610295917
 20
52.82549693045728
 30
0.0
  0
POINT
  5
48A
330
17
100
AcDbEntity
  8
СПИРЕЯ СЕРАЯ
100
AcDbPoint
 10
104.4411734925862
 20
53.365000137754855
 30
0.0
  0
POINT
  5
48B
330
17
100
AcDbEntity
  8
СПИРЕЯ СЕРАЯ
100
AcDbPoint
 10
105.55353973293691
 20
53.9701500346921
 30
0.0
  0
POINT
  5
48C
330
17
100
AcDbEntity
  8
СПИРЕЯ СЕРАЯ
100
AcDbPoint
 10
106.65772535187436
 20
54.62035741540542
 30
0.0
  0
POINT
  5
48D
330
17
100
AcDbEntity
  8
СПИРЕЯ СЕРАЯ
100
AcDbPoint
 10
107.76474049228727
 20
55.29318166352897
 30
0.0
  0
POINT
  5
48E
330
17
100
AcDbEntity
  8
СПИРЕЯ СЕРАЯ
100
AcDbPoint
 10
108.8858758296826
 20
55.969090850377754
 30
0.0
  0
POINT
  5
490
330
17
100
AcDbEntity
  8
БЕРЕЗА ПОВИСЛАЯ
100
AcDbPoint
 10
9.0
 20
33.5
 30
0.0
  0
POINT
  5
491
330
17
100
AcDbEntity
  8
БЕРЕЗА ПОВИСЛАЯ
100
AcDbPoint
 10
12.4
 20
34.10163150394265
 30
0.0
  0
POINT
  5
492
330
17
100
AcDbEntity
  8
БЕРЕЗА ПОВИСЛАЯ
100
AcDbPoint
 10
7.0
 20
35.888924172750684
 30
0.0
  0
POINT
  5
494
330
17
100
AcDbEntity
  8
ЕЛЬ КОЛЮЧАЯ
100
AcDbPoint
 10
27.0
 20
26.5
 30
0.0
  0
POINT
  5
495
330
17
100
AcDbEntity
  8
БЕРЕЗА ПОВИСЛАЯ
100
AcDbPoint
 10
30.4
 20
28.298368496057353
 30
0.0
  0
POINT
  5
496
330
17
100
AcDbEntity
  8
БЕРЕЗА ПОВИСЛАЯ
100
AcDbPoint
 10
25.0
 20
29.311075827249322
 30
0.0
  0
POINT
  5
497
330
17
100
AcDbEntity
  8
БЕРЕЗА ПОВИСЛАЯ
100
AcDbPoint
 10
45.0
 20
33.5
 30
0.0
  0
POINT
  5
498
330
17
100
AcDbEntity
  8
БЕРЕЗА ПОВИСЛАЯ
100
AcDbPoint
 10
48.4
 20
34.10163150394265
 30
0.0
  0
POINT
  5
499
330
17
100
AcDbEntity
  8
БЕРЕЗА ПОВИСЛАЯ
100
AcDbPoint
 10
43.0
 20
35.88892417275068
 30
0.0
  0
POINT
  5
49A
330
17
100
AcDbEntity
  8
ЕЛЬ КОЛЮЧАЯ
100
AcDbPoint
 10
63.0
 20
26.5
 30
0.0
  0
POINT
  5
49B
330
17
100
AcDbEntity
  8
БЕРЕЗА ПОВИСЛАЯ
100
AcDbPoint
 10
66.4
 20
28.298368496057353
 30
0.0
  0
POINT
  5
49C
330
17
100
AcDbEntity
  8
БЕРЕЗА ПОВИСЛАЯ
100
AcDbPoint
 10
61.0
 20
29.311075827249322
 30
0.0
  0
POINT
  5
49D
330
17
100
AcDbEntity
  8
БЕРЕЗА ПОВИСЛАЯ
100
AcDbPoint
 10
81.0
 20
33.5
 30
0.0
  0
POINT
  5
49E
330
17
100
AcDbEntity
  8
БЕРЕЗА ПОВИСЛАЯ
100
AcDbPoint
 10
84.4
 20
34.10163150394265
 30
0.0
  0
POINT
  5
49F
330
17
100
AcDbEntity
  8
БЕРЕЗА ПОВИСЛАЯ
100
AcDbPoint
 10
79.0
 20
35.888924172750684
 30
0.0
  0
POINT
  5
4A0
330
17
100
AcDbEntity
  8
ЕЛЬ КОЛЮЧАЯ
100
AcDbPoint
 10
99.0
 20
26.5
 30
0.0
  0
POINT
  5
4A1
330
17
100
AcDbEntity
  8
БЕРЕЗА ПОВИСЛАЯ
100
AcDbPoint
 10
102.4
 20
28.298368496057353
 30
0.0
  0
POINT
  5
4A2
330
17
100
AcDbEntity
  8
БЕРЕЗА ПОВИСЛАЯ
100
AcDbPoint
 10
97.0
 20
29.311075827249326
 30
0.0
  0
POINT
  5
4A3
330
17
100
AcDbEntity
  8
БЕРЕЗА ПОВИСЛАЯ
100
AcDbPoint
 10
3.9181163323099772
 20
51.7088347277665
 30
0.0
  0
POINT
  5
4A4
330
17
100
AcDbEntity
  8
БЕРЕЗА ПОВИСЛАЯ
100
AcDbPoint
 10
12.629474186209922
 20
52.31081489476571
 30
0.0
  0
POINT
  5
4A5
330
17
100
AcDbEntity
  8
БЕРЕЗА ПОВИСЛАЯ
100
AcDbPoint
 10
20.52148192583785
 20
48.01458675870275
 30
0.0
  0
POINT
  5
4A6
330
17
100
AcDbEntity
  8
БЕРЕЗА ПОВИСЛАЯ
100
AcDbPoint
 10
29.122421820012534
 20
46.242640488981344
 30
0.0
  0
POINT
  5
4A7
330
17
100
AcDbEntity
  8
БЕРЕЗА ПОВИСЛАЯ
100
AcDbPoint
 10
37.15803201967128
 20
50.200897188096015
 30
0.0
  0
POINT
  5
4A8
330
17
100
AcDbEntity
  8
БЕРЕЗА ПОВИСЛАЯ
100
AcDbPoint
 10
45.56624705311252
 20
52.96989102219552
 30
0.0
  0
POINT
  5
4A9
330
17
100
AcDbEntity
  8
БЕРЕЗА ПОВИСЛАЯ
100
AcDbPoint
 10
61.9953362323722
 20
46.05390928718348
 30
0.0
  0
POINT
  5
4AA
330
17
100
AcDbEntity
  8
БЕРЕЗА ПОВИСЛАЯ
100
AcDbPoint
 10
70.46368009968282
 20
48.57617705273168
 30
0.0
  0
POINT
  5
4AB
330
17
100
AcDbEntity
  8
БЕРЕЗА ПОВИСЛАЯ
100
AcDbPoint
 10
78.45239637632834
 20
52.64773265033534
 30
0.0
  0
POINT
  5
4AC
330
17
100
AcDbEntity
  8
БЕРЕЗА ПОВИСЛАЯ
100
AcDbPoint
 10
94.9572757240555
 20
46.83727565545622
 30
0.0
  0
POINT
  5
4AD
330
17
100
AcDbEntity
  8
БЕРЕЗА ПОВИСЛАЯ
100
AcDbPoint
 10
103.68088110539772
 20
47.11257582056713
 30
0.0
  0
POINT
  5
4AF
330
17
100
AcDbEntity
  8
ЛИПА МЕЛКОЛИСТНАЯ
100
AcDbPoint
 10
3.918116332309979
 20
12.208834727766499
 30
0.0
  0
POINT
  5
4B0
330
17
100
AcDbEntity
  8
ЛИПА МЕЛКОЛИСТНАЯ
100
AcDbPoint
 10
12.629474186209922
 20
12.810814894765716
 30
0.0
  0
POINT
  5
4B1
330
17
100
AcDbEntity
  8
ЛИПА МЕЛКОЛИСТНАЯ
100
AcDbPoint
 10
20.521481925837836
 20
8.514586758702753
 30
0.0
  0
POINT
  5
4B2
330
17
100
AcDbEntity
  8
ЛИПА МЕЛКОЛИСТНАЯ
100
AcDbPoint
 10
29.12242182001251
 20
6.742640488981338
 30
0.0
  0
POINT
  5
4B3
330
17
100
AcDbEntity
  8
ЛИПА МЕЛКОЛИСТНАЯ
100
AcDbPoint
 10
37.15803201967126
 20
10.700897188096004
 30
0.0
  0
POINT
  5
4B4
330
17
100
AcDbEntity
  8
ЛИПА МЕЛКОЛИСТНАЯ
100
AcDbPoint
 10
45.566247053112505
 20
13.469891022195519
 30
0.0
  0
POINT
  5
4B5
330
17
100
AcDbEntity
  8
ЛИПА МЕЛКОЛИСТНАЯ
100
AcDbPoint
 10
61.99533623237219
 20
6.553909287183477
 30
0.0
  0
POINT
  5
4B6
330
17
100
AcDbEntity
  8
ЛИПА МЕЛКОЛИСТНАЯ
100
AcDbPoint
 10
70.4636800996828
 20
9.076177052731678
 30
0.0
  0
POINT
  5
4B7
330
17
100
AcDbEntity
  8
ЛИПА МЕЛКОЛИСТНАЯ
100
AcDbPoint
 10
78.45239637632832
 20
13.147732650335335
 30
0.0
  0
POINT
  5
4B8
330
17
100
AcDbEntity
  8
ЛИПА МЕЛКОЛИСТНАЯ
100
AcDbPoint
 10
94.9572757240555
 20
7.337275655456225
 30
0.0
  0
POINT
  5
4B9
330
17
100
AcDbEntity
  8
ЛИПА МЕЛКОЛИСТНАЯ
100
AcDbPoint
 10
103.6808811053977
 20
7.612575820567123
 30
0.0
  0
POINT
  5
4BB
330
17
100
AcDbEntity
  8
LAMPS
100
AcDbPoint
 10
8.371316364037497
 20
16.564714623214957
 30
0.0
  0
POINT
  5
4BC
330
17
100
AcDbEntity
  8
LAMPS
100
AcDbPoint
 10
25.112205023236804
 20
13.644071445636058
 30
0.0
  0
POINT
  5
4BD
330
17
100
AcDbEntity
  8
LAMPS
100
AcDbPoint
 10
41.832120697531806
 20
15.959907363318285
 30
0.0
  0
POINT
  5
4BE
330
17
100
AcDbEntity
  8
LAMPS
100
AcDbPoint
 10
58.55302715966379
 20
14.597802660364863
 30
0.0
  0
POINT
  5
4BF
330
17
100
AcDbEntity
  8
LAMPS
100
AcDbPoint
 10
91.94568099474857
 20
16.04082382111721
 30
0.0
  0
POINT
  5
4C0
330
17
100
AcDbEntity
  8
LAMPS
100
AcDbPoint
 10
108.61157861851022
 20
13.148306394641036
 30
0.0
  0
INSERT
  5
4C6
330
17
100
AcDbEntity
  8
BENCH
100
AcDbBlockReference
  2
BENCH_BLOCK
 10
34.19379031362006
 20
11.739034841318125
 30
0.0
 50
28.527456728290595
  0
POINT
  5
4C9
330
17
100
AcDbEntity
  8
URN
100
AcDbPoint
 10
35.335955171696085
 20
12.359888638098157
 30
0.0
  0
INSERT
  5
4CA
330
17
100
AcDbEntity
  8
BENCH
100
AcDbBlockReference
  2
BENCH_BLOCK
 10
56.89043570037399
 20
11.180817199538815
 30
0.0
 50
-25.94601334552717
  0
INSERT
  5
4CC
330
17
100
AcDbEntity
  8
BENCH
100
AcDbBlockReference
  2
BENCH_BLOCK
 10
82.53883274576734
 20
16.43966147496002
 30
0.0
 50
-11.204413122811731
  0
POINT
  5
4CE
330
17
100
AcDbEntity
  8
URN
100
AcDbPoint
 10
83.81405499514022
 20
16.18705859551414
 30
0.0
  0
POINT
  5
4CF
330
17
100
AcDbEntity
  8
LAMPS
100
AcDbPoint
 10
8.371316364037511
 20
46.56471462321496
 30
0.0
  0
POINT
  5
4D0
330
17
100
AcDbEntity
  8
LAMPS
100
AcDbPoint
 10
25.11220502323682
 20
43.64407144563605
 30
0.0
  0
POINT
  5
4D1
330
17
100
AcDbEntity
  8
LAMPS
100
AcDbPoint
 10
41.832120697531806
 20
45.95990736331828
 30
0.0
  0
POINT
  5
4D2
330
17
100
AcDbEntity
  8
LAMPS
100
AcDbPoint
 10
75.25436879044878
 20
44.71955731096771
 30
0.0
  0
POINT
  5
4D3
330
17
100
AcDbEntity
  8
LAMPS
100
AcDbPoint
 10
108.61157861851024
 20
43.14830639464104
 30
0.0
  0
INSERT
  5
4D4
330
17
100
AcDbEntity
  8
BENCH
100
AcDbBlockReference
  2
BENCH_BLOCK
 10
34.19379031362008
 20
41.73903484131813
 30
0.0
 50
28.52745672829049
  0
POINT
  5
4D6
330
17
100
AcDbEntity
  8
URN
100
AcDbPoint
 10
35.3359551716961
 20
42.35988863809816
 30
0.0
  0
INSERT
  5
4D7
330
17
100
AcDbEntity
  8
BENCH
100
AcDbBlockReference
  2
BENCH_BLOCK
 10
56.890435700374
 20
41.18081719953881
 30
0.0
 50
-25.946013345526985
  0
INSERT
  5
4D9
330
17
100
AcDbEntity
  8
BENCH
100
AcDbBlockReference
  2
BENCH_BLOCK
 10
82.53883274576735
 20
46.43966147496001
 30
0.0
 50
-11.204413122811934
  0
POINT
  5
4DB
330
17
100
AcDbEntity
  8
URN
100
AcDbPoint
 10
83.81405499514024
 20
46.18705859551413
 30
0.0
  0
ENDSEC
  0
SECTION
  2
OBJECTS
  0
DICTIONARY
  5
A
330
0
100
AcDbDictionary
281
1
  3
ACAD_COLOR
350
B
  3
ACAD_GROUP
350
C
  3
ACAD_LAYOUT
350
D
  3
ACAD_MATERIAL
350
E
  3
ACAD_MLEADERSTYLE
350
F
  3
ACAD_MLINESTYLE
350
10
  3
ACAD_PLOTSETTINGS
350
11
  3
ACAD_PLOTSTYLENAME
350
12
  3
ACAD_SCALELIST
350
14
  3
ACAD_TABLESTYLE
350
15
  3
ACAD_VISUALSTYLE
350
16
  3
EZDXF_META
350
2D
  0
DICTIONARY
  5
B
330
A
100
AcDbDictionary
281
1
  0
DICTIONARY
  5
C
330
A
100
AcDbDictionary
281
1
  0
DICTIONARY
  5
D
330
A
100
AcDbDictionary
281
1
  3
Model
350
1A
  3
Layout1
350
1E
  0
DICTIONARY
  5
E
330
A
100
AcDbDictionary
281
1
  3
ByBlock
350
1F
  3
ByLayer
350
20
  3
Global
350
21
  0
DICTIONARY
  5
F
330
A
100
AcDbDictionary
281
1
  3
Standard
350
2C
  0
DICTIONARY
  5
10
330
A
100
AcDbDictionary
281
1
  3
Standard
350
22
  0
DICTIONARY
  5
11
330
A
100
AcDbDictionary
281
1
  0
ACDBDICTIONARYWDFLT
  5
12
330
A
100
AcDbDictionary
281
1
  3
Normal
350
13
100
AcDbDictionaryWithDefault
340
13
  0
ACDBPLACEHOLDER
  5
13
330
12
  0
DICTIONARY
  5
14
330
A
100
AcDbDictionary
281
1
  0
DICTIONARY
  5
15
330
A
100
AcDbDictionary
281
1
  0
DICTIONARY
  5
16
330
A
100
AcDbDictionary
281
1
  0
LAYOUT
  5
1A
330
D
100
AcDbPlotSettings
  1

  4
A3
  6

 40
7.5
 41
20.0
 42
7.5
 43
20.0
 44
420.0
 45
297.0
 46
0.0
 47
0.0
 48
0.0
 49
0.0
140
0.0
141
0.0
142
1.0
143
1.0
 70
1024
 72
1
 73
0
 74
5
  7

 75
16
 76
0
 77
2
 78
300
147
1.0
148
0.0
149
0.0
100
AcDbLayout
  1
Model
 70
1
 71
0
 10
0.0
 20
0.0
 11
420.0
 21
297.0
 12
0.0
 22
0.0
 32
0.0
 14
1e+20
 24
1e+20
 34
1e+20
 15
-1e+20
 25
-1e+20
 35
-1e+20
146
0.0
 13
0.0
 23
0.0
 33
0.0
 16
1.0
 26
0.0
 36
0.0
 17
0.0
 27
1.0
 37
0.0
 76
1
330
17
  0
LAYOUT
  5
1E
330
D
100
AcDbPlotSettings
  1

  4
A3
  6

 40
7.5
 41
20.0
 42
7.5
 43
20.0
 44
420.0
 45
297.0
 46
0.0
 47
0.0
 48
0.0
 49
0.0
140
0.0
141
0.0
142
1.0
143
1.0
 70
0
 72
1
 73
0
 74
5
  7

 75
16
 76
0
 77
2
 78
300
147
1.0
148
0.0
149
0.0
100
AcDbLayout
  1
Layout1
 70
1
 71
1
 10
0.0
 20
0.0
 11
420.0
 21
297.0
 12
0.0
 22
0.0
 32
0.0
 14
1e+20
 24
1e+20
 34
1e+20
 15
-1e+20
 25
-1e+20
 35
-1e+20
146
0.0
 13
0.0
 23
0.0
 33
0.0
 16
1.0
 26
0.0
 36
0.0
 17
0.0
 27
1.0
 37
0.0
 76
1
330
1B
  0
MATERIAL
  5
1F
102
{ACAD_REACTORS
330
E
102
}
330
E
100
AcDbMaterial
  1
ByBlock
  2

 70
0
 40
1.0
 71
1
 41
1.0
 91
-1023410177
 42
1.0
 72
1
  3

 73
1
 74
1
 75
1
 44
0.5
 73
0
 45
1.0
 46
1.0
 77
1
  4

 78
1
 79
1
170
1
 48
1.0
171
1
  6

172
1
173
1
174
1
140
1.0
141
1.0
175
1
  7

176
1
177
1
178
1
143
1.0
179
1
  8

270
1
271
1
272
1
145
1.0
146
1.0
273
1
  9

274
1
275
1
276
1
 42
1.0
 72
1
  3

 73
1
 74
1
 75
1
 94
63
  0
MATERIAL
  5
20
102
{ACAD_REACTORS
330
E
102
}
330
E
100
AcDbMaterial
  1
ByLayer
  2

 70
0
 40
1.0
 71
1
 41
1.0
 91
-1023410177
 42
1.0
 72
1
  3

 73
1
 74
1
 75
1
 44
0.5
 73
0
 45
1.0
 46
1.0
 77
1
  4

 78
1
 79
1
170
1
 48
1.0
171
1
  6

172
1
173
1
174
1
140
1.0
141
1.0
175
1
  7

176
1
177
1
178
1
143
1.0
179
1
  8

270
1
271
1
272
1
145
1.0
146
1.0
273
1
  9

274
1
275
1
276
1
 42
1.0
 72
1
  3

 73
1
 74
1
 75
1
 94
63
  0
MATERIAL
  5
21
102
{ACAD_REACTORS
330
E
102
}
330
E
100
AcDbMaterial
  1
Global
  2

 70
0
 40
1.0
 71
1
 41
1.0
 91
-1023410177
 42
1.0
 72
1
  3

 73
1
 74
1
 75
1
 44
0.5
 73
0
 45
1.0
 46
1.0
 77
1
  4

 78
1
 79
1
170
1
 48
1.0
171
1
  6

172
1
173
1
174
1
140
1.0
141
1.0
175
1
  7

176
1
177
1
178
1
143
1.0
179
1
  8

270
1
271
1
272
1
145
1.0
146
1.0
273
1
  9

274
1
275
1
276
1
 42
1.0
 72
1
  3

 73
1
 74
1
 75
1
 94
63
  0
MLINESTYLE
  5
22
102
{ACAD_REACTORS
330
10
102
}
330
10
100
AcDbMlineStyle
  2
Standard
 70
0
  3

 62
256
 51
90.0
 52
90.0
 71
2
 49
0.5
 62
256
  6
BYLAYER
 49
-0.5
 62
256
  6
BYLAYER
  0
MLEADERSTYLE
  5
2C
102
{ACAD_REACTORS
330
F
102
}
330
F
100
AcDbMLeaderStyle
179
2
170
2
171
1
172
0
 90
2
 40
0.0
 41
0.0
173
1
 91
-1056964608
 92
-2
290
1
 42
2.0
291
1
 43
8.0
  3
Standard
 44
4.0
300

342
29
174
1
175
1
176
0
178
1
 93
-1056964608
 45
4.0
292
0
297
0
 46
4.0
 94
-1056964608
 47
1.0
 49
1.0
140
1.0
294
1
141
0.0
177
0
142
1.0
295
0
296
0
143
3.75
271
0
272
9
273
9
  0
DICTIONARY
  5
2D
330
A
100
AcDbDictionary
280
1
281
1
  3
CREATED_BY_EZDXF
350
2E
  3
WRITTEN_BY_EZDXF
350
4DE
  0
DICTIONARYVAR
  5
2E
330
2D
100
DictionaryVariables
280
0
  1
1.4.4 @ 2026-09-26T15:08:53.665116+00:00
  0
DICTIONARYVAR
  5
4DE
330
2D
100
DictionaryVariables
280
0
  1
1.4.4 @ 2026-09-26T15:08:53.675304+00:00
  0
ENDSEC
  0
EOF
