  0
SECTION
  2
HEADER
  9
$ACADVER
  1
AC1032
  9
$ACADMAINTVER
 90
4
  9
$DWGCODEPAGE
  3
ANSI_1252
  9
$LASTSAVEDBY
  1
ezdxf
  9
$REQUIREDVERSIONS
160
0
  9
$INSBASE
 10
0.0
 20
0.0
 30
0.0
  9
$EXTMIN
 10
1e+20
 20
1e+20
 30
1e+20
  9
$EXTMAX
 10
-1e+20
 20
-1e+20
 30
-1e+20
  9
$LIMMIN
 10
0.0
 20
0.0
  9
$LIMMAX
 10
420.0
 20
297.0
  9
$ORTHOMODE
 70
0
  9
$REGENMODE
 70
1
  9
$FILLMODE
 70
1
  9
$QTEXTMODE
 70
0
  9
$MIRRTEXT
 70
1
  9
$LTSCALE
 40
1.0
  9
$ATTMODE
 70
1
  9
$TEXTSIZE
 40
2.5
  9
$TRACEWID
 40
1.0
  9
$TEXTSTYLE
  7
Standard
  9
$CLAYER
  8
0
  9
$CELTYPE
  6
ByLayer
  9
$CECOLOR
 62
256
  9
$CELTSCALE
 40
1.0
  9
$DISPSILH
 70
0
  9
$DIMSCALE
 40
1.0
  9
$DIMASZ
 40
2.5
  9
$DIMEXO
 40
0.625
  9
$DIMDLI
 40
3.75
  9
$DIMRND
 40
0.0
  9
$DIMDLE
 40
0.0
  9
$DIMEXE
 40
1.25
  9
$DIMTP
 40
0.0
  9
$DIMTM
 40
0.0
  9
$DIMTXT
 40
2.5
  9
$DIMCEN
 40
2.5
  9
$DIMTSZ
 40
0.0
  9
$DIMTOL
 70
0
  9
$DIMLIM
 70
0
  9
$DIMTIH
 70
0
  9
$DIMTOH
 70
0
  9
$DIMSE1
 70
0
  9
$DIMSE2
 70
0
  9
$DIMTAD
 70
1
  9
$DIMZIN
 70
8
  9
$DIMBLK
  1

  9
$DIMASO
 70
1
  9
$DIMSHO
 70
1
  9
$DIMPOST
  1

  9
$DIMAPOST
  1

  9
$DIMALT
 70
0
  9
$DIMALTD
 70
3
  9
$DIMALTF
 40
0.03937007874
  9
$DIMLFAC
 40
1.0
  9
$DIMTOFL
 70
1
  9
$DIMTVP
 40
0.0
  9
$DIMTIX
 70
0
  9
$DIMSOXD
 70
0
  9
$DIMSAH
 70
0
  9
$DIMBLK1
  1

  9
$DIMBLK2
  1

  9
$DIMSTYLE
  2
ISO-25
  9
$DIMCLRD
 70
0
  9
$DIMCLRE
 70
0
  9
$DIMCLRT
 70
0
  9
$DIMTFAC
 40
1.0
  9
$DIMGAP
 40
0.625
  9
$DIMJUST
 70
0
  9
$DIMSD1
 70
0
  9
$DIMSD2
 70
0
  9
$DIMTOLJ
 70
0
  9
$DIMTZIN
 70
8
  9
$DIMALTZ
 70
0
  9
$DIMALTTZ
 70
0
  9
$DIMUPT
 70
0
  9
$DIMDEC
 70
2
  9
$DIMTDEC
 70
2
  9
$DIMALTU
 70
2
  9
$DIMALTTD
 70
3
  9
$DIMTXSTY
  7
Standard
  9
$DIMAUNIT
 70
0
  9
$DIMADEC
 70
0
  9
$DIMALTRND
 40
0.0
  9
$DIMAZIN
 70
0
  9
$DIMDSEP
 70
44
  9
$DIMATFIT
 70
3
  9
$DIMFRAC
 70
0
  9
$DIMLDRBLK
  1

  9
$DIMLUNIT
 70
2
  9
$DIMLWD
 70
-2
  9
$DIMLWE
 70
-2
  9
$DIMTMOVE
 70
0
  9
$DIMFXL
 40
1.0
  9
$DIMFXLON
 70
0
  9
$DIMJOGANG
 40
0.785398163397
  9
$DIMTFILL
 70
0
  9
$DIMTFILLCLR
 70
0
  9
$DIMARCSYM
 70
0
  9
$DIMLTYPE
  6

  9
$DIMLTEX1
  6

  9
$DIMLTEX2
  6

  9
$DIMTXTDIRECTION
 70
0
  9
$LUNITS
 70
2
  9
$LUPREC
 70
4
  9
$SKETCHINC
 40
1.0
  9
$FILLETRAD
 40
10.0
  9
$AUNITS
 70
0
  9
$AUPREC
 70
2
  9
$MENU
  1
.
  9
$ELEVATION
 40
0.0
  9
$PELEVATION
 40
0.0
  9
$THICKNESS
 40
0.0
  9
$LIMCHECK
 70
0
  9
$CHAMFERA
 40
0.0
  9
$CHAMFERB
 40
0.0
  9
$CHAMFERC
 40
0.0
  9
$CHAMFERD
 40
0.0
  9
$SKPOLY
 70
0
  9
$TDCREATE
 40
2461310.6899074074
  9
$TDUCREATE
 40
2458532.153996898
  9
$TDUPDATE
 40
2461310.6899074074
  9
$TDUUPDATE
 40
2458532.1544311
  9
$TDINDWG
 40
0.0
  9
$TDUSRTIMER
 40
0.0
  9
$USRTIMER
 70
1
  9
$ANGBASE
 50
0.0
  9
$ANGDIR
 70
0
  9
$PDMODE
 70
0
  9
$PDSIZE
 40
0.0
  9
$PLINEWID
 40
0.0
  9
$SPLFRAME
 70
0
  9
$SPLINETYPE
 70
6
  9
$SPLINESEGS
 70
8
  9
$HANDSEED
  5
1AC
  9
$SURFTAB1
 70
6
  9
$SURFTAB2
 70
6
  9
$SURFTYPE
 70
6
  9
$SURFU
 70
6
  9
$SURFV
 70
6
  9
$UCSBASE
  2

  9
$UCSNAME
  2

  9
$UCSORG
 10
0.0
 20
0.0
 30
0.0
  9
$UCSXDIR
 10
1.0
 20
0.0
 30
0.0
  9
$UCSYDIR
 10
0.0
 20
1.0
 30
0.0
  9
$UCSORTHOREF
  2

  9
$UCSORTHOVIEW
 70
0
  9
$UCSORGTOP
 10
0.0
 20
0.0
 30
0.0
  9
$UCSORGBOTTOM
 10
0.0
 20
0.0
 30
0.0
  9
$UCSORGLEFT
 10
0.0
 20
0.0
 30
0.0
  9
$UCSORGRIGHT
 10
0.0
 20
0.0
 30
0.0
  9
$UCSORGFRONT
 10
0.0
 20
0.0
 30
0.0
  9
$UCSORGBACK
 10
0.0
 20
0.0
 30
0.0
  9
$PUCSBASE
  2

  9
$PUCSNAME
  2

  9
$PUCSORG
 10
0.0
 20
0.0
 30
0.0
  9
$PUCSXDIR
 10
1.0
 20
0.0
 30
0.0
  9
$PUCSYDIR
 10
0.0
 20
1.0
 30
0.0
  9
$PUCSORTHOREF
  2

  9
$PUCSORTHOVIEW
 70
0
  9
$PUCSORGTOP
 10
0.0
 20
0.0
 30
0.0
  9
$PUCSORGBOTTOM
 10
0.0
 20
0.0
 30
0.0
  9
$PUCSORGLEFT
 10
0.0
 20
0.0
 30
0.0
  9
$PUCSORGRIGHT
 10
0.0
 20
0.0
 30
0.0
  9
$PUCSORGFRONT
 10
0.0
 20
0.0
 30
0.0
  9
$PUCSORGBACK
 10
0.0
 20
0.0
 30
0.0
  9
$USERI1
 70
0
  9
$USERI2
 70
0
  9
$USERI3
 70
0
  9
$USERI4
 70
0
  9
$USERI5
 70
0
  9
$USERR1
 40
0.0
  9
$USERR2
 40
0.0
  9
$USERR3
 40
0.0
  9
$USERR4
 40
0.0
  9
$USERR5
 40
0.0
  9
$WORLDVIEW
 70
1
  9
$SHADEDGE
 70
3
  9
$SHADEDIF
 70
70
  9
$TILEMODE
 70
1
  9
$MAXACTVP
 70
64
  9
$PINSBASE
 10
0.0
 20
0.0
 30
0.0
  9
$PLIMCHECK
 70
0
  9
$PEXTMIN
 10
1e+20
 20
1e+20
 30
1e+20
  9
$PEXTMAX
 10
-1e+20
 20
-1e+20
 30
-1e+20
  9
$PLIMMIN
 10
0.0
 20
0.0
  9
$PLIMMAX
 10
420.0
 20
297.0
  9
$UNITMODE
 70
0
  9
$VISRETAIN
 70
1
  9
$PLINEGEN
 70
0
  9
$PSLTSCALE
 70
1
  9
$TREEDEPTH
 70
3020
  9
$CMLSTYLE
  2
Standard
  9
$CMLJUST
 70
0
  9
$CMLSCALE
 40
20.0
  9
$PROXYGRAPHICS
 70
1
  9
$MEASUREMENT
 70
1
  9
$CELWEIGHT
370
-1
  9
$ENDCAPS
280
0
  9
$JOINSTYLE
280
0
  9
$LWDISPLAY
290
0
  9
$INSUNITS
 70
6
  9
$HYPERLINKBASE
  1

  9
$STYLESHEET
  1

  9
$XEDIT
290
1
  9
$CEPSNTYPE
380
0
  9
$PSTYLEMODE
290
1
  9
$FINGERPRINTGUID
  2
{6D9D2409-026B-45E9-961C-0192AFE966B8}
  9
$VERSIONGUID
  2
{168AAD98-9782-4C52-8E07-66F10C97E1C4}
  9
$EXTNAMES
290
1
  9
$PSVPSCALE
 40
0.0
  9
$OLESTARTUP
290
0
  9
$SORTENTS
280
127
  9
$INDEXCTL
280
0
  9
$HIDETEXT
280
1
  9
$XCLIPFRAME
280
1
  9
$HALOGAP
280
0
  9
$OBSCOLOR
 70
257
  9
$OBSLTYPE
280
0
  9
$INTERSECTIONDISPLAY
280
0
  9
$INTERSECTIONCOLOR
 70
257
  9
$DIMASSOC
280
2
  9
$PROJECTNAME
  1

  9
$CAMERADISPLAY
290
0
  9
$LENSLENGTH
 40
50.0
  9
$CAMERAHEIGHT
 40
0.0
  9
$STEPSPERSEC
 40
24.0
  9
$STEPSIZE
 40
100.0
  9
$3DDWFPREC
 40
2.0
  9
$PSOLWIDTH
 40
0.005
  9
$PSOLHEIGHT
 40
0.08
  9
$LOFTANG1
 40
1.570796326795
  9
$LOFTANG2
 40
1.570796326795
  9
$LOFTMAG1
 40
0.0
  9
$LOFTMAG2
 40
0.0
  9
$LOFTPARAM
 70
7
  9
$LOFTNORMALS
280
1
  9
$LATITUDE
 40
37.795
  9
$LONGITUDE
 40
-122.394
  9
$NORTHDIRECTION
 40
0.0
  9
$TIMEZONE
 70
-8000
  9
$LIGHTGLYPHDISPLAY
280
1
  9
$TILEMODELIGHTSYNCH
280
1
  9
$CMATERIAL
347
20
  9
$SOLIDHIST
280
0
  9
$SHOWHIST
280
1
  9
$DWFFRAME
280
2
  9
$DGNFRAME
280
2
  9
$REALWORLDSCALE
290
1
  9
$INTERFERECOLOR
 62
256
  9
$CSHADOW
280
0
  9
$SHADOWPLANELOCATION
 40
0.0
  0
ENDSEC
  0
SECTION
  2
CLASSES
  0
CLASS
  1
ACDBDICTIONARYWDFLT
  2
AcDbDictionaryWithDefault
  3
ObjectDBX Classes
 90
0
 91
0
280
0
281
0
  0
CLASS
  1
SUN
  2
AcDbSun
  3
SCENEOE
 90
1153
 91
0
280
0
281
0
  0
CLASS
  1
VISUALSTYLE
  2
AcDbVisualStyle
  3
ObjectDBX Classes
 90
4095
 91
0
280
0
281
0
  0
CLASS
  1
MATERIAL
  2
AcDbMaterial
  3
ObjectDBX Classes
 90
1153
 91
0
280
0
281
0
  0
CLASS
  1
SCALE
  2
AcDbScale
  3
ObjectDBX Classes
 90
1153
 91
0
280
0
281
0
  0
CLASS
  1
TABLESTYLE
  2
AcDbTableStyle
  3
ObjectDBX Classes
 90
4095
 91
0
280
0
281
0
  0
CLASS
  1
MLEADERSTYLE
  2
AcDbMLeaderStyle
  3
ACDB_MLEADERSTYLE_CLASS
 90
4095
 91
0
280
0
281
0
  0
CLASS
  1
DICTIONARYVAR
  2
AcDbDictionaryVar
  3
ObjectDBX Classes
 90
0
 91
0
280
0
281
0
  0
CLASS
  1
CELLSTYLEMAP
  2
AcDbCellStyleMap
  3
ObjectDBX Classes
 90
1152
 91
0
280
0
281
0
  0
CLASS
  1
MENTALRAYRENDERSETTINGS
  2
AcDbMentalRayRenderSettings
  3
SCENEOE
 90
1024
 91
0
280
0
281
0
  0
CLASS
  1
ACDBDETAILVIEWSTYLE
  2
AcDbDetailViewStyle
  3
ObjectDBX Classes
 90
1025
 91
0
280
0
281
0
  0
CLASS
  1
ACDBSECTIONVIEWSTYLE
  2
AcDbSectionViewStyle
  3
ObjectDBX Classes
 90
1025
 91
0
280
0
281
0
  0
CLASS
  1
RASTERVARIABLES
  2
AcDbRasterVariables
  3
ISM
 90
0
 91
0
280
0
281
0
  0
CLASS
  1
LAYOUT
  2
AcDbLayout
  3
ObjectDBX Classes
 90
0
 91
0
280
0
281
0
  0
CLASS
  1
ACDBPLACEHOLDER
  2
AcDbPlaceHolder
  3
ObjectDBX Classes
 90
0
 91
0
280
0
281
0
  0
ENDSEC
  0
SECTION
  2
TABLES
  0
TABLE
  2
VPORT
  5
8
330
0
100
AcDbSymbolTable
 70
1
  0
VPORT
  5
23
330
8
100
AcDbSymbolTableRecord
100
AcDbViewportTableRecord
  2
*Active
 70
0
 10
0.0
 20
0.0
 11
1.0
 21
1.0
 12
0.0
 22
0.0
 13
0.0
 23
0.0
 14
0.5
 24
0.5
 15
0.5
 25
0.5
 16
0.0
 26
0.0
 36
1.0
 17
0.0
 27
0.0
 37
0.0
 40
1000.0
 41
1.34
 42
50.0
 43
0.0
 44
0.0
 50
0.0
 51
0.0
 71
0
 72
1000
 73
1
 74
3
 75
0
 76
0
 77
0
 78
0
281
0
 65
0
146
0.0
  0
ENDTAB
  0
TABLE
  2
LTYPE
  5
2
330
0
100
AcDbSymbolTable
 70
3
  0
LTYPE
  5
24
330
2
100
AcDbSymbolTableRecord
100
AcDbLinetypeTableRecord
  2
ByBlock
 70
0
  3

 72
65
 73
0
 40
0.0
  0
LTYPE
  5
25
330
2
100
AcDbSymbolTableRecord
100
AcDbLinetypeTableRecord
  2
ByLayer
 70
0
  3

 72
65
 73
0
 40
0.0
  0
LTYPE
  5
26
330
2
100
AcDbSymbolTableRecord
100
AcDbLinetypeTableRecord
  2
Continuous
 70
0
  3

 72
65
 73
0
 40
0.0
  0
ENDTAB
  0
TABLE
  2
LAYER
  5
1
330
0
100
AcDbSymbolTable
 70
32
  0
LAYER
  5
27
330
1
100
AcDbSymbolTableRecord
100
AcDbLayerTableRecord
  2
0
 70
0
 62
7
  6
Continuous
370
-3
390
13
347
21
  0
LAYER
  5
28
330
1
100
AcDbSymbolTableRecord
100
AcDbLayerTableRecord
  2
Defpoints
 70
0
 62
7
  6
Continuous
290
0
370
-3
390
13
347
21
  0
LAYER
  5
2F
330
1
100
AcDbSymbolTableRecord
100
AcDbLayerTableRecord
  2
TERRITORY_BOUNDARY
 70
0
 62
8
  6
Continuous
370
-3
390
13
347
21
  0
LAYER
  5
31
330
1
100
AcDbSymbolTableRecord
100
AcDbLayerTableRecord
  2
GRASS
 70
0
 62
84
  6
Continuous
370
-3
390
13
347
21
  0
LAYER
  5
33
330
1
100
AcDbSymbolTableRecord
100
AcDbLayerTableRecord
  2
ROAD_ACCESS
 70
0
 62
9
  6
Continuous
370
-3
390
13
347
21
  0
LAYER
  5
35
330
1
100
AcDbSymbolTableRecord
100
AcDbLayerTableRecord
  2
ROAD_TURN
 70
0
 62
9
  6
Continuous
370
-3
390
13
347
21
  0
LAYER
  5
37
330
1
100
AcDbSymbolTableRecord
100
AcDbLayerTableRecord
  2
PATH_SIDE_W
 70
0
 62
9
  6
Continuous
370
-3
390
13
347
21
  0
LAYER
  5
39
330
1
100
AcDbSymbolTableRecord
100
AcDbLayerTableRecord
  2
PATH_SIDE_E
 70
0
 62
9
  6
Continuous
370
-3
390
13
347
21
  0
LAYER
  5
3B
330
1
100
AcDbSymbolTableRecord
100
AcDbLayerTableRecord
  2
PATH_RING_1
 70
0
 62
9
  6
Continuous
370
-3
390
13
347
21
  0
LAYER
  5
3D
330
1
100
AcDbSymbolTableRecord
100
AcDbLayerTableRecord
  2
PATH_RING_2
 70
0
 62
9
  6
Continuous
370
-3
390
13
347
21
  0
LAYER
  5
3F
330
1
100
AcDbSymbolTableRecord
100
AcDbLayerTableRecord
  2
PATH_RING_3
 70
0
 62
9
  6
Continuous
370
-3
390
13
347
21
  0
LAYER
  5
41
330
1
100
AcDbSymbolTableRecord
100
AcDbLayerTableRecord
  2
PATH_RING_4
 70
0
 62
9
  6
Continuous
370
-3
390
13
347
21
  0
LAYER
  5
43
330
1
100
AcDbSymbolTableRecord
100
AcDbLayerTableRecord
  2
PATH_ENTRANCE_9
 70
0
 62
9
  6
Continuous
370
-3
390
13
347
21
  0
LAYER
  5
45
330
1
100
AcDbSymbolTableRecord
100
AcDbLayerTableRecord
  2
PATH_ENTRANCE_10
 70
0
 62
9
  6
Continuous
370
-3
390
13
347
21
  0
LAYER
  5
47
330
1
100
AcDbSymbolTableRecord
100
AcDbLayerTableRecord
  2
PATH_ENTRANCE_12
 70
0
 62
9
  6
Continuous
370
-3
390
13
347
21
  0
LAYER
  5
49
330
1
100
AcDbSymbolTableRecord
100
AcDbLayerTableRecord
  2
PATH_ENTRANCE_13
 70
0
 62
9
  6
Continuous
370
-3
390
13
347
21
  0
LAYER
  5
4B
330
1
100
AcDbSymbolTableRecord
100
AcDbLayerTableRecord
  2
PATH_ENTRANCE_15
 70
0
 62
9
  6
Continuous
370
-3
390
13
347
21
  0
LAYER
  5
4D
330
1
100
AcDbSymbolTableRecord
100
AcDbLayerTableRecord
  2
PATH_ENTRANCE_16
 70
0
 62
9
  6
Continuous
370
-3
390
13
347
21
  0
LAYER
  5
4F
330
1
100
AcDbSymbolTableRecord
100
AcDbLayerTableRecord
  2
BUILDINGS_FOOTPRINT
 70
0
 62
1
  6
Continuous
370
-3
390
13
347
21
  0
LAYER
  5
51
330
1
100
AcDbSymbolTableRecord
100
AcDbLayerTableRecord
  2
BUILDINGS_3D
 70
0
 62
3
  6
Continuous
370
-3
390
13
347
21
  0
LAYER
  5
53
330
1
100
AcDbSymbolTableRecord
100
AcDbLayerTableRecord
  2
LABELS
 70
0
 62
7
  6
Continuous
370
-3
390
13
347
21
  0
LAYER
  5
5B
330
1
100
AcDbSymbolTableRecord
100
AcDbLayerTableRecord
  2
СПИРЕЯ ВАНГУТТА
 70
0
 62
3
  6
Continuous
370
-3
390
13
347
21
  0
LAYER
  5
A0
330
1
100
AcDbSymbolTableRecord
100
AcDbLayerTableRecord
  2
ЕЛЬ КОЛЮЧАЯ
 70
0
 62
3
  6
Continuous
370
-3
390
13
347
21
  0
LAYER
  5
A2
330
1
100
AcDbSymbolTableRecord
100
AcDbLayerTableRecord
  2
ЛИСТВЕННИЦА ЕВРОПЕЙСКАЯ
 70
0
 62
3
  6
Continuous
370
-3
390
13
347
21
  0
LAYER
  5
A4
330
1
100
AcDbSymbolTableRecord
100
AcDbLayerTableRecord
  2
БЕРЕЗА ПОВИСЛАЯ
 70
0
 62
3
  6
Continuous
370
-3
390
13
347
21
  0
LAYER
  5
A9
330
1
100
AcDbSymbolTableRecord
100
AcDbLayerTableRecord
  2
СИРЕНЬ ОБЫКНОВЕННАЯ
 70
0
 62
3
  6
Continuous
370
-3
390
13
347
21
  0
LAYER
  5
D8
330
1
100
AcDbSymbolTableRecord
100
AcDbLayerTableRecord
  2
КЛЕН ОСТРОЛИСТНЫЙ
 70
0
 62
3
  6
Continuous
370
-3
390
13
347
21
  0
LAYER
  5
E5
330
1
100
AcDbSymbolTableRecord
100
AcDbLayerTableRecord
  2
КИЗИЛЬНИК БЛЕСТЯЩИЙ
 70
0
 62
3
  6
Continuous
370
-3
390
13
347
21
  0
LAYER
  5
18E
330
1
100
AcDbSymbolTableRecord
100
AcDbLayerTableRecord
  2
ENTRANCE
 70
0
 62
2
  6
Continuous
370
-3
390
13
347
21
  0
LAYER
  5
195
330
1
100
AcDbSymbolTableRecord
100
AcDbLayerTableRecord
  2
LAMPS
 70
0
 62
2
  6
Continuous
370
-3
390
13
347
21
  0
LAYER
  5
1A1
330
1
100
AcDbSymbolTableRecord
100
AcDbLayerTableRecord
  2
BENCH
 70
0
 62
30
  6
Continuous
370
-3
390
13
347
21
  0
LAYER
  5
1A4
330
1
100
AcDbSymbolTableRecord
100
AcDbLayerTableRecord
  2
URN
 70
0
 62
2
  6
Continuous
370
-3
390
13
347
21
  0
ENDTAB
  0
TABLE
  2
STYLE
  5
5
330
0
100
AcDbSymbolTable
 70
1
  0
STYLE
  5
29
330
5
100
AcDbSymbolTableRecord
100
AcDbTextStyleTableRecord
  2
Standard
 70
0
 40
0.0
 41
1.0
 50
0.0
 71
0
 42
2.5
  3
txt
  4

  0
ENDTAB
  0
TABLE
  2
VIEW
  5
7
330
0
100
AcDbSymbolTable
 70
0
  0
ENDTAB
  0
TABLE
  2
UCS
  5
6
330
0
100
AcDbSymbolTable
 70
0
  0
ENDTAB
  0
TABLE
  2
APPID
  5
3
330
0
100
AcDbSymbolTable
 70
3
  0
APPID
  5
2A
330
3
100
AcDbSymbolTableRecord
100
AcDbRegAppTableRecord
  2
ACAD
 70
0
  0
APPID
  5
1A9
330
3
100
AcDbSymbolTableRecord
100
AcDbRegAppTableRecord
  2
HATCHBACKGROUNDCOLOR
 70
0
  0
APPID
  5
1AA
330
3
100
AcDbSymbolTableRecord
100
AcDbRegAppTableRecord
  2
EZDXF
 70
0
  0
ENDTAB
  0
TABLE
  2
DIMSTYLE
  5
4
330
0
100
AcDbSymbolTable
 70
1
100
AcDbDimStyleTable
  0
DIMSTYLE
105
2B
330
4
100
AcDbSymbolTableRecord
100
AcDbDimStyleTableRecord
  2
Standard
 70
0
 40
1.0
 41
2.5
 42
0.625
 43
3.75
 44
1.25
 45
0.0
 46
0.0
 47
0.0
 48
0.0
 49
2.5
140
2.5
141
2.5
142
0.0
143
0.03937007874
144
1.0
145
0.0
146
1.0
147
0.625
148
0.0
 69
0
 70
0
 71
0
 72
0
 73
0
 74
0
 75
0
 76
0
 77
1
 78
8
 79
3
170
0
171
3
172
1
173
0
174
0
175
0
176
0
177
0
178
0
179
2
271
2
272
2
273
2
274
3
275
0
276
0
277
2
278
44
279
0
280
0
281
0
282
0
283
0
284
8
285
0
286
0
288
0
289
3
290
0
371
-2
372
-2
  0
ENDTAB
  0
TABLE
  2
BLOCK_RECORD
  5
9
330
0
100
AcDbSymbolTable
 70
3
  0
BLOCK_RECORD
  5
17
330
9
100
AcDbSymbolTableRecord
100
AcDbBlockTableRecord
  2
*Model_Space
340
1A
 70
0
280
1
281
0
  0
BLOCK_RECORD
  5
1B
330
9
100
AcDbSymbolTableRecord
100
AcDbBlockTableRecord
  2
*Paper_Space
340
1E
 70
0
280
1
281
0
  0
BLOCK_RECORD
  5
19D
330
9
100
AcDbSymbolTableRecord
100
AcDbBlockTableRecord
  2
BENCH_BLOCK
340
0
 70
0
280
1
281
0
  0
ENDTAB
  0
ENDSEC
  0
SECTION
  2
BLOCKS
  0
BLOCK
  5
18
330
17
100
AcDbEntity
  8
0
100
AcDbBlockBegin
  2
*Model_Space
 70
0
 10
0.0
 20
0.0
 30
0.0
  3
*Model_Space
  1

  0
ENDBLK
  5
19
330
17
100
AcDbEntity
  8
0
100
AcDbBlockEnd
  0
BLOCK
  5
1C
330
1B
100
AcDbEntity
  8
0
100
AcDbBlockBegin
  2
*Paper_Space
 70
0
 10
0.0
 20
0.0
 30
0.0
  3
*Paper_Space
  1

  0
ENDBLK
  5
1D
330
1B
100
AcDbEntity
  8
0
100
AcDbBlockEnd
  0
BLOCK
  5
19E
330
19D
100
AcDbEntity
  8
0
100
AcDbBlockBegin
  2
BENCH_BLOCK
 70
0
 10
0.0
 20
0.0
 30
0.0
  3
BENCH_BLOCK
  1

  0
LWPOLYLINE
  5
1A0
330
19D
100
AcDbEntity
  8
0
100
AcDbPolyline
 90
4
 70
1
 10
-0.75
 20
-0.25
 10
0.75
 20
-0.25
 10
0.75
 20
0.25
 10
-0.75
 20
0.25
  0
ENDBLK
  5
19F
330
19D
100
AcDbEntity
  8
0
100
AcDbBlockEnd
  0
ENDSEC
  0
SECTION
  2
ENTITIES
  0
LWPOLYLINE
  5
30
330
17
100
AcDbEntity
  8
TERRITORY_BOUNDARY
100
AcDbPolyline
 90
4
 70
1
 10
96.0
 20
0.0
 10
96.0
 20
96.0
 10
0.0
 20
96.0
 10
0.0
 20
0.0
  0
LWPOLYLINE
  5
32
330
17
100
AcDbEntity
  8
GRASS
100
AcDbPolyline
 90
4
 70
1
 10
96.0
 20
0.0
 10
96.0
 20
96.0
 10
0.0
 20
96.0
 10
0.0
 20
0.0
  0
LWPOLYLINE
  5
34
330
17
100
AcDbEntity
  8
ROAD_ACCESS
100
AcDbPolyline
 90
4
 70
1
 10
52.0
 20
0.0
 10
52.0
 20
56.0
 10
44.0
 20
56.0
 10
44.0
 20
0.0
  0
LWPOLYLINE
  5
36
330
17
100
AcDbEntity
  8
ROAD_TURN
100
AcDbPolyline
 90
64
 70
1
 10
59.0
 20
64.0
 10
58.94703199339416
 20
65.07818854362516
 10
58.78863808443553
 20
66.14599354217741
 10
58.5263436930543
 20
67.19313144979908
 10
58.162674857624154
 20
68.20951775601598
 10
57.7011339078319
 20
69.18536410508598
 10
57.146165735328
 20
70.11127256321562
 10
56.503114986990106
 20
70.9783261258001
 10
55.77817459305202
 20
71.77817459305203
 10
54.9783261258001
 20
72.50311498699011
 10
54.11127256321562
 20
73.146165735328
 10
53.185364105085974
 20
73.7011339078319
 10
52.20951775601599
 20
74.16267485762415
 10
51.19313144979908
 20
74.5263436930543
 10
50.145993542177415
 20
74.78863808443553
 10
49.07818854362517
 20
74.94703199339416
 10
48.0
 20
75.0
 10
46.92181145637483
 20
74.94703199339416
 10
45.85400645782259
 20
74.78863808443553
 10
44.80686855020092
 20
74.5263436930543
 10
43.790482243984016
 20
74.16267485762415
 10
42.814635894914026
 20
73.7011339078319
 10
41.88872743678438
 20
73.146165735328
 10
41.0216738741999
 20
72.50311498699011
 10
40.22182540694798
 20
71.77817459305203
 10
39.496885013009894
 20
70.9783261258001
 10
38.853834264672
 20
70.11127256321562
 10
38.2988660921681
 20
69.18536410508598
 10
37.837325142375846
 20
68.20951775601598
 10
37.4736563069457
 20
67.19313144979908
 10
37.21136191556447
 20
66.14599354217742
 10
37.05296800660584
 20
65.07818854362517
 10
37.0
 20
64.0
 10
37.05296800660584
 20
62.92181145637483
 10
37.21136191556447
 20
61.854006457822585
 10
37.4736563069457
 20
60.80686855020092
 10
37.837325142375846
 20
59.790482243984016
 10
38.2988660921681
 20
58.814635894914026
 10
38.853834264672
 20
57.88872743678438
 10
39.496885013009894
 20
57.021673874199905
 10
40.22182540694798
 20
56.22182540694798
 10
41.0216738741999
 20
55.496885013009894
 10
41.88872743678438
 20
54.853834264672
 10
42.81463589491402
 20
54.2988660921681
 10
43.79048224398401
 20
53.837325142375846
 10
44.80686855020091
 20
53.4736563069457
 10
45.854006457822585
 20
53.21136191556447
 10
46.92181145637483
 20
53.05296800660584
 10
48.0
 20
53.0
 10
49.07818854362516
 20
53.05296800660584
 10
50.14599354217741
 20
53.21136191556447
 10
51.19313144979908
 20
53.4736563069457
 10
52.20951775601599
 20
53.837325142375846
 10
53.185364105085974
 20
54.2988660921681
 10
54.11127256321562
 20
54.853834264672
 10
54.9783261258001
 20
55.496885013009894
 10
55.77817459305202
 20
56.22182540694798
 10
56.503114986990106
 20
57.02167387419989
 10
57.146165735328
 20
57.88872743678438
 10
57.7011339078319
 20
58.81463589491402
 10
58.162674857624154
 20
59.790482243984
 10
58.5263436930543
 20
60.80686855020091
 10
58.78863808443553
 20
61.854006457822585
 10
58.94703199339416
 20
62.92181145637483
  0
LWPOLYLINE
  5
38
330
17
100
AcDbEntity
  8
PATH_SIDE_W
100
AcDbPolyline
 90
4
 70
1
 10
44.0
 20
0.0
 10
44.0
 20
55.0
 10
40.0
 20
55.0
 10
40.0
 20
0.0
  0
LWPOLYLINE
  5
3A
330
17
100
AcDbEntity
  8
PATH_SIDE_E
100
AcDbPolyline
 90
4
 70
1
 10
56.0
 20
0.0
 10
56.0
 20
55.0
 10
52.0
 20
55.0
 10
52.0
 20
0.0
  0
LWPOLYLINE
  5
3C
330
17
100
AcDbEntity
  8
PATH_RING_1
100
AcDbPolyline
 90
50
 70
1
 10
52.61727193489653
 20
51.314149619390236
 10
53.25679059121905
 20
51.56552563716218
 10
53.88268993388057
 20
51.84911693983436
 10
54.49334838041173
 20
52.16418879794864
 10
55.08718383451657
 20
52.50992492210051
 10
55.66265778497378
 20
52.88542957778481
 10
56.218279291617726
 20
53.289729906068324
 10
56.75260884807193
 20
53.72177844407638
 10
57.26426211122789
 20
54.180455838763834
 10
57.7519134878067
 20
54.66457374693937
 10
58.214299568711155
 20
55.17287791402956
 10
58.650222402271126
 20
55.70405142360668
 10
59.05855259790138
 20
56.25671810926087
 10
59.43823225213118
 20
56.829446119977476
 10
59.78827768942464
 20
57.420751629782224
 10
60.107782010691295
 20
58.02910268204348
 10
60.3959174428837
 20
58.65292315847138
 10
60.651937483595155
 20
59.29059686253132
 10
60.87517883510107
 20
59.940471706692314
 10
61.065063122833216
 20
60.600863992661715
 10
61.22109839383494
 20
61.27006277351748
 10
61.342880391314765
 20
61.94633428643612
 10
61.43009360199645
 20
62.62792644453218
 10
61.48251207355202
 20
63.313073376171815
 10
61.5
 20
64.0
 10
59.0
 20
64.0
 10
58.985750578449796
 20
63.44028201021407
 10
58.943039231256364
 20
62.88201413998918
 10
58.87197661514537
 20
62.32664275191091
 10
58.77274683942107
 20
61.775606704347574
 10
58.64560698897521
 20
61.23033362365029
 10
58.4908864582305
 20
60.692236205453
 10
58.3089860977442
 20
60.162708554655154
 10
58.100377175683015
 20
59.64312257356927
 10
57.86560015685957
 20
59.13482440759098
 10
57.60526330249415
 20
58.63913095760033
 10
57.32004109432911
 20
58.157326468129796
 10
57.01067248717891
 20
57.69065920013849
 10
56.67795899444314
 20
57.24033819701285
 10
56.32276261154242
 20
56.807530152172234
 10
55.94600358265731
 20
56.39335638639504
 10
55.54865801655606
 20
55.99888994269646
 10
55.131755357688235
 20
55.625152806284454
 10
54.696375719095926
 20
55.273113256796414
 10
54.24364708405271
 20
54.94368335967651
 10
53.77474238368017
 20
54.637716603193006
 10
53.29087645811326
 20
54.35600568721741
 10
52.79330290908787
 20
54.099280469494666
 10
52.28331085210441
 20
53.86820607472474
 10
51.76222157658236
 20
53.663381171355006
  0
LWPOLYLINE
  5
3E
330
17
100
AcDbEntity
  8
PATH_RING_2
100
AcDbPolyline
 90
50
 70
1
 10
61.5
 20
64.0
 10
61.47109546372115
 20
64.88294224460694
 10
61.38450562854644
 20
65.7621035949707
 10
61.24060128544361
 20
66.63371934721773
 10
61.03999865490242
 20
67.49405710888404
 10
60.783556748183926
 20
68.33943278159268
 10
60.47237368890237
 20
69.16622633692872
 10
60.107782010691295
 20
69.97089731795651
 10
59.69134295108992
 20
70.75
 10
59.22483976608436
 20
71.50019814576463
 10
58.710270093931676
 20
72.21827929161773
 10
58.1498374009662
 20
72.90116850385093
 10
57.54594154601839
 20
73.54594154601838
 10
56.901168503850926
 20
74.14983740096619
 10
56.218279291617726
 20
74.71027009393167
 10
55.50019814576463
 20
75.22483976608436
 10
54.75
 20
75.69134295108992
 10
53.97089731795651
 20
76.1077820106913
 10
53.166226336928716
 20
76.47237368890237
 10
52.339432781592684
 20
76.78355674818393
 10
51.49405710888403
 20
77.03999865490242
 10
50.633719347217735
 20
77.2406012854436
 10
49.7621035949707
 20
77.38450562854644
 10
48.88294224460693
 20
77.47109546372114
 10
48.0
 20
77.5
 10
48.0
 20
75.0
 10
48.719434421531574
 20
74.97644815562464
 10
49.43578811442057
 20
74.90589347511191
 10
50.145993542177415
 20
74.78863808443553
 10
50.847009496127725
 20
74.62518408917975
 10
51.535834118334776
 20
74.41623142444617
 10
52.20951775601599
 20
74.16267485762415
 10
52.86517559240902
 20
73.86560015685957
 10
53.5
 20
73.52627944162883
 10
54.11127256321562
 20
73.146165735328
 10
54.696375719095926
 20
72.72688674320358
 10
55.25280396610076
 20
72.27023788226876
 10
55.77817459305202
 20
71.77817459305203
 10
56.27023788226875
 20
71.25280396610076
 10
56.726886743203586
 20
70.69637571909593
 10
57.146165735328
 20
70.11127256321562
 10
57.52627944162883
 20
69.5
 10
57.86560015685957
 20
68.86517559240902
 10
58.162674857624154
 20
68.20951775601598
 10
58.41623142444617
 20
67.53583411833478
 10
58.625184089179754
 20
66.84700949612773
 10
58.78863808443553
 20
66.14599354217741
 10
58.90589347511192
 20
65.43578811442056
 10
58.97644815562464
 20
64.71943442153157
 10
59.0
 20
64.0
  0
LWPOLYLINE
  5
40
330
17
100
AcDbEntity
  8
PATH_RING_3
100
AcDbPolyline
 90
50
 70
1
 10
48.0
 20
77.5
 10
47.11705775539307
 20
77.47109546372114
 10
46.2378964050293
 20
77.38450562854644
 10
45.36628065278227
 20
77.2406012854436
 10
44.50594289111597
 20
77.03999865490242
 10
43.660567218407316
 20
76.78355674818393
 10
42.83377366307129
 20
76.47237368890237
 10
42.02910268204349
 20
76.1077820106913
 10
41.25
 20
75.69134295108992
 10
40.499801854235365
 20
75.22483976608436
 10
39.781720708382274
 20
74.71027009393167
 10
39.098831496149074
 20
74.14983740096619
 10
38.45405845398161
 20
73.5459415460184
 10
37.85016259903381
 20
72.90116850385093
 10
37.28972990606833
 20
72.21827929161773
 10
36.77516023391564
 20
71.50019814576463
 10
36.30865704891008
 20
70.75
 10
35.892217989308705
 20
69.97089731795651
 10
35.52762631109763
 20
69.16622633692872
 10
35.216443251816074
 20
68.33943278159268
 10
34.96000134509758
 20
67.49405710888404
 10
34.75939871455639
 20
66.63371934721773
 10
34.61549437145356
 20
65.7621035949707
 10
34.52890453627885
 20
64.88294224460694
 10
34.5
 20
64.0
 10
37.0
 20
64.0
 10
37.02355184437536
 20
64.71943442153157
 10
37.09410652488808
 20
65.43578811442056
 10
37.21136191556447
 20
66.14599354217741
 10
37.374815910820246
 20
66.84700949612773
 10
37.58376857555384
 20
67.53583411833478
 10
37.837325142375846
 20
68.20951775601598
 10
38.13439984314043
 20
68.86517559240902
 10
38.47372055837117
 20
69.5
 10
38.853834264672
 20
70.11127256321562
 10
39.273113256796414
 20
70.69637571909593
 10
39.72976211773125
 20
71.25280396610076
 10
40.22182540694798
 20
71.77817459305203
 10
40.74719603389924
 20
72.27023788226876
 10
41.303624280904074
 20
72.72688674320358
 10
41.88872743678437
 20
73.146165735328
 10
42.5
 20
73.52627944162883
 10
43.13482440759099
 20
73.86560015685957
 10
43.790482243984016
 20
74.16267485762415
 10
44.464165881665224
 20
74.41623142444617
 10
45.15299050387227
 20
74.62518408917975
 10
45.85400645782259
 20
74.78863808443553
 10
46.56421188557943
 20
74.90589347511191
 10
47.280565578468426
 20
74.97644815562464
 10
48.0
 20
75.0
  0
LWPOLYLINE
  5
42
330
17
100
AcDbEntity
  8
PATH_RING_4
100
AcDbPolyline
 90
50
 70
1
 10
34.5
 20
64.0
 10
34.51748792644798
 20
63.313073376171815
 10
34.56990639800355
 20
62.62792644453217
 10
34.657119608685235
 20
61.94633428643612
 10
34.77890160616505
 20
61.27006277351749
 10
34.93493687716679
 20
60.60086399266171
 10
35.12482116489893
 20
59.940471706692314
 10
35.34806251640484
 20
59.29059686253134
 10
35.6040825571163
 20
58.65292315847138
 10
35.892217989308705
 20
58.02910268204349
 10
36.211722310575354
 20
57.42075162978223
 10
36.56176774786882
 20
56.82944611997747
 10
36.94144740209861
 20
56.25671810926087
 10
37.349777597728874
 20
55.704051423606685
 10
37.785700431288845
 20
55.172877914029556
 10
38.2480865121933
 20
54.66457374693937
 10
38.73573788877209
 20
54.18045583876385
 10
39.24739115192808
 20
53.72177844407638
 10
39.78172070838227
 20
53.28972990606833
 10
40.33734221502621
 20
52.88542957778482
 10
40.912816165483434
 20
52.50992492210051
 10
41.50665161958827
 20
52.16418879794865
 10
42.11731006611943
 20
51.84911693983436
 10
42.74320940878095
 20
51.56552563716218
 10
43.38272806510348
 20
51.314149619390236
 10
44.237778423417645
 20
53.663381171355006
 10
43.71668914789559
 20
53.86820607472474
 10
43.20669709091213
 20
54.099280469494666
 10
42.70912354188673
 20
54.35600568721742
 10
42.22525761631984
 20
54.637716603193006
 10
41.75635291594728
 20
54.94368335967652
 10
41.303624280904074
 20
55.273113256796414
 10
40.868244642311765
 20
55.625152806284454
 10
40.45134198344393
 20
55.998889942696465
 10
40.05399641734269
 20
56.39335638639504
 10
39.677237388457584
 20
56.807530152172234
 10
39.322041005556855
 20
57.24033819701286
 10
38.98932751282109
 20
57.69065920013849
 10
38.679958905670894
 20
58.15732646812979
 10
38.39473669750585
 20
58.63913095760034
 10
38.13439984314043
 20
59.13482440759099
 10
37.899622824316985
 20
59.64312257356927
 10
37.69101390225579
 20
60.16270855465517
 10
37.5091135417695
 20
60.692236205453
 10
37.35439301102479
 20
61.23033362365028
 10
37.22725316057893
 20
61.77560670434759
 10
37.12802338485463
 20
62.32664275191092
 10
37.056960768743636
 20
62.88201413998918
 10
37.014249421550204
 20
63.44028201021407
 10
37.0
 20
64.0
  0
LWPOLYLINE
  5
44
330
17
100
AcDbEntity
  8
PATH_ENTRANCE_9
100
AcDbPolyline
 90
4
 70
1
 10
34.5
 20
58.0
 10
34.5
 20
60.0
 10
26.0
 20
60.0
 10
26.0
 20
58.0
  0
LWPOLYLINE
  5
46
330
17
100
AcDbEntity
  8
PATH_ENTRANCE_10
100
AcDbPolyline
 90
4
 70
1
 10
34.5
 20
76.0
 10
34.5
 20
78.0
 10
26.0
 20
78.0
 10
26.0
 20
76.0
  0
LWPOLYLINE
  5
48
330
17
100
AcDbEntity
  8
PATH_ENTRANCE_12
100
AcDbPolyline
 90
4
 70
1
 10
70.0
 20
58.0
 10
70.0
 20
60.0
 10
61.5
 20
60.0
 10
61.5
 20
58.0
  0
LWPOLYLINE
  5
4A
330
17
100
AcDbEntity
  8
PATH_ENTRANCE_13
100
AcDbPolyline
 90
4
 70
1
 10
70.0
 20
76.0
 10
70.0
 20
78.0
 10
61.5
 20
78.0
 10
61.5
 20
76.0
  0
LWPOLYLINE
  5
4C
330
17
100
AcDbEntity
  8
PATH_ENTRANCE_15
100
AcDbPolyline
 90
4
 70
1
 10
42.0
 20
77.5
 10
42.0
 20
84.0
 10
40.0
 20
84.0
 10
40.0
 20
77.5
  0
LWPOLYLINE
  5
4E
330
17
100
AcDbEntity
  8
PATH_ENTRANCE_16
100
AcDbPolyline
 90
4
 70
1
 10
56.0
 20
77.5
 10
56.0
 20
84.0
 10
54.0
 20
84.0
 10
54.0
 20
77.5
  0
LWPOLYLINE
  5
50
330
17
100
AcDbEntity
  8
BUILDINGS_FOOTPRINT
100
AcDbPolyline
 90
4
 70
1
 10
26.0
 20
50.0
 10
26.0
 20
86.0
 10
8.0
 20
86.0
 10
8.0
 20
50.0
  0
MESH
  5
52
330
17
100
AcDbEntity
  8
BUILDINGS_3D
100
AcDbSubDMesh
 71
2
 72
0
 91
0
 92
8
 10
26.0
 20
50.0
 30
0.0
 10
26.0
 20
86.0
 30
0.0
 10
8.0
 20
86.0
 30
0.0
 10
8.0
 20
50.0
 30
0.0
 10
26.0
 20
50.0
 30
15.0
 10
26.0
 20
86.0
 30
15.0
 10
8.0
 20
86.0
 30
15.0
 10
8.0
 20
50.0
 30
15.0
 93
30
 90
4
 90
0
 90
1
 90
2
 90
3
 90
4
 90
7
 90
6
 90
5
 90
4
 90
4
 90
0
 90
1
 90
5
 90
4
 90
4
 90
1
 90
2
 90
6
 90
5
 90
4
 90
2
 90
3
 90
7
 90
6
 90
4
 90
3
 90
0
 90
4
 90
7
 94
0
 95
0
 90
0
  0
TEXT
  5
54
330
17
100
AcDbEntity
  8
LABELS
100
AcDbText
 10
17.0
 20
68.0
 30
0.0
 40
1.5
  1
Жилой дом, 5 эт.
100
AcDbText
  0
LWPOLYLINE
  5
55
330
17
100
AcDbEntity
  8
BUILDINGS_FOOTPRINT
100
AcDbPolyline
 90
4
 70
1
 10
88.0
 20
50.0
 10
88.0
 20
86.0
 10
70.0
 20
86.0
 10
70.0
 20
50.0
  0
MESH
  5
56
330
17
100
AcDbEntity
  8
BUILDINGS_3D
100
AcDbSubDMesh
 71
2
 72
0
 91
0
 92
8
 10
88.0
 20
50.0
 30
0.0
 10
88.0
 20
86.0
 30
0.0
 10
70.0
 20
86.0
 30
0.0
 10
70.0
 20
50.0
 30
0.0
 10
88.0
 20
50.0
 30
15.0
 10
88.0
 20
86.0
 30
15.0
 10
70.0
 20
86.0
 30
15.0
 10
70.0
 20
50.0
 30
15.0
 93
30
 90
4
 90
0
 90
1
 90
2
 90
3
 90
4
 90
7
 90
6
 90
5
 90
4
 90
4
 90
0
 90
1
 90
5
 90
4
 90
4
 90
1
 90
2
 90
6
 90
5
 90
4
 90
2
 90
3
 90
7
 90
6
 90
4
 90
3
 90
0
 90
4
 90
7
 94
0
 95
0
 90
0
  0
TEXT
  5
57
330
17
100
AcDbEntity
  8
LABELS
100
AcDbText
 10
79.0
 20
68.0
 30
0.0
 40
1.5
  1
Жилой дом, 5 эт.
100
AcDbText
  0
LWPOLYLINE
  5
58
330
17
100
AcDbEntity
  8
BUILDINGS_FOOTPRINT
100
AcDbPolyline
 90
4
 70
1
 10
62.0
 20
84.0
 10
62.0
 20
94.0
 10
34.0
 20
94.0
 10
34.0
 20
84.0
  0
MESH
  5
59
330
17
100
AcDbEntity
  8
BUILDINGS_3D
100
AcDbSubDMesh
 71
2
 72
0
 91
0
 92
8
 10
62.0
 20
84.0
 30
0.0
 10
62.0
 20
94.0
 30
0.0
 10
34.0
 20
94.0
 30
0.0
 10
34.0
 20
84.0
 30
0.0
 10
62.0
 20
84.0
 30
15.0
 10
62.0
 20
94.0
 30
15.0
 10
34.0
 20
94.0
 30
15.0
 10
34.0
 20
84.0
 30
15.0
 93
30
 90
4
 90
0
 90
1
 90
2
 90
3
 90
4
 90
7
 90
6
 90
5
 90
4
 90
4
 90
0
 90
1
 90
5
 90
4
 90
4
 90
1
 90
2
 90
6
 90
5
 90
4
 90
2
 90
3
 90
7
 90
6
 90
4
 90
3
 90
0
 90
4
 90
7
 94
0
 95
0
 90
0
  0
TEXT
  5
5A
330
17
100
AcDbEntity
  8
LABELS
100
AcDbText
 10
48.0
 20
89.0
 30
0.0
 40
1.5
  1
Жилой дом, 5 эт.
100
AcDbText
  0
POINT
  5
5C
330
17
100
AcDbEntity
  8
СПИРЕЯ ВАНГУТТА
100
AcDbPoint
 10
28.4
 20
51.1
 30
0.0
  0
POINT
  5
5D
330
17
100
AcDbEntity
  8
СПИРЕЯ ВАНГУТТА
100
AcDbPoint
 10
28.4
 20
53.3
 30
0.0
  0
POINT
  5
5E
330
17
100
AcDbEntity
  8
СПИРЕЯ ВАНГУТТА
100
AcDbPoint
 10
28.4
 20
55.5
 30
0.0
  0
POINT
  5
5F
330
17
100
AcDbEntity
  8
СПИРЕЯ ВАНГУТТА
100
AcDbPoint
 10
28.4
 20
62.1
 30
0.0
  0
POINT
  5
60
330
17
100
AcDbEntity
  8
СПИРЕЯ ВАНГУТТА
100
AcDbPoint
 10
28.4
 20
64.3
 30
0.0
  0
POINT
  5
61
330
17
100
AcDbEntity
  8
СПИРЕЯ ВАНГУТТА
100
AcDbPoint
 10
28.4
 20
66.5
 30
0.0
  0
POINT
  5
62
330
17
100
AcDbEntity
  8
СПИРЕЯ ВАНГУТТА
100
AcDbPoint
 10
28.4
 20
68.69999999999999
 30
0.0
  0
POINT
  5
63
330
17
100
AcDbEntity
  8
СПИРЕЯ ВАНГУТТА
100
AcDbPoint
 10
28.4
 20
70.9
 30
0.0
  0
POINT
  5
64
330
17
100
AcDbEntity
  8
СПИРЕЯ ВАНГУТТА
100
AcDbPoint
 10
28.4
 20
73.1
 30
0.0
  0
POINT
  5
65
330
17
100
AcDbEntity
  8
СПИРЕЯ ВАНГУТТА
100
AcDbPoint
 10
28.4
 20
75.3
 30
0.0
  0
POINT
  5
66
330
17
100
AcDbEntity
  8
СПИРЕЯ ВАНГУТТА
100
AcDbPoint
 10
28.4
 20
79.69999999999999
 30
0.0
  0
POINT
  5
67
330
17
100
AcDbEntity
  8
СПИРЕЯ ВАНГУТТА
100
AcDbPoint
 10
28.4
 20
81.89999999999999
 30
0.0
  0
POINT
  5
68
330
17
100
AcDbEntity
  8
СПИРЕЯ ВАНГУТТА
100
AcDbPoint
 10
28.4
 20
84.1
 30
0.0
  0
POINT
  5
69
330
17
100
AcDbEntity
  8
СПИРЕЯ ВАНГУТТА
100
AcDbPoint
 10
5.6
 20
51.1
 30
0.0
  0
POINT
  5
6A
330
17
100
AcDbEntity
  8
СПИРЕЯ ВАНГУТТА
100
AcDbPoint
 10
5.6
 20
53.3
 30
0.0
  0
POINT
  5
6B
330
17
100
AcDbEntity
  8
СПИРЕЯ ВАНГУТТА
100
AcDbPoint
 10
5.6
 20
55.5
 30
0.0
  0
POINT
  5
6C
330
17
100
AcDbEntity
  8
СПИРЕЯ ВАНГУТТА
100
AcDbPoint
 10
5.6
 20
57.7
 30
0.0
  0
POINT
  5
6D
330
17
100
AcDbEntity
  8
СПИРЕЯ ВАНГУТТА
100
AcDbPoint
 10
5.6
 20
59.9
 30
0.0
  0
POINT
  5
6E
330
17
100
AcDbEntity
  8
СПИРЕЯ ВАНГУТТА
100
AcDbPoint
 10
5.6
 20
62.1
 30
0.0
  0
POINT
  5
6F
330
17
100
AcDbEntity
  8
СПИРЕЯ ВАНГУТТА
100
AcDbPoint
 10
5.6
 20
64.3
 30
0.0
  0
POINT
  5
70
330
17
100
AcDbEntity
  8
СПИРЕЯ ВАНГУТТА
100
AcDbPoint
 10
5.6
 20
66.5
 30
0.0
  0
POINT
  5
71
330
17
100
AcDbEntity
  8
СПИРЕЯ ВАНГУТТА
100
AcDbPoint
 10
5.6
 20
68.69999999999999
 30
0.0
  0
POINT
  5
72
330
17
100
AcDbEntity
  8
СПИРЕЯ ВАНГУТТА
100
AcDbPoint
 10
5.6
 20
70.9
 30
0.0
  0
POINT
  5
73
330
17
100
AcDbEntity
  8
СПИРЕЯ ВАНГУТТА
100
AcDbPoint
 10
5.6
 20
73.1
 30
0.0
  0
POINT
  5
74
330
17
100
AcDbEntity
  8
СПИРЕЯ ВАНГУТТА
100
AcDbPoint
 10
5.6
 20
75.3
 30
0.0
  0
POINT
  5
75
330
17
100
AcDbEntity
  8
СПИРЕЯ ВАНГУТТА
100
AcDbPoint
 10
5.6
 20
77.5
 30
0.0
  0
POINT
  5
76
330
17
100
AcDbEntity
  8
СПИРЕЯ ВАНГУТТА
100
AcDbPoint
 10
5.6
 20
79.69999999999999
 30
0.0
  0
POINT
  5
77
330
17
100
AcDbEntity
  8
СПИРЕЯ ВАНГУТТА
100
AcDbPoint
 10
5.6
 20
81.89999999999999
 30
0.0
  0
POINT
  5
78
330
17
100
AcDbEntity
  8
СПИРЕЯ ВАНГУТТА
100
AcDbPoint
 10
5.6
 20
84.1
 30
0.0
  0
POINT
  5
79
330
17
100
AcDbEntity
  8
СПИРЕЯ ВАНГУТТА
100
AcDbPoint
 10
90.4
 20
51.1
 30
0.0
  0
POINT
  5
7A
330
17
100
AcDbEntity
  8
СПИРЕЯ ВАНГУТТА
100
AcDbPoint
 10
90.4
 20
53.3
 30
0.0
  0
POINT
  5
7B
330
17
100
AcDbEntity
  8
СПИРЕЯ ВАНГУТТА
100
AcDbPoint
 10
90.4
 20
55.5
 30
0.0
  0
POINT
  5
7C
330
17
100
AcDbEntity
  8
СПИРЕЯ ВАНГУТТА
100
AcDbPoint
 10
90.4
 20
57.7
 30
0.0
  0
POINT
  5
7D
330
17
100
AcDbEntity
  8
СПИРЕЯ ВАНГУТТА
100
AcDbPoint
 10
90.4
 20
59.9
 30
0.0
  0
POINT
  5
7E
330
17
100
AcDbEntity
  8
СПИРЕЯ ВАНГУТТА
100
AcDbPoint
 10
90.4
 20
62.1
 30
0.0
  0
POINT
  5
7F
330
17
100
AcDbEntity
  8
СПИРЕЯ ВАНГУТТА
100
AcDbPoint
 10
90.4
 20
64.3
 30
0.0
  0
POINT
  5
80
330
17
100
AcDbEntity
  8
СПИРЕЯ ВАНГУТТА
100
AcDbPoint
 10
90.4
 20
66.5
 30
0.0
  0
POINT
  5
81
330
17
100
AcDbEntity
  8
СПИРЕЯ ВАНГУТТА
100
AcDbPoint
 10
90.4
 20
68.69999999999999
 30
0.0
  0
POINT
  5
82
330
17
100
AcDbEntity
  8
СПИРЕЯ ВАНГУТТА
100
AcDbPoint
 10
90.4
 20
70.9
 30
0.0
  0
POINT
  5
83
330
17
100
AcDbEntity
  8
СПИРЕЯ ВАНГУТТА
100
AcDbPoint
 10
90.4
 20
73.1
 30
0.0
  0
POINT
  5
84
330
17
100
AcDbEntity
  8
СПИРЕЯ ВАНГУТТА
100
AcDbPoint
 10
90.4
 20
75.3
 30
0.0
  0
POINT
  5
85
330
17
100
AcDbEntity
  8
СПИРЕЯ ВАНГУТТА
100
AcDbPoint
 10
90.4
 20
77.5
 30
0.0
  0
POINT
  5
86
330
17
100
AcDbEntity
  8
СПИРЕЯ ВАНГУТТА
100
AcDbPoint
 10
90.4
 20
79.69999999999999
 30
0.0
  0
POINT
  5
87
330
17
100
AcDbEntity
  8
СПИРЕЯ ВАНГУТТА
100
AcDbPoint
 10
90.4
 20
81.89999999999999
 30
0.0
  0
POINT
  5
88
330
17
100
AcDbEntity
  8
СПИРЕЯ ВАНГУТТА
100
AcDbPoint
 10
90.4
 20
84.1
 30
0.0
  0
POINT
  5
89
330
17
100
AcDbEntity
  8
СПИРЕЯ ВАНГУТТА
100
AcDbPoint
 10
67.6
 20
51.1
 30
0.0
  0
POINT
  5
8A
330
17
100
AcDbEntity
  8
СПИРЕЯ ВАНГУТТА
100
AcDbPoint
 10
67.6
 20
53.3
 30
0.0
  0
POINT
  5
8B
330
17
100
AcDbEntity
  8
СПИРЕЯ ВАНГУТТА
100
AcDbPoint
 10
67.6
 20
55.5
 30
0.0
  0
POINT
  5
8C
330
17
100
AcDbEntity
  8
СПИРЕЯ ВАНГУТТА
100
AcDbPoint
 10
67.6
 20
62.1
 30
0.0
  0
POINT
  5
8D
330
17
100
AcDbEntity
  8
СПИРЕЯ ВАНГУТТА
100
AcDbPoint
 10
67.6
 20
64.3
 30
0.0
  0
POINT
  5
8E
330
17
100
AcDbEntity
  8
СПИРЕЯ ВАНГУТТА
100
AcDbPoint
 10
67.6
 20
66.5
 30
0.0
  0
POINT
  5
8F
330
17
100
AcDbEntity
  8
СПИРЕЯ ВАНГУТТА
100
AcDbPoint
 10
67.6
 20
68.69999999999999
 30
0.0
  0
POINT
  5
90
330
17
100
AcDbEntity
  8
СПИРЕЯ ВАНГУТТА
100
AcDbPoint
 10
67.6
 20
70.9
 30
0.0
  0
POINT
  5
91
330
17
100
AcDbEntity
  8
СПИРЕЯ ВАНГУТТА
100
AcDbPoint
 10
67.6
 20
73.1
 30
0.0
  0
POINT
  5
92
330
17
100
AcDbEntity
  8
СПИРЕЯ ВАНГУТТА
100
AcDbPoint
 10
67.6
 20
75.3
 30
0.0
  0
POINT
  5
93
330
17
100
AcDbEntity
  8
СПИРЕЯ ВАНГУТТА
100
AcDbPoint
 10
67.6
 20
79.69999999999999
 30
0.0
  0
POINT
  5
94
330
17
100
AcDbEntity
  8
СПИРЕЯ ВАНГУТТА
100
AcDbPoint
 10
67.6
 20
81.89999999999999
 30
0.0
  0
POINT
  5
95
330
17
100
AcDbEntity
  8
СПИРЕЯ ВАНГУТТА
100
AcDbPoint
 10
67.6
 20
84.1
 30
0.0
  0
POINT
  5
96
330
17
100
AcDbEntity
  8
СПИРЕЯ ВАНГУТТА
100
AcDbPoint
 10
35.1
 20
81.6
 30
0.0
  0
POINT
  5
97
330
17
100
AcDbEntity
  8
СПИРЕЯ ВАНГУТТА
100
AcDbPoint
 10
37.3
 20
81.6
 30
0.0
  0
POINT
  5
98
330
17
100
AcDbEntity
  8
СПИРЕЯ ВАНГУТТА
100
AcDbPoint
 10
43.9
 20
81.6
 30
0.0
  0
POINT
  5
99
330
17
100
AcDbEntity
  8
СПИРЕЯ ВАНГУТТА
100
AcDbPoint
 10
46.1
 20
81.6
 30
0.0
  0
POINT
  5
9A
330
17
100
AcDbEntity
  8
СПИРЕЯ ВАНГУТТА
100
AcDbPoint
 10
48.300000000000004
 20
81.6
 30
0.0
  0
POINT
  5
9B
330
17
100
AcDbEntity
  8
СПИРЕЯ ВАНГУТТА
100
AcDbPoint
 10
50.5
 20
81.6
 30
0.0
  0
POINT
  5
9C
330
17
100
AcDbEntity
  8
СПИРЕЯ ВАНГУТТА
100
AcDbPoint
 10
52.7
 20
81.6
 30
0.0
  0
POINT
  5
9D
330
17
100
AcDbEntity
  8
СПИРЕЯ ВАНГУТТА
100
AcDbPoint
 10
57.099999999999994
 20
81.6
 30
0.0
  0
POINT
  5
9E
330
17
100
AcDbEntity
  8
СПИРЕЯ ВАНГУТТА
100
AcDbPoint
 10
59.3
 20
81.6
 30
0.0
  0
POINT
  5
9F
330
17
100
AcDbEntity
  8
СПИРЕЯ ВАНГУТТА
100
AcDbPoint
 10
61.5
 20
81.6
 30
0.0
  0
POINT
  5
A1
330
17
100
AcDbEntity
  8
ЕЛЬ КОЛЮЧАЯ
100
AcDbPoint
 10
16.0
 20
18.0
 30
0.0
  0
POINT
  5
A3
330
17
100
AcDbEntity
  8
ЛИСТВЕННИЦА ЕВРОПЕЙСКАЯ
100
AcDbPoint
 10
12.0
 20
18.0
 30
0.0
  0
POINT
  5
A5
330
17
100
AcDbEntity
  8
БЕРЕЗА ПОВИСЛАЯ
100
AcDbPoint
 10
20.0
 20
18.0
 30
0.0
  0
POINT
  5
A6
330
17
100
AcDbEntity
  8
ЛИСТВЕННИЦА ЕВРОПЕЙСКАЯ
100
AcDbPoint
 10
16.0
 20
22.0
 30
0.0
  0
POINT
  5
A7
330
17
100
AcDbEntity
  8
БЕРЕЗА ПОВИСЛАЯ
100
AcDbPoint
 10
16.0
 20
14.0
 30
0.0
  0
POINT
  5
A8
330
17
100
AcDbEntity
  8
ЛИСТВЕННИЦА ЕВРОПЕЙСКАЯ
100
AcDbPoint
 10
19.0
 20
21.0
 30
0.0
  0
POINT
  5
AA
330
17
100
AcDbEntity
  8
СИРЕНЬ ОБЫКНОВЕННАЯ
100
AcDbPoint
 10
9.2
 20
10.0
 30
0.0
  0
POINT
  5
AB
330
17
100
AcDbEntity
  8
СИРЕНЬ ОБЫКНОВЕННАЯ
100
AcDbPoint
 10
11.6
 20
10.0
 30
0.0
  0
POINT
  5
AC
330
17
100
AcDbEntity
  8
СИРЕНЬ ОБЫКНОВЕННАЯ
100
AcDbPoint
 10
14.0
 20
10.0
 30
0.0
  0
POINT
  5
AD
330
17
100
AcDbEntity
  8
СИРЕНЬ ОБЫКНОВЕННАЯ
100
AcDbPoint
 10
16.4
 20
10.0
 30
0.0
  0
POINT
  5
AE
330
17
100
AcDbEntity
  8
СИРЕНЬ ОБЫКНОВЕННАЯ
100
AcDbPoint
 10
18.8
 20
10.0
 30
0.0
  0
POINT
  5
AF
330
17
100
AcDbEntity
  8
СИРЕНЬ ОБЫКНОВЕННАЯ
100
AcDbPoint
 10
21.200000000000003
 20
10.0
 30
0.0
  0
POINT
  5
B0
330
17
100
AcDbEntity
  8
СИРЕНЬ ОБЫКНОВЕННАЯ
100
AcDbPoint
 10
23.6
 20
10.0
 30
0.0
  0
POINT
  5
B1
330
17
100
AcDbEntity
  8
ЕЛЬ КОЛЮЧАЯ
100
AcDbPoint
 10
28.0
 20
34.0
 30
0.0
  0
POINT
  5
B2
330
17
100
AcDbEntity
  8
ЛИСТВЕННИЦА ЕВРОПЕЙСКАЯ
100
AcDbPoint
 10
24.0
 20
34.0
 30
0.0
  0
POINT
  5
B3
330
17
100
AcDbEntity
  8
БЕРЕЗА ПОВИСЛАЯ
100
AcDbPoint
 10
32.0
 20
34.0
 30
0.0
  0
POINT
  5
B4
330
17
100
AcDbEntity
  8
ЛИСТВЕННИЦА ЕВРОПЕЙСКАЯ
100
AcDbPoint
 10
28.0
 20
38.0
 30
0.0
  0
POINT
  5
B5
330
17
100
AcDbEntity
  8
БЕРЕЗА ПОВИСЛАЯ
100
AcDbPoint
 10
28.0
 20
30.0
 30
0.0
  0
POINT
  5
B6
330
17
100
AcDbEntity
  8
ЛИСТВЕННИЦА ЕВРОПЕЙСКАЯ
100
AcDbPoint
 10
31.0
 20
37.0
 30
0.0
  0
POINT
  5
B7
330
17
100
AcDbEntity
  8
СИРЕНЬ ОБЫКНОВЕННАЯ
100
AcDbPoint
 10
21.2
 20
26.0
 30
0.0
  0
POINT
  5
B8
330
17
100
AcDbEntity
  8
СИРЕНЬ ОБЫКНОВЕННАЯ
100
AcDbPoint
 10
23.6
 20
26.0
 30
0.0
  0
POINT
  5
B9
330
17
100
AcDbEntity
  8
СИРЕНЬ ОБЫКНОВЕННАЯ
100
AcDbPoint
 10
26.0
 20
26.0
 30
0.0
  0
POINT
  5
BA
330
17
100
AcDbEntity
  8
СИРЕНЬ ОБЫКНОВЕННАЯ
100
AcDbPoint
 10
28.4
 20
26.0
 30
0.0
  0
POINT
  5
BB
330
17
100
AcDbEntity
  8
СИРЕНЬ ОБЫКНОВЕННАЯ
100
AcDbPoint
 10
30.8
 20
26.0
 30
0.0
  0
POINT
  5
BC
330
17
100
AcDbEntity
  8
СИРЕНЬ ОБЫКНОВЕННАЯ
100
AcDbPoint
 10
33.2
 20
26.0
 30
0.0
  0
POINT
  5
BD
330
17
100
AcDbEntity
  8
СИРЕНЬ ОБЫКНОВЕННАЯ
100
AcDbPoint
 10
35.6
 20
26.0
 30
0.0
  0
POINT
  5
BE
330
17
100
AcDbEntity
  8
ЕЛЬ КОЛЮЧАЯ
100
AcDbPoint
 10
80.0
 20
18.0
 30
0.0
  0
POINT
  5
BF
330
17
100
AcDbEntity
  8
ЛИСТВЕННИЦА ЕВРОПЕЙСКАЯ
100
AcDbPoint
 10
76.0
 20
18.0
 30
0.0
  0
POINT
  5
C0
330
17
100
AcDbEntity
  8
БЕРЕЗА ПОВИСЛАЯ
100
AcDbPoint
 10
84.0
 20
18.0
 30
0.0
  0
POINT
  5
C1
330
17
100
AcDbEntity
  8
ЛИСТВЕННИЦА ЕВРОПЕЙСКАЯ
100
AcDbPoint
 10
80.0
 20
22.0
 30
0.0
  0
POINT
  5
C2
330
17
100
AcDbEntity
  8
БЕРЕЗА ПОВИСЛАЯ
100
AcDbPoint
 10
80.0
 20
14.0
 30
0.0
  0
POINT
  5
C3
330
17
100
AcDbEntity
  8
ЛИСТВЕННИЦА ЕВРОПЕЙСКАЯ
100
AcDbPoint
 10
83.0
 20
21.0
 30
0.0
  0
POINT
  5
C4
330
17
100
AcDbEntity
  8
СИРЕНЬ ОБЫКНОВЕННАЯ
100
AcDbPoint
 10
73.2
 20
10.0
 30
0.0
  0
POINT
  5
C5
330
17
100
AcDbEntity
  8
СИРЕНЬ ОБЫКНОВЕННАЯ
100
AcDbPoint
 10
75.6
 20
10.0
 30
0.0
  0
POINT
  5
C6
330
17
100
AcDbEntity
  8
СИРЕНЬ ОБЫКНОВЕННАЯ
100
AcDbPoint
 10
78.0
 20
10.0
 30
0.0
  0
POINT
  5
C7
330
17
100
AcDbEntity
  8
СИРЕНЬ ОБЫКНОВЕННАЯ
100
AcDbPoint
 10
80.4
 20
10.0
 30
0.0
  0
POINT
  5
C8
330
17
100
AcDbEntity
  8
СИРЕНЬ ОБЫКНОВЕННАЯ
100
AcDbPoint
 10
82.8
 20
10.0
 30
0.0
  0
POINT
  5
C9
330
17
100
AcDbEntity
  8
СИРЕНЬ ОБЫКНОВЕННАЯ
100
AcDbPoint
 10
85.2
 20
10.0
 30
0.0
  0
POINT
  5
CA
330
17
100
AcDbEntity
  8
СИРЕНЬ ОБЫКНОВЕННАЯ
100
AcDbPoint
 10
87.6
 20
10.0
 30
0.0
  0
POINT
  5
CB
330
17
100
AcDbEntity
  8
ЕЛЬ КОЛЮЧАЯ
100
AcDbPoint
 10
68.0
 20
34.0
 30
0.0
  0
POINT
  5
CC
330
17
100
AcDbEntity
  8
ЛИСТВЕННИЦА ЕВРОПЕЙСКАЯ
100
AcDbPoint
 10
64.0
 20
34.0
 30
0.0
  0
POINT
  5
CD
330
17
100
AcDbEntity
  8
БЕРЕЗА ПОВИСЛАЯ
100
AcDbPoint
 10
72.0
 20
34.0
 30
0.0
  0
POINT
  5
CE
330
17
100
AcDbEntity
  8
ЛИСТВЕННИЦА ЕВРОПЕЙСКАЯ
100
AcDbPoint
 10
68.0
 20
38.0
 30
0.0
  0
POINT
  5
CF
330
17
100
AcDbEntity
  8
БЕРЕЗА ПОВИСЛАЯ
100
AcDbPoint
 10
68.0
 20
30.0
 30
0.0
  0
POINT
  5
D0
330
17
100
AcDbEntity
  8
ЛИСТВЕННИЦА ЕВРОПЕЙСКАЯ
100
AcDbPoint
 10
71.0
 20
37.0
 30
0.0
  0
POINT
  5
D1
330
17
100
AcDbEntity
  8
СИРЕНЬ ОБЫКНОВЕННАЯ
100
AcDbPoint
 10
61.2
 20
26.0
 30
0.0
  0
POINT
  5
D2
330
17
100
AcDbEntity
  8
СИРЕНЬ ОБЫКНОВЕННАЯ
100
AcDbPoint
 10
63.6
 20
26.0
 30
0.0
  0
POINT
  5
D3
330
17
100
AcDbEntity
  8
СИРЕНЬ ОБЫКНОВЕННАЯ
100
AcDbPoint
 10
66.0
 20
26.0
 30
0.0
  0
POINT
  5
D4
330
17
100
AcDbEntity
  8
СИРЕНЬ ОБЫКНОВЕННАЯ
100
AcDbPoint
 10
68.4
 20
26.0
 30
0.0
  0
POINT
  5
D5
330
17
100
AcDbEntity
  8
СИРЕНЬ ОБЫКНОВЕННАЯ
100
AcDbPoint
 10
70.8
 20
26.0
 30
0.0
  0
POINT
  5
D6
330
17
100
AcDbEntity
  8
СИРЕНЬ ОБЫКНОВЕННАЯ
100
AcDbPoint
 10
73.2
 20
26.0
 30
0.0
  0
POINT
  5
D7
330
17
100
AcDbEntity
  8
СИРЕНЬ ОБЫКНОВЕННАЯ
100
AcDbPoint
 10
75.6
 20
26.0
 30
0.0
  0
POINT
  5
D9
330
17
100
AcDbEntity
  8
КЛЕН ОСТРОЛИСТНЫЙ
100
AcDbPoint
 10
35.5
 20
6.0
 30
0.0
  0
POINT
  5
DA
330
17
100
AcDbEntity
  8
КЛЕН ОСТРОЛИСТНЫЙ
100
AcDbPoint
 10
60.5
 20
6.0
 30
0.0
  0
POINT
  5
DB
330
17
100
AcDbEntity
  8
КЛЕН ОСТРОЛИСТНЫЙ
100
AcDbPoint
 10
35.5
 20
14.0
 30
0.0
  0
POINT
  5
DC
330
17
100
AcDbEntity
  8
КЛЕН ОСТРОЛИСТНЫЙ
100
AcDbPoint
 10
60.5
 20
14.0
 30
0.0
  0
POINT
  5
DD
330
17
100
AcDbEntity
  8
КЛЕН ОСТРОЛИСТНЫЙ
100
AcDbPoint
 10
35.5
 20
22.0
 30
0.0
  0
POINT
  5
DE
330
17
100
AcDbEntity
  8
КЛЕН ОСТРОЛИСТНЫЙ
100
AcDbPoint
 10
60.5
 20
22.0
 30
0.0
  0
POINT
  5
DF
330
17
100
AcDbEntity
  8
КЛЕН ОСТРОЛИСТНЫЙ
100
AcDbPoint
 10
35.5
 20
30.0
 30
0.0
  0
POINT
  5
E0
330
17
100
AcDbEntity
  8
КЛЕН ОСТРОЛИСТНЫЙ
100
AcDbPoint
 10
60.5
 20
30.0
 30
0.0
  0
POINT
  5
E1
330
17
100
AcDbEntity
  8
КЛЕН ОСТРОЛИСТНЫЙ
100
AcDbPoint
 10
35.5
 20
38.0
 30
0.0
  0
POINT
  5
E2
330
17
100
AcDbEntity
  8
КЛЕН ОСТРОЛИСТНЫЙ
100
AcDbPoint
 10
60.5
 20
38.0
 30
0.0
  0
POINT
  5
E3
330
17
100
AcDbEntity
  8
КЛЕН ОСТРОЛИСТНЫЙ
100
AcDbPoint
 10
35.5
 20
46.0
 30
0.0
  0
POINT
  5
E4
330
17
100
AcDbEntity
  8
КЛЕН ОСТРОЛИСТНЫЙ
100
AcDbPoint
 10
60.5
 20
46.0
 30
0.0
  0
POINT
  5
E6
330
17
100
AcDbEntity
  8
КИЗИЛЬНИК БЛЕСТЯЩИЙ
100
AcDbPoint
 10
2.0
 20
2.55
 30
0.0
  0
POINT
  5
E7
330
17
100
AcDbEntity
  8
КИЗИЛЬНИК БЛЕСТЯЩИЙ
100
AcDbPoint
 10
2.0
 20
3.6500000000000004
 30
0.0
  0
POINT
  5
E8
330
17
100
AcDbEntity
  8
КИЗИЛЬНИК БЛЕСТЯЩИЙ
100
AcDbPoint
 10
2.0
 20
4.75
 30
0.0
  0
POINT
  5
E9
330
17
100
AcDbEntity
  8
КИЗИЛЬНИК БЛЕСТЯЩИЙ
100
AcDbPoint
 10
2.0
 20
5.85
 30
0.0
  0
POINT
  5
EA
330
17
100
AcDbEntity
  8
КИЗИЛЬНИК БЛЕСТЯЩИЙ
100
AcDbPoint
 10
2.0
 20
6.95
 30
0.0
  0
POINT
  5
EB
330
17
100
AcDbEntity
  8
КИЗИЛЬНИК БЛЕСТЯЩИЙ
100
AcDbPoint
 10
2.0
 20
8.05
 30
0.0
  0
POINT
  5
EC
330
17
100
AcDbEntity
  8
КИЗИЛЬНИК БЛЕСТЯЩИЙ
100
AcDbPoint
 10
2.0
 20
9.150000000000002
 30
0.0
  0
POINT
  5
ED
330
17
100
AcDbEntity
  8
КИЗИЛЬНИК БЛЕСТЯЩИЙ
100
AcDbPoint
 10
2.0
 20
10.25
 30
0.0
  0
POINT
  5
EE
330
17
100
AcDbEntity
  8
КИЗИЛЬНИК БЛЕСТЯЩИЙ
100
AcDbPoint
 10
2.0
 20
11.35
 30
0.0
  0
POINT
  5
EF
330
17
100
AcDbEntity
  8
КИЗИЛЬНИК БЛЕСТЯЩИЙ
100
AcDbPoint
 10
2.0
 20
12.45
 30
0.0
  0
POINT
  5
F0
330
17
100
AcDbEntity
  8
КИЗИЛЬНИК БЛЕСТЯЩИЙ
100
AcDbPoint
 10
2.0
 20
13.549999999999999
 30
0.0
  0
POINT
  5
F1
330
17
100
AcDbEntity
  8
КИЗИЛЬНИК БЛЕСТЯЩИЙ
100
AcDbPoint
 10
2.0
 20
14.649999999999999
 30
0.0
  0
POINT
  5
F2
330
17
100
AcDbEntity
  8
КИЗИЛЬНИК БЛЕСТЯЩИЙ
100
AcDbPoint
 10
2.0
 20
15.749999999999996
 30
0.0
  0
POINT
  5
F3
330
17
100
AcDbEntity
  8
КИЗИЛЬНИК БЛЕСТЯЩИЙ
100
AcDbPoint
 10
2.0
 20
16.849999999999998
 30
0.0
  0
POINT
  5
F4
330
17
100
AcDbEntity
  8
КИЗИЛЬНИК БЛЕСТЯЩИЙ
100
AcDbPoint
 10
2.0
 20
17.949999999999996
 30
0.0
  0
POINT
  5
F5
330
17
100
AcDbEntity
  8
КИЗИЛЬНИК БЛЕСТЯЩИЙ
100
AcDbPoint
 10
2.0
 20
19.049999999999997
 30
0.0
  0
POINT
  5
F6
330
17
100
AcDbEntity
  8
КИЗИЛЬНИК БЛЕСТЯЩИЙ
100
AcDbPoint
 10
2.0
 20
20.15
 30
0.0
  0
POINT
  5
F7
330
17
100
AcDbEntity
  8
КИЗИЛЬНИК БЛЕСТЯЩИЙ
100
AcDbPoint
 10
2.0
 20
21.25
 30
0.0
  0
POINT
  5
F8
330
17
100
AcDbEntity
  8
КИЗИЛЬНИК БЛЕСТЯЩИЙ
100
AcDbPoint
 10
2.0
 20
22.35
 30
0.0
  0
POINT
  5
F9
330
17
100
AcDbEntity
  8
КИЗИЛЬНИК БЛЕСТЯЩИЙ
100
AcDbPoint
 10
2.0
 20
23.450000000000003
 30
0.0
  0
POINT
  5
FA
330
17
100
AcDbEntity
  8
КИЗИЛЬНИК БЛЕСТЯЩИЙ
100
AcDbPoint
 10
2.0
 20
24.550000000000004
 30
0.0
  0
POINT
  5
FB
330
17
100
AcDbEntity
  8
КИЗИЛЬНИК БЛЕСТЯЩИЙ
100
AcDbPoint
 10
2.0
 20
25.650000000000006
 30
0.0
  0
POINT
  5
FC
330
17
100
AcDbEntity
  8
КИЗИЛЬНИК БЛЕСТЯЩИЙ
100
AcDbPoint
 10
2.0
 20
26.750000000000007
 30
0.0
  0
POINT
  5
FD
330
17
100
AcDbEntity
  8
КИЗИЛЬНИК БЛЕСТЯЩИЙ
100
AcDbPoint
 10
2.0
 20
27.850000000000005
 30
0.0
  0
POINT
  5
FE
330
17
100
AcDbEntity
  8
КИЗИЛЬНИК БЛЕСТЯЩИЙ
100
AcDbPoint
 10
2.0
 20
28.95000000000001
 30
0.0
  0
POINT
  5
FF
330
17
100
AcDbEntity
  8
КИЗИЛЬНИК БЛЕСТЯЩИЙ
100
AcDbPoint
 10
2.0
 20
30.050000000000008
 30
0.0
  0
POINT
  5
100
330
17
100
AcDbEntity
  8
КИЗИЛЬНИК БЛЕСТЯЩИЙ
100
AcDbPoint
 10
2.0
 20
31.150000000000013
 30
0.0
  0
POINT
  5
101
330
17
100
AcDbEntity
  8
КИЗИЛЬНИК БЛЕСТЯЩИЙ
100
AcDbPoint
 10
2.0
 20
32.250000000000014
 30
0.0
  0
POINT
  5
102
330
17
100
AcDbEntity
  8
КИЗИЛЬНИК БЛЕСТЯЩИЙ
100
AcDbPoint
 10
2.0
 20
33.350000000000016
 30
0.0
  0
POINT
  5
103
330
17
100
AcDbEntity
  8
КИЗИЛЬНИК БЛЕСТЯЩИЙ
100
AcDbPoint
 10
2.0
 20
34.45000000000002
 30
0.0
  0
POINT
  5
104
330
17
100
AcDbEntity
  8
КИЗИЛЬНИК БЛЕСТЯЩИЙ
100
AcDbPoint
 10
2.0
 20
35.55000000000002
 30
0.0
  0
POINT
  5
105
330
17
100
AcDbEntity
  8
КИЗИЛЬНИК БЛЕСТЯЩИЙ
100
AcDbPoint
 10
2.0
 20
36.65000000000002
 30
0.0
  0
POINT
  5
106
330
17
100
AcDbEntity
  8
КИЗИЛЬНИК БЛЕСТЯЩИЙ
100
AcDbPoint
 10
2.0
 20
37.75000000000002
 30
0.0
  0
POINT
  5
107
330
17
100
AcDbEntity
  8
КИЗИЛЬНИК БЛЕСТЯЩИЙ
100
AcDbPoint
 10
2.0
 20
38.85000000000002
 30
0.0
  0
POINT
  5
108
330
17
100
AcDbEntity
  8
КИЗИЛЬНИК БЛЕСТЯЩИЙ
100
AcDbPoint
 10
2.0
 20
39.950000000000024
 30
0.0
  0
POINT
  5
109
330
17
100
AcDbEntity
  8
КИЗИЛЬНИК БЛЕСТЯЩИЙ
100
AcDbPoint
 10
2.0
 20
41.050000000000026
 30
0.0
  0
POINT
  5
10A
330
17
100
AcDbEntity
  8
КИЗИЛЬНИК БЛЕСТЯЩИЙ
100
AcDbPoint
 10
2.0
 20
42.15000000000003
 30
0.0
  0
POINT
  5
10B
330
17
100
AcDbEntity
  8
КИЗИЛЬНИК БЛЕСТЯЩИЙ
100
AcDbPoint
 10
2.0
 20
43.25000000000003
 30
0.0
  0
POINT
  5
10C
330
17
100
AcDbEntity
  8
КИЗИЛЬНИК БЛЕСТЯЩИЙ
100
AcDbPoint
 10
2.0
 20
44.35000000000003
 30
0.0
  0
POINT
  5
10D
330
17
100
AcDbEntity
  8
КИЗИЛЬНИК БЛЕСТЯЩИЙ
100
AcDbPoint
 10
2.0
 20
45.45000000000003
 30
0.0
  0
POINT
  5
10E
330
17
100
AcDbEntity
  8
КИЗИЛЬНИК БЛЕСТЯЩИЙ
100
AcDbPoint
 10
2.0
 20
46.55000000000003
 30
0.0
  0
POINT
  5
10F
330
17
100
AcDbEntity
  8
КИЗИЛЬНИК БЛЕСТЯЩИЙ
100
AcDbPoint
 10
2.0
 20
47.650000000000034
 30
0.0
  0
POINT
  5
110
330
17
100
AcDbEntity
  8
КИЗИЛЬНИК БЛЕСТЯЩИЙ
100
AcDbPoint
 10
2.0
 20
48.75000000000004
 30
0.0
  0
POINT
  5
111
330
17
100
AcDbEntity
  8
КИЗИЛЬНИК БЛЕСТЯЩИЙ
100
AcDbPoint
 10
2.0
 20
49.85000000000004
 30
0.0
  0
POINT
  5
112
330
17
100
AcDbEntity
  8
КИЗИЛЬНИК БЛЕСТЯЩИЙ
100
AcDbPoint
 10
2.0
 20
50.95000000000004
 30
0.0
  0
POINT
  5
113
330
17
100
AcDbEntity
  8
КИЗИЛЬНИК БЛЕСТЯЩИЙ
100
AcDbPoint
 10
2.0
 20
52.05000000000003
 30
0.0
  0
POINT
  5
114
330
17
100
AcDbEntity
  8
КИЗИЛЬНИК БЛЕСТЯЩИЙ
100
AcDbPoint
 10
2.0
 20
53.15000000000004
 30
0.0
  0
POINT
  5
115
330
17
100
AcDbEntity
  8
КИЗИЛЬНИК БЛЕСТЯЩИЙ
100
AcDbPoint
 10
2.0
 20
54.25000000000004
 30
0.0
  0
POINT
  5
116
330
17
100
AcDbEntity
  8
КИЗИЛЬНИК БЛЕСТЯЩИЙ
100
AcDbPoint
 10
2.0
 20
55.350000000000044
 30
0.0
  0
POINT
  5
117
330
17
100
AcDbEntity
  8
КИЗИЛЬНИК БЛЕСТЯЩИЙ
100
AcDbPoint
 10
2.0
 20
56.45000000000004
 30
0.0
  0
POINT
  5
118
330
17
100
AcDbEntity
  8
КИЗИЛЬНИК БЛЕСТЯЩИЙ
100
AcDbPoint
 10
2.0
 20
57.55000000000005
 30
0.0
  0
POINT
  5
119
330
17
100
AcDbEntity
  8
КИЗИЛЬНИК БЛЕСТЯЩИЙ
100
AcDbPoint
 10
2.0
 20
58.65000000000005
 30
0.0
  0
POINT
  5
11A
330
17
100
AcDbEntity
  8
КИЗИЛЬНИК БЛЕСТЯЩИЙ
100
AcDbPoint
 10
2.0
 20
59.75000000000005
 30
0.0
  0
POINT
  5
11B
330
17
100
AcDbEntity
  8
КИЗИЛЬНИК БЛЕСТЯЩИЙ
100
AcDbPoint
 10
2.0
 20
60.85000000000006
 30
0.0
  0
POINT
  5
11C
330
17
100
AcDbEntity
  8
КИЗИЛЬНИК БЛЕСТЯЩИЙ
100
AcDbPoint
 10
2.0
 20
61.95000000000005
 30
0.0
  0
POINT
  5
11D
330
17
100
AcDbEntity
  8
КИЗИЛЬНИК БЛЕСТЯЩИЙ
100
AcDbPoint
 10
2.0
 20
63.050000000000054
 30
0.0
  0
POINT
  5
11E
330
17
100
AcDbEntity
  8
КИЗИЛЬНИК БЛЕСТЯЩИЙ
100
AcDbPoint
 10
2.0
 20
64.15000000000006
 30
0.0
  0
POINT
  5
11F
330
17
100
AcDbEntity
  8
КИЗИЛЬНИК БЛЕСТЯЩИЙ
100
AcDbPoint
 10
2.0
 20
65.25000000000006
 30
0.0
  0
POINT
  5
120
330
17
100
AcDbEntity
  8
КИЗИЛЬНИК БЛЕСТЯЩИЙ
100
AcDbPoint
 10
2.0
 20
66.35000000000005
 30
0.0
  0
POINT
  5
121
330
17
100
AcDbEntity
  8
КИЗИЛЬНИК БЛЕСТЯЩИЙ
100
AcDbPoint
 10
2.0
 20
67.45000000000005
 30
0.0
  0
POINT
  5
122
330
17
100
AcDbEntity
  8
КИЗИЛЬНИК БЛЕСТЯЩИЙ
100
AcDbPoint
 10
2.0
 20
68.55000000000004
 30
0.0
  0
POINT
  5
123
330
17
100
AcDbEntity
  8
КИЗИЛЬНИК БЛЕСТЯЩИЙ
100
AcDbPoint
 10
2.0
 20
69.65000000000003
 30
0.0
  0
POINT
  5
124
330
17
100
AcDbEntity
  8
КИЗИЛЬНИК БЛЕСТЯЩИЙ
100
AcDbPoint
 10
2.0
 20
70.75000000000003
 30
0.0
  0
POINT
  5
125
330
17
100
AcDbEntity
  8
КИЗИЛЬНИК БЛЕСТЯЩИЙ
100
AcDbPoint
 10
2.0
 20
71.85000000000002
 30
0.0
  0
POINT
  5
126
330
17
100
AcDbEntity
  8
КИЗИЛЬНИК БЛЕСТЯЩИЙ
100
AcDbPoint
 10
2.0
 20
72.95000000000002
 30
0.0
  0
POINT
  5
127
330
17
100
AcDbEntity
  8
КИЗИЛЬНИК БЛЕСТЯЩИЙ
100
AcDbPoint
 10
2.0
 20
74.05000000000001
 30
0.0
  0
POINT
  5
128
330
17
100
AcDbEntity
  8
КИЗИЛЬНИК БЛЕСТЯЩИЙ
100
AcDbPoint
 10
2.0
 20
75.15
 30
0.0
  0
POINT
  5
129
330
17
100
AcDbEntity
  8
КИЗИЛЬНИК БЛЕСТЯЩИЙ
100
AcDbPoint
 10
2.0
 20
76.25
 30
0.0
  0
POINT
  5
12A
330
17
100
AcDbEntity
  8
КИЗИЛЬНИК БЛЕСТЯЩИЙ
100
AcDbPoint
 10
2.0
 20
77.35
 30
0.0
  0
POINT
  5
12B
330
17
100
AcDbEntity
  8
КИЗИЛЬНИК БЛЕСТЯЩИЙ
100
AcDbPoint
 10
2.0
 20
78.44999999999999
 30
0.0
  0
POINT
  5
12C
330
17
100
AcDbEntity
  8
КИЗИЛЬНИК БЛЕСТЯЩИЙ
100
AcDbPoint
 10
2.0
 20
79.54999999999998
 30
0.0
  0
POINT
  5
12D
330
17
100
AcDbEntity
  8
КИЗИЛЬНИК БЛЕСТЯЩИЙ
100
AcDbPoint
 10
2.0
 20
80.64999999999998
 30
0.0
  0
POINT
  5
12E
330
17
100
AcDbEntity
  8
КИЗИЛЬНИК БЛЕСТЯЩИЙ
100
AcDbPoint
 10
2.0
 20
81.74999999999997
 30
0.0
  0
POINT
  5
12F
330
17
100
AcDbEntity
  8
КИЗИЛЬНИК БЛЕСТЯЩИЙ
100
AcDbPoint
 10
2.0
 20
82.84999999999997
 30
0.0
  0
POINT
  5
130
330
17
100
AcDbEntity
  8
КИЗИЛЬНИК БЛЕСТЯЩИЙ
100
AcDbPoint
 10
2.0
 20
83.94999999999996
 30
0.0
  0
POINT
  5
131
330
17
100
AcDbEntity
  8
КИЗИЛЬНИК БЛЕСТЯЩИЙ
100
AcDbPoint
 10
2.0
 20
85.04999999999995
 30
0.0
  0
POINT
  5
132
330
17
100
AcDbEntity
  8
КИЗИЛЬНИК БЛЕСТЯЩИЙ
100
AcDbPoint
 10
2.0
 20
86.14999999999995
 30
0.0
  0
POINT
  5
133
330
17
100
AcDbEntity
  8
КИЗИЛЬНИК БЛЕСТЯЩИЙ
100
AcDbPoint
 10
2.0
 20
87.24999999999994
 30
0.0
  0
POINT
  5
134
330
17
100
AcDbEntity
  8
КИЗИЛЬНИК БЛЕСТЯЩИЙ
100
AcDbPoint
 10
2.0
 20
88.34999999999994
 30
0.0
  0
POINT
  5
135
330
17
100
AcDbEntity
  8
КИЗИЛЬНИК БЛЕСТЯЩИЙ
100
AcDbPoint
 10
2.0
 20
89.44999999999993
 30
0.0
  0
POINT
  5
136
330
17
100
AcDbEntity
  8
КИЗИЛЬНИК БЛЕСТЯЩИЙ
100
AcDbPoint
 10
2.0
 20
90.54999999999993
 30
0.0
  0
POINT
  5
137
330
17
100
AcDbEntity
  8
КИЗИЛЬНИК БЛЕСТЯЩИЙ
100
AcDbPoint
 10
2.0
 20
91.64999999999992
 30
0.0
  0
POINT
  5
138
330
17
100
AcDbEntity
  8
КИЗИЛЬНИК БЛЕСТЯЩИЙ
100
AcDbPoint
 10
2.0
 20
92.74999999999991
 30
0.0
  0
POINT
  5
139
330
17
100
AcDbEntity
  8
КИЗИЛЬНИК БЛЕСТЯЩИЙ
100
AcDbPoint
 10
2.0
 20
93.84999999999991
 30
0.0
  0
POINT
  5
13A
330
17
100
AcDbEntity
  8
КИЗИЛЬНИК БЛЕСТЯЩИЙ
100
AcDbPoint
 10
94.0
 20
2.55
 30
0.0
  0
POINT
  5
13B
330
17
100
AcDbEntity
  8
КИЗИЛЬНИК БЛЕСТЯЩИЙ
100
AcDbPoint
 10
94.0
 20
3.6500000000000004
 30
0.0
  0
POINT
  5
13C
330
17
100
AcDbEntity
  8
КИЗИЛЬНИК БЛЕСТЯЩИЙ
100
AcDbPoint
 10
94.0
 20
4.75
 30
0.0
  0
POINT
  5
13D
330
17
100
AcDbEntity
  8
КИЗИЛЬНИК БЛЕСТЯЩИЙ
100
AcDbPoint
 10
94.0
 20
5.85
 30
0.0
  0
POINT
  5
13E
330
17
100
AcDbEntity
  8
КИЗИЛЬНИК БЛЕСТЯЩИЙ
100
AcDbPoint
 10
94.0
 20
6.95
 30
0.0
  0
POINT
  5
13F
330
17
100
AcDbEntity
  8
КИЗИЛЬНИК БЛЕСТЯЩИЙ
100
AcDbPoint
 10
94.0
 20
8.05
 30
0.0
  0
POINT
  5
140
330
17
100
AcDbEntity
  8
КИЗИЛЬНИК БЛЕСТЯЩИЙ
100
AcDbPoint
 10
94.0
 20
9.150000000000002
 30
0.0
  0
POINT
  5
141
330
17
100
AcDbEntity
  8
КИЗИЛЬНИК БЛЕСТЯЩИЙ
100
AcDbPoint
 10
94.0
 20
10.25
 30
0.0
  0
POINT
  5
142
330
17
100
AcDbEntity
  8
КИЗИЛЬНИК БЛЕСТЯЩИЙ
100
AcDbPoint
 10
94.0
 20
11.35
 30
0.0
  0
POINT
  5
143
330
17
100
AcDbEntity
  8
КИЗИЛЬНИК БЛЕСТЯЩИЙ
100
AcDbPoint
 10
94.0
 20
12.45
 30
0.0
  0
POINT
  5
144
330
17
100
AcDbEntity
  8
КИЗИЛЬНИК БЛЕСТЯЩИЙ
100
AcDbPoint
 10
94.0
 20
13.549999999999999
 30
0.0
  0
POINT
  5
145
330
17
100
AcDbEntity
  8
КИЗИЛЬНИК БЛЕСТЯЩИЙ
100
AcDbPoint
 10
94.0
 20
14.649999999999999
 30
0.0
  0
POINT
  5
146
330
17
100
AcDbEntity
  8
КИЗИЛЬНИК БЛЕСТЯЩИЙ
100
AcDbPoint
 10
94.0
 20
15.749999999999996
 30
0.0
  0
POINT
  5
147
330
17
100
AcDbEntity
  8
КИЗИЛЬНИК БЛЕСТЯЩИЙ
100
AcDbPoint
 10
94.0
 20
16.849999999999998
 30
0.0
  0
POINT
  5
148
330
17
100
AcDbEntity
  8
КИЗИЛЬНИК БЛЕСТЯЩИЙ
100
AcDbPoint
 10
94.0
 20
17.949999999999996
 30
0.0
  0
POINT
  5
149
330
17
100
AcDbEntity
  8
КИЗИЛЬНИК БЛЕСТЯЩИЙ
100
AcDbPoint
 10
94.0
 20
19.049999999999997
 30
0.0
  0
POINT
  5
14A
330
17
100
AcDbEntity
  8
КИЗИЛЬНИК БЛЕСТЯЩИЙ
100
AcDbPoint
 10
94.0
 20
20.15
 30
0.0
  0
POINT
  5
14B
330
17
100
AcDbEntity
  8
КИЗИЛЬНИК БЛЕСТЯЩИЙ
100
AcDbPoint
 10
94.0
 20
21.25
 30
0.0
  0
POINT
  5
14C
330
17
100
AcDbEntity
  8
КИЗИЛЬНИК БЛЕСТЯЩИЙ
100
AcDbPoint
 10
94.0
 20
22.35
 30
0.0
  0
POINT
  5
14D
330
17
100
AcDbEntity
  8
КИЗИЛЬНИК БЛЕСТЯЩИЙ
100
AcDbPoint
 10
94.0
 20
23.450000000000003
 30
0.0
  0
POINT
  5
14E
330
17
100
AcDbEntity
  8
КИЗИЛЬНИК БЛЕСТЯЩИЙ
100
AcDbPoint
 10
94.0
 20
24.550000000000004
 30
0.0
  0
POINT
  5
14F
330
17
100
AcDbEntity
  8
КИЗИЛЬНИК БЛЕСТЯЩИЙ
100
AcDbPoint
 10
94.0
 20
25.650000000000006
 30
0.0
  0
POINT
  5
150
330
17
100
AcDbEntity
  8
КИЗИЛЬНИК БЛЕСТЯЩИЙ
100
AcDbPoint
 10
94.0
 20
26.750000000000007
 30
0.0
  0
POINT
  5
151
330
17
100
AcDbEntity
  8
КИЗИЛЬНИК БЛЕСТЯЩИЙ
100
AcDbPoint
 10
94.0
 20
27.850000000000005
 30
0.0
  0
POINT
  5
152
330
17
100
AcDbEntity
  8
КИЗИЛЬНИК БЛЕСТЯЩИЙ
100
AcDbPoint
 10
94.0
 20
28.95000000000001
 30
0.0
  0
POINT
  5
153
330
17
100
AcDbEntity
  8
КИЗИЛЬНИК БЛЕСТЯЩИЙ
100
AcDbPoint
 10
94.0
 20
30.050000000000008
 30
0.0
  0
POINT
  5
154
330
17
100
AcDbEntity
  8
КИЗИЛЬНИК БЛЕСТЯЩИЙ
100
AcDbPoint
 10
94.0
 20
31.150000000000013
 30
0.0
  0
POINT
  5
155
330
17
100
AcDbEntity
  8
КИЗИЛЬНИК БЛЕСТЯЩИЙ
100
AcDbPoint
 10
94.0
 20
32.250000000000014
 30
0.0
  0
POINT
  5
156
330
17
100
AcDbEntity
  8
КИЗИЛЬНИК БЛЕСТЯЩИЙ
100
AcDbPoint
 10
94.0
 20
33.350000000000016
 30
0.0
  0
POINT
  5
157
330
17
100
AcDbEntity
  8
КИЗИЛЬНИК БЛЕСТЯЩИЙ
100
AcDbPoint
 10
94.0
 20
34.45000000000002
 30
0.0
  0
POINT
  5
158
330
17
100
AcDbEntity
  8
КИЗИЛЬНИК БЛЕСТЯЩИЙ
100
AcDbPoint
 10
94.0
 20
35.55000000000002
 30
0.0
  0
POINT
  5
159
330
17
100
AcDbEntity
  8
КИЗИЛЬНИК БЛЕСТЯЩИЙ
100
AcDbPoint
 10
94.0
 20
36.65000000000002
 30
0.0
  0
POINT
  5
15A
330
17
100
AcDbEntity
  8
КИЗИЛЬНИК БЛЕСТЯЩИЙ
100
AcDbPoint
 10
94.0
 20
37.75000000000002
 30
0.0
  0
POINT
  5
15B
330
17
100
AcDbEntity
  8
КИЗИЛЬНИК БЛЕСТЯЩИЙ
100
AcDbPoint
 10
94.0
 20
38.85000000000002
 30
0.0
  0
POINT
  5
15C
330
17
100
AcDbEntity
  8
КИЗИЛЬНИК БЛЕСТЯЩИЙ
100
AcDbPoint
 10
94.0
 20
39.950000000000024
 30
0.0
  0
POINT
  5
15D
330
17
100
AcDbEntity
  8
КИЗИЛЬНИК БЛЕСТЯЩИЙ
100
AcDbPoint
 10
94.0
 20
41.050000000000026
 30
0.0
  0
POINT
  5
15E
330
17
100
AcDbEntity
  8
КИЗИЛЬНИК БЛЕСТЯЩИЙ
100
AcDbPoint
 10
94.0
 20
42.15000000000003
 30
0.0
  0
POINT
  5
15F
330
17
100
AcDbEntity
  8
КИЗИЛЬНИК БЛЕСТЯЩИЙ
100
AcDbPoint
 10
94.0
 20
43.25000000000003
 30
0.0
  0
POINT
  5
160
330
17
100
AcDbEntity
  8
КИЗИЛЬНИК БЛЕСТЯЩИЙ
100
AcDbPoint
 10
94.0
 20
44.35000000000003
 30
0.0
  0
POINT
  5
161
330
17
100
AcDbEntity
  8
КИЗИЛЬНИК БЛЕСТЯЩИЙ
100
AcDbPoint
 10
94.0
 20
45.45000000000003
 30
0.0
  0
POINT
  5
162
330
17
100
AcDbEntity
  8
КИЗИЛЬНИК БЛЕСТЯЩИЙ
100
AcDbPoint
 10
94.0
 20
46.55000000000003
 30
0.0
  0
POINT
  5
163
330
17
100
AcDbEntity
  8
КИЗИЛЬНИК БЛЕСТЯЩИЙ
100
AcDbPoint
 10
94.0
 20
47.650000000000034
 30
0.0
  0
POINT
  5
164
330
17
100
AcDbEntity
  8
КИЗИЛЬНИК БЛЕСТЯЩИЙ
100
AcDbPoint
 10
94.0
 20
48.75000000000004
 30
0.0
  0
POINT
  5
165
330
17
100
AcDbEntity
  8
КИЗИЛЬНИК БЛЕСТЯЩИЙ
100
AcDbPoint
 10
94.0
 20
49.85000000000004
 30
0.0
  0
POINT
  5
166
330
17
100
AcDbEntity
  8
КИЗИЛЬНИК БЛЕСТЯЩИЙ
100
AcDbPoint
 10
94.0
 20
50.95000000000004
 30
0.0
  0
POINT
  5
167
330
17
100
AcDbEntity
  8
КИЗИЛЬНИК БЛЕСТЯЩИЙ
100
AcDbPoint
 10
94.0
 20
52.05000000000003
 30
0.0
  0
POINT
  5
168
330
17
100
AcDbEntity
  8
КИЗИЛЬНИК БЛЕСТЯЩИЙ
100
AcDbPoint
 10
94.0
 20
53.15000000000004
 30
0.0
  0
POINT
  5
169
330
17
100
AcDbEntity
  8
КИЗИЛЬНИК БЛЕСТЯЩИЙ
100
AcDbPoint
 10
94.0
 20
54.25000000000004
 30
0.0
  0
POINT
  5
16A
330
17
100
AcDbEntity
  8
КИЗИЛЬНИК БЛЕСТЯЩИЙ
100
AcDbPoint
 10
94.0
 20
55.350000000000044
 30
0.0
  0
POINT
  5
16B
330
17
100
AcDbEntity
  8
КИЗИЛЬНИК БЛЕСТЯЩИЙ
100
AcDbPoint
 10
94.0
 20
56.45000000000004
 30
0.0
  0
POINT
  5
16C
330
17
100
AcDbEntity
  8
КИЗИЛЬНИК БЛЕСТЯЩИЙ
100
AcDbPoint
 10
94.0
 20
57.55000000000005
 30
0.0
  0
POINT
  5
16D
330
17
100
AcDbEntity
  8
КИЗИЛЬНИК БЛЕСТЯЩИЙ
100
AcDbPoint
 10
94.0
 20
58.65000000000005
 30
0.0
  0
POINT
  5
16E
330
17
100
AcDbEntity
  8
КИЗИЛЬНИК БЛЕСТЯЩИЙ
100
AcDbPoint
 10
94.0
 20
59.75000000000005
 30
0.0
  0
POINT
  5
16F
330
17
100
AcDbEntity
  8
КИЗИЛЬНИК БЛЕСТЯЩИЙ
100
AcDbPoint
 10
94.0
 20
60.85000000000006
 30
0.0
  0
POINT
  5
170
330
17
100
AcDbEntity
  8
КИЗИЛЬНИК БЛЕСТЯЩИЙ
100
AcDbPoint
 10
94.0
 20
61.95000000000005
 30
0.0
  0
POINT
  5
171
330
17
100
AcDbEntity
  8
КИЗИЛЬНИК БЛЕСТЯЩИЙ
100
AcDbPoint
 10
94.0
 20
63.050000000000054
 30
0.0
  0
POINT
  5
172
330
17
100
AcDbEntity
  8
КИЗИЛЬНИК БЛЕСТЯЩИЙ
100
AcDbPoint
 10
94.0
 20
64.15000000000006
 30
0.0
  0
POINT
  5
173
330
17
100
AcDbEntity
  8
КИЗИЛЬНИК БЛЕСТЯЩИЙ
100
AcDbPoint
 10
94.0
 20
65.25000000000006
 30
0.0
  0
POINT
  5
174
330
17
100
AcDbEntity
  8
КИЗИЛЬНИК БЛЕСТЯЩИЙ
100
AcDbPoint
 10
94.0
 20
66.35000000000005
 30
0.0
  0
POINT
  5
175
330
17
100
AcDbEntity
  8
КИЗИЛЬНИК БЛЕСТЯЩИЙ
100
AcDbPoint
 10
94.0
 20
67.45000000000005
 30
0.0
  0
POINT
  5
176
330
17
100
AcDbEntity
  8
КИЗИЛЬНИК БЛЕСТЯЩИЙ
100
AcDbPoint
 10
94.0
 20
68.55000000000004
 30
0.0
  0
POINT
  5
177
330
17
100
AcDbEntity
  8
КИЗИЛЬНИК БЛЕСТЯЩИЙ
100
AcDbPoint
 10
94.0
 20
69.65000000000003
 30
0.0
  0
POINT
  5
178
330
17
100
AcDbEntity
  8
КИЗИЛЬНИК БЛЕСТЯЩИЙ
100
AcDbPoint
 10
94.0
 20
70.75000000000003
 30
0.0
  0
POINT
  5
179
330
17
100
AcDbEntity
  8
КИЗИЛЬНИК БЛЕСТЯЩИЙ
100
AcDbPoint
 10
94.0
 20
71.85000000000002
 30
0.0
  0
POINT
  5
17A
330
17
100
AcDbEntity
  8
КИЗИЛЬНИК БЛЕСТЯЩИЙ
100
AcDbPoint
 10
94.0
 20
72.95000000000002
 30
0.0
  0
POINT
  5
17B
330
17
100
AcDbEntity
  8
КИЗИЛЬНИК БЛЕСТЯЩИЙ
100
AcDbPoint
 10
94.0
 20
74.05000000000001
 30
0.0
  0
POINT
  5
17C
330
17
100
AcDbEntity
  8
КИЗИЛЬНИК БЛЕСТЯЩИЙ
100
AcDbPoint
 10
94.0
 20
75.15
 30
0.0
  0
POINT
  5
17D
330
17
100
AcDbEntity
  8
КИЗИЛЬНИК БЛЕСТЯЩИЙ
100
AcDbPoint
 10
94.0
 20
76.25
 30
0.0
  0
POINT
  5
17E
330
17
100
AcDbEntity
  8
КИЗИЛЬНИК БЛЕСТЯЩИЙ
100
AcDbPoint
 10
94.0
 20
77.35
 30
0.0
  0
POINT
  5
17F
330
17
100
AcDbEntity
  8
КИЗИЛЬНИК БЛЕСТЯЩИЙ
100
AcDbPoint
 10
94.0
 20
78.44999999999999
 30
0.0
  0
POINT
  5
180
330
17
100
AcDbEntity
  8
КИЗИЛЬНИК БЛЕСТЯЩИЙ
100
AcDbPoint
 10
94.0
 20
79.54999999999998
 30
0.0
  0
POINT
  5
181
330
17
100
AcDbEntity
  8
КИЗИЛЬНИК БЛЕСТЯЩИЙ
100
AcDbPoint
 10
94.0
 20
80.64999999999998
 30
0.0
  0
POINT
  5
182
330
17
100
AcDbEntity
  8
КИЗИЛЬНИК БЛЕСТЯЩИЙ
100
AcDbPoint
 10
94.0
 20
81.74999999999997
 30
0.0
  0
POINT
  5
183
330
17
100
AcDbEntity
  8
КИЗИЛЬНИК БЛЕСТЯЩИЙ
100
AcDbPoint
 10
94.0
 20
82.84999999999997
 30
0.0
  0
POINT
  5
184
330
17
100
AcDbEntity
  8
КИЗИЛЬНИК БЛЕСТЯЩИЙ
100
AcDbPoint
 10
94.0
 20
83.94999999999996
 30
0.0
  0
POINT
  5
185
330
17
100
AcDbEntity
  8
КИЗИЛЬНИК БЛЕСТЯЩИЙ
100
AcDbPoint
 10
94.0
 20
85.04999999999995
 30
0.0
  0
POINT
  5
186
330
17
100
AcDbEntity
  8
КИЗИЛЬНИК БЛЕСТЯЩИЙ
100
AcDbPoint
 10
94.0
 20
86.14999999999995
 30
0.0
  0
POINT
  5
187
330
17
100
AcDbEntity
  8
КИЗИЛЬНИК БЛЕСТЯЩИЙ
100
AcDbPoint
 10
94.0
 20
87.24999999999994
 30
0.0
  0
POINT
  5
188
330
17
100
AcDbEntity
  8
КИЗИЛЬНИК БЛЕСТЯЩИЙ
100
AcDbPoint
 10
94.0
 20
88.34999999999994
 30
0.0
  0
POINT
  5
189
330
17
100
AcDbEntity
  8
КИЗИЛЬНИК БЛЕСТЯЩИЙ
100
AcDbPoint
 10
94.0
 20
89.44999999999993
 30
0.0
  0
POINT
  5
18A
330
17
100
AcDbEntity
  8
КИЗИЛЬНИК БЛЕСТЯЩИЙ
100
AcDbPoint
 10
94.0
 20
90.54999999999993
 30
0.0
  0
POINT
  5
18B
330
17
100
AcDbEntity
  8
КИЗИЛЬНИК БЛЕСТЯЩИЙ
100
AcDbPoint
 10
94.0
 20
91.64999999999992
 30
0.0
  0
POINT
  5
18C
330
17
100
AcDbEntity
  8
КИЗИЛЬНИК БЛЕСТЯЩИЙ
100
AcDbPoint
 10
94.0
 20
92.74999999999991
 30
0.0
  0
POINT
  5
18D
330
17
100
AcDbEntity
  8
КИЗИЛЬНИК БЛЕСТЯЩИЙ
100
AcDbPoint
 10
94.0
 20
93.84999999999991
 30
0.0
  0
POINT
  5
18F
330
17
100
AcDbEntity
  8
ENTRANCE
100
AcDbPoint
 10
26.0
 20
59.0
 30
0.0
  0
POINT
  5
190
330
17
100
AcDbEntity
  8
ENTRANCE
100
AcDbPoint
 10
26.0
 20
77.0
 30
0.0
  0
POINT
  5
191
330
17
100
AcDbEntity
  8
ENTRANCE
100
AcDbPoint
 10
70.0
 20
59.0
 30
0.0
  0
POINT
  5
192
330
17
100
AcDbEntity
  8
ENTRANCE
100
AcDbPoint
 10
70.0
 20
77.0
 30
0.0
  0
POINT
  5
193
330
17
100
AcDbEntity
  8
ENTRANCE
100
AcDbPoint
 10
41.0
 20
84.0
 30
0.0
  0
POINT
  5
194
330
17
100
AcDbEntity
  8
ENTRANCE
100
AcDbPoint
 10
55.0
 20
84.0
 30
0.0
  0
POINT
  5
196
330
17
100
AcDbEntity
  8
LAMPS
100
AcDbPoint
 10
39.2
 20
10.0
 30
0.0
  0
POINT
  5
197
330
17
100
AcDbEntity
  8
LAMPS
100
AcDbPoint
 10
56.8
 20
10.0
 30
0.0
  0
POINT
  5
198
330
17
100
AcDbEntity
  8
LAMPS
100
AcDbPoint
 10
39.2
 20
26.0
 30
0.0
  0
POINT
  5
199
330
17
100
AcDbEntity
  8
LAMPS
100
AcDbPoint
 10
56.8
 20
26.0
 30
0.0
  0
POINT
  5
19A
330
17
100
AcDbEntity
  8
LAMPS
100
AcDbPoint
 10
39.2
 20
42.0
 30
0.0
  0
POINT
  5
19B
330
17
100
AcDbEntity
  8
LAMPS
100
AcDbPoint
 10
56.8
 20
42.0
 30
0.0
  0
POINT
  5
19C
330
17
100
AcDbEntity
  8
LAMPS
100
AcDbPoint
 10
48.0
 20
79.0
 30
0.0
  0
INSERT
  5
1A2
330
17
100
AcDbEntity
  8
BENCH
100
AcDbBlockReference
  2
BENCH_BLOCK
 10
33.0
 20
64.0
 30
0.0
 50
90.0
  0
POINT
  5
1A5
330
17
100
AcDbEntity
  8
URN
100
AcDbPoint
 10
33.0
 20
65.3
 30
0.0
  0
INSERT
  5
1A6
330
17
100
AcDbEntity
  8
BENCH
100
AcDbBlockReference
  2
BENCH_BLOCK
 10
63.0
 20
64.0
 30
0.0
 50
270.0
  0
POINT
  5
1A8
330
17
100
AcDbEntity
  8
URN
100
AcDbPoint
 10
63.0
 20
65.3
 30
0.0
  0
ENDSEC
  0
SECTION
  2
OBJECTS
  0
DICTIONARY
  5
A
330
0
100
AcDbDictionary
281
1
  3
ACAD_COLOR
350
B
  3
ACAD_GROUP
350
C
  3
ACAD_LAYOUT
350
D
  3
ACAD_MATERIAL
350
E
  3
ACAD_MLEADERSTYLE
350
F
  3
ACAD_MLINESTYLE
350
10
  3
ACAD_PLOTSETTINGS
350
11
  3
ACAD_PLOTSTYLENAME
350
12
  3
ACAD_SCALELIST
350
14
  3
ACAD_TABLESTYLE
350
15
  3
ACAD_VISUALSTYLE
350
16
  3
EZDXF_META
350
2D
  0
DICTIONARY
  5
B
330
A
100
AcDbDictionary
281
1
  0
DICTIONARY
  5
C
330
A
100
AcDbDictionary
281
1
  0
DICTIONARY
  5
D
330
A
100
AcDbDictionary
281
1
  3
Model
350
1A
  3
Layout1
350
1E
  0
DICTIONARY
  5
E
330
A
100
AcDbDictionary
281
1
  3
ByBlock
350
1F
  3
ByLayer
350
20
  3
Global
350
21
  0
DICTIONARY
  5
F
330
A
100
AcDbDictionary
281
1
  3
Standard
350
2C
  0
DICTIONARY
  5
10
330
A
100
AcDbDictionary
281
1
  3
Standard
350
22
  0
DICTIONARY
  5
11
330
A
100
AcDbDictionary
281
1
  0
ACDBDICTIONARYWDFLT
  5
12
330
A
100
AcDbDictionary
281
1
  3
Normal
350
13
100
AcDbDictionaryWithDefault
340
13
  0
ACDBPLACEHOLDER
  5
13
330
12
  0
DICTIONARY
  5
14
330
A
100
AcDbDictionary
281
1
  0
DICTIONARY
  5
15
330
A
100
AcDbDictionary
281
1
  0
DICTIONARY
  5
16
330
A
100
AcDbDictionary
281
1
  0
LAYOUT
  5
1A
330
D
100
AcDbPlotSettings
  1

  4
A3
  6

 40
7.5
 41
20.0
 42
7.5
 43
20.0
 44
420.0
 45
297.0
 46
0.0
 47
0.0
 48
0.0
 49
0.0
140
0.0
141
0.0
142
1.0
143
1.0
 70
1024
 72
1
 73
0
 74
5
  7

 75
16
 76
0
 77
2
 78
300
147
1.0
148
0.0
149
0.0
100
AcDbLayout
  1
Model
 70
1
 71
0
 10
0.0
 20
0.0
 11
420.0
 21
297.0
 12
0.0
 22
0.0
 32
0.0
 14
1e+20
 24
1e+20
 34
1e+20
 15
-1e+20
 25
-1e+20
 35
-1e+20
146
0.0
 13
0.0
 23
0.0
 33
0.0
 16
1.0
 26
0.0
 36
0.0
 17
0.0
 27
1.0
 37
0.0
 76
1
330
17
  0
LAYOUT
  5
1E
330
D
100
AcDbPlotSettings
  1

  4
A3
  6

 40
7.5
 41
20.0
 42
7.5
 43
20.0
 44
420.0
 45
297.0
 46
0.0
 47
0.0
 48
0.0
 49
0.0
140
0.0
141
0.0
142
1.0
143
1.0
 70
0
 72
1
 73
0
 74
5
  7

 75
16
 76
0
 77
2
 78
300
147
1.0
148
0.0
149
0.0
100
AcDbLayout
  1
Layout1
 70
1
 71
1
 10
0.0
 20
0.0
 11
420.0
 21
297.0
 12
0.0
 22
0.0
 32
0.0
 14
1e+20
 24
1e+20
 34
1e+20
 15
-1e+20
 25
-1e+20
 35
-1e+20
146
0.0
 13
0.0
 23
0.0
 33
0.0
 16
1.0
 26
0.0
 36
0.0
 17
0.0
 27
1.0
 37
0.0
 76
1
330
1B
  0
MATERIAL
  5
1F
102
{ACAD_REACTORS
330
E
102
}
330
E
100
AcDbMaterial
  1
ByBlock
  2

 70
0
 40
1.0
 71
1
 41
1.0
 91
-1023410177
 42
1.0
 72
1
  3

 73
1
 74
1
 75
1
 44
0.5
 73
0
 45
1.0
 46
1.0
 77
1
  4

 78
1
 79
1
170
1
 48
1.0
171
1
  6

172
1
173
1
174
1
140
1.0
141
1.0
175
1
  7

176
1
177
1
178
1
143
1.0
179
1
  8

270
1
271
1
272
1
145
1.0
146
1.0
273
1
  9

274
1
275
1
276
1
 42
1.0
 72
1
  3

 73
1
 74
1
 75
1
 94
63
  0
MATERIAL
  5
20
102
{ACAD_REACTORS
330
E
102
}
330
E
100
AcDbMaterial
  1
ByLayer
  2

 70
0
 40
1.0
 71
1
 41
1.0
 91
-1023410177
 42
1.0
 72
1
  3

 73
1
 74
1
 75
1
 44
0.5
 73
0
 45
1.0
 46
1.0
 77
1
  4

 78
1
 79
1
170
1
 48
1.0
171
1
  6

172
1
173
1
174
1
140
1.0
141
1.0
175
1
  7

176
1
177
1
178
1
143
1.0
179
1
  8

270
1
271
1
272
1
145
1.0
146
1.0
273
1
  9

274
1
275
1
276
1
 42
1.0
 72
1
  3

 73
1
 74
1
 75
1
 94
63
  0
MATERIAL
  5
21
102
{ACAD_REACTORS
330
E
102
}
330
E
100
AcDbMaterial
  1
Global
  2

 70
0
 40
1.0
 71
1
 41
1.0
 91
-1023410177
 42
1.0
 72
1
  3

 73
1
 74
1
 75
1
 44
0.5
 73
0
 45
1.0
 46
1.0
 77
1
  4

 78
1
 79
1
170
1
 48
1.0
171
1
  6

172
1
173
1
174
1
140
1.0
141
1.0
175
1
  7

176
1
177
1
178
1
143
1.0
179
1
  8

270
1
271
1
272
1
145
1.0
146
1.0
273
1
  9

274
1
275
1
276
1
 42
1.0
 72
1
  3

 73
1
 74
1
 75
1
 94
63
  0
MLINESTYLE
  5
22
102
{ACAD_REACTORS
330
10
102
}
330
10
100
AcDbMlineStyle
  2
Standard
 70
0
  3

 62
256
 51
90.0
 52
90.0
 71
2
 49
0.5
 62
256
  6
BYLAYER
 49
-0.5
 62
256
  6
BYLAYER
  0
MLEADERSTYLE
  5
2C
102
{ACAD_REACTORS
330
F
102
}
330
F
100
AcDbMLeaderStyle
179
2
170
2
171
1
172
0
 90
2
 40
0.0
 41
0.0
173
1
 91
-1056964608
 92
-2
290
1
 42
2.0
291
1
 43
8.0
  3
Standard
 44
4.0
300

342
29
174
1
175
1
176
0
178
1
 93
-1056964608
 45
4.0
292
0
297
0
 46
4.0
 94
-1056964608
 47
1.0
 49
1.0
140
1.0
294
1
141
0.0
177
0
142
1.0
295
0
296
0
143
3.75
271
0
272
9
273
9
  0
DICTIONARY
  5
2D
330
A
100
AcDbDictionary
280
1
281
1
  3
CREATED_BY_EZDXF
350
2E
  3
WRITTEN_BY_EZDXF
350
1AB
  0
DICTIONARYVAR
  5
2E
330
2D
100
DictionaryVariables
280
0
  1
1.4.4 @ 2026-09-26T13:33:28.261283+00:00
  0
DICTIONARYVAR
  5
1AB
330
2D
100
DictionaryVariables
280
0
  1
1.4.4 @ 2026-09-26T13:33:28.264786+00:00
  0
ENDSEC
  0
EOF
