  0
SECTION
  2
HEADER
  9
$ACADVER
  1
AC1032
  9
$ACADMAINTVER
 90
4
  9
$DWGCODEPAGE
  3
ANSI_1252
  9
$LASTSAVEDBY
  1
ezdxf
  9
$REQUIREDVERSIONS
160
0
  9
$INSBASE
 10
0.0
 20
0.0
 30
0.0
  9
$EXTMIN
 10
1e+20
 20
1e+20
 30
1e+20
  9
$EXTMAX
 10
-1e+20
 20
-1e+20
 30
-1e+20
  9
$LIMMIN
 10
0.0
 20
0.0
  9
$LIMMAX
 10
420.0
 20
297.0
  9
$ORTHOMODE
 70
0
  9
$REGENMODE
 70
1
  9
$FILLMODE
 70
1
  9
$QTEXTMODE
 70
0
  9
$MIRRTEXT
 70
1
  9
$LTSCALE
 40
1.0
  9
$ATTMODE
 70
1
  9
$TEXTSIZE
 40
2.5
  9
$TRACEWID
 40
1.0
  9
$TEXTSTYLE
  7
Standard
  9
$CLAYER
  8
0
  9
$CELTYPE
  6
ByLayer
  9
$CECOLOR
 62
256
  9
$CELTSCALE
 40
1.0
  9
$DISPSILH
 70
0
  9
$DIMSCALE
 40
1.0
  9
$DIMASZ
 40
2.5
  9
$DIMEXO
 40
0.625
  9
$DIMDLI
 40
3.75
  9
$DIMRND
 40
0.0
  9
$DIMDLE
 40
0.0
  9
$DIMEXE
 40
1.25
  9
$DIMTP
 40
0.0
  9
$DIMTM
 40
0.0
  9
$DIMTXT
 40
2.5
  9
$DIMCEN
 40
2.5
  9
$DIMTSZ
 40
0.0
  9
$DIMTOL
 70
0
  9
$DIMLIM
 70
0
  9
$DIMTIH
 70
0
  9
$DIMTOH
 70
0
  9
$DIMSE1
 70
0
  9
$DIMSE2
 70
0
  9
$DIMTAD
 70
1
  9
$DIMZIN
 70
8
  9
$DIMBLK
  1

  9
$DIMASO
 70
1
  9
$DIMSHO
 70
1
  9
$DIMPOST
  1

  9
$DIMAPOST
  1

  9
$DIMALT
 70
0
  9
$DIMALTD
 70
3
  9
$DIMALTF
 40
0.03937007874
  9
$DIMLFAC
 40
1.0
  9
$DIMTOFL
 70
1
  9
$DIMTVP
 40
0.0
  9
$DIMTIX
 70
0
  9
$DIMSOXD
 70
0
  9
$DIMSAH
 70
0
  9
$DIMBLK1
  1

  9
$DIMBLK2
  1

  9
$DIMSTYLE
  2
ISO-25
  9
$DIMCLRD
 70
0
  9
$DIMCLRE
 70
0
  9
$DIMCLRT
 70
0
  9
$DIMTFAC
 40
1.0
  9
$DIMGAP
 40
0.625
  9
$DIMJUST
 70
0
  9
$DIMSD1
 70
0
  9
$DIMSD2
 70
0
  9
$DIMTOLJ
 70
0
  9
$DIMTZIN
 70
8
  9
$DIMALTZ
 70
0
  9
$DIMALTTZ
 70
0
  9
$DIMUPT
 70
0
  9
$DIMDEC
 70
2
  9
$DIMTDEC
 70
2
  9
$DIMALTU
 70
2
  9
$DIMALTTD
 70
3
  9
$DIMTXSTY
  7
Standard
  9
$DIMAUNIT
 70
0
  9
$DIMADEC
 70
0
  9
$DIMALTRND
 40
0.0
  9
$DIMAZIN
 70
0
  9
$DIMDSEP
 70
44
  9
$DIMATFIT
 70
3
  9
$DIMFRAC
 70
0
  9
$DIMLDRBLK
  1

  9
$DIMLUNIT
 70
2
  9
$DIMLWD
 70
-2
  9
$DIMLWE
 70
-2
  9
$DIMTMOVE
 70
0
  9
$DIMFXL
 40
1.0
  9
$DIMFXLON
 70
0
  9
$DIMJOGANG
 40
0.785398163397
  9
$DIMTFILL
 70
0
  9
$DIMTFILLCLR
 70
0
  9
$DIMARCSYM
 70
0
  9
$DIMLTYPE
  6

  9
$DIMLTEX1
  6

  9
$DIMLTEX2
  6

  9
$DIMTXTDIRECTION
 70
0
  9
$LUNITS
 70
2
  9
$LUPREC
 70
4
  9
$SKETCHINC
 40
1.0
  9
$FILLETRAD
 40
10.0
  9
$AUNITS
 70
0
  9
$AUPREC
 70
2
  9
$MENU
  1
.
  9
$ELEVATION
 40
0.0
  9
$PELEVATION
 40
0.0
  9
$THICKNESS
 40
0.0
  9
$LIMCHECK
 70
0
  9
$CHAMFERA
 40
0.0
  9
$CHAMFERB
 40
0.0
  9
$CHAMFERC
 40
0.0
  9
$CHAMFERD
 40
0.0
  9
$SKPOLY
 70
0
  9
$TDCREATE
 40
2461310.6898958334
  9
$TDUCREATE
 40
2458532.153996898
  9
$TDUPDATE
 40
2461310.6898958334
  9
$TDUUPDATE
 40
2458532.1544311
  9
$TDINDWG
 40
0.0
  9
$TDUSRTIMER
 40
0.0
  9
$USRTIMER
 70
1
  9
$ANGBASE
 50
0.0
  9
$ANGDIR
 70
0
  9
$PDMODE
 70
0
  9
$PDSIZE
 40
0.0
  9
$PLINEWID
 40
0.0
  9
$SPLFRAME
 70
0
  9
$SPLINETYPE
 70
6
  9
$SPLINESEGS
 70
8
  9
$HANDSEED
  5
321
  9
$SURFTAB1
 70
6
  9
$SURFTAB2
 70
6
  9
$SURFTYPE
 70
6
  9
$SURFU
 70
6
  9
$SURFV
 70
6
  9
$UCSBASE
  2

  9
$UCSNAME
  2

  9
$UCSORG
 10
0.0
 20
0.0
 30
0.0
  9
$UCSXDIR
 10
1.0
 20
0.0
 30
0.0
  9
$UCSYDIR
 10
0.0
 20
1.0
 30
0.0
  9
$UCSORTHOREF
  2

  9
$UCSORTHOVIEW
 70
0
  9
$UCSORGTOP
 10
0.0
 20
0.0
 30
0.0
  9
$UCSORGBOTTOM
 10
0.0
 20
0.0
 30
0.0
  9
$UCSORGLEFT
 10
0.0
 20
0.0
 30
0.0
  9
$UCSORGRIGHT
 10
0.0
 20
0.0
 30
0.0
  9
$UCSORGFRONT
 10
0.0
 20
0.0
 30
0.0
  9
$UCSORGBACK
 10
0.0
 20
0.0
 30
0.0
  9
$PUCSBASE
  2

  9
$PUCSNAME
  2

  9
$PUCSORG
 10
0.0
 20
0.0
 30
0.0
  9
$PUCSXDIR
 10
1.0
 20
0.0
 30
0.0
  9
$PUCSYDIR
 10
0.0
 20
1.0
 30
0.0
  9
$PUCSORTHOREF
  2

  9
$PUCSORTHOVIEW
 70
0
  9
$PUCSORGTOP
 10
0.0
 20
0.0
 30
0.0
  9
$PUCSORGBOTTOM
 10
0.0
 20
0.0
 30
0.0
  9
$PUCSORGLEFT
 10
0.0
 20
0.0
 30
0.0
  9
$PUCSORGRIGHT
 10
0.0
 20
0.0
 30
0.0
  9
$PUCSORGFRONT
 10
0.0
 20
0.0
 30
0.0
  9
$PUCSORGBACK
 10
0.0
 20
0.0
 30
0.0
  9
$USERI1
 70
0
  9
$USERI2
 70
0
  9
$USERI3
 70
0
  9
$USERI4
 70
0
  9
$USERI5
 70
0
  9
$USERR1
 40
0.0
  9
$USERR2
 40
0.0
  9
$USERR3
 40
0.0
  9
$USERR4
 40
0.0
  9
$USERR5
 40
0.0
  9
$WORLDVIEW
 70
1
  9
$SHADEDGE
 70
3
  9
$SHADEDIF
 70
70
  9
$TILEMODE
 70
1
  9
$MAXACTVP
 70
64
  9
$PINSBASE
 10
0.0
 20
0.0
 30
0.0
  9
$PLIMCHECK
 70
0
  9
$PEXTMIN
 10
1e+20
 20
1e+20
 30
1e+20
  9
$PEXTMAX
 10
-1e+20
 20
-1e+20
 30
-1e+20
  9
$PLIMMIN
 10
0.0
 20
0.0
  9
$PLIMMAX
 10
420.0
 20
297.0
  9
$UNITMODE
 70
0
  9
$VISRETAIN
 70
1
  9
$PLINEGEN
 70
0
  9
$PSLTSCALE
 70
1
  9
$TREEDEPTH
 70
3020
  9
$CMLSTYLE
  2
Standard
  9
$CMLJUST
 70
0
  9
$CMLSCALE
 40
20.0
  9
$PROXYGRAPHICS
 70
1
  9
$MEASUREMENT
 70
1
  9
$CELWEIGHT
370
-1
  9
$ENDCAPS
280
0
  9
$JOINSTYLE
280
0
  9
$LWDISPLAY
290
0
  9
$INSUNITS
 70
6
  9
$HYPERLINKBASE
  1

  9
$STYLESHEET
  1

  9
$XEDIT
290
1
  9
$CEPSNTYPE
380
0
  9
$PSTYLEMODE
290
1
  9
$FINGERPRINTGUID
  2
{38A8F2F3-DB96-4835-8D41-9FBF4CC40DDC}
  9
$VERSIONGUID
  2
{36A80803-2469-4F3F-B4BA-48C3101A3557}
  9
$EXTNAMES
290
1
  9
$PSVPSCALE
 40
0.0
  9
$OLESTARTUP
290
0
  9
$SORTENTS
280
127
  9
$INDEXCTL
280
0
  9
$HIDETEXT
280
1
  9
$XCLIPFRAME
280
1
  9
$HALOGAP
280
0
  9
$OBSCOLOR
 70
257
  9
$OBSLTYPE
280
0
  9
$INTERSECTIONDISPLAY
280
0
  9
$INTERSECTIONCOLOR
 70
257
  9
$DIMASSOC
280
2
  9
$PROJECTNAME
  1

  9
$CAMERADISPLAY
290
0
  9
$LENSLENGTH
 40
50.0
  9
$CAMERAHEIGHT
 40
0.0
  9
$STEPSPERSEC
 40
24.0
  9
$STEPSIZE
 40
100.0
  9
$3DDWFPREC
 40
2.0
  9
$PSOLWIDTH
 40
0.005
  9
$PSOLHEIGHT
 40
0.08
  9
$LOFTANG1
 40
1.570796326795
  9
$LOFTANG2
 40
1.570796326795
  9
$LOFTMAG1
 40
0.0
  9
$LOFTMAG2
 40
0.0
  9
$LOFTPARAM
 70
7
  9
$LOFTNORMALS
280
1
  9
$LATITUDE
 40
37.795
  9
$LONGITUDE
 40
-122.394
  9
$NORTHDIRECTION
 40
0.0
  9
$TIMEZONE
 70
-8000
  9
$LIGHTGLYPHDISPLAY
280
1
  9
$TILEMODELIGHTSYNCH
280
1
  9
$CMATERIAL
347
20
  9
$SOLIDHIST
280
0
  9
$SHOWHIST
280
1
  9
$DWFFRAME
280
2
  9
$DGNFRAME
280
2
  9
$REALWORLDSCALE
290
1
  9
$INTERFERECOLOR
 62
256
  9
$CSHADOW
280
0
  9
$SHADOWPLANELOCATION
 40
0.0
  0
ENDSEC
  0
SECTION
  2
CLASSES
  0
CLASS
  1
ACDBDICTIONARYWDFLT
  2
AcDbDictionaryWithDefault
  3
ObjectDBX Classes
 90
0
 91
0
280
0
281
0
  0
CLASS
  1
SUN
  2
AcDbSun
  3
SCENEOE
 90
1153
 91
0
280
0
281
0
  0
CLASS
  1
VISUALSTYLE
  2
AcDbVisualStyle
  3
ObjectDBX Classes
 90
4095
 91
0
280
0
281
0
  0
CLASS
  1
MATERIAL
  2
AcDbMaterial
  3
ObjectDBX Classes
 90
1153
 91
0
280
0
281
0
  0
CLASS
  1
SCALE
  2
AcDbScale
  3
ObjectDBX Classes
 90
1153
 91
0
280
0
281
0
  0
CLASS
  1
TABLESTYLE
  2
AcDbTableStyle
  3
ObjectDBX Classes
 90
4095
 91
0
280
0
281
0
  0
CLASS
  1
MLEADERSTYLE
  2
AcDbMLeaderStyle
  3
ACDB_MLEADERSTYLE_CLASS
 90
4095
 91
0
280
0
281
0
  0
CLASS
  1
DICTIONARYVAR
  2
AcDbDictionaryVar
  3
ObjectDBX Classes
 90
0
 91
0
280
0
281
0
  0
CLASS
  1
CELLSTYLEMAP
  2
AcDbCellStyleMap
  3
ObjectDBX Classes
 90
1152
 91
0
280
0
281
0
  0
CLASS
  1
MENTALRAYRENDERSETTINGS
  2
AcDbMentalRayRenderSettings
  3
SCENEOE
 90
1024
 91
0
280
0
281
0
  0
CLASS
  1
ACDBDETAILVIEWSTYLE
  2
AcDbDetailViewStyle
  3
ObjectDBX Classes
 90
1025
 91
0
280
0
281
0
  0
CLASS
  1
ACDBSECTIONVIEWSTYLE
  2
AcDbSectionViewStyle
  3
ObjectDBX Classes
 90
1025
 91
0
280
0
281
0
  0
CLASS
  1
RASTERVARIABLES
  2
AcDbRasterVariables
  3
ISM
 90
0
 91
0
280
0
281
0
  0
CLASS
  1
LAYOUT
  2
AcDbLayout
  3
ObjectDBX Classes
 90
0
 91
0
280
0
281
0
  0
CLASS
  1
ACDBPLACEHOLDER
  2
AcDbPlaceHolder
  3
ObjectDBX Classes
 90
0
 91
0
280
0
281
0
  0
ENDSEC
  0
SECTION
  2
TABLES
  0
TABLE
  2
VPORT
  5
8
330
0
100
AcDbSymbolTable
 70
1
  0
VPORT
  5
23
330
8
100
AcDbSymbolTableRecord
100
AcDbViewportTableRecord
  2
*Active
 70
0
 10
0.0
 20
0.0
 11
1.0
 21
1.0
 12
0.0
 22
0.0
 13
0.0
 23
0.0
 14
0.5
 24
0.5
 15
0.5
 25
0.5
 16
0.0
 26
0.0
 36
1.0
 17
0.0
 27
0.0
 37
0.0
 40
1000.0
 41
1.34
 42
50.0
 43
0.0
 44
0.0
 50
0.0
 51
0.0
 71
0
 72
1000
 73
1
 74
3
 75
0
 76
0
 77
0
 78
0
281
0
 65
0
146
0.0
  0
ENDTAB
  0
TABLE
  2
LTYPE
  5
2
330
0
100
AcDbSymbolTable
 70
3
  0
LTYPE
  5
24
330
2
100
AcDbSymbolTableRecord
100
AcDbLinetypeTableRecord
  2
ByBlock
 70
0
  3

 72
65
 73
0
 40
0.0
  0
LTYPE
  5
25
330
2
100
AcDbSymbolTableRecord
100
AcDbLinetypeTableRecord
  2
ByLayer
 70
0
  3

 72
65
 73
0
 40
0.0
  0
LTYPE
  5
26
330
2
100
AcDbSymbolTableRecord
100
AcDbLinetypeTableRecord
  2
Continuous
 70
0
  3

 72
65
 73
0
 40
0.0
  0
ENDTAB
  0
TABLE
  2
LAYER
  5
1
330
0
100
AcDbSymbolTable
 70
23
  0
LAYER
  5
27
330
1
100
AcDbSymbolTableRecord
100
AcDbLayerTableRecord
  2
0
 70
0
 62
7
  6
Continuous
370
-3
390
13
347
21
  0
LAYER
  5
28
330
1
100
AcDbSymbolTableRecord
100
AcDbLayerTableRecord
  2
Defpoints
 70
0
 62
7
  6
Continuous
290
0
370
-3
390
13
347
21
  0
LAYER
  5
2F
330
1
100
AcDbSymbolTableRecord
100
AcDbLayerTableRecord
  2
TERRITORY_BOUNDARY
 70
0
 62
8
  6
Continuous
370
-3
390
13
347
21
  0
LAYER
  5
31
330
1
100
AcDbSymbolTableRecord
100
AcDbLayerTableRecord
  2
GRASS
 70
0
 62
84
  6
Continuous
370
-3
390
13
347
21
  0
LAYER
  5
33
330
1
100
AcDbSymbolTableRecord
100
AcDbLayerTableRecord
  2
PATH_MAIN
 70
0
 62
9
  6
Continuous
370
-3
390
13
347
21
  0
LAYER
  5
35
330
1
100
AcDbSymbolTableRecord
100
AcDbLayerTableRecord
  2
PATH_GATE
 70
0
 62
9
  6
Continuous
370
-3
390
13
347
21
  0
LAYER
  5
37
330
1
100
AcDbSymbolTableRecord
100
AcDbLayerTableRecord
  2
PATH_ENTRANCE_1
 70
0
 62
9
  6
Continuous
370
-3
390
13
347
21
  0
LAYER
  5
39
330
1
100
AcDbSymbolTableRecord
100
AcDbLayerTableRecord
  2
PATH_ENTRANCE_2
 70
0
 62
9
  6
Continuous
370
-3
390
13
347
21
  0
LAYER
  5
3B
330
1
100
AcDbSymbolTableRecord
100
AcDbLayerTableRecord
  2
PATH_ENTRANCE_3
 70
0
 62
9
  6
Continuous
370
-3
390
13
347
21
  0
LAYER
  5
3D
330
1
100
AcDbSymbolTableRecord
100
AcDbLayerTableRecord
  2
WATER_SUPPLY
 70
0
 62
9
  6
Continuous
370
-3
390
13
347
21
  0
LAYER
  5
3F
330
1
100
AcDbSymbolTableRecord
100
AcDbLayerTableRecord
  2
SEWER
 70
0
 62
9
  6
Continuous
370
-3
390
13
347
21
  0
LAYER
  5
41
330
1
100
AcDbSymbolTableRecord
100
AcDbLayerTableRecord
  2
BUILDINGS_FOOTPRINT
 70
0
 62
1
  6
Continuous
370
-3
390
13
347
21
  0
LAYER
  5
43
330
1
100
AcDbSymbolTableRecord
100
AcDbLayerTableRecord
  2
BUILDINGS_3D
 70
0
 62
3
  6
Continuous
370
-3
390
13
347
21
  0
LAYER
  5
45
330
1
100
AcDbSymbolTableRecord
100
AcDbLayerTableRecord
  2
LABELS
 70
0
 62
7
  6
Continuous
370
-3
390
13
347
21
  0
LAYER
  5
47
330
1
100
AcDbSymbolTableRecord
100
AcDbLayerTableRecord
  2
CURB
 70
0
 62
9
  6
Continuous
370
-3
390
13
347
21
  0
LAYER
  5
4A
330
1
100
AcDbSymbolTableRecord
100
AcDbLayerTableRecord
  2
КИЗИЛЬНИК БЛЕСТЯЩИЙ
 70
0
 62
3
  6
Continuous
370
-3
390
13
347
21
  0
LAYER
  5
26A
330
1
100
AcDbSymbolTableRecord
100
AcDbLayerTableRecord
  2
ЛИПА МЕЛКОЛИСТНАЯ
 70
0
 62
3
  6
Continuous
370
-3
390
13
347
21
  0
LAYER
  5
281
330
1
100
AcDbSymbolTableRecord
100
AcDbLayerTableRecord
  2
ТУЯ ЗАПАДНАЯ
 70
0
 62
3
  6
Continuous
370
-3
390
13
347
21
  0
LAYER
  5
2AB
330
1
100
AcDbSymbolTableRecord
100
AcDbLayerTableRecord
  2
СПИРЕЯ ЯПОНСКАЯ
 70
0
 62
3
  6
Continuous
370
-3
390
13
347
21
  0
LAYER
  5
300
330
1
100
AcDbSymbolTableRecord
100
AcDbLayerTableRecord
  2
ENTRANCE
 70
0
 62
2
  6
Continuous
370
-3
390
13
347
21
  0
LAYER
  5
304
330
1
100
AcDbSymbolTableRecord
100
AcDbLayerTableRecord
  2
LAMPS
 70
0
 62
2
  6
Continuous
370
-3
390
13
347
21
  0
LAYER
  5
30D
330
1
100
AcDbSymbolTableRecord
100
AcDbLayerTableRecord
  2
BENCH
 70
0
 62
30
  6
Continuous
370
-3
390
13
347
21
  0
LAYER
  5
310
330
1
100
AcDbSymbolTableRecord
100
AcDbLayerTableRecord
  2
URN
 70
0
 62
2
  6
Continuous
370
-3
390
13
347
21
  0
ENDTAB
  0
TABLE
  2
STYLE
  5
5
330
0
100
AcDbSymbolTable
 70
1
  0
STYLE
  5
29
330
5
100
AcDbSymbolTableRecord
100
AcDbTextStyleTableRecord
  2
Standard
 70
0
 40
0.0
 41
1.0
 50
0.0
 71
0
 42
2.5
  3
txt
  4

  0
ENDTAB
  0
TABLE
  2
VIEW
  5
7
330
0
100
AcDbSymbolTable
 70
0
  0
ENDTAB
  0
TABLE
  2
UCS
  5
6
330
0
100
AcDbSymbolTable
 70
0
  0
ENDTAB
  0
TABLE
  2
APPID
  5
3
330
0
100
AcDbSymbolTable
 70
3
  0
APPID
  5
2A
330
3
100
AcDbSymbolTableRecord
100
AcDbRegAppTableRecord
  2
ACAD
 70
0
  0
APPID
  5
31E
330
3
100
AcDbSymbolTableRecord
100
AcDbRegAppTableRecord
  2
HATCHBACKGROUNDCOLOR
 70
0
  0
APPID
  5
31F
330
3
100
AcDbSymbolTableRecord
100
AcDbRegAppTableRecord
  2
EZDXF
 70
0
  0
ENDTAB
  0
TABLE
  2
DIMSTYLE
  5
4
330
0
100
AcDbSymbolTable
 70
1
100
AcDbDimStyleTable
  0
DIMSTYLE
105
2B
330
4
100
AcDbSymbolTableRecord
100
AcDbDimStyleTableRecord
  2
Standard
 70
0
 40
1.0
 41
2.5
 42
0.625
 43
3.75
 44
1.25
 45
0.0
 46
0.0
 47
0.0
 48
0.0
 49
2.5
140
2.5
141
2.5
142
0.0
143
0.03937007874
144
1.0
145
0.0
146
1.0
147
0.625
148
0.0
 69
0
 70
0
 71
0
 72
0
 73
0
 74
0
 75
0
 76
0
 77
1
 78
8
 79
3
170
0
171
3
172
1
173
0
174
0
175
0
176
0
177
0
178
0
179
2
271
2
272
2
273
2
274
3
275
0
276
0
277
2
278
44
279
0
280
0
281
0
282
0
283
0
284
8
285
0
286
0
288
0
289
3
290
0
371
-2
372
-2
  0
ENDTAB
  0
TABLE
  2
BLOCK_RECORD
  5
9
330
0
100
AcDbSymbolTable
 70
3
  0
BLOCK_RECORD
  5
17
330
9
100
AcDbSymbolTableRecord
100
AcDbBlockTableRecord
  2
*Model_Space
340
1A
 70
0
280
1
281
0
  0
BLOCK_RECORD
  5
1B
330
9
100
AcDbSymbolTableRecord
100
AcDbBlockTableRecord
  2
*Paper_Space
340
1E
 70
0
280
1
281
0
  0
BLOCK_RECORD
  5
309
330
9
100
AcDbSymbolTableRecord
100
AcDbBlockTableRecord
  2
BENCH_BLOCK
340
0
 70
0
280
1
281
0
  0
ENDTAB
  0
ENDSEC
  0
SECTION
  2
BLOCKS
  0
BLOCK
  5
18
330
17
100
AcDbEntity
  8
0
100
AcDbBlockBegin
  2
*Model_Space
 70
0
 10
0.0
 20
0.0
 30
0.0
  3
*Model_Space
  1

  0
ENDBLK
  5
19
330
17
100
AcDbEntity
  8
0
100
AcDbBlockEnd
  0
BLOCK
  5
1C
330
1B
100
AcDbEntity
  8
0
100
AcDbBlockBegin
  2
*Paper_Space
 70
0
 10
0.0
 20
0.0
 30
0.0
  3
*Paper_Space
  1

  0
ENDBLK
  5
1D
330
1B
100
AcDbEntity
  8
0
100
AcDbBlockEnd
  0
BLOCK
  5
30A
330
309
100
AcDbEntity
  8
0
100
AcDbBlockBegin
  2
BENCH_BLOCK
 70
0
 10
0.0
 20
0.0
 30
0.0
  3
BENCH_BLOCK
  1

  0
LWPOLYLINE
  5
30C
330
309
100
AcDbEntity
  8
0
100
AcDbPolyline
 90
4
 70
1
 10
-0.75
 20
-0.25
 10
0.75
 20
-0.25
 10
0.75
 20
0.25
 10
-0.75
 20
0.25
  0
ENDBLK
  5
30B
330
309
100
AcDbEntity
  8
0
100
AcDbBlockEnd
  0
ENDSEC
  0
SECTION
  2
ENTITIES
  0
LWPOLYLINE
  5
30
330
17
100
AcDbEntity
  8
TERRITORY_BOUNDARY
100
AcDbPolyline
 90
4
 70
1
 10
90.0
 20
0.0
 10
90.0
 20
60.0
 10
0.0
 20
60.0
 10
0.0
 20
0.0
  0
LWPOLYLINE
  5
32
330
17
100
AcDbEntity
  8
GRASS
100
AcDbPolyline
 90
4
 70
1
 10
90.0
 20
0.0
 10
90.0
 20
60.0
 10
0.0
 20
60.0
 10
0.0
 20
0.0
  0
LWPOLYLINE
  5
34
330
17
100
AcDbEntity
  8
PATH_MAIN
100
AcDbPolyline
 90
4
 70
1
 10
84.0
 20
14.0
 10
84.0
 20
16.5
 10
6.0
 20
16.5
 10
6.0
 20
14.0
  0
LWPOLYLINE
  5
36
330
17
100
AcDbEntity
  8
PATH_GATE
100
AcDbPolyline
 90
4
 70
1
 10
46.5
 20
0.0
 10
46.5
 20
14.0
 10
43.5
 20
14.0
 10
43.5
 20
0.0
  0
LWPOLYLINE
  5
38
330
17
100
AcDbEntity
  8
PATH_ENTRANCE_1
100
AcDbPolyline
 90
4
 70
1
 10
34.0
 20
16.5
 10
34.0
 20
30.0
 10
32.0
 20
30.0
 10
32.0
 20
16.5
  0
LWPOLYLINE
  5
3A
330
17
100
AcDbEntity
  8
PATH_ENTRANCE_2
100
AcDbPolyline
 90
4
 70
1
 10
46.0
 20
16.5
 10
46.0
 20
30.0
 10
44.0
 20
30.0
 10
44.0
 20
16.5
  0
LWPOLYLINE
  5
3C
330
17
100
AcDbEntity
  8
PATH_ENTRANCE_3
100
AcDbPolyline
 90
4
 70
1
 10
58.0
 20
16.5
 10
58.0
 20
30.0
 10
56.0
 20
30.0
 10
56.0
 20
16.5
  0
LWPOLYLINE
  5
3E
330
17
100
AcDbEntity
  8
WATER_SUPPLY
100
AcDbPolyline
 90
4
 70
1
 10
40.0
 20
0.0
 10
40.0
 20
30.0
 10
38.6
 20
30.0
 10
38.6
 20
0.0
  0
LWPOLYLINE
  5
40
330
17
100
AcDbEntity
  8
SEWER
100
AcDbPolyline
 90
4
 70
1
 10
51.4
 20
0.0
 10
51.4
 20
30.0
 10
50.0
 20
30.0
 10
50.0
 20
0.0
  0
LWPOLYLINE
  5
42
330
17
100
AcDbEntity
  8
BUILDINGS_FOOTPRINT
100
AcDbPolyline
 90
4
 70
1
 10
63.0
 20
30.0
 10
63.0
 20
44.0
 10
27.0
 20
44.0
 10
27.0
 20
30.0
  0
MESH
  5
44
330
17
100
AcDbEntity
  8
BUILDINGS_3D
100
AcDbSubDMesh
 71
2
 72
0
 91
0
 92
8
 10
63.0
 20
30.0
 30
0.0
 10
63.0
 20
44.0
 30
0.0
 10
27.0
 20
44.0
 30
0.0
 10
27.0
 20
30.0
 30
0.0
 10
63.0
 20
30.0
 30
27.0
 10
63.0
 20
44.0
 30
27.0
 10
27.0
 20
44.0
 30
27.0
 10
27.0
 20
30.0
 30
27.0
 93
30
 90
4
 90
0
 90
1
 90
2
 90
3
 90
4
 90
7
 90
6
 90
5
 90
4
 90
4
 90
0
 90
1
 90
5
 90
4
 90
4
 90
1
 90
2
 90
6
 90
5
 90
4
 90
2
 90
3
 90
7
 90
6
 90
4
 90
3
 90
0
 90
4
 90
7
 94
0
 95
0
 90
0
  0
TEXT
  5
46
330
17
100
AcDbEntity
  8
LABELS
100
AcDbText
 10
45.0
 20
37.0
 30
0.0
 40
1.5
  1
Жилой дом, 9 этажей
100
AcDbText
  0
LWPOLYLINE
  5
48
330
17
100
AcDbEntity
  8
CURB
100
AcDbPolyline
 90
2
 70
0
 10
6.0
 20
14.0
 10
84.0
 20
14.0
  0
LWPOLYLINE
  5
49
330
17
100
AcDbEntity
  8
CURB
100
AcDbPolyline
 90
2
 70
0
 10
6.0
 20
16.5
 10
84.0
 20
16.5
  0
POINT
  5
4B
330
17
100
AcDbEntity
  8
КИЗИЛЬНИК БЛЕСТЯЩИЙ
100
AcDbPoint
 10
2.8
 20
1.8499999999999999
 30
0.0
  0
POINT
  5
4C
330
17
100
AcDbEntity
  8
КИЗИЛЬНИК БЛЕСТЯЩИЙ
100
AcDbPoint
 10
3.8
 20
1.8499999999999999
 30
0.0
  0
POINT
  5
4D
330
17
100
AcDbEntity
  8
КИЗИЛЬНИК БЛЕСТЯЩИЙ
100
AcDbPoint
 10
4.8
 20
1.8499999999999999
 30
0.0
  0
POINT
  5
4E
330
17
100
AcDbEntity
  8
КИЗИЛЬНИК БЛЕСТЯЩИЙ
100
AcDbPoint
 10
5.8
 20
1.8499999999999999
 30
0.0
  0
POINT
  5
4F
330
17
100
AcDbEntity
  8
КИЗИЛЬНИК БЛЕСТЯЩИЙ
100
AcDbPoint
 10
6.8
 20
1.8499999999999999
 30
0.0
  0
POINT
  5
50
330
17
100
AcDbEntity
  8
КИЗИЛЬНИК БЛЕСТЯЩИЙ
100
AcDbPoint
 10
7.800000000000001
 20
1.8499999999999999
 30
0.0
  0
POINT
  5
51
330
17
100
AcDbEntity
  8
КИЗИЛЬНИК БЛЕСТЯЩИЙ
100
AcDbPoint
 10
8.8
 20
1.8499999999999999
 30
0.0
  0
POINT
  5
52
330
17
100
AcDbEntity
  8
КИЗИЛЬНИК БЛЕСТЯЩИЙ
100
AcDbPoint
 10
9.8
 20
1.8499999999999999
 30
0.0
  0
POINT
  5
53
330
17
100
AcDbEntity
  8
КИЗИЛЬНИК БЛЕСТЯЩИЙ
100
AcDbPoint
 10
10.8
 20
1.8499999999999999
 30
0.0
  0
POINT
  5
54
330
17
100
AcDbEntity
  8
КИЗИЛЬНИК БЛЕСТЯЩИЙ
100
AcDbPoint
 10
11.8
 20
1.8499999999999999
 30
0.0
  0
POINT
  5
55
330
17
100
AcDbEntity
  8
КИЗИЛЬНИК БЛЕСТЯЩИЙ
100
AcDbPoint
 10
12.8
 20
1.8499999999999999
 30
0.0
  0
POINT
  5
56
330
17
100
AcDbEntity
  8
КИЗИЛЬНИК БЛЕСТЯЩИЙ
100
AcDbPoint
 10
13.8
 20
1.8499999999999999
 30
0.0
  0
POINT
  5
57
330
17
100
AcDbEntity
  8
КИЗИЛЬНИК БЛЕСТЯЩИЙ
100
AcDbPoint
 10
14.8
 20
1.8499999999999999
 30
0.0
  0
POINT
  5
58
330
17
100
AcDbEntity
  8
КИЗИЛЬНИК БЛЕСТЯЩИЙ
100
AcDbPoint
 10
15.8
 20
1.8499999999999999
 30
0.0
  0
POINT
  5
59
330
17
100
AcDbEntity
  8
КИЗИЛЬНИК БЛЕСТЯЩИЙ
100
AcDbPoint
 10
16.8
 20
1.8499999999999999
 30
0.0
  0
POINT
  5
5A
330
17
100
AcDbEntity
  8
КИЗИЛЬНИК БЛЕСТЯЩИЙ
100
AcDbPoint
 10
17.8
 20
1.8499999999999999
 30
0.0
  0
POINT
  5
5B
330
17
100
AcDbEntity
  8
КИЗИЛЬНИК БЛЕСТЯЩИЙ
100
AcDbPoint
 10
18.8
 20
1.8499999999999999
 30
0.0
  0
POINT
  5
5C
330
17
100
AcDbEntity
  8
КИЗИЛЬНИК БЛЕСТЯЩИЙ
100
AcDbPoint
 10
19.8
 20
1.8499999999999999
 30
0.0
  0
POINT
  5
5D
330
17
100
AcDbEntity
  8
КИЗИЛЬНИК БЛЕСТЯЩИЙ
100
AcDbPoint
 10
20.8
 20
1.8499999999999999
 30
0.0
  0
POINT
  5
5E
330
17
100
AcDbEntity
  8
КИЗИЛЬНИК БЛЕСТЯЩИЙ
100
AcDbPoint
 10
21.8
 20
1.8499999999999999
 30
0.0
  0
POINT
  5
5F
330
17
100
AcDbEntity
  8
КИЗИЛЬНИК БЛЕСТЯЩИЙ
100
AcDbPoint
 10
22.8
 20
1.8499999999999999
 30
0.0
  0
POINT
  5
60
330
17
100
AcDbEntity
  8
КИЗИЛЬНИК БЛЕСТЯЩИЙ
100
AcDbPoint
 10
23.8
 20
1.8499999999999999
 30
0.0
  0
POINT
  5
61
330
17
100
AcDbEntity
  8
КИЗИЛЬНИК БЛЕСТЯЩИЙ
100
AcDbPoint
 10
24.799999999999997
 20
1.8499999999999999
 30
0.0
  0
POINT
  5
62
330
17
100
AcDbEntity
  8
КИЗИЛЬНИК БЛЕСТЯЩИЙ
100
AcDbPoint
 10
25.8
 20
1.8499999999999999
 30
0.0
  0
POINT
  5
63
330
17
100
AcDbEntity
  8
КИЗИЛЬНИК БЛЕСТЯЩИЙ
100
AcDbPoint
 10
26.8
 20
1.8499999999999999
 30
0.0
  0
POINT
  5
64
330
17
100
AcDbEntity
  8
КИЗИЛЬНИК БЛЕСТЯЩИЙ
100
AcDbPoint
 10
27.8
 20
1.8499999999999999
 30
0.0
  0
POINT
  5
65
330
17
100
AcDbEntity
  8
КИЗИЛЬНИК БЛЕСТЯЩИЙ
100
AcDbPoint
 10
28.799999999999997
 20
1.8499999999999999
 30
0.0
  0
POINT
  5
66
330
17
100
AcDbEntity
  8
КИЗИЛЬНИК БЛЕСТЯЩИЙ
100
AcDbPoint
 10
29.8
 20
1.8499999999999999
 30
0.0
  0
POINT
  5
67
330
17
100
AcDbEntity
  8
КИЗИЛЬНИК БЛЕСТЯЩИЙ
100
AcDbPoint
 10
30.8
 20
1.8499999999999999
 30
0.0
  0
POINT
  5
68
330
17
100
AcDbEntity
  8
КИЗИЛЬНИК БЛЕСТЯЩИЙ
100
AcDbPoint
 10
31.8
 20
1.8499999999999999
 30
0.0
  0
POINT
  5
69
330
17
100
AcDbEntity
  8
КИЗИЛЬНИК БЛЕСТЯЩИЙ
100
AcDbPoint
 10
32.8
 20
1.8499999999999999
 30
0.0
  0
POINT
  5
6A
330
17
100
AcDbEntity
  8
КИЗИЛЬНИК БЛЕСТЯЩИЙ
100
AcDbPoint
 10
33.8
 20
1.8499999999999999
 30
0.0
  0
POINT
  5
6B
330
17
100
AcDbEntity
  8
КИЗИЛЬНИК БЛЕСТЯЩИЙ
100
AcDbPoint
 10
34.8
 20
1.8499999999999999
 30
0.0
  0
POINT
  5
6C
330
17
100
AcDbEntity
  8
КИЗИЛЬНИК БЛЕСТЯЩИЙ
100
AcDbPoint
 10
35.8
 20
1.8499999999999999
 30
0.0
  0
POINT
  5
6D
330
17
100
AcDbEntity
  8
КИЗИЛЬНИК БЛЕСТЯЩИЙ
100
AcDbPoint
 10
36.8
 20
1.8499999999999999
 30
0.0
  0
POINT
  5
6E
330
17
100
AcDbEntity
  8
КИЗИЛЬНИК БЛЕСТЯЩИЙ
100
AcDbPoint
 10
37.8
 20
1.8499999999999999
 30
0.0
  0
POINT
  5
6F
330
17
100
AcDbEntity
  8
КИЗИЛЬНИК БЛЕСТЯЩИЙ
100
AcDbPoint
 10
40.8
 20
1.8499999999999999
 30
0.0
  0
POINT
  5
70
330
17
100
AcDbEntity
  8
КИЗИЛЬНИК БЛЕСТЯЩИЙ
100
AcDbPoint
 10
41.8
 20
1.8499999999999999
 30
0.0
  0
POINT
  5
71
330
17
100
AcDbEntity
  8
КИЗИЛЬНИК БЛЕСТЯЩИЙ
100
AcDbPoint
 10
42.8
 20
1.8499999999999999
 30
0.0
  0
POINT
  5
72
330
17
100
AcDbEntity
  8
КИЗИЛЬНИК БЛЕСТЯЩИЙ
100
AcDbPoint
 10
47.8
 20
1.8499999999999999
 30
0.0
  0
POINT
  5
73
330
17
100
AcDbEntity
  8
КИЗИЛЬНИК БЛЕСТЯЩИЙ
100
AcDbPoint
 10
48.8
 20
1.8499999999999999
 30
0.0
  0
POINT
  5
74
330
17
100
AcDbEntity
  8
КИЗИЛЬНИК БЛЕСТЯЩИЙ
100
AcDbPoint
 10
49.8
 20
1.8499999999999999
 30
0.0
  0
POINT
  5
75
330
17
100
AcDbEntity
  8
КИЗИЛЬНИК БЛЕСТЯЩИЙ
100
AcDbPoint
 10
51.8
 20
1.8499999999999999
 30
0.0
  0
POINT
  5
76
330
17
100
AcDbEntity
  8
КИЗИЛЬНИК БЛЕСТЯЩИЙ
100
AcDbPoint
 10
52.8
 20
1.8499999999999999
 30
0.0
  0
POINT
  5
77
330
17
100
AcDbEntity
  8
КИЗИЛЬНИК БЛЕСТЯЩИЙ
100
AcDbPoint
 10
53.800000000000004
 20
1.8499999999999999
 30
0.0
  0
POINT
  5
78
330
17
100
AcDbEntity
  8
КИЗИЛЬНИК БЛЕСТЯЩИЙ
100
AcDbPoint
 10
54.79999999999999
 20
1.8499999999999999
 30
0.0
  0
POINT
  5
79
330
17
100
AcDbEntity
  8
КИЗИЛЬНИК БЛЕСТЯЩИЙ
100
AcDbPoint
 10
55.8
 20
1.8499999999999999
 30
0.0
  0
POINT
  5
7A
330
17
100
AcDbEntity
  8
КИЗИЛЬНИК БЛЕСТЯЩИЙ
100
AcDbPoint
 10
56.8
 20
1.8499999999999999
 30
0.0
  0
POINT
  5
7B
330
17
100
AcDbEntity
  8
КИЗИЛЬНИК БЛЕСТЯЩИЙ
100
AcDbPoint
 10
57.8
 20
1.8499999999999999
 30
0.0
  0
POINT
  5
7C
330
17
100
AcDbEntity
  8
КИЗИЛЬНИК БЛЕСТЯЩИЙ
100
AcDbPoint
 10
58.8
 20
1.8499999999999999
 30
0.0
  0
POINT
  5
7D
330
17
100
AcDbEntity
  8
КИЗИЛЬНИК БЛЕСТЯЩИЙ
100
AcDbPoint
 10
59.8
 20
1.8499999999999999
 30
0.0
  0
POINT
  5
7E
330
17
100
AcDbEntity
  8
КИЗИЛЬНИК БЛЕСТЯЩИЙ
100
AcDbPoint
 10
60.8
 20
1.8499999999999999
 30
0.0
  0
POINT
  5
7F
330
17
100
AcDbEntity
  8
КИЗИЛЬНИК БЛЕСТЯЩИЙ
100
AcDbPoint
 10
61.800000000000004
 20
1.8499999999999999
 30
0.0
  0
POINT
  5
80
330
17
100
AcDbEntity
  8
КИЗИЛЬНИК БЛЕСТЯЩИЙ
100
AcDbPoint
 10
62.79999999999999
 20
1.8499999999999999
 30
0.0
  0
POINT
  5
81
330
17
100
AcDbEntity
  8
КИЗИЛЬНИК БЛЕСТЯЩИЙ
100
AcDbPoint
 10
63.8
 20
1.8499999999999999
 30
0.0
  0
POINT
  5
82
330
17
100
AcDbEntity
  8
КИЗИЛЬНИК БЛЕСТЯЩИЙ
100
AcDbPoint
 10
64.8
 20
1.8499999999999999
 30
0.0
  0
POINT
  5
83
330
17
100
AcDbEntity
  8
КИЗИЛЬНИК БЛЕСТЯЩИЙ
100
AcDbPoint
 10
65.8
 20
1.8499999999999999
 30
0.0
  0
POINT
  5
84
330
17
100
AcDbEntity
  8
КИЗИЛЬНИК БЛЕСТЯЩИЙ
100
AcDbPoint
 10
66.8
 20
1.8499999999999999
 30
0.0
  0
POINT
  5
85
330
17
100
AcDbEntity
  8
КИЗИЛЬНИК БЛЕСТЯЩИЙ
100
AcDbPoint
 10
67.8
 20
1.8499999999999999
 30
0.0
  0
POINT
  5
86
330
17
100
AcDbEntity
  8
КИЗИЛЬНИК БЛЕСТЯЩИЙ
100
AcDbPoint
 10
68.8
 20
1.8499999999999999
 30
0.0
  0
POINT
  5
87
330
17
100
AcDbEntity
  8
КИЗИЛЬНИК БЛЕСТЯЩИЙ
100
AcDbPoint
 10
69.8
 20
1.8499999999999999
 30
0.0
  0
POINT
  5
88
330
17
100
AcDbEntity
  8
КИЗИЛЬНИК БЛЕСТЯЩИЙ
100
AcDbPoint
 10
70.8
 20
1.8499999999999999
 30
0.0
  0
POINT
  5
89
330
17
100
AcDbEntity
  8
КИЗИЛЬНИК БЛЕСТЯЩИЙ
100
AcDbPoint
 10
71.8
 20
1.8499999999999999
 30
0.0
  0
POINT
  5
8A
330
17
100
AcDbEntity
  8
КИЗИЛЬНИК БЛЕСТЯЩИЙ
100
AcDbPoint
 10
72.8
 20
1.8499999999999999
 30
0.0
  0
POINT
  5
8B
330
17
100
AcDbEntity
  8
КИЗИЛЬНИК БЛЕСТЯЩИЙ
100
AcDbPoint
 10
73.8
 20
1.8499999999999999
 30
0.0
  0
POINT
  5
8C
330
17
100
AcDbEntity
  8
КИЗИЛЬНИК БЛЕСТЯЩИЙ
100
AcDbPoint
 10
74.8
 20
1.8499999999999999
 30
0.0
  0
POINT
  5
8D
330
17
100
AcDbEntity
  8
КИЗИЛЬНИК БЛЕСТЯЩИЙ
100
AcDbPoint
 10
75.8
 20
1.8499999999999999
 30
0.0
  0
POINT
  5
8E
330
17
100
AcDbEntity
  8
КИЗИЛЬНИК БЛЕСТЯЩИЙ
100
AcDbPoint
 10
76.8
 20
1.8499999999999999
 30
0.0
  0
POINT
  5
8F
330
17
100
AcDbEntity
  8
КИЗИЛЬНИК БЛЕСТЯЩИЙ
100
AcDbPoint
 10
77.8
 20
1.8499999999999999
 30
0.0
  0
POINT
  5
90
330
17
100
AcDbEntity
  8
КИЗИЛЬНИК БЛЕСТЯЩИЙ
100
AcDbPoint
 10
78.8
 20
1.8499999999999999
 30
0.0
  0
POINT
  5
91
330
17
100
AcDbEntity
  8
КИЗИЛЬНИК БЛЕСТЯЩИЙ
100
AcDbPoint
 10
79.8
 20
1.8499999999999999
 30
0.0
  0
POINT
  5
92
330
17
100
AcDbEntity
  8
КИЗИЛЬНИК БЛЕСТЯЩИЙ
100
AcDbPoint
 10
80.8
 20
1.8499999999999999
 30
0.0
  0
POINT
  5
93
330
17
100
AcDbEntity
  8
КИЗИЛЬНИК БЛЕСТЯЩИЙ
100
AcDbPoint
 10
81.8
 20
1.8499999999999999
 30
0.0
  0
POINT
  5
94
330
17
100
AcDbEntity
  8
КИЗИЛЬНИК БЛЕСТЯЩИЙ
100
AcDbPoint
 10
82.8
 20
1.8499999999999999
 30
0.0
  0
POINT
  5
95
330
17
100
AcDbEntity
  8
КИЗИЛЬНИК БЛЕСТЯЩИЙ
100
AcDbPoint
 10
83.8
 20
1.8499999999999999
 30
0.0
  0
POINT
  5
96
330
17
100
AcDbEntity
  8
КИЗИЛЬНИК БЛЕСТЯЩИЙ
100
AcDbPoint
 10
84.8
 20
1.8499999999999999
 30
0.0
  0
POINT
  5
97
330
17
100
AcDbEntity
  8
КИЗИЛЬНИК БЛЕСТЯЩИЙ
100
AcDbPoint
 10
85.8
 20
1.8499999999999999
 30
0.0
  0
POINT
  5
98
330
17
100
AcDbEntity
  8
КИЗИЛЬНИК БЛЕСТЯЩИЙ
100
AcDbPoint
 10
86.8
 20
1.8499999999999999
 30
0.0
  0
POINT
  5
99
330
17
100
AcDbEntity
  8
КИЗИЛЬНИК БЛЕСТЯЩИЙ
100
AcDbPoint
 10
88.07442263245203
 20
2.150384911698637
 30
0.0
  0
POINT
  5
9A
330
17
100
AcDbEntity
  8
КИЗИЛЬНИК БЛЕСТЯЩИЙ
100
AcDbPoint
 10
88.15
 20
3.399999999999994
 30
0.0
  0
POINT
  5
9B
330
17
100
AcDbEntity
  8
КИЗИЛЬНИК БЛЕСТЯЩИЙ
100
AcDbPoint
 10
88.15
 20
4.399999999999994
 30
0.0
  0
POINT
  5
9C
330
17
100
AcDbEntity
  8
КИЗИЛЬНИК БЛЕСТЯЩИЙ
100
AcDbPoint
 10
88.15
 20
5.399999999999994
 30
0.0
  0
POINT
  5
9D
330
17
100
AcDbEntity
  8
КИЗИЛЬНИК БЛЕСТЯЩИЙ
100
AcDbPoint
 10
88.15
 20
6.399999999999994
 30
0.0
  0
POINT
  5
9E
330
17
100
AcDbEntity
  8
КИЗИЛЬНИК БЛЕСТЯЩИЙ
100
AcDbPoint
 10
88.15
 20
7.399999999999994
 30
0.0
  0
POINT
  5
9F
330
17
100
AcDbEntity
  8
КИЗИЛЬНИК БЛЕСТЯЩИЙ
100
AcDbPoint
 10
88.15
 20
8.399999999999995
 30
0.0
  0
POINT
  5
A0
330
17
100
AcDbEntity
  8
КИЗИЛЬНИК БЛЕСТЯЩИЙ
100
AcDbPoint
 10
88.15
 20
9.399999999999995
 30
0.0
  0
POINT
  5
A1
330
17
100
AcDbEntity
  8
КИЗИЛЬНИК БЛЕСТЯЩИЙ
100
AcDbPoint
 10
88.15
 20
10.399999999999995
 30
0.0
  0
POINT
  5
A2
330
17
100
AcDbEntity
  8
КИЗИЛЬНИК БЛЕСТЯЩИЙ
100
AcDbPoint
 10
88.15
 20
11.399999999999995
 30
0.0
  0
POINT
  5
A3
330
17
100
AcDbEntity
  8
КИЗИЛЬНИК БЛЕСТЯЩИЙ
100
AcDbPoint
 10
88.15
 20
12.399999999999995
 30
0.0
  0
POINT
  5
A4
330
17
100
AcDbEntity
  8
КИЗИЛЬНИК БЛЕСТЯЩИЙ
100
AcDbPoint
 10
88.15
 20
13.399999999999995
 30
0.0
  0
POINT
  5
A5
330
17
100
AcDbEntity
  8
КИЗИЛЬНИК БЛЕСТЯЩИЙ
100
AcDbPoint
 10
88.15
 20
14.399999999999995
 30
0.0
  0
POINT
  5
A6
330
17
100
AcDbEntity
  8
КИЗИЛЬНИК БЛЕСТЯЩИЙ
100
AcDbPoint
 10
88.15
 20
15.399999999999995
 30
0.0
  0
POINT
  5
A7
330
17
100
AcDbEntity
  8
КИЗИЛЬНИК БЛЕСТЯЩИЙ
100
AcDbPoint
 10
88.15
 20
16.399999999999995
 30
0.0
  0
POINT
  5
A8
330
17
100
AcDbEntity
  8
КИЗИЛЬНИК БЛЕСТЯЩИЙ
100
AcDbPoint
 10
88.15
 20
17.399999999999995
 30
0.0
  0
POINT
  5
A9
330
17
100
AcDbEntity
  8
КИЗИЛЬНИК БЛЕСТЯЩИЙ
100
AcDbPoint
 10
88.15
 20
18.399999999999995
 30
0.0
  0
POINT
  5
AA
330
17
100
AcDbEntity
  8
КИЗИЛЬНИК БЛЕСТЯЩИЙ
100
AcDbPoint
 10
88.15
 20
19.399999999999995
 30
0.0
  0
POINT
  5
AB
330
17
100
AcDbEntity
  8
КИЗИЛЬНИК БЛЕСТЯЩИЙ
100
AcDbPoint
 10
88.15
 20
20.399999999999995
 30
0.0
  0
POINT
  5
AC
330
17
100
AcDbEntity
  8
КИЗИЛЬНИК БЛЕСТЯЩИЙ
100
AcDbPoint
 10
88.15
 20
21.399999999999995
 30
0.0
  0
POINT
  5
AD
330
17
100
AcDbEntity
  8
КИЗИЛЬНИК БЛЕСТЯЩИЙ
100
AcDbPoint
 10
88.15
 20
22.399999999999995
 30
0.0
  0
POINT
  5
AE
330
17
100
AcDbEntity
  8
КИЗИЛЬНИК БЛЕСТЯЩИЙ
100
AcDbPoint
 10
88.15
 20
23.399999999999995
 30
0.0
  0
POINT
  5
AF
330
17
100
AcDbEntity
  8
КИЗИЛЬНИК БЛЕСТЯЩИЙ
100
AcDbPoint
 10
88.15
 20
24.399999999999995
 30
0.0
  0
POINT
  5
B0
330
17
100
AcDbEntity
  8
КИЗИЛЬНИК БЛЕСТЯЩИЙ
100
AcDbPoint
 10
88.15
 20
25.399999999999995
 30
0.0
  0
POINT
  5
B1
330
17
100
AcDbEntity
  8
КИЗИЛЬНИК БЛЕСТЯЩИЙ
100
AcDbPoint
 10
88.15
 20
26.399999999999995
 30
0.0
  0
POINT
  5
B2
330
17
100
AcDbEntity
  8
КИЗИЛЬНИК БЛЕСТЯЩИЙ
100
AcDbPoint
 10
88.15
 20
27.399999999999995
 30
0.0
  0
POINT
  5
B3
330
17
100
AcDbEntity
  8
КИЗИЛЬНИК БЛЕСТЯЩИЙ
100
AcDbPoint
 10
88.15
 20
28.399999999999995
 30
0.0
  0
POINT
  5
B4
330
17
100
AcDbEntity
  8
КИЗИЛЬНИК БЛЕСТЯЩИЙ
100
AcDbPoint
 10
88.15
 20
29.399999999999995
 30
0.0
  0
POINT
  5
B5
330
17
100
AcDbEntity
  8
КИЗИЛЬНИК БЛЕСТЯЩИЙ
100
AcDbPoint
 10
88.15
 20
30.4
 30
0.0
  0
POINT
  5
B6
330
17
100
AcDbEntity
  8
КИЗИЛЬНИК БЛЕСТЯЩИЙ
100
AcDbPoint
 10
88.15
 20
31.39999999999999
 30
0.0
  0
POINT
  5
B7
330
17
100
AcDbEntity
  8
КИЗИЛЬНИК БЛЕСТЯЩИЙ
100
AcDbPoint
 10
88.15
 20
32.39999999999999
 30
0.0
  0
POINT
  5
B8
330
17
100
AcDbEntity
  8
КИЗИЛЬНИК БЛЕСТЯЩИЙ
100
AcDbPoint
 10
88.15
 20
33.4
 30
0.0
  0
POINT
  5
B9
330
17
100
AcDbEntity
  8
КИЗИЛЬНИК БЛЕСТЯЩИЙ
100
AcDbPoint
 10
88.15
 20
34.39999999999999
 30
0.0
  0
POINT
  5
BA
330
17
100
AcDbEntity
  8
КИЗИЛЬНИК БЛЕСТЯЩИЙ
100
AcDbPoint
 10
88.15
 20
35.39999999999999
 30
0.0
  0
POINT
  5
BB
330
17
100
AcDbEntity
  8
КИЗИЛЬНИК БЛЕСТЯЩИЙ
100
AcDbPoint
 10
88.15
 20
36.39999999999999
 30
0.0
  0
POINT
  5
BC
330
17
100
AcDbEntity
  8
КИЗИЛЬНИК БЛЕСТЯЩИЙ
100
AcDbPoint
 10
88.15
 20
37.39999999999999
 30
0.0
  0
POINT
  5
BD
330
17
100
AcDbEntity
  8
КИЗИЛЬНИК БЛЕСТЯЩИЙ
100
AcDbPoint
 10
88.15
 20
38.39999999999999
 30
0.0
  0
POINT
  5
BE
330
17
100
AcDbEntity
  8
КИЗИЛЬНИК БЛЕСТЯЩИЙ
100
AcDbPoint
 10
88.15
 20
39.39999999999999
 30
0.0
  0
POINT
  5
BF
330
17
100
AcDbEntity
  8
КИЗИЛЬНИК БЛЕСТЯЩИЙ
100
AcDbPoint
 10
88.15
 20
40.39999999999999
 30
0.0
  0
POINT
  5
C0
330
17
100
AcDbEntity
  8
КИЗИЛЬНИК БЛЕСТЯЩИЙ
100
AcDbPoint
 10
88.15
 20
41.39999999999999
 30
0.0
  0
POINT
  5
C1
330
17
100
AcDbEntity
  8
КИЗИЛЬНИК БЛЕСТЯЩИЙ
100
AcDbPoint
 10
88.15
 20
42.39999999999999
 30
0.0
  0
POINT
  5
C2
330
17
100
AcDbEntity
  8
КИЗИЛЬНИК БЛЕСТЯЩИЙ
100
AcDbPoint
 10
88.15
 20
43.39999999999999
 30
0.0
  0
POINT
  5
C3
330
17
100
AcDbEntity
  8
КИЗИЛЬНИК БЛЕСТЯЩИЙ
100
AcDbPoint
 10
88.15
 20
44.39999999999999
 30
0.0
  0
POINT
  5
C4
330
17
100
AcDbEntity
  8
КИЗИЛЬНИК БЛЕСТЯЩИЙ
100
AcDbPoint
 10
88.15
 20
45.39999999999999
 30
0.0
  0
POINT
  5
C5
330
17
100
AcDbEntity
  8
КИЗИЛЬНИК БЛЕСТЯЩИЙ
100
AcDbPoint
 10
88.15
 20
46.39999999999999
 30
0.0
  0
POINT
  5
C6
330
17
100
AcDbEntity
  8
КИЗИЛЬНИК БЛЕСТЯЩИЙ
100
AcDbPoint
 10
88.15
 20
47.39999999999999
 30
0.0
  0
POINT
  5
C7
330
17
100
AcDbEntity
  8
КИЗИЛЬНИК БЛЕСТЯЩИЙ
100
AcDbPoint
 10
88.15
 20
48.39999999999999
 30
0.0
  0
POINT
  5
C8
330
17
100
AcDbEntity
  8
КИЗИЛЬНИК БЛЕСТЯЩИЙ
100
AcDbPoint
 10
88.15
 20
49.39999999999999
 30
0.0
  0
POINT
  5
C9
330
17
100
AcDbEntity
  8
КИЗИЛЬНИК БЛЕСТЯЩИЙ
100
AcDbPoint
 10
88.15
 20
50.39999999999999
 30
0.0
  0
POINT
  5
CA
330
17
100
AcDbEntity
  8
КИЗИЛЬНИК БЛЕСТЯЩИЙ
100
AcDbPoint
 10
88.15
 20
51.39999999999999
 30
0.0
  0
POINT
  5
CB
330
17
100
AcDbEntity
  8
КИЗИЛЬНИК БЛЕСТЯЩИЙ
100
AcDbPoint
 10
88.15
 20
52.39999999999999
 30
0.0
  0
POINT
  5
CC
330
17
100
AcDbEntity
  8
КИЗИЛЬНИК БЛЕСТЯЩИЙ
100
AcDbPoint
 10
88.15
 20
53.39999999999999
 30
0.0
  0
POINT
  5
CD
330
17
100
AcDbEntity
  8
КИЗИЛЬНИК БЛЕСТЯЩИЙ
100
AcDbPoint
 10
88.15
 20
54.39999999999999
 30
0.0
  0
POINT
  5
CE
330
17
100
AcDbEntity
  8
КИЗИЛЬНИК БЛЕСТЯЩИЙ
100
AcDbPoint
 10
88.15
 20
55.39999999999999
 30
0.0
  0
POINT
  5
CF
330
17
100
AcDbEntity
  8
КИЗИЛЬНИК БЛЕСТЯЩИЙ
100
AcDbPoint
 10
88.15
 20
56.39999999999999
 30
0.0
  0
POINT
  5
D0
330
17
100
AcDbEntity
  8
КИЗИЛЬНИК БЛЕСТЯЩИЙ
100
AcDbPoint
 10
88.1365641250654
 20
57.50914103126633
 30
0.0
  0
POINT
  5
D1
330
17
100
AcDbEntity
  8
КИЗИЛЬНИК БЛЕСТЯЩИЙ
100
AcDbPoint
 10
87.00000000000001
 20
58.150000000000006
 30
0.0
  0
POINT
  5
D2
330
17
100
AcDbEntity
  8
КИЗИЛЬНИК БЛЕСТЯЩИЙ
100
AcDbPoint
 10
86.00000000000001
 20
58.150000000000006
 30
0.0
  0
POINT
  5
D3
330
17
100
AcDbEntity
  8
КИЗИЛЬНИК БЛЕСТЯЩИЙ
100
AcDbPoint
 10
85.00000000000001
 20
58.150000000000006
 30
0.0
  0
POINT
  5
D4
330
17
100
AcDbEntity
  8
КИЗИЛЬНИК БЛЕСТЯЩИЙ
100
AcDbPoint
 10
84.00000000000001
 20
58.150000000000006
 30
0.0
  0
POINT
  5
D5
330
17
100
AcDbEntity
  8
КИЗИЛЬНИК БЛЕСТЯЩИЙ
100
AcDbPoint
 10
83.00000000000001
 20
58.150000000000006
 30
0.0
  0
POINT
  5
D6
330
17
100
AcDbEntity
  8
КИЗИЛЬНИК БЛЕСТЯЩИЙ
100
AcDbPoint
 10
82.00000000000001
 20
58.150000000000006
 30
0.0
  0
POINT
  5
D7
330
17
100
AcDbEntity
  8
КИЗИЛЬНИК БЛЕСТЯЩИЙ
100
AcDbPoint
 10
81.00000000000001
 20
58.150000000000006
 30
0.0
  0
POINT
  5
D8
330
17
100
AcDbEntity
  8
КИЗИЛЬНИК БЛЕСТЯЩИЙ
100
AcDbPoint
 10
80.00000000000001
 20
58.150000000000006
 30
0.0
  0
POINT
  5
D9
330
17
100
AcDbEntity
  8
КИЗИЛЬНИК БЛЕСТЯЩИЙ
100
AcDbPoint
 10
79.00000000000001
 20
58.150000000000006
 30
0.0
  0
POINT
  5
DA
330
17
100
AcDbEntity
  8
КИЗИЛЬНИК БЛЕСТЯЩИЙ
100
AcDbPoint
 10
78.00000000000001
 20
58.150000000000006
 30
0.0
  0
POINT
  5
DB
330
17
100
AcDbEntity
  8
КИЗИЛЬНИК БЛЕСТЯЩИЙ
100
AcDbPoint
 10
77.00000000000001
 20
58.150000000000006
 30
0.0
  0
POINT
  5
DC
330
17
100
AcDbEntity
  8
КИЗИЛЬНИК БЛЕСТЯЩИЙ
100
AcDbPoint
 10
76.00000000000001
 20
58.150000000000006
 30
0.0
  0
POINT
  5
DD
330
17
100
AcDbEntity
  8
КИЗИЛЬНИК БЛЕСТЯЩИЙ
100
AcDbPoint
 10
75.00000000000001
 20
58.150000000000006
 30
0.0
  0
POINT
  5
DE
330
17
100
AcDbEntity
  8
КИЗИЛЬНИК БЛЕСТЯЩИЙ
100
AcDbPoint
 10
74.00000000000001
 20
58.150000000000006
 30
0.0
  0
POINT
  5
DF
330
17
100
AcDbEntity
  8
КИЗИЛЬНИК БЛЕСТЯЩИЙ
100
AcDbPoint
 10
73.00000000000001
 20
58.150000000000006
 30
0.0
  0
POINT
  5
E0
330
17
100
AcDbEntity
  8
КИЗИЛЬНИК БЛЕСТЯЩИЙ
100
AcDbPoint
 10
72.00000000000001
 20
58.150000000000006
 30
0.0
  0
POINT
  5
E1
330
17
100
AcDbEntity
  8
КИЗИЛЬНИК БЛЕСТЯЩИЙ
100
AcDbPoint
 10
71.00000000000001
 20
58.150000000000006
 30
0.0
  0
POINT
  5
E2
330
17
100
AcDbEntity
  8
КИЗИЛЬНИК БЛЕСТЯЩИЙ
100
AcDbPoint
 10
70.00000000000001
 20
58.150000000000006
 30
0.0
  0
POINT
  5
E3
330
17
100
AcDbEntity
  8
КИЗИЛЬНИК БЛЕСТЯЩИЙ
100
AcDbPoint
 10
69.00000000000001
 20
58.150000000000006
 30
0.0
  0
POINT
  5
E4
330
17
100
AcDbEntity
  8
КИЗИЛЬНИК БЛЕСТЯЩИЙ
100
AcDbPoint
 10
68.00000000000001
 20
58.150000000000006
 30
0.0
  0
POINT
  5
E5
330
17
100
AcDbEntity
  8
КИЗИЛЬНИК БЛЕСТЯЩИЙ
100
AcDbPoint
 10
67.00000000000001
 20
58.150000000000006
 30
0.0
  0
POINT
  5
E6
330
17
100
AcDbEntity
  8
КИЗИЛЬНИК БЛЕСТЯЩИЙ
100
AcDbPoint
 10
66.00000000000001
 20
58.150000000000006
 30
0.0
  0
POINT
  5
E7
330
17
100
AcDbEntity
  8
КИЗИЛЬНИК БЛЕСТЯЩИЙ
100
AcDbPoint
 10
65.00000000000001
 20
58.150000000000006
 30
0.0
  0
POINT
  5
E8
330
17
100
AcDbEntity
  8
КИЗИЛЬНИК БЛЕСТЯЩИЙ
100
AcDbPoint
 10
64.00000000000001
 20
58.150000000000006
 30
0.0
  0
POINT
  5
E9
330
17
100
AcDbEntity
  8
КИЗИЛЬНИК БЛЕСТЯЩИЙ
100
AcDbPoint
 10
63.000000000000014
 20
58.150000000000006
 30
0.0
  0
POINT
  5
EA
330
17
100
AcDbEntity
  8
КИЗИЛЬНИК БЛЕСТЯЩИЙ
100
AcDbPoint
 10
62.000000000000014
 20
58.150000000000006
 30
0.0
  0
POINT
  5
EB
330
17
100
AcDbEntity
  8
КИЗИЛЬНИК БЛЕСТЯЩИЙ
100
AcDbPoint
 10
61.000000000000014
 20
58.150000000000006
 30
0.0
  0
POINT
  5
EC
330
17
100
AcDbEntity
  8
КИЗИЛЬНИК БЛЕСТЯЩИЙ
100
AcDbPoint
 10
60.000000000000014
 20
58.150000000000006
 30
0.0
  0
POINT
  5
ED
330
17
100
AcDbEntity
  8
КИЗИЛЬНИК БЛЕСТЯЩИЙ
100
AcDbPoint
 10
59.000000000000014
 20
58.150000000000006
 30
0.0
  0
POINT
  5
EE
330
17
100
AcDbEntity
  8
КИЗИЛЬНИК БЛЕСТЯЩИЙ
100
AcDbPoint
 10
58.000000000000014
 20
58.150000000000006
 30
0.0
  0
POINT
  5
EF
330
17
100
AcDbEntity
  8
КИЗИЛЬНИК БЛЕСТЯЩИЙ
100
AcDbPoint
 10
57.000000000000014
 20
58.150000000000006
 30
0.0
  0
POINT
  5
F0
330
17
100
AcDbEntity
  8
КИЗИЛЬНИК БЛЕСТЯЩИЙ
100
AcDbPoint
 10
56.000000000000014
 20
58.150000000000006
 30
0.0
  0
POINT
  5
F1
330
17
100
AcDbEntity
  8
КИЗИЛЬНИК БЛЕСТЯЩИЙ
100
AcDbPoint
 10
55.000000000000014
 20
58.150000000000006
 30
0.0
  0
POINT
  5
F2
330
17
100
AcDbEntity
  8
КИЗИЛЬНИК БЛЕСТЯЩИЙ
100
AcDbPoint
 10
54.000000000000014
 20
58.150000000000006
 30
0.0
  0
POINT
  5
F3
330
17
100
AcDbEntity
  8
КИЗИЛЬНИК БЛЕСТЯЩИЙ
100
AcDbPoint
 10
53.000000000000014
 20
58.150000000000006
 30
0.0
  0
POINT
  5
F4
330
17
100
AcDbEntity
  8
КИЗИЛЬНИК БЛЕСТЯЩИЙ
100
AcDbPoint
 10
52.000000000000014
 20
58.150000000000006
 30
0.0
  0
POINT
  5
F5
330
17
100
AcDbEntity
  8
КИЗИЛЬНИК БЛЕСТЯЩИЙ
100
AcDbPoint
 10
51.000000000000014
 20
58.150000000000006
 30
0.0
  0
POINT
  5
F6
330
17
100
AcDbEntity
  8
КИЗИЛЬНИК БЛЕСТЯЩИЙ
100
AcDbPoint
 10
50.000000000000014
 20
58.150000000000006
 30
0.0
  0
POINT
  5
F7
330
17
100
AcDbEntity
  8
КИЗИЛЬНИК БЛЕСТЯЩИЙ
100
AcDbPoint
 10
49.000000000000014
 20
58.150000000000006
 30
0.0
  0
POINT
  5
F8
330
17
100
AcDbEntity
  8
КИЗИЛЬНИК БЛЕСТЯЩИЙ
100
AcDbPoint
 10
48.000000000000014
 20
58.150000000000006
 30
0.0
  0
POINT
  5
F9
330
17
100
AcDbEntity
  8
КИЗИЛЬНИК БЛЕСТЯЩИЙ
100
AcDbPoint
 10
47.000000000000014
 20
58.150000000000006
 30
0.0
  0
POINT
  5
FA
330
17
100
AcDbEntity
  8
КИЗИЛЬНИК БЛЕСТЯЩИЙ
100
AcDbPoint
 10
46.000000000000014
 20
58.150000000000006
 30
0.0
  0
POINT
  5
FB
330
17
100
AcDbEntity
  8
КИЗИЛЬНИК БЛЕСТЯЩИЙ
100
AcDbPoint
 10
45.000000000000014
 20
58.150000000000006
 30
0.0
  0
POINT
  5
FC
330
17
100
AcDbEntity
  8
КИЗИЛЬНИК БЛЕСТЯЩИЙ
100
AcDbPoint
 10
44.00000000000002
 20
58.150000000000006
 30
0.0
  0
POINT
  5
FD
330
17
100
AcDbEntity
  8
КИЗИЛЬНИК БЛЕСТЯЩИЙ
100
AcDbPoint
 10
43.000000000000014
 20
58.150000000000006
 30
0.0
  0
POINT
  5
FE
330
17
100
AcDbEntity
  8
КИЗИЛЬНИК БЛЕСТЯЩИЙ
100
AcDbPoint
 10
42.000000000000014
 20
58.150000000000006
 30
0.0
  0
POINT
  5
FF
330
17
100
AcDbEntity
  8
КИЗИЛЬНИК БЛЕСТЯЩИЙ
100
AcDbPoint
 10
41.000000000000014
 20
58.150000000000006
 30
0.0
  0
POINT
  5
100
330
17
100
AcDbEntity
  8
КИЗИЛЬНИК БЛЕСТЯЩИЙ
100
AcDbPoint
 10
40.000000000000014
 20
58.150000000000006
 30
0.0
  0
POINT
  5
101
330
17
100
AcDbEntity
  8
КИЗИЛЬНИК БЛЕСТЯЩИЙ
100
AcDbPoint
 10
39.000000000000014
 20
58.150000000000006
 30
0.0
  0
POINT
  5
102
330
17
100
AcDbEntity
  8
КИЗИЛЬНИК БЛЕСТЯЩИЙ
100
AcDbPoint
 10
38.000000000000014
 20
58.150000000000006
 30
0.0
  0
POINT
  5
103
330
17
100
AcDbEntity
  8
КИЗИЛЬНИК БЛЕСТЯЩИЙ
100
AcDbPoint
 10
37.00000000000001
 20
58.150000000000006
 30
0.0
  0
POINT
  5
104
330
17
100
AcDbEntity
  8
КИЗИЛЬНИК БЛЕСТЯЩИЙ
100
AcDbPoint
 10
36.00000000000002
 20
58.150000000000006
 30
0.0
  0
POINT
  5
105
330
17
100
AcDbEntity
  8
КИЗИЛЬНИК БЛЕСТЯЩИЙ
100
AcDbPoint
 10
35.000000000000014
 20
58.150000000000006
 30
0.0
  0
POINT
  5
106
330
17
100
AcDbEntity
  8
КИЗИЛЬНИК БЛЕСТЯЩИЙ
100
AcDbPoint
 10
34.000000000000014
 20
58.150000000000006
 30
0.0
  0
POINT
  5
107
330
17
100
AcDbEntity
  8
КИЗИЛЬНИК БЛЕСТЯЩИЙ
100
AcDbPoint
 10
33.000000000000014
 20
58.150000000000006
 30
0.0
  0
POINT
  5
108
330
17
100
AcDbEntity
  8
КИЗИЛЬНИК БЛЕСТЯЩИЙ
100
AcDbPoint
 10
32.000000000000014
 20
58.150000000000006
 30
0.0
  0
POINT
  5
109
330
17
100
AcDbEntity
  8
КИЗИЛЬНИК БЛЕСТЯЩИЙ
100
AcDbPoint
 10
31.000000000000014
 20
58.150000000000006
 30
0.0
  0
POINT
  5
10A
330
17
100
AcDbEntity
  8
КИЗИЛЬНИК БЛЕСТЯЩИЙ
100
AcDbPoint
 10
30.000000000000014
 20
58.150000000000006
 30
0.0
  0
POINT
  5
10B
330
17
100
AcDbEntity
  8
КИЗИЛЬНИК БЛЕСТЯЩИЙ
100
AcDbPoint
 10
29.000000000000007
 20
58.150000000000006
 30
0.0
  0
POINT
  5
10C
330
17
100
AcDbEntity
  8
КИЗИЛЬНИК БЛЕСТЯЩИЙ
100
AcDbPoint
 10
28.00000000000002
 20
58.150000000000006
 30
0.0
  0
POINT
  5
10D
330
17
100
AcDbEntity
  8
КИЗИЛЬНИК БЛЕСТЯЩИЙ
100
AcDbPoint
 10
27.000000000000014
 20
58.150000000000006
 30
0.0
  0
POINT
  5
10E
330
17
100
AcDbEntity
  8
КИЗИЛЬНИК БЛЕСТЯЩИЙ
100
AcDbPoint
 10
26.000000000000014
 20
58.150000000000006
 30
0.0
  0
POINT
  5
10F
330
17
100
AcDbEntity
  8
КИЗИЛЬНИК БЛЕСТЯЩИЙ
100
AcDbPoint
 10
25.000000000000014
 20
58.150000000000006
 30
0.0
  0
POINT
  5
110
330
17
100
AcDbEntity
  8
КИЗИЛЬНИК БЛЕСТЯЩИЙ
100
AcDbPoint
 10
24.000000000000014
 20
58.150000000000006
 30
0.0
  0
POINT
  5
111
330
17
100
AcDbEntity
  8
КИЗИЛЬНИК БЛЕСТЯЩИЙ
100
AcDbPoint
 10
23.000000000000014
 20
58.150000000000006
 30
0.0
  0
POINT
  5
112
330
17
100
AcDbEntity
  8
КИЗИЛЬНИК БЛЕСТЯЩИЙ
100
AcDbPoint
 10
22.000000000000014
 20
58.150000000000006
 30
0.0
  0
POINT
  5
113
330
17
100
AcDbEntity
  8
КИЗИЛЬНИК БЛЕСТЯЩИЙ
100
AcDbPoint
 10
21.000000000000014
 20
58.150000000000006
 30
0.0
  0
POINT
  5
114
330
17
100
AcDbEntity
  8
КИЗИЛЬНИК БЛЕСТЯЩИЙ
100
AcDbPoint
 10
20.000000000000014
 20
58.150000000000006
 30
0.0
  0
POINT
  5
115
330
17
100
AcDbEntity
  8
КИЗИЛЬНИК БЛЕСТЯЩИЙ
100
AcDbPoint
 10
19.000000000000014
 20
58.150000000000006
 30
0.0
  0
POINT
  5
116
330
17
100
AcDbEntity
  8
КИЗИЛЬНИК БЛЕСТЯЩИЙ
100
AcDbPoint
 10
18.000000000000014
 20
58.150000000000006
 30
0.0
  0
POINT
  5
117
330
17
100
AcDbEntity
  8
КИЗИЛЬНИК БЛЕСТЯЩИЙ
100
AcDbPoint
 10
17.000000000000014
 20
58.150000000000006
 30
0.0
  0
POINT
  5
118
330
17
100
AcDbEntity
  8
КИЗИЛЬНИК БЛЕСТЯЩИЙ
100
AcDbPoint
 10
16.000000000000014
 20
58.150000000000006
 30
0.0
  0
POINT
  5
119
330
17
100
AcDbEntity
  8
КИЗИЛЬНИК БЛЕСТЯЩИЙ
100
AcDbPoint
 10
15.000000000000014
 20
58.150000000000006
 30
0.0
  0
POINT
  5
11A
330
17
100
AcDbEntity
  8
КИЗИЛЬНИК БЛЕСТЯЩИЙ
100
AcDbPoint
 10
14.000000000000014
 20
58.150000000000006
 30
0.0
  0
POINT
  5
11B
330
17
100
AcDbEntity
  8
КИЗИЛЬНИК БЛЕСТЯЩИЙ
100
AcDbPoint
 10
13.000000000000014
 20
58.150000000000006
 30
0.0
  0
POINT
  5
11C
330
17
100
AcDbEntity
  8
КИЗИЛЬНИК БЛЕСТЯЩИЙ
100
AcDbPoint
 10
12.000000000000014
 20
58.150000000000006
 30
0.0
  0
POINT
  5
11D
330
17
100
AcDbEntity
  8
КИЗИЛЬНИК БЛЕСТЯЩИЙ
100
AcDbPoint
 10
11.000000000000014
 20
58.150000000000006
 30
0.0
  0
POINT
  5
11E
330
17
100
AcDbEntity
  8
КИЗИЛЬНИК БЛЕСТЯЩИЙ
100
AcDbPoint
 10
10.000000000000014
 20
58.150000000000006
 30
0.0
  0
POINT
  5
11F
330
17
100
AcDbEntity
  8
КИЗИЛЬНИК БЛЕСТЯЩИЙ
100
AcDbPoint
 10
9.000000000000014
 20
58.150000000000006
 30
0.0
  0
POINT
  5
120
330
17
100
AcDbEntity
  8
КИЗИЛЬНИК БЛЕСТЯЩИЙ
100
AcDbPoint
 10
8.000000000000014
 20
58.150000000000006
 30
0.0
  0
POINT
  5
121
330
17
100
AcDbEntity
  8
КИЗИЛЬНИК БЛЕСТЯЩИЙ
100
AcDbPoint
 10
7.000000000000014
 20
58.150000000000006
 30
0.0
  0
POINT
  5
122
330
17
100
AcDbEntity
  8
КИЗИЛЬНИК БЛЕСТЯЩИЙ
100
AcDbPoint
 10
6.000000000000014
 20
58.150000000000006
 30
0.0
  0
POINT
  5
123
330
17
100
AcDbEntity
  8
КИЗИЛЬНИК БЛЕСТЯЩИЙ
100
AcDbPoint
 10
5.000000000000014
 20
58.150000000000006
 30
0.0
  0
POINT
  5
124
330
17
100
AcDbEntity
  8
КИЗИЛЬНИК БЛЕСТЯЩИЙ
100
AcDbPoint
 10
4.000000000000014
 20
58.150000000000006
 30
0.0
  0
POINT
  5
125
330
17
100
AcDbEntity
  8
КИЗИЛЬНИК БЛЕСТЯЩИЙ
100
AcDbPoint
 10
3.000000000000014
 20
58.150000000000006
 30
0.0
  0
POINT
  5
126
330
17
100
AcDbEntity
  8
КИЗИЛЬНИК БЛЕСТЯЩИЙ
100
AcDbPoint
 10
1.863435874934603
 20
57.50914103126638
 30
0.0
  0
POINT
  5
127
330
17
100
AcDbEntity
  8
КИЗИЛЬНИК БЛЕСТЯЩИЙ
100
AcDbPoint
 10
1.8499999999999999
 20
56.40000000000002
 30
0.0
  0
POINT
  5
128
330
17
100
AcDbEntity
  8
КИЗИЛЬНИК БЛЕСТЯЩИЙ
100
AcDbPoint
 10
1.8499999999999999
 20
55.40000000000002
 30
0.0
  0
POINT
  5
129
330
17
100
AcDbEntity
  8
КИЗИЛЬНИК БЛЕСТЯЩИЙ
100
AcDbPoint
 10
1.8499999999999999
 20
54.40000000000002
 30
0.0
  0
POINT
  5
12A
330
17
100
AcDbEntity
  8
КИЗИЛЬНИК БЛЕСТЯЩИЙ
100
AcDbPoint
 10
1.8499999999999999
 20
53.40000000000002
 30
0.0
  0
POINT
  5
12B
330
17
100
AcDbEntity
  8
КИЗИЛЬНИК БЛЕСТЯЩИЙ
100
AcDbPoint
 10
1.8499999999999999
 20
52.40000000000002
 30
0.0
  0
POINT
  5
12C
330
17
100
AcDbEntity
  8
КИЗИЛЬНИК БЛЕСТЯЩИЙ
100
AcDbPoint
 10
1.8499999999999999
 20
51.40000000000002
 30
0.0
  0
POINT
  5
12D
330
17
100
AcDbEntity
  8
КИЗИЛЬНИК БЛЕСТЯЩИЙ
100
AcDbPoint
 10
1.8499999999999999
 20
50.40000000000002
 30
0.0
  0
POINT
  5
12E
330
17
100
AcDbEntity
  8
КИЗИЛЬНИК БЛЕСТЯЩИЙ
100
AcDbPoint
 10
1.8499999999999999
 20
49.40000000000002
 30
0.0
  0
POINT
  5
12F
330
17
100
AcDbEntity
  8
КИЗИЛЬНИК БЛЕСТЯЩИЙ
100
AcDbPoint
 10
1.8499999999999999
 20
48.40000000000002
 30
0.0
  0
POINT
  5
130
330
17
100
AcDbEntity
  8
КИЗИЛЬНИК БЛЕСТЯЩИЙ
100
AcDbPoint
 10
1.8499999999999999
 20
47.40000000000002
 30
0.0
  0
POINT
  5
131
330
17
100
AcDbEntity
  8
КИЗИЛЬНИК БЛЕСТЯЩИЙ
100
AcDbPoint
 10
1.8499999999999999
 20
46.40000000000002
 30
0.0
  0
POINT
  5
132
330
17
100
AcDbEntity
  8
КИЗИЛЬНИК БЛЕСТЯЩИЙ
100
AcDbPoint
 10
1.8499999999999999
 20
45.40000000000002
 30
0.0
  0
POINT
  5
133
330
17
100
AcDbEntity
  8
КИЗИЛЬНИК БЛЕСТЯЩИЙ
100
AcDbPoint
 10
1.8499999999999999
 20
44.40000000000002
 30
0.0
  0
POINT
  5
134
330
17
100
AcDbEntity
  8
КИЗИЛЬНИК БЛЕСТЯЩИЙ
100
AcDbPoint
 10
1.8499999999999999
 20
43.40000000000002
 30
0.0
  0
POINT
  5
135
330
17
100
AcDbEntity
  8
КИЗИЛЬНИК БЛЕСТЯЩИЙ
100
AcDbPoint
 10
1.8499999999999999
 20
42.40000000000002
 30
0.0
  0
POINT
  5
136
330
17
100
AcDbEntity
  8
КИЗИЛЬНИК БЛЕСТЯЩИЙ
100
AcDbPoint
 10
1.8499999999999999
 20
41.40000000000002
 30
0.0
  0
POINT
  5
137
330
17
100
AcDbEntity
  8
КИЗИЛЬНИК БЛЕСТЯЩИЙ
100
AcDbPoint
 10
1.8499999999999999
 20
40.40000000000002
 30
0.0
  0
POINT
  5
138
330
17
100
AcDbEntity
  8
КИЗИЛЬНИК БЛЕСТЯЩИЙ
100
AcDbPoint
 10
1.8499999999999999
 20
39.40000000000002
 30
0.0
  0
POINT
  5
139
330
17
100
AcDbEntity
  8
КИЗИЛЬНИК БЛЕСТЯЩИЙ
100
AcDbPoint
 10
1.8499999999999999
 20
38.40000000000002
 30
0.0
  0
POINT
  5
13A
330
17
100
AcDbEntity
  8
КИЗИЛЬНИК БЛЕСТЯЩИЙ
100
AcDbPoint
 10
1.8499999999999999
 20
37.40000000000002
 30
0.0
  0
POINT
  5
13B
330
17
100
AcDbEntity
  8
КИЗИЛЬНИК БЛЕСТЯЩИЙ
100
AcDbPoint
 10
1.8499999999999999
 20
36.40000000000002
 30
0.0
  0
POINT
  5
13C
330
17
100
AcDbEntity
  8
КИЗИЛЬНИК БЛЕСТЯЩИЙ
100
AcDbPoint
 10
1.8499999999999999
 20
35.40000000000002
 30
0.0
  0
POINT
  5
13D
330
17
100
AcDbEntity
  8
КИЗИЛЬНИК БЛЕСТЯЩИЙ
100
AcDbPoint
 10
1.8499999999999999
 20
34.40000000000002
 30
0.0
  0
POINT
  5
13E
330
17
100
AcDbEntity
  8
КИЗИЛЬНИК БЛЕСТЯЩИЙ
100
AcDbPoint
 10
1.8499999999999999
 20
33.40000000000002
 30
0.0
  0
POINT
  5
13F
330
17
100
AcDbEntity
  8
КИЗИЛЬНИК БЛЕСТЯЩИЙ
100
AcDbPoint
 10
1.8499999999999999
 20
32.40000000000002
 30
0.0
  0
POINT
  5
140
330
17
100
AcDbEntity
  8
КИЗИЛЬНИК БЛЕСТЯЩИЙ
100
AcDbPoint
 10
1.8499999999999999
 20
31.40000000000002
 30
0.0
  0
POINT
  5
141
330
17
100
AcDbEntity
  8
КИЗИЛЬНИК БЛЕСТЯЩИЙ
100
AcDbPoint
 10
1.8499999999999999
 20
30.40000000000002
 30
0.0
  0
POINT
  5
142
330
17
100
AcDbEntity
  8
КИЗИЛЬНИК БЛЕСТЯЩИЙ
100
AcDbPoint
 10
1.8499999999999999
 20
29.400000000000023
 30
0.0
  0
POINT
  5
143
330
17
100
AcDbEntity
  8
КИЗИЛЬНИК БЛЕСТЯЩИЙ
100
AcDbPoint
 10
1.8499999999999999
 20
28.40000000000002
 30
0.0
  0
POINT
  5
144
330
17
100
AcDbEntity
  8
КИЗИЛЬНИК БЛЕСТЯЩИЙ
100
AcDbPoint
 10
1.8499999999999999
 20
27.40000000000002
 30
0.0
  0
POINT
  5
145
330
17
100
AcDbEntity
  8
КИЗИЛЬНИК БЛЕСТЯЩИЙ
100
AcDbPoint
 10
1.8499999999999999
 20
26.400000000000023
 30
0.0
  0
POINT
  5
146
330
17
100
AcDbEntity
  8
КИЗИЛЬНИК БЛЕСТЯЩИЙ
100
AcDbPoint
 10
1.8499999999999999
 20
25.40000000000002
 30
0.0
  0
POINT
  5
147
330
17
100
AcDbEntity
  8
КИЗИЛЬНИК БЛЕСТЯЩИЙ
100
AcDbPoint
 10
1.8499999999999999
 20
24.40000000000002
 30
0.0
  0
POINT
  5
148
330
17
100
AcDbEntity
  8
КИЗИЛЬНИК БЛЕСТЯЩИЙ
100
AcDbPoint
 10
1.8499999999999999
 20
23.40000000000002
 30
0.0
  0
POINT
  5
149
330
17
100
AcDbEntity
  8
КИЗИЛЬНИК БЛЕСТЯЩИЙ
100
AcDbPoint
 10
1.8499999999999999
 20
22.40000000000002
 30
0.0
  0
POINT
  5
14A
330
17
100
AcDbEntity
  8
КИЗИЛЬНИК БЛЕСТЯЩИЙ
100
AcDbPoint
 10
1.8499999999999999
 20
21.40000000000002
 30
0.0
  0
POINT
  5
14B
330
17
100
AcDbEntity
  8
КИЗИЛЬНИК БЛЕСТЯЩИЙ
100
AcDbPoint
 10
1.8499999999999999
 20
20.40000000000002
 30
0.0
  0
POINT
  5
14C
330
17
100
AcDbEntity
  8
КИЗИЛЬНИК БЛЕСТЯЩИЙ
100
AcDbPoint
 10
1.8499999999999999
 20
19.40000000000002
 30
0.0
  0
POINT
  5
14D
330
17
100
AcDbEntity
  8
КИЗИЛЬНИК БЛЕСТЯЩИЙ
100
AcDbPoint
 10
1.8499999999999999
 20
18.40000000000002
 30
0.0
  0
POINT
  5
14E
330
17
100
AcDbEntity
  8
КИЗИЛЬНИК БЛЕСТЯЩИЙ
100
AcDbPoint
 10
1.8499999999999999
 20
17.40000000000002
 30
0.0
  0
POINT
  5
14F
330
17
100
AcDbEntity
  8
КИЗИЛЬНИК БЛЕСТЯЩИЙ
100
AcDbPoint
 10
1.8499999999999999
 20
16.40000000000002
 30
0.0
  0
POINT
  5
150
330
17
100
AcDbEntity
  8
КИЗИЛЬНИК БЛЕСТЯЩИЙ
100
AcDbPoint
 10
1.8499999999999999
 20
15.40000000000002
 30
0.0
  0
POINT
  5
151
330
17
100
AcDbEntity
  8
КИЗИЛЬНИК БЛЕСТЯЩИЙ
100
AcDbPoint
 10
1.8499999999999999
 20
14.40000000000002
 30
0.0
  0
POINT
  5
152
330
17
100
AcDbEntity
  8
КИЗИЛЬНИК БЛЕСТЯЩИЙ
100
AcDbPoint
 10
1.8499999999999999
 20
13.40000000000002
 30
0.0
  0
POINT
  5
153
330
17
100
AcDbEntity
  8
КИЗИЛЬНИК БЛЕСТЯЩИЙ
100
AcDbPoint
 10
1.8499999999999999
 20
12.40000000000002
 30
0.0
  0
POINT
  5
154
330
17
100
AcDbEntity
  8
КИЗИЛЬНИК БЛЕСТЯЩИЙ
100
AcDbPoint
 10
1.8499999999999999
 20
11.40000000000002
 30
0.0
  0
POINT
  5
155
330
17
100
AcDbEntity
  8
КИЗИЛЬНИК БЛЕСТЯЩИЙ
100
AcDbPoint
 10
1.8499999999999999
 20
10.40000000000002
 30
0.0
  0
POINT
  5
156
330
17
100
AcDbEntity
  8
КИЗИЛЬНИК БЛЕСТЯЩИЙ
100
AcDbPoint
 10
1.8499999999999999
 20
9.40000000000002
 30
0.0
  0
POINT
  5
157
330
17
100
AcDbEntity
  8
КИЗИЛЬНИК БЛЕСТЯЩИЙ
100
AcDbPoint
 10
1.8499999999999999
 20
8.40000000000002
 30
0.0
  0
POINT
  5
158
330
17
100
AcDbEntity
  8
КИЗИЛЬНИК БЛЕСТЯЩИЙ
100
AcDbPoint
 10
1.8499999999999999
 20
7.40000000000002
 30
0.0
  0
POINT
  5
159
330
17
100
AcDbEntity
  8
КИЗИЛЬНИК БЛЕСТЯЩИЙ
100
AcDbPoint
 10
1.8499999999999999
 20
6.40000000000002
 30
0.0
  0
POINT
  5
15A
330
17
100
AcDbEntity
  8
КИЗИЛЬНИК БЛЕСТЯЩИЙ
100
AcDbPoint
 10
1.8499999999999999
 20
5.40000000000002
 30
0.0
  0
POINT
  5
15B
330
17
100
AcDbEntity
  8
КИЗИЛЬНИК БЛЕСТЯЩИЙ
100
AcDbPoint
 10
1.8499999999999999
 20
4.40000000000002
 30
0.0
  0
POINT
  5
15C
330
17
100
AcDbEntity
  8
КИЗИЛЬНИК БЛЕСТЯЩИЙ
100
AcDbPoint
 10
1.8499999999999999
 20
3.40000000000002
 30
0.0
  0
POINT
  5
15D
330
17
100
AcDbEntity
  8
КИЗИЛЬНИК БЛЕСТЯЩИЙ
100
AcDbPoint
 10
1.8499999999999999
 20
2.40000000000002
 30
0.0
  0
POINT
  5
15E
330
17
100
AcDbEntity
  8
КИЗИЛЬНИК БЛЕСТЯЩИЙ
100
AcDbPoint
 10
3.3
 20
2.75
 30
0.0
  0
POINT
  5
15F
330
17
100
AcDbEntity
  8
КИЗИЛЬНИК БЛЕСТЯЩИЙ
100
AcDbPoint
 10
4.3
 20
2.75
 30
0.0
  0
POINT
  5
160
330
17
100
AcDbEntity
  8
КИЗИЛЬНИК БЛЕСТЯЩИЙ
100
AcDbPoint
 10
5.3
 20
2.75
 30
0.0
  0
POINT
  5
161
330
17
100
AcDbEntity
  8
КИЗИЛЬНИК БЛЕСТЯЩИЙ
100
AcDbPoint
 10
6.3
 20
2.75
 30
0.0
  0
POINT
  5
162
330
17
100
AcDbEntity
  8
КИЗИЛЬНИК БЛЕСТЯЩИЙ
100
AcDbPoint
 10
7.3
 20
2.75
 30
0.0
  0
POINT
  5
163
330
17
100
AcDbEntity
  8
КИЗИЛЬНИК БЛЕСТЯЩИЙ
100
AcDbPoint
 10
8.3
 20
2.75
 30
0.0
  0
POINT
  5
164
330
17
100
AcDbEntity
  8
КИЗИЛЬНИК БЛЕСТЯЩИЙ
100
AcDbPoint
 10
9.3
 20
2.75
 30
0.0
  0
POINT
  5
165
330
17
100
AcDbEntity
  8
КИЗИЛЬНИК БЛЕСТЯЩИЙ
100
AcDbPoint
 10
10.3
 20
2.75
 30
0.0
  0
POINT
  5
166
330
17
100
AcDbEntity
  8
КИЗИЛЬНИК БЛЕСТЯЩИЙ
100
AcDbPoint
 10
11.3
 20
2.75
 30
0.0
  0
POINT
  5
167
330
17
100
AcDbEntity
  8
КИЗИЛЬНИК БЛЕСТЯЩИЙ
100
AcDbPoint
 10
12.3
 20
2.75
 30
0.0
  0
POINT
  5
168
330
17
100
AcDbEntity
  8
КИЗИЛЬНИК БЛЕСТЯЩИЙ
100
AcDbPoint
 10
13.3
 20
2.75
 30
0.0
  0
POINT
  5
169
330
17
100
AcDbEntity
  8
КИЗИЛЬНИК БЛЕСТЯЩИЙ
100
AcDbPoint
 10
14.3
 20
2.75
 30
0.0
  0
POINT
  5
16A
330
17
100
AcDbEntity
  8
КИЗИЛЬНИК БЛЕСТЯЩИЙ
100
AcDbPoint
 10
15.3
 20
2.75
 30
0.0
  0
POINT
  5
16B
330
17
100
AcDbEntity
  8
КИЗИЛЬНИК БЛЕСТЯЩИЙ
100
AcDbPoint
 10
16.3
 20
2.75
 30
0.0
  0
POINT
  5
16C
330
17
100
AcDbEntity
  8
КИЗИЛЬНИК БЛЕСТЯЩИЙ
100
AcDbPoint
 10
17.3
 20
2.75
 30
0.0
  0
POINT
  5
16D
330
17
100
AcDbEntity
  8
КИЗИЛЬНИК БЛЕСТЯЩИЙ
100
AcDbPoint
 10
18.3
 20
2.75
 30
0.0
  0
POINT
  5
16E
330
17
100
AcDbEntity
  8
КИЗИЛЬНИК БЛЕСТЯЩИЙ
100
AcDbPoint
 10
19.3
 20
2.75
 30
0.0
  0
POINT
  5
16F
330
17
100
AcDbEntity
  8
КИЗИЛЬНИК БЛЕСТЯЩИЙ
100
AcDbPoint
 10
20.3
 20
2.75
 30
0.0
  0
POINT
  5
170
330
17
100
AcDbEntity
  8
КИЗИЛЬНИК БЛЕСТЯЩИЙ
100
AcDbPoint
 10
21.3
 20
2.75
 30
0.0
  0
POINT
  5
171
330
17
100
AcDbEntity
  8
КИЗИЛЬНИК БЛЕСТЯЩИЙ
100
AcDbPoint
 10
22.3
 20
2.75
 30
0.0
  0
POINT
  5
172
330
17
100
AcDbEntity
  8
КИЗИЛЬНИК БЛЕСТЯЩИЙ
100
AcDbPoint
 10
23.3
 20
2.75
 30
0.0
  0
POINT
  5
173
330
17
100
AcDbEntity
  8
КИЗИЛЬНИК БЛЕСТЯЩИЙ
100
AcDbPoint
 10
24.300000000000004
 20
2.75
 30
0.0
  0
POINT
  5
174
330
17
100
AcDbEntity
  8
КИЗИЛЬНИК БЛЕСТЯЩИЙ
100
AcDbPoint
 10
25.3
 20
2.75
 30
0.0
  0
POINT
  5
175
330
17
100
AcDbEntity
  8
КИЗИЛЬНИК БЛЕСТЯЩИЙ
100
AcDbPoint
 10
26.3
 20
2.75
 30
0.0
  0
POINT
  5
176
330
17
100
AcDbEntity
  8
КИЗИЛЬНИК БЛЕСТЯЩИЙ
100
AcDbPoint
 10
27.3
 20
2.75
 30
0.0
  0
POINT
  5
177
330
17
100
AcDbEntity
  8
КИЗИЛЬНИК БЛЕСТЯЩИЙ
100
AcDbPoint
 10
28.300000000000004
 20
2.75
 30
0.0
  0
POINT
  5
178
330
17
100
AcDbEntity
  8
КИЗИЛЬНИК БЛЕСТЯЩИЙ
100
AcDbPoint
 10
29.3
 20
2.75
 30
0.0
  0
POINT
  5
179
330
17
100
AcDbEntity
  8
КИЗИЛЬНИК БЛЕСТЯЩИЙ
100
AcDbPoint
 10
30.3
 20
2.75
 30
0.0
  0
POINT
  5
17A
330
17
100
AcDbEntity
  8
КИЗИЛЬНИК БЛЕСТЯЩИЙ
100
AcDbPoint
 10
31.3
 20
2.75
 30
0.0
  0
POINT
  5
17B
330
17
100
AcDbEntity
  8
КИЗИЛЬНИК БЛЕСТЯЩИЙ
100
AcDbPoint
 10
32.300000000000004
 20
2.75
 30
0.0
  0
POINT
  5
17C
330
17
100
AcDbEntity
  8
КИЗИЛЬНИК БЛЕСТЯЩИЙ
100
AcDbPoint
 10
33.3
 20
2.75
 30
0.0
  0
POINT
  5
17D
330
17
100
AcDbEntity
  8
КИЗИЛЬНИК БЛЕСТЯЩИЙ
100
AcDbPoint
 10
34.3
 20
2.75
 30
0.0
  0
POINT
  5
17E
330
17
100
AcDbEntity
  8
КИЗИЛЬНИК БЛЕСТЯЩИЙ
100
AcDbPoint
 10
35.3
 20
2.75
 30
0.0
  0
POINT
  5
17F
330
17
100
AcDbEntity
  8
КИЗИЛЬНИК БЛЕСТЯЩИЙ
100
AcDbPoint
 10
36.3
 20
2.75
 30
0.0
  0
POINT
  5
180
330
17
100
AcDbEntity
  8
КИЗИЛЬНИК БЛЕСТЯЩИЙ
100
AcDbPoint
 10
37.3
 20
2.75
 30
0.0
  0
POINT
  5
181
330
17
100
AcDbEntity
  8
КИЗИЛЬНИК БЛЕСТЯЩИЙ
100
AcDbPoint
 10
38.3
 20
2.75
 30
0.0
  0
POINT
  5
182
330
17
100
AcDbEntity
  8
КИЗИЛЬНИК БЛЕСТЯЩИЙ
100
AcDbPoint
 10
40.3
 20
2.75
 30
0.0
  0
POINT
  5
183
330
17
100
AcDbEntity
  8
КИЗИЛЬНИК БЛЕСТЯЩИЙ
100
AcDbPoint
 10
41.3
 20
2.75
 30
0.0
  0
POINT
  5
184
330
17
100
AcDbEntity
  8
КИЗИЛЬНИК БЛЕСТЯЩИЙ
100
AcDbPoint
 10
42.3
 20
2.75
 30
0.0
  0
POINT
  5
185
330
17
100
AcDbEntity
  8
КИЗИЛЬНИК БЛЕСТЯЩИЙ
100
AcDbPoint
 10
47.29999999999999
 20
2.75
 30
0.0
  0
POINT
  5
186
330
17
100
AcDbEntity
  8
КИЗИЛЬНИК БЛЕСТЯЩИЙ
100
AcDbPoint
 10
48.3
 20
2.75
 30
0.0
  0
POINT
  5
187
330
17
100
AcDbEntity
  8
КИЗИЛЬНИК БЛЕСТЯЩИЙ
100
AcDbPoint
 10
49.3
 20
2.75
 30
0.0
  0
POINT
  5
188
330
17
100
AcDbEntity
  8
КИЗИЛЬНИК БЛЕСТЯЩИЙ
100
AcDbPoint
 10
52.3
 20
2.75
 30
0.0
  0
POINT
  5
189
330
17
100
AcDbEntity
  8
КИЗИЛЬНИК БЛЕСТЯЩИЙ
100
AcDbPoint
 10
53.3
 20
2.75
 30
0.0
  0
POINT
  5
18A
330
17
100
AcDbEntity
  8
КИЗИЛЬНИК БЛЕСТЯЩИЙ
100
AcDbPoint
 10
54.300000000000004
 20
2.75
 30
0.0
  0
POINT
  5
18B
330
17
100
AcDbEntity
  8
КИЗИЛЬНИК БЛЕСТЯЩИЙ
100
AcDbPoint
 10
55.29999999999999
 20
2.75
 30
0.0
  0
POINT
  5
18C
330
17
100
AcDbEntity
  8
КИЗИЛЬНИК БЛЕСТЯЩИЙ
100
AcDbPoint
 10
56.3
 20
2.75
 30
0.0
  0
POINT
  5
18D
330
17
100
AcDbEntity
  8
КИЗИЛЬНИК БЛЕСТЯЩИЙ
100
AcDbPoint
 10
57.3
 20
2.75
 30
0.0
  0
POINT
  5
18E
330
17
100
AcDbEntity
  8
КИЗИЛЬНИК БЛЕСТЯЩИЙ
100
AcDbPoint
 10
58.3
 20
2.75
 30
0.0
  0
POINT
  5
18F
330
17
100
AcDbEntity
  8
КИЗИЛЬНИК БЛЕСТЯЩИЙ
100
AcDbPoint
 10
59.3
 20
2.75
 30
0.0
  0
POINT
  5
190
330
17
100
AcDbEntity
  8
КИЗИЛЬНИК БЛЕСТЯЩИЙ
100
AcDbPoint
 10
60.3
 20
2.75
 30
0.0
  0
POINT
  5
191
330
17
100
AcDbEntity
  8
КИЗИЛЬНИК БЛЕСТЯЩИЙ
100
AcDbPoint
 10
61.3
 20
2.75
 30
0.0
  0
POINT
  5
192
330
17
100
AcDbEntity
  8
КИЗИЛЬНИК БЛЕСТЯЩИЙ
100
AcDbPoint
 10
62.300000000000004
 20
2.75
 30
0.0
  0
POINT
  5
193
330
17
100
AcDbEntity
  8
КИЗИЛЬНИК БЛЕСТЯЩИЙ
100
AcDbPoint
 10
63.29999999999999
 20
2.75
 30
0.0
  0
POINT
  5
194
330
17
100
AcDbEntity
  8
КИЗИЛЬНИК БЛЕСТЯЩИЙ
100
AcDbPoint
 10
64.3
 20
2.75
 30
0.0
  0
POINT
  5
195
330
17
100
AcDbEntity
  8
КИЗИЛЬНИК БЛЕСТЯЩИЙ
100
AcDbPoint
 10
65.3
 20
2.75
 30
0.0
  0
POINT
  5
196
330
17
100
AcDbEntity
  8
КИЗИЛЬНИК БЛЕСТЯЩИЙ
100
AcDbPoint
 10
66.3
 20
2.75
 30
0.0
  0
POINT
  5
197
330
17
100
AcDbEntity
  8
КИЗИЛЬНИК БЛЕСТЯЩИЙ
100
AcDbPoint
 10
67.3
 20
2.75
 30
0.0
  0
POINT
  5
198
330
17
100
AcDbEntity
  8
КИЗИЛЬНИК БЛЕСТЯЩИЙ
100
AcDbPoint
 10
68.3
 20
2.75
 30
0.0
  0
POINT
  5
199
330
17
100
AcDbEntity
  8
КИЗИЛЬНИК БЛЕСТЯЩИЙ
100
AcDbPoint
 10
69.3
 20
2.75
 30
0.0
  0
POINT
  5
19A
330
17
100
AcDbEntity
  8
КИЗИЛЬНИК БЛЕСТЯЩИЙ
100
AcDbPoint
 10
70.3
 20
2.75
 30
0.0
  0
POINT
  5
19B
330
17
100
AcDbEntity
  8
КИЗИЛЬНИК БЛЕСТЯЩИЙ
100
AcDbPoint
 10
71.3
 20
2.75
 30
0.0
  0
POINT
  5
19C
330
17
100
AcDbEntity
  8
КИЗИЛЬНИК БЛЕСТЯЩИЙ
100
AcDbPoint
 10
72.3
 20
2.75
 30
0.0
  0
POINT
  5
19D
330
17
100
AcDbEntity
  8
КИЗИЛЬНИК БЛЕСТЯЩИЙ
100
AcDbPoint
 10
73.3
 20
2.75
 30
0.0
  0
POINT
  5
19E
330
17
100
AcDbEntity
  8
КИЗИЛЬНИК БЛЕСТЯЩИЙ
100
AcDbPoint
 10
74.3
 20
2.75
 30
0.0
  0
POINT
  5
19F
330
17
100
AcDbEntity
  8
КИЗИЛЬНИК БЛЕСТЯЩИЙ
100
AcDbPoint
 10
75.3
 20
2.75
 30
0.0
  0
POINT
  5
1A0
330
17
100
AcDbEntity
  8
КИЗИЛЬНИК БЛЕСТЯЩИЙ
100
AcDbPoint
 10
76.3
 20
2.75
 30
0.0
  0
POINT
  5
1A1
330
17
100
AcDbEntity
  8
КИЗИЛЬНИК БЛЕСТЯЩИЙ
100
AcDbPoint
 10
77.3
 20
2.75
 30
0.0
  0
POINT
  5
1A2
330
17
100
AcDbEntity
  8
КИЗИЛЬНИК БЛЕСТЯЩИЙ
100
AcDbPoint
 10
78.3
 20
2.75
 30
0.0
  0
POINT
  5
1A3
330
17
100
AcDbEntity
  8
КИЗИЛЬНИК БЛЕСТЯЩИЙ
100
AcDbPoint
 10
79.3
 20
2.75
 30
0.0
  0
POINT
  5
1A4
330
17
100
AcDbEntity
  8
КИЗИЛЬНИК БЛЕСТЯЩИЙ
100
AcDbPoint
 10
80.3
 20
2.75
 30
0.0
  0
POINT
  5
1A5
330
17
100
AcDbEntity
  8
КИЗИЛЬНИК БЛЕСТЯЩИЙ
100
AcDbPoint
 10
81.3
 20
2.75
 30
0.0
  0
POINT
  5
1A6
330
17
100
AcDbEntity
  8
КИЗИЛЬНИК БЛЕСТЯЩИЙ
100
AcDbPoint
 10
82.3
 20
2.75
 30
0.0
  0
POINT
  5
1A7
330
17
100
AcDbEntity
  8
КИЗИЛЬНИК БЛЕСТЯЩИЙ
100
AcDbPoint
 10
83.3
 20
2.75
 30
0.0
  0
POINT
  5
1A8
330
17
100
AcDbEntity
  8
КИЗИЛЬНИК БЛЕСТЯЩИЙ
100
AcDbPoint
 10
84.3
 20
2.75
 30
0.0
  0
POINT
  5
1A9
330
17
100
AcDbEntity
  8
КИЗИЛЬНИК БЛЕСТЯЩИЙ
100
AcDbPoint
 10
85.3
 20
2.75
 30
0.0
  0
POINT
  5
1AA
330
17
100
AcDbEntity
  8
КИЗИЛЬНИК БЛЕСТЯЩИЙ
100
AcDbPoint
 10
86.3
 20
2.75
 30
0.0
  0
POINT
  5
1AB
330
17
100
AcDbEntity
  8
КИЗИЛЬНИК БЛЕСТЯЩИЙ
100
AcDbPoint
 10
87.25030581326632
 20
2.7472476806031287
 30
0.0
  0
POINT
  5
1AC
330
17
100
AcDbEntity
  8
КИЗИЛЬНИК БЛЕСТЯЩИЙ
100
AcDbPoint
 10
87.25
 20
3.899999999999994
 30
0.0
  0
POINT
  5
1AD
330
17
100
AcDbEntity
  8
КИЗИЛЬНИК БЛЕСТЯЩИЙ
100
AcDbPoint
 10
87.25
 20
4.899999999999994
 30
0.0
  0
POINT
  5
1AE
330
17
100
AcDbEntity
  8
КИЗИЛЬНИК БЛЕСТЯЩИЙ
100
AcDbPoint
 10
87.25
 20
5.899999999999995
 30
0.0
  0
POINT
  5
1AF
330
17
100
AcDbEntity
  8
КИЗИЛЬНИК БЛЕСТЯЩИЙ
100
AcDbPoint
 10
87.25
 20
6.899999999999994
 30
0.0
  0
POINT
  5
1B0
330
17
100
AcDbEntity
  8
КИЗИЛЬНИК БЛЕСТЯЩИЙ
100
AcDbPoint
 10
87.25
 20
7.899999999999994
 30
0.0
  0
POINT
  5
1B1
330
17
100
AcDbEntity
  8
КИЗИЛЬНИК БЛЕСТЯЩИЙ
100
AcDbPoint
 10
87.25
 20
8.899999999999995
 30
0.0
  0
POINT
  5
1B2
330
17
100
AcDbEntity
  8
КИЗИЛЬНИК БЛЕСТЯЩИЙ
100
AcDbPoint
 10
87.25
 20
9.899999999999995
 30
0.0
  0
POINT
  5
1B3
330
17
100
AcDbEntity
  8
КИЗИЛЬНИК БЛЕСТЯЩИЙ
100
AcDbPoint
 10
87.25
 20
10.899999999999995
 30
0.0
  0
POINT
  5
1B4
330
17
100
AcDbEntity
  8
КИЗИЛЬНИК БЛЕСТЯЩИЙ
100
AcDbPoint
 10
87.25
 20
11.899999999999995
 30
0.0
  0
POINT
  5
1B5
330
17
100
AcDbEntity
  8
КИЗИЛЬНИК БЛЕСТЯЩИЙ
100
AcDbPoint
 10
87.25
 20
12.899999999999995
 30
0.0
  0
POINT
  5
1B6
330
17
100
AcDbEntity
  8
КИЗИЛЬНИК БЛЕСТЯЩИЙ
100
AcDbPoint
 10
87.25
 20
13.899999999999995
 30
0.0
  0
POINT
  5
1B7
330
17
100
AcDbEntity
  8
КИЗИЛЬНИК БЛЕСТЯЩИЙ
100
AcDbPoint
 10
87.25
 20
14.899999999999995
 30
0.0
  0
POINT
  5
1B8
330
17
100
AcDbEntity
  8
КИЗИЛЬНИК БЛЕСТЯЩИЙ
100
AcDbPoint
 10
87.25
 20
15.899999999999995
 30
0.0
  0
POINT
  5
1B9
330
17
100
AcDbEntity
  8
КИЗИЛЬНИК БЛЕСТЯЩИЙ
100
AcDbPoint
 10
87.25
 20
16.899999999999995
 30
0.0
  0
POINT
  5
1BA
330
17
100
AcDbEntity
  8
КИЗИЛЬНИК БЛЕСТЯЩИЙ
100
AcDbPoint
 10
87.25
 20
17.899999999999995
 30
0.0
  0
POINT
  5
1BB
330
17
100
AcDbEntity
  8
КИЗИЛЬНИК БЛЕСТЯЩИЙ
100
AcDbPoint
 10
87.25
 20
18.899999999999995
 30
0.0
  0
POINT
  5
1BC
330
17
100
AcDbEntity
  8
КИЗИЛЬНИК БЛЕСТЯЩИЙ
100
AcDbPoint
 10
87.25
 20
19.899999999999995
 30
0.0
  0
POINT
  5
1BD
330
17
100
AcDbEntity
  8
КИЗИЛЬНИК БЛЕСТЯЩИЙ
100
AcDbPoint
 10
87.25
 20
20.899999999999995
 30
0.0
  0
POINT
  5
1BE
330
17
100
AcDbEntity
  8
КИЗИЛЬНИК БЛЕСТЯЩИЙ
100
AcDbPoint
 10
87.25
 20
21.899999999999995
 30
0.0
  0
POINT
  5
1BF
330
17
100
AcDbEntity
  8
КИЗИЛЬНИК БЛЕСТЯЩИЙ
100
AcDbPoint
 10
87.25
 20
22.899999999999995
 30
0.0
  0
POINT
  5
1C0
330
17
100
AcDbEntity
  8
КИЗИЛЬНИК БЛЕСТЯЩИЙ
100
AcDbPoint
 10
87.25
 20
23.899999999999995
 30
0.0
  0
POINT
  5
1C1
330
17
100
AcDbEntity
  8
КИЗИЛЬНИК БЛЕСТЯЩИЙ
100
AcDbPoint
 10
87.25
 20
24.899999999999995
 30
0.0
  0
POINT
  5
1C2
330
17
100
AcDbEntity
  8
КИЗИЛЬНИК БЛЕСТЯЩИЙ
100
AcDbPoint
 10
87.25
 20
25.899999999999995
 30
0.0
  0
POINT
  5
1C3
330
17
100
AcDbEntity
  8
КИЗИЛЬНИК БЛЕСТЯЩИЙ
100
AcDbPoint
 10
87.25
 20
26.899999999999995
 30
0.0
  0
POINT
  5
1C4
330
17
100
AcDbEntity
  8
КИЗИЛЬНИК БЛЕСТЯЩИЙ
100
AcDbPoint
 10
87.25
 20
27.899999999999995
 30
0.0
  0
POINT
  5
1C5
330
17
100
AcDbEntity
  8
КИЗИЛЬНИК БЛЕСТЯЩИЙ
100
AcDbPoint
 10
87.25
 20
28.899999999999995
 30
0.0
  0
POINT
  5
1C6
330
17
100
AcDbEntity
  8
КИЗИЛЬНИК БЛЕСТЯЩИЙ
100
AcDbPoint
 10
87.25
 20
29.899999999999995
 30
0.0
  0
POINT
  5
1C7
330
17
100
AcDbEntity
  8
КИЗИЛЬНИК БЛЕСТЯЩИЙ
100
AcDbPoint
 10
87.25
 20
30.9
 30
0.0
  0
POINT
  5
1C8
330
17
100
AcDbEntity
  8
КИЗИЛЬНИК БЛЕСТЯЩИЙ
100
AcDbPoint
 10
87.25
 20
31.899999999999995
 30
0.0
  0
POINT
  5
1C9
330
17
100
AcDbEntity
  8
КИЗИЛЬНИК БЛЕСТЯЩИЙ
100
AcDbPoint
 10
87.25
 20
32.89999999999999
 30
0.0
  0
POINT
  5
1CA
330
17
100
AcDbEntity
  8
КИЗИЛЬНИК БЛЕСТЯЩИЙ
100
AcDbPoint
 10
87.25
 20
33.9
 30
0.0
  0
POINT
  5
1CB
330
17
100
AcDbEntity
  8
КИЗИЛЬНИК БЛЕСТЯЩИЙ
100
AcDbPoint
 10
87.25
 20
34.89999999999999
 30
0.0
  0
POINT
  5
1CC
330
17
100
AcDbEntity
  8
КИЗИЛЬНИК БЛЕСТЯЩИЙ
100
AcDbPoint
 10
87.25
 20
35.89999999999999
 30
0.0
  0
POINT
  5
1CD
330
17
100
AcDbEntity
  8
КИЗИЛЬНИК БЛЕСТЯЩИЙ
100
AcDbPoint
 10
87.25
 20
36.89999999999999
 30
0.0
  0
POINT
  5
1CE
330
17
100
AcDbEntity
  8
КИЗИЛЬНИК БЛЕСТЯЩИЙ
100
AcDbPoint
 10
87.25
 20
37.89999999999999
 30
0.0
  0
POINT
  5
1CF
330
17
100
AcDbEntity
  8
КИЗИЛЬНИК БЛЕСТЯЩИЙ
100
AcDbPoint
 10
87.25
 20
38.89999999999999
 30
0.0
  0
POINT
  5
1D0
330
17
100
AcDbEntity
  8
КИЗИЛЬНИК БЛЕСТЯЩИЙ
100
AcDbPoint
 10
87.25
 20
39.89999999999999
 30
0.0
  0
POINT
  5
1D1
330
17
100
AcDbEntity
  8
КИЗИЛЬНИК БЛЕСТЯЩИЙ
100
AcDbPoint
 10
87.25
 20
40.89999999999999
 30
0.0
  0
POINT
  5
1D2
330
17
100
AcDbEntity
  8
КИЗИЛЬНИК БЛЕСТЯЩИЙ
100
AcDbPoint
 10
87.25
 20
41.89999999999999
 30
0.0
  0
POINT
  5
1D3
330
17
100
AcDbEntity
  8
КИЗИЛЬНИК БЛЕСТЯЩИЙ
100
AcDbPoint
 10
87.25
 20
42.89999999999999
 30
0.0
  0
POINT
  5
1D4
330
17
100
AcDbEntity
  8
КИЗИЛЬНИК БЛЕСТЯЩИЙ
100
AcDbPoint
 10
87.25
 20
43.89999999999999
 30
0.0
  0
POINT
  5
1D5
330
17
100
AcDbEntity
  8
КИЗИЛЬНИК БЛЕСТЯЩИЙ
100
AcDbPoint
 10
87.25
 20
44.89999999999999
 30
0.0
  0
POINT
  5
1D6
330
17
100
AcDbEntity
  8
КИЗИЛЬНИК БЛЕСТЯЩИЙ
100
AcDbPoint
 10
87.25
 20
45.89999999999999
 30
0.0
  0
POINT
  5
1D7
330
17
100
AcDbEntity
  8
КИЗИЛЬНИК БЛЕСТЯЩИЙ
100
AcDbPoint
 10
87.25
 20
46.89999999999999
 30
0.0
  0
POINT
  5
1D8
330
17
100
AcDbEntity
  8
КИЗИЛЬНИК БЛЕСТЯЩИЙ
100
AcDbPoint
 10
87.25
 20
47.89999999999999
 30
0.0
  0
POINT
  5
1D9
330
17
100
AcDbEntity
  8
КИЗИЛЬНИК БЛЕСТЯЩИЙ
100
AcDbPoint
 10
87.25
 20
48.89999999999999
 30
0.0
  0
POINT
  5
1DA
330
17
100
AcDbEntity
  8
КИЗИЛЬНИК БЛЕСТЯЩИЙ
100
AcDbPoint
 10
87.25
 20
49.89999999999999
 30
0.0
  0
POINT
  5
1DB
330
17
100
AcDbEntity
  8
КИЗИЛЬНИК БЛЕСТЯЩИЙ
100
AcDbPoint
 10
87.25
 20
50.89999999999999
 30
0.0
  0
POINT
  5
1DC
330
17
100
AcDbEntity
  8
КИЗИЛЬНИК БЛЕСТЯЩИЙ
100
AcDbPoint
 10
87.25
 20
51.89999999999999
 30
0.0
  0
POINT
  5
1DD
330
17
100
AcDbEntity
  8
КИЗИЛЬНИК БЛЕСТЯЩИЙ
100
AcDbPoint
 10
87.25
 20
52.89999999999999
 30
0.0
  0
POINT
  5
1DE
330
17
100
AcDbEntity
  8
КИЗИЛЬНИК БЛЕСТЯЩИЙ
100
AcDbPoint
 10
87.25
 20
53.89999999999999
 30
0.0
  0
POINT
  5
1DF
330
17
100
AcDbEntity
  8
КИЗИЛЬНИК БЛЕСТЯЩИЙ
100
AcDbPoint
 10
87.25
 20
54.89999999999999
 30
0.0
  0
POINT
  5
1E0
330
17
100
AcDbEntity
  8
КИЗИЛЬНИК БЛЕСТЯЩИЙ
100
AcDbPoint
 10
87.25
 20
55.89999999999999
 30
0.0
  0
POINT
  5
1E1
330
17
100
AcDbEntity
  8
КИЗИЛЬНИК БЛЕСТЯЩИЙ
100
AcDbPoint
 10
87.25
 20
56.89999999999999
 30
0.0
  0
POINT
  5
1E2
330
17
100
AcDbEntity
  8
КИЗИЛЬНИК БЛЕСТЯЩИЙ
100
AcDbPoint
 10
85.50000000000001
 20
57.25
 30
0.0
  0
POINT
  5
1E3
330
17
100
AcDbEntity
  8
КИЗИЛЬНИК БЛЕСТЯЩИЙ
100
AcDbPoint
 10
84.50000000000001
 20
57.25
 30
0.0
  0
POINT
  5
1E4
330
17
100
AcDbEntity
  8
КИЗИЛЬНИК БЛЕСТЯЩИЙ
100
AcDbPoint
 10
83.50000000000001
 20
57.25
 30
0.0
  0
POINT
  5
1E5
330
17
100
AcDbEntity
  8
КИЗИЛЬНИК БЛЕСТЯЩИЙ
100
AcDbPoint
 10
82.50000000000001
 20
57.25
 30
0.0
  0
POINT
  5
1E6
330
17
100
AcDbEntity
  8
КИЗИЛЬНИК БЛЕСТЯЩИЙ
100
AcDbPoint
 10
81.50000000000001
 20
57.25
 30
0.0
  0
POINT
  5
1E7
330
17
100
AcDbEntity
  8
КИЗИЛЬНИК БЛЕСТЯЩИЙ
100
AcDbPoint
 10
80.50000000000001
 20
57.25
 30
0.0
  0
POINT
  5
1E8
330
17
100
AcDbEntity
  8
КИЗИЛЬНИК БЛЕСТЯЩИЙ
100
AcDbPoint
 10
79.50000000000001
 20
57.25
 30
0.0
  0
POINT
  5
1E9
330
17
100
AcDbEntity
  8
КИЗИЛЬНИК БЛЕСТЯЩИЙ
100
AcDbPoint
 10
78.50000000000001
 20
57.25
 30
0.0
  0
POINT
  5
1EA
330
17
100
AcDbEntity
  8
КИЗИЛЬНИК БЛЕСТЯЩИЙ
100
AcDbPoint
 10
77.50000000000001
 20
57.25
 30
0.0
  0
POINT
  5
1EB
330
17
100
AcDbEntity
  8
КИЗИЛЬНИК БЛЕСТЯЩИЙ
100
AcDbPoint
 10
76.50000000000001
 20
57.25
 30
0.0
  0
POINT
  5
1EC
330
17
100
AcDbEntity
  8
КИЗИЛЬНИК БЛЕСТЯЩИЙ
100
AcDbPoint
 10
75.50000000000001
 20
57.25
 30
0.0
  0
POINT
  5
1ED
330
17
100
AcDbEntity
  8
КИЗИЛЬНИК БЛЕСТЯЩИЙ
100
AcDbPoint
 10
74.50000000000001
 20
57.25
 30
0.0
  0
POINT
  5
1EE
330
17
100
AcDbEntity
  8
КИЗИЛЬНИК БЛЕСТЯЩИЙ
100
AcDbPoint
 10
73.50000000000001
 20
57.25
 30
0.0
  0
POINT
  5
1EF
330
17
100
AcDbEntity
  8
КИЗИЛЬНИК БЛЕСТЯЩИЙ
100
AcDbPoint
 10
72.50000000000001
 20
57.25
 30
0.0
  0
POINT
  5
1F0
330
17
100
AcDbEntity
  8
КИЗИЛЬНИК БЛЕСТЯЩИЙ
100
AcDbPoint
 10
71.50000000000001
 20
57.25
 30
0.0
  0
POINT
  5
1F1
330
17
100
AcDbEntity
  8
КИЗИЛЬНИК БЛЕСТЯЩИЙ
100
AcDbPoint
 10
70.50000000000001
 20
57.25
 30
0.0
  0
POINT
  5
1F2
330
17
100
AcDbEntity
  8
КИЗИЛЬНИК БЛЕСТЯЩИЙ
100
AcDbPoint
 10
69.50000000000001
 20
57.25
 30
0.0
  0
POINT
  5
1F3
330
17
100
AcDbEntity
  8
КИЗИЛЬНИК БЛЕСТЯЩИЙ
100
AcDbPoint
 10
68.50000000000001
 20
57.25
 30
0.0
  0
POINT
  5
1F4
330
17
100
AcDbEntity
  8
КИЗИЛЬНИК БЛЕСТЯЩИЙ
100
AcDbPoint
 10
67.50000000000001
 20
57.25
 30
0.0
  0
POINT
  5
1F5
330
17
100
AcDbEntity
  8
КИЗИЛЬНИК БЛЕСТЯЩИЙ
100
AcDbPoint
 10
66.50000000000001
 20
57.25
 30
0.0
  0
POINT
  5
1F6
330
17
100
AcDbEntity
  8
КИЗИЛЬНИК БЛЕСТЯЩИЙ
100
AcDbPoint
 10
65.50000000000001
 20
57.25
 30
0.0
  0
POINT
  5
1F7
330
17
100
AcDbEntity
  8
КИЗИЛЬНИК БЛЕСТЯЩИЙ
100
AcDbPoint
 10
64.50000000000001
 20
57.25
 30
0.0
  0
POINT
  5
1F8
330
17
100
AcDbEntity
  8
КИЗИЛЬНИК БЛЕСТЯЩИЙ
100
AcDbPoint
 10
63.500000000000014
 20
57.25
 30
0.0
  0
POINT
  5
1F9
330
17
100
AcDbEntity
  8
КИЗИЛЬНИК БЛЕСТЯЩИЙ
100
AcDbPoint
 10
62.500000000000014
 20
57.25
 30
0.0
  0
POINT
  5
1FA
330
17
100
AcDbEntity
  8
КИЗИЛЬНИК БЛЕСТЯЩИЙ
100
AcDbPoint
 10
61.500000000000014
 20
57.25
 30
0.0
  0
POINT
  5
1FB
330
17
100
AcDbEntity
  8
КИЗИЛЬНИК БЛЕСТЯЩИЙ
100
AcDbPoint
 10
60.500000000000014
 20
57.25
 30
0.0
  0
POINT
  5
1FC
330
17
100
AcDbEntity
  8
КИЗИЛЬНИК БЛЕСТЯЩИЙ
100
AcDbPoint
 10
59.500000000000014
 20
57.25
 30
0.0
  0
POINT
  5
1FD
330
17
100
AcDbEntity
  8
КИЗИЛЬНИК БЛЕСТЯЩИЙ
100
AcDbPoint
 10
58.500000000000014
 20
57.25
 30
0.0
  0
POINT
  5
1FE
330
17
100
AcDbEntity
  8
КИЗИЛЬНИК БЛЕСТЯЩИЙ
100
AcDbPoint
 10
57.500000000000014
 20
57.25
 30
0.0
  0
POINT
  5
1FF
330
17
100
AcDbEntity
  8
КИЗИЛЬНИК БЛЕСТЯЩИЙ
100
AcDbPoint
 10
56.500000000000014
 20
57.25
 30
0.0
  0
POINT
  5
200
330
17
100
AcDbEntity
  8
КИЗИЛЬНИК БЛЕСТЯЩИЙ
100
AcDbPoint
 10
55.500000000000014
 20
57.25
 30
0.0
  0
POINT
  5
201
330
17
100
AcDbEntity
  8
КИЗИЛЬНИК БЛЕСТЯЩИЙ
100
AcDbPoint
 10
54.500000000000014
 20
57.25
 30
0.0
  0
POINT
  5
202
330
17
100
AcDbEntity
  8
КИЗИЛЬНИК БЛЕСТЯЩИЙ
100
AcDbPoint
 10
53.500000000000014
 20
57.25
 30
0.0
  0
POINT
  5
203
330
17
100
AcDbEntity
  8
КИЗИЛЬНИК БЛЕСТЯЩИЙ
100
AcDbPoint
 10
52.500000000000014
 20
57.25
 30
0.0
  0
POINT
  5
204
330
17
100
AcDbEntity
  8
КИЗИЛЬНИК БЛЕСТЯЩИЙ
100
AcDbPoint
 10
51.500000000000014
 20
57.25
 30
0.0
  0
POINT
  5
205
330
17
100
AcDbEntity
  8
КИЗИЛЬНИК БЛЕСТЯЩИЙ
100
AcDbPoint
 10
50.500000000000014
 20
57.25
 30
0.0
  0
POINT
  5
206
330
17
100
AcDbEntity
  8
КИЗИЛЬНИК БЛЕСТЯЩИЙ
100
AcDbPoint
 10
49.500000000000014
 20
57.25
 30
0.0
  0
POINT
  5
207
330
17
100
AcDbEntity
  8
КИЗИЛЬНИК БЛЕСТЯЩИЙ
100
AcDbPoint
 10
48.500000000000014
 20
57.25
 30
0.0
  0
POINT
  5
208
330
17
100
AcDbEntity
  8
КИЗИЛЬНИК БЛЕСТЯЩИЙ
100
AcDbPoint
 10
47.500000000000014
 20
57.25
 30
0.0
  0
POINT
  5
209
330
17
100
AcDbEntity
  8
КИЗИЛЬНИК БЛЕСТЯЩИЙ
100
AcDbPoint
 10
46.500000000000014
 20
57.25
 30
0.0
  0
POINT
  5
20A
330
17
100
AcDbEntity
  8
КИЗИЛЬНИК БЛЕСТЯЩИЙ
100
AcDbPoint
 10
45.500000000000014
 20
57.25
 30
0.0
  0
POINT
  5
20B
330
17
100
AcDbEntity
  8
КИЗИЛЬНИК БЛЕСТЯЩИЙ
100
AcDbPoint
 10
44.50000000000002
 20
57.25
 30
0.0
  0
POINT
  5
20C
330
17
100
AcDbEntity
  8
КИЗИЛЬНИК БЛЕСТЯЩИЙ
100
AcDbPoint
 10
43.500000000000014
 20
57.25
 30
0.0
  0
POINT
  5
20D
330
17
100
AcDbEntity
  8
КИЗИЛЬНИК БЛЕСТЯЩИЙ
100
AcDbPoint
 10
42.500000000000014
 20
57.25
 30
0.0
  0
POINT
  5
20E
330
17
100
AcDbEntity
  8
КИЗИЛЬНИК БЛЕСТЯЩИЙ
100
AcDbPoint
 10
41.500000000000014
 20
57.25
 30
0.0
  0
POINT
  5
20F
330
17
100
AcDbEntity
  8
КИЗИЛЬНИК БЛЕСТЯЩИЙ
100
AcDbPoint
 10
40.500000000000014
 20
57.25
 30
0.0
  0
POINT
  5
210
330
17
100
AcDbEntity
  8
КИЗИЛЬНИК БЛЕСТЯЩИЙ
100
AcDbPoint
 10
39.500000000000014
 20
57.25
 30
0.0
  0
POINT
  5
211
330
17
100
AcDbEntity
  8
КИЗИЛЬНИК БЛЕСТЯЩИЙ
100
AcDbPoint
 10
38.500000000000014
 20
57.25
 30
0.0
  0
POINT
  5
212
330
17
100
AcDbEntity
  8
КИЗИЛЬНИК БЛЕСТЯЩИЙ
100
AcDbPoint
 10
37.50000000000001
 20
57.25
 30
0.0
  0
POINT
  5
213
330
17
100
AcDbEntity
  8
КИЗИЛЬНИК БЛЕСТЯЩИЙ
100
AcDbPoint
 10
36.50000000000002
 20
57.25
 30
0.0
  0
POINT
  5
214
330
17
100
AcDbEntity
  8
КИЗИЛЬНИК БЛЕСТЯЩИЙ
100
AcDbPoint
 10
35.500000000000014
 20
57.25
 30
0.0
  0
POINT
  5
215
330
17
100
AcDbEntity
  8
КИЗИЛЬНИК БЛЕСТЯЩИЙ
100
AcDbPoint
 10
34.500000000000014
 20
57.25
 30
0.0
  0
POINT
  5
216
330
17
100
AcDbEntity
  8
КИЗИЛЬНИК БЛЕСТЯЩИЙ
100
AcDbPoint
 10
33.500000000000014
 20
57.25
 30
0.0
  0
POINT
  5
217
330
17
100
AcDbEntity
  8
КИЗИЛЬНИК БЛЕСТЯЩИЙ
100
AcDbPoint
 10
32.500000000000014
 20
57.25
 30
0.0
  0
POINT
  5
218
330
17
100
AcDbEntity
  8
КИЗИЛЬНИК БЛЕСТЯЩИЙ
100
AcDbPoint
 10
31.500000000000014
 20
57.25
 30
0.0
  0
POINT
  5
219
330
17
100
AcDbEntity
  8
КИЗИЛЬНИК БЛЕСТЯЩИЙ
100
AcDbPoint
 10
30.500000000000014
 20
57.25
 30
0.0
  0
POINT
  5
21A
330
17
100
AcDbEntity
  8
КИЗИЛЬНИК БЛЕСТЯЩИЙ
100
AcDbPoint
 10
29.500000000000007
 20
57.25
 30
0.0
  0
POINT
  5
21B
330
17
100
AcDbEntity
  8
КИЗИЛЬНИК БЛЕСТЯЩИЙ
100
AcDbPoint
 10
28.50000000000002
 20
57.25
 30
0.0
  0
POINT
  5
21C
330
17
100
AcDbEntity
  8
КИЗИЛЬНИК БЛЕСТЯЩИЙ
100
AcDbPoint
 10
27.500000000000014
 20
57.25
 30
0.0
  0
POINT
  5
21D
330
17
100
AcDbEntity
  8
КИЗИЛЬНИК БЛЕСТЯЩИЙ
100
AcDbPoint
 10
26.500000000000014
 20
57.25
 30
0.0
  0
POINT
  5
21E
330
17
100
AcDbEntity
  8
КИЗИЛЬНИК БЛЕСТЯЩИЙ
100
AcDbPoint
 10
25.500000000000014
 20
57.25
 30
0.0
  0
POINT
  5
21F
330
17
100
AcDbEntity
  8
КИЗИЛЬНИК БЛЕСТЯЩИЙ
100
AcDbPoint
 10
24.500000000000014
 20
57.25
 30
0.0
  0
POINT
  5
220
330
17
100
AcDbEntity
  8
КИЗИЛЬНИК БЛЕСТЯЩИЙ
100
AcDbPoint
 10
23.500000000000014
 20
57.25
 30
0.0
  0
POINT
  5
221
330
17
100
AcDbEntity
  8
КИЗИЛЬНИК БЛЕСТЯЩИЙ
100
AcDbPoint
 10
22.500000000000014
 20
57.25
 30
0.0
  0
POINT
  5
222
330
17
100
AcDbEntity
  8
КИЗИЛЬНИК БЛЕСТЯЩИЙ
100
AcDbPoint
 10
21.500000000000014
 20
57.25
 30
0.0
  0
POINT
  5
223
330
17
100
AcDbEntity
  8
КИЗИЛЬНИК БЛЕСТЯЩИЙ
100
AcDbPoint
 10
20.500000000000014
 20
57.25
 30
0.0
  0
POINT
  5
224
330
17
100
AcDbEntity
  8
КИЗИЛЬНИК БЛЕСТЯЩИЙ
100
AcDbPoint
 10
19.500000000000014
 20
57.25
 30
0.0
  0
POINT
  5
225
330
17
100
AcDbEntity
  8
КИЗИЛЬНИК БЛЕСТЯЩИЙ
100
AcDbPoint
 10
18.500000000000014
 20
57.25
 30
0.0
  0
POINT
  5
226
330
17
100
AcDbEntity
  8
КИЗИЛЬНИК БЛЕСТЯЩИЙ
100
AcDbPoint
 10
17.500000000000014
 20
57.25
 30
0.0
  0
POINT
  5
227
330
17
100
AcDbEntity
  8
КИЗИЛЬНИК БЛЕСТЯЩИЙ
100
AcDbPoint
 10
16.500000000000014
 20
57.25
 30
0.0
  0
POINT
  5
228
330
17
100
AcDbEntity
  8
КИЗИЛЬНИК БЛЕСТЯЩИЙ
100
AcDbPoint
 10
15.500000000000014
 20
57.25
 30
0.0
  0
POINT
  5
229
330
17
100
AcDbEntity
  8
КИЗИЛЬНИК БЛЕСТЯЩИЙ
100
AcDbPoint
 10
14.500000000000014
 20
57.25
 30
0.0
  0
POINT
  5
22A
330
17
100
AcDbEntity
  8
КИЗИЛЬНИК БЛЕСТЯЩИЙ
100
AcDbPoint
 10
13.500000000000014
 20
57.25
 30
0.0
  0
POINT
  5
22B
330
17
100
AcDbEntity
  8
КИЗИЛЬНИК БЛЕСТЯЩИЙ
100
AcDbPoint
 10
12.500000000000014
 20
57.25
 30
0.0
  0
POINT
  5
22C
330
17
100
AcDbEntity
  8
КИЗИЛЬНИК БЛЕСТЯЩИЙ
100
AcDbPoint
 10
11.500000000000014
 20
57.25
 30
0.0
  0
POINT
  5
22D
330
17
100
AcDbEntity
  8
КИЗИЛЬНИК БЛЕСТЯЩИЙ
100
AcDbPoint
 10
10.500000000000014
 20
57.25
 30
0.0
  0
POINT
  5
22E
330
17
100
AcDbEntity
  8
КИЗИЛЬНИК БЛЕСТЯЩИЙ
100
AcDbPoint
 10
9.500000000000014
 20
57.25
 30
0.0
  0
POINT
  5
22F
330
17
100
AcDbEntity
  8
КИЗИЛЬНИК БЛЕСТЯЩИЙ
100
AcDbPoint
 10
8.500000000000014
 20
57.25
 30
0.0
  0
POINT
  5
230
330
17
100
AcDbEntity
  8
КИЗИЛЬНИК БЛЕСТЯЩИЙ
100
AcDbPoint
 10
7.500000000000014
 20
57.25
 30
0.0
  0
POINT
  5
231
330
17
100
AcDbEntity
  8
КИЗИЛЬНИК БЛЕСТЯЩИЙ
100
AcDbPoint
 10
6.500000000000014
 20
57.25
 30
0.0
  0
POINT
  5
232
330
17
100
AcDbEntity
  8
КИЗИЛЬНИК БЛЕСТЯЩИЙ
100
AcDbPoint
 10
5.500000000000014
 20
57.25
 30
0.0
  0
POINT
  5
233
330
17
100
AcDbEntity
  8
КИЗИЛЬНИК БЛЕСТЯЩИЙ
100
AcDbPoint
 10
4.500000000000014
 20
57.25
 30
0.0
  0
POINT
  5
234
330
17
100
AcDbEntity
  8
КИЗИЛЬНИК БЛЕСТЯЩИЙ
100
AcDbPoint
 10
3.500000000000014
 20
57.25
 30
0.0
  0
POINT
  5
235
330
17
100
AcDbEntity
  8
КИЗИЛЬНИК БЛЕСТЯЩИЙ
100
AcDbPoint
 10
2.75
 20
55.90000000000002
 30
0.0
  0
POINT
  5
236
330
17
100
AcDbEntity
  8
КИЗИЛЬНИК БЛЕСТЯЩИЙ
100
AcDbPoint
 10
2.75
 20
54.90000000000002
 30
0.0
  0
POINT
  5
237
330
17
100
AcDbEntity
  8
КИЗИЛЬНИК БЛЕСТЯЩИЙ
100
AcDbPoint
 10
2.75
 20
53.90000000000002
 30
0.0
  0
POINT
  5
238
330
17
100
AcDbEntity
  8
КИЗИЛЬНИК БЛЕСТЯЩИЙ
100
AcDbPoint
 10
2.75
 20
52.90000000000002
 30
0.0
  0
POINT
  5
239
330
17
100
AcDbEntity
  8
КИЗИЛЬНИК БЛЕСТЯЩИЙ
100
AcDbPoint
 10
2.75
 20
51.90000000000002
 30
0.0
  0
POINT
  5
23A
330
17
100
AcDbEntity
  8
КИЗИЛЬНИК БЛЕСТЯЩИЙ
100
AcDbPoint
 10
2.75
 20
50.90000000000002
 30
0.0
  0
POINT
  5
23B
330
17
100
AcDbEntity
  8
КИЗИЛЬНИК БЛЕСТЯЩИЙ
100
AcDbPoint
 10
2.75
 20
49.90000000000002
 30
0.0
  0
POINT
  5
23C
330
17
100
AcDbEntity
  8
КИЗИЛЬНИК БЛЕСТЯЩИЙ
100
AcDbPoint
 10
2.75
 20
48.90000000000002
 30
0.0
  0
POINT
  5
23D
330
17
100
AcDbEntity
  8
КИЗИЛЬНИК БЛЕСТЯЩИЙ
100
AcDbPoint
 10
2.75
 20
47.90000000000002
 30
0.0
  0
POINT
  5
23E
330
17
100
AcDbEntity
  8
КИЗИЛЬНИК БЛЕСТЯЩИЙ
100
AcDbPoint
 10
2.75
 20
46.90000000000002
 30
0.0
  0
POINT
  5
23F
330
17
100
AcDbEntity
  8
КИЗИЛЬНИК БЛЕСТЯЩИЙ
100
AcDbPoint
 10
2.75
 20
45.90000000000002
 30
0.0
  0
POINT
  5
240
330
17
100
AcDbEntity
  8
КИЗИЛЬНИК БЛЕСТЯЩИЙ
100
AcDbPoint
 10
2.75
 20
44.90000000000002
 30
0.0
  0
POINT
  5
241
330
17
100
AcDbEntity
  8
КИЗИЛЬНИК БЛЕСТЯЩИЙ
100
AcDbPoint
 10
2.75
 20
43.90000000000002
 30
0.0
  0
POINT
  5
242
330
17
100
AcDbEntity
  8
КИЗИЛЬНИК БЛЕСТЯЩИЙ
100
AcDbPoint
 10
2.75
 20
42.90000000000002
 30
0.0
  0
POINT
  5
243
330
17
100
AcDbEntity
  8
КИЗИЛЬНИК БЛЕСТЯЩИЙ
100
AcDbPoint
 10
2.75
 20
41.90000000000002
 30
0.0
  0
POINT
  5
244
330
17
100
AcDbEntity
  8
КИЗИЛЬНИК БЛЕСТЯЩИЙ
100
AcDbPoint
 10
2.75
 20
40.90000000000002
 30
0.0
  0
POINT
  5
245
330
17
100
AcDbEntity
  8
КИЗИЛЬНИК БЛЕСТЯЩИЙ
100
AcDbPoint
 10
2.75
 20
39.90000000000002
 30
0.0
  0
POINT
  5
246
330
17
100
AcDbEntity
  8
КИЗИЛЬНИК БЛЕСТЯЩИЙ
100
AcDbPoint
 10
2.75
 20
38.90000000000002
 30
0.0
  0
POINT
  5
247
330
17
100
AcDbEntity
  8
КИЗИЛЬНИК БЛЕСТЯЩИЙ
100
AcDbPoint
 10
2.75
 20
37.90000000000002
 30
0.0
  0
POINT
  5
248
330
17
100
AcDbEntity
  8
КИЗИЛЬНИК БЛЕСТЯЩИЙ
100
AcDbPoint
 10
2.75
 20
36.90000000000002
 30
0.0
  0
POINT
  5
249
330
17
100
AcDbEntity
  8
КИЗИЛЬНИК БЛЕСТЯЩИЙ
100
AcDbPoint
 10
2.75
 20
35.90000000000002
 30
0.0
  0
POINT
  5
24A
330
17
100
AcDbEntity
  8
КИЗИЛЬНИК БЛЕСТЯЩИЙ
100
AcDbPoint
 10
2.75
 20
34.90000000000002
 30
0.0
  0
POINT
  5
24B
330
17
100
AcDbEntity
  8
КИЗИЛЬНИК БЛЕСТЯЩИЙ
100
AcDbPoint
 10
2.75
 20
33.90000000000002
 30
0.0
  0
POINT
  5
24C
330
17
100
AcDbEntity
  8
КИЗИЛЬНИК БЛЕСТЯЩИЙ
100
AcDbPoint
 10
2.75
 20
32.90000000000002
 30
0.0
  0
POINT
  5
24D
330
17
100
AcDbEntity
  8
КИЗИЛЬНИК БЛЕСТЯЩИЙ
100
AcDbPoint
 10
2.75
 20
31.90000000000002
 30
0.0
  0
POINT
  5
24E
330
17
100
AcDbEntity
  8
КИЗИЛЬНИК БЛЕСТЯЩИЙ
100
AcDbPoint
 10
2.75
 20
30.90000000000002
 30
0.0
  0
POINT
  5
24F
330
17
100
AcDbEntity
  8
КИЗИЛЬНИК БЛЕСТЯЩИЙ
100
AcDbPoint
 10
2.75
 20
29.900000000000016
 30
0.0
  0
POINT
  5
250
330
17
100
AcDbEntity
  8
КИЗИЛЬНИК БЛЕСТЯЩИЙ
100
AcDbPoint
 10
2.75
 20
28.90000000000002
 30
0.0
  0
POINT
  5
251
330
17
100
AcDbEntity
  8
КИЗИЛЬНИК БЛЕСТЯЩИЙ
100
AcDbPoint
 10
2.75
 20
27.90000000000002
 30
0.0
  0
POINT
  5
252
330
17
100
AcDbEntity
  8
КИЗИЛЬНИК БЛЕСТЯЩИЙ
100
AcDbPoint
 10
2.75
 20
26.900000000000016
 30
0.0
  0
POINT
  5
253
330
17
100
AcDbEntity
  8
КИЗИЛЬНИК БЛЕСТЯЩИЙ
100
AcDbPoint
 10
2.75
 20
25.90000000000002
 30
0.0
  0
POINT
  5
254
330
17
100
AcDbEntity
  8
КИЗИЛЬНИК БЛЕСТЯЩИЙ
100
AcDbPoint
 10
2.75
 20
24.90000000000002
 30
0.0
  0
POINT
  5
255
330
17
100
AcDbEntity
  8
КИЗИЛЬНИК БЛЕСТЯЩИЙ
100
AcDbPoint
 10
2.75
 20
23.90000000000002
 30
0.0
  0
POINT
  5
256
330
17
100
AcDbEntity
  8
КИЗИЛЬНИК БЛЕСТЯЩИЙ
100
AcDbPoint
 10
2.75
 20
22.90000000000002
 30
0.0
  0
POINT
  5
257
330
17
100
AcDbEntity
  8
КИЗИЛЬНИК БЛЕСТЯЩИЙ
100
AcDbPoint
 10
2.75
 20
21.90000000000002
 30
0.0
  0
POINT
  5
258
330
17
100
AcDbEntity
  8
КИЗИЛЬНИК БЛЕСТЯЩИЙ
100
AcDbPoint
 10
2.75
 20
20.90000000000002
 30
0.0
  0
POINT
  5
259
330
17
100
AcDbEntity
  8
КИЗИЛЬНИК БЛЕСТЯЩИЙ
100
AcDbPoint
 10
2.75
 20
19.90000000000002
 30
0.0
  0
POINT
  5
25A
330
17
100
AcDbEntity
  8
КИЗИЛЬНИК БЛЕСТЯЩИЙ
100
AcDbPoint
 10
2.75
 20
18.90000000000002
 30
0.0
  0
POINT
  5
25B
330
17
100
AcDbEntity
  8
КИЗИЛЬНИК БЛЕСТЯЩИЙ
100
AcDbPoint
 10
2.75
 20
17.90000000000002
 30
0.0
  0
POINT
  5
25C
330
17
100
AcDbEntity
  8
КИЗИЛЬНИК БЛЕСТЯЩИЙ
100
AcDbPoint
 10
2.75
 20
16.90000000000002
 30
0.0
  0
POINT
  5
25D
330
17
100
AcDbEntity
  8
КИЗИЛЬНИК БЛЕСТЯЩИЙ
100
AcDbPoint
 10
2.75
 20
15.90000000000002
 30
0.0
  0
POINT
  5
25E
330
17
100
AcDbEntity
  8
КИЗИЛЬНИК БЛЕСТЯЩИЙ
100
AcDbPoint
 10
2.75
 20
14.90000000000002
 30
0.0
  0
POINT
  5
25F
330
17
100
AcDbEntity
  8
КИЗИЛЬНИК БЛЕСТЯЩИЙ
100
AcDbPoint
 10
2.75
 20
13.90000000000002
 30
0.0
  0
POINT
  5
260
330
17
100
AcDbEntity
  8
КИЗИЛЬНИК БЛЕСТЯЩИЙ
100
AcDbPoint
 10
2.75
 20
12.90000000000002
 30
0.0
  0
POINT
  5
261
330
17
100
AcDbEntity
  8
КИЗИЛЬНИК БЛЕСТЯЩИЙ
100
AcDbPoint
 10
2.75
 20
11.90000000000002
 30
0.0
  0
POINT
  5
262
330
17
100
AcDbEntity
  8
КИЗИЛЬНИК БЛЕСТЯЩИЙ
100
AcDbPoint
 10
2.75
 20
10.90000000000002
 30
0.0
  0
POINT
  5
263
330
17
100
AcDbEntity
  8
КИЗИЛЬНИК БЛЕСТЯЩИЙ
100
AcDbPoint
 10
2.75
 20
9.90000000000002
 30
0.0
  0
POINT
  5
264
330
17
100
AcDbEntity
  8
КИЗИЛЬНИК БЛЕСТЯЩИЙ
100
AcDbPoint
 10
2.75
 20
8.90000000000002
 30
0.0
  0
POINT
  5
265
330
17
100
AcDbEntity
  8
КИЗИЛЬНИК БЛЕСТЯЩИЙ
100
AcDbPoint
 10
2.75
 20
7.90000000000002
 30
0.0
  0
POINT
  5
266
330
17
100
AcDbEntity
  8
КИЗИЛЬНИК БЛЕСТЯЩИЙ
100
AcDbPoint
 10
2.75
 20
6.90000000000002
 30
0.0
  0
POINT
  5
267
330
17
100
AcDbEntity
  8
КИЗИЛЬНИК БЛЕСТЯЩИЙ
100
AcDbPoint
 10
2.75
 20
5.90000000000002
 30
0.0
  0
POINT
  5
268
330
17
100
AcDbEntity
  8
КИЗИЛЬНИК БЛЕСТЯЩИЙ
100
AcDbPoint
 10
2.75
 20
4.90000000000002
 30
0.0
  0
POINT
  5
269
330
17
100
AcDbEntity
  8
КИЗИЛЬНИК БЛЕСТЯЩИЙ
100
AcDbPoint
 10
2.75
 20
3.90000000000002
 30
0.0
  0
POINT
  5
26B
330
17
100
AcDbEntity
  8
ЛИПА МЕЛКОЛИСТНАЯ
100
AcDbPoint
 10
6.5
 20
6.5
 30
0.0
  0
POINT
  5
26C
330
17
100
AcDbEntity
  8
ЛИПА МЕЛКОЛИСТНАЯ
100
AcDbPoint
 10
15.5
 20
6.5
 30
0.0
  0
POINT
  5
26D
330
17
100
AcDbEntity
  8
ЛИПА МЕЛКОЛИСТНАЯ
100
AcDbPoint
 10
24.5
 20
6.5
 30
0.0
  0
POINT
  5
26E
330
17
100
AcDbEntity
  8
ЛИПА МЕЛКОЛИСТНАЯ
100
AcDbPoint
 10
33.5
 20
6.5
 30
0.0
  0
POINT
  5
26F
330
17
100
AcDbEntity
  8
ЛИПА МЕЛКОЛИСТНАЯ
100
AcDbPoint
 10
42.5
 20
6.5
 30
0.0
  0
POINT
  5
270
330
17
100
AcDbEntity
  8
ЛИПА МЕЛКОЛИСТНАЯ
100
AcDbPoint
 10
60.5
 20
6.5
 30
0.0
  0
POINT
  5
271
330
17
100
AcDbEntity
  8
ЛИПА МЕЛКОЛИСТНАЯ
100
AcDbPoint
 10
69.5
 20
6.5
 30
0.0
  0
POINT
  5
272
330
17
100
AcDbEntity
  8
ЛИПА МЕЛКОЛИСТНАЯ
100
AcDbPoint
 10
78.5
 20
6.5
 30
0.0
  0
POINT
  5
273
330
17
100
AcDbEntity
  8
ЛИПА МЕЛКОЛИСТНАЯ
100
AcDbPoint
 10
83.5
 20
10.5
 30
0.0
  0
POINT
  5
274
330
17
100
AcDbEntity
  8
ЛИПА МЕЛКОЛИСТНАЯ
100
AcDbPoint
 10
83.5
 20
19.5
 30
0.0
  0
POINT
  5
275
330
17
100
AcDbEntity
  8
ЛИПА МЕЛКОЛИСТНАЯ
100
AcDbPoint
 10
83.5
 20
28.5
 30
0.0
  0
POINT
  5
276
330
17
100
AcDbEntity
  8
ЛИПА МЕЛКОЛИСТНАЯ
100
AcDbPoint
 10
83.5
 20
37.5
 30
0.0
  0
POINT
  5
277
330
17
100
AcDbEntity
  8
ЛИПА МЕЛКОЛИСТНАЯ
100
AcDbPoint
 10
83.5
 20
46.5
 30
0.0
  0
POINT
  5
278
330
17
100
AcDbEntity
  8
ЛИПА МЕЛКОЛИСТНАЯ
100
AcDbPoint
 10
81.5
 20
53.5
 30
0.0
  0
POINT
  5
279
330
17
100
AcDbEntity
  8
ЛИПА МЕЛКОЛИСТНАЯ
100
AcDbPoint
 10
72.5
 20
53.5
 30
0.0
  0
POINT
  5
27A
330
17
100
AcDbEntity
  8
ЛИПА МЕЛКОЛИСТНАЯ
100
AcDbPoint
 10
18.5
 20
53.5
 30
0.0
  0
POINT
  5
27B
330
17
100
AcDbEntity
  8
ЛИПА МЕЛКОЛИСТНАЯ
100
AcDbPoint
 10
9.5
 20
53.5
 30
0.0
  0
POINT
  5
27C
330
17
100
AcDbEntity
  8
ЛИПА МЕЛКОЛИСТНАЯ
100
AcDbPoint
 10
6.5
 20
47.5
 30
0.0
  0
POINT
  5
27D
330
17
100
AcDbEntity
  8
ЛИПА МЕЛКОЛИСТНАЯ
100
AcDbPoint
 10
6.5
 20
38.5
 30
0.0
  0
POINT
  5
27E
330
17
100
AcDbEntity
  8
ЛИПА МЕЛКОЛИСТНАЯ
100
AcDbPoint
 10
6.5
 20
29.500000000000004
 30
0.0
  0
POINT
  5
27F
330
17
100
AcDbEntity
  8
ЛИПА МЕЛКОЛИСТНАЯ
100
AcDbPoint
 10
6.5
 20
20.5
 30
0.0
  0
POINT
  5
280
330
17
100
AcDbEntity
  8
ЛИПА МЕЛКОЛИСТНАЯ
100
AcDbPoint
 10
6.5
 20
11.5
 30
0.0
  0
POINT
  5
282
330
17
100
AcDbEntity
  8
ТУЯ ЗАПАДНАЯ
100
AcDbPoint
 10
21.0
 20
24.0
 30
0.0
  0
POINT
  5
283
330
17
100
AcDbEntity
  8
ТУЯ ЗАПАДНАЯ
100
AcDbPoint
 10
24.0
 20
24.0
 30
0.0
  0
POINT
  5
284
330
17
100
AcDbEntity
  8
ТУЯ ЗАПАДНАЯ
100
AcDbPoint
 10
27.0
 20
24.0
 30
0.0
  0
POINT
  5
285
330
17
100
AcDbEntity
  8
ТУЯ ЗАПАДНАЯ
100
AcDbPoint
 10
30.0
 20
24.0
 30
0.0
  0
POINT
  5
286
330
17
100
AcDbEntity
  8
ТУЯ ЗАПАДНАЯ
100
AcDbPoint
 10
36.0
 20
24.0
 30
0.0
  0
POINT
  5
287
330
17
100
AcDbEntity
  8
ТУЯ ЗАПАДНАЯ
100
AcDbPoint
 10
48.0
 20
24.0
 30
0.0
  0
POINT
  5
288
330
17
100
AcDbEntity
  8
ТУЯ ЗАПАДНАЯ
100
AcDbPoint
 10
54.0
 20
24.0
 30
0.0
  0
POINT
  5
289
330
17
100
AcDbEntity
  8
ТУЯ ЗАПАДНАЯ
100
AcDbPoint
 10
60.0
 20
24.0
 30
0.0
  0
POINT
  5
28A
330
17
100
AcDbEntity
  8
ТУЯ ЗАПАДНАЯ
100
AcDbPoint
 10
63.0
 20
24.0
 30
0.0
  0
POINT
  5
28B
330
17
100
AcDbEntity
  8
ТУЯ ЗАПАДНАЯ
100
AcDbPoint
 10
66.0
 20
24.0
 30
0.0
  0
POINT
  5
28C
330
17
100
AcDbEntity
  8
ТУЯ ЗАПАДНАЯ
100
AcDbPoint
 10
69.0
 20
24.0
 30
0.0
  0
POINT
  5
28D
330
17
100
AcDbEntity
  8
ТУЯ ЗАПАДНАЯ
100
AcDbPoint
 10
69.0
 20
27.0
 30
0.0
  0
POINT
  5
28E
330
17
100
AcDbEntity
  8
ТУЯ ЗАПАДНАЯ
100
AcDbPoint
 10
69.0
 20
30.0
 30
0.0
  0
POINT
  5
28F
330
17
100
AcDbEntity
  8
ТУЯ ЗАПАДНАЯ
100
AcDbPoint
 10
69.0
 20
33.0
 30
0.0
  0
POINT
  5
290
330
17
100
AcDbEntity
  8
ТУЯ ЗАПАДНАЯ
100
AcDbPoint
 10
69.0
 20
36.0
 30
0.0
  0
POINT
  5
291
330
17
100
AcDbEntity
  8
ТУЯ ЗАПАДНАЯ
100
AcDbPoint
 10
69.0
 20
39.0
 30
0.0
  0
POINT
  5
292
330
17
100
AcDbEntity
  8
ТУЯ ЗАПАДНАЯ
100
AcDbPoint
 10
69.0
 20
42.0
 30
0.0
  0
POINT
  5
293
330
17
100
AcDbEntity
  8
ТУЯ ЗАПАДНАЯ
100
AcDbPoint
 10
69.0
 20
45.0
 30
0.0
  0
POINT
  5
294
330
17
100
AcDbEntity
  8
ТУЯ ЗАПАДНАЯ
100
AcDbPoint
 10
69.0
 20
48.0
 30
0.0
  0
POINT
  5
295
330
17
100
AcDbEntity
  8
ТУЯ ЗАПАДНАЯ
100
AcDbPoint
 10
65.0
 20
50.0
 30
0.0
  0
POINT
  5
296
330
17
100
AcDbEntity
  8
ТУЯ ЗАПАДНАЯ
100
AcDbPoint
 10
62.0
 20
50.0
 30
0.0
  0
POINT
  5
297
330
17
100
AcDbEntity
  8
ТУЯ ЗАПАДНАЯ
100
AcDbPoint
 10
59.0
 20
50.0
 30
0.0
  0
POINT
  5
298
330
17
100
AcDbEntity
  8
ТУЯ ЗАПАДНАЯ
100
AcDbPoint
 10
56.0
 20
50.0
 30
0.0
  0
POINT
  5
299
330
17
100
AcDbEntity
  8
ТУЯ ЗАПАДНАЯ
100
AcDbPoint
 10
53.0
 20
50.0
 30
0.0
  0
POINT
  5
29A
330
17
100
AcDbEntity
  8
ТУЯ ЗАПАДНАЯ
100
AcDbPoint
 10
50.0
 20
50.0
 30
0.0
  0
POINT
  5
29B
330
17
100
AcDbEntity
  8
ТУЯ ЗАПАДНАЯ
100
AcDbPoint
 10
47.0
 20
50.0
 30
0.0
  0
POINT
  5
29C
330
17
100
AcDbEntity
  8
ТУЯ ЗАПАДНАЯ
100
AcDbPoint
 10
44.0
 20
50.0
 30
0.0
  0
POINT
  5
29D
330
17
100
AcDbEntity
  8
ТУЯ ЗАПАДНАЯ
100
AcDbPoint
 10
41.0
 20
50.0
 30
0.0
  0
POINT
  5
29E
330
17
100
AcDbEntity
  8
ТУЯ ЗАПАДНАЯ
100
AcDbPoint
 10
38.0
 20
50.0
 30
0.0
  0
POINT
  5
29F
330
17
100
AcDbEntity
  8
ТУЯ ЗАПАДНАЯ
100
AcDbPoint
 10
35.0
 20
50.0
 30
0.0
  0
POINT
  5
2A0
330
17
100
AcDbEntity
  8
ТУЯ ЗАПАДНАЯ
100
AcDbPoint
 10
32.0
 20
50.0
 30
0.0
  0
POINT
  5
2A1
330
17
100
AcDbEntity
  8
ТУЯ ЗАПАДНАЯ
100
AcDbPoint
 10
29.0
 20
50.0
 30
0.0
  0
POINT
  5
2A2
330
17
100
AcDbEntity
  8
ТУЯ ЗАПАДНАЯ
100
AcDbPoint
 10
26.0
 20
50.0
 30
0.0
  0
POINT
  5
2A3
330
17
100
AcDbEntity
  8
ТУЯ ЗАПАДНАЯ
100
AcDbPoint
 10
23.0
 20
50.0
 30
0.0
  0
POINT
  5
2A4
330
17
100
AcDbEntity
  8
ТУЯ ЗАПАДНАЯ
100
AcDbPoint
 10
21.0
 20
46.0
 30
0.0
  0
POINT
  5
2A5
330
17
100
AcDbEntity
  8
ТУЯ ЗАПАДНАЯ
100
AcDbPoint
 10
21.0
 20
43.0
 30
0.0
  0
POINT
  5
2A6
330
17
100
AcDbEntity
  8
ТУЯ ЗАПАДНАЯ
100
AcDbPoint
 10
21.0
 20
40.0
 30
0.0
  0
POINT
  5
2A7
330
17
100
AcDbEntity
  8
ТУЯ ЗАПАДНАЯ
100
AcDbPoint
 10
21.0
 20
37.0
 30
0.0
  0
POINT
  5
2A8
330
17
100
AcDbEntity
  8
ТУЯ ЗАПАДНАЯ
100
AcDbPoint
 10
21.0
 20
34.0
 30
0.0
  0
POINT
  5
2A9
330
17
100
AcDbEntity
  8
ТУЯ ЗАПАДНАЯ
100
AcDbPoint
 10
21.0
 20
31.0
 30
0.0
  0
POINT
  5
2AA
330
17
100
AcDbEntity
  8
ТУЯ ЗАПАДНАЯ
100
AcDbPoint
 10
21.0
 20
28.0
 30
0.0
  0
POINT
  5
2AC
330
17
100
AcDbEntity
  8
СПИРЕЯ ЯПОНСКАЯ
100
AcDbPoint
 10
25.6
 20
28.0
 30
0.0
  0
POINT
  5
2AD
330
17
100
AcDbEntity
  8
СПИРЕЯ ЯПОНСКАЯ
100
AcDbPoint
 10
26.8
 20
28.0
 30
0.0
  0
POINT
  5
2AE
330
17
100
AcDbEntity
  8
СПИРЕЯ ЯПОНСКАЯ
100
AcDbPoint
 10
28.0
 20
28.0
 30
0.0
  0
POINT
  5
2AF
330
17
100
AcDbEntity
  8
СПИРЕЯ ЯПОНСКАЯ
100
AcDbPoint
 10
29.2
 20
28.0
 30
0.0
  0
POINT
  5
2B0
330
17
100
AcDbEntity
  8
СПИРЕЯ ЯПОНСКАЯ
100
AcDbPoint
 10
30.4
 20
28.0
 30
0.0
  0
POINT
  5
2B1
330
17
100
AcDbEntity
  8
СПИРЕЯ ЯПОНСКАЯ
100
AcDbPoint
 10
35.2
 20
28.0
 30
0.0
  0
POINT
  5
2B2
330
17
100
AcDbEntity
  8
СПИРЕЯ ЯПОНСКАЯ
100
AcDbPoint
 10
36.4
 20
28.0
 30
0.0
  0
POINT
  5
2B3
330
17
100
AcDbEntity
  8
СПИРЕЯ ЯПОНСКАЯ
100
AcDbPoint
 10
37.599999999999994
 20
28.0
 30
0.0
  0
POINT
  5
2B4
330
17
100
AcDbEntity
  8
СПИРЕЯ ЯПОНСКАЯ
100
AcDbPoint
 10
41.199999999999996
 20
28.0
 30
0.0
  0
POINT
  5
2B5
330
17
100
AcDbEntity
  8
СПИРЕЯ ЯПОНСКАЯ
100
AcDbPoint
 10
42.39999999999999
 20
28.0
 30
0.0
  0
POINT
  5
2B6
330
17
100
AcDbEntity
  8
СПИРЕЯ ЯПОНСКАЯ
100
AcDbPoint
 10
47.19999999999999
 20
28.0
 30
0.0
  0
POINT
  5
2B7
330
17
100
AcDbEntity
  8
СПИРЕЯ ЯПОНСКАЯ
100
AcDbPoint
 10
48.39999999999999
 20
28.0
 30
0.0
  0
POINT
  5
2B8
330
17
100
AcDbEntity
  8
СПИРЕЯ ЯПОНСКАЯ
100
AcDbPoint
 10
49.599999999999994
 20
28.0
 30
0.0
  0
POINT
  5
2B9
330
17
100
AcDbEntity
  8
СПИРЕЯ ЯПОНСКАЯ
100
AcDbPoint
 10
51.999999999999986
 20
28.0
 30
0.0
  0
POINT
  5
2BA
330
17
100
AcDbEntity
  8
СПИРЕЯ ЯПОНСКАЯ
100
AcDbPoint
 10
53.19999999999999
 20
28.0
 30
0.0
  0
POINT
  5
2BB
330
17
100
AcDbEntity
  8
СПИРЕЯ ЯПОНСКАЯ
100
AcDbPoint
 10
54.399999999999984
 20
28.0
 30
0.0
  0
POINT
  5
2BC
330
17
100
AcDbEntity
  8
СПИРЕЯ ЯПОНСКАЯ
100
AcDbPoint
 10
59.19999999999999
 20
28.0
 30
0.0
  0
POINT
  5
2BD
330
17
100
AcDbEntity
  8
СПИРЕЯ ЯПОНСКАЯ
100
AcDbPoint
 10
60.39999999999999
 20
28.0
 30
0.0
  0
POINT
  5
2BE
330
17
100
AcDbEntity
  8
СПИРЕЯ ЯПОНСКАЯ
100
AcDbPoint
 10
61.599999999999994
 20
28.0
 30
0.0
  0
POINT
  5
2BF
330
17
100
AcDbEntity
  8
СПИРЕЯ ЯПОНСКАЯ
100
AcDbPoint
 10
62.8
 20
28.0
 30
0.0
  0
POINT
  5
2C0
330
17
100
AcDbEntity
  8
СПИРЕЯ ЯПОНСКАЯ
100
AcDbPoint
 10
64.0
 20
28.0
 30
0.0
  0
POINT
  5
2C1
330
17
100
AcDbEntity
  8
СПИРЕЯ ЯПОНСКАЯ
100
AcDbPoint
 10
65.0
 20
28.200000000000003
 30
0.0
  0
POINT
  5
2C2
330
17
100
AcDbEntity
  8
СПИРЕЯ ЯПОНСКАЯ
100
AcDbPoint
 10
65.0
 20
29.400000000000006
 30
0.0
  0
POINT
  5
2C3
330
17
100
AcDbEntity
  8
СПИРЕЯ ЯПОНСКАЯ
100
AcDbPoint
 10
65.0
 20
30.60000000000001
 30
0.0
  0
POINT
  5
2C4
330
17
100
AcDbEntity
  8
СПИРЕЯ ЯПОНСКАЯ
100
AcDbPoint
 10
65.0
 20
31.80000000000001
 30
0.0
  0
POINT
  5
2C5
330
17
100
AcDbEntity
  8
СПИРЕЯ ЯПОНСКАЯ
100
AcDbPoint
 10
65.0
 20
33.000000000000014
 30
0.0
  0
POINT
  5
2C6
330
17
100
AcDbEntity
  8
СПИРЕЯ ЯПОНСКАЯ
100
AcDbPoint
 10
65.0
 20
34.20000000000002
 30
0.0
  0
POINT
  5
2C7
330
17
100
AcDbEntity
  8
СПИРЕЯ ЯПОНСКАЯ
100
AcDbPoint
 10
65.0
 20
35.40000000000002
 30
0.0
  0
POINT
  5
2C8
330
17
100
AcDbEntity
  8
СПИРЕЯ ЯПОНСКАЯ
100
AcDbPoint
 10
65.0
 20
36.60000000000002
 30
0.0
  0
POINT
  5
2C9
330
17
100
AcDbEntity
  8
СПИРЕЯ ЯПОНСКАЯ
100
AcDbPoint
 10
65.0
 20
37.800000000000026
 30
0.0
  0
POINT
  5
2CA
330
17
100
AcDbEntity
  8
СПИРЕЯ ЯПОНСКАЯ
100
AcDbPoint
 10
65.0
 20
39.00000000000003
 30
0.0
  0
POINT
  5
2CB
330
17
100
AcDbEntity
  8
СПИРЕЯ ЯПОНСКАЯ
100
AcDbPoint
 10
65.0
 20
40.20000000000003
 30
0.0
  0
POINT
  5
2CC
330
17
100
AcDbEntity
  8
СПИРЕЯ ЯПОНСКАЯ
100
AcDbPoint
 10
65.0
 20
41.400000000000034
 30
0.0
  0
POINT
  5
2CD
330
17
100
AcDbEntity
  8
СПИРЕЯ ЯПОНСКАЯ
100
AcDbPoint
 10
65.0
 20
42.60000000000004
 30
0.0
  0
POINT
  5
2CE
330
17
100
AcDbEntity
  8
СПИРЕЯ ЯПОНСКАЯ
100
AcDbPoint
 10
65.0
 20
43.80000000000004
 30
0.0
  0
POINT
  5
2CF
330
17
100
AcDbEntity
  8
СПИРЕЯ ЯПОНСКАЯ
100
AcDbPoint
 10
65.0
 20
45.00000000000004
 30
0.0
  0
POINT
  5
2D0
330
17
100
AcDbEntity
  8
СПИРЕЯ ЯПОНСКАЯ
100
AcDbPoint
 10
64.79999999999995
 20
46.0
 30
0.0
  0
POINT
  5
2D1
330
17
100
AcDbEntity
  8
СПИРЕЯ ЯПОНСКАЯ
100
AcDbPoint
 10
63.59999999999995
 20
46.0
 30
0.0
  0
POINT
  5
2D2
330
17
100
AcDbEntity
  8
СПИРЕЯ ЯПОНСКАЯ
100
AcDbPoint
 10
62.39999999999995
 20
46.0
 30
0.0
  0
POINT
  5
2D3
330
17
100
AcDbEntity
  8
СПИРЕЯ ЯПОНСКАЯ
100
AcDbPoint
 10
61.199999999999946
 20
46.0
 30
0.0
  0
POINT
  5
2D4
330
17
100
AcDbEntity
  8
СПИРЕЯ ЯПОНСКАЯ
100
AcDbPoint
 10
59.99999999999994
 20
46.0
 30
0.0
  0
POINT
  5
2D5
330
17
100
AcDbEntity
  8
СПИРЕЯ ЯПОНСКАЯ
100
AcDbPoint
 10
58.79999999999994
 20
46.0
 30
0.0
  0
POINT
  5
2D6
330
17
100
AcDbEntity
  8
СПИРЕЯ ЯПОНСКАЯ
100
AcDbPoint
 10
57.59999999999994
 20
46.0
 30
0.0
  0
POINT
  5
2D7
330
17
100
AcDbEntity
  8
СПИРЕЯ ЯПОНСКАЯ
100
AcDbPoint
 10
56.399999999999935
 20
46.0
 30
0.0
  0
POINT
  5
2D8
330
17
100
AcDbEntity
  8
СПИРЕЯ ЯПОНСКАЯ
100
AcDbPoint
 10
55.19999999999993
 20
46.0
 30
0.0
  0
POINT
  5
2D9
330
17
100
AcDbEntity
  8
СПИРЕЯ ЯПОНСКАЯ
100
AcDbPoint
 10
53.99999999999993
 20
46.0
 30
0.0
  0
POINT
  5
2DA
330
17
100
AcDbEntity
  8
СПИРЕЯ ЯПОНСКАЯ
100
AcDbPoint
 10
52.799999999999926
 20
46.0
 30
0.0
  0
POINT
  5
2DB
330
17
100
AcDbEntity
  8
СПИРЕЯ ЯПОНСКАЯ
100
AcDbPoint
 10
51.59999999999992
 20
46.0
 30
0.0
  0
POINT
  5
2DC
330
17
100
AcDbEntity
  8
СПИРЕЯ ЯПОНСКАЯ
100
AcDbPoint
 10
50.39999999999992
 20
46.0
 30
0.0
  0
POINT
  5
2DD
330
17
100
AcDbEntity
  8
СПИРЕЯ ЯПОНСКАЯ
100
AcDbPoint
 10
49.19999999999992
 20
46.0
 30
0.0
  0
POINT
  5
2DE
330
17
100
AcDbEntity
  8
СПИРЕЯ ЯПОНСКАЯ
100
AcDbPoint
 10
47.999999999999915
 20
46.0
 30
0.0
  0
POINT
  5
2DF
330
17
100
AcDbEntity
  8
СПИРЕЯ ЯПОНСКАЯ
100
AcDbPoint
 10
46.79999999999991
 20
46.0
 30
0.0
  0
POINT
  5
2E0
330
17
100
AcDbEntity
  8
СПИРЕЯ ЯПОНСКАЯ
100
AcDbPoint
 10
45.59999999999991
 20
46.0
 30
0.0
  0
POINT
  5
2E1
330
17
100
AcDbEntity
  8
СПИРЕЯ ЯПОНСКАЯ
100
AcDbPoint
 10
44.399999999999906
 20
46.0
 30
0.0
  0
POINT
  5
2E2
330
17
100
AcDbEntity
  8
СПИРЕЯ ЯПОНСКАЯ
100
AcDbPoint
 10
43.1999999999999
 20
46.0
 30
0.0
  0
POINT
  5
2E3
330
17
100
AcDbEntity
  8
СПИРЕЯ ЯПОНСКАЯ
100
AcDbPoint
 10
41.9999999999999
 20
46.0
 30
0.0
  0
POINT
  5
2E4
330
17
100
AcDbEntity
  8
СПИРЕЯ ЯПОНСКАЯ
100
AcDbPoint
 10
40.7999999999999
 20
46.0
 30
0.0
  0
POINT
  5
2E5
330
17
100
AcDbEntity
  8
СПИРЕЯ ЯПОНСКАЯ
100
AcDbPoint
 10
39.599999999999895
 20
46.0
 30
0.0
  0
POINT
  5
2E6
330
17
100
AcDbEntity
  8
СПИРЕЯ ЯПОНСКАЯ
100
AcDbPoint
 10
38.39999999999989
 20
46.0
 30
0.0
  0
POINT
  5
2E7
330
17
100
AcDbEntity
  8
СПИРЕЯ ЯПОНСКАЯ
100
AcDbPoint
 10
37.19999999999989
 20
46.0
 30
0.0
  0
POINT
  5
2E8
330
17
100
AcDbEntity
  8
СПИРЕЯ ЯПОНСКАЯ
100
AcDbPoint
 10
35.999999999999886
 20
46.0
 30
0.0
  0
POINT
  5
2E9
330
17
100
AcDbEntity
  8
СПИРЕЯ ЯПОНСКАЯ
100
AcDbPoint
 10
34.79999999999988
 20
46.0
 30
0.0
  0
POINT
  5
2EA
330
17
100
AcDbEntity
  8
СПИРЕЯ ЯПОНСКАЯ
100
AcDbPoint
 10
33.59999999999988
 20
46.0
 30
0.0
  0
POINT
  5
2EB
330
17
100
AcDbEntity
  8
СПИРЕЯ ЯПОНСКАЯ
100
AcDbPoint
 10
32.39999999999988
 20
46.0
 30
0.0
  0
POINT
  5
2EC
330
17
100
AcDbEntity
  8
СПИРЕЯ ЯПОНСКАЯ
100
AcDbPoint
 10
31.199999999999875
 20
46.0
 30
0.0
  0
POINT
  5
2ED
330
17
100
AcDbEntity
  8
СПИРЕЯ ЯПОНСКАЯ
100
AcDbPoint
 10
29.999999999999872
 20
46.0
 30
0.0
  0
POINT
  5
2EE
330
17
100
AcDbEntity
  8
СПИРЕЯ ЯПОНСКАЯ
100
AcDbPoint
 10
28.79999999999987
 20
46.0
 30
0.0
  0
POINT
  5
2EF
330
17
100
AcDbEntity
  8
СПИРЕЯ ЯПОНСКАЯ
100
AcDbPoint
 10
27.599999999999866
 20
46.0
 30
0.0
  0
POINT
  5
2F0
330
17
100
AcDbEntity
  8
СПИРЕЯ ЯПОНСКАЯ
100
AcDbPoint
 10
26.399999999999864
 20
46.0
 30
0.0
  0
POINT
  5
2F1
330
17
100
AcDbEntity
  8
СПИРЕЯ ЯПОНСКАЯ
100
AcDbPoint
 10
25.19999999999986
 20
46.0
 30
0.0
  0
POINT
  5
2F2
330
17
100
AcDbEntity
  8
СПИРЕЯ ЯПОНСКАЯ
100
AcDbPoint
 10
25.0
 20
44.99999999999986
 30
0.0
  0
POINT
  5
2F3
330
17
100
AcDbEntity
  8
СПИРЕЯ ЯПОНСКАЯ
100
AcDbPoint
 10
25.0
 20
43.799999999999855
 30
0.0
  0
POINT
  5
2F4
330
17
100
AcDbEntity
  8
СПИРЕЯ ЯПОНСКАЯ
100
AcDbPoint
 10
25.0
 20
42.59999999999985
 30
0.0
  0
POINT
  5
2F5
330
17
100
AcDbEntity
  8
СПИРЕЯ ЯПОНСКАЯ
100
AcDbPoint
 10
25.0
 20
41.39999999999985
 30
0.0
  0
POINT
  5
2F6
330
17
100
AcDbEntity
  8
СПИРЕЯ ЯПОНСКАЯ
100
AcDbPoint
 10
25.0
 20
40.19999999999985
 30
0.0
  0
POINT
  5
2F7
330
17
100
AcDbEntity
  8
СПИРЕЯ ЯПОНСКАЯ
100
AcDbPoint
 10
25.0
 20
38.999999999999844
 30
0.0
  0
POINT
  5
2F8
330
17
100
AcDbEntity
  8
СПИРЕЯ ЯПОНСКАЯ
100
AcDbPoint
 10
25.0
 20
37.79999999999984
 30
0.0
  0
POINT
  5
2F9
330
17
100
AcDbEntity
  8
СПИРЕЯ ЯПОНСКАЯ
100
AcDbPoint
 10
25.0
 20
36.59999999999984
 30
0.0
  0
POINT
  5
2FA
330
17
100
AcDbEntity
  8
СПИРЕЯ ЯПОНСКАЯ
100
AcDbPoint
 10
25.0
 20
35.399999999999835
 30
0.0
  0
POINT
  5
2FB
330
17
100
AcDbEntity
  8
СПИРЕЯ ЯПОНСКАЯ
100
AcDbPoint
 10
25.0
 20
34.19999999999983
 30
0.0
  0
POINT
  5
2FC
330
17
100
AcDbEntity
  8
СПИРЕЯ ЯПОНСКАЯ
100
AcDbPoint
 10
25.0
 20
32.99999999999983
 30
0.0
  0
POINT
  5
2FD
330
17
100
AcDbEntity
  8
СПИРЕЯ ЯПОНСКАЯ
100
AcDbPoint
 10
25.0
 20
31.799999999999827
 30
0.0
  0
POINT
  5
2FE
330
17
100
AcDbEntity
  8
СПИРЕЯ ЯПОНСКАЯ
100
AcDbPoint
 10
25.0
 20
30.599999999999824
 30
0.0
  0
POINT
  5
2FF
330
17
100
AcDbEntity
  8
СПИРЕЯ ЯПОНСКАЯ
100
AcDbPoint
 10
25.0
 20
29.39999999999982
 30
0.0
  0
POINT
  5
301
330
17
100
AcDbEntity
  8
ENTRANCE
100
AcDbPoint
 10
33.0
 20
30.0
 30
0.0
  0
POINT
  5
302
330
17
100
AcDbEntity
  8
ENTRANCE
100
AcDbPoint
 10
45.0
 20
30.0
 30
0.0
  0
POINT
  5
303
330
17
100
AcDbEntity
  8
ENTRANCE
100
AcDbPoint
 10
57.0
 20
30.0
 30
0.0
  0
POINT
  5
305
330
17
100
AcDbEntity
  8
LAMPS
100
AcDbPoint
 10
10.0
 20
17.8
 30
0.0
  0
POINT
  5
306
330
17
100
AcDbEntity
  8
LAMPS
100
AcDbPoint
 10
25.0
 20
17.8
 30
0.0
  0
POINT
  5
307
330
17
100
AcDbEntity
  8
LAMPS
100
AcDbPoint
 10
55.0
 20
17.8
 30
0.0
  0
POINT
  5
308
330
17
100
AcDbEntity
  8
LAMPS
100
AcDbPoint
 10
70.0
 20
17.8
 30
0.0
  0
INSERT
  5
30E
330
17
100
AcDbEntity
  8
BENCH
100
AcDbBlockReference
  2
BENCH_BLOCK
 10
17.0
 20
12.7
 30
0.0
  0
POINT
  5
311
330
17
100
AcDbEntity
  8
URN
100
AcDbPoint
 10
18.3
 20
12.7
 30
0.0
  0
INSERT
  5
312
330
17
100
AcDbEntity
  8
BENCH
100
AcDbBlockReference
  2
BENCH_BLOCK
 10
32.0
 20
12.7
 30
0.0
  0
POINT
  5
314
330
17
100
AcDbEntity
  8
URN
100
AcDbPoint
 10
33.3
 20
12.7
 30
0.0
  0
INSERT
  5
315
330
17
100
AcDbEntity
  8
BENCH
100
AcDbBlockReference
  2
BENCH_BLOCK
 10
47.0
 20
12.7
 30
0.0
  0
POINT
  5
317
330
17
100
AcDbEntity
  8
URN
100
AcDbPoint
 10
48.3
 20
12.7
 30
0.0
  0
INSERT
  5
318
330
17
100
AcDbEntity
  8
BENCH
100
AcDbBlockReference
  2
BENCH_BLOCK
 10
62.0
 20
12.7
 30
0.0
  0
POINT
  5
31A
330
17
100
AcDbEntity
  8
URN
100
AcDbPoint
 10
63.3
 20
12.7
 30
0.0
  0
INSERT
  5
31B
330
17
100
AcDbEntity
  8
BENCH
100
AcDbBlockReference
  2
BENCH_BLOCK
 10
77.0
 20
12.7
 30
0.0
  0
POINT
  5
31D
330
17
100
AcDbEntity
  8
URN
100
AcDbPoint
 10
78.3
 20
12.7
 30
0.0
  0
ENDSEC
  0
SECTION
  2
OBJECTS
  0
DICTIONARY
  5
A
330
0
100
AcDbDictionary
281
1
  3
ACAD_COLOR
350
B
  3
ACAD_GROUP
350
C
  3
ACAD_LAYOUT
350
D
  3
ACAD_MATERIAL
350
E
  3
ACAD_MLEADERSTYLE
350
F
  3
ACAD_MLINESTYLE
350
10
  3
ACAD_PLOTSETTINGS
350
11
  3
ACAD_PLOTSTYLENAME
350
12
  3
ACAD_SCALELIST
350
14
  3
ACAD_TABLESTYLE
350
15
  3
ACAD_VISUALSTYLE
350
16
  3
EZDXF_META
350
2D
  0
DICTIONARY
  5
B
330
A
100
AcDbDictionary
281
1
  0
DICTIONARY
  5
C
330
A
100
AcDbDictionary
281
1
  0
DICTIONARY
  5
D
330
A
100
AcDbDictionary
281
1
  3
Model
350
1A
  3
Layout1
350
1E
  0
DICTIONARY
  5
E
330
A
100
AcDbDictionary
281
1
  3
ByBlock
350
1F
  3
ByLayer
350
20
  3
Global
350
21
  0
DICTIONARY
  5
F
330
A
100
AcDbDictionary
281
1
  3
Standard
350
2C
  0
DICTIONARY
  5
10
330
A
100
AcDbDictionary
281
1
  3
Standard
350
22
  0
DICTIONARY
  5
11
330
A
100
AcDbDictionary
281
1
  0
ACDBDICTIONARYWDFLT
  5
12
330
A
100
AcDbDictionary
281
1
  3
Normal
350
13
100
AcDbDictionaryWithDefault
340
13
  0
ACDBPLACEHOLDER
  5
13
330
12
  0
DICTIONARY
  5
14
330
A
100
AcDbDictionary
281
1
  0
DICTIONARY
  5
15
330
A
100
AcDbDictionary
281
1
  0
DICTIONARY
  5
16
330
A
100
AcDbDictionary
281
1
  0
LAYOUT
  5
1A
330
D
100
AcDbPlotSettings
  1

  4
A3
  6

 40
7.5
 41
20.0
 42
7.5
 43
20.0
 44
420.0
 45
297.0
 46
0.0
 47
0.0
 48
0.0
 49
0.0
140
0.0
141
0.0
142
1.0
143
1.0
 70
1024
 72
1
 73
0
 74
5
  7

 75
16
 76
0
 77
2
 78
300
147
1.0
148
0.0
149
0.0
100
AcDbLayout
  1
Model
 70
1
 71
0
 10
0.0
 20
0.0
 11
420.0
 21
297.0
 12
0.0
 22
0.0
 32
0.0
 14
1e+20
 24
1e+20
 34
1e+20
 15
-1e+20
 25
-1e+20
 35
-1e+20
146
0.0
 13
0.0
 23
0.0
 33
0.0
 16
1.0
 26
0.0
 36
0.0
 17
0.0
 27
1.0
 37
0.0
 76
1
330
17
  0
LAYOUT
  5
1E
330
D
100
AcDbPlotSettings
  1

  4
A3
  6

 40
7.5
 41
20.0
 42
7.5
 43
20.0
 44
420.0
 45
297.0
 46
0.0
 47
0.0
 48
0.0
 49
0.0
140
0.0
141
0.0
142
1.0
143
1.0
 70
0
 72
1
 73
0
 74
5
  7

 75
16
 76
0
 77
2
 78
300
147
1.0
148
0.0
149
0.0
100
AcDbLayout
  1
Layout1
 70
1
 71
1
 10
0.0
 20
0.0
 11
420.0
 21
297.0
 12
0.0
 22
0.0
 32
0.0
 14
1e+20
 24
1e+20
 34
1e+20
 15
-1e+20
 25
-1e+20
 35
-1e+20
146
0.0
 13
0.0
 23
0.0
 33
0.0
 16
1.0
 26
0.0
 36
0.0
 17
0.0
 27
1.0
 37
0.0
 76
1
330
1B
  0
MATERIAL
  5
1F
102
{ACAD_REACTORS
330
E
102
}
330
E
100
AcDbMaterial
  1
ByBlock
  2

 70
0
 40
1.0
 71
1
 41
1.0
 91
-1023410177
 42
1.0
 72
1
  3

 73
1
 74
1
 75
1
 44
0.5
 73
0
 45
1.0
 46
1.0
 77
1
  4

 78
1
 79
1
170
1
 48
1.0
171
1
  6

172
1
173
1
174
1
140
1.0
141
1.0
175
1
  7

176
1
177
1
178
1
143
1.0
179
1
  8

270
1
271
1
272
1
145
1.0
146
1.0
273
1
  9

274
1
275
1
276
1
 42
1.0
 72
1
  3

 73
1
 74
1
 75
1
 94
63
  0
MATERIAL
  5
20
102
{ACAD_REACTORS
330
E
102
}
330
E
100
AcDbMaterial
  1
ByLayer
  2

 70
0
 40
1.0
 71
1
 41
1.0
 91
-1023410177
 42
1.0
 72
1
  3

 73
1
 74
1
 75
1
 44
0.5
 73
0
 45
1.0
 46
1.0
 77
1
  4

 78
1
 79
1
170
1
 48
1.0
171
1
  6

172
1
173
1
174
1
140
1.0
141
1.0
175
1
  7

176
1
177
1
178
1
143
1.0
179
1
  8

270
1
271
1
272
1
145
1.0
146
1.0
273
1
  9

274
1
275
1
276
1
 42
1.0
 72
1
  3

 73
1
 74
1
 75
1
 94
63
  0
MATERIAL
  5
21
102
{ACAD_REACTORS
330
E
102
}
330
E
100
AcDbMaterial
  1
Global
  2

 70
0
 40
1.0
 71
1
 41
1.0
 91
-1023410177
 42
1.0
 72
1
  3

 73
1
 74
1
 75
1
 44
0.5
 73
0
 45
1.0
 46
1.0
 77
1
  4

 78
1
 79
1
170
1
 48
1.0
171
1
  6

172
1
173
1
174
1
140
1.0
141
1.0
175
1
  7

176
1
177
1
178
1
143
1.0
179
1
  8

270
1
271
1
272
1
145
1.0
146
1.0
273
1
  9

274
1
275
1
276
1
 42
1.0
 72
1
  3

 73
1
 74
1
 75
1
 94
63
  0
MLINESTYLE
  5
22
102
{ACAD_REACTORS
330
10
102
}
330
10
100
AcDbMlineStyle
  2
Standard
 70
0
  3

 62
256
 51
90.0
 52
90.0
 71
2
 49
0.5
 62
256
  6
BYLAYER
 49
-0.5
 62
256
  6
BYLAYER
  0
MLEADERSTYLE
  5
2C
102
{ACAD_REACTORS
330
F
102
}
330
F
100
AcDbMLeaderStyle
179
2
170
2
171
1
172
0
 90
2
 40
0.0
 41
0.0
173
1
 91
-1056964608
 92
-2
290
1
 42
2.0
291
1
 43
8.0
  3
Standard
 44
4.0
300

342
29
174
1
175
1
176
0
178
1
 93
-1056964608
 45
4.0
292
0
297
0
 46
4.0
 94
-1056964608
 47
1.0
 49
1.0
140
1.0
294
1
141
0.0
177
0
142
1.0
295
0
296
0
143
3.75
271
0
272
9
273
9
  0
DICTIONARY
  5
2D
330
A
100
AcDbDictionary
280
1
281
1
  3
CREATED_BY_EZDXF
350
2E
  3
WRITTEN_BY_EZDXF
350
320
  0
DICTIONARYVAR
  5
2E
330
2D
100
DictionaryVariables
280
0
  1
1.4.4 @ 2026-09-26T13:33:27.427123+00:00
  0
DICTIONARYVAR
  5
320
330
2D
100
DictionaryVariables
280
0
  1
1.4.4 @ 2026-09-26T13:33:27.432343+00:00
  0
ENDSEC
  0
EOF
