  0
SECTION
  2
HEADER
  9
$ACADVER
  1
AC1024
  9
$ACADMAINTVER
 70
6
  9
$DWGCODEPAGE
  3
ANSI_1252
  9
$LASTSAVEDBY
  1
ezdxf
  9
$INSBASE
 10
0.0
 20
0.0
 30
0.0
  9
$EXTMIN
 10
1e+20
 20
1e+20
 30
1e+20
  9
$EXTMAX
 10
-1e+20
 20
-1e+20
 30
-1e+20
  9
$LIMMIN
 10
0.0
 20
0.0
  9
$LIMMAX
 10
420.0
 20
297.0
  9
$ORTHOMODE
 70
0
  9
$REGENMODE
 70
1
  9
$FILLMODE
 70
1
  9
$QTEXTMODE
 70
0
  9
$MIRRTEXT
 70
1
  9
$LTSCALE
 40
1.0
  9
$ATTMODE
 70
1
  9
$TEXTSIZE
 40
2.5
  9
$TRACEWID
 40
1.0
  9
$TEXTSTYLE
  7
Standard
  9
$CLAYER
  8
0
  9
$CELTYPE
  6
ByLayer
  9
$CECOLOR
 62
256
  9
$CELTSCALE
 40
1.0
  9
$DISPSILH
 70
0
  9
$DIMSCALE
 40
1.0
  9
$DIMASZ
 40
2.5
  9
$DIMEXO
 40
0.625
  9
$DIMDLI
 40
3.75
  9
$DIMRND
 40
0.0
  9
$DIMDLE
 40
0.0
  9
$DIMEXE
 40
1.25
  9
$DIMTP
 40
0.0
  9
$DIMTM
 40
0.0
  9
$DIMTXT
 40
2.5
  9
$DIMCEN
 40
2.5
  9
$DIMTSZ
 40
0.0
  9
$DIMTOL
 70
0
  9
$DIMLIM
 70
0
  9
$DIMTIH
 70
0
  9
$DIMTOH
 70
0
  9
$DIMSE1
 70
0
  9
$DIMSE2
 70
0
  9
$DIMTAD
 70
1
  9
$DIMZIN
 70
8
  9
$DIMBLK
  1

  9
$DIMASO
 70
1
  9
$DIMSHO
 70
1
  9
$DIMPOST
  1

  9
$DIMAPOST
  1

  9
$DIMALT
 70
0
  9
$DIMALTD
 70
3
  9
$DIMALTF
 40
0.03937007874
  9
$DIMLFAC
 40
1.0
  9
$DIMTOFL
 70
1
  9
$DIMTVP
 40
0.0
  9
$DIMTIX
 70
0
  9
$DIMSOXD
 70
0
  9
$DIMSAH
 70
0
  9
$DIMBLK1
  1

  9
$DIMBLK2
  1

  9
$DIMSTYLE
  2
ISO-25
  9
$DIMCLRD
 70
0
  9
$DIMCLRE
 70
0
  9
$DIMCLRT
 70
0
  9
$DIMTFAC
 40
1.0
  9
$DIMGAP
 40
0.625
  9
$DIMJUST
 70
0
  9
$DIMSD1
 70
0
  9
$DIMSD2
 70
0
  9
$DIMTOLJ
 70
0
  9
$DIMTZIN
 70
8
  9
$DIMALTZ
 70
0
  9
$DIMALTTZ
 70
0
  9
$DIMUPT
 70
0
  9
$DIMDEC
 70
2
  9
$DIMTDEC
 70
2
  9
$DIMALTU
 70
2
  9
$DIMALTTD
 70
3
  9
$DIMTXSTY
  7
Standard
  9
$DIMAUNIT
 70
0
  9
$DIMADEC
 70
0
  9
$DIMALTRND
 40
0.0
  9
$DIMAZIN
 70
0
  9
$DIMDSEP
 70
44
  9
$DIMATFIT
 70
3
  9
$DIMFRAC
 70
0
  9
$DIMLDRBLK
  1

  9
$DIMLUNIT
 70
2
  9
$DIMLWD
 70
-2
  9
$DIMLWE
 70
-2
  9
$DIMTMOVE
 70
0
  9
$DIMFXL
 40
1.0
  9
$DIMFXLON
 70
0
  9
$DIMJOGANG
 40
0.785398163397
  9
$DIMTFILL
 70
0
  9
$DIMTFILLCLR
 70
0
  9
$DIMARCSYM
 70
0
  9
$DIMLTYPE
  6

  9
$DIMLTEX1
  6

  9
$DIMLTEX2
  6

  9
$DIMTXTDIRECTION
 70
0
  9
$LUNITS
 70
2
  9
$LUPREC
 70
4
  9
$SKETCHINC
 40
1.0
  9
$FILLETRAD
 40
10.0
  9
$AUNITS
 70
0
  9
$AUPREC
 70
2
  9
$MENU
  1
.
  9
$ELEVATION
 40
0.0
  9
$PELEVATION
 40
0.0
  9
$THICKNESS
 40
0.0
  9
$LIMCHECK
 70
0
  9
$CHAMFERA
 40
0.0
  9
$CHAMFERB
 40
0.0
  9
$CHAMFERC
 40
0.0
  9
$CHAMFERD
 40
0.0
  9
$SKPOLY
 70
0
  9
$TDCREATE
 40
2461305.016747685
  9
$TDUCREATE
 40
2458532.153996898
  9
$TDUPDATE
 40
2461305.016747685
  9
$TDUUPDATE
 40
2458532.1544311
  9
$TDINDWG
 40
0.0
  9
$TDUSRTIMER
 40
0.0
  9
$USRTIMER
 70
1
  9
$ANGBASE
 50
0.0
  9
$ANGDIR
 70
0
  9
$PDMODE
 70
0
  9
$PDSIZE
 40
0.0
  9
$PLINEWID
 40
0.0
  9
$SPLFRAME
 70
0
  9
$SPLINETYPE
 70
6
  9
$SPLINESEGS
 70
8
  9
$HANDSEED
  5
12E
  9
$SURFTAB1
 70
6
  9
$SURFTAB2
 70
6
  9
$SURFTYPE
 70
6
  9
$SURFU
 70
6
  9
$SURFV
 70
6
  9
$UCSBASE
  2

  9
$UCSNAME
  2

  9
$UCSORG
 10
0.0
 20
0.0
 30
0.0
  9
$UCSXDIR
 10
1.0
 20
0.0
 30
0.0
  9
$UCSYDIR
 10
0.0
 20
1.0
 30
0.0
  9
$UCSORTHOREF
  2

  9
$UCSORTHOVIEW
 70
0
  9
$UCSORGTOP
 10
0.0
 20
0.0
 30
0.0
  9
$UCSORGBOTTOM
 10
0.0
 20
0.0
 30
0.0
  9
$UCSORGLEFT
 10
0.0
 20
0.0
 30
0.0
  9
$UCSORGRIGHT
 10
0.0
 20
0.0
 30
0.0
  9
$UCSORGFRONT
 10
0.0
 20
0.0
 30
0.0
  9
$UCSORGBACK
 10
0.0
 20
0.0
 30
0.0
  9
$PUCSBASE
  2

  9
$PUCSNAME
  2

  9
$PUCSORG
 10
0.0
 20
0.0
 30
0.0
  9
$PUCSXDIR
 10
1.0
 20
0.0
 30
0.0
  9
$PUCSYDIR
 10
0.0
 20
1.0
 30
0.0
  9
$PUCSORTHOREF
  2

  9
$PUCSORTHOVIEW
 70
0
  9
$PUCSORGTOP
 10
0.0
 20
0.0
 30
0.0
  9
$PUCSORGBOTTOM
 10
0.0
 20
0.0
 30
0.0
  9
$PUCSORGLEFT
 10
0.0
 20
0.0
 30
0.0
  9
$PUCSORGRIGHT
 10
0.0
 20
0.0
 30
0.0
  9
$PUCSORGFRONT
 10
0.0
 20
0.0
 30
0.0
  9
$PUCSORGBACK
 10
0.0
 20
0.0
 30
0.0
  9
$USERI1
 70
0
  9
$USERI2
 70
0
  9
$USERI3
 70
0
  9
$USERI4
 70
0
  9
$USERI5
 70
0
  9
$USERR1
 40
0.0
  9
$USERR2
 40
0.0
  9
$USERR3
 40
0.0
  9
$USERR4
 40
0.0
  9
$USERR5
 40
0.0
  9
$WORLDVIEW
 70
1
  9
$SHADEDGE
 70
3
  9
$SHADEDIF
 70
70
  9
$TILEMODE
 70
1
  9
$MAXACTVP
 70
64
  9
$PINSBASE
 10
0.0
 20
0.0
 30
0.0
  9
$PLIMCHECK
 70
0
  9
$PEXTMIN
 10
1e+20
 20
1e+20
 30
1e+20
  9
$PEXTMAX
 10
-1e+20
 20
-1e+20
 30
-1e+20
  9
$PLIMMIN
 10
0.0
 20
0.0
  9
$PLIMMAX
 10
420.0
 20
297.0
  9
$UNITMODE
 70
0
  9
$VISRETAIN
 70
1
  9
$PLINEGEN
 70
0
  9
$PSLTSCALE
 70
1
  9
$TREEDEPTH
 70
3020
  9
$CMLSTYLE
  2
Standard
  9
$CMLJUST
 70
0
  9
$CMLSCALE
 40
20.0
  9
$PROXYGRAPHICS
 70
1
  9
$MEASUREMENT
 70
1
  9
$CELWEIGHT
370
-1
  9
$ENDCAPS
280
0
  9
$JOINSTYLE
280
0
  9
$LWDISPLAY
290
0
  9
$INSUNITS
 70
6
  9
$HYPERLINKBASE
  1

  9
$STYLESHEET
  1

  9
$XEDIT
290
1
  9
$CEPSNTYPE
380
0
  9
$PSTYLEMODE
290
1
  9
$FINGERPRINTGUID
  2
{22657006-0688-4D69-BCCE-811836F058EE}
  9
$VERSIONGUID
  2
{3EC8A606-E8C5-43D9-8B2B-B8DCE895B916}
  9
$EXTNAMES
290
1
  9
$PSVPSCALE
 40
0.0
  9
$OLESTARTUP
290
0
  9
$SORTENTS
280
127
  9
$INDEXCTL
280
0
  9
$HIDETEXT
280
1
  9
$XCLIPFRAME
280
1
  9
$HALOGAP
280
0
  9
$OBSCOLOR
 70
257
  9
$OBSLTYPE
280
0
  9
$INTERSECTIONDISPLAY
280
0
  9
$INTERSECTIONCOLOR
 70
257
  9
$DIMASSOC
280
2
  9
$PROJECTNAME
  1

  9
$CAMERADISPLAY
290
0
  9
$LENSLENGTH
 40
50.0
  9
$CAMERAHEIGHT
 40
0.0
  9
$STEPSPERSEC
 40
24.0
  9
$STEPSIZE
 40
100.0
  9
$3DDWFPREC
 40
2.0
  9
$PSOLWIDTH
 40
0.005
  9
$PSOLHEIGHT
 40
0.08
  9
$LOFTANG1
 40
1.570796326795
  9
$LOFTANG2
 40
1.570796326795
  9
$LOFTMAG1
 40
0.0
  9
$LOFTMAG2
 40
0.0
  9
$LOFTPARAM
 70
7
  9
$LOFTNORMALS
280
1
  9
$LATITUDE
 40
37.795
  9
$LONGITUDE
 40
-122.394
  9
$NORTHDIRECTION
 40
0.0
  9
$TIMEZONE
 70
-8000
  9
$LIGHTGLYPHDISPLAY
280
1
  9
$TILEMODELIGHTSYNCH
280
1
  9
$CMATERIAL
347
20
  9
$SOLIDHIST
280
0
  9
$SHOWHIST
280
1
  9
$DWFFRAME
280
2
  9
$DGNFRAME
280
2
  9
$REALWORLDSCALE
290
1
  9
$INTERFERECOLOR
 62
256
  9
$CSHADOW
280
0
  9
$SHADOWPLANELOCATION
 40
0.0
  0
ENDSEC
  0
SECTION
  2
CLASSES
  0
CLASS
  1
ACDBDICTIONARYWDFLT
  2
AcDbDictionaryWithDefault
  3
ObjectDBX Classes
 90
0
 91
0
280
0
281
0
  0
CLASS
  1
SUN
  2
AcDbSun
  3
SCENEOE
 90
1153
 91
0
280
0
281
0
  0
CLASS
  1
VISUALSTYLE
  2
AcDbVisualStyle
  3
ObjectDBX Classes
 90
4095
 91
0
280
0
281
0
  0
CLASS
  1
MATERIAL
  2
AcDbMaterial
  3
ObjectDBX Classes
 90
1153
 91
0
280
0
281
0
  0
CLASS
  1
SCALE
  2
AcDbScale
  3
ObjectDBX Classes
 90
1153
 91
0
280
0
281
0
  0
CLASS
  1
TABLESTYLE
  2
AcDbTableStyle
  3
ObjectDBX Classes
 90
4095
 91
0
280
0
281
0
  0
CLASS
  1
MLEADERSTYLE
  2
AcDbMLeaderStyle
  3
ACDB_MLEADERSTYLE_CLASS
 90
4095
 91
0
280
0
281
0
  0
CLASS
  1
DICTIONARYVAR
  2
AcDbDictionaryVar
  3
ObjectDBX Classes
 90
0
 91
0
280
0
281
0
  0
CLASS
  1
CELLSTYLEMAP
  2
AcDbCellStyleMap
  3
ObjectDBX Classes
 90
1152
 91
0
280
0
281
0
  0
CLASS
  1
MENTALRAYRENDERSETTINGS
  2
AcDbMentalRayRenderSettings
  3
SCENEOE
 90
1024
 91
0
280
0
281
0
  0
CLASS
  1
ACDBDETAILVIEWSTYLE
  2
AcDbDetailViewStyle
  3
ObjectDBX Classes
 90
1025
 91
0
280
0
281
0
  0
CLASS
  1
ACDBSECTIONVIEWSTYLE
  2
AcDbSectionViewStyle
  3
ObjectDBX Classes
 90
1025
 91
0
280
0
281
0
  0
CLASS
  1
RASTERVARIABLES
  2
AcDbRasterVariables
  3
ISM
 90
0
 91
0
280
0
281
0
  0
CLASS
  1
LAYOUT
  2
AcDbLayout
  3
ObjectDBX Classes
 90
0
 91
0
280
0
281
0
  0
CLASS
  1
ACDBPLACEHOLDER
  2
AcDbPlaceHolder
  3
ObjectDBX Classes
 90
0
 91
0
280
0
281
0
  0
ENDSEC
  0
SECTION
  2
TABLES
  0
TABLE
  2
VPORT
  5
8
330
0
100
AcDbSymbolTable
 70
1
  0
VPORT
  5
23
330
8
100
AcDbSymbolTableRecord
100
AcDbViewportTableRecord
  2
*Active
 70
0
 10
0.0
 20
0.0
 11
1.0
 21
1.0
 12
0.0
 22
0.0
 13
0.0
 23
0.0
 14
0.5
 24
0.5
 15
0.5
 25
0.5
 16
0.0
 26
0.0
 36
1.0
 17
0.0
 27
0.0
 37
0.0
 40
1000.0
 41
1.34
 42
50.0
 43
0.0
 44
0.0
 50
0.0
 51
0.0
 71
0
 72
1000
 73
1
 74
3
 75
0
 76
0
 77
0
 78
0
281
0
 65
0
146
0.0
  0
ENDTAB
  0
TABLE
  2
LTYPE
  5
2
330
0
100
AcDbSymbolTable
 70
3
  0
LTYPE
  5
24
330
2
100
AcDbSymbolTableRecord
100
AcDbLinetypeTableRecord
  2
ByBlock
 70
0
  3

 72
65
 73
0
 40
0.0
  0
LTYPE
  5
25
330
2
100
AcDbSymbolTableRecord
100
AcDbLinetypeTableRecord
  2
ByLayer
 70
0
  3

 72
65
 73
0
 40
0.0
  0
LTYPE
  5
26
330
2
100
AcDbSymbolTableRecord
100
AcDbLinetypeTableRecord
  2
Continuous
 70
0
  3

 72
65
 73
0
 40
0.0
  0
ENDTAB
  0
TABLE
  2
LAYER
  5
1
330
0
100
AcDbSymbolTable
 70
6
  0
LAYER
  5
27
330
1
100
AcDbSymbolTableRecord
100
AcDbLayerTableRecord
  2
0
 70
0
 62
7
  6
Continuous
370
-3
390
13
347
21
  0
LAYER
  5
28
330
1
100
AcDbSymbolTableRecord
100
AcDbLayerTableRecord
  2
Defpoints
 70
0
 62
7
  6
Continuous
290
0
370
-3
390
13
347
21
  0
LAYER
  5
2F
330
1
100
AcDbSymbolTableRecord
100
AcDbLayerTableRecord
  2
TERRITORY_BOUNDARY
 70
0
 62
7
  6
Continuous
370
-3
390
13
347
21
  0
LAYER
  5
30
330
1
100
AcDbSymbolTableRecord
100
AcDbLayerTableRecord
  2
BUILDING
 70
0
 62
8
  6
Continuous
370
-3
390
13
347
21
  0
LAYER
  5
31
330
1
100
AcDbSymbolTableRecord
100
AcDbLayerTableRecord
  2
TREE
 70
0
 62
3
  6
Continuous
370
-3
390
13
347
21
  0
LAYER
  5
32
330
1
100
AcDbSymbolTableRecord
100
AcDbLayerTableRecord
  2
BUSH
 70
0
 62
2
  6
Continuous
370
-3
390
13
347
21
  0
ENDTAB
  0
TABLE
  2
STYLE
  5
5
330
0
100
AcDbSymbolTable
 70
1
  0
STYLE
  5
29
330
5
100
AcDbSymbolTableRecord
100
AcDbTextStyleTableRecord
  2
Standard
 70
0
 40
0.0
 41
1.0
 50
0.0
 71
0
 42
2.5
  3
txt
  4

  0
ENDTAB
  0
TABLE
  2
VIEW
  5
7
330
0
100
AcDbSymbolTable
 70
0
  0
ENDTAB
  0
TABLE
  2
UCS
  5
6
330
0
100
AcDbSymbolTable
 70
0
  0
ENDTAB
  0
TABLE
  2
APPID
  5
3
330
0
100
AcDbSymbolTable
 70
3
  0
APPID
  5
2A
330
3
100
AcDbSymbolTableRecord
100
AcDbRegAppTableRecord
  2
ACAD
 70
0
  0
APPID
  5
12B
330
3
100
AcDbSymbolTableRecord
100
AcDbRegAppTableRecord
  2
HATCHBACKGROUNDCOLOR
 70
0
  0
APPID
  5
12C
330
3
100
AcDbSymbolTableRecord
100
AcDbRegAppTableRecord
  2
EZDXF
 70
0
  0
ENDTAB
  0
TABLE
  2
DIMSTYLE
  5
4
330
0
100
AcDbSymbolTable
 70
1
100
AcDbDimStyleTable
  0
DIMSTYLE
105
2B
330
4
100
AcDbSymbolTableRecord
100
AcDbDimStyleTableRecord
  2
Standard
 70
0
 40
1.0
 41
2.5
 42
0.625
 43
3.75
 44
1.25
 45
0.0
 46
0.0
 47
0.0
 48
0.0
 49
2.5
140
2.5
141
2.5
142
0.0
143
0.03937007874
144
1.0
145
0.0
146
1.0
147
0.625
148
0.0
 69
0
 70
0
 71
0
 72
0
 73
0
 74
0
 75
0
 76
0
 77
1
 78
8
 79
3
170
0
171
3
172
1
173
0
174
0
175
0
176
0
177
0
178
0
179
2
271
2
272
2
273
2
274
3
275
0
276
0
277
2
278
44
279
0
280
0
281
0
282
0
283
0
284
8
285
0
286
0
288
0
289
3
290
0
371
-2
372
-2
  0
ENDTAB
  0
TABLE
  2
BLOCK_RECORD
  5
9
330
0
100
AcDbSymbolTable
 70
2
  0
BLOCK_RECORD
  5
17
330
9
100
AcDbSymbolTableRecord
100
AcDbBlockTableRecord
  2
*Model_Space
340
1A
 70
0
280
1
281
0
  0
BLOCK_RECORD
  5
1B
330
9
100
AcDbSymbolTableRecord
100
AcDbBlockTableRecord
  2
*Paper_Space
340
1E
 70
0
280
1
281
0
  0
ENDTAB
  0
ENDSEC
  0
SECTION
  2
BLOCKS
  0
BLOCK
  5
18
330
17
100
AcDbEntity
  8
0
100
AcDbBlockBegin
  2
*Model_Space
 70
0
 10
0.0
 20
0.0
 30
0.0
  3
*Model_Space
  1

  0
ENDBLK
  5
19
330
17
100
AcDbEntity
  8
0
100
AcDbBlockEnd
  0
BLOCK
  5
1C
330
1B
100
AcDbEntity
  8
0
100
AcDbBlockBegin
  2
*Paper_Space
 70
0
 10
0.0
 20
0.0
 30
0.0
  3
*Paper_Space
  1

  0
ENDBLK
  5
1D
330
1B
100
AcDbEntity
  8
0
100
AcDbBlockEnd
  0
ENDSEC
  0
SECTION
  2
ENTITIES
  0
LWPOLYLINE
  5
33
330
17
100
AcDbEntity
  8
TERRITORY_BOUNDARY
100
AcDbPolyline
 90
5
 70
1
 10
-30.0
 20
-22.5
 10
30.0
 20
-22.5
 10
30.0
 20
22.5
 10
-30.0
 20
22.5
 10
-30.0
 20
-22.5
  0
LWPOLYLINE
  5
34
330
17
100
AcDbEntity
  8
BUILDING
100
AcDbPolyline
 90
5
 70
1
 10
15.0
 20
-9.0
 10
15.0
 20
9.0
 10
-15.0
 20
9.0
 10
-15.0
 20
-9.0
 10
15.0
 20
-9.0
  0
POINT
  5
35
330
17
100
AcDbEntity
  8
BUSH
100
AcDbPoint
 10
15.0
 20
-14.3
 30
0.0
  0
POINT
  5
36
330
17
100
AcDbEntity
  8
BUSH
100
AcDbPoint
 10
13.80289342348407
 20
-14.3
 30
0.0
  0
POINT
  5
37
330
17
100
AcDbEntity
  8
BUSH
100
AcDbPoint
 10
12.60578684696814
 20
-14.3
 30
0.0
  0
POINT
  5
38
330
17
100
AcDbEntity
  8
BUSH
100
AcDbPoint
 10
11.40868027045221
 20
-14.3
 30
0.0
  0
POINT
  5
39
330
17
100
AcDbEntity
  8
BUSH
100
AcDbPoint
 10
10.21157369393628
 20
-14.3
 30
0.0
  0
POINT
  5
3A
330
17
100
AcDbEntity
  8
BUSH
100
AcDbPoint
 10
9.01446711742035
 20
-14.3
 30
0.0
  0
POINT
  5
3B
330
17
100
AcDbEntity
  8
BUSH
100
AcDbPoint
 10
7.817360540904421
 20
-14.3
 30
0.0
  0
POINT
  5
3C
330
17
100
AcDbEntity
  8
BUSH
100
AcDbPoint
 10
6.620253964388491
 20
-14.3
 30
0.0
  0
POINT
  5
3D
330
17
100
AcDbEntity
  8
BUSH
100
AcDbPoint
 10
5.423147387872561
 20
-14.3
 30
0.0
  0
POINT
  5
3E
330
17
100
AcDbEntity
  8
BUSH
100
AcDbPoint
 10
4.226040811356631
 20
-14.3
 30
0.0
  0
POINT
  5
3F
330
17
100
AcDbEntity
  8
BUSH
100
AcDbPoint
 10
3.028934234840701
 20
-14.3
 30
0.0
  0
POINT
  5
40
330
17
100
AcDbEntity
  8
BUSH
100
AcDbPoint
 10
1.8318276583247712
 20
-14.3
 30
0.0
  0
POINT
  5
41
330
17
100
AcDbEntity
  8
BUSH
100
AcDbPoint
 10
0.6347210818088413
 20
-14.3
 30
0.0
  0
POINT
  5
42
330
17
100
AcDbEntity
  8
BUSH
100
AcDbPoint
 10
-0.5623854947070868
 20
-14.3
 30
0.0
  0
POINT
  5
43
330
17
100
AcDbEntity
  8
BUSH
100
AcDbPoint
 10
-1.7594920712230184
 20
-14.3
 30
0.0
  0
POINT
  5
44
330
17
100
AcDbEntity
  8
BUSH
100
AcDbPoint
 10
-2.95659864773895
 20
-14.3
 30
0.0
  0
POINT
  5
45
330
17
100
AcDbEntity
  8
BUSH
100
AcDbPoint
 10
-4.153705224254878
 20
-14.3
 30
0.0
  0
POINT
  5
46
330
17
100
AcDbEntity
  8
BUSH
100
AcDbPoint
 10
-5.35081180077081
 20
-14.3
 30
0.0
  0
POINT
  5
47
330
17
100
AcDbEntity
  8
BUSH
100
AcDbPoint
 10
-6.547918377286738
 20
-14.3
 30
0.0
  0
POINT
  5
48
330
17
100
AcDbEntity
  8
BUSH
100
AcDbPoint
 10
-7.74502495380267
 20
-14.3
 30
0.0
  0
POINT
  5
49
330
17
100
AcDbEntity
  8
BUSH
100
AcDbPoint
 10
-8.942131530318598
 20
-14.3
 30
0.0
  0
POINT
  5
4A
330
17
100
AcDbEntity
  8
BUSH
100
AcDbPoint
 10
-10.13923810683453
 20
-14.3
 30
0.0
  0
POINT
  5
4B
330
17
100
AcDbEntity
  8
BUSH
100
AcDbPoint
 10
-11.336344683350458
 20
-14.3
 30
0.0
  0
POINT
  5
4C
330
17
100
AcDbEntity
  8
BUSH
100
AcDbPoint
 10
-12.53345125986639
 20
-14.3
 30
0.0
  0
POINT
  5
4D
330
17
100
AcDbEntity
  8
BUSH
100
AcDbPoint
 10
-13.730557836382317
 20
-14.3
 30
0.0
  0
POINT
  5
4E
330
17
100
AcDbEntity
  8
BUSH
100
AcDbPoint
 10
-14.927664412898249
 20
-14.3
 30
0.0
  0
POINT
  5
4F
330
17
100
AcDbEntity
  8
BUSH
100
AcDbPoint
 10
-16.11598155357744
 20
-14.17762134229212
 30
0.0
  0
POINT
  5
50
330
17
100
AcDbEntity
  8
BUSH
100
AcDbPoint
 10
-17.246452596508068
 20
-13.79334622772905
 30
0.0
  0
POINT
  5
51
330
17
100
AcDbEntity
  8
BUSH
100
AcDbPoint
 10
-18.26442377499693
 20
-13.169533793314388
 30
0.0
  0
POINT
  5
52
330
17
100
AcDbEntity
  8
BUSH
100
AcDbPoint
 10
-19.117825482602516
 20
-12.33414436102196
 30
0.0
  0
POINT
  5
53
330
17
100
AcDbEntity
  8
BUSH
100
AcDbPoint
 10
-19.756233289287106
 20
-11.324921312010193
 30
0.0
  0
POINT
  5
54
330
17
100
AcDbEntity
  8
BUSH
100
AcDbPoint
 10
-20.156530005531256
 20
-10.200182889825678
 30
0.0
  0
POINT
  5
55
330
17
100
AcDbEntity
  8
BUSH
100
AcDbPoint
 10
-20.299290132193963
 20
-9.01444969114382
 30
0.0
  0
POINT
  5
56
330
17
100
AcDbEntity
  8
BUSH
100
AcDbPoint
 10
-20.3
 20
-7.817360540904403
 30
0.0
  0
POINT
  5
57
330
17
100
AcDbEntity
  8
BUSH
100
AcDbPoint
 10
-20.3
 20
-6.620253964388475
 30
0.0
  0
POINT
  5
58
330
17
100
AcDbEntity
  8
BUSH
100
AcDbPoint
 10
-20.3
 20
-5.423147387872547
 30
0.0
  0
POINT
  5
59
330
17
100
AcDbEntity
  8
BUSH
100
AcDbPoint
 10
-20.3
 20
-4.226040811356619
 30
0.0
  0
POINT
  5
5A
330
17
100
AcDbEntity
  8
BUSH
100
AcDbPoint
 10
-20.3
 20
-3.0289342348406834
 30
0.0
  0
POINT
  5
5B
330
17
100
AcDbEntity
  8
BUSH
100
AcDbPoint
 10
-20.3
 20
-1.8318276583247552
 30
0.0
  0
POINT
  5
5C
330
17
100
AcDbEntity
  8
BUSH
100
AcDbPoint
 10
-20.3
 20
-0.6347210818088271
 30
0.0
  0
POINT
  5
5D
330
17
100
AcDbEntity
  8
BUSH
100
AcDbPoint
 10
-20.3
 20
0.562385494707101
 30
0.0
  0
POINT
  5
5E
330
17
100
AcDbEntity
  8
BUSH
100
AcDbPoint
 10
-20.3
 20
1.7594920712230362
 30
0.0
  0
POINT
  5
5F
330
17
100
AcDbEntity
  8
BUSH
100
AcDbPoint
 10
-20.3
 20
2.9565986477389643
 30
0.0
  0
POINT
  5
60
330
17
100
AcDbEntity
  8
BUSH
100
AcDbPoint
 10
-20.3
 20
4.153705224254892
 30
0.0
  0
POINT
  5
61
330
17
100
AcDbEntity
  8
BUSH
100
AcDbPoint
 10
-20.3
 20
5.3508118007708205
 30
0.0
  0
POINT
  5
62
330
17
100
AcDbEntity
  8
BUSH
100
AcDbPoint
 10
-20.3
 20
6.547918377286756
 30
0.0
  0
POINT
  5
63
330
17
100
AcDbEntity
  8
BUSH
100
AcDbPoint
 10
-20.3
 20
7.745024953802684
 30
0.0
  0
POINT
  5
64
330
17
100
AcDbEntity
  8
BUSH
100
AcDbPoint
 10
-20.3
 20
8.942131530318612
 30
0.0
  0
POINT
  5
65
330
17
100
AcDbEntity
  8
BUSH
100
AcDbPoint
 10
-20.174106119498642
 20
10.130015109618828
 30
0.0
  0
POINT
  5
66
330
17
100
AcDbEntity
  8
BUSH
100
AcDbPoint
 10
-19.787160737988717
 20
11.25953071575844
 30
0.0
  0
POINT
  5
67
330
17
100
AcDbEntity
  8
BUSH
100
AcDbPoint
 10
-19.160915741529063
 20
12.276043872667783
 30
0.0
  0
POINT
  5
68
330
17
100
AcDbEntity
  8
BUSH
100
AcDbPoint
 10
-18.322524263351113
 20
13.126443534387835
 30
0.0
  0
POINT
  5
69
330
17
100
AcDbEntity
  8
BUSH
100
AcDbPoint
 10
-17.31184319275983
 20
13.762418779027435
 30
0.0
  0
POINT
  5
6A
330
17
100
AcDbEntity
  8
BUSH
100
AcDbPoint
 10
-16.186149333784286
 20
14.160045228324737
 30
0.0
  0
POINT
  5
6B
330
17
100
AcDbEntity
  8
BUSH
100
AcDbPoint
 10
-14.999999999999986
 20
14.3
 30
0.0
  0
POINT
  5
6C
330
17
100
AcDbEntity
  8
BUSH
100
AcDbPoint
 10
-13.80289342348405
 20
14.3
 30
0.0
  0
POINT
  5
6D
330
17
100
AcDbEntity
  8
BUSH
100
AcDbPoint
 10
-12.60578684696813
 20
14.3
 30
0.0
  0
POINT
  5
6E
330
17
100
AcDbEntity
  8
BUSH
100
AcDbPoint
 10
-11.408680270452194
 20
14.3
 30
0.0
  0
POINT
  5
6F
330
17
100
AcDbEntity
  8
BUSH
100
AcDbPoint
 10
-10.21157369393626
 20
14.3
 30
0.0
  0
POINT
  5
70
330
17
100
AcDbEntity
  8
BUSH
100
AcDbPoint
 10
-9.014467117420338
 20
14.3
 30
0.0
  0
POINT
  5
71
330
17
100
AcDbEntity
  8
BUSH
100
AcDbPoint
 10
-7.817360540904403
 20
14.3
 30
0.0
  0
POINT
  5
72
330
17
100
AcDbEntity
  8
BUSH
100
AcDbPoint
 10
-6.620253964388482
 20
14.3
 30
0.0
  0
POINT
  5
73
330
17
100
AcDbEntity
  8
BUSH
100
AcDbPoint
 10
-5.423147387872547
 20
14.3
 30
0.0
  0
POINT
  5
74
330
17
100
AcDbEntity
  8
BUSH
100
AcDbPoint
 10
-4.2260408113566115
 20
14.3
 30
0.0
  0
POINT
  5
75
330
17
100
AcDbEntity
  8
BUSH
100
AcDbPoint
 10
-3.0289342348406905
 20
14.3
 30
0.0
  0
POINT
  5
76
330
17
100
AcDbEntity
  8
BUSH
100
AcDbPoint
 10
-1.8318276583247552
 20
14.3
 30
0.0
  0
POINT
  5
77
330
17
100
AcDbEntity
  8
BUSH
100
AcDbPoint
 10
-0.63472108180882
 20
14.3
 30
0.0
  0
POINT
  5
78
330
17
100
AcDbEntity
  8
BUSH
100
AcDbPoint
 10
0.562385494707101
 20
14.3
 30
0.0
  0
POINT
  5
79
330
17
100
AcDbEntity
  8
BUSH
100
AcDbPoint
 10
1.7594920712230362
 20
14.3
 30
0.0
  0
POINT
  5
7A
330
17
100
AcDbEntity
  8
BUSH
100
AcDbPoint
 10
2.956598647738957
 20
14.3
 30
0.0
  0
POINT
  5
7B
330
17
100
AcDbEntity
  8
BUSH
100
AcDbPoint
 10
4.153705224254892
 20
14.3
 30
0.0
  0
POINT
  5
7C
330
17
100
AcDbEntity
  8
BUSH
100
AcDbPoint
 10
5.350811800770828
 20
14.3
 30
0.0
  0
POINT
  5
7D
330
17
100
AcDbEntity
  8
BUSH
100
AcDbPoint
 10
6.547918377286749
 20
14.3
 30
0.0
  0
POINT
  5
7E
330
17
100
AcDbEntity
  8
BUSH
100
AcDbPoint
 10
7.745024953802684
 20
14.3
 30
0.0
  0
POINT
  5
7F
330
17
100
AcDbEntity
  8
BUSH
100
AcDbPoint
 10
8.942131530318619
 20
14.3
 30
0.0
  0
POINT
  5
80
330
17
100
AcDbEntity
  8
BUSH
100
AcDbPoint
 10
10.13923810683454
 20
14.3
 30
0.0
  0
POINT
  5
81
330
17
100
AcDbEntity
  8
BUSH
100
AcDbPoint
 10
11.336344683350475
 20
14.3
 30
0.0
  0
POINT
  5
82
330
17
100
AcDbEntity
  8
BUSH
100
AcDbPoint
 10
12.533451259866396
 20
14.3
 30
0.0
  0
POINT
  5
83
330
17
100
AcDbEntity
  8
BUSH
100
AcDbPoint
 10
13.730557836382332
 20
14.3
 30
0.0
  0
POINT
  5
84
330
17
100
AcDbEntity
  8
BUSH
100
AcDbPoint
 10
14.927664412898267
 20
14.3
 30
0.0
  0
POINT
  5
85
330
17
100
AcDbEntity
  8
BUSH
100
AcDbPoint
 10
16.115981553577438
 20
14.177621342292122
 30
0.0
  0
POINT
  5
86
330
17
100
AcDbEntity
  8
BUSH
100
AcDbPoint
 10
17.246452596508068
 20
13.79334622772905
 30
0.0
  0
POINT
  5
87
330
17
100
AcDbEntity
  8
BUSH
100
AcDbPoint
 10
18.264423774996935
 20
13.169533793314383
 30
0.0
  0
POINT
  5
88
330
17
100
AcDbEntity
  8
BUSH
100
AcDbPoint
 10
19.117825482602516
 20
12.33414436102196
 30
0.0
  0
POINT
  5
89
330
17
100
AcDbEntity
  8
BUSH
100
AcDbPoint
 10
19.75623328928711
 20
11.324921312010186
 30
0.0
  0
POINT
  5
8A
330
17
100
AcDbEntity
  8
BUSH
100
AcDbPoint
 10
20.15653000553126
 20
10.200182889825664
 30
0.0
  0
POINT
  5
8B
330
17
100
AcDbEntity
  8
BUSH
100
AcDbPoint
 10
20.299290132193963
 20
9.014449691143813
 30
0.0
  0
POINT
  5
8C
330
17
100
AcDbEntity
  8
BUSH
100
AcDbPoint
 10
20.3
 20
7.817360540904403
 30
0.0
  0
POINT
  5
8D
330
17
100
AcDbEntity
  8
BUSH
100
AcDbPoint
 10
20.3
 20
6.620253964388482
 30
0.0
  0
POINT
  5
8E
330
17
100
AcDbEntity
  8
BUSH
100
AcDbPoint
 10
20.3
 20
5.423147387872547
 30
0.0
  0
POINT
  5
8F
330
17
100
AcDbEntity
  8
BUSH
100
AcDbPoint
 10
20.3
 20
4.2260408113566115
 30
0.0
  0
POINT
  5
90
330
17
100
AcDbEntity
  8
BUSH
100
AcDbPoint
 10
20.3
 20
3.0289342348406905
 30
0.0
  0
POINT
  5
91
330
17
100
AcDbEntity
  8
BUSH
100
AcDbPoint
 10
20.3
 20
1.8318276583247552
 30
0.0
  0
POINT
  5
92
330
17
100
AcDbEntity
  8
BUSH
100
AcDbPoint
 10
20.3
 20
0.63472108180882
 30
0.0
  0
POINT
  5
93
330
17
100
AcDbEntity
  8
BUSH
100
AcDbPoint
 10
20.3
 20
-0.562385494707101
 30
0.0
  0
POINT
  5
94
330
17
100
AcDbEntity
  8
BUSH
100
AcDbPoint
 10
20.3
 20
-1.7594920712230362
 30
0.0
  0
POINT
  5
95
330
17
100
AcDbEntity
  8
BUSH
100
AcDbPoint
 10
20.3
 20
-2.956598647738957
 30
0.0
  0
POINT
  5
96
330
17
100
AcDbEntity
  8
BUSH
100
AcDbPoint
 10
20.3
 20
-4.153705224254892
 30
0.0
  0
POINT
  5
97
330
17
100
AcDbEntity
  8
BUSH
100
AcDbPoint
 10
20.3
 20
-5.350811800770828
 30
0.0
  0
POINT
  5
98
330
17
100
AcDbEntity
  8
BUSH
100
AcDbPoint
 10
20.3
 20
-6.547918377286749
 30
0.0
  0
POINT
  5
99
330
17
100
AcDbEntity
  8
BUSH
100
AcDbPoint
 10
20.3
 20
-7.745024953802684
 30
0.0
  0
POINT
  5
9A
330
17
100
AcDbEntity
  8
BUSH
100
AcDbPoint
 10
20.3
 20
-8.942131530318619
 30
0.0
  0
POINT
  5
9B
330
17
100
AcDbEntity
  8
BUSH
100
AcDbPoint
 10
20.174106119498642
 20
-10.130015109618826
 30
0.0
  0
POINT
  5
9C
330
17
100
AcDbEntity
  8
BUSH
100
AcDbPoint
 10
19.787160737988724
 20
-11.259530715758427
 30
0.0
  0
POINT
  5
9D
330
17
100
AcDbEntity
  8
BUSH
100
AcDbPoint
 10
19.160915741529074
 20
-12.276043872667767
 30
0.0
  0
POINT
  5
9E
330
17
100
AcDbEntity
  8
BUSH
100
AcDbPoint
 10
18.322524263351106
 20
-13.12644353438784
 30
0.0
  0
POINT
  5
9F
330
17
100
AcDbEntity
  8
BUSH
100
AcDbPoint
 10
17.311843192759817
 20
-13.762418779027442
 30
0.0
  0
POINT
  5
A0
330
17
100
AcDbEntity
  8
BUSH
100
AcDbPoint
 10
16.186149333784314
 20
-14.16004522832473
 30
0.0
  0
POINT
  5
A1
330
17
100
AcDbEntity
  8
BUSH
100
AcDbPoint
 10
15.0
 20
-15.5
 30
0.0
  0
POINT
  5
A2
330
17
100
AcDbEntity
  8
BUSH
100
AcDbPoint
 10
13.799786797891123
 20
-15.5
 30
0.0
  0
POINT
  5
A3
330
17
100
AcDbEntity
  8
BUSH
100
AcDbPoint
 10
12.599573595782248
 20
-15.5
 30
0.0
  0
POINT
  5
A4
330
17
100
AcDbEntity
  8
BUSH
100
AcDbPoint
 10
11.399360393673373
 20
-15.5
 30
0.0
  0
POINT
  5
A5
330
17
100
AcDbEntity
  8
BUSH
100
AcDbPoint
 10
10.199147191564496
 20
-15.5
 30
0.0
  0
POINT
  5
A6
330
17
100
AcDbEntity
  8
BUSH
100
AcDbPoint
 10
8.998933989455619
 20
-15.5
 30
0.0
  0
POINT
  5
A7
330
17
100
AcDbEntity
  8
BUSH
100
AcDbPoint
 10
7.798720787346744
 20
-15.5
 30
0.0
  0
POINT
  5
A8
330
17
100
AcDbEntity
  8
BUSH
100
AcDbPoint
 10
6.5985075852378685
 20
-15.5
 30
0.0
  0
POINT
  5
A9
330
17
100
AcDbEntity
  8
BUSH
100
AcDbPoint
 10
5.398294383128992
 20
-15.5
 30
0.0
  0
POINT
  5
AA
330
17
100
AcDbEntity
  8
BUSH
100
AcDbPoint
 10
4.198081181020116
 20
-15.5
 30
0.0
  0
POINT
  5
AB
330
17
100
AcDbEntity
  8
BUSH
100
AcDbPoint
 10
2.9978679789112395
 20
-15.5
 30
0.0
  0
POINT
  5
AC
330
17
100
AcDbEntity
  8
BUSH
100
AcDbPoint
 10
1.7976547768023643
 20
-15.5
 30
0.0
  0
POINT
  5
AD
330
17
100
AcDbEntity
  8
BUSH
100
AcDbPoint
 10
0.5974415746934874
 20
-15.5
 30
0.0
  0
POINT
  5
AE
330
17
100
AcDbEntity
  8
BUSH
100
AcDbPoint
 10
-0.6027716274153878
 20
-15.5
 30
0.0
  0
POINT
  5
AF
330
17
100
AcDbEntity
  8
BUSH
100
AcDbPoint
 10
-1.802984829524263
 20
-15.5
 30
0.0
  0
POINT
  5
B0
330
17
100
AcDbEntity
  8
BUSH
100
AcDbPoint
 10
-3.00319803163314
 20
-15.5
 30
0.0
  0
POINT
  5
B1
330
17
100
AcDbEntity
  8
BUSH
100
AcDbPoint
 10
-4.203411233742017
 20
-15.5
 30
0.0
  0
POINT
  5
B2
330
17
100
AcDbEntity
  8
BUSH
100
AcDbPoint
 10
-5.403624435850894
 20
-15.5
 30
0.0
  0
POINT
  5
B3
330
17
100
AcDbEntity
  8
BUSH
100
AcDbPoint
 10
-6.603837637959767
 20
-15.5
 30
0.0
  0
POINT
  5
B4
330
17
100
AcDbEntity
  8
BUSH
100
AcDbPoint
 10
-7.804050840068644
 20
-15.5
 30
0.0
  0
POINT
  5
B5
330
17
100
AcDbEntity
  8
BUSH
100
AcDbPoint
 10
-9.004264042177521
 20
-15.5
 30
0.0
  0
POINT
  5
B6
330
17
100
AcDbEntity
  8
BUSH
100
AcDbPoint
 10
-10.204477244286394
 20
-15.5
 30
0.0
  0
POINT
  5
B7
330
17
100
AcDbEntity
  8
BUSH
100
AcDbPoint
 10
-11.404690446395271
 20
-15.5
 30
0.0
  0
POINT
  5
B8
330
17
100
AcDbEntity
  8
BUSH
100
AcDbPoint
 10
-12.604903648504148
 20
-15.5
 30
0.0
  0
POINT
  5
B9
330
17
100
AcDbEntity
  8
BUSH
100
AcDbPoint
 10
-13.805116850613025
 20
-15.5
 30
0.0
  0
POINT
  5
BA
330
17
100
AcDbEntity
  8
BUSH
100
AcDbPoint
 10
-15.005323632439966
 20
-15.499738466708894
 30
0.0
  0
POINT
  5
BB
330
17
100
AcDbEntity
  8
BUSH
100
AcDbPoint
 10
-16.198630800604544
 20
-15.385407190359782
 30
0.0
  0
POINT
  5
BC
330
17
100
AcDbEntity
  8
BUSH
100
AcDbPoint
 10
-17.35020039180403
 20
-15.054322904991551
 30
0.0
  0
POINT
  5
BD
330
17
100
AcDbEntity
  8
BUSH
100
AcDbPoint
 10
-18.421383506435685
 20
-14.518328012558781
 30
0.0
  0
POINT
  5
BE
330
17
100
AcDbEntity
  8
BUSH
100
AcDbPoint
 10
-19.376238832157956
 20
-13.795549891831886
 30
0.0
  0
POINT
  5
BF
330
17
100
AcDbEntity
  8
BUSH
100
AcDbPoint
 10
-20.182713106272818
 20
-12.910322283919054
 30
0.0
  0
POINT
  5
C0
330
17
100
AcDbEntity
  8
BUSH
100
AcDbPoint
 10
-20.813694542387704
 20
-11.892382442700548
 30
0.0
  0
POINT
  5
C1
330
17
100
AcDbEntity
  8
BUSH
100
AcDbPoint
 10
-21.247905593122105
 20
-10.775892886275642
 30
0.0
  0
POINT
  5
C2
330
17
100
AcDbEntity
  8
BUSH
100
AcDbPoint
 10
-21.47060647139595
 20
-9.598319019883876
 30
0.0
  0
POINT
  5
C3
330
17
100
AcDbEntity
  8
BUSH
100
AcDbPoint
 10
-21.5
 20
-8.398827388401145
 30
0.0
  0
POINT
  5
C4
330
17
100
AcDbEntity
  8
BUSH
100
AcDbPoint
 10
-21.5
 20
-7.198614186292268
 30
0.0
  0
POINT
  5
C5
330
17
100
AcDbEntity
  8
BUSH
100
AcDbPoint
 10
-21.5
 20
-5.998400984183398
 30
0.0
  0
POINT
  5
C6
330
17
100
AcDbEntity
  8
BUSH
100
AcDbPoint
 10
-21.5
 20
-4.798187782074514
 30
0.0
  0
POINT
  5
C7
330
17
100
AcDbEntity
  8
BUSH
100
AcDbPoint
 10
-21.5
 20
-3.597974579965644
 30
0.0
  0
POINT
  5
C8
330
17
100
AcDbEntity
  8
BUSH
100
AcDbPoint
 10
-21.5
 20
-2.3977613778567672
 30
0.0
  0
POINT
  5
C9
330
17
100
AcDbEntity
  8
BUSH
100
AcDbPoint
 10
-21.5
 20
-1.1975481757478903
 30
0.0
  0
POINT
  5
CA
330
17
100
AcDbEntity
  8
BUSH
100
AcDbPoint
 10
-21.5
 20
0.0026650263609866442
 30
0.0
  0
POINT
  5
CB
330
17
100
AcDbEntity
  8
BUSH
100
AcDbPoint
 10
-21.5
 20
1.2028782284698565
 30
0.0
  0
POINT
  5
CC
330
17
100
AcDbEntity
  8
BUSH
100
AcDbPoint
 10
-21.5
 20
2.4030914305787405
 30
0.0
  0
POINT
  5
CD
330
17
100
AcDbEntity
  8
BUSH
100
AcDbPoint
 10
-21.5
 20
3.6033046326876104
 30
0.0
  0
POINT
  5
CE
330
17
100
AcDbEntity
  8
BUSH
100
AcDbPoint
 10
-21.5
 20
4.803517834796494
 30
0.0
  0
POINT
  5
CF
330
17
100
AcDbEntity
  8
BUSH
100
AcDbPoint
 10
-21.5
 20
6.003731036905364
 30
0.0
  0
POINT
  5
D0
330
17
100
AcDbEntity
  8
BUSH
100
AcDbPoint
 10
-21.5
 20
7.203944239014241
 30
0.0
  0
POINT
  5
D1
330
17
100
AcDbEntity
  8
BUSH
100
AcDbPoint
 10
-21.5
 20
8.404157441123118
 30
0.0
  0
POINT
  5
D2
330
17
100
AcDbEntity
  8
BUSH
100
AcDbPoint
 10
-21.47034493810484
 20
9.603642652323915
 30
0.0
  0
POINT
  5
D3
330
17
100
AcDbEntity
  8
BUSH
100
AcDbPoint
 10
-21.24661049595283
 20
10.781063203997123
 30
0.0
  0
POINT
  5
D4
330
17
100
AcDbEntity
  8
BUSH
100
AcDbPoint
 10
-20.81141565119817
 20
11.897200753292994
 30
0.0
  0
POINT
  5
D5
330
17
100
AcDbEntity
  8
BUSH
100
AcDbPoint
 10
-20.179537997573437
 20
12.914603422408524
 30
0.0
  0
POINT
  5
D6
330
17
100
AcDbEntity
  8
BUSH
100
AcDbPoint
 10
-19.372289523595402
 20
13.79912933646714
 30
0.0
  0
POINT
  5
D7
330
17
100
AcDbEntity
  8
BUSH
100
AcDbPoint
 10
-18.416811767723257
 20
14.521068207289831
 30
0.0
  0
POINT
  5
D8
330
17
100
AcDbEntity
  8
BUSH
100
AcDbPoint
 10
-17.345181912296557
 20
15.056118545671627
 30
0.0
  0
POINT
  5
D9
330
17
100
AcDbEntity
  8
BUSH
100
AcDbPoint
 10
-16.193358437655107
 20
15.386189271524547
 30
0.0
  0
POINT
  5
DA
330
17
100
AcDbEntity
  8
BUSH
100
AcDbPoint
 10
-14.999999999999929
 20
15.5
 30
0.0
  0
POINT
  5
DB
330
17
100
AcDbEntity
  8
BUSH
100
AcDbPoint
 10
-13.799786797891045
 20
15.5
 30
0.0
  0
POINT
  5
DC
330
17
100
AcDbEntity
  8
BUSH
100
AcDbPoint
 10
-12.599573595782175
 20
15.5
 30
0.0
  0
POINT
  5
DD
330
17
100
AcDbEntity
  8
BUSH
100
AcDbPoint
 10
-11.399360393673305
 20
15.5
 30
0.0
  0
POINT
  5
DE
330
17
100
AcDbEntity
  8
BUSH
100
AcDbPoint
 10
-10.199147191564421
 20
15.5
 30
0.0
  0
POINT
  5
DF
330
17
100
AcDbEntity
  8
BUSH
100
AcDbPoint
 10
-8.998933989455551
 20
15.5
 30
0.0
  0
POINT
  5
E0
330
17
100
AcDbEntity
  8
BUSH
100
AcDbPoint
 10
-7.798720787346667
 20
15.5
 30
0.0
  0
POINT
  5
E1
330
17
100
AcDbEntity
  8
BUSH
100
AcDbPoint
 10
-6.5985075852377975
 20
15.5
 30
0.0
  0
POINT
  5
E2
330
17
100
AcDbEntity
  8
BUSH
100
AcDbPoint
 10
-5.398294383128928
 20
15.5
 30
0.0
  0
POINT
  5
E3
330
17
100
AcDbEntity
  8
BUSH
100
AcDbPoint
 10
-4.198081181020044
 20
15.5
 30
0.0
  0
POINT
  5
E4
330
17
100
AcDbEntity
  8
BUSH
100
AcDbPoint
 10
-2.9978679789111595
 20
15.5
 30
0.0
  0
POINT
  5
E5
330
17
100
AcDbEntity
  8
BUSH
100
AcDbPoint
 10
-1.7976547768022897
 20
15.5
 30
0.0
  0
POINT
  5
E6
330
17
100
AcDbEntity
  8
BUSH
100
AcDbPoint
 10
-0.5974415746934199
 20
15.5
 30
0.0
  0
POINT
  5
E7
330
17
100
AcDbEntity
  8
BUSH
100
AcDbPoint
 10
0.6027716274154642
 20
15.5
 30
0.0
  0
POINT
  5
E8
330
17
100
AcDbEntity
  8
BUSH
100
AcDbPoint
 10
1.8029848295243482
 20
15.5
 30
0.0
  0
POINT
  5
E9
330
17
100
AcDbEntity
  8
BUSH
100
AcDbPoint
 10
3.003198031633204
 20
15.5
 30
0.0
  0
POINT
  5
EA
330
17
100
AcDbEntity
  8
BUSH
100
AcDbPoint
 10
4.203411233742088
 20
15.5
 30
0.0
  0
POINT
  5
EB
330
17
100
AcDbEntity
  8
BUSH
100
AcDbPoint
 10
5.403624435850972
 20
15.5
 30
0.0
  0
POINT
  5
EC
330
17
100
AcDbEntity
  8
BUSH
100
AcDbPoint
 10
6.603837637959842
 20
15.5
 30
0.0
  0
POINT
  5
ED
330
17
100
AcDbEntity
  8
BUSH
100
AcDbPoint
 10
7.804050840068712
 20
15.5
 30
0.0
  0
POINT
  5
EE
330
17
100
AcDbEntity
  8
BUSH
100
AcDbPoint
 10
9.004264042177596
 20
15.5
 30
0.0
  0
POINT
  5
EF
330
17
100
AcDbEntity
  8
BUSH
100
AcDbPoint
 10
10.204477244286466
 20
15.5
 30
0.0
  0
POINT
  5
F0
330
17
100
AcDbEntity
  8
BUSH
100
AcDbPoint
 10
11.40469044639535
 20
15.5
 30
0.0
  0
POINT
  5
F1
330
17
100
AcDbEntity
  8
BUSH
100
AcDbPoint
 10
12.60490364850422
 20
15.5
 30
0.0
  0
POINT
  5
F2
330
17
100
AcDbEntity
  8
BUSH
100
AcDbPoint
 10
13.80511685061309
 20
15.5
 30
0.0
  0
POINT
  5
F3
330
17
100
AcDbEntity
  8
BUSH
100
AcDbPoint
 10
15.00532363244004
 20
15.49973846670889
 30
0.0
  0
POINT
  5
F4
330
17
100
AcDbEntity
  8
BUSH
100
AcDbPoint
 10
16.198630800604626
 20
15.38540719035977
 30
0.0
  0
POINT
  5
F5
330
17
100
AcDbEntity
  8
BUSH
100
AcDbPoint
 10
17.35020039180409
 20
15.05432290499153
 30
0.0
  0
POINT
  5
F6
330
17
100
AcDbEntity
  8
BUSH
100
AcDbPoint
 10
18.421383506435753
 20
14.518328012558742
 30
0.0
  0
POINT
  5
F7
330
17
100
AcDbEntity
  8
BUSH
100
AcDbPoint
 10
19.376238832158016
 20
13.795549891831831
 30
0.0
  0
POINT
  5
F8
330
17
100
AcDbEntity
  8
BUSH
100
AcDbPoint
 10
20.182713106272878
 20
12.910322283918974
 30
0.0
  0
POINT
  5
F9
330
17
100
AcDbEntity
  8
BUSH
100
AcDbPoint
 10
20.813694542387736
 20
11.892382442700477
 30
0.0
  0
POINT
  5
FA
330
17
100
AcDbEntity
  8
BUSH
100
AcDbPoint
 10
21.247905593122127
 20
10.775892886275559
 30
0.0
  0
POINT
  5
FB
330
17
100
AcDbEntity
  8
BUSH
100
AcDbPoint
 10
21.470606471395957
 20
9.598319019883782
 30
0.0
  0
POINT
  5
FC
330
17
100
AcDbEntity
  8
BUSH
100
AcDbPoint
 10
21.5
 20
8.39882738840106
 30
0.0
  0
POINT
  5
FD
330
17
100
AcDbEntity
  8
BUSH
100
AcDbPoint
 10
21.5
 20
7.19861418629219
 30
0.0
  0
POINT
  5
FE
330
17
100
AcDbEntity
  8
BUSH
100
AcDbPoint
 10
21.5
 20
5.998400984183306
 30
0.0
  0
POINT
  5
FF
330
17
100
AcDbEntity
  8
BUSH
100
AcDbPoint
 10
21.5
 20
4.798187782074436
 30
0.0
  0
POINT
  5
100
330
17
100
AcDbEntity
  8
BUSH
100
AcDbPoint
 10
21.5
 20
3.597974579965552
 30
0.0
  0
POINT
  5
101
330
17
100
AcDbEntity
  8
BUSH
100
AcDbPoint
 10
21.5
 20
2.397761377856682
 30
0.0
  0
POINT
  5
102
330
17
100
AcDbEntity
  8
BUSH
100
AcDbPoint
 10
21.5
 20
1.1975481757478121
 30
0.0
  0
POINT
  5
103
330
17
100
AcDbEntity
  8
BUSH
100
AcDbPoint
 10
21.5
 20
-0.0026650263610719094
 30
0.0
  0
POINT
  5
104
330
17
100
AcDbEntity
  8
BUSH
100
AcDbPoint
 10
21.5
 20
-1.202878228469956
 30
0.0
  0
POINT
  5
105
330
17
100
AcDbEntity
  8
BUSH
100
AcDbPoint
 10
21.5
 20
-2.4030914305788116
 30
0.0
  0
POINT
  5
106
330
17
100
AcDbEntity
  8
BUSH
100
AcDbPoint
 10
21.5
 20
-3.6033046326876956
 30
0.0
  0
POINT
  5
107
330
17
100
AcDbEntity
  8
BUSH
100
AcDbPoint
 10
21.5
 20
-4.80351783479658
 30
0.0
  0
POINT
  5
108
330
17
100
AcDbEntity
  8
BUSH
100
AcDbPoint
 10
21.5
 20
-6.0037310369054495
 30
0.0
  0
POINT
  5
109
330
17
100
AcDbEntity
  8
BUSH
100
AcDbPoint
 10
21.5
 20
-7.203944239014319
 30
0.0
  0
POINT
  5
10A
330
17
100
AcDbEntity
  8
BUSH
100
AcDbPoint
 10
21.5
 20
-8.404157441123203
 30
0.0
  0
POINT
  5
10B
330
17
100
AcDbEntity
  8
BUSH
100
AcDbPoint
 10
21.470344938104837
 20
-9.603642652324007
 30
0.0
  0
POINT
  5
10C
330
17
100
AcDbEntity
  8
BUSH
100
AcDbPoint
 10
21.246610495952805
 20
-10.781063203997226
 30
0.0
  0
POINT
  5
10D
330
17
100
AcDbEntity
  8
BUSH
100
AcDbPoint
 10
20.811415651198157
 20
-11.897200753293026
 30
0.0
  0
POINT
  5
10E
330
17
100
AcDbEntity
  8
BUSH
100
AcDbPoint
 10
20.179537997573416
 20
-12.914603422408552
 30
0.0
  0
POINT
  5
10F
330
17
100
AcDbEntity
  8
BUSH
100
AcDbPoint
 10
19.37228952359541
 20
-13.799129336467136
 30
0.0
  0
POINT
  5
110
330
17
100
AcDbEntity
  8
BUSH
100
AcDbPoint
 10
18.41681176772327
 20
-14.521068207289822
 30
0.0
  0
POINT
  5
111
330
17
100
AcDbEntity
  8
BUSH
100
AcDbPoint
 10
17.34518191229661
 20
-15.056118545671607
 30
0.0
  0
POINT
  5
112
330
17
100
AcDbEntity
  8
BUSH
100
AcDbPoint
 10
16.19335843765514
 20
-15.386189271524543
 30
0.0
  0
POINT
  5
113
330
17
100
AcDbEntity
  8
TREE
100
AcDbPoint
 10
15.0
 20
-16.6
 30
0.0
  0
POINT
  5
114
330
17
100
AcDbEntity
  8
TREE
100
AcDbPoint
 10
9.011123600595326
 20
-16.6
 30
0.0
  0
POINT
  5
115
330
17
100
AcDbEntity
  8
TREE
100
AcDbPoint
 10
3.02224720119065
 20
-16.6
 30
0.0
  0
POINT
  5
116
330
17
100
AcDbEntity
  8
TREE
100
AcDbPoint
 10
-2.966629198214026
 20
-16.6
 30
0.0
  0
POINT
  5
117
330
17
100
AcDbEntity
  8
TREE
100
AcDbPoint
 10
-8.9555055976187
 20
-16.6
 30
0.0
  0
POINT
  5
118
330
17
100
AcDbEntity
  8
TREE
100
AcDbPoint
 10
-14.944381997023378
 20
-16.6
 30
0.0
  0
POINT
  5
119
330
17
100
AcDbEntity
  8
TREE
100
AcDbPoint
 10
-20.349285403880444
 20
-14.39642199778756
 30
0.0
  0
POINT
  5
11A
330
17
100
AcDbEntity
  8
TREE
100
AcDbPoint
 10
-22.599454190788638
 20
-9.011110201731253
 30
0.0
  0
POINT
  5
11B
330
17
100
AcDbEntity
  8
TREE
100
AcDbPoint
 10
-22.599999999999998
 20
-3.022247201190659
 30
0.0
  0
POINT
  5
11C
330
17
100
AcDbEntity
  8
TREE
100
AcDbPoint
 10
-22.599999999999998
 20
2.9666291982140223
 30
0.0
  0
POINT
  5
11D
330
17
100
AcDbEntity
  8
TREE
100
AcDbPoint
 10
-22.599999999999998
 20
8.955505597618696
 30
0.0
  0
POINT
  5
11E
330
17
100
AcDbEntity
  8
TREE
100
AcDbPoint
 10
-20.388951844197628
 20
14.35752744825955
 30
0.0
  0
POINT
  5
11F
330
17
100
AcDbEntity
  8
TREE
100
AcDbPoint
 10
-15.000000000000014
 20
16.6
 30
0.0
  0
POINT
  5
120
330
17
100
AcDbEntity
  8
TREE
100
AcDbPoint
 10
-9.01112360059534
 20
16.6
 30
0.0
  0
POINT
  5
121
330
17
100
AcDbEntity
  8
TREE
100
AcDbPoint
 10
-3.022247201190652
 20
16.6
 30
0.0
  0
POINT
  5
122
330
17
100
AcDbEntity
  8
TREE
100
AcDbPoint
 10
2.966629198214008
 20
16.6
 30
0.0
  0
POINT
  5
123
330
17
100
AcDbEntity
  8
TREE
100
AcDbPoint
 10
8.955505597618682
 20
16.6
 30
0.0
  0
POINT
  5
124
330
17
100
AcDbEntity
  8
TREE
100
AcDbPoint
 10
14.94438199702337
 20
16.6
 30
0.0
  0
POINT
  5
125
330
17
100
AcDbEntity
  8
TREE
100
AcDbPoint
 10
20.349285403880433
 20
14.396421997787568
 30
0.0
  0
POINT
  5
126
330
17
100
AcDbEntity
  8
TREE
100
AcDbPoint
 10
22.599454190788634
 20
9.011110201731293
 30
0.0
  0
POINT
  5
127
330
17
100
AcDbEntity
  8
TREE
100
AcDbPoint
 10
22.599999999999998
 20
3.0222472011906802
 30
0.0
  0
POINT
  5
128
330
17
100
AcDbEntity
  8
TREE
100
AcDbPoint
 10
22.599999999999998
 20
-2.966629198213994
 30
0.0
  0
POINT
  5
129
330
17
100
AcDbEntity
  8
TREE
100
AcDbPoint
 10
22.599999999999998
 20
-8.955505597618668
 30
0.0
  0
POINT
  5
12A
330
17
100
AcDbEntity
  8
TREE
100
AcDbPoint
 10
20.388951844197635
 20
-14.357527448259539
 30
0.0
  0
ENDSEC
  0
SECTION
  2
OBJECTS
  0
DICTIONARY
  5
A
330
0
100
AcDbDictionary
281
1
  3
ACAD_COLOR
350
B
  3
ACAD_GROUP
350
C
  3
ACAD_LAYOUT
350
D
  3
ACAD_MATERIAL
350
E
  3
ACAD_MLEADERSTYLE
350
F
  3
ACAD_MLINESTYLE
350
10
  3
ACAD_PLOTSETTINGS
350
11
  3
ACAD_PLOTSTYLENAME
350
12
  3
ACAD_SCALELIST
350
14
  3
ACAD_TABLESTYLE
350
15
  3
ACAD_VISUALSTYLE
350
16
  3
EZDXF_META
350
2D
  0
DICTIONARY
  5
B
330
A
100
AcDbDictionary
281
1
  0
DICTIONARY
  5
C
330
A
100
AcDbDictionary
281
1
  0
DICTIONARY
  5
D
330
A
100
AcDbDictionary
281
1
  3
Model
350
1A
  3
Layout1
350
1E
  0
DICTIONARY
  5
E
330
A
100
AcDbDictionary
281
1
  3
ByBlock
350
1F
  3
ByLayer
350
20
  3
Global
350
21
  0
DICTIONARY
  5
F
330
A
100
AcDbDictionary
281
1
  3
Standard
350
2C
  0
DICTIONARY
  5
10
330
A
100
AcDbDictionary
281
1
  3
Standard
350
22
  0
DICTIONARY
  5
11
330
A
100
AcDbDictionary
281
1
  0
ACDBDICTIONARYWDFLT
  5
12
330
A
100
AcDbDictionary
281
1
  3
Normal
350
13
100
AcDbDictionaryWithDefault
340
13
  0
ACDBPLACEHOLDER
  5
13
330
12
  0
DICTIONARY
  5
14
330
A
100
AcDbDictionary
281
1
  0
DICTIONARY
  5
15
330
A
100
AcDbDictionary
281
1
  0
DICTIONARY
  5
16
330
A
100
AcDbDictionary
281
1
  0
LAYOUT
  5
1A
330
D
100
AcDbPlotSettings
  1

  4
A3
  6

 40
7.5
 41
20.0
 42
7.5
 43
20.0
 44
420.0
 45
297.0
 46
0.0
 47
0.0
 48
0.0
 49
0.0
140
0.0
141
0.0
142
1.0
143
1.0
 70
1024
 72
1
 73
0
 74
5
  7

 75
16
 76
0
 77
2
 78
300
147
1.0
148
0.0
149
0.0
100
AcDbLayout
  1
Model
 70
1
 71
0
 10
0.0
 20
0.0
 11
420.0
 21
297.0
 12
0.0
 22
0.0
 32
0.0
 14
1e+20
 24
1e+20
 34
1e+20
 15
-1e+20
 25
-1e+20
 35
-1e+20
146
0.0
 13
0.0
 23
0.0
 33
0.0
 16
1.0
 26
0.0
 36
0.0
 17
0.0
 27
1.0
 37
0.0
 76
1
330
17
  0
LAYOUT
  5
1E
330
D
100
AcDbPlotSettings
  1

  4
A3
  6

 40
7.5
 41
20.0
 42
7.5
 43
20.0
 44
420.0
 45
297.0
 46
0.0
 47
0.0
 48
0.0
 49
0.0
140
0.0
141
0.0
142
1.0
143
1.0
 70
0
 72
1
 73
0
 74
5
  7

 75
16
 76
0
 77
2
 78
300
147
1.0
148
0.0
149
0.0
100
AcDbLayout
  1
Layout1
 70
1
 71
1
 10
0.0
 20
0.0
 11
420.0
 21
297.0
 12
0.0
 22
0.0
 32
0.0
 14
1e+20
 24
1e+20
 34
1e+20
 15
-1e+20
 25
-1e+20
 35
-1e+20
146
0.0
 13
0.0
 23
0.0
 33
0.0
 16
1.0
 26
0.0
 36
0.0
 17
0.0
 27
1.0
 37
0.0
 76
1
330
1B
  0
MATERIAL
  5
1F
102
{ACAD_REACTORS
330
E
102
}
330
E
100
AcDbMaterial
  1
ByBlock
  2

 70
0
 40
1.0
 71
1
 41
1.0
 91
-1023410177
 42
1.0
 72
1
  3

 73
1
 74
1
 75
1
 44
0.5
 73
0
 45
1.0
 46
1.0
 77
1
  4

 78
1
 79
1
170
1
 48
1.0
171
1
  6

172
1
173
1
174
1
140
1.0
141
1.0
175
1
  7

176
1
177
1
178
1
143
1.0
179
1
  8

270
1
271
1
272
1
145
1.0
146
1.0
273
1
  9

274
1
275
1
276
1
 42
1.0
 72
1
  3

 73
1
 74
1
 75
1
 94
63
  0
MATERIAL
  5
20
102
{ACAD_REACTORS
330
E
102
}
330
E
100
AcDbMaterial
  1
ByLayer
  2

 70
0
 40
1.0
 71
1
 41
1.0
 91
-1023410177
 42
1.0
 72
1
  3

 73
1
 74
1
 75
1
 44
0.5
 73
0
 45
1.0
 46
1.0
 77
1
  4

 78
1
 79
1
170
1
 48
1.0
171
1
  6

172
1
173
1
174
1
140
1.0
141
1.0
175
1
  7

176
1
177
1
178
1
143
1.0
179
1
  8

270
1
271
1
272
1
145
1.0
146
1.0
273
1
  9

274
1
275
1
276
1
 42
1.0
 72
1
  3

 73
1
 74
1
 75
1
 94
63
  0
MATERIAL
  5
21
102
{ACAD_REACTORS
330
E
102
}
330
E
100
AcDbMaterial
  1
Global
  2

 70
0
 40
1.0
 71
1
 41
1.0
 91
-1023410177
 42
1.0
 72
1
  3

 73
1
 74
1
 75
1
 44
0.5
 73
0
 45
1.0
 46
1.0
 77
1
  4

 78
1
 79
1
170
1
 48
1.0
171
1
  6

172
1
173
1
174
1
140
1.0
141
1.0
175
1
  7

176
1
177
1
178
1
143
1.0
179
1
  8

270
1
271
1
272
1
145
1.0
146
1.0
273
1
  9

274
1
275
1
276
1
 42
1.0
 72
1
  3

 73
1
 74
1
 75
1
 94
63
  0
MLINESTYLE
  5
22
102
{ACAD_REACTORS
330
10
102
}
330
10
100
AcDbMlineStyle
  2
Standard
 70
0
  3

 62
256
 51
90.0
 52
90.0
 71
2
 49
0.5
 62
256
  6
BYLAYER
 49
-0.5
 62
256
  6
BYLAYER
  0
MLEADERSTYLE
  5
2C
102
{ACAD_REACTORS
330
F
102
}
330
F
100
AcDbMLeaderStyle
179
2
170
2
171
1
172
0
 90
2
 40
0.0
 41
0.0
173
1
 91
-1056964608
 92
-2
290
1
 42
2.0
291
1
 43
8.0
  3
Standard
 44
4.0
300

342
29
174
1
175
1
176
0
178
1
 93
-1056964608
 45
4.0
292
0
297
0
 46
4.0
 94
-1056964608
 47
1.0
 49
1.0
140
1.0
294
1
141
0.0
177
0
142
1.0
295
0
296
0
143
3.75
271
0
272
9
273
9
  0
DICTIONARY
  5
2D
330
A
100
AcDbDictionary
280
1
281
1
  3
CREATED_BY_EZDXF
350
2E
  3
WRITTEN_BY_EZDXF
350
12D
  0
DICTIONARYVAR
  5
2E
330
2D
100
DictionaryVariables
280
0
  1
1.4.4 @ 2026-09-20T21:24:07.242330+00:00
  0
DICTIONARYVAR
  5
12D
330
2D
100
DictionaryVariables
280
0
  1
1.4.4 @ 2026-09-20T21:24:07.247675+00:00
  0
ENDSEC
  0
EOF
