# Stub OBJ File (GreenCity procedural placeholder): 'ArchingShrub_1'
# generated as low-poly gap-filler, see GreenCity_model_distribution_report.md
mtllib ArchingShrub_1.mtl
o ArchingShrub_1
v 0.550000 0.750000 0.000000
v 0.085000 0.100000 0.000000
v 0.060816 0.100000 0.033287
v 0.021684 0.100000 0.020572
v 0.021684 0.100000 -0.020572
v 0.060816 0.100000 -0.033287
v 0.444959 0.750000 0.323282
v 0.075451 0.100000 0.029389
v 0.051266 0.100000 0.062676
v 0.012135 0.100000 0.049962
v 0.012135 0.100000 0.008817
v 0.051266 0.100000 -0.003898
v 0.169959 0.750000 0.523081
v 0.050451 0.100000 0.047553
v 0.026266 0.100000 0.080840
v -0.012865 0.100000 0.068125
v -0.012865 0.100000 0.026980
v 0.026266 0.100000 0.014266
v -0.169959 0.750000 0.523081
v 0.019549 0.100000 0.047553
v -0.004635 0.100000 0.080840
v -0.043766 0.100000 0.068125
v -0.043766 0.100000 0.026980
v -0.004635 0.100000 0.014266
v -0.444959 0.750000 0.323282
v -0.005451 0.100000 0.029389
v -0.029635 0.100000 0.062676
v -0.068766 0.100000 0.049962
v -0.068766 0.100000 0.008817
v -0.029635 0.100000 -0.003898
v -0.550000 0.750000 0.000000
v -0.015000 0.100000 0.000000
v -0.039184 0.100000 0.033287
v -0.078316 0.100000 0.020572
v -0.078316 0.100000 -0.020572
v -0.039184 0.100000 -0.033287
v -0.444959 0.750000 -0.323282
v -0.005451 0.100000 -0.029389
v -0.029635 0.100000 0.003898
v -0.068766 0.100000 -0.008817
v -0.068766 0.100000 -0.049962
v -0.029635 0.100000 -0.062676
v -0.169959 0.750000 -0.523081
v 0.019549 0.100000 -0.047553
v -0.004635 0.100000 -0.014266
v -0.043766 0.100000 -0.026980
v -0.043766 0.100000 -0.068125
v -0.004635 0.100000 -0.080840
v 0.169959 0.750000 -0.523081
v 0.050451 0.100000 -0.047553
v 0.026266 0.100000 -0.014266
v -0.012865 0.100000 -0.026980
v -0.012865 0.100000 -0.068125
v 0.026266 0.100000 -0.080840
v 0.444959 0.750000 -0.323282
v 0.075451 0.100000 -0.029389
v 0.051266 0.100000 0.003898
v 0.012135 0.100000 -0.008817
v 0.012135 0.100000 -0.049962
v 0.051266 0.100000 -0.062676
usemtl Green
f 2 3 1
f 3 4 1
f 4 5 1
f 5 6 1
f 6 2 1
usemtl Green
f 8 9 7
f 9 10 7
f 10 11 7
f 11 12 7
f 12 8 7
usemtl Green
f 14 15 13
f 15 16 13
f 16 17 13
f 17 18 13
f 18 14 13
usemtl Green
f 20 21 19
f 21 22 19
f 22 23 19
f 23 24 19
f 24 20 19
usemtl Green
f 26 27 25
f 27 28 25
f 28 29 25
f 29 30 25
f 30 26 25
usemtl Green
f 32 33 31
f 33 34 31
f 34 35 31
f 35 36 31
f 36 32 31
usemtl Green
f 38 39 37
f 39 40 37
f 40 41 37
f 41 42 37
f 42 38 37
usemtl Green
f 44 45 43
f 45 46 43
f 46 47 43
f 47 48 43
f 48 44 43
usemtl Green
f 50 51 49
f 51 52 49
f 52 53 49
f 53 54 49
f 54 50 49
usemtl Green
f 56 57 55
f 57 58 55
f 58 59 55
f 59 60 55
f 60 56 55
