# Stub OBJ File (GreenCity procedural placeholder): 'ColumnarTree_1'
# generated as low-poly gap-filler, see GreenCity_model_distribution_report.md
mtllib stub_shared.mtl
o ColumnarTree_1
v 0.050000 0.000000 0.000000
v 0.025000 0.000000 0.043301
v -0.025000 0.000000 0.043301
v -0.050000 0.000000 0.000000
v -0.025000 0.000000 -0.043301
v 0.025000 0.000000 -0.043301
v 0.040000 3.500000 0.000000
v 0.020000 3.500000 0.034641
v -0.020000 3.500000 0.034641
v -0.040000 3.500000 0.000000
v -0.020000 3.500000 -0.034641
v 0.020000 3.500000 -0.034641
v 0.000000 4.200000 0.000000
v 0.000000 4.200000 0.000000
v 0.000000 4.200000 0.000000
v 0.000000 4.200000 0.000000
v 0.000000 4.200000 0.000000
v 0.000000 4.200000 0.000000
v 0.000000 4.200000 0.000000
v 0.000000 4.200000 0.000000
v 0.175000 3.985641 0.000000
v 0.123744 3.985641 0.123744
v 0.000000 3.985641 0.175000
v -0.123744 3.985641 0.123744
v -0.175000 3.985641 0.000000
v -0.123744 3.985641 -0.123744
v -0.000000 3.985641 -0.175000
v 0.123744 3.985641 -0.123744
v 0.303109 3.400000 0.000000
v 0.214330 3.400000 0.214330
v 0.000000 3.400000 0.303109
v -0.214330 3.400000 0.214330
v -0.303109 3.400000 0.000000
v -0.214330 3.400000 -0.214330
v -0.000000 3.400000 -0.303109
v 0.214330 3.400000 -0.214330
v 0.350000 2.600000 0.000000
v 0.247487 2.600000 0.247487
v 0.000000 2.600000 0.350000
v -0.247487 2.600000 0.247487
v -0.350000 2.600000 0.000000
v -0.247487 2.600000 -0.247487
v -0.000000 2.600000 -0.350000
v 0.247487 2.600000 -0.247487
v 0.303109 1.800000 0.000000
v 0.214330 1.800000 0.214330
v 0.000000 1.800000 0.303109
v -0.214330 1.800000 0.214330
v -0.303109 1.800000 0.000000
v -0.214330 1.800000 -0.214330
v -0.000000 1.800000 -0.303109
v 0.214330 1.800000 -0.214330
v 0.175000 1.214359 0.000000
v 0.123744 1.214359 0.123744
v 0.000000 1.214359 0.175000
v -0.123744 1.214359 0.123744
v -0.175000 1.214359 0.000000
v -0.123744 1.214359 -0.123744
v -0.000000 1.214359 -0.175000
v 0.123744 1.214359 -0.123744
v 0.000000 1.000000 0.000000
v 0.000000 1.000000 0.000000
v 0.000000 1.000000 0.000000
v -0.000000 1.000000 0.000000
v -0.000000 1.000000 0.000000
v -0.000000 1.000000 -0.000000
v -0.000000 1.000000 -0.000000
v 0.000000 1.000000 -0.000000
usemtl Wood
f 1 2 8 7
f 2 3 9 8
f 3 4 10 9
f 4 5 11 10
f 5 6 12 11
f 6 1 7 12
usemtl Green
f 13 22 21
f 14 23 22
f 15 24 23
f 16 25 24
f 17 26 25
f 18 27 26
f 19 28 27
f 20 21 28
f 21 22 30 29
f 22 23 31 30
f 23 24 32 31
f 24 25 33 32
f 25 26 34 33
f 26 27 35 34
f 27 28 36 35
f 28 21 29 36
f 29 30 38 37
f 30 31 39 38
f 31 32 40 39
f 32 33 41 40
f 33 34 42 41
f 34 35 43 42
f 35 36 44 43
f 36 29 37 44
f 37 38 46 45
f 38 39 47 46
f 39 40 48 47
f 40 41 49 48
f 41 42 50 49
f 42 43 51 50
f 43 44 52 51
f 44 37 45 52
f 45 46 54 53
f 46 47 55 54
f 47 48 56 55
f 48 49 57 56
f 49 50 58 57
f 50 51 59 58
f 51 52 60 59
f 52 45 53 60
f 53 54 62
f 54 55 63
f 55 56 64
f 56 57 65
f 57 58 66
f 58 59 67
f 59 60 68
f 60 53 61
