# Stub OBJ File (GreenCity procedural placeholder): 'ConiferLow_1'
# generated as low-poly gap-filler, see GreenCity_model_distribution_report.md
mtllib ConiferLow_1.mtl
o ConiferLow_1
v 0.000000 0.196000 0.000000
v 0.000000 0.196000 0.000000
v 0.000000 0.196000 0.000000
v 0.000000 0.196000 0.000000
v 0.000000 0.196000 0.000000
v 0.000000 0.196000 0.000000
v 0.000000 0.196000 0.000000
v 0.000000 0.196000 0.000000
v 0.000000 0.196000 0.000000
v 0.350000 0.098000 0.000000
v 0.268116 0.098000 0.224976
v 0.060777 0.098000 0.344683
v -0.175000 0.098000 0.303109
v -0.328892 0.098000 0.119707
v -0.328892 0.098000 -0.119707
v -0.175000 0.098000 -0.303109
v 0.060777 0.098000 -0.344683
v 0.268116 0.098000 -0.224976
v 0.000000 0.000000 0.000000
v 0.000000 0.000000 0.000000
v 0.000000 0.000000 0.000000
v -0.000000 0.000000 0.000000
v -0.000000 0.000000 0.000000
v -0.000000 0.000000 -0.000000
v -0.000000 0.000000 -0.000000
v 0.000000 0.000000 -0.000000
v 0.000000 0.000000 -0.000000
usemtl Green
f 1 11 10
f 2 12 11
f 3 13 12
f 4 14 13
f 5 15 14
f 6 16 15
f 7 17 16
f 8 18 17
f 9 10 18
f 10 11 20
f 11 12 21
f 12 13 22
f 13 14 23
f 14 15 24
f 15 16 25
f 16 17 26
f 17 18 27
f 18 10 19
