# Stub OBJ File (GreenCity procedural placeholder): 'DogwoodShrub_1'
# generated as low-poly gap-filler, see GreenCity_model_distribution_report.md
mtllib DogwoodShrub_1.mtl
o DogwoodShrub_1
v 0.018000 0.000000 0.000000
v 0.005562 0.000000 0.017119
v -0.014562 0.000000 0.010580
v -0.014562 0.000000 -0.010580
v 0.005562 0.000000 -0.017119
v 0.012000 1.300000 0.000000
v 0.003708 1.300000 0.011413
v -0.009708 1.300000 0.007053
v -0.009708 1.300000 -0.007053
v 0.003708 1.300000 -0.011413
v 0.118000 0.000000 0.050000
v 0.105562 0.000000 0.067119
v 0.085438 0.000000 0.060580
v 0.085438 0.000000 0.039420
v 0.105562 0.000000 0.032881
v 0.112000 1.500000 0.050000
v 0.103708 1.500000 0.061413
v 0.090292 1.500000 0.057053
v 0.090292 1.500000 0.042947
v 0.103708 1.500000 0.038587
v -0.062000 0.000000 0.080000
v -0.074438 0.000000 0.097119
v -0.094562 0.000000 0.090580
v -0.094562 0.000000 0.069420
v -0.074438 0.000000 0.062881
v -0.068000 1.400000 0.080000
v -0.076292 1.400000 0.091413
v -0.089708 1.400000 0.087053
v -0.089708 1.400000 0.072947
v -0.076292 1.400000 0.068587
v 0.058000 0.000000 -0.100000
v 0.045562 0.000000 -0.082881
v 0.025438 0.000000 -0.089420
v 0.025438 0.000000 -0.110580
v 0.045562 0.000000 -0.117119
v 0.052000 1.600000 -0.100000
v 0.043708 1.600000 -0.088587
v 0.030292 1.600000 -0.092947
v 0.030292 1.600000 -0.107053
v 0.043708 1.600000 -0.111413
v -0.082000 0.000000 -0.050000
v -0.094438 0.000000 -0.032881
v -0.114562 0.000000 -0.039420
v -0.114562 0.000000 -0.060580
v -0.094438 0.000000 -0.067119
v -0.088000 1.200000 -0.050000
v -0.096292 1.200000 -0.038587
v -0.109708 1.200000 -0.042947
v -0.109708 1.200000 -0.057053
v -0.096292 1.200000 -0.061413
v 0.000000 1.850000 0.000000
v 0.000000 1.850000 0.000000
v 0.000000 1.850000 0.000000
v 0.000000 1.850000 0.000000
v 0.000000 1.850000 0.000000
v 0.000000 1.850000 0.000000
v 0.000000 1.850000 0.000000
v 0.000000 1.850000 0.000000
v 0.282843 1.703553 0.000000
v 0.200000 1.703553 0.200000
v 0.000000 1.703553 0.282843
v -0.200000 1.703553 0.200000
v -0.282843 1.703553 0.000000
v -0.200000 1.703553 -0.200000
v -0.000000 1.703553 -0.282843
v 0.200000 1.703553 -0.200000
v 0.400000 1.350000 0.000000
v 0.282843 1.350000 0.282843
v 0.000000 1.350000 0.400000
v -0.282843 1.350000 0.282843
v -0.400000 1.350000 0.000000
v -0.282843 1.350000 -0.282843
v -0.000000 1.350000 -0.400000
v 0.282843 1.350000 -0.282843
v 0.282843 0.996447 0.000000
v 0.200000 0.996447 0.200000
v 0.000000 0.996447 0.282843
v -0.200000 0.996447 0.200000
v -0.282843 0.996447 0.000000
v -0.200000 0.996447 -0.200000
v -0.000000 0.996447 -0.282843
v 0.200000 0.996447 -0.200000
v 0.000000 0.850000 0.000000
v 0.000000 0.850000 0.000000
v 0.000000 0.850000 0.000000
v -0.000000 0.850000 0.000000
v -0.000000 0.850000 0.000000
v -0.000000 0.850000 -0.000000
v -0.000000 0.850000 -0.000000
v 0.000000 0.850000 -0.000000
usemtl Wood
f 1 2 7 6
f 2 3 8 7
f 3 4 9 8
f 4 5 10 9
f 5 1 6 10
usemtl Wood
f 11 12 17 16
f 12 13 18 17
f 13 14 19 18
f 14 15 20 19
f 15 11 16 20
usemtl Wood
f 21 22 27 26
f 22 23 28 27
f 23 24 29 28
f 24 25 30 29
f 25 21 26 30
usemtl Wood
f 31 32 37 36
f 32 33 38 37
f 33 34 39 38
f 34 35 40 39
f 35 31 36 40
usemtl Wood
f 41 42 47 46
f 42 43 48 47
f 43 44 49 48
f 44 45 50 49
f 45 41 46 50
usemtl Green
f 51 60 59
f 52 61 60
f 53 62 61
f 54 63 62
f 55 64 63
f 56 65 64
f 57 66 65
f 58 59 66
f 59 60 68 67
f 60 61 69 68
f 61 62 70 69
f 62 63 71 70
f 63 64 72 71
f 64 65 73 72
f 65 66 74 73
f 66 59 67 74
f 67 68 76 75
f 68 69 77 76
f 69 70 78 77
f 70 71 79 78
f 71 72 80 79
f 72 73 81 80
f 73 74 82 81
f 74 67 75 82
f 75 76 84
f 76 77 85
f 77 78 86
f 78 79 87
f 79 80 88
f 80 81 89
f 81 82 90
f 82 75 83
