# Stub OBJ File (GreenCity procedural placeholder): 'HydrangeaShrub_1'
# generated as low-poly gap-filler, see GreenCity_model_distribution_report.md
mtllib stub_shared.mtl
o HydrangeaShrub_1
v 0.000000 0.490000 0.000000
v 0.000000 0.490000 0.000000
v 0.000000 0.490000 0.000000
v 0.000000 0.490000 0.000000
v 0.000000 0.490000 0.000000
v 0.000000 0.490000 0.000000
v 0.000000 0.490000 0.000000
v 0.000000 0.490000 0.000000
v 0.303109 0.367500 0.000000
v 0.214330 0.367500 0.214330
v 0.000000 0.367500 0.303109
v -0.214330 0.367500 0.214330
v -0.303109 0.367500 0.000000
v -0.214330 0.367500 -0.214330
v -0.000000 0.367500 -0.303109
v 0.214330 0.367500 -0.214330
v 0.303109 0.122500 0.000000
v 0.214330 0.122500 0.214330
v 0.000000 0.122500 0.303109
v -0.214330 0.122500 0.214330
v -0.303109 0.122500 0.000000
v -0.214330 0.122500 -0.214330
v -0.000000 0.122500 -0.303109
v 0.214330 0.122500 -0.214330
v 0.000000 0.000000 0.000000
v 0.000000 0.000000 0.000000
v 0.000000 0.000000 0.000000
v -0.000000 0.000000 0.000000
v -0.000000 0.000000 0.000000
v -0.000000 0.000000 -0.000000
v -0.000000 0.000000 -0.000000
v 0.000000 0.000000 -0.000000
v 0.000000 0.820000 0.000000
v 0.000000 0.820000 0.000000
v 0.000000 0.820000 0.000000
v 0.000000 0.820000 0.000000
v 0.000000 0.820000 0.000000
v 0.000000 0.820000 0.000000
v 0.000000 0.820000 0.000000
v 0.000000 0.820000 0.000000
v 0.169706 0.761421 0.000000
v 0.120000 0.761421 0.120000
v 0.000000 0.761421 0.169706
v -0.120000 0.761421 0.120000
v -0.169706 0.761421 0.000000
v -0.120000 0.761421 -0.120000
v -0.000000 0.761421 -0.169706
v 0.120000 0.761421 -0.120000
v 0.240000 0.620000 0.000000
v 0.169706 0.620000 0.169706
v 0.000000 0.620000 0.240000
v -0.169706 0.620000 0.169706
v -0.240000 0.620000 0.000000
v -0.169706 0.620000 -0.169706
v -0.000000 0.620000 -0.240000
v 0.169706 0.620000 -0.169706
v 0.169706 0.478579 0.000000
v 0.120000 0.478579 0.120000
v 0.000000 0.478579 0.169706
v -0.120000 0.478579 0.120000
v -0.169706 0.478579 0.000000
v -0.120000 0.478579 -0.120000
v -0.000000 0.478579 -0.169706
v 0.120000 0.478579 -0.120000
v 0.000000 0.420000 0.000000
v 0.000000 0.420000 0.000000
v 0.000000 0.420000 0.000000
v -0.000000 0.420000 0.000000
v -0.000000 0.420000 0.000000
v -0.000000 0.420000 -0.000000
v -0.000000 0.420000 -0.000000
v 0.000000 0.420000 -0.000000
usemtl Green
f 1 10 9
f 2 11 10
f 3 12 11
f 4 13 12
f 5 14 13
f 6 15 14
f 7 16 15
f 8 9 16
f 9 10 18 17
f 10 11 19 18
f 11 12 20 19
f 12 13 21 20
f 13 14 22 21
f 14 15 23 22
f 15 16 24 23
f 16 9 17 24
f 17 18 26
f 18 19 27
f 19 20 28
f 20 21 29
f 21 22 30
f 22 23 31
f 23 24 32
f 24 17 25
usemtl Pink
f 33 42 41
f 34 43 42
f 35 44 43
f 36 45 44
f 37 46 45
f 38 47 46
f 39 48 47
f 40 41 48
f 41 42 50 49
f 42 43 51 50
f 43 44 52 51
f 44 45 53 52
f 45 46 54 53
f 46 47 55 54
f 47 48 56 55
f 48 41 49 56
f 49 50 58 57
f 50 51 59 58
f 51 52 60 59
f 52 53 61 60
f 53 54 62 61
f 54 55 63 62
f 55 56 64 63
f 56 49 57 64
f 57 58 66
f 58 59 67
f 59 60 68
f 60 61 69
f 61 62 70
f 62 63 71
f 63 64 72
f 64 57 65
