# Stub OBJ File (GreenCity procedural placeholder): 'JuniperUpright_1'
# generated as low-poly gap-filler, see GreenCity_model_distribution_report.md
mtllib JuniperUpright_1.mtl
o JuniperUpright_1
v 0.030000 0.000000 0.000000
v 0.015000 0.000000 0.025981
v -0.015000 0.000000 0.025981
v -0.030000 0.000000 0.000000
v -0.015000 0.000000 -0.025981
v 0.015000 0.000000 -0.025981
v 0.020000 0.500000 0.000000
v 0.010000 0.500000 0.017321
v -0.010000 0.500000 0.017321
v -0.020000 0.500000 0.000000
v -0.010000 0.500000 -0.017321
v 0.010000 0.500000 -0.017321
v 0.220000 0.100000 0.000000
v 0.155563 0.100000 0.155563
v 0.000000 0.100000 0.220000
v -0.155563 0.100000 0.155563
v -0.220000 0.100000 0.000000
v -0.155563 0.100000 -0.155563
v -0.000000 0.100000 -0.220000
v 0.155563 0.100000 -0.155563
v 0.050000 1.100000 0.000000
v 0.035355 1.100000 0.035355
v 0.000000 1.100000 0.050000
v -0.035355 1.100000 0.035355
v -0.050000 1.100000 0.000000
v -0.035355 1.100000 -0.035355
v -0.000000 1.100000 -0.050000
v 0.035355 1.100000 -0.035355
usemtl Wood
f 1 2 8 7
f 2 3 9 8
f 3 4 10 9
f 4 5 11 10
f 5 6 12 11
f 6 1 7 12
usemtl Green
f 13 14 22 21
f 14 15 23 22
f 15 16 24 23
f 16 17 25 24
f 17 18 26 25
f 18 19 27 26
f 19 20 28 27
f 20 13 21 28
