# Stub OBJ File (GreenCity procedural placeholder): 'JuniperSpreading_1'
# generated as low-poly gap-filler, see GreenCity_model_distribution_report.md
mtllib stub_shared.mtl
o JuniperSpreading_1
v 0.000000 0.385000 0.000000
v 0.000000 0.385000 0.000000
v 0.000000 0.385000 0.000000
v 0.000000 0.385000 0.000000
v 0.000000 0.385000 0.000000
v 0.000000 0.385000 0.000000
v 0.000000 0.385000 0.000000
v 0.000000 0.385000 0.000000
v 0.000000 0.385000 0.000000
v 0.000000 0.385000 0.000000
v 0.476314 0.288750 0.000000
v 0.385346 0.288750 0.279970
v 0.147189 0.288750 0.453002
v -0.147189 0.288750 0.453002
v -0.385346 0.288750 0.279970
v -0.476314 0.288750 0.000000
v -0.385346 0.288750 -0.279970
v -0.147189 0.288750 -0.453002
v 0.147189 0.288750 -0.453002
v 0.385346 0.288750 -0.279970
v 0.476314 0.096250 0.000000
v 0.385346 0.096250 0.279970
v 0.147189 0.096250 0.453002
v -0.147189 0.096250 0.453002
v -0.385346 0.096250 0.279970
v -0.476314 0.096250 0.000000
v -0.385346 0.096250 -0.279970
v -0.147189 0.096250 -0.453002
v 0.147189 0.096250 -0.453002
v 0.385346 0.096250 -0.279970
v 0.000000 0.000000 0.000000
v 0.000000 0.000000 0.000000
v 0.000000 0.000000 0.000000
v -0.000000 0.000000 0.000000
v -0.000000 0.000000 0.000000
v -0.000000 0.000000 0.000000
v -0.000000 0.000000 -0.000000
v -0.000000 0.000000 -0.000000
v 0.000000 0.000000 -0.000000
v 0.000000 0.000000 -0.000000
usemtl Green
f 1 12 11
f 2 13 12
f 3 14 13
f 4 15 14
f 5 16 15
f 6 17 16
f 7 18 17
f 8 19 18
f 9 20 19
f 10 11 20
f 11 12 22 21
f 12 13 23 22
f 13 14 24 23
f 14 15 25 24
f 15 16 26 25
f 16 17 27 26
f 17 18 28 27
f 18 19 29 28
f 19 20 30 29
f 20 11 21 30
f 21 22 32
f 22 23 33
f 23 24 34
f 24 25 35
f 25 26 36
f 26 27 37
f 27 28 38
f 28 29 39
f 29 30 40
f 30 21 31
