# Stub OBJ File (GreenCity procedural placeholder): 'Larch_1'
# generated as low-poly gap-filler, see GreenCity_model_distribution_report.md
mtllib Larch_1.mtl
o Larch_1
v 0.045000 0.000000 0.000000
v 0.022500 0.000000 0.038971
v -0.022500 0.000000 0.038971
v -0.045000 0.000000 0.000000
v -0.022500 0.000000 -0.038971
v 0.022500 0.000000 -0.038971
v 0.020000 2.800000 0.000000
v 0.010000 2.800000 0.017321
v -0.010000 2.800000 0.017321
v -0.020000 2.800000 0.000000
v -0.010000 2.800000 -0.017321
v 0.010000 2.800000 -0.017321
v 0.900000 0.400000 0.000000
v 0.689440 0.400000 0.578509
v 0.156283 0.400000 0.886327
v -0.450000 0.400000 0.779423
v -0.845723 0.400000 0.307818
v -0.845723 0.400000 -0.307818
v -0.450000 0.400000 -0.779423
v 0.156283 0.400000 -0.886327
v 0.689440 0.400000 -0.578509
v 0.550000 1.400000 0.000000
v 0.421324 1.400000 0.353533
v 0.095506 1.400000 0.541644
v -0.275000 1.400000 0.476314
v -0.516831 1.400000 0.188111
v -0.516831 1.400000 -0.188111
v -0.275000 1.400000 -0.476314
v 0.095506 1.400000 -0.541644
v 0.421324 1.400000 -0.353533
v 0.620000 1.300000 0.000000
v 0.474948 1.300000 0.398528
v 0.107662 1.300000 0.610581
v -0.310000 1.300000 0.536936
v -0.582609 1.300000 0.212052
v -0.582609 1.300000 -0.212052
v -0.310000 1.300000 -0.536936
v 0.107662 1.300000 -0.610581
v 0.474948 1.300000 -0.398528
v 0.320000 2.200000 0.000000
v 0.245134 2.200000 0.205692
v 0.055567 2.200000 0.315138
v -0.160000 2.200000 0.277128
v -0.300702 2.200000 0.109446
v -0.300702 2.200000 -0.109446
v -0.160000 2.200000 -0.277128
v 0.055567 2.200000 -0.315138
v 0.245134 2.200000 -0.205692
v 0.000000 2.950000 0.000000
v 0.320000 2.100000 0.000000
v 0.245134 2.100000 0.205692
v 0.055567 2.100000 0.315138
v -0.160000 2.100000 0.277128
v -0.300702 2.100000 0.109446
v -0.300702 2.100000 -0.109446
v -0.160000 2.100000 -0.277128
v 0.055567 2.100000 -0.315138
v 0.245134 2.100000 -0.205692
usemtl Wood
f 1 2 8 7
f 2 3 9 8
f 3 4 10 9
f 4 5 11 10
f 5 6 12 11
f 6 1 7 12
usemtl Green
f 13 14 23 22
f 14 15 24 23
f 15 16 25 24
f 16 17 26 25
f 17 18 27 26
f 18 19 28 27
f 19 20 29 28
f 20 21 30 29
f 21 13 22 30
usemtl Green
f 31 32 41 40
f 32 33 42 41
f 33 34 43 42
f 34 35 44 43
f 35 36 45 44
f 36 37 46 45
f 37 38 47 46
f 38 39 48 47
f 39 31 40 48
usemtl Green
f 50 51 49
f 51 52 49
f 52 53 49
f 53 54 49
f 54 55 49
f 55 56 49
f 56 57 49
f 57 58 49
f 58 50 49
