# Stub OBJ File (GreenCity procedural placeholder): 'LowSpreadingShrub_1'
# generated as low-poly gap-filler, see GreenCity_model_distribution_report.md
mtllib stub_shared.mtl
o LowSpreadingShrub_1
v 0.000000 0.264000 0.000000
v 0.000000 0.264000 0.000000
v 0.000000 0.264000 0.000000
v 0.000000 0.264000 0.000000
v 0.000000 0.264000 0.000000
v 0.000000 0.264000 0.000000
v 0.000000 0.264000 0.000000
v 0.000000 0.264000 0.000000
v 0.000000 0.264000 0.000000
v 0.000000 0.264000 0.000000
v 0.600000 0.132000 0.000000
v 0.485410 0.132000 0.352671
v 0.185410 0.132000 0.570634
v -0.185410 0.132000 0.570634
v -0.485410 0.132000 0.352671
v -0.600000 0.132000 0.000000
v -0.485410 0.132000 -0.352671
v -0.185410 0.132000 -0.570634
v 0.185410 0.132000 -0.570634
v 0.485410 0.132000 -0.352671
v 0.000000 0.000000 0.000000
v 0.000000 0.000000 0.000000
v 0.000000 0.000000 0.000000
v -0.000000 0.000000 0.000000
v -0.000000 0.000000 0.000000
v -0.000000 0.000000 0.000000
v -0.000000 0.000000 -0.000000
v -0.000000 0.000000 -0.000000
v 0.000000 0.000000 -0.000000
v 0.000000 0.000000 -0.000000
usemtl Green
f 1 12 11
f 2 13 12
f 3 14 13
f 4 15 14
f 5 16 15
f 6 17 16
f 7 18 17
f 8 19 18
f 9 20 19
f 10 11 20
f 11 12 22
f 12 13 23
f 13 14 24
f 14 15 25
f 15 16 26
f 16 17 27
f 17 18 28
f 18 19 29
f 19 20 30
f 20 11 21
