# Stub OBJ File (GreenCity procedural placeholder): 'MountainPine_1'
# generated as low-poly gap-filler, see GreenCity_model_distribution_report.md
mtllib MountainPine_1.mtl
o MountainPine_1
v 0.000000 0.495000 0.000000
v 0.000000 0.495000 0.000000
v 0.000000 0.495000 0.000000
v 0.000000 0.495000 0.000000
v 0.000000 0.495000 0.000000
v 0.000000 0.495000 0.000000
v 0.000000 0.495000 0.000000
v 0.000000 0.495000 0.000000
v 0.000000 0.495000 0.000000
v 0.389711 0.371250 0.000000
v 0.298536 0.371250 0.250502
v 0.067673 0.371250 0.383791
v -0.194856 0.371250 0.337500
v -0.366209 0.371250 0.133289
v -0.366209 0.371250 -0.133289
v -0.194856 0.371250 -0.337500
v 0.067673 0.371250 -0.383791
v 0.298536 0.371250 -0.250502
v 0.389711 0.123750 0.000000
v 0.298536 0.123750 0.250502
v 0.067673 0.123750 0.383791
v -0.194856 0.123750 0.337500
v -0.366209 0.123750 0.133289
v -0.366209 0.123750 -0.133289
v -0.194856 0.123750 -0.337500
v 0.067673 0.123750 -0.383791
v 0.298536 0.123750 -0.250502
v 0.000000 0.000000 0.000000
v 0.000000 0.000000 0.000000
v 0.000000 0.000000 0.000000
v -0.000000 0.000000 0.000000
v -0.000000 0.000000 0.000000
v -0.000000 0.000000 -0.000000
v -0.000000 0.000000 -0.000000
v 0.000000 0.000000 -0.000000
v 0.000000 0.000000 -0.000000
v 0.330000 0.300000 0.100000
v 0.262228 0.300000 0.240730
v 0.109946 0.300000 0.275487
v -0.012174 0.300000 0.178099
v -0.012174 0.300000 0.021901
v 0.109946 0.300000 -0.075487
v 0.262228 0.300000 -0.040730
v 0.200000 0.650000 0.100000
v 0.181174 0.650000 0.139092
v 0.138874 0.650000 0.148746
v 0.104952 0.650000 0.121694
v 0.104952 0.650000 0.078306
v 0.138874 0.650000 0.051254
v 0.181174 0.650000 0.060908
v -0.020000 0.250000 -0.100000
v -0.080242 0.250000 0.025093
v -0.215603 0.250000 0.055988
v -0.324155 0.250000 -0.030579
v -0.324155 0.250000 -0.169421
v -0.215603 0.250000 -0.255988
v -0.080242 0.250000 -0.225093
v -0.140000 0.550000 -0.100000
v -0.155060 0.550000 -0.068727
v -0.188901 0.550000 -0.061003
v -0.216039 0.550000 -0.082645
v -0.216039 0.550000 -0.117355
v -0.188901 0.550000 -0.138997
v -0.155060 0.550000 -0.131273
usemtl Green
f 1 11 10
f 2 12 11
f 3 13 12
f 4 14 13
f 5 15 14
f 6 16 15
f 7 17 16
f 8 18 17
f 9 10 18
f 10 11 20 19
f 11 12 21 20
f 12 13 22 21
f 13 14 23 22
f 14 15 24 23
f 15 16 25 24
f 16 17 26 25
f 17 18 27 26
f 18 10 19 27
f 19 20 29
f 20 21 30
f 21 22 31
f 22 23 32
f 23 24 33
f 24 25 34
f 25 26 35
f 26 27 36
f 27 19 28
usemtl Green
f 37 38 45 44
f 38 39 46 45
f 39 40 47 46
f 40 41 48 47
f 41 42 49 48
f 42 43 50 49
f 43 37 44 50
usemtl Green
f 51 52 59 58
f 52 53 60 59
f 53 54 61 60
f 54 55 62 61
f 55 56 63 62
f 56 57 64 63
f 57 51 58 64
