# Stub OBJ File (GreenCity procedural placeholder): 'MultistemShrub_1'
# generated as low-poly gap-filler, see GreenCity_model_distribution_report.md
mtllib MultistemShrub_1.mtl
o MultistemShrub_1
v 0.030000 0.000000 0.000000
v 0.009271 0.000000 0.028532
v -0.024271 0.000000 0.017634
v -0.024271 0.000000 -0.017634
v 0.009271 0.000000 -0.028532
v 0.020000 1.900000 0.000000
v 0.006180 1.900000 0.019021
v -0.016180 1.900000 0.011756
v -0.016180 1.900000 -0.011756
v 0.006180 1.900000 -0.019021
v 0.180000 0.000000 0.100000
v 0.159271 0.000000 0.128532
v 0.125729 0.000000 0.117634
v 0.125729 0.000000 0.082366
v 0.159271 0.000000 0.071468
v 0.170000 2.100000 0.100000
v 0.156180 2.100000 0.119021
v 0.133820 2.100000 0.111756
v 0.133820 2.100000 0.088244
v 0.156180 2.100000 0.080979
v -0.120000 0.000000 0.050000
v -0.140729 0.000000 0.078532
v -0.174271 0.000000 0.067634
v -0.174271 0.000000 0.032366
v -0.140729 0.000000 0.021468
v -0.130000 1.800000 0.050000
v -0.143820 1.800000 0.069021
v -0.166180 1.800000 0.061756
v -0.166180 1.800000 0.038244
v -0.143820 1.800000 0.030979
v 0.080000 0.000000 -0.180000
v 0.059271 0.000000 -0.151468
v 0.025729 0.000000 -0.162366
v 0.025729 0.000000 -0.197634
v 0.059271 0.000000 -0.208532
v 0.070000 2.000000 -0.180000
v 0.056180 2.000000 -0.160979
v 0.033820 2.000000 -0.168244
v 0.033820 2.000000 -0.191756
v 0.056180 2.000000 -0.199021
v 0.000000 2.900000 0.000000
v 0.000000 2.900000 0.000000
v 0.000000 2.900000 0.000000
v 0.000000 2.900000 0.000000
v 0.000000 2.900000 0.000000
v 0.000000 2.900000 0.000000
v 0.000000 2.900000 0.000000
v 0.000000 2.900000 0.000000
v 0.000000 2.900000 0.000000
v 0.440839 2.709017 0.000000
v 0.337702 2.709017 0.283366
v 0.076551 2.709017 0.434142
v -0.220419 2.709017 0.381778
v -0.414253 2.709017 0.150776
v -0.414253 2.709017 -0.150776
v -0.220419 2.709017 -0.381778
v 0.076551 2.709017 -0.434142
v 0.337702 2.709017 -0.283366
v 0.713292 2.209017 0.000000
v 0.546414 2.209017 0.458496
v 0.123862 2.209017 0.702456
v -0.356646 2.209017 0.617729
v -0.670276 2.209017 0.243960
v -0.670276 2.209017 -0.243960
v -0.356646 2.209017 -0.617729
v 0.123862 2.209017 -0.702456
v 0.546414 2.209017 -0.458496
v 0.713292 1.590983 0.000000
v 0.546414 1.590983 0.458496
v 0.123862 1.590983 0.702456
v -0.356646 1.590983 0.617729
v -0.670276 1.590983 0.243960
v -0.670276 1.590983 -0.243960
v -0.356646 1.590983 -0.617729
v 0.123862 1.590983 -0.702456
v 0.546414 1.590983 -0.458496
v 0.440839 1.090983 0.000000
v 0.337702 1.090983 0.283366
v 0.076551 1.090983 0.434142
v -0.220419 1.090983 0.381778
v -0.414253 1.090983 0.150776
v -0.414253 1.090983 -0.150776
v -0.220419 1.090983 -0.381778
v 0.076551 1.090983 -0.434142
v 0.337702 1.090983 -0.283366
v 0.000000 0.900000 0.000000
v 0.000000 0.900000 0.000000
v 0.000000 0.900000 0.000000
v -0.000000 0.900000 0.000000
v -0.000000 0.900000 0.000000
v -0.000000 0.900000 -0.000000
v -0.000000 0.900000 -0.000000
v 0.000000 0.900000 -0.000000
v 0.000000 0.900000 -0.000000
usemtl Wood
f 1 2 7 6
f 2 3 8 7
f 3 4 9 8
f 4 5 10 9
f 5 1 6 10
usemtl Wood
f 11 12 17 16
f 12 13 18 17
f 13 14 19 18
f 14 15 20 19
f 15 11 16 20
usemtl Wood
f 21 22 27 26
f 22 23 28 27
f 23 24 29 28
f 24 25 30 29
f 25 21 26 30
usemtl Wood
f 31 32 37 36
f 32 33 38 37
f 33 34 39 38
f 34 35 40 39
f 35 31 36 40
usemtl Green
f 41 51 50
f 42 52 51
f 43 53 52
f 44 54 53
f 45 55 54
f 46 56 55
f 47 57 56
f 48 58 57
f 49 50 58
f 50 51 60 59
f 51 52 61 60
f 52 53 62 61
f 53 54 63 62
f 54 55 64 63
f 55 56 65 64
f 56 57 66 65
f 57 58 67 66
f 58 50 59 67
f 59 60 69 68
f 60 61 70 69
f 61 62 71 70
f 62 63 72 71
f 63 64 73 72
f 64 65 74 73
f 65 66 75 74
f 66 67 76 75
f 67 59 68 76
f 68 69 78 77
f 69 70 79 78
f 70 71 80 79
f 71 72 81 80
f 72 73 82 81
f 73 74 83 82
f 74 75 84 83
f 75 76 85 84
f 76 68 77 85
f 77 78 87
f 78 79 88
f 79 80 89
f 80 81 90
f 81 82 91
f 82 83 92
f 83 84 93
f 84 85 94
f 85 77 86
