# Stub OBJ File (GreenCity procedural placeholder): 'PoplarTree_1'
# generated as low-poly gap-filler, see GreenCity_model_distribution_report.md
mtllib stub_shared.mtl
o PoplarTree_1
v 0.055000 0.000000 0.000000
v 0.027500 0.000000 0.047631
v -0.027500 0.000000 0.047631
v -0.055000 0.000000 0.000000
v -0.027500 0.000000 -0.047631
v 0.027500 0.000000 -0.047631
v 0.035000 3.800000 0.000000
v 0.017500 3.800000 0.030311
v -0.017500 3.800000 0.030311
v -0.035000 3.800000 0.000000
v -0.017500 3.800000 -0.030311
v 0.017500 3.800000 -0.030311
v 0.000000 5.100000 0.000000
v 0.000000 5.100000 0.000000
v 0.000000 5.100000 0.000000
v 0.000000 5.100000 0.000000
v 0.000000 5.100000 0.000000
v 0.000000 5.100000 0.000000
v 0.000000 5.100000 0.000000
v 0.000000 5.100000 0.000000
v 0.000000 5.100000 0.000000
v 0.275000 4.818653 0.000000
v 0.210662 4.818653 0.176767
v 0.047753 4.818653 0.270822
v -0.137500 4.818653 0.238157
v -0.258415 4.818653 0.094056
v -0.258415 4.818653 -0.094056
v -0.137500 4.818653 -0.238157
v 0.047753 4.818653 -0.270822
v 0.210662 4.818653 -0.176767
v 0.476314 4.050000 0.000000
v 0.364878 4.050000 0.306169
v 0.082711 4.050000 0.469078
v -0.238157 4.050000 0.412500
v -0.447589 4.050000 0.162909
v -0.447589 4.050000 -0.162909
v -0.238157 4.050000 -0.412500
v 0.082711 4.050000 -0.469078
v 0.364878 4.050000 -0.306169
v 0.550000 3.000000 0.000000
v 0.421324 3.000000 0.353533
v 0.095506 3.000000 0.541644
v -0.275000 3.000000 0.476314
v -0.516831 3.000000 0.188111
v -0.516831 3.000000 -0.188111
v -0.275000 3.000000 -0.476314
v 0.095506 3.000000 -0.541644
v 0.421324 3.000000 -0.353533
v 0.476314 1.950000 0.000000
v 0.364878 1.950000 0.306169
v 0.082711 1.950000 0.469078
v -0.238157 1.950000 0.412500
v -0.447589 1.950000 0.162909
v -0.447589 1.950000 -0.162909
v -0.238157 1.950000 -0.412500
v 0.082711 1.950000 -0.469078
v 0.364878 1.950000 -0.306169
v 0.275000 1.181347 0.000000
v 0.210662 1.181347 0.176767
v 0.047753 1.181347 0.270822
v -0.137500 1.181347 0.238157
v -0.258415 1.181347 0.094056
v -0.258415 1.181347 -0.094056
v -0.137500 1.181347 -0.238157
v 0.047753 1.181347 -0.270822
v 0.210662 1.181347 -0.176767
v 0.000000 0.900000 0.000000
v 0.000000 0.900000 0.000000
v 0.000000 0.900000 0.000000
v -0.000000 0.900000 0.000000
v -0.000000 0.900000 0.000000
v -0.000000 0.900000 -0.000000
v -0.000000 0.900000 -0.000000
v 0.000000 0.900000 -0.000000
v 0.000000 0.900000 -0.000000
usemtl Wood
f 1 2 8 7
f 2 3 9 8
f 3 4 10 9
f 4 5 11 10
f 5 6 12 11
f 6 1 7 12
usemtl Green
f 13 23 22
f 14 24 23
f 15 25 24
f 16 26 25
f 17 27 26
f 18 28 27
f 19 29 28
f 20 30 29
f 21 22 30
f 22 23 32 31
f 23 24 33 32
f 24 25 34 33
f 25 26 35 34
f 26 27 36 35
f 27 28 37 36
f 28 29 38 37
f 29 30 39 38
f 30 22 31 39
f 31 32 41 40
f 32 33 42 41
f 33 34 43 42
f 34 35 44 43
f 35 36 45 44
f 36 37 46 45
f 37 38 47 46
f 38 39 48 47
f 39 31 40 48
f 40 41 50 49
f 41 42 51 50
f 42 43 52 51
f 43 44 53 52
f 44 45 54 53
f 45 46 55 54
f 46 47 56 55
f 47 48 57 56
f 48 40 49 57
f 49 50 59 58
f 50 51 60 59
f 51 52 61 60
f 52 53 62 61
f 53 54 63 62
f 54 55 64 63
f 55 56 65 64
f 56 57 66 65
f 57 49 58 66
f 58 59 68
f 59 60 69
f 60 61 70
f 61 62 71
f 62 63 72
f 63 64 73
f 64 65 74
f 65 66 75
f 66 58 67
