# Stub OBJ File (GreenCity procedural placeholder): 'RhododendronShrub_1'
# generated as low-poly gap-filler, see GreenCity_model_distribution_report.md
mtllib stub_shared.mtl
o RhododendronShrub_1
v 0.000000 0.600000 0.000000
v 0.000000 0.600000 0.000000
v 0.000000 0.600000 0.000000
v 0.000000 0.600000 0.000000
v 0.000000 0.600000 0.000000
v 0.000000 0.600000 0.000000
v 0.000000 0.600000 0.000000
v 0.000000 0.600000 0.000000
v 0.000000 0.600000 0.000000
v 0.282843 0.512132 0.000000
v 0.216670 0.512132 0.181808
v 0.049115 0.512132 0.278546
v -0.141421 0.512132 0.244949
v -0.265785 0.512132 0.096738
v -0.265785 0.512132 -0.096738
v -0.141421 0.512132 -0.244949
v 0.049115 0.512132 -0.278546
v 0.216670 0.512132 -0.181808
v 0.400000 0.300000 0.000000
v 0.306418 0.300000 0.257115
v 0.069459 0.300000 0.393923
v -0.200000 0.300000 0.346410
v -0.375877 0.300000 0.136808
v -0.375877 0.300000 -0.136808
v -0.200000 0.300000 -0.346410
v 0.069459 0.300000 -0.393923
v 0.306418 0.300000 -0.257115
v 0.282843 0.087868 0.000000
v 0.216670 0.087868 0.181808
v 0.049115 0.087868 0.278546
v -0.141421 0.087868 0.244949
v -0.265785 0.087868 0.096738
v -0.265785 0.087868 -0.096738
v -0.141421 0.087868 -0.244949
v 0.049115 0.087868 -0.278546
v 0.216670 0.087868 -0.181808
v 0.000000 0.000000 0.000000
v 0.000000 0.000000 0.000000
v 0.000000 0.000000 0.000000
v -0.000000 0.000000 0.000000
v -0.000000 0.000000 0.000000
v -0.000000 0.000000 -0.000000
v -0.000000 0.000000 -0.000000
v 0.000000 0.000000 -0.000000
v 0.000000 0.000000 -0.000000
usemtl DarkGreen
f 1 11 10
f 2 12 11
f 3 13 12
f 4 14 13
f 5 15 14
f 6 16 15
f 7 17 16
f 8 18 17
f 9 10 18
f 10 11 20 19
f 11 12 21 20
f 12 13 22 21
f 13 14 23 22
f 14 15 24 23
f 15 16 25 24
f 16 17 26 25
f 17 18 27 26
f 18 10 19 27
f 19 20 29 28
f 20 21 30 29
f 21 22 31 30
f 22 23 32 31
f 23 24 33 32
f 24 25 34 33
f 25 26 35 34
f 26 27 36 35
f 27 19 28 36
f 28 29 38
f 29 30 39
f 30 31 40
f 31 32 41
f 32 33 42
f 33 34 43
f 34 35 44
f 35 36 45
f 36 28 37
