# Stub OBJ File (GreenCity procedural placeholder): 'RoseShrub_1'
# generated as low-poly gap-filler, see GreenCity_model_distribution_report.md
mtllib stub_shared.mtl
o RoseShrub_1
v 0.000000 0.544000 0.000000
v 0.000000 0.544000 0.000000
v 0.000000 0.544000 0.000000
v 0.000000 0.544000 0.000000
v 0.000000 0.544000 0.000000
v 0.000000 0.544000 0.000000
v 0.000000 0.544000 0.000000
v 0.000000 0.544000 0.000000
v 0.277128 0.408000 0.000000
v 0.195959 0.408000 0.195959
v 0.000000 0.408000 0.277128
v -0.195959 0.408000 0.195959
v -0.277128 0.408000 0.000000
v -0.195959 0.408000 -0.195959
v -0.000000 0.408000 -0.277128
v 0.195959 0.408000 -0.195959
v 0.277128 0.136000 0.000000
v 0.195959 0.136000 0.195959
v 0.000000 0.136000 0.277128
v -0.195959 0.136000 0.195959
v -0.277128 0.136000 0.000000
v -0.195959 0.136000 -0.195959
v -0.000000 0.136000 -0.277128
v 0.195959 0.136000 -0.195959
v 0.000000 0.000000 0.000000
v 0.000000 0.000000 0.000000
v 0.000000 0.000000 0.000000
v -0.000000 0.000000 0.000000
v -0.000000 0.000000 0.000000
v -0.000000 0.000000 -0.000000
v -0.000000 0.000000 -0.000000
v 0.000000 0.000000 -0.000000
v 0.150000 0.550000 0.100000
v 0.150000 0.550000 0.100000
v 0.150000 0.550000 0.100000
v 0.150000 0.550000 0.100000
v 0.150000 0.550000 0.100000
v 0.150000 0.550000 0.100000
v 0.201962 0.525000 0.100000
v 0.175981 0.525000 0.145000
v 0.124019 0.525000 0.145000
v 0.098038 0.525000 0.100000
v 0.124019 0.525000 0.055000
v 0.175981 0.525000 0.055000
v 0.201962 0.475000 0.100000
v 0.175981 0.475000 0.145000
v 0.124019 0.475000 0.145000
v 0.098038 0.475000 0.100000
v 0.124019 0.475000 0.055000
v 0.175981 0.475000 0.055000
v 0.150000 0.450000 0.100000
v 0.150000 0.450000 0.100000
v 0.150000 0.450000 0.100000
v 0.150000 0.450000 0.100000
v 0.150000 0.450000 0.100000
v 0.150000 0.450000 0.100000
v -0.120000 0.550000 0.140000
v -0.120000 0.550000 0.140000
v -0.120000 0.550000 0.140000
v -0.120000 0.550000 0.140000
v -0.120000 0.550000 0.140000
v -0.120000 0.550000 0.140000
v -0.068038 0.525000 0.140000
v -0.094019 0.525000 0.185000
v -0.145981 0.525000 0.185000
v -0.171962 0.525000 0.140000
v -0.145981 0.525000 0.095000
v -0.094019 0.525000 0.095000
v -0.068038 0.475000 0.140000
v -0.094019 0.475000 0.185000
v -0.145981 0.475000 0.185000
v -0.171962 0.475000 0.140000
v -0.145981 0.475000 0.095000
v -0.094019 0.475000 0.095000
v -0.120000 0.450000 0.140000
v -0.120000 0.450000 0.140000
v -0.120000 0.450000 0.140000
v -0.120000 0.450000 0.140000
v -0.120000 0.450000 0.140000
v -0.120000 0.450000 0.140000
v 0.050000 0.550000 -0.180000
v 0.050000 0.550000 -0.180000
v 0.050000 0.550000 -0.180000
v 0.050000 0.550000 -0.180000
v 0.050000 0.550000 -0.180000
v 0.050000 0.550000 -0.180000
v 0.101962 0.525000 -0.180000
v 0.075981 0.525000 -0.135000
v 0.024019 0.525000 -0.135000
v -0.001962 0.525000 -0.180000
v 0.024019 0.525000 -0.225000
v 0.075981 0.525000 -0.225000
v 0.101962 0.475000 -0.180000
v 0.075981 0.475000 -0.135000
v 0.024019 0.475000 -0.135000
v -0.001962 0.475000 -0.180000
v 0.024019 0.475000 -0.225000
v 0.075981 0.475000 -0.225000
v 0.050000 0.450000 -0.180000
v 0.050000 0.450000 -0.180000
v 0.050000 0.450000 -0.180000
v 0.050000 0.450000 -0.180000
v 0.050000 0.450000 -0.180000
v 0.050000 0.450000 -0.180000
usemtl Green
f 1 10 9
f 2 11 10
f 3 12 11
f 4 13 12
f 5 14 13
f 6 15 14
f 7 16 15
f 8 9 16
f 9 10 18 17
f 10 11 19 18
f 11 12 20 19
f 12 13 21 20
f 13 14 22 21
f 14 15 23 22
f 15 16 24 23
f 16 9 17 24
f 17 18 26
f 18 19 27
f 19 20 28
f 20 21 29
f 21 22 30
f 22 23 31
f 23 24 32
f 24 17 25
usemtl Pink
f 33 40 39
f 34 41 40
f 35 42 41
f 36 43 42
f 37 44 43
f 38 39 44
f 39 40 46 45
f 40 41 47 46
f 41 42 48 47
f 42 43 49 48
f 43 44 50 49
f 44 39 45 50
f 45 46 52
f 46 47 53
f 47 48 54
f 48 49 55
f 49 50 56
f 50 45 51
usemtl Pink
f 57 64 63
f 58 65 64
f 59 66 65
f 60 67 66
f 61 68 67
f 62 63 68
f 63 64 70 69
f 64 65 71 70
f 65 66 72 71
f 66 67 73 72
f 67 68 74 73
f 68 63 69 74
f 69 70 76
f 70 71 77
f 71 72 78
f 72 73 79
f 73 74 80
f 74 69 75
usemtl Pink
f 81 88 87
f 82 89 88
f 83 90 89
f 84 91 90
f 85 92 91
f 86 87 92
f 87 88 94 93
f 88 89 95 94
f 89 90 96 95
f 90 91 97 96
f 91 92 98 97
f 92 87 93 98
f 93 94 100
f 94 95 101
f 95 96 102
f 96 97 103
f 97 98 104
f 98 93 99
