# Stub OBJ File (GreenCity procedural placeholder): 'SmallOrnamentalTree_1'
# generated as low-poly gap-filler, see GreenCity_model_distribution_report.md
mtllib SmallOrnamentalTree_1.mtl
o SmallOrnamentalTree_1
v 0.030000 0.000000 0.000000
v 0.009271 0.000000 0.028532
v -0.024271 0.000000 0.017634
v -0.024271 0.000000 -0.017634
v 0.009271 0.000000 -0.028532
v 0.140000 1.400000 0.050000
v 0.126180 1.400000 0.069021
v 0.103820 1.400000 0.061756
v 0.103820 1.400000 0.038244
v 0.126180 1.400000 0.030979
v 0.048000 0.000000 -0.020000
v 0.028652 0.000000 0.006630
v -0.002652 0.000000 -0.003542
v -0.002652 0.000000 -0.036458
v 0.028652 0.000000 -0.046630
v -0.112000 1.500000 0.060000
v -0.124438 1.500000 0.077119
v -0.144562 1.500000 0.070580
v -0.144562 1.500000 0.049420
v -0.124438 1.500000 0.042881
v 0.006000 0.000000 0.020000
v -0.011966 0.000000 0.044727
v -0.041034 0.000000 0.035282
v -0.041034 0.000000 0.004718
v -0.011966 0.000000 -0.004727
v 0.017000 1.350000 -0.140000
v 0.005253 1.350000 -0.123832
v -0.013753 1.350000 -0.130008
v -0.013753 1.350000 -0.149992
v 0.005253 1.350000 -0.156168
v 0.120000 1.930000 0.050000
v 0.120000 1.930000 0.050000
v 0.120000 1.930000 0.050000
v 0.120000 1.930000 0.050000
v 0.120000 1.930000 0.050000
v 0.120000 1.930000 0.050000
v 0.120000 1.930000 0.050000
v 0.120000 1.930000 0.050000
v 0.416985 1.818701 0.050000
v 0.330000 1.818701 0.260000
v 0.120000 1.818701 0.346985
v -0.090000 1.818701 0.260000
v -0.176985 1.818701 0.050000
v -0.090000 1.818701 -0.160000
v 0.120000 1.818701 -0.246985
v 0.330000 1.818701 -0.160000
v 0.540000 1.550000 0.050000
v 0.416985 1.550000 0.346985
v 0.120000 1.550000 0.470000
v -0.176985 1.550000 0.346985
v -0.300000 1.550000 0.050000
v -0.176985 1.550000 -0.246985
v 0.120000 1.550000 -0.370000
v 0.416985 1.550000 -0.246985
v 0.416985 1.281299 0.050000
v 0.330000 1.281299 0.260000
v 0.120000 1.281299 0.346985
v -0.090000 1.281299 0.260000
v -0.176985 1.281299 0.050000
v -0.090000 1.281299 -0.160000
v 0.120000 1.281299 -0.246985
v 0.330000 1.281299 -0.160000
v 0.120000 1.170000 0.050000
v 0.120000 1.170000 0.050000
v 0.120000 1.170000 0.050000
v 0.120000 1.170000 0.050000
v 0.120000 1.170000 0.050000
v 0.120000 1.170000 0.050000
v 0.120000 1.170000 0.050000
v 0.120000 1.170000 0.050000
v -0.130000 2.010000 0.060000
v -0.130000 2.010000 0.060000
v -0.130000 2.010000 0.060000
v -0.130000 2.010000 0.060000
v -0.130000 2.010000 0.060000
v -0.130000 2.010000 0.060000
v -0.130000 2.010000 0.060000
v -0.130000 2.010000 0.060000
v 0.152843 1.904558 0.060000
v 0.070000 1.904558 0.260000
v -0.130000 1.904558 0.342843
v -0.330000 1.904558 0.260000
v -0.412843 1.904558 0.060000
v -0.330000 1.904558 -0.140000
v -0.130000 1.904558 -0.222843
v 0.070000 1.904558 -0.140000
v 0.270000 1.650000 0.060000
v 0.152843 1.650000 0.342843
v -0.130000 1.650000 0.460000
v -0.412843 1.650000 0.342843
v -0.530000 1.650000 0.060000
v -0.412843 1.650000 -0.222843
v -0.130000 1.650000 -0.340000
v 0.152843 1.650000 -0.222843
v 0.152843 1.395442 0.060000
v 0.070000 1.395442 0.260000
v -0.130000 1.395442 0.342843
v -0.330000 1.395442 0.260000
v -0.412843 1.395442 0.060000
v -0.330000 1.395442 -0.140000
v -0.130000 1.395442 -0.222843
v 0.070000 1.395442 -0.140000
v -0.130000 1.290000 0.060000
v -0.130000 1.290000 0.060000
v -0.130000 1.290000 0.060000
v -0.130000 1.290000 0.060000
v -0.130000 1.290000 0.060000
v -0.130000 1.290000 0.060000
v -0.130000 1.290000 0.060000
v -0.130000 1.290000 0.060000
v 0.000000 1.630000 -0.140000
v 0.000000 1.630000 -0.140000
v 0.000000 1.630000 -0.140000
v 0.000000 1.630000 -0.140000
v 0.000000 1.630000 -0.140000
v 0.000000 1.630000 -0.140000
v 0.129904 1.565000 -0.140000
v 0.064952 1.565000 -0.027500
v -0.064952 1.565000 -0.027500
v -0.129904 1.565000 -0.140000
v -0.064952 1.565000 -0.252500
v 0.064952 1.565000 -0.252500
v 0.129904 1.435000 -0.140000
v 0.064952 1.435000 -0.027500
v -0.064952 1.435000 -0.027500
v -0.129904 1.435000 -0.140000
v -0.064952 1.435000 -0.252500
v 0.064952 1.435000 -0.252500
v 0.000000 1.370000 -0.140000
v 0.000000 1.370000 -0.140000
v -0.000000 1.370000 -0.140000
v -0.000000 1.370000 -0.140000
v -0.000000 1.370000 -0.140000
v 0.000000 1.370000 -0.140000
usemtl Wood
f 1 2 7 6
f 2 3 8 7
f 3 4 9 8
f 4 5 10 9
f 5 1 6 10
usemtl Wood
f 11 12 17 16
f 12 13 18 17
f 13 14 19 18
f 14 15 20 19
f 15 11 16 20
usemtl Wood
f 21 22 27 26
f 22 23 28 27
f 23 24 29 28
f 24 25 30 29
f 25 21 26 30
usemtl Green
f 31 40 39
f 32 41 40
f 33 42 41
f 34 43 42
f 35 44 43
f 36 45 44
f 37 46 45
f 38 39 46
f 39 40 48 47
f 40 41 49 48
f 41 42 50 49
f 42 43 51 50
f 43 44 52 51
f 44 45 53 52
f 45 46 54 53
f 46 39 47 54
f 47 48 56 55
f 48 49 57 56
f 49 50 58 57
f 50 51 59 58
f 51 52 60 59
f 52 53 61 60
f 53 54 62 61
f 54 47 55 62
f 55 56 64
f 56 57 65
f 57 58 66
f 58 59 67
f 59 60 68
f 60 61 69
f 61 62 70
f 62 55 63
usemtl Green
f 71 80 79
f 72 81 80
f 73 82 81
f 74 83 82
f 75 84 83
f 76 85 84
f 77 86 85
f 78 79 86
f 79 80 88 87
f 80 81 89 88
f 81 82 90 89
f 82 83 91 90
f 83 84 92 91
f 84 85 93 92
f 85 86 94 93
f 86 79 87 94
f 87 88 96 95
f 88 89 97 96
f 89 90 98 97
f 90 91 99 98
f 91 92 100 99
f 92 93 101 100
f 93 94 102 101
f 94 87 95 102
f 95 96 104
f 96 97 105
f 97 98 106
f 98 99 107
f 99 100 108
f 100 101 109
f 101 102 110
f 102 95 103
usemtl Pink
f 111 118 117
f 112 119 118
f 113 120 119
f 114 121 120
f 115 122 121
f 116 117 122
f 117 118 124 123
f 118 119 125 124
f 119 120 126 125
f 120 121 127 126
f 121 122 128 127
f 122 117 123 128
f 123 124 130
f 124 125 131
f 125 126 132
f 126 127 133
f 127 128 134
f 128 123 129
