# Stub OBJ File (GreenCity procedural placeholder): 'Spruce_1'
# generated as low-poly gap-filler, see GreenCity_model_distribution_report.md
mtllib stub_shared.mtl
o Spruce_1
v 0.050000 0.000000 0.000000
v 0.025000 0.000000 0.043301
v -0.025000 0.000000 0.043301
v -0.050000 0.000000 0.000000
v -0.025000 0.000000 -0.043301
v 0.025000 0.000000 -0.043301
v 0.020000 3.200000 0.000000
v 0.010000 3.200000 0.017321
v -0.010000 3.200000 0.017321
v -0.020000 3.200000 0.000000
v -0.010000 3.200000 -0.017321
v 0.010000 3.200000 -0.017321
v 0.000000 3.350000 0.000000
v 0.850000 0.350000 0.000000
v 0.687664 0.350000 0.499617
v 0.262664 0.350000 0.808398
v -0.262664 0.350000 0.808398
v -0.687664 0.350000 0.499617
v -0.850000 0.350000 0.000000
v -0.687664 0.350000 -0.499617
v -0.262664 0.350000 -0.808398
v 0.262664 0.350000 -0.808398
v 0.687664 0.350000 -0.499617
usemtl Wood
f 1 2 8 7
f 2 3 9 8
f 3 4 10 9
f 4 5 11 10
f 5 6 12 11
f 6 1 7 12
usemtl Green
f 14 15 13
f 15 16 13
f 16 17 13
f 17 18 13
f 18 19 13
f 19 20 13
f 20 21 13
f 21 22 13
f 22 23 13
f 23 14 13
