# Stub OBJ File (GreenCity procedural placeholder): 'TallShrub_1'
# generated as low-poly gap-filler, see GreenCity_model_distribution_report.md
mtllib TallShrub_1.mtl
o TallShrub_1
v 0.025000 0.000000 0.000000
v 0.007725 0.000000 0.023776
v -0.020225 0.000000 0.014695
v -0.020225 0.000000 -0.014695
v 0.007725 0.000000 -0.023776
v 0.018000 1.600000 0.000000
v 0.005562 1.600000 0.017119
v -0.014562 1.600000 0.010580
v -0.014562 1.600000 -0.010580
v 0.005562 1.600000 -0.017119
v 0.125000 0.000000 0.080000
v 0.107725 0.000000 0.103776
v 0.079775 0.000000 0.094695
v 0.079775 0.000000 0.065305
v 0.107725 0.000000 0.056224
v 0.118000 1.750000 0.080000
v 0.105562 1.750000 0.097119
v 0.085438 1.750000 0.090580
v 0.085438 1.750000 0.069420
v 0.105562 1.750000 0.062881
v -0.055000 0.000000 -0.050000
v -0.072275 0.000000 -0.026224
v -0.100225 0.000000 -0.035305
v -0.100225 0.000000 -0.064695
v -0.072275 0.000000 -0.073776
v -0.062000 1.500000 -0.050000
v -0.074438 1.500000 -0.032881
v -0.094562 1.500000 -0.039420
v -0.094562 1.500000 -0.060580
v -0.074438 1.500000 -0.067119
v 0.000000 2.350000 0.000000
v 0.000000 2.350000 0.000000
v 0.000000 2.350000 0.000000
v 0.000000 2.350000 0.000000
v 0.000000 2.350000 0.000000
v 0.000000 2.350000 0.000000
v 0.000000 2.350000 0.000000
v 0.000000 2.350000 0.000000
v 0.000000 2.350000 0.000000
v 0.293893 2.187664 0.000000
v 0.225135 2.187664 0.188911
v 0.051034 2.187664 0.289428
v -0.146946 2.187664 0.254518
v -0.276169 2.187664 0.100517
v -0.276169 2.187664 -0.100517
v -0.146946 2.187664 -0.254518
v 0.051034 2.187664 -0.289428
v 0.225135 2.187664 -0.188911
v 0.475528 1.762664 0.000000
v 0.364276 1.762664 0.305664
v 0.082575 1.762664 0.468304
v -0.237764 1.762664 0.411820
v -0.446850 1.762664 0.162640
v -0.446850 1.762664 -0.162640
v -0.237764 1.762664 -0.411820
v 0.082575 1.762664 -0.468304
v 0.364276 1.762664 -0.305664
v 0.475528 1.237336 0.000000
v 0.364276 1.237336 0.305664
v 0.082575 1.237336 0.468304
v -0.237764 1.237336 0.411820
v -0.446850 1.237336 0.162640
v -0.446850 1.237336 -0.162640
v -0.237764 1.237336 -0.411820
v 0.082575 1.237336 -0.468304
v 0.364276 1.237336 -0.305664
v 0.293893 0.812336 0.000000
v 0.225135 0.812336 0.188911
v 0.051034 0.812336 0.289428
v -0.146946 0.812336 0.254518
v -0.276169 0.812336 0.100517
v -0.276169 0.812336 -0.100517
v -0.146946 0.812336 -0.254518
v 0.051034 0.812336 -0.289428
v 0.225135 0.812336 -0.188911
v 0.000000 0.650000 0.000000
v 0.000000 0.650000 0.000000
v 0.000000 0.650000 0.000000
v -0.000000 0.650000 0.000000
v -0.000000 0.650000 0.000000
v -0.000000 0.650000 -0.000000
v -0.000000 0.650000 -0.000000
v 0.000000 0.650000 -0.000000
v 0.000000 0.650000 -0.000000
usemtl Wood
f 1 2 7 6
f 2 3 8 7
f 3 4 9 8
f 4 5 10 9
f 5 1 6 10
usemtl Wood
f 11 12 17 16
f 12 13 18 17
f 13 14 19 18
f 14 15 20 19
f 15 11 16 20
usemtl Wood
f 21 22 27 26
f 22 23 28 27
f 23 24 29 28
f 24 25 30 29
f 25 21 26 30
usemtl Green
f 31 41 40
f 32 42 41
f 33 43 42
f 34 44 43
f 35 45 44
f 36 46 45
f 37 47 46
f 38 48 47
f 39 40 48
f 40 41 50 49
f 41 42 51 50
f 42 43 52 51
f 43 44 53 52
f 44 45 54 53
f 45 46 55 54
f 46 47 56 55
f 47 48 57 56
f 48 40 49 57
f 49 50 59 58
f 50 51 60 59
f 51 52 61 60
f 52 53 62 61
f 53 54 63 62
f 54 55 64 63
f 55 56 65 64
f 56 57 66 65
f 57 49 58 66
f 58 59 68 67
f 59 60 69 68
f 60 61 70 69
f 61 62 71 70
f 62 63 72 71
f 63 64 73 72
f 64 65 74 73
f 65 66 75 74
f 66 58 67 75
f 67 68 77
f 68 69 78
f 69 70 79
f 70 71 80
f 71 72 81
f 72 73 82
f 73 74 83
f 74 75 84
f 75 67 76
