# Stub OBJ File (GreenCity procedural placeholder): 'Thuja_1'
# generated as low-poly gap-filler, see GreenCity_model_distribution_report.md
mtllib Thuja_1.mtl
o Thuja_1
v 0.040000 0.000000 0.000000
v 0.020000 0.000000 0.034641
v -0.020000 0.000000 0.034641
v -0.040000 0.000000 0.000000
v -0.020000 0.000000 -0.034641
v 0.020000 0.000000 -0.034641
v 0.030000 2.400000 0.000000
v 0.015000 2.400000 0.025981
v -0.015000 2.400000 0.025981
v -0.030000 2.400000 0.000000
v -0.015000 2.400000 -0.025981
v 0.015000 2.400000 -0.025981
v 0.420000 0.150000 0.000000
v 0.339787 0.150000 0.246870
v 0.129787 0.150000 0.399444
v -0.129787 0.150000 0.399444
v -0.339787 0.150000 0.246870
v -0.420000 0.150000 0.000000
v -0.339787 0.150000 -0.246870
v -0.129787 0.150000 -0.399444
v 0.129787 0.150000 -0.399444
v 0.339787 0.150000 -0.246870
v 0.380000 2.100000 0.000000
v 0.307426 2.100000 0.223358
v 0.117426 2.100000 0.361401
v -0.117426 2.100000 0.361401
v -0.307426 2.100000 0.223358
v -0.380000 2.100000 0.000000
v -0.307426 2.100000 -0.223358
v -0.117426 2.100000 -0.361401
v 0.117426 2.100000 -0.361401
v 0.307426 2.100000 -0.223358
v 0.000000 2.600000 0.000000
v 0.380000 2.050000 0.000000
v 0.307426 2.050000 0.223358
v 0.117426 2.050000 0.361401
v -0.117426 2.050000 0.361401
v -0.307426 2.050000 0.223358
v -0.380000 2.050000 0.000000
v -0.307426 2.050000 -0.223358
v -0.117426 2.050000 -0.361401
v 0.117426 2.050000 -0.361401
v 0.307426 2.050000 -0.223358
usemtl Wood
f 1 2 8 7
f 2 3 9 8
f 3 4 10 9
f 4 5 11 10
f 5 6 12 11
f 6 1 7 12
usemtl Green
f 13 14 24 23
f 14 15 25 24
f 15 16 26 25
f 16 17 27 26
f 17 18 28 27
f 18 19 29 28
f 19 20 30 29
f 20 21 31 30
f 21 22 32 31
f 22 13 23 32
usemtl Green
f 34 35 33
f 35 36 33
f 36 37 33
f 37 38 33
f 38 39 33
f 39 40 33
f 40 41 33
f 41 42 33
f 42 43 33
f 43 34 33
