# Stub OBJ File (GreenCity procedural placeholder): 'VineClimbing_1'
# generated as low-poly gap-filler, see GreenCity_model_distribution_report.md
mtllib VineClimbing_1.mtl
o VineClimbing_1
v 0.018000 0.000000 0.150000
v 0.005562 0.000000 0.167119
v -0.014562 0.000000 0.160580
v -0.014562 0.000000 0.139420
v 0.005562 0.000000 0.132881
v 0.156161 0.142857 0.140435
v 0.146487 0.142857 0.153750
v 0.130834 0.142857 0.148664
v 0.130834 0.142857 0.132206
v 0.146487 0.142857 0.127120
v 0.160161 0.142857 0.140435
v 0.147723 0.142857 0.157554
v 0.127598 0.142857 0.151015
v 0.127598 0.142857 0.129855
v 0.147723 0.142857 0.123316
v 0.264372 0.285714 0.112961
v 0.254698 0.285714 0.126276
v 0.239046 0.285714 0.121190
v 0.239046 0.285714 0.104732
v 0.254698 0.285714 0.099646
v 0.268372 0.285714 0.112961
v 0.255934 0.285714 0.130080
v 0.235810 0.285714 0.123541
v 0.235810 0.285714 0.102381
v 0.255934 0.285714 0.095842
v 0.312792 0.428571 0.071080
v 0.303119 0.428571 0.084395
v 0.287466 0.428571 0.079309
v 0.287466 0.428571 0.062851
v 0.303119 0.428571 0.057766
v 0.316792 0.428571 0.071080
v 0.304355 0.428571 0.088199
v 0.284230 0.428571 0.081660
v 0.284230 0.428571 0.060500
v 0.304355 0.428571 0.053961
v 0.289858 0.571429 0.020135
v 0.280185 0.571429 0.033450
v 0.264532 0.571429 0.028364
v 0.264532 0.571429 0.011906
v 0.280185 0.571429 0.006820
v 0.293858 0.571429 0.020135
v 0.281421 0.571429 0.037254
v 0.261296 0.571429 0.030715
v 0.261296 0.571429 0.009555
v 0.281421 0.571429 0.003016
v 0.201047 0.714286 -0.033378
v 0.191373 0.714286 -0.020063
v 0.175721 0.714286 -0.025149
v 0.175721 0.714286 -0.041607
v 0.191373 0.714286 -0.046693
v 0.205047 0.714286 -0.033378
v 0.192609 0.714286 -0.016259
v 0.172485 0.714286 -0.022798
v 0.172485 0.714286 -0.043958
v 0.192609 0.714286 -0.050497
v 0.067567 0.857143 -0.082635
v 0.057893 0.857143 -0.069320
v 0.042241 0.857143 -0.074406
v 0.042241 0.857143 -0.090864
v 0.057893 0.857143 -0.095949
v 0.071567 0.857143 -0.082635
v 0.059129 0.857143 -0.065516
v 0.039005 0.857143 -0.072054
v 0.039005 0.857143 -0.093215
v 0.059129 0.857143 -0.099754
v -0.078705 1.000000 -0.121353
v -0.088379 1.000000 -0.108038
v -0.104031 1.000000 -0.113124
v -0.104031 1.000000 -0.129582
v -0.088379 1.000000 -0.134667
v -0.074705 1.000000 -0.121353
v -0.087143 1.000000 -0.104234
v -0.107267 1.000000 -0.110772
v -0.107267 1.000000 -0.131933
v -0.087143 1.000000 -0.138472
v -0.202838 1.142857 -0.144594
v -0.212512 1.142857 -0.131280
v -0.228165 1.142857 -0.136365
v -0.228165 1.142857 -0.152823
v -0.212512 1.142857 -0.157909
v -0.198838 1.142857 -0.144594
v -0.211276 1.142857 -0.127475
v -0.231401 1.142857 -0.134014
v -0.231401 1.142857 -0.155175
v -0.211276 1.142857 -0.161713
v -0.275189 1.285714 -0.149396
v -0.284863 1.285714 -0.136081
v -0.300515 1.285714 -0.141167
v -0.300515 1.285714 -0.157625
v -0.284863 1.285714 -0.162711
v -0.271189 1.285714 -0.149396
v -0.283627 1.285714 -0.132277
v -0.303751 1.285714 -0.138816
v -0.303751 1.285714 -0.159976
v -0.283627 1.285714 -0.166515
v -0.278478 1.428571 -0.135145
v -0.288152 1.428571 -0.121831
v -0.303805 1.428571 -0.126916
v -0.303805 1.428571 -0.143374
v -0.288152 1.428571 -0.148460
v -0.274478 1.428571 -0.135145
v -0.286916 1.428571 -0.118026
v -0.307041 1.428571 -0.124565
v -0.307041 1.428571 -0.145725
v -0.286916 1.428571 -0.152264
v -0.211921 1.571429 -0.103659
v -0.221595 1.571429 -0.090345
v -0.237248 1.571429 -0.095430
v -0.237248 1.571429 -0.111888
v -0.221595 1.571429 -0.116974
v -0.207921 1.571429 -0.103659
v -0.220359 1.571429 -0.086540
v -0.240484 1.571429 -0.093079
v -0.240484 1.571429 -0.114240
v -0.220359 1.571429 -0.120778
v -0.091412 1.714286 -0.058954
v -0.101086 1.714286 -0.045639
v -0.116739 1.714286 -0.050725
v -0.116739 1.714286 -0.067183
v -0.101086 1.714286 -0.072269
v -0.087412 1.714286 -0.058954
v -0.099850 1.714286 -0.041835
v -0.119975 1.714286 -0.048374
v -0.119975 1.714286 -0.069534
v -0.099850 1.714286 -0.076073
v 0.054270 1.857143 -0.006730
v 0.044596 1.857143 0.006585
v 0.028944 1.857143 0.001499
v 0.028944 1.857143 -0.014959
v 0.044596 1.857143 -0.020045
v 0.058270 1.857143 -0.006730
v 0.045832 1.857143 0.010389
v 0.025708 1.857143 0.003850
v 0.025708 1.857143 -0.017310
v 0.045832 1.857143 -0.023849
v 0.190336 2.000000 0.046353
v 0.180662 2.000000 0.059667
v 0.165009 2.000000 0.054582
v 0.165009 2.000000 0.038124
v 0.180662 2.000000 0.033038
v 0.142161 0.100857 0.140435
v 0.282161 0.212857 0.140435
v 0.366161 0.114857 0.140435
v 0.298792 0.386571 0.071080
v 0.195557 0.498571 0.165645
v 0.133616 0.400571 0.222384
v 0.187047 0.672286 -0.033378
v 0.199297 0.784286 -0.172841
v 0.206647 0.686286 -0.256519
v -0.092705 0.958000 -0.121353
v -0.007536 1.070000 -0.010239
v 0.043566 0.972000 0.056429
v -0.289189 1.243714 -0.149396
v -0.427045 1.355714 -0.173802
v -0.509759 1.257714 -0.188445
v -0.225921 1.529429 -0.103659
v -0.107782 1.641429 -0.178780
v -0.036898 1.543429 -0.223852
v 0.040270 1.815143 -0.006730
v 0.003896 1.927143 0.128462
v -0.017929 1.829143 0.209578
usemtl Wood
f 1 2 7 6
f 2 3 8 7
f 3 4 9 8
f 4 5 10 9
f 5 1 6 10
usemtl Wood
f 11 12 17 16
f 12 13 18 17
f 13 14 19 18
f 14 15 20 19
f 15 11 16 20
usemtl Wood
f 21 22 27 26
f 22 23 28 27
f 23 24 29 28
f 24 25 30 29
f 25 21 26 30
usemtl Wood
f 31 32 37 36
f 32 33 38 37
f 33 34 39 38
f 34 35 40 39
f 35 31 36 40
usemtl Wood
f 41 42 47 46
f 42 43 48 47
f 43 44 49 48
f 44 45 50 49
f 45 41 46 50
usemtl Wood
f 51 52 57 56
f 52 53 58 57
f 53 54 59 58
f 54 55 60 59
f 55 51 56 60
usemtl Wood
f 61 62 67 66
f 62 63 68 67
f 63 64 69 68
f 64 65 70 69
f 65 61 66 70
usemtl Wood
f 71 72 77 76
f 72 73 78 77
f 73 74 79 78
f 74 75 80 79
f 75 71 76 80
usemtl Wood
f 81 82 87 86
f 82 83 88 87
f 83 84 89 88
f 84 85 90 89
f 85 81 86 90
usemtl Wood
f 91 92 97 96
f 92 93 98 97
f 93 94 99 98
f 94 95 100 99
f 95 91 96 100
usemtl Wood
f 101 102 107 106
f 102 103 108 107
f 103 104 109 108
f 104 105 110 109
f 105 101 106 110
usemtl Wood
f 111 112 117 116
f 112 113 118 117
f 113 114 119 118
f 114 115 120 119
f 115 111 116 120
usemtl Wood
f 121 122 127 126
f 122 123 128 127
f 123 124 129 128
f 124 125 130 129
f 125 121 126 130
usemtl Wood
f 131 132 137 136
f 132 133 138 137
f 133 134 139 138
f 134 135 140 139
f 135 131 136 140
usemtl Green
f 141 142 143
f 143 142 141
usemtl Green
f 144 145 146
f 146 145 144
usemtl Green
f 147 148 149
f 149 148 147
usemtl Green
f 150 151 152
f 152 151 150
usemtl Green
f 153 154 155
f 155 154 153
usemtl Green
f 156 157 158
f 158 157 156
usemtl Green
f 159 160 161
f 161 160 159
