# Stub OBJ File (GreenCity procedural placeholder): 'VineClematis_1'
# generated as low-poly gap-filler, see GreenCity_model_distribution_report.md
mtllib VineClematis_1.mtl
o VineClematis_1
v 0.018000 0.000000 0.125000
v 0.005562 0.000000 0.142119
v -0.014562 0.000000 0.135580
v -0.014562 0.000000 0.114420
v 0.005562 0.000000 0.107881
v 0.132467 0.114286 0.117029
v 0.122793 0.114286 0.130344
v 0.107141 0.114286 0.125258
v 0.107141 0.114286 0.108800
v 0.122793 0.114286 0.103715
v 0.136467 0.114286 0.117029
v 0.124029 0.114286 0.134148
v 0.103905 0.114286 0.127609
v 0.103905 0.114286 0.106449
v 0.124029 0.114286 0.099910
v 0.222643 0.228571 0.094134
v 0.212970 0.228571 0.107449
v 0.197317 0.228571 0.102363
v 0.197317 0.228571 0.085905
v 0.212970 0.228571 0.080819
v 0.226643 0.228571 0.094134
v 0.214206 0.228571 0.111253
v 0.194081 0.228571 0.104714
v 0.194081 0.228571 0.083554
v 0.214206 0.228571 0.077015
v 0.262994 0.342857 0.059234
v 0.253320 0.342857 0.072548
v 0.237667 0.342857 0.067463
v 0.237667 0.342857 0.051005
v 0.253320 0.342857 0.045919
v 0.266994 0.342857 0.059234
v 0.254556 0.342857 0.076353
v 0.234431 0.342857 0.069814
v 0.234431 0.342857 0.048653
v 0.254556 0.342857 0.042115
v 0.243882 0.457143 0.016779
v 0.234208 0.457143 0.030094
v 0.218556 0.457143 0.025008
v 0.218556 0.457143 0.008550
v 0.234208 0.457143 0.003464
v 0.247882 0.457143 0.016779
v 0.235444 0.457143 0.033898
v 0.215320 0.457143 0.027359
v 0.215320 0.457143 0.006199
v 0.235444 0.457143 -0.000340
v 0.169872 0.571429 -0.027815
v 0.160199 0.571429 -0.014500
v 0.144546 0.571429 -0.019586
v 0.144546 0.571429 -0.036044
v 0.160199 0.571429 -0.041130
v 0.173872 0.571429 -0.027815
v 0.161435 0.571429 -0.010696
v 0.141310 0.571429 -0.017235
v 0.141310 0.571429 -0.038395
v 0.161435 0.571429 -0.044934
v 0.058639 0.685714 -0.068862
v 0.048965 0.685714 -0.055547
v 0.033313 0.685714 -0.060633
v 0.033313 0.685714 -0.077091
v 0.048965 0.685714 -0.082177
v 0.062639 0.685714 -0.068862
v 0.050202 0.685714 -0.051743
v 0.030077 0.685714 -0.058282
v 0.030077 0.685714 -0.079442
v 0.050202 0.685714 -0.085981
v -0.063254 0.800000 -0.101127
v -0.072928 0.800000 -0.087812
v -0.088580 0.800000 -0.092898
v -0.088580 0.800000 -0.109356
v -0.072928 0.800000 -0.114442
v -0.059254 0.800000 -0.101127
v -0.071692 0.800000 -0.084008
v -0.091817 0.800000 -0.090547
v -0.091817 0.800000 -0.111707
v -0.071692 0.800000 -0.118246
v -0.166699 0.914286 -0.120495
v -0.176372 0.914286 -0.107181
v -0.192025 0.914286 -0.112266
v -0.192025 0.914286 -0.128724
v -0.176372 0.914286 -0.133810
v -0.162699 0.914286 -0.120495
v -0.175136 0.914286 -0.103376
v -0.195261 0.914286 -0.109915
v -0.195261 0.914286 -0.131075
v -0.175136 0.914286 -0.137614
v -0.226991 1.028571 -0.124497
v -0.236664 1.028571 -0.111182
v -0.252317 1.028571 -0.116268
v -0.252317 1.028571 -0.132726
v -0.236664 1.028571 -0.137812
v -0.222991 1.028571 -0.124497
v -0.235428 1.028571 -0.107378
v -0.255553 1.028571 -0.113917
v -0.255553 1.028571 -0.135077
v -0.235428 1.028571 -0.141616
v -0.229732 1.142857 -0.112621
v -0.239406 1.142857 -0.099306
v -0.255058 1.142857 -0.104392
v -0.255058 1.142857 -0.120850
v -0.239406 1.142857 -0.125936
v -0.225732 1.142857 -0.112621
v -0.238170 1.142857 -0.095502
v -0.258294 1.142857 -0.102041
v -0.258294 1.142857 -0.123201
v -0.238170 1.142857 -0.129740
v -0.174268 1.257143 -0.086383
v -0.183942 1.257143 -0.073068
v -0.199594 1.257143 -0.078154
v -0.199594 1.257143 -0.094612
v -0.183942 1.257143 -0.099698
v -0.170268 1.257143 -0.086383
v -0.182706 1.257143 -0.069264
v -0.202830 1.257143 -0.075803
v -0.202830 1.257143 -0.096963
v -0.182706 1.257143 -0.103502
v -0.073844 1.371429 -0.049128
v -0.083517 1.371429 -0.035813
v -0.099170 1.371429 -0.040899
v -0.099170 1.371429 -0.057357
v -0.083517 1.371429 -0.062443
v -0.069844 1.371429 -0.049128
v -0.082281 1.371429 -0.032009
v -0.102406 1.371429 -0.038548
v -0.102406 1.371429 -0.059708
v -0.082281 1.371429 -0.066247
v 0.047558 1.485714 -0.005608
v 0.037885 1.485714 0.007707
v 0.022232 1.485714 0.002621
v 0.022232 1.485714 -0.013837
v 0.037885 1.485714 -0.018923
v 0.051558 1.485714 -0.005608
v 0.039121 1.485714 0.011511
v 0.018996 1.485714 0.004972
v 0.018996 1.485714 -0.016188
v 0.039121 1.485714 -0.022727
v 0.160946 1.600000 0.038627
v 0.151273 1.600000 0.051942
v 0.135620 1.600000 0.046856
v 0.135620 1.600000 0.030398
v 0.151273 1.600000 0.025312
v 0.000000 -0.029400 0.125000
v 0.098000 0.049000 0.125000
v 0.156800 -0.019600 0.125000
v 0.208643 0.199171 0.094134
v 0.136379 0.277571 0.160329
v 0.093020 0.208971 0.200047
v 0.229882 0.427743 0.016779
v 0.238457 0.506143 -0.080845
v 0.243602 0.437543 -0.139419
v 0.044639 0.656314 -0.068862
v 0.104258 0.734714 0.008917
v 0.140029 0.666114 0.055585
v -0.077254 0.770600 -0.101127
v -0.173754 0.849000 -0.118211
v -0.231653 0.780400 -0.128462
v -0.240991 0.999171 -0.124497
v -0.158293 1.077571 -0.177081
v -0.108674 1.008971 -0.208631
v -0.188268 1.227743 -0.086383
v -0.213730 1.306143 0.008252
v -0.229007 1.237543 0.065032
v 0.033558 1.456314 -0.005608
v -0.011588 1.534714 -0.092590
v -0.038676 1.466114 -0.144779
usemtl Wood
f 1 2 7 6
f 2 3 8 7
f 3 4 9 8
f 4 5 10 9
f 5 1 6 10
usemtl Wood
f 11 12 17 16
f 12 13 18 17
f 13 14 19 18
f 14 15 20 19
f 15 11 16 20
usemtl Wood
f 21 22 27 26
f 22 23 28 27
f 23 24 29 28
f 24 25 30 29
f 25 21 26 30
usemtl Wood
f 31 32 37 36
f 32 33 38 37
f 33 34 39 38
f 34 35 40 39
f 35 31 36 40
usemtl Wood
f 41 42 47 46
f 42 43 48 47
f 43 44 49 48
f 44 45 50 49
f 45 41 46 50
usemtl Wood
f 51 52 57 56
f 52 53 58 57
f 53 54 59 58
f 54 55 60 59
f 55 51 56 60
usemtl Wood
f 61 62 67 66
f 62 63 68 67
f 63 64 69 68
f 64 65 70 69
f 65 61 66 70
usemtl Wood
f 71 72 77 76
f 72 73 78 77
f 73 74 79 78
f 74 75 80 79
f 75 71 76 80
usemtl Wood
f 81 82 87 86
f 82 83 88 87
f 83 84 89 88
f 84 85 90 89
f 85 81 86 90
usemtl Wood
f 91 92 97 96
f 92 93 98 97
f 93 94 99 98
f 94 95 100 99
f 95 91 96 100
usemtl Wood
f 101 102 107 106
f 102 103 108 107
f 103 104 109 108
f 104 105 110 109
f 105 101 106 110
usemtl Wood
f 111 112 117 116
f 112 113 118 117
f 113 114 119 118
f 114 115 120 119
f 115 111 116 120
usemtl Wood
f 121 122 127 126
f 122 123 128 127
f 123 124 129 128
f 124 125 130 129
f 125 121 126 130
usemtl Wood
f 131 132 137 136
f 132 133 138 137
f 133 134 139 138
f 134 135 140 139
f 135 131 136 140
usemtl Pink
f 141 142 143
f 143 142 141
usemtl Pink
f 144 145 146
f 146 145 144
usemtl Pink
f 147 148 149
f 149 148 147
usemtl Pink
f 150 151 152
f 152 151 150
usemtl Pink
f 153 154 155
f 155 154 153
usemtl Pink
f 156 157 158
f 158 157 156
usemtl Pink
f 159 160 161
f 161 160 159
usemtl Pink
f 162 163 164
f 164 163 162
