# Stub OBJ File (GreenCity procedural placeholder): 'VineLargeLeaf_1'
# generated as low-poly gap-filler, see GreenCity_model_distribution_report.md
mtllib stub_shared.mtl
o VineLargeLeaf_1
v 0.018000 0.000000 0.200000
v 0.005562 0.000000 0.217119
v -0.014562 0.000000 0.210580
v -0.014562 0.000000 0.189420
v 0.005562 0.000000 0.182881
v 0.203547 0.171429 0.187247
v 0.193874 0.171429 0.200562
v 0.178221 0.171429 0.195476
v 0.178221 0.171429 0.179018
v 0.193874 0.171429 0.173932
v 0.207547 0.171429 0.187247
v 0.195110 0.171429 0.204366
v 0.174985 0.171429 0.197827
v 0.174985 0.171429 0.176667
v 0.195110 0.171429 0.170128
v 0.347829 0.342857 0.150614
v 0.338156 0.342857 0.163929
v 0.322503 0.342857 0.158843
v 0.322503 0.342857 0.142385
v 0.338156 0.342857 0.137300
v 0.351829 0.342857 0.150614
v 0.339392 0.342857 0.167733
v 0.319267 0.342857 0.161194
v 0.319267 0.342857 0.140034
v 0.339392 0.342857 0.133495
v 0.412390 0.514286 0.094774
v 0.402716 0.514286 0.108089
v 0.387063 0.514286 0.103003
v 0.387063 0.514286 0.086545
v 0.402716 0.514286 0.081459
v 0.416390 0.514286 0.094774
v 0.403952 0.514286 0.111893
v 0.383827 0.514286 0.105354
v 0.383827 0.514286 0.084194
v 0.403952 0.514286 0.077655
v 0.381811 0.685714 0.026847
v 0.372137 0.685714 0.040161
v 0.356485 0.685714 0.035076
v 0.356485 0.685714 0.018618
v 0.372137 0.685714 0.013532
v 0.385811 0.685714 0.026847
v 0.373373 0.685714 0.043966
v 0.353249 0.685714 0.037427
v 0.353249 0.685714 0.016267
v 0.373373 0.685714 0.009728
v 0.263396 0.857143 -0.044504
v 0.253722 0.857143 -0.031189
v 0.238070 0.857143 -0.036275
v 0.238070 0.857143 -0.052733
v 0.253722 0.857143 -0.057819
v 0.267396 0.857143 -0.044504
v 0.254958 0.857143 -0.027385
v 0.234834 0.857143 -0.033924
v 0.234834 0.857143 -0.055084
v 0.254958 0.857143 -0.061623
v 0.085423 1.028571 -0.110179
v 0.075749 1.028571 -0.096865
v 0.060097 1.028571 -0.101950
v 0.060097 1.028571 -0.118408
v 0.075749 1.028571 -0.123494
v 0.089423 1.028571 -0.110179
v 0.076985 1.028571 -0.093060
v 0.056860 1.028571 -0.099599
v 0.056860 1.028571 -0.120760
v 0.076985 1.028571 -0.127298
v -0.109607 1.200000 -0.161803
v -0.119281 1.200000 -0.148489
v -0.134933 1.200000 -0.153574
v -0.134933 1.200000 -0.170032
v -0.119281 1.200000 -0.175118
v -0.105607 1.200000 -0.161803
v -0.118044 1.200000 -0.144684
v -0.138169 1.200000 -0.151223
v -0.138169 1.200000 -0.172384
v -0.118044 1.200000 -0.178922
v -0.275118 1.371429 -0.192793
v -0.284792 1.371429 -0.179478
v -0.300444 1.371429 -0.184564
v -0.300444 1.371429 -0.201022
v -0.284792 1.371429 -0.206107
v -0.271118 1.371429 -0.192793
v -0.283556 1.371429 -0.175674
v -0.303680 1.371429 -0.182212
v -0.303680 1.371429 -0.203373
v -0.283556 1.371429 -0.209912
v -0.371585 1.542857 -0.199195
v -0.381259 1.542857 -0.185880
v -0.396911 1.542857 -0.190966
v -0.396911 1.542857 -0.207424
v -0.381259 1.542857 -0.212510
v -0.367585 1.542857 -0.199195
v -0.380023 1.542857 -0.182076
v -0.400147 1.542857 -0.188615
v -0.400147 1.542857 -0.209775
v -0.380023 1.542857 -0.216314
v -0.375971 1.714286 -0.180194
v -0.385645 1.714286 -0.166879
v -0.401297 1.714286 -0.171965
v -0.401297 1.714286 -0.188423
v -0.385645 1.714286 -0.193509
v -0.371971 1.714286 -0.180194
v -0.384409 1.714286 -0.163075
v -0.404533 1.714286 -0.169614
v -0.404533 1.714286 -0.190774
v -0.384409 1.714286 -0.197313
v -0.287229 1.885714 -0.138213
v -0.296902 1.885714 -0.124898
v -0.312555 1.885714 -0.129984
v -0.312555 1.885714 -0.146442
v -0.296902 1.885714 -0.151527
v -0.283229 1.885714 -0.138213
v -0.295666 1.885714 -0.121094
v -0.315791 1.885714 -0.127632
v -0.315791 1.885714 -0.148793
v -0.295666 1.885714 -0.155332
v -0.126550 2.057143 -0.078605
v -0.136224 2.057143 -0.065290
v -0.151876 2.057143 -0.070376
v -0.151876 2.057143 -0.086834
v -0.136224 2.057143 -0.091920
v -0.122550 2.057143 -0.078605
v -0.134988 2.057143 -0.061486
v -0.155112 2.057143 -0.068025
v -0.155112 2.057143 -0.089185
v -0.134988 2.057143 -0.095724
v 0.067693 2.228571 -0.008973
v 0.058020 2.228571 0.004342
v 0.042367 2.228571 -0.000744
v 0.042367 2.228571 -0.017202
v 0.058020 2.228571 -0.022288
v 0.071693 2.228571 -0.008973
v 0.059256 2.228571 0.008146
v 0.039131 2.228571 0.001607
v 0.039131 2.228571 -0.019553
v 0.059256 2.228571 -0.026092
v 0.249114 2.400000 0.061803
v 0.239440 2.400000 0.075118
v 0.223788 2.400000 0.070032
v 0.223788 2.400000 0.053574
v 0.239440 2.400000 0.048489
v 0.189547 0.095829 0.187247
v 0.441547 0.297429 0.187247
v 0.592747 0.121029 0.187247
v 0.367811 0.610114 0.026847
v 0.181988 0.811714 0.197063
v 0.070494 0.635314 0.299193
v -0.123607 1.124400 -0.161803
v -0.101557 1.326000 -0.412837
v -0.088327 1.149600 -0.563457
v -0.385585 1.467257 -0.199195
v -0.232281 1.668857 0.000809
v -0.140298 1.492457 0.120812
v -0.140550 1.981543 -0.078605
v -0.388691 2.183143 -0.122535
v -0.537576 2.006743 -0.148894
usemtl Wood
f 1 2 7 6
f 2 3 8 7
f 3 4 9 8
f 4 5 10 9
f 5 1 6 10
usemtl Wood
f 11 12 17 16
f 12 13 18 17
f 13 14 19 18
f 14 15 20 19
f 15 11 16 20
usemtl Wood
f 21 22 27 26
f 22 23 28 27
f 23 24 29 28
f 24 25 30 29
f 25 21 26 30
usemtl Wood
f 31 32 37 36
f 32 33 38 37
f 33 34 39 38
f 34 35 40 39
f 35 31 36 40
usemtl Wood
f 41 42 47 46
f 42 43 48 47
f 43 44 49 48
f 44 45 50 49
f 45 41 46 50
usemtl Wood
f 51 52 57 56
f 52 53 58 57
f 53 54 59 58
f 54 55 60 59
f 55 51 56 60
usemtl Wood
f 61 62 67 66
f 62 63 68 67
f 63 64 69 68
f 64 65 70 69
f 65 61 66 70
usemtl Wood
f 71 72 77 76
f 72 73 78 77
f 73 74 79 78
f 74 75 80 79
f 75 71 76 80
usemtl Wood
f 81 82 87 86
f 82 83 88 87
f 83 84 89 88
f 84 85 90 89
f 85 81 86 90
usemtl Wood
f 91 92 97 96
f 92 93 98 97
f 93 94 99 98
f 94 95 100 99
f 95 91 96 100
usemtl Wood
f 101 102 107 106
f 102 103 108 107
f 103 104 109 108
f 104 105 110 109
f 105 101 106 110
usemtl Wood
f 111 112 117 116
f 112 113 118 117
f 113 114 119 118
f 114 115 120 119
f 115 111 116 120
usemtl Wood
f 121 122 127 126
f 122 123 128 127
f 123 124 129 128
f 124 125 130 129
f 125 121 126 130
usemtl Wood
f 131 132 137 136
f 132 133 138 137
f 133 134 139 138
f 134 135 140 139
f 135 131 136 140
usemtl Green
f 141 142 143
f 143 142 141
usemtl Green
f 144 145 146
f 146 145 144
usemtl Green
f 147 148 149
f 149 148 147
usemtl Green
f 150 151 152
f 152 151 150
usemtl Green
f 153 154 155
f 155 154 153
