# Stub OBJ File (GreenCity procedural placeholder): 'WeepingTree_1'
# generated as low-poly gap-filler, see GreenCity_model_distribution_report.md
mtllib stub_shared.mtl
o WeepingTree_1
v 0.050000 0.000000 0.000000
v 0.025000 0.000000 0.043301
v -0.025000 0.000000 0.043301
v -0.050000 0.000000 0.000000
v -0.025000 0.000000 -0.043301
v 0.025000 0.000000 -0.043301
v 0.035000 1.600000 0.000000
v 0.017500 1.600000 0.030311
v -0.017500 1.600000 0.030311
v -0.035000 1.600000 0.000000
v -0.017500 1.600000 -0.030311
v 0.017500 1.600000 -0.030311
v 0.000000 2.450000 0.000000
v 0.000000 2.450000 0.000000
v 0.000000 2.450000 0.000000
v 0.000000 2.450000 0.000000
v 0.000000 2.450000 0.000000
v 0.000000 2.450000 0.000000
v 0.000000 2.450000 0.000000
v 0.000000 2.450000 0.000000
v 0.000000 2.450000 0.000000
v 0.000000 2.450000 0.000000
v 0.636396 2.288909 0.000000
v 0.514855 2.288909 0.374064
v 0.196657 2.288909 0.605249
v -0.196657 2.288909 0.605249
v -0.514855 2.288909 0.374064
v -0.636396 2.288909 0.000000
v -0.514855 2.288909 -0.374064
v -0.196657 2.288909 -0.605249
v 0.196657 2.288909 -0.605249
v 0.514855 2.288909 -0.374064
v 0.900000 1.900000 0.000000
v 0.728115 1.900000 0.529007
v 0.278115 1.900000 0.855951
v -0.278115 1.900000 0.855951
v -0.728115 1.900000 0.529007
v -0.900000 1.900000 0.000000
v -0.728115 1.900000 -0.529007
v -0.278115 1.900000 -0.855951
v 0.278115 1.900000 -0.855951
v 0.728115 1.900000 -0.529007
v 0.636396 1.511091 0.000000
v 0.514855 1.511091 0.374064
v 0.196657 1.511091 0.605249
v -0.196657 1.511091 0.605249
v -0.514855 1.511091 0.374064
v -0.636396 1.511091 0.000000
v -0.514855 1.511091 -0.374064
v -0.196657 1.511091 -0.605249
v 0.196657 1.511091 -0.605249
v 0.514855 1.511091 -0.374064
v 0.000000 1.350000 0.000000
v 0.000000 1.350000 0.000000
v 0.000000 1.350000 0.000000
v -0.000000 1.350000 0.000000
v -0.000000 1.350000 0.000000
v -0.000000 1.350000 0.000000
v -0.000000 1.350000 -0.000000
v -0.000000 1.350000 -0.000000
v 0.000000 1.350000 -0.000000
v 0.000000 1.350000 -0.000000
v 0.375000 0.600000 0.000000
v 0.800000 1.850000 0.000000
v 0.765451 1.850000 0.047553
v 0.709549 1.850000 0.029389
v 0.709549 1.850000 -0.029389
v 0.765451 1.850000 -0.047553
v 0.265165 0.600000 0.265165
v 0.580330 1.850000 0.530330
v 0.545781 1.850000 0.577883
v 0.489879 1.850000 0.559719
v 0.489879 1.850000 0.500941
v 0.545781 1.850000 0.482777
v 0.000000 0.600000 0.375000
v 0.050000 1.850000 0.750000
v 0.015451 1.850000 0.797553
v -0.040451 1.850000 0.779389
v -0.040451 1.850000 0.720611
v 0.015451 1.850000 0.702447
v -0.265165 0.600000 0.265165
v -0.480330 1.850000 0.530330
v -0.514879 1.850000 0.577883
v -0.570781 1.850000 0.559719
v -0.570781 1.850000 0.500941
v -0.514879 1.850000 0.482777
v -0.375000 0.600000 0.000000
v -0.700000 1.850000 0.000000
v -0.734549 1.850000 0.047553
v -0.790451 1.850000 0.029389
v -0.790451 1.850000 -0.029389
v -0.734549 1.850000 -0.047553
v -0.265165 0.600000 -0.265165
v -0.480330 1.850000 -0.530330
v -0.514879 1.850000 -0.482777
v -0.570781 1.850000 -0.500941
v -0.570781 1.850000 -0.559719
v -0.514879 1.850000 -0.577883
v -0.000000 0.600000 -0.375000
v 0.050000 1.850000 -0.750000
v 0.015451 1.850000 -0.702447
v -0.040451 1.850000 -0.720611
v -0.040451 1.850000 -0.779389
v 0.015451 1.850000 -0.797553
v 0.265165 0.600000 -0.265165
v 0.580330 1.850000 -0.530330
v 0.545781 1.850000 -0.482777
v 0.489879 1.850000 -0.500941
v 0.489879 1.850000 -0.559719
v 0.545781 1.850000 -0.577883
usemtl Wood
f 1 2 8 7
f 2 3 9 8
f 3 4 10 9
f 4 5 11 10
f 5 6 12 11
f 6 1 7 12
usemtl Green
f 13 24 23
f 14 25 24
f 15 26 25
f 16 27 26
f 17 28 27
f 18 29 28
f 19 30 29
f 20 31 30
f 21 32 31
f 22 23 32
f 23 24 34 33
f 24 25 35 34
f 25 26 36 35
f 26 27 37 36
f 27 28 38 37
f 28 29 39 38
f 29 30 40 39
f 30 31 41 40
f 31 32 42 41
f 32 23 33 42
f 33 34 44 43
f 34 35 45 44
f 35 36 46 45
f 36 37 47 46
f 37 38 48 47
f 38 39 49 48
f 39 40 50 49
f 40 41 51 50
f 41 42 52 51
f 42 33 43 52
f 43 44 54
f 44 45 55
f 45 46 56
f 46 47 57
f 47 48 58
f 48 49 59
f 49 50 60
f 50 51 61
f 51 52 62
f 52 43 53
usemtl Green
f 64 65 63
f 65 66 63
f 66 67 63
f 67 68 63
f 68 64 63
usemtl Green
f 70 71 69
f 71 72 69
f 72 73 69
f 73 74 69
f 74 70 69
usemtl Green
f 76 77 75
f 77 78 75
f 78 79 75
f 79 80 75
f 80 76 75
usemtl Green
f 82 83 81
f 83 84 81
f 84 85 81
f 85 86 81
f 86 82 81
usemtl Green
f 88 89 87
f 89 90 87
f 90 91 87
f 91 92 87
f 92 88 87
usemtl Green
f 94 95 93
f 95 96 93
f 96 97 93
f 97 98 93
f 98 94 93
usemtl Green
f 100 101 99
f 101 102 99
f 102 103 99
f 103 104 99
f 104 100 99
usemtl Green
f 106 107 105
f 107 108 105
f 108 109 105
f 109 110 105
f 110 106 105
