  0
SECTION
  2
HEADER
  9
$ACADVER
  1
AC1032
  9
$ACADMAINTVER
 90
4
  9
$DWGCODEPAGE
  3
ANSI_1252
  9
$LASTSAVEDBY
  1
ezdxf
  9
$REQUIREDVERSIONS
160
0
  9
$INSBASE
 10
0.0
 20
0.0
 30
0.0
  9
$EXTMIN
 10
1e+20
 20
1e+20
 30
1e+20
  9
$EXTMAX
 10
-1e+20
 20
-1e+20
 30
-1e+20
  9
$LIMMIN
 10
0.0
 20
0.0
  9
$LIMMAX
 10
420.0
 20
297.0
  9
$ORTHOMODE
 70
0
  9
$REGENMODE
 70
1
  9
$FILLMODE
 70
1
  9
$QTEXTMODE
 70
0
  9
$MIRRTEXT
 70
1
  9
$LTSCALE
 40
1.0
  9
$ATTMODE
 70
1
  9
$TEXTSIZE
 40
2.5
  9
$TRACEWID
 40
1.0
  9
$TEXTSTYLE
  7
Standard
  9
$CLAYER
  8
0
  9
$CELTYPE
  6
ByLayer
  9
$CECOLOR
 62
256
  9
$CELTSCALE
 40
1.0
  9
$DISPSILH
 70
0
  9
$DIMSCALE
 40
1.0
  9
$DIMASZ
 40
2.5
  9
$DIMEXO
 40
0.625
  9
$DIMDLI
 40
3.75
  9
$DIMRND
 40
0.0
  9
$DIMDLE
 40
0.0
  9
$DIMEXE
 40
1.25
  9
$DIMTP
 40
0.0
  9
$DIMTM
 40
0.0
  9
$DIMTXT
 40
2.5
  9
$DIMCEN
 40
2.5
  9
$DIMTSZ
 40
0.0
  9
$DIMTOL
 70
0
  9
$DIMLIM
 70
0
  9
$DIMTIH
 70
0
  9
$DIMTOH
 70
0
  9
$DIMSE1
 70
0
  9
$DIMSE2
 70
0
  9
$DIMTAD
 70
1
  9
$DIMZIN
 70
8
  9
$DIMBLK
  1

  9
$DIMASO
 70
1
  9
$DIMSHO
 70
1
  9
$DIMPOST
  1

  9
$DIMAPOST
  1

  9
$DIMALT
 70
0
  9
$DIMALTD
 70
3
  9
$DIMALTF
 40
0.03937007874
  9
$DIMLFAC
 40
1.0
  9
$DIMTOFL
 70
1
  9
$DIMTVP
 40
0.0
  9
$DIMTIX
 70
0
  9
$DIMSOXD
 70
0
  9
$DIMSAH
 70
0
  9
$DIMBLK1
  1

  9
$DIMBLK2
  1

  9
$DIMSTYLE
  2
ISO-25
  9
$DIMCLRD
 70
0
  9
$DIMCLRE
 70
0
  9
$DIMCLRT
 70
0
  9
$DIMTFAC
 40
1.0
  9
$DIMGAP
 40
0.625
  9
$DIMJUST
 70
0
  9
$DIMSD1
 70
0
  9
$DIMSD2
 70
0
  9
$DIMTOLJ
 70
0
  9
$DIMTZIN
 70
8
  9
$DIMALTZ
 70
0
  9
$DIMALTTZ
 70
0
  9
$DIMUPT
 70
0
  9
$DIMDEC
 70
2
  9
$DIMTDEC
 70
2
  9
$DIMALTU
 70
2
  9
$DIMALTTD
 70
3
  9
$DIMTXSTY
  7
Standard
  9
$DIMAUNIT
 70
0
  9
$DIMADEC
 70
0
  9
$DIMALTRND
 40
0.0
  9
$DIMAZIN
 70
0
  9
$DIMDSEP
 70
44
  9
$DIMATFIT
 70
3
  9
$DIMFRAC
 70
0
  9
$DIMLDRBLK
  1

  9
$DIMLUNIT
 70
2
  9
$DIMLWD
 70
-2
  9
$DIMLWE
 70
-2
  9
$DIMTMOVE
 70
0
  9
$DIMFXL
 40
1.0
  9
$DIMFXLON
 70
0
  9
$DIMJOGANG
 40
0.785398163397
  9
$DIMTFILL
 70
0
  9
$DIMTFILLCLR
 70
0
  9
$DIMARCSYM
 70
0
  9
$DIMLTYPE
  6

  9
$DIMLTEX1
  6

  9
$DIMLTEX2
  6

  9
$DIMTXTDIRECTION
 70
0
  9
$LUNITS
 70
2
  9
$LUPREC
 70
4
  9
$SKETCHINC
 40
1.0
  9
$FILLETRAD
 40
10.0
  9
$AUNITS
 70
0
  9
$AUPREC
 70
2
  9
$MENU
  1
.
  9
$ELEVATION
 40
0.0
  9
$PELEVATION
 40
0.0
  9
$THICKNESS
 40
0.0
  9
$LIMCHECK
 70
0
  9
$CHAMFERA
 40
0.0
  9
$CHAMFERB
 40
0.0
  9
$CHAMFERC
 40
0.0
  9
$CHAMFERD
 40
0.0
  9
$SKPOLY
 70
0
  9
$TDCREATE
 40
2461310.7561689815
  9
$TDUCREATE
 40
2458532.153996898
  9
$TDUPDATE
 40
2461310.7561689815
  9
$TDUUPDATE
 40
2458532.1544311
  9
$TDINDWG
 40
0.0
  9
$TDUSRTIMER
 40
0.0
  9
$USRTIMER
 70
1
  9
$ANGBASE
 50
0.0
  9
$ANGDIR
 70
0
  9
$PDMODE
 70
0
  9
$PDSIZE
 40
0.0
  9
$PLINEWID
 40
0.0
  9
$SPLFRAME
 70
0
  9
$SPLINETYPE
 70
6
  9
$SPLINESEGS
 70
8
  9
$HANDSEED
  5
3F4
  9
$SURFTAB1
 70
6
  9
$SURFTAB2
 70
6
  9
$SURFTYPE
 70
6
  9
$SURFU
 70
6
  9
$SURFV
 70
6
  9
$UCSBASE
  2

  9
$UCSNAME
  2

  9
$UCSORG
 10
0.0
 20
0.0
 30
0.0
  9
$UCSXDIR
 10
1.0
 20
0.0
 30
0.0
  9
$UCSYDIR
 10
0.0
 20
1.0
 30
0.0
  9
$UCSORTHOREF
  2

  9
$UCSORTHOVIEW
 70
0
  9
$UCSORGTOP
 10
0.0
 20
0.0
 30
0.0
  9
$UCSORGBOTTOM
 10
0.0
 20
0.0
 30
0.0
  9
$UCSORGLEFT
 10
0.0
 20
0.0
 30
0.0
  9
$UCSORGRIGHT
 10
0.0
 20
0.0
 30
0.0
  9
$UCSORGFRONT
 10
0.0
 20
0.0
 30
0.0
  9
$UCSORGBACK
 10
0.0
 20
0.0
 30
0.0
  9
$PUCSBASE
  2

  9
$PUCSNAME
  2

  9
$PUCSORG
 10
0.0
 20
0.0
 30
0.0
  9
$PUCSXDIR
 10
1.0
 20
0.0
 30
0.0
  9
$PUCSYDIR
 10
0.0
 20
1.0
 30
0.0
  9
$PUCSORTHOREF
  2

  9
$PUCSORTHOVIEW
 70
0
  9
$PUCSORGTOP
 10
0.0
 20
0.0
 30
0.0
  9
$PUCSORGBOTTOM
 10
0.0
 20
0.0
 30
0.0
  9
$PUCSORGLEFT
 10
0.0
 20
0.0
 30
0.0
  9
$PUCSORGRIGHT
 10
0.0
 20
0.0
 30
0.0
  9
$PUCSORGFRONT
 10
0.0
 20
0.0
 30
0.0
  9
$PUCSORGBACK
 10
0.0
 20
0.0
 30
0.0
  9
$USERI1
 70
0
  9
$USERI2
 70
0
  9
$USERI3
 70
0
  9
$USERI4
 70
0
  9
$USERI5
 70
0
  9
$USERR1
 40
0.0
  9
$USERR2
 40
0.0
  9
$USERR3
 40
0.0
  9
$USERR4
 40
0.0
  9
$USERR5
 40
0.0
  9
$WORLDVIEW
 70
1
  9
$SHADEDGE
 70
3
  9
$SHADEDIF
 70
70
  9
$TILEMODE
 70
1
  9
$MAXACTVP
 70
64
  9
$PINSBASE
 10
0.0
 20
0.0
 30
0.0
  9
$PLIMCHECK
 70
0
  9
$PEXTMIN
 10
1e+20
 20
1e+20
 30
1e+20
  9
$PEXTMAX
 10
-1e+20
 20
-1e+20
 30
-1e+20
  9
$PLIMMIN
 10
0.0
 20
0.0
  9
$PLIMMAX
 10
420.0
 20
297.0
  9
$UNITMODE
 70
0
  9
$VISRETAIN
 70
1
  9
$PLINEGEN
 70
0
  9
$PSLTSCALE
 70
1
  9
$TREEDEPTH
 70
3020
  9
$CMLSTYLE
  2
Standard
  9
$CMLJUST
 70
0
  9
$CMLSCALE
 40
20.0
  9
$PROXYGRAPHICS
 70
1
  9
$MEASUREMENT
 70
1
  9
$CELWEIGHT
370
-1
  9
$ENDCAPS
280
0
  9
$JOINSTYLE
280
0
  9
$LWDISPLAY
290
0
  9
$INSUNITS
 70
6
  9
$HYPERLINKBASE
  1

  9
$STYLESHEET
  1

  9
$XEDIT
290
1
  9
$CEPSNTYPE
380
0
  9
$PSTYLEMODE
290
1
  9
$FINGERPRINTGUID
  2
{9AE99A13-848A-4CD3-9837-0AB54F82BDCD}
  9
$VERSIONGUID
  2
{76CE6DD6-C60F-4EB9-9C0B-96966A276D75}
  9
$EXTNAMES
290
1
  9
$PSVPSCALE
 40
0.0
  9
$OLESTARTUP
290
0
  9
$SORTENTS
280
127
  9
$INDEXCTL
280
0
  9
$HIDETEXT
280
1
  9
$XCLIPFRAME
280
1
  9
$HALOGAP
280
0
  9
$OBSCOLOR
 70
257
  9
$OBSLTYPE
280
0
  9
$INTERSECTIONDISPLAY
280
0
  9
$INTERSECTIONCOLOR
 70
257
  9
$DIMASSOC
280
2
  9
$PROJECTNAME
  1

  9
$CAMERADISPLAY
290
0
  9
$LENSLENGTH
 40
50.0
  9
$CAMERAHEIGHT
 40
0.0
  9
$STEPSPERSEC
 40
24.0
  9
$STEPSIZE
 40
100.0
  9
$3DDWFPREC
 40
2.0
  9
$PSOLWIDTH
 40
0.005
  9
$PSOLHEIGHT
 40
0.08
  9
$LOFTANG1
 40
1.570796326795
  9
$LOFTANG2
 40
1.570796326795
  9
$LOFTMAG1
 40
0.0
  9
$LOFTMAG2
 40
0.0
  9
$LOFTPARAM
 70
7
  9
$LOFTNORMALS
280
1
  9
$LATITUDE
 40
37.795
  9
$LONGITUDE
 40
-122.394
  9
$NORTHDIRECTION
 40
0.0
  9
$TIMEZONE
 70
-8000
  9
$LIGHTGLYPHDISPLAY
280
1
  9
$TILEMODELIGHTSYNCH
280
1
  9
$CMATERIAL
347
20
  9
$SOLIDHIST
280
0
  9
$SHOWHIST
280
1
  9
$DWFFRAME
280
2
  9
$DGNFRAME
280
2
  9
$REALWORLDSCALE
290
1
  9
$INTERFERECOLOR
 62
256
  9
$CSHADOW
280
0
  9
$SHADOWPLANELOCATION
 40
0.0
  0
ENDSEC
  0
SECTION
  2
CLASSES
  0
CLASS
  1
ACDBDICTIONARYWDFLT
  2
AcDbDictionaryWithDefault
  3
ObjectDBX Classes
 90
0
 91
0
280
0
281
0
  0
CLASS
  1
SUN
  2
AcDbSun
  3
SCENEOE
 90
1153
 91
0
280
0
281
0
  0
CLASS
  1
VISUALSTYLE
  2
AcDbVisualStyle
  3
ObjectDBX Classes
 90
4095
 91
0
280
0
281
0
  0
CLASS
  1
MATERIAL
  2
AcDbMaterial
  3
ObjectDBX Classes
 90
1153
 91
0
280
0
281
0
  0
CLASS
  1
SCALE
  2
AcDbScale
  3
ObjectDBX Classes
 90
1153
 91
0
280
0
281
0
  0
CLASS
  1
TABLESTYLE
  2
AcDbTableStyle
  3
ObjectDBX Classes
 90
4095
 91
0
280
0
281
0
  0
CLASS
  1
MLEADERSTYLE
  2
AcDbMLeaderStyle
  3
ACDB_MLEADERSTYLE_CLASS
 90
4095
 91
0
280
0
281
0
  0
CLASS
  1
DICTIONARYVAR
  2
AcDbDictionaryVar
  3
ObjectDBX Classes
 90
0
 91
0
280
0
281
0
  0
CLASS
  1
CELLSTYLEMAP
  2
AcDbCellStyleMap
  3
ObjectDBX Classes
 90
1152
 91
0
280
0
281
0
  0
CLASS
  1
MENTALRAYRENDERSETTINGS
  2
AcDbMentalRayRenderSettings
  3
SCENEOE
 90
1024
 91
0
280
0
281
0
  0
CLASS
  1
ACDBDETAILVIEWSTYLE
  2
AcDbDetailViewStyle
  3
ObjectDBX Classes
 90
1025
 91
0
280
0
281
0
  0
CLASS
  1
ACDBSECTIONVIEWSTYLE
  2
AcDbSectionViewStyle
  3
ObjectDBX Classes
 90
1025
 91
0
280
0
281
0
  0
CLASS
  1
RASTERVARIABLES
  2
AcDbRasterVariables
  3
ISM
 90
0
 91
0
280
0
281
0
  0
CLASS
  1
LAYOUT
  2
AcDbLayout
  3
ObjectDBX Classes
 90
0
 91
0
280
0
281
0
  0
CLASS
  1
ACDBPLACEHOLDER
  2
AcDbPlaceHolder
  3
ObjectDBX Classes
 90
0
 91
0
280
0
281
0
  0
ENDSEC
  0
SECTION
  2
TABLES
  0
TABLE
  2
VPORT
  5
8
330
0
100
AcDbSymbolTable
 70
1
  0
VPORT
  5
23
330
8
100
AcDbSymbolTableRecord
100
AcDbViewportTableRecord
  2
*Active
 70
0
 10
0.0
 20
0.0
 11
1.0
 21
1.0
 12
0.0
 22
0.0
 13
0.0
 23
0.0
 14
0.5
 24
0.5
 15
0.5
 25
0.5
 16
0.0
 26
0.0
 36
1.0
 17
0.0
 27
0.0
 37
0.0
 40
1000.0
 41
1.34
 42
50.0
 43
0.0
 44
0.0
 50
0.0
 51
0.0
 71
0
 72
1000
 73
1
 74
3
 75
0
 76
0
 77
0
 78
0
281
0
 65
0
146
0.0
  0
ENDTAB
  0
TABLE
  2
LTYPE
  5
2
330
0
100
AcDbSymbolTable
 70
3
  0
LTYPE
  5
24
330
2
100
AcDbSymbolTableRecord
100
AcDbLinetypeTableRecord
  2
ByBlock
 70
0
  3

 72
65
 73
0
 40
0.0
  0
LTYPE
  5
25
330
2
100
AcDbSymbolTableRecord
100
AcDbLinetypeTableRecord
  2
ByLayer
 70
0
  3

 72
65
 73
0
 40
0.0
  0
LTYPE
  5
26
330
2
100
AcDbSymbolTableRecord
100
AcDbLinetypeTableRecord
  2
Continuous
 70
0
  3

 72
65
 73
0
 40
0.0
  0
ENDTAB
  0
TABLE
  2
LAYER
  5
1
330
0
100
AcDbSymbolTable
 70
15
  0
LAYER
  5
27
330
1
100
AcDbSymbolTableRecord
100
AcDbLayerTableRecord
  2
0
 70
0
 62
7
  6
Continuous
370
-3
390
13
347
21
  0
LAYER
  5
28
330
1
100
AcDbSymbolTableRecord
100
AcDbLayerTableRecord
  2
Defpoints
 70
0
 62
7
  6
Continuous
290
0
370
-3
390
13
347
21
  0
LAYER
  5
2F
330
1
100
AcDbSymbolTableRecord
100
AcDbLayerTableRecord
  2
TERRITORY_BOUNDARY
 70
0
 62
8
  6
Continuous
370
-3
390
13
347
21
  0
LAYER
  5
31
330
1
100
AcDbSymbolTableRecord
100
AcDbLayerTableRecord
  2
GRASS
 70
0
 62
84
  6
Continuous
370
-3
390
13
347
21
  0
LAYER
  5
33
330
1
100
AcDbSymbolTableRecord
100
AcDbLayerTableRecord
  2
PATH_DIAGONAL_1
 70
0
 62
9
  6
Continuous
370
-3
390
13
347
21
  0
LAYER
  5
35
330
1
100
AcDbSymbolTableRecord
100
AcDbLayerTableRecord
  2
PATH_DIAGONAL_2
 70
0
 62
9
  6
Continuous
370
-3
390
13
347
21
  0
LAYER
  5
37
330
1
100
AcDbSymbolTableRecord
100
AcDbLayerTableRecord
  2
PATH_DIAGONAL_3
 70
0
 62
9
  6
Continuous
370
-3
390
13
347
21
  0
LAYER
  5
39
330
1
100
AcDbSymbolTableRecord
100
AcDbLayerTableRecord
  2
GAS_PIPE
 70
0
 62
9
  6
Continuous
370
-3
390
13
347
21
  0
LAYER
  5
3B
330
1
100
AcDbSymbolTableRecord
100
AcDbLayerTableRecord
  2
СИРЕНЬ ОБЫКНОВЕННАЯ
 70
0
 62
3
  6
Continuous
370
-3
390
13
347
21
  0
LAYER
  5
43
330
1
100
AcDbSymbolTableRecord
100
AcDbLayerTableRecord
  2
СПИРЕЯ ВАНГУТТА
 70
0
 62
3
  6
Continuous
370
-3
390
13
347
21
  0
LAYER
  5
5D
330
1
100
AcDbSymbolTableRecord
100
AcDbLayerTableRecord
  2
ДЕРЕН КРОВАВО-КРАСНЫЙ
 70
0
 62
3
  6
Continuous
370
-3
390
13
347
21
  0
LAYER
  5
390
330
1
100
AcDbSymbolTableRecord
100
AcDbLayerTableRecord
  2
БЕРЕЗА ПОВИСЛАЯ
 70
0
 62
3
  6
Continuous
370
-3
390
13
347
21
  0
LAYER
  5
3C6
330
1
100
AcDbSymbolTableRecord
100
AcDbLayerTableRecord
  2
LAMPS
 70
0
 62
2
  6
Continuous
370
-3
390
13
347
21
  0
LAYER
  5
3CD
330
1
100
AcDbSymbolTableRecord
100
AcDbLayerTableRecord
  2
BENCH
 70
0
 62
30
  6
Continuous
370
-3
390
13
347
21
  0
LAYER
  5
3D0
330
1
100
AcDbSymbolTableRecord
100
AcDbLayerTableRecord
  2
URN
 70
0
 62
2
  6
Continuous
370
-3
390
13
347
21
  0
ENDTAB
  0
TABLE
  2
STYLE
  5
5
330
0
100
AcDbSymbolTable
 70
1
  0
STYLE
  5
29
330
5
100
AcDbSymbolTableRecord
100
AcDbTextStyleTableRecord
  2
Standard
 70
0
 40
0.0
 41
1.0
 50
0.0
 71
0
 42
2.5
  3
txt
  4

  0
ENDTAB
  0
TABLE
  2
VIEW
  5
7
330
0
100
AcDbSymbolTable
 70
0
  0
ENDTAB
  0
TABLE
  2
UCS
  5
6
330
0
100
AcDbSymbolTable
 70
0
  0
ENDTAB
  0
TABLE
  2
APPID
  5
3
330
0
100
AcDbSymbolTable
 70
3
  0
APPID
  5
2A
330
3
100
AcDbSymbolTableRecord
100
AcDbRegAppTableRecord
  2
ACAD
 70
0
  0
APPID
  5
3F1
330
3
100
AcDbSymbolTableRecord
100
AcDbRegAppTableRecord
  2
HATCHBACKGROUNDCOLOR
 70
0
  0
APPID
  5
3F2
330
3
100
AcDbSymbolTableRecord
100
AcDbRegAppTableRecord
  2
EZDXF
 70
0
  0
ENDTAB
  0
TABLE
  2
DIMSTYLE
  5
4
330
0
100
AcDbSymbolTable
 70
1
100
AcDbDimStyleTable
  0
DIMSTYLE
105
2B
330
4
100
AcDbSymbolTableRecord
100
AcDbDimStyleTableRecord
  2
Standard
 70
0
 40
1.0
 41
2.5
 42
0.625
 43
3.75
 44
1.25
 45
0.0
 46
0.0
 47
0.0
 48
0.0
 49
2.5
140
2.5
141
2.5
142
0.0
143
0.03937007874
144
1.0
145
0.0
146
1.0
147
0.625
148
0.0
 69
0
 70
0
 71
0
 72
0
 73
0
 74
0
 75
0
 76
0
 77
1
 78
8
 79
3
170
0
171
3
172
1
173
0
174
0
175
0
176
0
177
0
178
0
179
2
271
2
272
2
273
2
274
3
275
0
276
0
277
2
278
44
279
0
280
0
281
0
282
0
283
0
284
8
285
0
286
0
288
0
289
3
290
0
371
-2
372
-2
  0
ENDTAB
  0
TABLE
  2
BLOCK_RECORD
  5
9
330
0
100
AcDbSymbolTable
 70
3
  0
BLOCK_RECORD
  5
17
330
9
100
AcDbSymbolTableRecord
100
AcDbBlockTableRecord
  2
*Model_Space
340
1A
 70
0
280
1
281
0
  0
BLOCK_RECORD
  5
1B
330
9
100
AcDbSymbolTableRecord
100
AcDbBlockTableRecord
  2
*Paper_Space
340
1E
 70
0
280
1
281
0
  0
BLOCK_RECORD
  5
3C9
330
9
100
AcDbSymbolTableRecord
100
AcDbBlockTableRecord
  2
BENCH_BLOCK
340
0
 70
0
280
1
281
0
  0
ENDTAB
  0
ENDSEC
  0
SECTION
  2
BLOCKS
  0
BLOCK
  5
18
330
17
100
AcDbEntity
  8
0
100
AcDbBlockBegin
  2
*Model_Space
 70
0
 10
0.0
 20
0.0
 30
0.0
  3
*Model_Space
  1

  0
ENDBLK
  5
19
330
17
100
AcDbEntity
  8
0
100
AcDbBlockEnd
  0
BLOCK
  5
1C
330
1B
100
AcDbEntity
  8
0
100
AcDbBlockBegin
  2
*Paper_Space
 70
0
 10
0.0
 20
0.0
 30
0.0
  3
*Paper_Space
  1

  0
ENDBLK
  5
1D
330
1B
100
AcDbEntity
  8
0
100
AcDbBlockEnd
  0
BLOCK
  5
3CA
330
3C9
100
AcDbEntity
  8
0
100
AcDbBlockBegin
  2
BENCH_BLOCK
 70
0
 10
0.0
 20
0.0
 30
0.0
  3
BENCH_BLOCK
  1

  0
LWPOLYLINE
  5
3CC
330
3C9
100
AcDbEntity
  8
0
100
AcDbPolyline
 90
4
 70
1
 10
-0.75
 20
-0.25
 10
0.75
 20
-0.25
 10
0.75
 20
0.25
 10
-0.75
 20
0.25
  0
ENDBLK
  5
3CB
330
3C9
100
AcDbEntity
  8
0
100
AcDbBlockEnd
  0
ENDSEC
  0
SECTION
  2
ENTITIES
  0
LWPOLYLINE
  5
30
330
17
100
AcDbEntity
  8
TERRITORY_BOUNDARY
100
AcDbPolyline
 90
4
 70
1
 10
64.0
 20
0.0
 10
64.0
 20
64.0
 10
0.0
 20
64.0
 10
0.0
 20
0.0
  0
LWPOLYLINE
  5
32
330
17
100
AcDbEntity
  8
GRASS
100
AcDbPolyline
 90
4
 70
1
 10
64.0
 20
0.0
 10
64.0
 20
64.0
 10
0.0
 20
64.0
 10
0.0
 20
0.0
  0
LWPOLYLINE
  5
34
330
17
100
AcDbEntity
  8
PATH_DIAGONAL_1
100
AcDbPolyline
 90
4
 70
1
 10
36.203867196751226
 20
0.0
 10
33.09259735953042
 20
0.0
 10
64.0
 20
30.907402640469577
 10
64.0
 20
27.796132803248774
  0
LWPOLYLINE
  5
36
330
17
100
AcDbEntity
  8
PATH_DIAGONAL_2
100
AcDbPolyline
 90
4
 70
1
 10
6.505382386916235
 20
0.0
 10
3.394112549695426
 20
0.0
 10
64.0
 20
60.605887450304564
 10
64.0
 20
57.49461761308376
  0
LWPOLYLINE
  5
38
330
17
100
AcDbEntity
  8
PATH_DIAGONAL_3
100
AcDbPolyline
 90
4
 70
1
 10
0.0
 20
23.19310242291876
 10
0.0
 20
26.30437226013957
 10
37.695627739860434
 20
64.0
 10
40.80689757708124
 20
64.0
  0
LWPOLYLINE
  5
3A
330
17
100
AcDbEntity
  8
GAS_PIPE
100
AcDbPolyline
 90
4
 70
1
 10
59.6
 20
0.0
 10
59.6
 20
64.0
 10
58.0
 20
64.0
 10
58.0
 20
0.0
  0
POINT
  5
3C
330
17
100
AcDbEntity
  8
СИРЕНЬ ОБЫКНОВЕННАЯ
100
AcDbPoint
 10
60.814601333351796
 20
0.5691035762579473
 30
0.0
  0
POINT
  5
3D
330
17
100
AcDbEntity
  8
СИРЕНЬ ОБЫКНОВЕННАЯ
100
AcDbPoint
 10
61.7338401488943
 20
1.4883423918004537
 30
0.0
  0
POINT
  5
3E
330
17
100
AcDbEntity
  8
СИРЕНЬ ОБЫКНОВЕННАЯ
100
AcDbPoint
 10
62.65307896443681
 20
2.40758120734296
 30
0.0
  0
POINT
  5
3F
330
17
100
AcDbEntity
  8
СИРЕНЬ ОБЫКНОВЕННАЯ
100
AcDbPoint
 10
60.42569260369918
 20
1.877251121453047
 30
0.0
  0
POINT
  5
40
330
17
100
AcDbEntity
  8
СИРЕНЬ ОБЫКНОВЕННАЯ
100
AcDbPoint
 10
61.344931419241696
 20
2.7964899369955605
 30
0.0
  0
POINT
  5
41
330
17
100
AcDbEntity
  8
СИРЕНЬ ОБЫКНОВЕННАЯ
100
AcDbPoint
 10
62.26417023478421
 20
3.715728752538074
 30
0.0
  0
POINT
  5
42
330
17
100
AcDbEntity
  8
СИРЕНЬ ОБЫКНОВЕННАЯ
100
AcDbPoint
 10
63.183409050326716
 20
4.63496756808058
 30
0.0
  0
POINT
  5
44
330
17
100
AcDbEntity
  8
СПИРЕЯ ВАНГУТТА
100
AcDbPoint
 10
51.26865978733341
 20
0.9226569668512299
 30
0.0
  0
POINT
  5
45
330
17
100
AcDbEntity
  8
СПИРЕЯ ВАНГУТТА
100
AcDbPoint
 10
52.187898602875926
 20
1.841895782393739
 30
0.0
  0
POINT
  5
46
330
17
100
AcDbEntity
  8
СПИРЕЯ ВАНГУТТА
100
AcDbPoint
 10
53.10713741841843
 20
2.7611345979362496
 30
0.0
  0
POINT
  5
47
330
17
100
AcDbEntity
  8
СПИРЕЯ ВАНГУТТА
100
AcDbPoint
 10
54.02637623396094
 20
3.6803734134787582
 30
0.0
  0
POINT
  5
48
330
17
100
AcDbEntity
  8
СПИРЕЯ ВАНГУТТА
100
AcDbPoint
 10
54.94561504950345
 20
4.59961222902127
 30
0.0
  0
POINT
  5
49
330
17
100
AcDbEntity
  8
СПИРЕЯ ВАНГУТТА
100
AcDbPoint
 10
55.864853865045966
 20
5.518851044563781
 30
0.0
  0
POINT
  5
4A
330
17
100
AcDbEntity
  8
СПИРЕЯ ВАНГУТТА
100
AcDbPoint
 10
56.78409268058847
 20
6.438089860106287
 30
0.0
  0
POINT
  5
4B
330
17
100
AcDbEntity
  8
СПИРЕЯ ВАНГУТТА
100
AcDbPoint
 10
57.70333149613098
 20
7.357328675648794
 30
0.0
  0
POINT
  5
4C
330
17
100
AcDbEntity
  8
СПИРЕЯ ВАНГУТТА
100
AcDbPoint
 10
60.46104794275851
 20
10.115045122276328
 30
0.0
  0
POINT
  5
4D
330
17
100
AcDbEntity
  8
СПИРЕЯ ВАНГУТТА
100
AcDbPoint
 10
61.380286758301025
 20
11.034283937818842
 30
0.0
  0
POINT
  5
4E
330
17
100
AcDbEntity
  8
СПИРЕЯ ВАНГУТТА
100
AcDbPoint
 10
62.29952557384353
 20
11.953522753361348
 30
0.0
  0
POINT
  5
4F
330
17
100
AcDbEntity
  8
СПИРЕЯ ВАНГУТТА
100
AcDbPoint
 10
63.21876438938604
 20
12.872761568903854
 30
0.0
  0
POINT
  5
50
330
17
100
AcDbEntity
  8
СПИРЕЯ ВАНГУТТА
100
AcDbPoint
 10
49.9605122421383
 20
1.311565696503829
 30
0.0
  0
POINT
  5
51
330
17
100
AcDbEntity
  8
СПИРЕЯ ВАНГУТТА
100
AcDbPoint
 10
50.879751057680814
 20
2.230804512046338
 30
0.0
  0
POINT
  5
52
330
17
100
AcDbEntity
  8
СПИРЕЯ ВАНГУТТА
100
AcDbPoint
 10
51.79898987322331
 20
3.1500433275888433
 30
0.0
  0
POINT
  5
53
330
17
100
AcDbEntity
  8
СПИРЕЯ ВАНГУТТА
100
AcDbPoint
 10
52.71822868876583
 20
4.069282143131355
 30
0.0
  0
POINT
  5
54
330
17
100
AcDbEntity
  8
СПИРЕЯ ВАНГУТТА
100
AcDbPoint
 10
53.63746750430834
 20
4.988520958673869
 30
0.0
  0
POINT
  5
55
330
17
100
AcDbEntity
  8
СПИРЕЯ ВАНГУТТА
100
AcDbPoint
 10
54.556706319850846
 20
5.907759774216373
 30
0.0
  0
POINT
  5
56
330
17
100
AcDbEntity
  8
СПИРЕЯ ВАНГУТТА
100
AcDbPoint
 10
55.47594513539335
 20
6.8269985897588805
 30
0.0
  0
POINT
  5
57
330
17
100
AcDbEntity
  8
СПИРЕЯ ВАНГУТТА
100
AcDbPoint
 10
56.395183950935866
 20
7.746237405301394
 30
0.0
  0
POINT
  5
58
330
17
100
AcDbEntity
  8
СПИРЕЯ ВАНГУТТА
100
AcDbPoint
 10
57.31442276647838
 20
8.665476220843907
 30
0.0
  0
POINT
  5
59
330
17
100
AcDbEntity
  8
СПИРЕЯ ВАНГУТТА
100
AcDbPoint
 10
60.072139213105906
 20
11.423192667471433
 30
0.0
  0
POINT
  5
5A
330
17
100
AcDbEntity
  8
СПИРЕЯ ВАНГУТТА
100
AcDbPoint
 10
60.99137802864842
 20
12.342431483013947
 30
0.0
  0
POINT
  5
5B
330
17
100
AcDbEntity
  8
СПИРЕЯ ВАНГУТТА
100
AcDbPoint
 10
61.910616844190926
 20
13.261670298556453
 30
0.0
  0
POINT
  5
5C
330
17
100
AcDbEntity
  8
СПИРЕЯ ВАНГУТТА
100
AcDbPoint
 10
62.82985565973344
 20
14.180909114098966
 30
0.0
  0
POINT
  5
5E
330
17
100
AcDbEntity
  8
ДЕРЕН КРОВАВО-КРАСНЫЙ
100
AcDbPoint
 10
41.722718241315036
 20
1.276210357444517
 30
0.0
  0
POINT
  5
5F
330
17
100
AcDbEntity
  8
ДЕРЕН КРОВАВО-КРАСНЫЙ
100
AcDbPoint
 10
42.64195705685754
 20
2.195449172987021
 30
0.0
  0
POINT
  5
60
330
17
100
AcDbEntity
  8
ДЕРЕН КРОВАВО-КРАСНЫЙ
100
AcDbPoint
 10
43.561195872400056
 20
3.1146879885295338
 30
0.0
  0
POINT
  5
61
330
17
100
AcDbEntity
  8
ДЕРЕН КРОВАВО-КРАСНЫЙ
100
AcDbPoint
 10
44.48043468794257
 20
4.033926804072045
 30
0.0
  0
POINT
  5
62
330
17
100
AcDbEntity
  8
ДЕРЕН КРОВАВО-КРАСНЫЙ
100
AcDbPoint
 10
45.39967350348507
 20
4.953165619614552
 30
0.0
  0
POINT
  5
63
330
17
100
AcDbEntity
  8
ДЕРЕН КРОВАВО-КРАСНЫЙ
100
AcDbPoint
 10
46.31891231902758
 20
5.872404435157064
 30
0.0
  0
POINT
  5
64
330
17
100
AcDbEntity
  8
ДЕРЕН КРОВАВО-КРАСНЫЙ
100
AcDbPoint
 10
47.238151134570096
 20
6.791643250699573
 30
0.0
  0
POINT
  5
65
330
17
100
AcDbEntity
  8
ДЕРЕН КРОВАВО-КРАСНЫЙ
100
AcDbPoint
 10
48.1573899501126
 20
7.710882066242083
 30
0.0
  0
POINT
  5
66
330
17
100
AcDbEntity
  8
ДЕРЕН КРОВАВО-КРАСНЫЙ
100
AcDbPoint
 10
49.07662876565511
 20
8.630120881784592
 30
0.0
  0
POINT
  5
67
330
17
100
AcDbEntity
  8
ДЕРЕН КРОВАВО-КРАСНЫЙ
100
AcDbPoint
 10
49.99586758119762
 20
9.549359697327104
 30
0.0
  0
POINT
  5
68
330
17
100
AcDbEntity
  8
ДЕРЕН КРОВАВО-КРАСНЫЙ
100
AcDbPoint
 10
50.915106396740136
 20
10.468598512869615
 30
0.0
  0
POINT
  5
69
330
17
100
AcDbEntity
  8
ДЕРЕН КРОВАВО-КРАСНЫЙ
100
AcDbPoint
 10
51.83434521228264
 20
11.387837328412122
 30
0.0
  0
POINT
  5
6A
330
17
100
AcDbEntity
  8
ДЕРЕН КРОВАВО-КРАСНЫЙ
100
AcDbPoint
 10
52.75358402782515
 20
12.307076143954628
 30
0.0
  0
POINT
  5
6B
330
17
100
AcDbEntity
  8
ДЕРЕН КРОВАВО-КРАСНЫЙ
100
AcDbPoint
 10
53.67282284336766
 20
13.226314959497142
 30
0.0
  0
POINT
  5
6C
330
17
100
AcDbEntity
  8
ДЕРЕН КРОВАВО-КРАСНЫЙ
100
AcDbPoint
 10
54.592061658910175
 20
14.145553775039655
 30
0.0
  0
POINT
  5
6D
330
17
100
AcDbEntity
  8
ДЕРЕН КРОВАВО-КРАСНЫЙ
100
AcDbPoint
 10
55.51130047445268
 20
15.064792590582162
 30
0.0
  0
POINT
  5
6E
330
17
100
AcDbEntity
  8
ДЕРЕН КРОВАВО-КРАСНЫЙ
100
AcDbPoint
 10
56.430539289995195
 20
15.984031406124675
 30
0.0
  0
POINT
  5
6F
330
17
100
AcDbEntity
  8
ДЕРЕН КРОВАВО-КРАСНЫЙ
100
AcDbPoint
 10
57.3497781055377
 20
16.90327022166718
 30
0.0
  0
POINT
  5
70
330
17
100
AcDbEntity
  8
ДЕРЕН КРОВАВО-КРАСНЫЙ
100
AcDbPoint
 10
60.107494552165235
 20
19.660986668294715
 30
0.0
  0
POINT
  5
71
330
17
100
AcDbEntity
  8
ДЕРЕН КРОВАВО-КРАСНЫЙ
100
AcDbPoint
 10
61.02673336770774
 20
20.58022548383722
 30
0.0
  0
POINT
  5
72
330
17
100
AcDbEntity
  8
ДЕРЕН КРОВАВО-КРАСНЫЙ
100
AcDbPoint
 10
61.94597218325025
 20
21.499464299379728
 30
0.0
  0
POINT
  5
73
330
17
100
AcDbEntity
  8
ДЕРЕН КРОВАВО-КРАСНЫЙ
100
AcDbPoint
 10
62.865210998792755
 20
22.418703114922234
 30
0.0
  0
POINT
  5
74
330
17
100
AcDbEntity
  8
ДЕРЕН КРОВАВО-КРАСНЫЙ
100
AcDbPoint
 10
39.49533188057741
 20
0.7458802715546005
 30
0.0
  0
POINT
  5
75
330
17
100
AcDbEntity
  8
ДЕРЕН КРОВАВО-КРАСНЫЙ
100
AcDbPoint
 10
40.41457069611992
 20
1.6651190870971115
 30
0.0
  0
POINT
  5
76
330
17
100
AcDbEntity
  8
ДЕРЕН КРОВАВО-КРАСНЫЙ
100
AcDbPoint
 10
41.33380951166243
 20
2.5843579026396237
 30
0.0
  0
POINT
  5
77
330
17
100
AcDbEntity
  8
ДЕРЕН КРОВАВО-КРАСНЫЙ
100
AcDbPoint
 10
42.253048327204944
 20
3.5035967181821306
 30
0.0
  0
POINT
  5
78
330
17
100
AcDbEntity
  8
ДЕРЕН КРОВАВО-КРАСНЫЙ
100
AcDbPoint
 10
43.17228714274745
 20
4.42283553372464
 30
0.0
  0
POINT
  5
79
330
17
100
AcDbEntity
  8
ДЕРЕН КРОВАВО-КРАСНЫЙ
100
AcDbPoint
 10
44.09152595828996
 20
5.342074349267148
 30
0.0
  0
POINT
  5
7A
330
17
100
AcDbEntity
  8
ДЕРЕН КРОВАВО-КРАСНЫЙ
100
AcDbPoint
 10
45.01076477383247
 20
6.261313164809662
 30
0.0
  0
POINT
  5
7B
330
17
100
AcDbEntity
  8
ДЕРЕН КРОВАВО-КРАСНЫЙ
100
AcDbPoint
 10
45.930003589374984
 20
7.180551980352171
 30
0.0
  0
POINT
  5
7C
330
17
100
AcDbEntity
  8
ДЕРЕН КРОВАВО-КРАСНЫЙ
100
AcDbPoint
 10
46.84924240491748
 20
8.099790795894677
 30
0.0
  0
POINT
  5
7D
330
17
100
AcDbEntity
  8
ДЕРЕН КРОВАВО-КРАСНЫЙ
100
AcDbPoint
 10
47.76848122046
 20
9.019029611437189
 30
0.0
  0
POINT
  5
7E
330
17
100
AcDbEntity
  8
ДЕРЕН КРОВАВО-КРАСНЫЙ
100
AcDbPoint
 10
48.68772003600251
 20
9.938268426979702
 30
0.0
  0
POINT
  5
7F
330
17
100
AcDbEntity
  8
ДЕРЕН КРОВАВО-КРАСНЫЙ
100
AcDbPoint
 10
49.606958851545016
 20
10.857507242522207
 30
0.0
  0
POINT
  5
80
330
17
100
AcDbEntity
  8
ДЕРЕН КРОВАВО-КРАСНЫЙ
100
AcDbPoint
 10
50.52619766708752
 20
11.776746058064713
 30
0.0
  0
POINT
  5
81
330
17
100
AcDbEntity
  8
ДЕРЕН КРОВАВО-КРАСНЫЙ
100
AcDbPoint
 10
51.445436482630036
 20
12.695984873607227
 30
0.0
  0
POINT
  5
82
330
17
100
AcDbEntity
  8
ДЕРЕН КРОВАВО-КРАСНЫЙ
100
AcDbPoint
 10
52.36467529817255
 20
13.61522368914974
 30
0.0
  0
POINT
  5
83
330
17
100
AcDbEntity
  8
ДЕРЕН КРОВАВО-КРАСНЫЙ
100
AcDbPoint
 10
53.283914113715056
 20
14.534462504692247
 30
0.0
  0
POINT
  5
84
330
17
100
AcDbEntity
  8
ДЕРЕН КРОВАВО-КРАСНЫЙ
100
AcDbPoint
 10
54.20315292925756
 20
15.453701320234753
 30
0.0
  0
POINT
  5
85
330
17
100
AcDbEntity
  8
ДЕРЕН КРОВАВО-КРАСНЫЙ
100
AcDbPoint
 10
55.122391744800076
 20
16.372940135777267
 30
0.0
  0
POINT
  5
86
330
17
100
AcDbEntity
  8
ДЕРЕН КРОВАВО-КРАСНЫЙ
100
AcDbPoint
 10
56.04163056034259
 20
17.29217895131978
 30
0.0
  0
POINT
  5
87
330
17
100
AcDbEntity
  8
ДЕРЕН КРОВАВО-КРАСНЫЙ
100
AcDbPoint
 10
56.960869375885096
 20
18.211417766862287
 30
0.0
  0
POINT
  5
88
330
17
100
AcDbEntity
  8
ДЕРЕН КРОВАВО-КРАСНЫЙ
100
AcDbPoint
 10
57.88010819142761
 20
19.1306565824048
 30
0.0
  0
POINT
  5
89
330
17
100
AcDbEntity
  8
ДЕРЕН КРОВАВО-КРАСНЫЙ
100
AcDbPoint
 10
59.71858582251262
 20
20.969134213489813
 30
0.0
  0
POINT
  5
8A
330
17
100
AcDbEntity
  8
ДЕРЕН КРОВАВО-КРАСНЫЙ
100
AcDbPoint
 10
60.637824638055136
 20
21.888373029032326
 30
0.0
  0
POINT
  5
8B
330
17
100
AcDbEntity
  8
ДЕРЕН КРОВАВО-КРАСНЫЙ
100
AcDbPoint
 10
61.55706345359764
 20
22.807611844574833
 30
0.0
  0
POINT
  5
8C
330
17
100
AcDbEntity
  8
ДЕРЕН КРОВАВО-КРАСНЫЙ
100
AcDbPoint
 10
62.476302269140156
 20
23.726850660117346
 30
0.0
  0
POINT
  5
8D
330
17
100
AcDbEntity
  8
ДЕРЕН КРОВАВО-КРАСНЫЙ
100
AcDbPoint
 10
63.39554108468266
 20
24.646089475659853
 30
0.0
  0
POINT
  5
8E
330
17
100
AcDbEntity
  8
СИРЕНЬ ОБЫКНОВЕННАЯ
100
AcDbPoint
 10
31.257537879754125
 20
0.7105249324952744
 30
0.0
  0
POINT
  5
8F
330
17
100
AcDbEntity
  8
СИРЕНЬ ОБЫКНОВЕННАЯ
100
AcDbPoint
 10
32.17677669529664
 20
1.6297637480377853
 30
0.0
  0
POINT
  5
90
330
17
100
AcDbEntity
  8
СИРЕНЬ ОБЫКНОВЕННАЯ
100
AcDbPoint
 10
33.096015510839145
 20
2.5490025635802986
 30
0.0
  0
POINT
  5
91
330
17
100
AcDbEntity
  8
СИРЕНЬ ОБЫКНОВЕННАЯ
100
AcDbPoint
 10
34.01525432638166
 20
3.468241379122812
 30
0.0
  0
POINT
  5
92
330
17
100
AcDbEntity
  8
СИРЕНЬ ОБЫКНОВЕННАЯ
100
AcDbPoint
 10
34.93449314192417
 20
4.38748019466532
 30
0.0
  0
POINT
  5
93
330
17
100
AcDbEntity
  8
СИРЕНЬ ОБЫКНОВЕННАЯ
100
AcDbPoint
 10
35.853731957466685
 20
5.306719010207833
 30
0.0
  0
POINT
  5
94
330
17
100
AcDbEntity
  8
СИРЕНЬ ОБЫКНОВЕННАЯ
100
AcDbPoint
 10
36.7729707730092
 20
6.2259578257503465
 30
0.0
  0
POINT
  5
95
330
17
100
AcDbEntity
  8
СИРЕНЬ ОБЫКНОВЕННАЯ
100
AcDbPoint
 10
37.692209588551705
 20
7.145196641292855
 30
0.0
  0
POINT
  5
96
330
17
100
AcDbEntity
  8
СИРЕНЬ ОБЫКНОВЕННАЯ
100
AcDbPoint
 10
38.61144840409422
 20
8.064435456835369
 30
0.0
  0
POINT
  5
97
330
17
100
AcDbEntity
  8
СИРЕНЬ ОБЫКНОВЕННАЯ
100
AcDbPoint
 10
39.530687219636725
 20
8.983674272377879
 30
0.0
  0
POINT
  5
98
330
17
100
AcDbEntity
  8
СИРЕНЬ ОБЫКНОВЕННАЯ
100
AcDbPoint
 10
40.44992603517924
 20
9.902913087920384
 30
0.0
  0
POINT
  5
99
330
17
100
AcDbEntity
  8
СИРЕНЬ ОБЫКНОВЕННАЯ
100
AcDbPoint
 10
41.36916485072175
 20
10.822151903462899
 30
0.0
  0
POINT
  5
9A
330
17
100
AcDbEntity
  8
СИРЕНЬ ОБЫКНОВЕННАЯ
100
AcDbPoint
 10
42.28840366626426
 20
11.74139071900541
 30
0.0
  0
POINT
  5
9B
330
17
100
AcDbEntity
  8
СИРЕНЬ ОБЫКНОВЕННАЯ
100
AcDbPoint
 10
43.207642481806765
 20
12.660629534547912
 30
0.0
  0
POINT
  5
9C
330
17
100
AcDbEntity
  8
СИРЕНЬ ОБЫКНОВЕННАЯ
100
AcDbPoint
 10
44.12688129734928
 20
13.579868350090424
 30
0.0
  0
POINT
  5
9D
330
17
100
AcDbEntity
  8
СИРЕНЬ ОБЫКНОВЕННАЯ
100
AcDbPoint
 10
45.04612011289179
 20
14.499107165632939
 30
0.0
  0
POINT
  5
9E
330
17
100
AcDbEntity
  8
СИРЕНЬ ОБЫКНОВЕННАЯ
100
AcDbPoint
 10
45.9653589284343
 20
15.418345981175449
 30
0.0
  0
POINT
  5
9F
330
17
100
AcDbEntity
  8
СИРЕНЬ ОБЫКНОВЕННАЯ
100
AcDbPoint
 10
46.884597743976805
 20
16.337584796717955
 30
0.0
  0
POINT
  5
A0
330
17
100
AcDbEntity
  8
СИРЕНЬ ОБЫКНОВЕННАЯ
100
AcDbPoint
 10
47.80383655951931
 20
17.25682361226046
 30
0.0
  0
POINT
  5
A1
330
17
100
AcDbEntity
  8
СИРЕНЬ ОБЫКНОВЕННАЯ
100
AcDbPoint
 10
48.723075375061825
 20
18.176062427802975
 30
0.0
  0
POINT
  5
A2
330
17
100
AcDbEntity
  8
СИРЕНЬ ОБЫКНОВЕННАЯ
100
AcDbPoint
 10
49.64231419060434
 20
19.09530124334549
 30
0.0
  0
POINT
  5
A3
330
17
100
AcDbEntity
  8
СИРЕНЬ ОБЫКНОВЕННАЯ
100
AcDbPoint
 10
50.561553006146845
 20
20.014540058887995
 30
0.0
  0
POINT
  5
A4
330
17
100
AcDbEntity
  8
СИРЕНЬ ОБЫКНОВЕННАЯ
100
AcDbPoint
 10
51.48079182168936
 20
20.93377887443051
 30
0.0
  0
POINT
  5
A5
330
17
100
AcDbEntity
  8
СИРЕНЬ ОБЫКНОВЕННАЯ
100
AcDbPoint
 10
52.400030637231865
 20
21.853017689973015
 30
0.0
  0
POINT
  5
A6
330
17
100
AcDbEntity
  8
СИРЕНЬ ОБЫКНОВЕННАЯ
100
AcDbPoint
 10
53.31926945277437
 20
22.77225650551552
 30
0.0
  0
POINT
  5
A7
330
17
100
AcDbEntity
  8
СИРЕНЬ ОБЫКНОВЕННАЯ
100
AcDbPoint
 10
54.238508268316885
 20
23.691495321058035
 30
0.0
  0
POINT
  5
A8
330
17
100
AcDbEntity
  8
СИРЕНЬ ОБЫКНОВЕННАЯ
100
AcDbPoint
 10
55.1577470838594
 20
24.61073413660055
 30
0.0
  0
POINT
  5
A9
330
17
100
AcDbEntity
  8
СИРЕНЬ ОБЫКНОВЕННАЯ
100
AcDbPoint
 10
56.076985899401905
 20
25.529972952143055
 30
0.0
  0
POINT
  5
AA
330
17
100
AcDbEntity
  8
СИРЕНЬ ОБЫКНОВЕННАЯ
100
AcDbPoint
 10
56.99622471494441
 20
26.44921176768556
 30
0.0
  0
POINT
  5
AB
330
17
100
AcDbEntity
  8
СИРЕНЬ ОБЫКНОВЕННАЯ
100
AcDbPoint
 10
57.91546353048692
 20
27.368450583228068
 30
0.0
  0
POINT
  5
AC
330
17
100
AcDbEntity
  8
СИРЕНЬ ОБЫКНОВЕННАЯ
100
AcDbPoint
 10
59.753941161571944
 20
29.206928214313095
 30
0.0
  0
POINT
  5
AD
330
17
100
AcDbEntity
  8
СИРЕНЬ ОБЫКНОВЕННАЯ
100
AcDbPoint
 10
60.67317997711446
 20
30.12616702985561
 30
0.0
  0
POINT
  5
AE
330
17
100
AcDbEntity
  8
СИРЕНЬ ОБЫКНОВЕННАЯ
100
AcDbPoint
 10
61.59241879265697
 20
31.045405845398122
 30
0.0
  0
POINT
  5
AF
330
17
100
AcDbEntity
  8
СИРЕНЬ ОБЫКНОВЕННАЯ
100
AcDbPoint
 10
62.51165760819947
 20
31.96464466094062
 30
0.0
  0
POINT
  5
B0
330
17
100
AcDbEntity
  8
СИРЕНЬ ОБЫКНОВЕННАЯ
100
AcDbPoint
 10
63.430896423741984
 20
32.883883476483135
 30
0.0
  0
POINT
  5
B1
330
17
100
AcDbEntity
  8
СИРЕНЬ ОБЫКНОВЕННАЯ
100
AcDbPoint
 10
29.949390334559013
 20
1.0994336621478746
 30
0.0
  0
POINT
  5
B2
330
17
100
AcDbEntity
  8
СИРЕНЬ ОБЫКНОВЕННАЯ
100
AcDbPoint
 10
30.868629150101526
 20
2.018672477690388
 30
0.0
  0
POINT
  5
B3
330
17
100
AcDbEntity
  8
СИРЕНЬ ОБЫКНОВЕННАЯ
100
AcDbPoint
 10
31.787867965644033
 20
2.937911293232898
 30
0.0
  0
POINT
  5
B4
330
17
100
AcDbEntity
  8
СИРЕНЬ ОБЫКНОВЕННАЯ
100
AcDbPoint
 10
32.707106781186546
 20
3.8571501087754116
 30
0.0
  0
POINT
  5
B5
330
17
100
AcDbEntity
  8
СИРЕНЬ ОБЫКНОВЕННАЯ
100
AcDbPoint
 10
33.62634559672906
 20
4.776388924317926
 30
0.0
  0
POINT
  5
B6
330
17
100
AcDbEntity
  8
СИРЕНЬ ОБЫКНОВЕННАЯ
100
AcDbPoint
 10
34.54558441227157
 20
5.695627739860436
 30
0.0
  0
POINT
  5
B7
330
17
100
AcDbEntity
  8
СИРЕНЬ ОБЫКНОВЕННАЯ
100
AcDbPoint
 10
35.46482322781409
 20
6.614866555402945
 30
0.0
  0
POINT
  5
B8
330
17
100
AcDbEntity
  8
СИРЕНЬ ОБЫКНОВЕННАЯ
100
AcDbPoint
 10
36.38406204335659
 20
7.534105370945453
 30
0.0
  0
POINT
  5
B9
330
17
100
AcDbEntity
  8
СИРЕНЬ ОБЫКНОВЕННАЯ
100
AcDbPoint
 10
37.3033008588991
 20
8.453344186487966
 30
0.0
  0
POINT
  5
BA
330
17
100
AcDbEntity
  8
СИРЕНЬ ОБЫКНОВЕННАЯ
100
AcDbPoint
 10
38.22253967444161
 20
9.372583002030478
 30
0.0
  0
POINT
  5
BB
330
17
100
AcDbEntity
  8
СИРЕНЬ ОБЫКНОВЕННАЯ
100
AcDbPoint
 10
39.14177848998412
 20
10.29182181757298
 30
0.0
  0
POINT
  5
BC
330
17
100
AcDbEntity
  8
СИРЕНЬ ОБЫКНОВЕННАЯ
100
AcDbPoint
 10
40.06101730552663
 20
11.211060633115494
 30
0.0
  0
POINT
  5
BD
330
17
100
AcDbEntity
  8
СИРЕНЬ ОБЫКНОВЕННАЯ
100
AcDbPoint
 10
40.98025612106914
 20
12.130299448658004
 30
0.0
  0
POINT
  5
BE
330
17
100
AcDbEntity
  8
СИРЕНЬ ОБЫКНОВЕННАЯ
100
AcDbPoint
 10
41.89949493661165
 20
13.049538264200512
 30
0.0
  0
POINT
  5
BF
330
17
100
AcDbEntity
  8
СИРЕНЬ ОБЫКНОВЕННАЯ
100
AcDbPoint
 10
42.81873375215416
 20
13.96877707974302
 30
0.0
  0
POINT
  5
C0
330
17
100
AcDbEntity
  8
СИРЕНЬ ОБЫКНОВЕННАЯ
100
AcDbPoint
 10
43.73797256769667
 20
14.888015895285534
 30
0.0
  0
POINT
  5
C1
330
17
100
AcDbEntity
  8
СИРЕНЬ ОБЫКНОВЕННАЯ
100
AcDbPoint
 10
44.65721138323918
 20
15.807254710828042
 30
0.0
  0
POINT
  5
C2
330
17
100
AcDbEntity
  8
СИРЕНЬ ОБЫКНОВЕННАЯ
100
AcDbPoint
 10
45.576450198781686
 20
16.726493526370547
 30
0.0
  0
POINT
  5
C3
330
17
100
AcDbEntity
  8
СИРЕНЬ ОБЫКНОВЕННАЯ
100
AcDbPoint
 10
46.4956890143242
 20
17.64573234191306
 30
0.0
  0
POINT
  5
C4
330
17
100
AcDbEntity
  8
СИРЕНЬ ОБЫКНОВЕННАЯ
100
AcDbPoint
 10
47.41492782986671
 20
18.564971157455574
 30
0.0
  0
POINT
  5
C5
330
17
100
AcDbEntity
  8
СИРЕНЬ ОБЫКНОВЕННАЯ
100
AcDbPoint
 10
48.33416664540922
 20
19.48420997299808
 30
0.0
  0
POINT
  5
C6
330
17
100
AcDbEntity
  8
СИРЕНЬ ОБЫКНОВЕННАЯ
100
AcDbPoint
 10
49.253405460951726
 20
20.403448788540587
 30
0.0
  0
POINT
  5
C7
330
17
100
AcDbEntity
  8
СИРЕНЬ ОБЫКНОВЕННАЯ
100
AcDbPoint
 10
50.17264427649424
 20
21.3226876040831
 30
0.0
  0
POINT
  5
C8
330
17
100
AcDbEntity
  8
СИРЕНЬ ОБЫКНОВЕННАЯ
100
AcDbPoint
 10
51.09188309203675
 20
22.241926419625614
 30
0.0
  0
POINT
  5
C9
330
17
100
AcDbEntity
  8
СИРЕНЬ ОБЫКНОВЕННАЯ
100
AcDbPoint
 10
52.01112190757926
 20
23.16116523516812
 30
0.0
  0
POINT
  5
CA
330
17
100
AcDbEntity
  8
СИРЕНЬ ОБЫКНОВЕННАЯ
100
AcDbPoint
 10
52.93036072312177
 20
24.080404050710634
 30
0.0
  0
POINT
  5
CB
330
17
100
AcDbEntity
  8
СИРЕНЬ ОБЫКНОВЕННАЯ
100
AcDbPoint
 10
53.84959953866428
 20
24.99964286625314
 30
0.0
  0
POINT
  5
CC
330
17
100
AcDbEntity
  8
СИРЕНЬ ОБЫКНОВЕННАЯ
100
AcDbPoint
 10
54.768838354206785
 20
25.918881681795646
 30
0.0
  0
POINT
  5
CD
330
17
100
AcDbEntity
  8
СИРЕНЬ ОБЫКНОВЕННАЯ
100
AcDbPoint
 10
55.6880771697493
 20
26.83812049733816
 30
0.0
  0
POINT
  5
CE
330
17
100
AcDbEntity
  8
СИРЕНЬ ОБЫКНОВЕННАЯ
100
AcDbPoint
 10
56.607315985291805
 20
27.757359312880666
 30
0.0
  0
POINT
  5
CF
330
17
100
AcDbEntity
  8
СИРЕНЬ ОБЫКНОВЕННАЯ
100
AcDbPoint
 10
57.52655480083432
 20
28.67659812842318
 30
0.0
  0
POINT
  5
D0
330
17
100
AcDbEntity
  8
СИРЕНЬ ОБЫКНОВЕННАЯ
100
AcDbPoint
 10
60.28427124746185
 20
31.434314575050713
 30
0.0
  0
POINT
  5
D1
330
17
100
AcDbEntity
  8
СИРЕНЬ ОБЫКНОВЕННАЯ
100
AcDbPoint
 10
61.20351006300436
 20
32.35355339059322
 30
0.0
  0
POINT
  5
D2
330
17
100
AcDbEntity
  8
СИРЕНЬ ОБЫКНОВЕННАЯ
100
AcDbPoint
 10
62.12274887854687
 20
33.27279220613573
 30
0.0
  0
POINT
  5
D3
330
17
100
AcDbEntity
  8
СИРЕНЬ ОБЫКНОВЕННАЯ
100
AcDbPoint
 10
63.041987694089386
 20
34.19203102167825
 30
0.0
  0
POINT
  5
D4
330
17
100
AcDbEntity
  8
СПИРЕЯ ВАНГУТТА
100
AcDbPoint
 10
21.711596333735734
 20
1.0640783230885433
 30
0.0
  0
POINT
  5
D5
330
17
100
AcDbEntity
  8
СПИРЕЯ ВАНГУТТА
100
AcDbPoint
 10
22.630835149278248
 20
1.9833171386310555
 30
0.0
  0
POINT
  5
D6
330
17
100
AcDbEntity
  8
СПИРЕЯ ВАНГУТТА
100
AcDbPoint
 10
23.550073964820758
 20
2.9025559541735673
 30
0.0
  0
POINT
  5
D7
330
17
100
AcDbEntity
  8
СПИРЕЯ ВАНГУТТА
100
AcDbPoint
 10
24.46931278036327
 20
3.8217947697160812
 30
0.0
  0
POINT
  5
D8
330
17
100
AcDbEntity
  8
СПИРЕЯ ВАНГУТТА
100
AcDbPoint
 10
25.38855159590578
 20
4.741033585258591
 30
0.0
  0
POINT
  5
D9
330
17
100
AcDbEntity
  8
СПИРЕЯ ВАНГУТТА
100
AcDbPoint
 10
26.307790411448295
 20
5.660272400801104
 30
0.0
  0
POINT
  5
DA
330
17
100
AcDbEntity
  8
СПИРЕЯ ВАНГУТТА
100
AcDbPoint
 10
27.227029226990805
 20
6.579511216343614
 30
0.0
  0
POINT
  5
DB
330
17
100
AcDbEntity
  8
СПИРЕЯ ВАНГУТТА
100
AcDbPoint
 10
28.14626804253332
 20
7.498750031886128
 30
0.0
  0
POINT
  5
DC
330
17
100
AcDbEntity
  8
СПИРЕЯ ВАНГУТТА
100
AcDbPoint
 10
29.065506858075832
 20
8.417988847428642
 30
0.0
  0
POINT
  5
DD
330
17
100
AcDbEntity
  8
СПИРЕЯ ВАНГУТТА
100
AcDbPoint
 10
29.98474567361834
 20
9.337227662971152
 30
0.0
  0
POINT
  5
DE
330
17
100
AcDbEntity
  8
СПИРЕЯ ВАНГУТТА
100
AcDbPoint
 10
30.903984489160855
 20
10.256466478513666
 30
0.0
  0
POINT
  5
DF
330
17
100
AcDbEntity
  8
СПИРЕЯ ВАНГУТТА
100
AcDbPoint
 10
31.82322330470337
 20
11.17570529405618
 30
0.0
  0
POINT
  5
E0
330
17
100
AcDbEntity
  8
СПИРЕЯ ВАНГУТТА
100
AcDbPoint
 10
32.742462120245875
 20
12.094944109598686
 30
0.0
  0
POINT
  5
E1
330
17
100
AcDbEntity
  8
СПИРЕЯ ВАНГУТТА
100
AcDbPoint
 10
33.66170093578839
 20
13.0141829251412
 30
0.0
  0
POINT
  5
E2
330
17
100
AcDbEntity
  8
СПИРЕЯ ВАНГУТТА
100
AcDbPoint
 10
34.580939751330895
 20
13.933421740683709
 30
0.0
  0
POINT
  5
E3
330
17
100
AcDbEntity
  8
СПИРЕЯ ВАНГУТТА
100
AcDbPoint
 10
35.50017856687341
 20
14.852660556226214
 30
0.0
  0
POINT
  5
E4
330
17
100
AcDbEntity
  8
СПИРЕЯ ВАНГУТТА
100
AcDbPoint
 10
36.41941738241592
 20
15.771899371768729
 30
0.0
  0
POINT
  5
E5
330
17
100
AcDbEntity
  8
СПИРЕЯ ВАНГУТТА
100
AcDbPoint
 10
37.33865619795843
 20
16.69113818731124
 30
0.0
  0
POINT
  5
E6
330
17
100
AcDbEntity
  8
СПИРЕЯ ВАНГУТТА
100
AcDbPoint
 10
38.257895013500935
 20
17.610377002853742
 30
0.0
  0
POINT
  5
E7
330
17
100
AcDbEntity
  8
СПИРЕЯ ВАНГУТТА
100
AcDbPoint
 10
39.17713382904345
 20
18.529615818396252
 30
0.0
  0
POINT
  5
E8
330
17
100
AcDbEntity
  8
СПИРЕЯ ВАНГУТТА
100
AcDbPoint
 10
40.09637264458596
 20
19.44885463393877
 30
0.0
  0
POINT
  5
E9
330
17
100
AcDbEntity
  8
СПИРЕЯ ВАНГУТТА
100
AcDbPoint
 10
41.01561146012847
 20
20.36809344948128
 30
0.0
  0
POINT
  5
EA
330
17
100
AcDbEntity
  8
СПИРЕЯ ВАНГУТТА
100
AcDbPoint
 10
41.934850275670975
 20
21.287332265023785
 30
0.0
  0
POINT
  5
EB
330
17
100
AcDbEntity
  8
СПИРЕЯ ВАНГУТТА
100
AcDbPoint
 10
42.85408909121348
 20
22.20657108056629
 30
0.0
  0
POINT
  5
EC
330
17
100
AcDbEntity
  8
СПИРЕЯ ВАНГУТТА
100
AcDbPoint
 10
43.773327906755995
 20
23.125809896108805
 30
0.0
  0
POINT
  5
ED
330
17
100
AcDbEntity
  8
СПИРЕЯ ВАНГУТТА
100
AcDbPoint
 10
44.69256672229851
 20
24.04504871165132
 30
0.0
  0
POINT
  5
EE
330
17
100
AcDbEntity
  8
СПИРЕЯ ВАНГУТТА
100
AcDbPoint
 10
45.611805537841015
 20
24.964287527193825
 30
0.0
  0
POINT
  5
EF
330
17
100
AcDbEntity
  8
СПИРЕЯ ВАНГУТТА
100
AcDbPoint
 10
46.53104435338353
 20
25.88352634273634
 30
0.0
  0
POINT
  5
F0
330
17
100
AcDbEntity
  8
СПИРЕЯ ВАНГУТТА
100
AcDbPoint
 10
47.450283168926035
 20
26.802765158278845
 30
0.0
  0
POINT
  5
F1
330
17
100
AcDbEntity
  8
СПИРЕЯ ВАНГУТТА
100
AcDbPoint
 10
48.36952198446854
 20
27.72200397382135
 30
0.0
  0
POINT
  5
F2
330
17
100
AcDbEntity
  8
СПИРЕЯ ВАНГУТТА
100
AcDbPoint
 10
49.288760800011055
 20
28.641242789363865
 30
0.0
  0
POINT
  5
F3
330
17
100
AcDbEntity
  8
СПИРЕЯ ВАНГУТТА
100
AcDbPoint
 10
50.20799961555357
 20
29.56048160490638
 30
0.0
  0
POINT
  5
F4
330
17
100
AcDbEntity
  8
СПИРЕЯ ВАНГУТТА
100
AcDbPoint
 10
51.127238431096075
 20
30.479720420448885
 30
0.0
  0
POINT
  5
F5
330
17
100
AcDbEntity
  8
СПИРЕЯ ВАНГУТТА
100
AcDbPoint
 10
52.04647724663858
 20
31.39895923599139
 30
0.0
  0
POINT
  5
F6
330
17
100
AcDbEntity
  8
СПИРЕЯ ВАНГУТТА
100
AcDbPoint
 10
52.96571606218109
 20
32.3181980515339
 30
0.0
  0
POINT
  5
F7
330
17
100
AcDbEntity
  8
СПИРЕЯ ВАНГУТТА
100
AcDbPoint
 10
53.88495487772361
 20
33.23743686707642
 30
0.0
  0
POINT
  5
F8
330
17
100
AcDbEntity
  8
СПИРЕЯ ВАНГУТТА
100
AcDbPoint
 10
54.804193693266114
 20
34.156675682618925
 30
0.0
  0
POINT
  5
F9
330
17
100
AcDbEntity
  8
СПИРЕЯ ВАНГУТТА
100
AcDbPoint
 10
55.72343250880863
 20
35.07591449816144
 30
0.0
  0
POINT
  5
FA
330
17
100
AcDbEntity
  8
СПИРЕЯ ВАНГУТТА
100
AcDbPoint
 10
56.64267132435114
 20
35.99515331370395
 30
0.0
  0
POINT
  5
FB
330
17
100
AcDbEntity
  8
СПИРЕЯ ВАНГУТТА
100
AcDbPoint
 10
57.56191013989364
 20
36.91439212924645
 30
0.0
  0
POINT
  5
FC
330
17
100
AcDbEntity
  8
СПИРЕЯ ВАНГУТТА
100
AcDbPoint
 10
60.319626586521174
 20
39.672108575873985
 30
0.0
  0
POINT
  5
FD
330
17
100
AcDbEntity
  8
СПИРЕЯ ВАНГУТТА
100
AcDbPoint
 10
61.23886540206369
 20
40.5913473914165
 30
0.0
  0
POINT
  5
FE
330
17
100
AcDbEntity
  8
СПИРЕЯ ВАНГУТТА
100
AcDbPoint
 10
62.1581042176062
 20
41.51058620695901
 30
0.0
  0
POINT
  5
FF
330
17
100
AcDbEntity
  8
СПИРЕЯ ВАНГУТТА
100
AcDbPoint
 10
63.0773430331487
 20
42.42982502250151
 30
0.0
  0
POINT
  5
100
330
17
100
AcDbEntity
  8
СПИРЕЯ ВАНГУТТА
100
AcDbPoint
 10
19.48420997299811
 20
0.5337482371986306
 30
0.0
  0
POINT
  5
101
330
17
100
AcDbEntity
  8
СПИРЕЯ ВАНГУТТА
100
AcDbPoint
 10
20.403448788540622
 20
1.4529870527411428
 30
0.0
  0
POINT
  5
102
330
17
100
AcDbEntity
  8
СПИРЕЯ ВАНГУТТА
100
AcDbPoint
 10
21.322687604083132
 20
2.372225868283654
 30
0.0
  0
POINT
  5
103
330
17
100
AcDbEntity
  8
СПИРЕЯ ВАНГУТТА
100
AcDbPoint
 10
22.241926419625646
 20
3.2914646838261676
 30
0.0
  0
POINT
  5
104
330
17
100
AcDbEntity
  8
СПИРЕЯ ВАНГУТТА
100
AcDbPoint
 10
23.161165235168156
 20
4.210703499368679
 30
0.0
  0
POINT
  5
105
330
17
100
AcDbEntity
  8
СПИРЕЯ ВАНГУТТА
100
AcDbPoint
 10
24.08040405071067
 20
5.129942314911191
 30
0.0
  0
POINT
  5
106
330
17
100
AcDbEntity
  8
СПИРЕЯ ВАНГУТТА
100
AcDbPoint
 10
24.999642866253183
 20
6.049181130453705
 30
0.0
  0
POINT
  5
107
330
17
100
AcDbEntity
  8
СПИРЕЯ ВАНГУТТА
100
AcDbPoint
 10
25.918881681795696
 20
6.968419945996218
 30
0.0
  0
POINT
  5
108
330
17
100
AcDbEntity
  8
СПИРЕЯ ВАНГУТТА
100
AcDbPoint
 10
26.838120497338206
 20
7.887658761538728
 30
0.0
  0
POINT
  5
109
330
17
100
AcDbEntity
  8
СПИРЕЯ ВАНГУТТА
100
AcDbPoint
 10
27.75735931288072
 20
8.80689757708124
 30
0.0
  0
POINT
  5
10A
330
17
100
AcDbEntity
  8
СПИРЕЯ ВАНГУТТА
100
AcDbPoint
 10
28.676598128423233
 20
9.726136392623754
 30
0.0
  0
POINT
  5
10B
330
17
100
AcDbEntity
  8
СПИРЕЯ ВАНГУТТА
100
AcDbPoint
 10
29.595836943965743
 20
10.645375208166264
 30
0.0
  0
POINT
  5
10C
330
17
100
AcDbEntity
  8
СПИРЕЯ ВАНГУТТА
100
AcDbPoint
 10
30.515075759508253
 20
11.564614023708774
 30
0.0
  0
POINT
  5
10D
330
17
100
AcDbEntity
  8
СПИРЕЯ ВАНГУТТА
100
AcDbPoint
 10
31.43431457505076
 20
12.483852839251284
 30
0.0
  0
POINT
  5
10E
330
17
100
AcDbEntity
  8
СПИРЕЯ ВАНГУТТА
100
AcDbPoint
 10
32.35355339059327
 20
13.403091654793796
 30
0.0
  0
POINT
  5
10F
330
17
100
AcDbEntity
  8
СПИРЕЯ ВАНГУТТА
100
AcDbPoint
 10
33.27279220613578
 20
14.322330470336308
 30
0.0
  0
POINT
  5
110
330
17
100
AcDbEntity
  8
СПИРЕЯ ВАНГУТТА
100
AcDbPoint
 10
34.19203102167829
 20
15.24156928587881
 30
0.0
  0
POINT
  5
111
330
17
100
AcDbEntity
  8
СПИРЕЯ ВАНГУТТА
100
AcDbPoint
 10
35.1112698372208
 20
16.160808101421324
 30
0.0
  0
POINT
  5
112
330
17
100
AcDbEntity
  8
СПИРЕЯ ВАНГУТТА
100
AcDbPoint
 10
36.03050865276331
 20
17.080046916963834
 30
0.0
  0
POINT
  5
113
330
17
100
AcDbEntity
  8
СПИРЕЯ ВАНГУТТА
100
AcDbPoint
 10
36.94974746830582
 20
17.999285732506344
 30
0.0
  0
POINT
  5
114
330
17
100
AcDbEntity
  8
СПИРЕЯ ВАНГУТТА
100
AcDbPoint
 10
37.86898628384833
 20
18.91852454804885
 30
0.0
  0
POINT
  5
115
330
17
100
AcDbEntity
  8
СПИРЕЯ ВАНГУТТА
100
AcDbPoint
 10
38.78822509939084
 20
19.837763363591364
 30
0.0
  0
POINT
  5
116
330
17
100
AcDbEntity
  8
СПИРЕЯ ВАНГУТТА
100
AcDbPoint
 10
39.70746391493335
 20
20.757002179133874
 30
0.0
  0
POINT
  5
117
330
17
100
AcDbEntity
  8
СПИРЕЯ ВАНГУТТА
100
AcDbPoint
 10
40.626702730475856
 20
21.676240994676377
 30
0.0
  0
POINT
  5
118
330
17
100
AcDbEntity
  8
СПИРЕЯ ВАНГУТТА
100
AcDbPoint
 10
41.54594154601837
 20
22.59547981021889
 30
0.0
  0
POINT
  5
119
330
17
100
AcDbEntity
  8
СПИРЕЯ ВАНГУТТА
100
AcDbPoint
 10
42.46518036156088
 20
23.514718625761404
 30
0.0
  0
POINT
  5
11A
330
17
100
AcDbEntity
  8
СПИРЕЯ ВАНГУТТА
100
AcDbPoint
 10
43.38441917710339
 20
24.43395744130391
 30
0.0
  0
POINT
  5
11B
330
17
100
AcDbEntity
  8
СПИРЕЯ ВАНГУТТА
100
AcDbPoint
 10
44.303657992645896
 20
25.353196256846417
 30
0.0
  0
POINT
  5
11C
330
17
100
AcDbEntity
  8
СПИРЕЯ ВАНГУТТА
100
AcDbPoint
 10
45.22289680818841
 20
26.27243507238893
 30
0.0
  0
POINT
  5
11D
330
17
100
AcDbEntity
  8
СПИРЕЯ ВАНГУТТА
100
AcDbPoint
 10
46.14213562373092
 20
27.191673887931444
 30
0.0
  0
POINT
  5
11E
330
17
100
AcDbEntity
  8
СПИРЕЯ ВАНГУТТА
100
AcDbPoint
 10
47.06137443927343
 20
28.11091270347395
 30
0.0
  0
POINT
  5
11F
330
17
100
AcDbEntity
  8
СПИРЕЯ ВАНГУТТА
100
AcDbPoint
 10
47.98061325481594
 20
29.030151519016464
 30
0.0
  0
POINT
  5
120
330
17
100
AcDbEntity
  8
СПИРЕЯ ВАНГУТТА
100
AcDbPoint
 10
48.89985207035845
 20
29.94939033455897
 30
0.0
  0
POINT
  5
121
330
17
100
AcDbEntity
  8
СПИРЕЯ ВАНГУТТА
100
AcDbPoint
 10
49.819090885900955
 20
30.868629150101476
 30
0.0
  0
POINT
  5
122
330
17
100
AcDbEntity
  8
СПИРЕЯ ВАНГУТТА
100
AcDbPoint
 10
50.73832970144347
 20
31.78786796564399
 30
0.0
  0
POINT
  5
123
330
17
100
AcDbEntity
  8
СПИРЕЯ ВАНГУТТА
100
AcDbPoint
 10
51.657568516985975
 20
32.707106781186496
 30
0.0
  0
POINT
  5
124
330
17
100
AcDbEntity
  8
СПИРЕЯ ВАНГУТТА
100
AcDbPoint
 10
52.57680733252849
 20
33.62634559672901
 30
0.0
  0
POINT
  5
125
330
17
100
AcDbEntity
  8
СПИРЕЯ ВАНГУТТА
100
AcDbPoint
 10
53.496046148070995
 20
34.545584412271516
 30
0.0
  0
POINT
  5
126
330
17
100
AcDbEntity
  8
СПИРЕЯ ВАНГУТТА
100
AcDbPoint
 10
54.41528496361351
 20
35.46482322781403
 30
0.0
  0
POINT
  5
127
330
17
100
AcDbEntity
  8
СПИРЕЯ ВАНГУТТА
100
AcDbPoint
 10
55.33452377915602
 20
36.38406204335654
 30
0.0
  0
POINT
  5
128
330
17
100
AcDbEntity
  8
СПИРЕЯ ВАНГУТТА
100
AcDbPoint
 10
56.25376259469853
 20
37.30330085889905
 30
0.0
  0
POINT
  5
129
330
17
100
AcDbEntity
  8
СПИРЕЯ ВАНГУТТА
100
AcDbPoint
 10
57.17300141024104
 20
38.22253967444156
 30
0.0
  0
POINT
  5
12A
330
17
100
AcDbEntity
  8
СПИРЕЯ ВАНГУТТА
100
AcDbPoint
 10
59.93071785686857
 20
40.98025612106909
 30
0.0
  0
POINT
  5
12B
330
17
100
AcDbEntity
  8
СПИРЕЯ ВАНГУТТА
100
AcDbPoint
 10
60.84995667241108
 20
41.8994949366116
 30
0.0
  0
POINT
  5
12C
330
17
100
AcDbEntity
  8
СПИРЕЯ ВАНГУТТА
100
AcDbPoint
 10
61.76919548795359
 20
42.81873375215411
 30
0.0
  0
POINT
  5
12D
330
17
100
AcDbEntity
  8
СПИРЕЯ ВАНГУТТА
100
AcDbPoint
 10
62.6884343034961
 20
43.73797256769662
 30
0.0
  0
POINT
  5
12E
330
17
100
AcDbEntity
  8
ДЕРЕН КРОВАВО-КРАСНЫЙ
100
AcDbPoint
 10
12.165654787717335
 20
1.417631713681815
 30
0.0
  0
POINT
  5
12F
330
17
100
AcDbEntity
  8
ДЕРЕН КРОВАВО-КРАСНЫЙ
100
AcDbPoint
 10
13.084893603259847
 20
2.336870529224327
 30
0.0
  0
POINT
  5
130
330
17
100
AcDbEntity
  8
ДЕРЕН КРОВАВО-КРАСНЫЙ
100
AcDbPoint
 10
14.00413241880236
 20
3.2561093447668403
 30
0.0
  0
POINT
  5
131
330
17
100
AcDbEntity
  8
ДЕРЕН КРОВАВО-КРАСНЫЙ
100
AcDbPoint
 10
14.923371234344872
 20
4.175348160309352
 30
0.0
  0
POINT
  5
132
330
17
100
AcDbEntity
  8
ДЕРЕН КРОВАВО-КРАСНЫЙ
100
AcDbPoint
 10
15.842610049887384
 20
5.094586975851864
 30
0.0
  0
POINT
  5
133
330
17
100
AcDbEntity
  8
ДЕРЕН КРОВАВО-КРАСНЫЙ
100
AcDbPoint
 10
16.761848865429897
 20
6.013825791394377
 30
0.0
  0
POINT
  5
134
330
17
100
AcDbEntity
  8
ДЕРЕН КРОВАВО-КРАСНЫЙ
100
AcDbPoint
 10
17.68108768097241
 20
6.933064606936889
 30
0.0
  0
POINT
  5
135
330
17
100
AcDbEntity
  8
ДЕРЕН КРОВАВО-КРАСНЫЙ
100
AcDbPoint
 10
18.60032649651492
 20
7.852303422479401
 30
0.0
  0
POINT
  5
136
330
17
100
AcDbEntity
  8
ДЕРЕН КРОВАВО-КРАСНЫЙ
100
AcDbPoint
 10
19.519565312057434
 20
8.771542238021915
 30
0.0
  0
POINT
  5
137
330
17
100
AcDbEntity
  8
ДЕРЕН КРОВАВО-КРАСНЫЙ
100
AcDbPoint
 10
20.438804127599944
 20
9.690781053564425
 30
0.0
  0
POINT
  5
138
330
17
100
AcDbEntity
  8
ДЕРЕН КРОВАВО-КРАСНЫЙ
100
AcDbPoint
 10
21.358042943142458
 20
10.610019869106939
 30
0.0
  0
POINT
  5
139
330
17
100
AcDbEntity
  8
ДЕРЕН КРОВАВО-КРАСНЫЙ
100
AcDbPoint
 10
22.277281758684968
 20
11.529258684649449
 30
0.0
  0
POINT
  5
13A
330
17
100
AcDbEntity
  8
ДЕРЕН КРОВАВО-КРАСНЫЙ
100
AcDbPoint
 10
23.19652057422748
 20
12.448497500191962
 30
0.0
  0
POINT
  5
13B
330
17
100
AcDbEntity
  8
ДЕРЕН КРОВАВО-КРАСНЫЙ
100
AcDbPoint
 10
24.115759389769995
 20
13.367736315734476
 30
0.0
  0
POINT
  5
13C
330
17
100
AcDbEntity
  8
ДЕРЕН КРОВАВО-КРАСНЫЙ
100
AcDbPoint
 10
25.034998205312505
 20
14.286975131276986
 30
0.0
  0
POINT
  5
13D
330
17
100
AcDbEntity
  8
ДЕРЕН КРОВАВО-КРАСНЫЙ
100
AcDbPoint
 10
25.954237020855018
 20
15.2062139468195
 30
0.0
  0
POINT
  5
13E
330
17
100
AcDbEntity
  8
ДЕРЕН КРОВАВО-КРАСНЫЙ
100
AcDbPoint
 10
26.87347583639753
 20
16.125452762362013
 30
0.0
  0
POINT
  5
13F
330
17
100
AcDbEntity
  8
ДЕРЕН КРОВАВО-КРАСНЫЙ
100
AcDbPoint
 10
27.792714651940038
 20
17.04469157790452
 30
0.0
  0
POINT
  5
140
330
17
100
AcDbEntity
  8
ДЕРЕН КРОВАВО-КРАСНЫЙ
100
AcDbPoint
 10
28.71195346748255
 20
17.963930393447033
 30
0.0
  0
POINT
  5
141
330
17
100
AcDbEntity
  8
ДЕРЕН КРОВАВО-КРАСНЫЙ
100
AcDbPoint
 10
29.63119228302506
 20
18.883169208989543
 30
0.0
  0
POINT
  5
142
330
17
100
AcDbEntity
  8
ДЕРЕН КРОВАВО-КРАСНЫЙ
100
AcDbPoint
 10
30.550431098567568
 20
19.80240802453205
 30
0.0
  0
POINT
  5
143
330
17
100
AcDbEntity
  8
ДЕРЕН КРОВАВО-КРАСНЫЙ
100
AcDbPoint
 10
31.46966991411008
 20
20.721646840074563
 30
0.0
  0
POINT
  5
144
330
17
100
AcDbEntity
  8
ДЕРЕН КРОВАВО-КРАСНЫЙ
100
AcDbPoint
 10
32.38890872965259
 20
21.64088565561707
 30
0.0
  0
POINT
  5
145
330
17
100
AcDbEntity
  8
ДЕРЕН КРОВАВО-КРАСНЫЙ
100
AcDbPoint
 10
33.3081475451951
 20
22.56012447115958
 30
0.0
  0
POINT
  5
146
330
17
100
AcDbEntity
  8
ДЕРЕН КРОВАВО-КРАСНЫЙ
100
AcDbPoint
 10
34.227386360737604
 20
23.47936328670209
 30
0.0
  0
POINT
  5
147
330
17
100
AcDbEntity
  8
ДЕРЕН КРОВАВО-КРАСНЫЙ
100
AcDbPoint
 10
35.14662517628012
 20
24.3986021022446
 30
0.0
  0
POINT
  5
148
330
17
100
AcDbEntity
  8
ДЕРЕН КРОВАВО-КРАСНЫЙ
100
AcDbPoint
 10
36.06586399182263
 20
25.317840917787112
 30
0.0
  0
POINT
  5
149
330
17
100
AcDbEntity
  8
ДЕРЕН КРОВАВО-КРАСНЫЙ
100
AcDbPoint
 10
36.98510280736514
 20
26.23707973332962
 30
0.0
  0
POINT
  5
14A
330
17
100
AcDbEntity
  8
ДЕРЕН КРОВАВО-КРАСНЫЙ
100
AcDbPoint
 10
37.904341622907644
 20
27.156318548872125
 30
0.0
  0
POINT
  5
14B
330
17
100
AcDbEntity
  8
ДЕРЕН КРОВАВО-КРАСНЫЙ
100
AcDbPoint
 10
38.82358043845016
 20
28.07555736441464
 30
0.0
  0
POINT
  5
14C
330
17
100
AcDbEntity
  8
ДЕРЕН КРОВАВО-КРАСНЫЙ
100
AcDbPoint
 10
39.74281925399267
 20
28.994796179957152
 30
0.0
  0
POINT
  5
14D
330
17
100
AcDbEntity
  8
ДЕРЕН КРОВАВО-КРАСНЫЙ
100
AcDbPoint
 10
40.66205806953518
 20
29.91403499549966
 30
0.0
  0
POINT
  5
14E
330
17
100
AcDbEntity
  8
ДЕРЕН КРОВАВО-КРАСНЫЙ
100
AcDbPoint
 10
41.58129688507769
 20
30.833273811042172
 30
0.0
  0
POINT
  5
14F
330
17
100
AcDbEntity
  8
ДЕРЕН КРОВАВО-КРАСНЫЙ
100
AcDbPoint
 10
42.5005357006202
 20
31.75251262658468
 30
0.0
  0
POINT
  5
150
330
17
100
AcDbEntity
  8
ДЕРЕН КРОВАВО-КРАСНЫЙ
100
AcDbPoint
 10
43.419774516162704
 20
32.67175144212718
 30
0.0
  0
POINT
  5
151
330
17
100
AcDbEntity
  8
ДЕРЕН КРОВАВО-КРАСНЫЙ
100
AcDbPoint
 10
44.33901333170522
 20
33.590990257669695
 30
0.0
  0
POINT
  5
152
330
17
100
AcDbEntity
  8
ДЕРЕН КРОВАВО-КРАСНЫЙ
100
AcDbPoint
 10
45.25825214724773
 20
34.51022907321221
 30
0.0
  0
POINT
  5
153
330
17
100
AcDbEntity
  8
ДЕРЕН КРОВАВО-КРАСНЫЙ
100
AcDbPoint
 10
46.17749096279024
 20
35.42946788875472
 30
0.0
  0
POINT
  5
154
330
17
100
AcDbEntity
  8
ДЕРЕН КРОВАВО-КРАСНЫЙ
100
AcDbPoint
 10
47.096729778332744
 20
36.34870670429722
 30
0.0
  0
POINT
  5
155
330
17
100
AcDbEntity
  8
ДЕРЕН КРОВАВО-КРАСНЫЙ
100
AcDbPoint
 10
48.01596859387525
 20
37.267945519839735
 30
0.0
  0
POINT
  5
156
330
17
100
AcDbEntity
  8
ДЕРЕН КРОВАВО-КРАСНЫЙ
100
AcDbPoint
 10
48.93520740941777
 20
38.18718433538225
 30
0.0
  0
POINT
  5
157
330
17
100
AcDbEntity
  8
ДЕРЕН КРОВАВО-КРАСНЫЙ
100
AcDbPoint
 10
49.85444622496028
 20
39.10642315092476
 30
0.0
  0
POINT
  5
158
330
17
100
AcDbEntity
  8
ДЕРЕН КРОВАВО-КРАСНЫЙ
100
AcDbPoint
 10
50.77368504050279
 20
40.025661966467275
 30
0.0
  0
POINT
  5
159
330
17
100
AcDbEntity
  8
ДЕРЕН КРОВАВО-КРАСНЫЙ
100
AcDbPoint
 10
51.692923856045304
 20
40.94490078200979
 30
0.0
  0
POINT
  5
15A
330
17
100
AcDbEntity
  8
ДЕРЕН КРОВАВО-КРАСНЫЙ
100
AcDbPoint
 10
52.612162671587804
 20
41.86413959755229
 30
0.0
  0
POINT
  5
15B
330
17
100
AcDbEntity
  8
ДЕРЕН КРОВАВО-КРАСНЫЙ
100
AcDbPoint
 10
53.53140148713032
 20
42.7833784130948
 30
0.0
  0
POINT
  5
15C
330
17
100
AcDbEntity
  8
ДЕРЕН КРОВАВО-КРАСНЫЙ
100
AcDbPoint
 10
54.45064030267283
 20
43.702617228637315
 30
0.0
  0
POINT
  5
15D
330
17
100
AcDbEntity
  8
ДЕРЕН КРОВАВО-КРАСНЫЙ
100
AcDbPoint
 10
55.36987911821534
 20
44.621856044179815
 30
0.0
  0
POINT
  5
15E
330
17
100
AcDbEntity
  8
ДЕРЕН КРОВАВО-КРАСНЫЙ
100
AcDbPoint
 10
56.28911793375785
 20
45.54109485972233
 30
0.0
  0
POINT
  5
15F
330
17
100
AcDbEntity
  8
ДЕРЕН КРОВАВО-КРАСНЫЙ
100
AcDbPoint
 10
57.208356749300364
 20
46.46033367526484
 30
0.0
  0
POINT
  5
160
330
17
100
AcDbEntity
  8
ДЕРЕН КРОВАВО-КРАСНЫЙ
100
AcDbPoint
 10
59.96607319592789
 20
49.21805012189237
 30
0.0
  0
POINT
  5
161
330
17
100
AcDbEntity
  8
ДЕРЕН КРОВАВО-КРАСНЫЙ
100
AcDbPoint
 10
60.8853120114704
 20
50.13728893743488
 30
0.0
  0
POINT
  5
162
330
17
100
AcDbEntity
  8
ДЕРЕН КРОВАВО-КРАСНЫЙ
100
AcDbPoint
 10
61.80455082701291
 20
51.056527752977395
 30
0.0
  0
POINT
  5
163
330
17
100
AcDbEntity
  8
ДЕРЕН КРОВАВО-КРАСНЫЙ
100
AcDbPoint
 10
62.72378964255542
 20
51.975766568519894
 30
0.0
  0
POINT
  5
164
330
17
100
AcDbEntity
  8
ДЕРЕН КРОВАВО-КРАСНЫЙ
100
AcDbPoint
 10
9.93826842697971
 20
0.8873016277919041
 30
0.0
  0
POINT
  5
165
330
17
100
AcDbEntity
  8
ДЕРЕН КРОВАВО-КРАСНЫЙ
100
AcDbPoint
 10
10.857507242522225
 20
1.8065404433344172
 30
0.0
  0
POINT
  5
166
330
17
100
AcDbEntity
  8
ДЕРЕН КРОВАВО-КРАСНЫЙ
100
AcDbPoint
 10
11.776746058064735
 20
2.725779258876927
 30
0.0
  0
POINT
  5
167
330
17
100
AcDbEntity
  8
ДЕРЕН КРОВАВО-КРАСНЫЙ
100
AcDbPoint
 10
12.695984873607248
 20
3.6450180744194407
 30
0.0
  0
POINT
  5
168
330
17
100
AcDbEntity
  8
ДЕРЕН КРОВАВО-КРАСНЫЙ
100
AcDbPoint
 10
13.61522368914976
 20
4.5642568899619524
 30
0.0
  0
POINT
  5
169
330
17
100
AcDbEntity
  8
ДЕРЕН КРОВАВО-КРАСНЫЙ
100
AcDbPoint
 10
14.534462504692272
 20
5.483495705504464
 30
0.0
  0
POINT
  5
16A
330
17
100
AcDbEntity
  8
ДЕРЕН КРОВАВО-КРАСНЫЙ
100
AcDbPoint
 10
15.453701320234783
 20
6.402734521046976
 30
0.0
  0
POINT
  5
16B
330
17
100
AcDbEntity
  8
ДЕРЕН КРОВАВО-КРАСНЫЙ
100
AcDbPoint
 10
16.372940135777295
 20
7.321973336589488
 30
0.0
  0
POINT
  5
16C
330
17
100
AcDbEntity
  8
ДЕРЕН КРОВАВО-КРАСНЫЙ
100
AcDbPoint
 10
17.29217895131981
 20
8.241212152132
 30
0.0
  0
POINT
  5
16D
330
17
100
AcDbEntity
  8
ДЕРЕН КРОВАВО-КРАСНЫЙ
100
AcDbPoint
 10
18.21141776686232
 20
9.160450967674512
 30
0.0
  0
POINT
  5
16E
330
17
100
AcDbEntity
  8
ДЕРЕН КРОВАВО-КРАСНЫЙ
100
AcDbPoint
 10
19.130656582404832
 20
10.079689783217024
 30
0.0
  0
POINT
  5
16F
330
17
100
AcDbEntity
  8
ДЕРЕН КРОВАВО-КРАСНЫЙ
100
AcDbPoint
 10
20.049895397947346
 20
10.998928598759537
 30
0.0
  0
POINT
  5
170
330
17
100
AcDbEntity
  8
ДЕРЕН КРОВАВО-КРАСНЫЙ
100
AcDbPoint
 10
20.96913421348986
 20
11.91816741430205
 30
0.0
  0
POINT
  5
171
330
17
100
AcDbEntity
  8
ДЕРЕН КРОВАВО-КРАСНЫЙ
100
AcDbPoint
 10
21.88837302903237
 20
12.83740622984456
 30
0.0
  0
POINT
  5
172
330
17
100
AcDbEntity
  8
ДЕРЕН КРОВАВО-КРАСНЫЙ
100
AcDbPoint
 10
22.807611844574883
 20
13.756645045387074
 30
0.0
  0
POINT
  5
173
330
17
100
AcDbEntity
  8
ДЕРЕН КРОВАВО-КРАСНЫЙ
100
AcDbPoint
 10
23.726850660117396
 20
14.675883860929588
 30
0.0
  0
POINT
  5
174
330
17
100
AcDbEntity
  8
ДЕРЕН КРОВАВО-КРАСНЫЙ
100
AcDbPoint
 10
24.646089475659906
 20
15.595122676472098
 30
0.0
  0
POINT
  5
175
330
17
100
AcDbEntity
  8
ДЕРЕН КРОВАВО-КРАСНЫЙ
100
AcDbPoint
 10
25.565328291202416
 20
16.514361492014608
 30
0.0
  0
POINT
  5
176
330
17
100
AcDbEntity
  8
ДЕРЕН КРОВАВО-КРАСНЫЙ
100
AcDbPoint
 10
26.484567106744926
 20
17.433600307557118
 30
0.0
  0
POINT
  5
177
330
17
100
AcDbEntity
  8
ДЕРЕН КРОВАВО-КРАСНЫЙ
100
AcDbPoint
 10
27.403805922287436
 20
18.352839123099628
 30
0.0
  0
POINT
  5
178
330
17
100
AcDbEntity
  8
ДЕРЕН КРОВАВО-КРАСНЫЙ
100
AcDbPoint
 10
28.323044737829946
 20
19.272077938642138
 30
0.0
  0
POINT
  5
179
330
17
100
AcDbEntity
  8
ДЕРЕН КРОВАВО-КРАСНЫЙ
100
AcDbPoint
 10
29.242283553372452
 20
20.191316754184644
 30
0.0
  0
POINT
  5
17A
330
17
100
AcDbEntity
  8
ДЕРЕН КРОВАВО-КРАСНЫЙ
100
AcDbPoint
 10
30.161522368914966
 20
21.110555569727158
 30
0.0
  0
POINT
  5
17B
330
17
100
AcDbEntity
  8
ДЕРЕН КРОВАВО-КРАСНЫЙ
100
AcDbPoint
 10
31.080761184457476
 20
22.029794385269668
 30
0.0
  0
POINT
  5
17C
330
17
100
AcDbEntity
  8
ДЕРЕН КРОВАВО-КРАСНЫЙ
100
AcDbPoint
 10
31.999999999999975
 20
22.949033200812174
 30
0.0
  0
POINT
  5
17D
330
17
100
AcDbEntity
  8
ДЕРЕН КРОВАВО-КРАСНЫЙ
100
AcDbPoint
 10
32.91923881554249
 20
23.868272016354688
 30
0.0
  0
POINT
  5
17E
330
17
100
AcDbEntity
  8
ДЕРЕН КРОВАВО-КРАСНЫЙ
100
AcDbPoint
 10
33.838477631085006
 20
24.7875108318972
 30
0.0
  0
POINT
  5
17F
330
17
100
AcDbEntity
  8
ДЕРЕН КРОВАВО-КРАСНЫЙ
100
AcDbPoint
 10
34.75771644662751
 20
25.706749647439704
 30
0.0
  0
POINT
  5
180
330
17
100
AcDbEntity
  8
ДЕРЕН КРОВАВО-КРАСНЫЙ
100
AcDbPoint
 10
35.67695526217002
 20
26.62598846298221
 30
0.0
  0
POINT
  5
181
330
17
100
AcDbEntity
  8
ДЕРЕН КРОВАВО-КРАСНЫЙ
100
AcDbPoint
 10
36.59619407771253
 20
27.545227278524724
 30
0.0
  0
POINT
  5
182
330
17
100
AcDbEntity
  8
ДЕРЕН КРОВАВО-КРАСНЫЙ
100
AcDbPoint
 10
37.515432893255046
 20
28.464466094067237
 30
0.0
  0
POINT
  5
183
330
17
100
AcDbEntity
  8
ДЕРЕН КРОВАВО-КРАСНЫЙ
100
AcDbPoint
 10
38.43467170879755
 20
29.383704909609744
 30
0.0
  0
POINT
  5
184
330
17
100
AcDbEntity
  8
ДЕРЕН КРОВАВО-КРАСНЫЙ
100
AcDbPoint
 10
39.35391052434006
 20
30.30294372515225
 30
0.0
  0
POINT
  5
185
330
17
100
AcDbEntity
  8
ДЕРЕН КРОВАВО-КРАСНЫЙ
100
AcDbPoint
 10
40.27314933988257
 20
31.222182540694764
 30
0.0
  0
POINT
  5
186
330
17
100
AcDbEntity
  8
ДЕРЕН КРОВАВО-КРАСНЫЙ
100
AcDbPoint
 10
41.192388155425085
 20
32.14142135623728
 30
0.0
  0
POINT
  5
187
330
17
100
AcDbEntity
  8
ДЕРЕН КРОВАВО-КРАСНЫЙ
100
AcDbPoint
 10
42.11162697096759
 20
33.06066017177978
 30
0.0
  0
POINT
  5
188
330
17
100
AcDbEntity
  8
ДЕРЕН КРОВАВО-КРАСНЫЙ
100
AcDbPoint
 10
43.030865786510105
 20
33.979898987322294
 30
0.0
  0
POINT
  5
189
330
17
100
AcDbEntity
  8
ДЕРЕН КРОВАВО-КРАСНЫЙ
100
AcDbPoint
 10
43.95010460205261
 20
34.89913780286481
 30
0.0
  0
POINT
  5
18A
330
17
100
AcDbEntity
  8
ДЕРЕН КРОВАВО-КРАСНЫЙ
100
AcDbPoint
 10
44.86934341759512
 20
35.81837661840731
 30
0.0
  0
POINT
  5
18B
330
17
100
AcDbEntity
  8
ДЕРЕН КРОВАВО-КРАСНЫЙ
100
AcDbPoint
 10
45.78858223313763
 20
36.73761543394982
 30
0.0
  0
POINT
  5
18C
330
17
100
AcDbEntity
  8
ДЕРЕН КРОВАВО-КРАСНЫЙ
100
AcDbPoint
 10
46.70782104868014
 20
37.65685424949233
 30
0.0
  0
POINT
  5
18D
330
17
100
AcDbEntity
  8
ДЕРЕН КРОВАВО-КРАСНЫЙ
100
AcDbPoint
 10
47.62705986422265
 20
38.57609306503485
 30
0.0
  0
POINT
  5
18E
330
17
100
AcDbEntity
  8
ДЕРЕН КРОВАВО-КРАСНЫЙ
100
AcDbPoint
 10
48.54629867976516
 20
39.495331880577346
 30
0.0
  0
POINT
  5
18F
330
17
100
AcDbEntity
  8
ДЕРЕН КРОВАВО-КРАСНЫЙ
100
AcDbPoint
 10
49.46553749530767
 20
40.41457069611986
 30
0.0
  0
POINT
  5
190
330
17
100
AcDbEntity
  8
ДЕРЕН КРОВАВО-КРАСНЫЙ
100
AcDbPoint
 10
50.384776310850185
 20
41.33380951166237
 30
0.0
  0
POINT
  5
191
330
17
100
AcDbEntity
  8
ДЕРЕН КРОВАВО-КРАСНЫЙ
100
AcDbPoint
 10
51.30401512639269
 20
42.25304832720489
 30
0.0
  0
POINT
  5
192
330
17
100
AcDbEntity
  8
ДЕРЕН КРОВАВО-КРАСНЫЙ
100
AcDbPoint
 10
52.223253941935205
 20
43.1722871427474
 30
0.0
  0
POINT
  5
193
330
17
100
AcDbEntity
  8
ДЕРЕН КРОВАВО-КРАСНЫЙ
100
AcDbPoint
 10
53.14249275747772
 20
44.091525958289914
 30
0.0
  0
POINT
  5
194
330
17
100
AcDbEntity
  8
ДЕРЕН КРОВАВО-КРАСНЫЙ
100
AcDbPoint
 10
54.06173157302022
 20
45.01076477383241
 30
0.0
  0
POINT
  5
195
330
17
100
AcDbEntity
  8
ДЕРЕН КРОВАВО-КРАСНЫЙ
100
AcDbPoint
 10
54.98097038856273
 20
45.93000358937493
 30
0.0
  0
POINT
  5
196
330
17
100
AcDbEntity
  8
ДЕРЕН КРОВАВО-КРАСНЫЙ
100
AcDbPoint
 10
55.900209204105245
 20
46.84924240491744
 30
0.0
  0
POINT
  5
197
330
17
100
AcDbEntity
  8
ДЕРЕН КРОВАВО-КРАСНЫЙ
100
AcDbPoint
 10
56.81944801964775
 20
47.76848122045994
 30
0.0
  0
POINT
  5
198
330
17
100
AcDbEntity
  8
ДЕРЕН КРОВАВО-КРАСНЫЙ
100
AcDbPoint
 10
57.738686835190265
 20
48.68772003600245
 30
0.0
  0
POINT
  5
199
330
17
100
AcDbEntity
  8
ДЕРЕН КРОВАВО-КРАСНЫЙ
100
AcDbPoint
 10
60.49640328181779
 20
51.44543648262998
 30
0.0
  0
POINT
  5
19A
330
17
100
AcDbEntity
  8
ДЕРЕН КРОВАВО-КРАСНЫЙ
100
AcDbPoint
 10
61.415642097360305
 20
52.36467529817249
 30
0.0
  0
POINT
  5
19B
330
17
100
AcDbEntity
  8
ДЕРЕН КРОВАВО-КРАСНЫЙ
100
AcDbPoint
 10
62.33488091290281
 20
53.28391411371501
 30
0.0
  0
POINT
  5
19C
330
17
100
AcDbEntity
  8
ДЕРЕН КРОВАВО-КРАСНЫЙ
100
AcDbPoint
 10
63.254119728445325
 20
54.20315292925752
 30
0.0
  0
POINT
  5
19D
330
17
100
AcDbEntity
  8
СИРЕНЬ ОБЫКНОВЕННАЯ
100
AcDbPoint
 10
1.7004744261564344
 20
0.8519462887325773
 30
0.0
  0
POINT
  5
19E
330
17
100
AcDbEntity
  8
СИРЕНЬ ОБЫКНОВЕННАЯ
100
AcDbPoint
 10
2.619713241698946
 20
1.771185104275089
 30
0.0
  0
POINT
  5
19F
330
17
100
AcDbEntity
  8
СИРЕНЬ ОБЫКНОВЕННАЯ
100
AcDbPoint
 10
3.538952057241458
 20
2.6904239198176008
 30
0.0
  0
POINT
  5
1A0
330
17
100
AcDbEntity
  8
СИРЕНЬ ОБЫКНОВЕННАЯ
100
AcDbPoint
 10
4.458190872783969
 20
3.6096627353601116
 30
0.0
  0
POINT
  5
1A1
330
17
100
AcDbEntity
  8
СИРЕНЬ ОБЫКНОВЕННАЯ
100
AcDbPoint
 10
5.377429688326481
 20
4.528901550902624
 30
0.0
  0
POINT
  5
1A2
330
17
100
AcDbEntity
  8
СИРЕНЬ ОБЫКНОВЕННАЯ
100
AcDbPoint
 10
6.296668503868994
 20
5.448140366445137
 30
0.0
  0
POINT
  5
1A3
330
17
100
AcDbEntity
  8
СИРЕНЬ ОБЫКНОВЕННАЯ
100
AcDbPoint
 10
7.215907319411506
 20
6.367379181987649
 30
0.0
  0
POINT
  5
1A4
330
17
100
AcDbEntity
  8
СИРЕНЬ ОБЫКНОВЕННАЯ
100
AcDbPoint
 10
8.135146134954017
 20
7.28661799753016
 30
0.0
  0
POINT
  5
1A5
330
17
100
AcDbEntity
  8
СИРЕНЬ ОБЫКНОВЕННАЯ
100
AcDbPoint
 10
9.05438495049653
 20
8.205856813072675
 30
0.0
  0
POINT
  5
1A6
330
17
100
AcDbEntity
  8
СИРЕНЬ ОБЫКНОВЕННАЯ
100
AcDbPoint
 10
9.973623766039042
 20
9.125095628615187
 30
0.0
  0
POINT
  5
1A7
330
17
100
AcDbEntity
  8
СИРЕНЬ ОБЫКНОВЕННАЯ
100
AcDbPoint
 10
10.892862581581554
 20
10.044334444157698
 30
0.0
  0
POINT
  5
1A8
330
17
100
AcDbEntity
  8
СИРЕНЬ ОБЫКНОВЕННАЯ
100
AcDbPoint
 10
11.812101397124067
 20
10.963573259700212
 30
0.0
  0
POINT
  5
1A9
330
17
100
AcDbEntity
  8
СИРЕНЬ ОБЫКНОВЕННАЯ
100
AcDbPoint
 10
12.731340212666579
 20
11.882812075242724
 30
0.0
  0
POINT
  5
1AA
330
17
100
AcDbEntity
  8
СИРЕНЬ ОБЫКНОВЕННАЯ
100
AcDbPoint
 10
13.65057902820909
 20
12.802050890785235
 30
0.0
  0
POINT
  5
1AB
330
17
100
AcDbEntity
  8
СИРЕНЬ ОБЫКНОВЕННАЯ
100
AcDbPoint
 10
14.569817843751604
 20
13.721289706327749
 30
0.0
  0
POINT
  5
1AC
330
17
100
AcDbEntity
  8
СИРЕНЬ ОБЫКНОВЕННАЯ
100
AcDbPoint
 10
15.489056659294114
 20
14.640528521870259
 30
0.0
  0
POINT
  5
1AD
330
17
100
AcDbEntity
  8
СИРЕНЬ ОБЫКНОВЕННАЯ
100
AcDbPoint
 10
16.408295474836628
 20
15.559767337412772
 30
0.0
  0
POINT
  5
1AE
330
17
100
AcDbEntity
  8
СИРЕНЬ ОБЫКНОВЕННАЯ
100
AcDbPoint
 10
17.327534290379138
 20
16.479006152955282
 30
0.0
  0
POINT
  5
1AF
330
17
100
AcDbEntity
  8
СИРЕНЬ ОБЫКНОВЕННАЯ
100
AcDbPoint
 10
18.24677310592165
 20
17.398244968497796
 30
0.0
  0
POINT
  5
1B0
330
17
100
AcDbEntity
  8
СИРЕНЬ ОБЫКНОВЕННАЯ
100
AcDbPoint
 10
19.166011921464165
 20
18.31748378404031
 30
0.0
  0
POINT
  5
1B1
330
17
100
AcDbEntity
  8
СИРЕНЬ ОБЫКНОВЕННАЯ
100
AcDbPoint
 10
20.085250737006675
 20
19.23672259958282
 30
0.0
  0
POINT
  5
1B2
330
17
100
AcDbEntity
  8
СИРЕНЬ ОБЫКНОВЕННАЯ
100
AcDbPoint
 10
21.004489552549188
 20
20.155961415125333
 30
0.0
  0
POINT
  5
1B3
330
17
100
AcDbEntity
  8
СИРЕНЬ ОБЫКНОВЕННАЯ
100
AcDbPoint
 10
21.9237283680917
 20
21.075200230667846
 30
0.0
  0
POINT
  5
1B4
330
17
100
AcDbEntity
  8
СИРЕНЬ ОБЫКНОВЕННАЯ
100
AcDbPoint
 10
22.842967183634208
 20
21.994439046210353
 30
0.0
  0
POINT
  5
1B5
330
17
100
AcDbEntity
  8
СИРЕНЬ ОБЫКНОВЕННАЯ
100
AcDbPoint
 10
23.76220599917672
 20
22.913677861752866
 30
0.0
  0
POINT
  5
1B6
330
17
100
AcDbEntity
  8
СИРЕНЬ ОБЫКНОВЕННАЯ
100
AcDbPoint
 10
24.68144481471923
 20
23.832916677295376
 30
0.0
  0
POINT
  5
1B7
330
17
100
AcDbEntity
  8
СИРЕНЬ ОБЫКНОВЕННАЯ
100
AcDbPoint
 10
25.600683630261738
 20
24.752155492837883
 30
0.0
  0
POINT
  5
1B8
330
17
100
AcDbEntity
  8
СИРЕНЬ ОБЫКНОВЕННАЯ
100
AcDbPoint
 10
26.51992244580425
 20
25.671394308380396
 30
0.0
  0
POINT
  5
1B9
330
17
100
AcDbEntity
  8
СИРЕНЬ ОБЫКНОВЕННАЯ
100
AcDbPoint
 10
27.43916126134676
 20
26.590633123922906
 30
0.0
  0
POINT
  5
1BA
330
17
100
AcDbEntity
  8
СИРЕНЬ ОБЫКНОВЕННАЯ
100
AcDbPoint
 10
28.358400076889268
 20
27.509871939465413
 30
0.0
  0
POINT
  5
1BB
330
17
100
AcDbEntity
  8
СИРЕНЬ ОБЫКНОВЕННАЯ
100
AcDbPoint
 10
29.277638892431778
 20
28.429110755007923
 30
0.0
  0
POINT
  5
1BC
330
17
100
AcDbEntity
  8
СИРЕНЬ ОБЫКНОВЕННАЯ
100
AcDbPoint
 10
30.19687770797429
 20
29.348349570550436
 30
0.0
  0
POINT
  5
1BD
330
17
100
AcDbEntity
  8
СИРЕНЬ ОБЫКНОВЕННАЯ
100
AcDbPoint
 10
31.1161165235168
 20
30.267588386092946
 30
0.0
  0
POINT
  5
1BE
330
17
100
AcDbEntity
  8
СИРЕНЬ ОБЫКНОВЕННАЯ
100
AcDbPoint
 10
32.03535533905931
 20
31.186827201635452
 30
0.0
  0
POINT
  5
1BF
330
17
100
AcDbEntity
  8
СИРЕНЬ ОБЫКНОВЕННАЯ
100
AcDbPoint
 10
32.954594154601814
 20
32.10606601717796
 30
0.0
  0
POINT
  5
1C0
330
17
100
AcDbEntity
  8
СИРЕНЬ ОБЫКНОВЕННАЯ
100
AcDbPoint
 10
33.87383297014433
 20
33.02530483272047
 30
0.0
  0
POINT
  5
1C1
330
17
100
AcDbEntity
  8
СИРЕНЬ ОБЫКНОВЕННАЯ
100
AcDbPoint
 10
34.79307178568684
 20
33.944543648262986
 30
0.0
  0
POINT
  5
1C2
330
17
100
AcDbEntity
  8
СИРЕНЬ ОБЫКНОВЕННАЯ
100
AcDbPoint
 10
35.71231060122935
 20
34.86378246380549
 30
0.0
  0
POINT
  5
1C3
330
17
100
AcDbEntity
  8
СИРЕНЬ ОБЫКНОВЕННАЯ
100
AcDbPoint
 10
36.63154941677186
 20
35.783021279348006
 30
0.0
  0
POINT
  5
1C4
330
17
100
AcDbEntity
  8
СИРЕНЬ ОБЫКНОВЕННАЯ
100
AcDbPoint
 10
37.55078823231437
 20
36.70226009489051
 30
0.0
  0
POINT
  5
1C5
330
17
100
AcDbEntity
  8
СИРЕНЬ ОБЫКНОВЕННАЯ
100
AcDbPoint
 10
38.470027047856874
 20
37.62149891043302
 30
0.0
  0
POINT
  5
1C6
330
17
100
AcDbEntity
  8
СИРЕНЬ ОБЫКНОВЕННАЯ
100
AcDbPoint
 10
39.38926586339939
 20
38.54073772597553
 30
0.0
  0
POINT
  5
1C7
330
17
100
AcDbEntity
  8
СИРЕНЬ ОБЫКНОВЕННАЯ
100
AcDbPoint
 10
40.3085046789419
 20
39.459976541518046
 30
0.0
  0
POINT
  5
1C8
330
17
100
AcDbEntity
  8
СИРЕНЬ ОБЫКНОВЕННАЯ
100
AcDbPoint
 10
41.22774349448441
 20
40.37921535706055
 30
0.0
  0
POINT
  5
1C9
330
17
100
AcDbEntity
  8
СИРЕНЬ ОБЫКНОВЕННАЯ
100
AcDbPoint
 10
42.146982310026914
 20
41.29845417260306
 30
0.0
  0
POINT
  5
1CA
330
17
100
AcDbEntity
  8
СИРЕНЬ ОБЫКНОВЕННАЯ
100
AcDbPoint
 10
43.06622112556942
 20
42.217692988145565
 30
0.0
  0
POINT
  5
1CB
330
17
100
AcDbEntity
  8
СИРЕНЬ ОБЫКНОВЕННАЯ
100
AcDbPoint
 10
43.98545994111194
 20
43.136931803688086
 30
0.0
  0
POINT
  5
1CC
330
17
100
AcDbEntity
  8
СИРЕНЬ ОБЫКНОВЕННАЯ
100
AcDbPoint
 10
44.90469875665445
 20
44.05617061923059
 30
0.0
  0
POINT
  5
1CD
330
17
100
AcDbEntity
  8
СИРЕНЬ ОБЫКНОВЕННАЯ
100
AcDbPoint
 10
45.82393757219696
 20
44.975409434773105
 30
0.0
  0
POINT
  5
1CE
330
17
100
AcDbEntity
  8
СИРЕНЬ ОБЫКНОВЕННАЯ
100
AcDbPoint
 10
46.743176387739474
 20
45.89464825031562
 30
0.0
  0
POINT
  5
1CF
330
17
100
AcDbEntity
  8
СИРЕНЬ ОБЫКНОВЕННАЯ
100
AcDbPoint
 10
47.662415203281974
 20
46.81388706585812
 30
0.0
  0
POINT
  5
1D0
330
17
100
AcDbEntity
  8
СИРЕНЬ ОБЫКНОВЕННАЯ
100
AcDbPoint
 10
48.58165401882449
 20
47.73312588140063
 30
0.0
  0
POINT
  5
1D1
330
17
100
AcDbEntity
  8
СИРЕНЬ ОБЫКНОВЕННАЯ
100
AcDbPoint
 10
49.500892834367
 20
48.652364696943145
 30
0.0
  0
POINT
  5
1D2
330
17
100
AcDbEntity
  8
СИРЕНЬ ОБЫКНОВЕННАЯ
100
AcDbPoint
 10
50.42013164990951
 20
49.57160351248565
 30
0.0
  0
POINT
  5
1D3
330
17
100
AcDbEntity
  8
СИРЕНЬ ОБЫКНОВЕННАЯ
100
AcDbPoint
 10
51.33937046545202
 20
50.490842328028165
 30
0.0
  0
POINT
  5
1D4
330
17
100
AcDbEntity
  8
СИРЕНЬ ОБЫКНОВЕННАЯ
100
AcDbPoint
 10
52.258609280994534
 20
51.41008114357068
 30
0.0
  0
POINT
  5
1D5
330
17
100
AcDbEntity
  8
СИРЕНЬ ОБЫКНОВЕННАЯ
100
AcDbPoint
 10
53.17784809653703
 20
52.32931995911318
 30
0.0
  0
POINT
  5
1D6
330
17
100
AcDbEntity
  8
СИРЕНЬ ОБЫКНОВЕННАЯ
100
AcDbPoint
 10
54.09708691207955
 20
53.24855877465569
 30
0.0
  0
POINT
  5
1D7
330
17
100
AcDbEntity
  8
СИРЕНЬ ОБЫКНОВЕННАЯ
100
AcDbPoint
 10
55.01632572762206
 20
54.167797590198205
 30
0.0
  0
POINT
  5
1D8
330
17
100
AcDbEntity
  8
СИРЕНЬ ОБЫКНОВЕННАЯ
100
AcDbPoint
 10
55.93556454316457
 20
55.08703640574071
 30
0.0
  0
POINT
  5
1D9
330
17
100
AcDbEntity
  8
СИРЕНЬ ОБЫКНОВЕННАЯ
100
AcDbPoint
 10
56.85480335870708
 20
56.006275221283225
 30
0.0
  0
POINT
  5
1DA
330
17
100
AcDbEntity
  8
СИРЕНЬ ОБЫКНОВЕННАЯ
100
AcDbPoint
 10
57.77404217424959
 20
56.92551403682573
 30
0.0
  0
POINT
  5
1DB
330
17
100
AcDbEntity
  8
СИРЕНЬ ОБЫКНОВЕННАЯ
100
AcDbPoint
 10
60.53175862087711
 20
59.68323048345326
 30
0.0
  0
POINT
  5
1DC
330
17
100
AcDbEntity
  8
СИРЕНЬ ОБЫКНОВЕННАЯ
100
AcDbPoint
 10
61.45099743641963
 20
60.60246929899577
 30
0.0
  0
POINT
  5
1DD
330
17
100
AcDbEntity
  8
СИРЕНЬ ОБЫКНОВЕННАЯ
100
AcDbPoint
 10
62.37023625196214
 20
61.521708114538285
 30
0.0
  0
POINT
  5
1DE
330
17
100
AcDbEntity
  8
СИРЕНЬ ОБЫКНОВЕННАЯ
100
AcDbPoint
 10
63.28947506750465
 20
62.44094693008079
 30
0.0
  0
POINT
  5
1DF
330
17
100
AcDbEntity
  8
СИРЕНЬ ОБЫКНОВЕННАЯ
100
AcDbPoint
 10
1.3115656965038336
 20
2.1600938339276907
 30
0.0
  0
POINT
  5
1E0
330
17
100
AcDbEntity
  8
СИРЕНЬ ОБЫКНОВЕННАЯ
100
AcDbPoint
 10
2.230804512046345
 20
3.079332649470202
 30
0.0
  0
POINT
  5
1E1
330
17
100
AcDbEntity
  8
СИРЕНЬ ОБЫКНОВЕННАЯ
100
AcDbPoint
 10
3.1500433275888566
 20
3.9985714650127138
 30
0.0
  0
POINT
  5
1E2
330
17
100
AcDbEntity
  8
СИРЕНЬ ОБЫКНОВЕННАЯ
100
AcDbPoint
 10
4.069282143131368
 20
4.9178102805552255
 30
0.0
  0
POINT
  5
1E3
330
17
100
AcDbEntity
  8
СИРЕНЬ ОБЫКНОВЕННАЯ
100
AcDbPoint
 10
4.988520958673881
 20
5.837049096097738
 30
0.0
  0
POINT
  5
1E4
330
17
100
AcDbEntity
  8
СИРЕНЬ ОБЫКНОВЕННАЯ
100
AcDbPoint
 10
5.907759774216394
 20
6.756287911640251
 30
0.0
  0
POINT
  5
1E5
330
17
100
AcDbEntity
  8
СИРЕНЬ ОБЫКНОВЕННАЯ
100
AcDbPoint
 10
6.826998589758904
 20
7.675526727182761
 30
0.0
  0
POINT
  5
1E6
330
17
100
AcDbEntity
  8
СИРЕНЬ ОБЫКНОВЕННАЯ
100
AcDbPoint
 10
7.746237405301417
 20
8.594765542725273
 30
0.0
  0
POINT
  5
1E7
330
17
100
AcDbEntity
  8
СИРЕНЬ ОБЫКНОВЕННАЯ
100
AcDbPoint
 10
8.66547622084393
 20
9.514004358267785
 30
0.0
  0
POINT
  5
1E8
330
17
100
AcDbEntity
  8
СИРЕНЬ ОБЫКНОВЕННАЯ
100
AcDbPoint
 10
9.584715036386442
 20
10.433243173810297
 30
0.0
  0
POINT
  5
1E9
330
17
100
AcDbEntity
  8
СИРЕНЬ ОБЫКНОВЕННАЯ
100
AcDbPoint
 10
10.503953851928953
 20
11.352481989352809
 30
0.0
  0
POINT
  5
1EA
330
17
100
AcDbEntity
  8
СИРЕНЬ ОБЫКНОВЕННАЯ
100
AcDbPoint
 10
11.423192667471465
 20
12.27172080489532
 30
0.0
  0
POINT
  5
1EB
330
17
100
AcDbEntity
  8
СИРЕНЬ ОБЫКНОВЕННАЯ
100
AcDbPoint
 10
12.342431483013979
 20
13.190959620437834
 30
0.0
  0
POINT
  5
1EC
330
17
100
AcDbEntity
  8
СИРЕНЬ ОБЫКНОВЕННАЯ
100
AcDbPoint
 10
13.26167029855649
 20
14.110198435980346
 30
0.0
  0
POINT
  5
1ED
330
17
100
AcDbEntity
  8
СИРЕНЬ ОБЫКНОВЕННАЯ
100
AcDbPoint
 10
14.180909114099002
 20
15.029437251522857
 30
0.0
  0
POINT
  5
1EE
330
17
100
AcDbEntity
  8
СИРЕНЬ ОБЫКНОВЕННАЯ
100
AcDbPoint
 10
15.100147929641516
 20
15.94867606706537
 30
0.0
  0
POINT
  5
1EF
330
17
100
AcDbEntity
  8
СИРЕНЬ ОБЫКНОВЕННАЯ
100
AcDbPoint
 10
16.01938674518403
 20
16.867914882607884
 30
0.0
  0
POINT
  5
1F0
330
17
100
AcDbEntity
  8
СИРЕНЬ ОБЫКНОВЕННАЯ
100
AcDbPoint
 10
16.93862556072654
 20
17.787153698150394
 30
0.0
  0
POINT
  5
1F1
330
17
100
AcDbEntity
  8
СИРЕНЬ ОБЫКНОВЕННАЯ
100
AcDbPoint
 10
17.857864376269053
 20
18.706392513692908
 30
0.0
  0
POINT
  5
1F2
330
17
100
AcDbEntity
  8
СИРЕНЬ ОБЫКНОВЕННАЯ
100
AcDbPoint
 10
18.777103191811566
 20
19.62563132923542
 30
0.0
  0
POINT
  5
1F3
330
17
100
AcDbEntity
  8
СИРЕНЬ ОБЫКНОВЕННАЯ
100
AcDbPoint
 10
19.696342007354076
 20
20.54487014477793
 30
0.0
  0
POINT
  5
1F4
330
17
100
AcDbEntity
  8
СИРЕНЬ ОБЫКНОВЕННАЯ
100
AcDbPoint
 10
20.615580822896586
 20
21.46410896032044
 30
0.0
  0
POINT
  5
1F5
330
17
100
AcDbEntity
  8
СИРЕНЬ ОБЫКНОВЕННАЯ
100
AcDbPoint
 10
21.534819638439096
 20
22.38334777586295
 30
0.0
  0
POINT
  5
1F6
330
17
100
AcDbEntity
  8
СИРЕНЬ ОБЫКНОВЕННАЯ
100
AcDbPoint
 10
22.454058453981606
 20
23.30258659140546
 30
0.0
  0
POINT
  5
1F7
330
17
100
AcDbEntity
  8
СИРЕНЬ ОБЫКНОВЕННАЯ
100
AcDbPoint
 10
23.373297269524116
 20
24.22182540694797
 30
0.0
  0
POINT
  5
1F8
330
17
100
AcDbEntity
  8
СИРЕНЬ ОБЫКНОВЕННАЯ
100
AcDbPoint
 10
24.292536085066622
 20
25.141064222490478
 30
0.0
  0
POINT
  5
1F9
330
17
100
AcDbEntity
  8
СИРЕНЬ ОБЫКНОВЕННАЯ
100
AcDbPoint
 10
25.211774900609136
 20
26.06030303803299
 30
0.0
  0
POINT
  5
1FA
330
17
100
AcDbEntity
  8
СИРЕНЬ ОБЫКНОВЕННАЯ
100
AcDbPoint
 10
26.131013716151646
 20
26.9795418535755
 30
0.0
  0
POINT
  5
1FB
330
17
100
AcDbEntity
  8
СИРЕНЬ ОБЫКНОВЕННАЯ
100
AcDbPoint
 10
27.050252531694152
 20
27.898780669118008
 30
0.0
  0
POINT
  5
1FC
330
17
100
AcDbEntity
  8
СИРЕНЬ ОБЫКНОВЕННАЯ
100
AcDbPoint
 10
27.969491347236662
 20
28.818019484660518
 30
0.0
  0
POINT
  5
1FD
330
17
100
AcDbEntity
  8
СИРЕНЬ ОБЫКНОВЕННАЯ
100
AcDbPoint
 10
28.888730162779176
 20
29.73725830020303
 30
0.0
  0
POINT
  5
1FE
330
17
100
AcDbEntity
  8
СИРЕНЬ ОБЫКНОВЕННАЯ
100
AcDbPoint
 10
29.807968978321682
 20
30.656497115745537
 30
0.0
  0
POINT
  5
1FF
330
17
100
AcDbEntity
  8
СИРЕНЬ ОБЫКНОВЕННАЯ
100
AcDbPoint
 10
30.72720779386419
 20
31.575735931288044
 30
0.0
  0
POINT
  5
200
330
17
100
AcDbEntity
  8
СИРЕНЬ ОБЫКНОВЕННАЯ
100
AcDbPoint
 10
31.646446609406702
 20
32.49497474683056
 30
0.0
  0
POINT
  5
201
330
17
100
AcDbEntity
  8
СИРЕНЬ ОБЫКНОВЕННАЯ
100
AcDbPoint
 10
32.565685424949216
 20
33.41421356237307
 30
0.0
  0
POINT
  5
202
330
17
100
AcDbEntity
  8
СИРЕНЬ ОБЫКНОВЕННАЯ
100
AcDbPoint
 10
33.48492424049172
 20
34.33345237791558
 30
0.0
  0
POINT
  5
203
330
17
100
AcDbEntity
  8
СИРЕНЬ ОБЫКНОВЕННАЯ
100
AcDbPoint
 10
34.40416305603423
 20
35.252691193458084
 30
0.0
  0
POINT
  5
204
330
17
100
AcDbEntity
  8
СИРЕНЬ ОБЫКНОВЕННАЯ
100
AcDbPoint
 10
35.32340187157674
 20
36.1719300090006
 30
0.0
  0
POINT
  5
205
330
17
100
AcDbEntity
  8
СИРЕНЬ ОБЫКНОВЕННАЯ
100
AcDbPoint
 10
36.242640687119255
 20
37.09116882454311
 30
0.0
  0
POINT
  5
206
330
17
100
AcDbEntity
  8
СИРЕНЬ ОБЫКНОВЕННАЯ
100
AcDbPoint
 10
37.16187950266176
 20
38.01040764008562
 30
0.0
  0
POINT
  5
207
330
17
100
AcDbEntity
  8
СИРЕНЬ ОБЫКНОВЕННАЯ
100
AcDbPoint
 10
38.081118318204275
 20
38.92964645562813
 30
0.0
  0
POINT
  5
208
330
17
100
AcDbEntity
  8
СИРЕНЬ ОБЫКНОВЕННАЯ
100
AcDbPoint
 10
39.00035713374678
 20
39.84888527117064
 30
0.0
  0
POINT
  5
209
330
17
100
AcDbEntity
  8
СИРЕНЬ ОБЫКНОВЕННАЯ
100
AcDbPoint
 10
39.91959594928929
 20
40.768124086713144
 30
0.0
  0
POINT
  5
20A
330
17
100
AcDbEntity
  8
СИРЕНЬ ОБЫКНОВЕННАЯ
100
AcDbPoint
 10
40.8388347648318
 20
41.68736290225566
 30
0.0
  0
POINT
  5
20B
330
17
100
AcDbEntity
  8
СИРЕНЬ ОБЫКНОВЕННАЯ
100
AcDbPoint
 10
41.75807358037431
 20
42.60660171779816
 30
0.0
  0
POINT
  5
20C
330
17
100
AcDbEntity
  8
СИРЕНЬ ОБЫКНОВЕННАЯ
100
AcDbPoint
 10
42.67731239591682
 20
43.52584053334068
 30
0.0
  0
POINT
  5
20D
330
17
100
AcDbEntity
  8
СИРЕНЬ ОБЫКНОВЕННАЯ
100
AcDbPoint
 10
43.59655121145933
 20
44.44507934888318
 30
0.0
  0
POINT
  5
20E
330
17
100
AcDbEntity
  8
СИРЕНЬ ОБЫКНОВЕННАЯ
100
AcDbPoint
 10
44.51579002700184
 20
45.3643181644257
 30
0.0
  0
POINT
  5
20F
330
17
100
AcDbEntity
  8
СИРЕНЬ ОБЫКНОВЕННАЯ
100
AcDbPoint
 10
45.435028842544355
 20
46.28355697996821
 30
0.0
  0
POINT
  5
210
330
17
100
AcDbEntity
  8
СИРЕНЬ ОБЫКНОВЕННАЯ
100
AcDbPoint
 10
46.35426765808686
 20
47.20279579551072
 30
0.0
  0
POINT
  5
211
330
17
100
AcDbEntity
  8
СИРЕНЬ ОБЫКНОВЕННАЯ
100
AcDbPoint
 10
47.273506473629375
 20
48.12203461105323
 30
0.0
  0
POINT
  5
212
330
17
100
AcDbEntity
  8
СИРЕНЬ ОБЫКНОВЕННАЯ
100
AcDbPoint
 10
48.19274528917189
 20
49.041273426595744
 30
0.0
  0
POINT
  5
213
330
17
100
AcDbEntity
  8
СИРЕНЬ ОБЫКНОВЕННАЯ
100
AcDbPoint
 10
49.11198410471439
 20
49.96051224213824
 30
0.0
  0
POINT
  5
214
330
17
100
AcDbEntity
  8
СИРЕНЬ ОБЫКНОВЕННАЯ
100
AcDbPoint
 10
50.0312229202569
 20
50.87975105768076
 30
0.0
  0
POINT
  5
215
330
17
100
AcDbEntity
  8
СИРЕНЬ ОБЫКНОВЕННАЯ
100
AcDbPoint
 10
50.950461735799415
 20
51.79898987322327
 30
0.0
  0
POINT
  5
216
330
17
100
AcDbEntity
  8
СИРЕНЬ ОБЫКНОВЕННАЯ
100
AcDbPoint
 10
51.86970055134192
 20
52.71822868876578
 30
0.0
  0
POINT
  5
217
330
17
100
AcDbEntity
  8
СИРЕНЬ ОБЫКНОВЕННАЯ
100
AcDbPoint
 10
52.788939366884435
 20
53.63746750430829
 30
0.0
  0
POINT
  5
218
330
17
100
AcDbEntity
  8
СИРЕНЬ ОБЫКНОВЕННАЯ
100
AcDbPoint
 10
53.70817818242695
 20
54.556706319850804
 30
0.0
  0
POINT
  5
219
330
17
100
AcDbEntity
  8
СИРЕНЬ ОБЫКНОВЕННАЯ
100
AcDbPoint
 10
54.62741699796945
 20
55.4759451353933
 30
0.0
  0
POINT
  5
21A
330
17
100
AcDbEntity
  8
СИРЕНЬ ОБЫКНОВЕННАЯ
100
AcDbPoint
 10
55.54665581351196
 20
56.39518395093582
 30
0.0
  0
POINT
  5
21B
330
17
100
AcDbEntity
  8
СИРЕНЬ ОБЫКНОВЕННАЯ
100
AcDbPoint
 10
56.465894629054475
 20
57.31442276647833
 30
0.0
  0
POINT
  5
21C
330
17
100
AcDbEntity
  8
СИРЕНЬ ОБЫКНОВЕННАЯ
100
AcDbPoint
 10
57.38513344459698
 20
58.23366158202084
 30
0.0
  0
POINT
  5
21D
330
17
100
AcDbEntity
  8
СИРЕНЬ ОБЫКНОВЕННАЯ
100
AcDbPoint
 10
60.14284989122451
 20
60.99137802864836
 30
0.0
  0
POINT
  5
21E
330
17
100
AcDbEntity
  8
СИРЕНЬ ОБЫКНОВЕННАЯ
100
AcDbPoint
 10
61.06208870676702
 20
61.910616844190876
 30
0.0
  0
POINT
  5
21F
330
17
100
AcDbEntity
  8
СИРЕНЬ ОБЫКНОВЕННАЯ
100
AcDbPoint
 10
61.98132752230952
 20
62.829855659733376
 30
0.0
  0
POINT
  5
220
330
17
100
AcDbEntity
  8
СПИРЕЯ ВАНГУТТА
100
AcDbPoint
 10
1.3469210355631605
 20
10.397887834750968
 30
0.0
  0
POINT
  5
221
330
17
100
AcDbEntity
  8
СПИРЕЯ ВАНГУТТА
100
AcDbPoint
 10
2.266159851105672
 20
11.31712665029348
 30
0.0
  0
POINT
  5
222
330
17
100
AcDbEntity
  8
СПИРЕЯ ВАНГУТТА
100
AcDbPoint
 10
3.185398666648184
 20
12.236365465835991
 30
0.0
  0
POINT
  5
223
330
17
100
AcDbEntity
  8
СПИРЕЯ ВАНГУТТА
100
AcDbPoint
 10
4.1046374821906975
 20
13.155604281378505
 30
0.0
  0
POINT
  5
224
330
17
100
AcDbEntity
  8
СПИРЕЯ ВАНГУТТА
100
AcDbPoint
 10
5.023876297733209
 20
14.074843096921017
 30
0.0
  0
POINT
  5
225
330
17
100
AcDbEntity
  8
СПИРЕЯ ВАНГУТТА
100
AcDbPoint
 10
5.943115113275721
 20
14.994081912463528
 30
0.0
  0
POINT
  5
226
330
17
100
AcDbEntity
  8
СПИРЕЯ ВАНГУТТА
100
AcDbPoint
 10
6.8623539288182345
 20
15.913320728006042
 30
0.0
  0
POINT
  5
227
330
17
100
AcDbEntity
  8
СПИРЕЯ ВАНГУТТА
100
AcDbPoint
 10
7.781592744360746
 20
16.832559543548555
 30
0.0
  0
POINT
  5
228
330
17
100
AcDbEntity
  8
СПИРЕЯ ВАНГУТТА
100
AcDbPoint
 10
8.700831559903257
 20
17.751798359091065
 30
0.0
  0
POINT
  5
229
330
17
100
AcDbEntity
  8
СПИРЕЯ ВАНГУТТА
100
AcDbPoint
 10
9.62007037544577
 20
18.67103717463358
 30
0.0
  0
POINT
  5
22A
330
17
100
AcDbEntity
  8
СПИРЕЯ ВАНГУТТА
100
AcDbPoint
 10
10.53930919098828
 20
19.59027599017609
 30
0.0
  0
POINT
  5
22B
330
17
100
AcDbEntity
  8
СПИРЕЯ ВАНГУТТА
100
AcDbPoint
 10
11.458548006530794
 20
20.509514805718602
 30
0.0
  0
POINT
  5
22C
330
17
100
AcDbEntity
  8
СПИРЕЯ ВАНГУТТА
100
AcDbPoint
 10
12.377786822073304
 20
21.428753621261112
 30
0.0
  0
POINT
  5
22D
330
17
100
AcDbEntity
  8
СПИРЕЯ ВАНГУТТА
100
AcDbPoint
 10
13.297025637615818
 20
22.347992436803626
 30
0.0
  0
POINT
  5
22E
330
17
100
AcDbEntity
  8
СПИРЕЯ ВАНГУТТА
100
AcDbPoint
 10
14.216264453158331
 20
23.26723125234614
 30
0.0
  0
POINT
  5
22F
330
17
100
AcDbEntity
  8
СПИРЕЯ ВАНГУТТА
100
AcDbPoint
 10
15.135503268700841
 20
24.18647006788865
 30
0.0
  0
POINT
  5
230
330
17
100
AcDbEntity
  8
СПИРЕЯ ВАНГУТТА
100
AcDbPoint
 10
16.054742084243355
 20
25.105708883431163
 30
0.0
  0
POINT
  5
231
330
17
100
AcDbEntity
  8
СПИРЕЯ ВАНГУТТА
100
AcDbPoint
 10
16.973980899785868
 20
26.024947698973676
 30
0.0
  0
POINT
  5
232
330
17
100
AcDbEntity
  8
СПИРЕЯ ВАНГУТТА
100
AcDbPoint
 10
17.893219715328375
 20
26.944186514516183
 30
0.0
  0
POINT
  5
233
330
17
100
AcDbEntity
  8
СПИРЕЯ ВАНГУТТА
100
AcDbPoint
 10
18.812458530870888
 20
27.863425330058696
 30
0.0
  0
POINT
  5
234
330
17
100
AcDbEntity
  8
СПИРЕЯ ВАНГУТТА
100
AcDbPoint
 10
19.731697346413398
 20
28.782664145601206
 30
0.0
  0
POINT
  5
235
330
17
100
AcDbEntity
  8
СПИРЕЯ ВАНГУТТА
100
AcDbPoint
 10
20.650936161955904
 20
29.701902961143713
 30
0.0
  0
POINT
  5
236
330
17
100
AcDbEntity
  8
СПИРЕЯ ВАНГУТТА
100
AcDbPoint
 10
21.570174977498418
 20
30.621141776686226
 30
0.0
  0
POINT
  5
237
330
17
100
AcDbEntity
  8
СПИРЕЯ ВАНГУТТА
100
AcDbPoint
 10
22.48941379304093
 20
31.540380592228736
 30
0.0
  0
POINT
  5
238
330
17
100
AcDbEntity
  8
СПИРЕЯ ВАНГУТТА
100
AcDbPoint
 10
23.408652608583434
 20
32.45961940777124
 30
0.0
  0
POINT
  5
239
330
17
100
AcDbEntity
  8
СПИРЕЯ ВАНГУТТА
100
AcDbPoint
 10
24.327891424125944
 20
33.37885822331375
 30
0.0
  0
POINT
  5
23A
330
17
100
AcDbEntity
  8
СПИРЕЯ ВАНГУТТА
100
AcDbPoint
 10
25.24713023966846
 20
34.29809703885626
 30
0.0
  0
POINT
  5
23B
330
17
100
AcDbEntity
  8
СПИРЕЯ ВАНГУТТА
100
AcDbPoint
 10
26.166369055210968
 20
35.217335854398776
 30
0.0
  0
POINT
  5
23C
330
17
100
AcDbEntity
  8
СПИРЕЯ ВАНГУТТА
100
AcDbPoint
 10
27.085607870753474
 20
36.13657466994128
 30
0.0
  0
POINT
  5
23D
330
17
100
AcDbEntity
  8
СПИРЕЯ ВАНГУТТА
100
AcDbPoint
 10
28.00484668629598
 20
37.05581348548379
 30
0.0
  0
POINT
  5
23E
330
17
100
AcDbEntity
  8
СПИРЕЯ ВАНГУТТА
100
AcDbPoint
 10
28.924085501838494
 20
37.9750523010263
 30
0.0
  0
POINT
  5
23F
330
17
100
AcDbEntity
  8
СПИРЕЯ ВАНГУТТА
100
AcDbPoint
 10
29.843324317381008
 20
38.894291116568816
 30
0.0
  0
POINT
  5
240
330
17
100
AcDbEntity
  8
СПИРЕЯ ВАНГУТТА
100
AcDbPoint
 10
30.762563132923514
 20
39.81352993211132
 30
0.0
  0
POINT
  5
241
330
17
100
AcDbEntity
  8
СПИРЕЯ ВАНГУТТА
100
AcDbPoint
 10
31.681801948466028
 20
40.732768747653836
 30
0.0
  0
POINT
  5
242
330
17
100
AcDbEntity
  8
СПИРЕЯ ВАНГУТТА
100
AcDbPoint
 10
32.60104076400854
 20
41.65200756319634
 30
0.0
  0
POINT
  5
243
330
17
100
AcDbEntity
  8
СПИРЕЯ ВАНГУТТА
100
AcDbPoint
 10
33.52027957955104
 20
42.57124637873885
 30
0.0
  0
POINT
  5
244
330
17
100
AcDbEntity
  8
СПИРЕЯ ВАНГУТТА
100
AcDbPoint
 10
34.43951839509355
 20
43.49048519428136
 30
0.0
  0
POINT
  5
245
330
17
100
AcDbEntity
  8
СПИРЕЯ ВАНГУТТА
100
AcDbPoint
 10
35.358757210636064
 20
44.409724009823876
 30
0.0
  0
POINT
  5
246
330
17
100
AcDbEntity
  8
СПИРЕЯ ВАНГУТТА
100
AcDbPoint
 10
36.27799602617858
 20
45.32896282536638
 30
0.0
  0
POINT
  5
247
330
17
100
AcDbEntity
  8
СПИРЕЯ ВАНГУТТА
100
AcDbPoint
 10
37.19723484172108
 20
46.24820164090889
 30
0.0
  0
POINT
  5
248
330
17
100
AcDbEntity
  8
СПИРЕЯ ВАНГУТТА
100
AcDbPoint
 10
38.11647365726359
 20
47.167440456451395
 30
0.0
  0
POINT
  5
249
330
17
100
AcDbEntity
  8
СПИРЕЯ ВАНГУТТА
100
AcDbPoint
 10
39.035712472806104
 20
48.086679271993916
 30
0.0
  0
POINT
  5
24A
330
17
100
AcDbEntity
  8
СПИРЕЯ ВАНГУТТА
100
AcDbPoint
 10
39.95495128834862
 20
49.00591808753642
 30
0.0
  0
POINT
  5
24B
330
17
100
AcDbEntity
  8
СПИРЕЯ ВАНГУТТА
100
AcDbPoint
 10
40.87419010389113
 20
49.925156903078935
 30
0.0
  0
POINT
  5
24C
330
17
100
AcDbEntity
  8
СПИРЕЯ ВАНГУТТА
100
AcDbPoint
 10
41.793428919433644
 20
50.84439571862145
 30
0.0
  0
POINT
  5
24D
330
17
100
AcDbEntity
  8
СПИРЕЯ ВАНГУТТА
100
AcDbPoint
 10
42.712667734976144
 20
51.76363453416395
 30
0.0
  0
POINT
  5
24E
330
17
100
AcDbEntity
  8
СПИРЕЯ ВАНГУТТА
100
AcDbPoint
 10
43.63190655051866
 20
52.68287334970646
 30
0.0
  0
POINT
  5
24F
330
17
100
AcDbEntity
  8
СПИРЕЯ ВАНГУТТА
100
AcDbPoint
 10
44.55114536606117
 20
53.602112165248975
 30
0.0
  0
POINT
  5
250
330
17
100
AcDbEntity
  8
СПИРЕЯ ВАНГУТТА
100
AcDbPoint
 10
45.47038418160367
 20
54.52135098079148
 30
0.0
  0
POINT
  5
251
330
17
100
AcDbEntity
  8
СПИРЕЯ ВАНГУТТА
100
AcDbPoint
 10
46.38962299714618
 20
55.440589796333995
 30
0.0
  0
POINT
  5
252
330
17
100
AcDbEntity
  8
СПИРЕЯ ВАНГУТТА
100
AcDbPoint
 10
47.3088618126887
 20
56.35982861187651
 30
0.0
  0
POINT
  5
253
330
17
100
AcDbEntity
  8
СПИРЕЯ ВАНГУТТА
100
AcDbPoint
 10
48.228100628231196
 20
57.27906742741901
 30
0.0
  0
POINT
  5
254
330
17
100
AcDbEntity
  8
СПИРЕЯ ВАНГУТТА
100
AcDbPoint
 10
49.14733944377371
 20
58.19830624296152
 30
0.0
  0
POINT
  5
255
330
17
100
AcDbEntity
  8
СПИРЕЯ ВАНГУТТА
100
AcDbPoint
 10
50.06657825931622
 20
59.117545058504035
 30
0.0
  0
POINT
  5
256
330
17
100
AcDbEntity
  8
СПИРЕЯ ВАНГУТТА
100
AcDbPoint
 10
50.98581707485874
 20
60.03678387404654
 30
0.0
  0
POINT
  5
257
330
17
100
AcDbEntity
  8
СПИРЕЯ ВАНГУТТА
100
AcDbPoint
 10
51.90505589040125
 20
60.956022689589055
 30
0.0
  0
POINT
  5
258
330
17
100
AcDbEntity
  8
СПИРЕЯ ВАНГУТТА
100
AcDbPoint
 10
52.82429470594375
 20
61.87526150513156
 30
0.0
  0
POINT
  5
259
330
17
100
AcDbEntity
  8
СПИРЕЯ ВАНГУТТА
100
AcDbPoint
 10
53.74353352148626
 20
62.79450032067407
 30
0.0
  0
POINT
  5
25A
330
17
100
AcDbEntity
  8
СПИРЕЯ ВАНГУТТА
100
AcDbPoint
 10
0.9580123059105601
 20
11.70603537994608
 30
0.0
  0
POINT
  5
25B
330
17
100
AcDbEntity
  8
СПИРЕЯ ВАНГУТТА
100
AcDbPoint
 10
1.87725112145307
 20
12.62527419548859
 30
0.0
  0
POINT
  5
25C
330
17
100
AcDbEntity
  8
СПИРЕЯ ВАНГУТТА
100
AcDbPoint
 10
2.7964899369955836
 20
13.544513011031103
 30
0.0
  0
POINT
  5
25D
330
17
100
AcDbEntity
  8
СПИРЕЯ ВАНГУТТА
100
AcDbPoint
 10
3.7157287525380953
 20
14.463751826573615
 30
0.0
  0
POINT
  5
25E
330
17
100
AcDbEntity
  8
СПИРЕЯ ВАНГУТТА
100
AcDbPoint
 10
4.634967568080607
 20
15.382990642116127
 30
0.0
  0
POINT
  5
25F
330
17
100
AcDbEntity
  8
СПИРЕЯ ВАНГУТТА
100
AcDbPoint
 10
5.554206383623119
 20
16.30222945765864
 30
0.0
  0
POINT
  5
260
330
17
100
AcDbEntity
  8
СПИРЕЯ ВАНГУТТА
100
AcDbPoint
 10
6.4734451991656305
 20
17.22146827320115
 30
0.0
  0
POINT
  5
261
330
17
100
AcDbEntity
  8
СПИРЕЯ ВАНГУТТА
100
AcDbPoint
 10
7.392684014708144
 20
18.140707088743664
 30
0.0
  0
POINT
  5
262
330
17
100
AcDbEntity
  8
СПИРЕЯ ВАНГУТТА
100
AcDbPoint
 10
8.311922830250657
 20
19.059945904286174
 30
0.0
  0
POINT
  5
263
330
17
100
AcDbEntity
  8
СПИРЕЯ ВАНГУТТА
100
AcDbPoint
 10
9.231161645793168
 20
19.979184719828687
 30
0.0
  0
POINT
  5
264
330
17
100
AcDbEntity
  8
СПИРЕЯ ВАНГУТТА
100
AcDbPoint
 10
10.150400461335682
 20
20.8984235353712
 30
0.0
  0
POINT
  5
265
330
17
100
AcDbEntity
  8
СПИРЕЯ ВАНГУТТА
100
AcDbPoint
 10
11.069639276878195
 20
21.817662350913714
 30
0.0
  0
POINT
  5
266
330
17
100
AcDbEntity
  8
СПИРЕЯ ВАНГУТТА
100
AcDbPoint
 10
11.988878092420705
 20
22.736901166456224
 30
0.0
  0
POINT
  5
267
330
17
100
AcDbEntity
  8
СПИРЕЯ ВАНГУТТА
100
AcDbPoint
 10
12.908116907963219
 20
23.656139981998738
 30
0.0
  0
POINT
  5
268
330
17
100
AcDbEntity
  8
СПИРЕЯ ВАНГУТТА
100
AcDbPoint
 10
13.827355723505732
 20
24.57537879754125
 30
0.0
  0
POINT
  5
269
330
17
100
AcDbEntity
  8
СПИРЕЯ ВАНГУТТА
100
AcDbPoint
 10
14.746594539048242
 20
25.49461761308376
 30
0.0
  0
POINT
  5
26A
330
17
100
AcDbEntity
  8
СПИРЕЯ ВАНГУТТА
100
AcDbPoint
 10
15.665833354590752
 20
26.41385642862627
 30
0.0
  0
POINT
  5
26B
330
17
100
AcDbEntity
  8
СПИРЕЯ ВАНГУТТА
100
AcDbPoint
 10
16.585072170133262
 20
27.33309524416878
 30
0.0
  0
POINT
  5
26C
330
17
100
AcDbEntity
  8
СПИРЕЯ ВАНГУТТА
100
AcDbPoint
 10
17.504310985675772
 20
28.25233405971129
 30
0.0
  0
POINT
  5
26D
330
17
100
AcDbEntity
  8
СПИРЕЯ ВАНГУТТА
100
AcDbPoint
 10
18.423549801218282
 20
29.1715728752538
 30
0.0
  0
POINT
  5
26E
330
17
100
AcDbEntity
  8
СПИРЕЯ ВАНГУТТА
100
AcDbPoint
 10
19.34278861676079
 20
30.090811690796308
 30
0.0
  0
POINT
  5
26F
330
17
100
AcDbEntity
  8
СПИРЕЯ ВАНГУТТА
100
AcDbPoint
 10
20.262027432303302
 20
31.01005050633882
 30
0.0
  0
POINT
  5
270
330
17
100
AcDbEntity
  8
СПИРЕЯ ВАНГУТТА
100
AcDbPoint
 10
21.181266247845812
 20
31.92928932188133
 30
0.0
  0
POINT
  5
271
330
17
100
AcDbEntity
  8
СПИРЕЯ ВАНГУТТА
100
AcDbPoint
 10
22.10050506338832
 20
32.848528137423834
 30
0.0
  0
POINT
  5
272
330
17
100
AcDbEntity
  8
СПИРЕЯ ВАНГУТТА
100
AcDbPoint
 10
23.019743878930825
 20
33.76776695296635
 30
0.0
  0
POINT
  5
273
330
17
100
AcDbEntity
  8
СПИРЕЯ ВАНГУТТА
100
AcDbPoint
 10
23.93898269447334
 20
34.68700576850886
 30
0.0
  0
POINT
  5
274
330
17
100
AcDbEntity
  8
СПИРЕЯ ВАНГУТТА
100
AcDbPoint
 10
24.85822151001585
 20
35.60624458405137
 30
0.0
  0
POINT
  5
275
330
17
100
AcDbEntity
  8
СПИРЕЯ ВАНГУТТА
100
AcDbPoint
 10
25.777460325558355
 20
36.525483399593874
 30
0.0
  0
POINT
  5
276
330
17
100
AcDbEntity
  8
СПИРЕЯ ВАНГУТТА
100
AcDbPoint
 10
26.69669914110087
 20
37.44472221513639
 30
0.0
  0
POINT
  5
277
330
17
100
AcDbEntity
  8
СПИРЕЯ ВАНГУТТА
100
AcDbPoint
 10
27.615937956643382
 20
38.3639610306789
 30
0.0
  0
POINT
  5
278
330
17
100
AcDbEntity
  8
СПИРЕЯ ВАНГУТТА
100
AcDbPoint
 10
28.53517677218589
 20
39.28319984622141
 30
0.0
  0
POINT
  5
279
330
17
100
AcDbEntity
  8
СПИРЕЯ ВАНГУТТА
100
AcDbPoint
 10
29.454415587728395
 20
40.202438661763914
 30
0.0
  0
POINT
  5
27A
330
17
100
AcDbEntity
  8
СПИРЕЯ ВАНГУТТА
100
AcDbPoint
 10
30.37365440327091
 20
41.12167747730643
 30
0.0
  0
POINT
  5
27B
330
17
100
AcDbEntity
  8
СПИРЕЯ ВАНГУТТА
100
AcDbPoint
 10
31.29289321881342
 20
42.04091629284894
 30
0.0
  0
POINT
  5
27C
330
17
100
AcDbEntity
  8
СПИРЕЯ ВАНГУТТА
100
AcDbPoint
 10
32.212132034355925
 20
42.96015510839145
 30
0.0
  0
POINT
  5
27D
330
17
100
AcDbEntity
  8
СПИРЕЯ ВАНГУТТА
100
AcDbPoint
 10
33.13137084989844
 20
43.87939392393396
 30
0.0
  0
POINT
  5
27E
330
17
100
AcDbEntity
  8
СПИРЕЯ ВАНГУТТА
100
AcDbPoint
 10
34.05060966544095
 20
44.79863273947647
 30
0.0
  0
POINT
  5
27F
330
17
100
AcDbEntity
  8
СПИРЕЯ ВАНГУТТА
100
AcDbPoint
 10
34.96984848098345
 20
45.717871555018974
 30
0.0
  0
POINT
  5
280
330
17
100
AcDbEntity
  8
СПИРЕЯ ВАНГУТТА
100
AcDbPoint
 10
35.889087296525965
 20
46.63711037056149
 30
0.0
  0
POINT
  5
281
330
17
100
AcDbEntity
  8
СПИРЕЯ ВАНГУТТА
100
AcDbPoint
 10
36.80832611206848
 20
47.55634918610399
 30
0.0
  0
POINT
  5
282
330
17
100
AcDbEntity
  8
СПИРЕЯ ВАНГУТТА
100
AcDbPoint
 10
37.72756492761099
 20
48.47558800164651
 30
0.0
  0
POINT
  5
283
330
17
100
AcDbEntity
  8
СПИРЕЯ ВАНГУТТА
100
AcDbPoint
 10
38.64680374315349
 20
49.39482681718901
 30
0.0
  0
POINT
  5
284
330
17
100
AcDbEntity
  8
СПИРЕЯ ВАНГУТТА
100
AcDbPoint
 10
39.566042558696005
 20
50.31406563273153
 30
0.0
  0
POINT
  5
285
330
17
100
AcDbEntity
  8
СПИРЕЯ ВАНГУТТА
100
AcDbPoint
 10
40.48528137423852
 20
51.23330444827404
 30
0.0
  0
POINT
  5
286
330
17
100
AcDbEntity
  8
СПИРЕЯ ВАНГУТТА
100
AcDbPoint
 10
41.40452018978103
 20
52.15254326381655
 30
0.0
  0
POINT
  5
287
330
17
100
AcDbEntity
  8
СПИРЕЯ ВАНГУТТА
100
AcDbPoint
 10
42.323759005323545
 20
53.07178207935906
 30
0.0
  0
POINT
  5
288
330
17
100
AcDbEntity
  8
СПИРЕЯ ВАНГУТТА
100
AcDbPoint
 10
43.24299782086606
 20
53.991020894901574
 30
0.0
  0
POINT
  5
289
330
17
100
AcDbEntity
  8
СПИРЕЯ ВАНГУТТА
100
AcDbPoint
 10
44.16223663640856
 20
54.91025971044407
 30
0.0
  0
POINT
  5
28A
330
17
100
AcDbEntity
  8
СПИРЕЯ ВАНГУТТА
100
AcDbPoint
 10
45.08147545195107
 20
55.82949852598659
 30
0.0
  0
POINT
  5
28B
330
17
100
AcDbEntity
  8
СПИРЕЯ ВАНГУТТА
100
AcDbPoint
 10
46.000714267493585
 20
56.7487373415291
 30
0.0
  0
POINT
  5
28C
330
17
100
AcDbEntity
  8
СПИРЕЯ ВАНГУТТА
100
AcDbPoint
 10
46.919953083036084
 20
57.66797615707161
 30
0.0
  0
POINT
  5
28D
330
17
100
AcDbEntity
  8
СПИРЕЯ ВАНГУТТА
100
AcDbPoint
 10
47.8391918985786
 20
58.58721497261412
 30
0.0
  0
POINT
  5
28E
330
17
100
AcDbEntity
  8
СПИРЕЯ ВАНГУТТА
100
AcDbPoint
 10
48.75843071412111
 20
59.506453788156634
 30
0.0
  0
POINT
  5
28F
330
17
100
AcDbEntity
  8
СПИРЕЯ ВАНГУТТА
100
AcDbPoint
 10
49.67766952966361
 20
60.42569260369913
 30
0.0
  0
POINT
  5
290
330
17
100
AcDbEntity
  8
СПИРЕЯ ВАНГУТТА
100
AcDbPoint
 10
50.596908345206124
 20
61.34493141924165
 30
0.0
  0
POINT
  5
291
330
17
100
AcDbEntity
  8
СПИРЕЯ ВАНГУТТА
100
AcDbPoint
 10
51.51614716074864
 20
62.26417023478416
 30
0.0
  0
POINT
  5
292
330
17
100
AcDbEntity
  8
СПИРЕЯ ВАНГУТТА
100
AcDbPoint
 10
52.43538597629115
 20
63.18340905032667
 30
0.0
  0
POINT
  5
293
330
17
100
AcDbEntity
  8
ДЕРЕН КРОВАВО-КРАСНЫЙ
100
AcDbPoint
 10
0.9933676449698885
 20
19.943829380769365
 30
0.0
  0
POINT
  5
294
330
17
100
AcDbEntity
  8
ДЕРЕН КРОВАВО-КРАСНЫЙ
100
AcDbPoint
 10
1.9126064605124014
 20
20.86306819631188
 30
0.0
  0
POINT
  5
295
330
17
100
AcDbEntity
  8
ДЕРЕН КРОВАВО-КРАСНЫЙ
100
AcDbPoint
 10
2.8318452760549127
 20
21.782307011854392
 30
0.0
  0
POINT
  5
296
330
17
100
AcDbEntity
  8
ДЕРЕН КРОВАВО-КРАСНЫЙ
100
AcDbPoint
 10
3.7510840915974244
 20
22.701545827396902
 30
0.0
  0
POINT
  5
297
330
17
100
AcDbEntity
  8
ДЕРЕН КРОВАВО-КРАСНЫЙ
100
AcDbPoint
 10
4.670322907139937
 20
23.620784642939416
 30
0.0
  0
POINT
  5
298
330
17
100
AcDbEntity
  8
ДЕРЕН КРОВАВО-КРАСНЫЙ
100
AcDbPoint
 10
5.589561722682448
 20
24.540023458481926
 30
0.0
  0
POINT
  5
299
330
17
100
AcDbEntity
  8
ДЕРЕН КРОВАВО-КРАСНЫЙ
100
AcDbPoint
 10
6.508800538224961
 20
25.45926227402444
 30
0.0
  0
POINT
  5
29A
330
17
100
AcDbEntity
  8
ДЕРЕН КРОВАВО-КРАСНЫЙ
100
AcDbPoint
 10
7.428039353767471
 20
26.37850108956695
 30
0.0
  0
POINT
  5
29B
330
17
100
AcDbEntity
  8
ДЕРЕН КРОВАВО-КРАСНЫЙ
100
AcDbPoint
 10
8.347278169309984
 20
27.297739905109463
 30
0.0
  0
POINT
  5
29C
330
17
100
AcDbEntity
  8
ДЕРЕН КРОВАВО-КРАСНЫЙ
100
AcDbPoint
 10
9.266516984852498
 20
28.216978720651976
 30
0.0
  0
POINT
  5
29D
330
17
100
AcDbEntity
  8
ДЕРЕН КРОВАВО-КРАСНЫЙ
100
AcDbPoint
 10
10.185755800395007
 20
29.136217536194486
 30
0.0
  0
POINT
  5
29E
330
17
100
AcDbEntity
  8
ДЕРЕН КРОВАВО-КРАСНЫЙ
100
AcDbPoint
 10
11.104994615937521
 20
30.055456351737
 30
0.0
  0
POINT
  5
29F
330
17
100
AcDbEntity
  8
ДЕРЕН КРОВАВО-КРАСНЫЙ
100
AcDbPoint
 10
12.024233431480035
 20
30.974695167279513
 30
0.0
  0
POINT
  5
2A0
330
17
100
AcDbEntity
  8
ДЕРЕН КРОВАВО-КРАСНЫЙ
100
AcDbPoint
 10
12.943472247022541
 20
31.89393398282202
 30
0.0
  0
POINT
  5
2A1
330
17
100
AcDbEntity
  8
ДЕРЕН КРОВАВО-КРАСНЫЙ
100
AcDbPoint
 10
13.862711062565054
 20
32.81317279836453
 30
0.0
  0
POINT
  5
2A2
330
17
100
AcDbEntity
  8
ДЕРЕН КРОВАВО-КРАСНЫЙ
100
AcDbPoint
 10
14.781949878107564
 20
33.73241161390704
 30
0.0
  0
POINT
  5
2A3
330
17
100
AcDbEntity
  8
ДЕРЕН КРОВАВО-КРАСНЫЙ
100
AcDbPoint
 10
15.701188693650073
 20
34.65165042944955
 30
0.0
  0
POINT
  5
2A4
330
17
100
AcDbEntity
  8
ДЕРЕН КРОВАВО-КРАСНЫЙ
100
AcDbPoint
 10
16.620427509192584
 20
35.57088924499207
 30
0.0
  0
POINT
  5
2A5
330
17
100
AcDbEntity
  8
ДЕРЕН КРОВАВО-КРАСНЫЙ
100
AcDbPoint
 10
17.539666324735094
 20
36.49012806053457
 30
0.0
  0
POINT
  5
2A6
330
17
100
AcDbEntity
  8
ДЕРЕН КРОВАВО-КРАСНЫЙ
100
AcDbPoint
 10
18.458905140277604
 20
37.40936687607708
 30
0.0
  0
POINT
  5
2A7
330
17
100
AcDbEntity
  8
ДЕРЕН КРОВАВО-КРАСНЫЙ
100
AcDbPoint
 10
19.378143955820114
 20
38.32860569161959
 30
0.0
  0
POINT
  5
2A8
330
17
100
AcDbEntity
  8
ДЕРЕН КРОВАВО-КРАСНЫЙ
100
AcDbPoint
 10
20.297382771362624
 20
39.24784450716211
 30
0.0
  0
POINT
  5
2A9
330
17
100
AcDbEntity
  8
ДЕРЕН КРОВАВО-КРАСНЫЙ
100
AcDbPoint
 10
21.216621586905134
 20
40.16708332270461
 30
0.0
  0
POINT
  5
2AA
330
17
100
AcDbEntity
  8
ДЕРЕН КРОВАВО-КРАСНЫЙ
100
AcDbPoint
 10
22.13586040244764
 20
41.08632213824712
 30
0.0
  0
POINT
  5
2AB
330
17
100
AcDbEntity
  8
ДЕРЕН КРОВАВО-КРАСНЫЙ
100
AcDbPoint
 10
23.055099217990147
 20
42.005560953789626
 30
0.0
  0
POINT
  5
2AC
330
17
100
AcDbEntity
  8
ДЕРЕН КРОВАВО-КРАСНЫЙ
100
AcDbPoint
 10
23.97433803353266
 20
42.92479976933214
 30
0.0
  0
POINT
  5
2AD
330
17
100
AcDbEntity
  8
ДЕРЕН КРОВАВО-КРАСНЫЙ
100
AcDbPoint
 10
24.893576849075174
 20
43.84403858487465
 30
0.0
  0
POINT
  5
2AE
330
17
100
AcDbEntity
  8
ДЕРЕН КРОВАВО-КРАСНЫЙ
100
AcDbPoint
 10
25.81281566461768
 20
44.76327740041716
 30
0.0
  0
POINT
  5
2AF
330
17
100
AcDbEntity
  8
ДЕРЕН КРОВАВО-КРАСНЫЙ
100
AcDbPoint
 10
26.732054480160194
 20
45.68251621595967
 30
0.0
  0
POINT
  5
2B0
330
17
100
AcDbEntity
  8
ДЕРЕН КРОВАВО-КРАСНЫЙ
100
AcDbPoint
 10
27.6512932957027
 20
46.60175503150218
 30
0.0
  0
POINT
  5
2B1
330
17
100
AcDbEntity
  8
ДЕРЕН КРОВАВО-КРАСНЫЙ
100
AcDbPoint
 10
28.570532111245207
 20
47.520993847044686
 30
0.0
  0
POINT
  5
2B2
330
17
100
AcDbEntity
  8
ДЕРЕН КРОВАВО-КРАСНЫЙ
100
AcDbPoint
 10
29.48977092678772
 20
48.4402326625872
 30
0.0
  0
POINT
  5
2B3
330
17
100
AcDbEntity
  8
ДЕРЕН КРОВАВО-КРАСНЫЙ
100
AcDbPoint
 10
30.409009742330234
 20
49.35947147812971
 30
0.0
  0
POINT
  5
2B4
330
17
100
AcDbEntity
  8
ДЕРЕН КРОВАВО-КРАСНЫЙ
100
AcDbPoint
 10
31.32824855787274
 20
50.27871029367222
 30
0.0
  0
POINT
  5
2B5
330
17
100
AcDbEntity
  8
ДЕРЕН КРОВАВО-КРАСНЫЙ
100
AcDbPoint
 10
32.24748737341525
 20
51.197949109214726
 30
0.0
  0
POINT
  5
2B6
330
17
100
AcDbEntity
  8
ДЕРЕН КРОВАВО-КРАСНЫЙ
100
AcDbPoint
 10
33.16672618895775
 20
52.11718792475723
 30
0.0
  0
POINT
  5
2B7
330
17
100
AcDbEntity
  8
ДЕРЕН КРОВАВО-КРАСНЫЙ
100
AcDbPoint
 10
34.085965004500274
 20
53.03642674029975
 30
0.0
  0
POINT
  5
2B8
330
17
100
AcDbEntity
  8
ДЕРЕН КРОВАВО-КРАСНЫЙ
100
AcDbPoint
 10
35.00520382004278
 20
53.95566555584226
 30
0.0
  0
POINT
  5
2B9
330
17
100
AcDbEntity
  8
ДЕРЕН КРОВАВО-КРАСНЫЙ
100
AcDbPoint
 10
35.924442635585294
 20
54.87490437138477
 30
0.0
  0
POINT
  5
2BA
330
17
100
AcDbEntity
  8
ДЕРЕН КРОВАВО-КРАСНЫЙ
100
AcDbPoint
 10
36.84368145112781
 20
55.794143186927286
 30
0.0
  0
POINT
  5
2BB
330
17
100
AcDbEntity
  8
ДЕРЕН КРОВАВО-КРАСНЫЙ
100
AcDbPoint
 10
37.76292026667031
 20
56.713382002469785
 30
0.0
  0
POINT
  5
2BC
330
17
100
AcDbEntity
  8
ДЕРЕН КРОВАВО-КРАСНЫЙ
100
AcDbPoint
 10
38.68215908221282
 20
57.6326208180123
 30
0.0
  0
POINT
  5
2BD
330
17
100
AcDbEntity
  8
ДЕРЕН КРОВАВО-КРАСНЫЙ
100
AcDbPoint
 10
39.601397897755334
 20
58.55185963355481
 30
0.0
  0
POINT
  5
2BE
330
17
100
AcDbEntity
  8
ДЕРЕН КРОВАВО-КРАСНЫЙ
100
AcDbPoint
 10
40.52063671329784
 20
59.47109844909732
 30
0.0
  0
POINT
  5
2BF
330
17
100
AcDbEntity
  8
ДЕРЕН КРОВАВО-КРАСНЫЙ
100
AcDbPoint
 10
41.43987552884035
 20
60.39033726463983
 30
0.0
  0
POINT
  5
2C0
330
17
100
AcDbEntity
  8
ДЕРЕН КРОВАВО-КРАСНЫЙ
100
AcDbPoint
 10
42.35911434438287
 20
61.309576080182346
 30
0.0
  0
POINT
  5
2C1
330
17
100
AcDbEntity
  8
ДЕРЕН КРОВАВО-КРАСНЫЙ
100
AcDbPoint
 10
43.278353159925366
 20
62.228814895724845
 30
0.0
  0
POINT
  5
2C2
330
17
100
AcDbEntity
  8
ДЕРЕН КРОВАВО-КРАСНЫЙ
100
AcDbPoint
 10
44.19759197546788
 20
63.14805371126736
 30
0.0
  0
POINT
  5
2C3
330
17
100
AcDbEntity
  8
ДЕРЕН КРОВАВО-КРАСНЫЙ
100
AcDbPoint
 10
0.6044589153172848
 20
21.251976925964478
 30
0.0
  0
POINT
  5
2C4
330
17
100
AcDbEntity
  8
ДЕРЕН КРОВАВО-КРАСНЫЙ
100
AcDbPoint
 10
1.523697730859797
 20
22.171215741506987
 30
0.0
  0
POINT
  5
2C5
330
17
100
AcDbEntity
  8
ДЕРЕН КРОВАВО-КРАСНЫЙ
100
AcDbPoint
 10
2.4429365464023105
 20
23.0904545570495
 30
0.0
  0
POINT
  5
2C6
330
17
100
AcDbEntity
  8
ДЕРЕН КРОВАВО-КРАСНЫЙ
100
AcDbPoint
 10
3.3621753619448222
 20
24.00969337259201
 30
0.0
  0
POINT
  5
2C7
330
17
100
AcDbEntity
  8
ДЕРЕН КРОВАВО-КРАСНЫЙ
100
AcDbPoint
 10
4.281414177487334
 20
24.928932188134524
 30
0.0
  0
POINT
  5
2C8
330
17
100
AcDbEntity
  8
ДЕРЕН КРОВАВО-КРАСНЫЙ
100
AcDbPoint
 10
5.2006529930298475
 20
25.848171003677038
 30
0.0
  0
POINT
  5
2C9
330
17
100
AcDbEntity
  8
ДЕРЕН КРОВАВО-КРАСНЫЙ
100
AcDbPoint
 10
6.119891808572361
 20
26.76740981921955
 30
0.0
  0
POINT
  5
2CA
330
17
100
AcDbEntity
  8
ДЕРЕН КРОВАВО-КРАСНЫЙ
100
AcDbPoint
 10
7.039130624114871
 20
27.68664863476206
 30
0.0
  0
POINT
  5
2CB
330
17
100
AcDbEntity
  8
ДЕРЕН КРОВАВО-КРАСНЫЙ
100
AcDbPoint
 10
7.9583694396573845
 20
28.605887450304575
 30
0.0
  0
POINT
  5
2CC
330
17
100
AcDbEntity
  8
ДЕРЕН КРОВАВО-КРАСНЫЙ
100
AcDbPoint
 10
8.877608255199899
 20
29.52512626584709
 30
0.0
  0
POINT
  5
2CD
330
17
100
AcDbEntity
  8
ДЕРЕН КРОВАВО-КРАСНЫЙ
100
AcDbPoint
 10
9.796847070742409
 20
30.4443650813896
 30
0.0
  0
POINT
  5
2CE
330
17
100
AcDbEntity
  8
ДЕРЕН КРОВАВО-КРАСНЫЙ
100
AcDbPoint
 10
10.716085886284919
 20
31.36360389693211
 30
0.0
  0
POINT
  5
2CF
330
17
100
AcDbEntity
  8
ДЕРЕН КРОВАВО-КРАСНЫЙ
100
AcDbPoint
 10
11.635324701827429
 20
32.28284271247462
 30
0.0
  0
POINT
  5
2D0
330
17
100
AcDbEntity
  8
ДЕРЕН КРОВАВО-КРАСНЫЙ
100
AcDbPoint
 10
12.554563517369937
 20
33.202081528017125
 30
0.0
  0
POINT
  5
2D1
330
17
100
AcDbEntity
  8
ДЕРЕН КРОВАВО-КРАСНЫЙ
100
AcDbPoint
 10
13.473802332912445
 20
34.12132034355964
 30
0.0
  0
POINT
  5
2D2
330
17
100
AcDbEntity
  8
ДЕРЕН КРОВАВО-КРАСНЫЙ
100
AcDbPoint
 10
14.393041148454955
 20
35.040559159102145
 30
0.0
  0
POINT
  5
2D3
330
17
100
AcDbEntity
  8
ДЕРЕН КРОВАВО-КРАСНЫЙ
100
AcDbPoint
 10
15.312279963997469
 20
35.95979797464466
 30
0.0
  0
POINT
  5
2D4
330
17
100
AcDbEntity
  8
ДЕРЕН КРОВАВО-КРАСНЫЙ
100
AcDbPoint
 10
16.23151877953998
 20
36.879036790187165
 30
0.0
  0
POINT
  5
2D5
330
17
100
AcDbEntity
  8
ДЕРЕН КРОВАВО-КРАСНЫЙ
100
AcDbPoint
 10
17.15075759508248
 20
37.79827560572968
 30
0.0
  0
POINT
  5
2D6
330
17
100
AcDbEntity
  8
ДЕРЕН КРОВАВО-КРАСНЫЙ
100
AcDbPoint
 10
18.069996410624995
 20
38.717514421272185
 30
0.0
  0
POINT
  5
2D7
330
17
100
AcDbEntity
  8
ДЕРЕН КРОВАВО-КРАСНЫЙ
100
AcDbPoint
 10
18.98923522616751
 20
39.6367532368147
 30
0.0
  0
POINT
  5
2D8
330
17
100
AcDbEntity
  8
ДЕРЕН КРОВАВО-КРАСНЫЙ
100
AcDbPoint
 10
19.90847404171001
 20
40.555992052357205
 30
0.0
  0
POINT
  5
2D9
330
17
100
AcDbEntity
  8
ДЕРЕН КРОВАВО-КРАСНЫЙ
100
AcDbPoint
 10
20.82771285725252
 20
41.47523086789971
 30
0.0
  0
POINT
  5
2DA
330
17
100
AcDbEntity
  8
ДЕРЕН КРОВАВО-КРАСНЫЙ
100
AcDbPoint
 10
21.746951672795035
 20
42.394469683442225
 30
0.0
  0
POINT
  5
2DB
330
17
100
AcDbEntity
  8
ДЕРЕН КРОВАВО-КРАСНЫЙ
100
AcDbPoint
 10
22.66619048833755
 20
43.31370849898474
 30
0.0
  0
POINT
  5
2DC
330
17
100
AcDbEntity
  8
ДЕРЕН КРОВАВО-КРАСНЫЙ
100
AcDbPoint
 10
23.585429303880055
 20
44.232947314527244
 30
0.0
  0
POINT
  5
2DD
330
17
100
AcDbEntity
  8
ДЕРЕН КРОВАВО-КРАСНЫЙ
100
AcDbPoint
 10
24.50466811942256
 20
45.15218613006975
 30
0.0
  0
POINT
  5
2DE
330
17
100
AcDbEntity
  8
ДЕРЕН КРОВАВО-КРАСНЫЙ
100
AcDbPoint
 10
25.423906934965075
 20
46.071424945612264
 30
0.0
  0
POINT
  5
2DF
330
17
100
AcDbEntity
  8
ДЕРЕН КРОВАВО-КРАСНЫЙ
100
AcDbPoint
 10
26.34314575050759
 20
46.99066376115478
 30
0.0
  0
POINT
  5
2E0
330
17
100
AcDbEntity
  8
ДЕРЕН КРОВАВО-КРАСНЫЙ
100
AcDbPoint
 10
27.262384566050095
 20
47.909902576697284
 30
0.0
  0
POINT
  5
2E1
330
17
100
AcDbEntity
  8
ДЕРЕН КРОВАВО-КРАСНЫЙ
100
AcDbPoint
 10
28.18162338159261
 20
48.8291413922398
 30
0.0
  0
POINT
  5
2E2
330
17
100
AcDbEntity
  8
ДЕРЕН КРОВАВО-КРАСНЫЙ
100
AcDbPoint
 10
29.100862197135115
 20
49.748380207782304
 30
0.0
  0
POINT
  5
2E3
330
17
100
AcDbEntity
  8
ДЕРЕН КРОВАВО-КРАСНЫЙ
100
AcDbPoint
 10
30.02010101267762
 20
50.66761902332481
 30
0.0
  0
POINT
  5
2E4
330
17
100
AcDbEntity
  8
ДЕРЕН КРОВАВО-КРАСНЫЙ
100
AcDbPoint
 10
30.939339828220135
 20
51.586857838867324
 30
0.0
  0
POINT
  5
2E5
330
17
100
AcDbEntity
  8
ДЕРЕН КРОВАВО-КРАСНЫЙ
100
AcDbPoint
 10
31.85857864376264
 20
52.50609665440983
 30
0.0
  0
POINT
  5
2E6
330
17
100
AcDbEntity
  8
ДЕРЕН КРОВАВО-КРАСНЫЙ
100
AcDbPoint
 10
32.777817459305155
 20
53.425335469952344
 30
0.0
  0
POINT
  5
2E7
330
17
100
AcDbEntity
  8
ДЕРЕН КРОВАВО-КРАСНЫЙ
100
AcDbPoint
 10
33.69705627484766
 20
54.34457428549485
 30
0.0
  0
POINT
  5
2E8
330
17
100
AcDbEntity
  8
ДЕРЕН КРОВАВО-КРАСНЫЙ
100
AcDbPoint
 10
34.616295090390174
 20
55.263813101037364
 30
0.0
  0
POINT
  5
2E9
330
17
100
AcDbEntity
  8
ДЕРЕН КРОВАВО-КРАСНЫЙ
100
AcDbPoint
 10
35.53553390593269
 20
56.18305191657988
 30
0.0
  0
POINT
  5
2EA
330
17
100
AcDbEntity
  8
ДЕРЕН КРОВАВО-КРАСНЫЙ
100
AcDbPoint
 10
36.454772721475194
 20
57.102290732122384
 30
0.0
  0
POINT
  5
2EB
330
17
100
AcDbEntity
  8
ДЕРЕН КРОВАВО-КРАСНЫЙ
100
AcDbPoint
 10
37.37401153701771
 20
58.0215295476649
 30
0.0
  0
POINT
  5
2EC
330
17
100
AcDbEntity
  8
ДЕРЕН КРОВАВО-КРАСНЫЙ
100
AcDbPoint
 10
38.29325035256022
 20
58.94076836320741
 30
0.0
  0
POINT
  5
2ED
330
17
100
AcDbEntity
  8
ДЕРЕН КРОВАВО-КРАСНЫЙ
100
AcDbPoint
 10
39.21248916810272
 20
59.86000717874991
 30
0.0
  0
POINT
  5
2EE
330
17
100
AcDbEntity
  8
ДЕРЕН КРОВАВО-КРАСНЫЙ
100
AcDbPoint
 10
40.131727983645234
 20
60.779245994292424
 30
0.0
  0
POINT
  5
2EF
330
17
100
AcDbEntity
  8
ДЕРЕН КРОВАВО-КРАСНЫЙ
100
AcDbPoint
 10
41.05096679918775
 20
61.69848480983494
 30
0.0
  0
POINT
  5
2F0
330
17
100
AcDbEntity
  8
ДЕРЕН КРОВАВО-КРАСНЫЙ
100
AcDbPoint
 10
41.970205614730254
 20
62.617723625377444
 30
0.0
  0
POINT
  5
2F1
330
17
100
AcDbEntity
  8
СИРЕНЬ ОБЫКНОВЕННАЯ
100
AcDbPoint
 10
0.6398142543766178
 20
29.489770926787756
 30
0.0
  0
POINT
  5
2F2
330
17
100
AcDbEntity
  8
СИРЕНЬ ОБЫКНОВЕННАЯ
100
AcDbPoint
 10
1.5590530699191314
 20
30.40900974233027
 30
0.0
  0
POINT
  5
2F3
330
17
100
AcDbEntity
  8
СИРЕНЬ ОБЫКНОВЕННАЯ
100
AcDbPoint
 10
2.47829188546164
 20
31.328248557872776
 30
0.0
  0
POINT
  5
2F4
330
17
100
AcDbEntity
  8
СИРЕНЬ ОБЫКНОВЕННАЯ
100
AcDbPoint
 10
3.397530701004154
 20
32.24748737341529
 30
0.0
  0
POINT
  5
2F5
330
17
100
AcDbEntity
  8
СИРЕНЬ ОБЫКНОВЕННАЯ
100
AcDbPoint
 10
4.3167695165466675
 20
33.1667261889578
 30
0.0
  0
POINT
  5
2F6
330
17
100
AcDbEntity
  8
СИРЕНЬ ОБЫКНОВЕННАЯ
100
AcDbPoint
 10
5.236008332089179
 20
34.085965004500316
 30
0.0
  0
POINT
  5
2F7
330
17
100
AcDbEntity
  8
СИРЕНЬ ОБЫКНОВЕННАЯ
100
AcDbPoint
 10
6.155247147631694
 20
35.00520382004283
 30
0.0
  0
POINT
  5
2F8
330
17
100
AcDbEntity
  8
СИРЕНЬ ОБЫКНОВЕННАЯ
100
AcDbPoint
 10
7.074485963174207
 20
35.92444263558534
 30
0.0
  0
POINT
  5
2F9
330
17
100
AcDbEntity
  8
СИРЕНЬ ОБЫКНОВЕННАЯ
100
AcDbPoint
 10
7.993724778716712
 20
36.84368145112785
 30
0.0
  0
POINT
  5
2FA
330
17
100
AcDbEntity
  8
СИРЕНЬ ОБЫКНОВЕННАЯ
100
AcDbPoint
 10
8.912963594259224
 20
37.76292026667036
 30
0.0
  0
POINT
  5
2FB
330
17
100
AcDbEntity
  8
СИРЕНЬ ОБЫКНОВЕННАЯ
100
AcDbPoint
 10
9.832202409801734
 20
38.68215908221287
 30
0.0
  0
POINT
  5
2FC
330
17
100
AcDbEntity
  8
СИРЕНЬ ОБЫКНОВЕННАЯ
100
AcDbPoint
 10
10.751441225344243
 20
39.60139789775538
 30
0.0
  0
POINT
  5
2FD
330
17
100
AcDbEntity
  8
СИРЕНЬ ОБЫКНОВЕННАЯ
100
AcDbPoint
 10
11.670680040886754
 20
40.5206367132979
 30
0.0
  0
POINT
  5
2FE
330
17
100
AcDbEntity
  8
СИРЕНЬ ОБЫКНОВЕННАЯ
100
AcDbPoint
 10
12.589918856429263
 20
41.4398755288404
 30
0.0
  0
POINT
  5
2FF
330
17
100
AcDbEntity
  8
СИРЕНЬ ОБЫКНОВЕННАЯ
100
AcDbPoint
 10
13.509157671971774
 20
42.35911434438291
 30
0.0
  0
POINT
  5
300
330
17
100
AcDbEntity
  8
СИРЕНЬ ОБЫКНОВЕННАЯ
100
AcDbPoint
 10
14.428396487514282
 20
43.27835315992542
 30
0.0
  0
POINT
  5
301
330
17
100
AcDbEntity
  8
СИРЕНЬ ОБЫКНОВЕННАЯ
100
AcDbPoint
 10
15.347635303056794
 20
44.19759197546794
 30
0.0
  0
POINT
  5
302
330
17
100
AcDbEntity
  8
СИРЕНЬ ОБЫКНОВЕННАЯ
100
AcDbPoint
 10
16.266874118599304
 20
45.11683079101044
 30
0.0
  0
POINT
  5
303
330
17
100
AcDbEntity
  8
СИРЕНЬ ОБЫКНОВЕННАЯ
100
AcDbPoint
 10
17.18611293414181
 20
46.03606960655295
 30
0.0
  0
POINT
  5
304
330
17
100
AcDbEntity
  8
СИРЕНЬ ОБЫКНОВЕННАЯ
100
AcDbPoint
 10
18.105351749684317
 20
46.955308422095456
 30
0.0
  0
POINT
  5
305
330
17
100
AcDbEntity
  8
СИРЕНЬ ОБЫКНОВЕННАЯ
100
AcDbPoint
 10
19.02459056522683
 20
47.87454723763797
 30
0.0
  0
POINT
  5
306
330
17
100
AcDbEntity
  8
СИРЕНЬ ОБЫКНОВЕННАЯ
100
AcDbPoint
 10
19.943829380769344
 20
48.79378605318048
 30
0.0
  0
POINT
  5
307
330
17
100
AcDbEntity
  8
СИРЕНЬ ОБЫКНОВЕННАЯ
100
AcDbPoint
 10
20.86306819631185
 20
49.71302486872299
 30
0.0
  0
POINT
  5
308
330
17
100
AcDbEntity
  8
СИРЕНЬ ОБЫКНОВЕННАЯ
100
AcDbPoint
 10
21.782307011854364
 20
50.6322636842655
 30
0.0
  0
POINT
  5
309
330
17
100
AcDbEntity
  8
СИРЕНЬ ОБЫКНОВЕННАЯ
100
AcDbPoint
 10
22.70154582739687
 20
51.55150249980801
 30
0.0
  0
POINT
  5
30A
330
17
100
AcDbEntity
  8
СИРЕНЬ ОБЫКНОВЕННАЯ
100
AcDbPoint
 10
23.620784642939377
 20
52.470741315350516
 30
0.0
  0
POINT
  5
30B
330
17
100
AcDbEntity
  8
СИРЕНЬ ОБЫКНОВЕННАЯ
100
AcDbPoint
 10
24.54002345848189
 20
53.38998013089303
 30
0.0
  0
POINT
  5
30C
330
17
100
AcDbEntity
  8
СИРЕНЬ ОБЫКНОВЕННАЯ
100
AcDbPoint
 10
25.459262274024404
 20
54.30921894643554
 30
0.0
  0
POINT
  5
30D
330
17
100
AcDbEntity
  8
СИРЕНЬ ОБЫКНОВЕННАЯ
100
AcDbPoint
 10
26.37850108956691
 20
55.22845776197805
 30
0.0
  0
POINT
  5
30E
330
17
100
AcDbEntity
  8
СИРЕНЬ ОБЫКНОВЕННАЯ
100
AcDbPoint
 10
27.297739905109417
 20
56.147696577520556
 30
0.0
  0
POINT
  5
30F
330
17
100
AcDbEntity
  8
СИРЕНЬ ОБЫКНОВЕННАЯ
100
AcDbPoint
 10
28.216978720651923
 20
57.06693539306306
 30
0.0
  0
POINT
  5
310
330
17
100
AcDbEntity
  8
СИРЕНЬ ОБЫКНОВЕННАЯ
100
AcDbPoint
 10
29.136217536194444
 20
57.98617420860558
 30
0.0
  0
POINT
  5
311
330
17
100
AcDbEntity
  8
СИРЕНЬ ОБЫКНОВЕННАЯ
100
AcDbPoint
 10
30.05545635173695
 20
58.90541302414809
 30
0.0
  0
POINT
  5
312
330
17
100
AcDbEntity
  8
СИРЕНЬ ОБЫКНОВЕННАЯ
100
AcDbPoint
 10
30.974695167279464
 20
59.8246518396906
 30
0.0
  0
POINT
  5
313
330
17
100
AcDbEntity
  8
СИРЕНЬ ОБЫКНОВЕННАЯ
100
AcDbPoint
 10
31.893933982821977
 20
60.743890655233116
 30
0.0
  0
POINT
  5
314
330
17
100
AcDbEntity
  8
СИРЕНЬ ОБЫКНОВЕННАЯ
100
AcDbPoint
 10
32.81317279836448
 20
61.663129470775615
 30
0.0
  0
POINT
  5
315
330
17
100
AcDbEntity
  8
СИРЕНЬ ОБЫКНОВЕННАЯ
100
AcDbPoint
 10
33.73241161390699
 20
62.58236828631813
 30
0.0
  0
POINT
  5
316
330
17
100
AcDbEntity
  8
СИРЕНЬ ОБЫКНОВЕННАЯ
100
AcDbPoint
 10
1.170144340266531
 20
31.71715728752538
 30
0.0
  0
POINT
  5
317
330
17
100
AcDbEntity
  8
СИРЕНЬ ОБЫКНОВЕННАЯ
100
AcDbPoint
 10
2.089383155809041
 20
32.63639610306789
 30
0.0
  0
POINT
  5
318
330
17
100
AcDbEntity
  8
СИРЕНЬ ОБЫКНОВЕННАЯ
100
AcDbPoint
 10
3.0086219713515545
 20
33.5556349186104
 30
0.0
  0
POINT
  5
319
330
17
100
AcDbEntity
  8
СИРЕНЬ ОБЫКНОВЕННАЯ
100
AcDbPoint
 10
3.927860786894067
 20
34.474873734152915
 30
0.0
  0
POINT
  5
31A
330
17
100
AcDbEntity
  8
СИРЕНЬ ОБЫКНОВЕННАЯ
100
AcDbPoint
 10
4.847099602436577
 20
35.39411254969543
 30
0.0
  0
POINT
  5
31B
330
17
100
AcDbEntity
  8
СИРЕНЬ ОБЫКНОВЕННАЯ
100
AcDbPoint
 10
5.766338417979088
 20
36.31335136523794
 30
0.0
  0
POINT
  5
31C
330
17
100
AcDbEntity
  8
СИРЕНЬ ОБЫКНОВЕННАЯ
100
AcDbPoint
 10
6.6855772335216
 20
37.23259018078045
 30
0.0
  0
POINT
  5
31D
330
17
100
AcDbEntity
  8
СИРЕНЬ ОБЫКНОВЕННАЯ
100
AcDbPoint
 10
7.604816049064107
 20
38.151828996322955
 30
0.0
  0
POINT
  5
31E
330
17
100
AcDbEntity
  8
СИРЕНЬ ОБЫКНОВЕННАЯ
100
AcDbPoint
 10
8.524054864606615
 20
39.07106781186547
 30
0.0
  0
POINT
  5
31F
330
17
100
AcDbEntity
  8
СИРЕНЬ ОБЫКНОВЕННАЯ
100
AcDbPoint
 10
9.443293680149125
 20
39.990306627407975
 30
0.0
  0
POINT
  5
320
330
17
100
AcDbEntity
  8
СИРЕНЬ ОБЫКНОВЕННАЯ
100
AcDbPoint
 10
10.362532495691639
 20
40.90954544295049
 30
0.0
  0
POINT
  5
321
330
17
100
AcDbEntity
  8
СИРЕНЬ ОБЫКНОВЕННАЯ
100
AcDbPoint
 10
11.281771311234149
 20
41.828784258492995
 30
0.0
  0
POINT
  5
322
330
17
100
AcDbEntity
  8
СИРЕНЬ ОБЫКНОВЕННАЯ
100
AcDbPoint
 10
12.201010126776653
 20
42.74802307403551
 30
0.0
  0
POINT
  5
323
330
17
100
AcDbEntity
  8
СИРЕНЬ ОБЫКНОВЕННАЯ
100
AcDbPoint
 10
13.120248942319165
 20
43.667261889578015
 30
0.0
  0
POINT
  5
324
330
17
100
AcDbEntity
  8
СИРЕНЬ ОБЫКНОВЕННАЯ
100
AcDbPoint
 10
14.039487757861679
 20
44.58650070512053
 30
0.0
  0
POINT
  5
325
330
17
100
AcDbEntity
  8
СИРЕНЬ ОБЫКНОВЕННАЯ
100
AcDbPoint
 10
14.958726573404183
 20
45.505739520663035
 30
0.0
  0
POINT
  5
326
330
17
100
AcDbEntity
  8
СИРЕНЬ ОБЫКНОВЕННАЯ
100
AcDbPoint
 10
15.877965388946691
 20
46.42497833620554
 30
0.0
  0
POINT
  5
327
330
17
100
AcDbEntity
  8
СИРЕНЬ ОБЫКНОВЕННАЯ
100
AcDbPoint
 10
16.797204204489205
 20
47.344217151748055
 30
0.0
  0
POINT
  5
328
330
17
100
AcDbEntity
  8
СИРЕНЬ ОБЫКНОВЕННАЯ
100
AcDbPoint
 10
17.71644302003172
 20
48.26345596729057
 30
0.0
  0
POINT
  5
329
330
17
100
AcDbEntity
  8
СИРЕНЬ ОБЫКНОВЕННАЯ
100
AcDbPoint
 10
18.635681835574225
 20
49.182694782833074
 30
0.0
  0
POINT
  5
32A
330
17
100
AcDbEntity
  8
СИРЕНЬ ОБЫКНОВЕННАЯ
100
AcDbPoint
 10
19.55492065111673
 20
50.10193359837558
 30
0.0
  0
POINT
  5
32B
330
17
100
AcDbEntity
  8
СИРЕНЬ ОБЫКНОВЕННАЯ
100
AcDbPoint
 10
20.474159466659245
 20
51.021172413918094
 30
0.0
  0
POINT
  5
32C
330
17
100
AcDbEntity
  8
СИРЕНЬ ОБЫКНОВЕННАЯ
100
AcDbPoint
 10
21.39339828220176
 20
51.94041122946061
 30
0.0
  0
POINT
  5
32D
330
17
100
AcDbEntity
  8
СИРЕНЬ ОБЫКНОВЕННАЯ
100
AcDbPoint
 10
22.312637097744265
 20
52.859650045003114
 30
0.0
  0
POINT
  5
32E
330
17
100
AcDbEntity
  8
СИРЕНЬ ОБЫКНОВЕННАЯ
100
AcDbPoint
 10
23.23187591328678
 20
53.77888886054563
 30
0.0
  0
POINT
  5
32F
330
17
100
AcDbEntity
  8
СИРЕНЬ ОБЫКНОВЕННАЯ
100
AcDbPoint
 10
24.151114728829285
 20
54.698127676088134
 30
0.0
  0
POINT
  5
330
330
17
100
AcDbEntity
  8
СИРЕНЬ ОБЫКНОВЕННАЯ
100
AcDbPoint
 10
25.07035354437179
 20
55.61736649163064
 30
0.0
  0
POINT
  5
331
330
17
100
AcDbEntity
  8
СИРЕНЬ ОБЫКНОВЕННАЯ
100
AcDbPoint
 10
25.989592359914305
 20
56.536605307173154
 30
0.0
  0
POINT
  5
332
330
17
100
AcDbEntity
  8
СИРЕНЬ ОБЫКНОВЕННАЯ
100
AcDbPoint
 10
26.90883117545681
 20
57.45584412271566
 30
0.0
  0
POINT
  5
333
330
17
100
AcDbEntity
  8
СИРЕНЬ ОБЫКНОВЕННАЯ
100
AcDbPoint
 10
27.828069990999325
 20
58.375082938258174
 30
0.0
  0
POINT
  5
334
330
17
100
AcDbEntity
  8
СИРЕНЬ ОБЫКНОВЕННАЯ
100
AcDbPoint
 10
28.74730880654183
 20
59.29432175380068
 30
0.0
  0
POINT
  5
335
330
17
100
AcDbEntity
  8
СИРЕНЬ ОБЫКНОВЕННАЯ
100
AcDbPoint
 10
29.666547622084344
 20
60.213560569343194
 30
0.0
  0
POINT
  5
336
330
17
100
AcDbEntity
  8
СИРЕНЬ ОБЫКНОВЕННАЯ
100
AcDbPoint
 10
30.585786437626858
 20
61.13279938488571
 30
0.0
  0
POINT
  5
337
330
17
100
AcDbEntity
  8
СИРЕНЬ ОБЫКНОВЕННАЯ
100
AcDbPoint
 10
31.505025253169364
 20
62.052038200428214
 30
0.0
  0
POINT
  5
338
330
17
100
AcDbEntity
  8
СИРЕНЬ ОБЫКНОВЕННАЯ
100
AcDbPoint
 10
32.42426406871188
 20
62.97127701597073
 30
0.0
  0
POINT
  5
339
330
17
100
AcDbEntity
  8
СПИРЕЯ ВАНГУТТА
100
AcDbPoint
 10
1.205499679325856
 20
39.95495128834867
 30
0.0
  0
POINT
  5
33A
330
17
100
AcDbEntity
  8
СПИРЕЯ ВАНГУТТА
100
AcDbPoint
 10
2.1247384948683696
 20
40.87419010389118
 30
0.0
  0
POINT
  5
33B
330
17
100
AcDbEntity
  8
СПИРЕЯ ВАНГУТТА
100
AcDbPoint
 10
3.0439773104108783
 20
41.79342891943369
 30
0.0
  0
POINT
  5
33C
330
17
100
AcDbEntity
  8
СПИРЕЯ ВАНГУТТА
100
AcDbPoint
 10
3.9632161259533927
 20
42.7126677349762
 30
0.0
  0
POINT
  5
33D
330
17
100
AcDbEntity
  8
СПИРЕЯ ВАНГУТТА
100
AcDbPoint
 10
4.882454941495902
 20
43.631906550518714
 30
0.0
  0
POINT
  5
33E
330
17
100
AcDbEntity
  8
СПИРЕЯ ВАНГУТТА
100
AcDbPoint
 10
5.801693757038407
 20
44.55114536606121
 30
0.0
  0
POINT
  5
33F
330
17
100
AcDbEntity
  8
СПИРЕЯ ВАНГУТТА
100
AcDbPoint
 10
6.720932572580923
 20
45.47038418160373
 30
0.0
  0
POINT
  5
340
330
17
100
AcDbEntity
  8
СПИРЕЯ ВАНГУТТА
100
AcDbPoint
 10
7.640171388123433
 20
46.38962299714624
 30
0.0
  0
POINT
  5
341
330
17
100
AcDbEntity
  8
СПИРЕЯ ВАНГУТТА
100
AcDbPoint
 10
8.559410203665935
 20
47.30886181268875
 30
0.0
  0
POINT
  5
342
330
17
100
AcDbEntity
  8
СПИРЕЯ ВАНГУТТА
100
AcDbPoint
 10
9.478649019208447
 20
48.22810062823125
 30
0.0
  0
POINT
  5
343
330
17
100
AcDbEntity
  8
СПИРЕЯ ВАНГУТТА
100
AcDbPoint
 10
10.397887834750962
 20
49.14733944377377
 30
0.0
  0
POINT
  5
344
330
17
100
AcDbEntity
  8
СПИРЕЯ ВАНГУТТА
100
AcDbPoint
 10
11.31712665029347
 20
50.06657825931628
 30
0.0
  0
POINT
  5
345
330
17
100
AcDbEntity
  8
СПИРЕЯ ВАНГУТТА
100
AcDbPoint
 10
12.236365465835977
 20
50.98581707485879
 30
0.0
  0
POINT
  5
346
330
17
100
AcDbEntity
  8
СПИРЕЯ ВАНГУТТА
100
AcDbPoint
 10
13.155604281378483
 20
51.90505589040129
 30
0.0
  0
POINT
  5
347
330
17
100
AcDbEntity
  8
СПИРЕЯ ВАНГУТТА
100
AcDbPoint
 10
14.074843096920997
 20
52.82429470594381
 30
0.0
  0
POINT
  5
348
330
17
100
AcDbEntity
  8
СПИРЕЯ ВАНГУТТА
100
AcDbPoint
 10
14.99408191246351
 20
53.74353352148632
 30
0.0
  0
POINT
  5
349
330
17
100
AcDbEntity
  8
СПИРЕЯ ВАНГУТТА
100
AcDbPoint
 10
15.913320728006017
 20
54.66277233702883
 30
0.0
  0
POINT
  5
34A
330
17
100
AcDbEntity
  8
СПИРЕЯ ВАНГУТТА
100
AcDbPoint
 10
16.83255954354853
 20
55.58201115257134
 30
0.0
  0
POINT
  5
34B
330
17
100
AcDbEntity
  8
СПИРЕЯ ВАНГУТТА
100
AcDbPoint
 10
17.751798359091037
 20
56.50124996811385
 30
0.0
  0
POINT
  5
34C
330
17
100
AcDbEntity
  8
СПИРЕЯ ВАНГУТТА
100
AcDbPoint
 10
18.671037174633543
 20
57.42048878365635
 30
0.0
  0
POINT
  5
34D
330
17
100
AcDbEntity
  8
СПИРЕЯ ВАНГУТТА
100
AcDbPoint
 10
19.590275990176057
 20
58.339727599198866
 30
0.0
  0
POINT
  5
34E
330
17
100
AcDbEntity
  8
СПИРЕЯ ВАНГУТТА
100
AcDbPoint
 10
20.50951480571857
 20
59.25896641474138
 30
0.0
  0
POINT
  5
34F
330
17
100
AcDbEntity
  8
СПИРЕЯ ВАНГУТТА
100
AcDbPoint
 10
21.428753621261077
 20
60.178205230283886
 30
0.0
  0
POINT
  5
350
330
17
100
AcDbEntity
  8
СПИРЕЯ ВАНГУТТА
100
AcDbPoint
 10
22.347992436803583
 20
61.09744404582639
 30
0.0
  0
POINT
  5
351
330
17
100
AcDbEntity
  8
СПИРЕЯ ВАНГУТТА
100
AcDbPoint
 10
23.26723125234609
 20
62.0166828613689
 30
0.0
  0
POINT
  5
352
330
17
100
AcDbEntity
  8
СПИРЕЯ ВАНГУТТА
100
AcDbPoint
 10
24.18647006788861
 20
62.93592167691142
 30
0.0
  0
POINT
  5
353
330
17
100
AcDbEntity
  8
СПИРЕЯ ВАНГУТТА
100
AcDbPoint
 10
0.8165909496732544
 20
41.26309883354377
 30
0.0
  0
POINT
  5
354
330
17
100
AcDbEntity
  8
СПИРЕЯ ВАНГУТТА
100
AcDbPoint
 10
1.7358297652157624
 20
42.182337649086286
 30
0.0
  0
POINT
  5
355
330
17
100
AcDbEntity
  8
СПИРЕЯ ВАНГУТТА
100
AcDbPoint
 10
2.6550685807582752
 20
43.1015764646288
 30
0.0
  0
POINT
  5
356
330
17
100
AcDbEntity
  8
СПИРЕЯ ВАНГУТТА
100
AcDbPoint
 10
3.5743073963007865
 20
44.020815280171306
 30
0.0
  0
POINT
  5
357
330
17
100
AcDbEntity
  8
СПИРЕЯ ВАНГУТТА
100
AcDbPoint
 10
4.493546211843291
 20
44.94005409571381
 30
0.0
  0
POINT
  5
358
330
17
100
AcDbEntity
  8
СПИРЕЯ ВАНГУТТА
100
AcDbPoint
 10
5.412785027385803
 20
45.859292911256325
 30
0.0
  0
POINT
  5
359
330
17
100
AcDbEntity
  8
СПИРЕЯ ВАНГУТТА
100
AcDbPoint
 10
6.332023842928314
 20
46.77853172679884
 30
0.0
  0
POINT
  5
35A
330
17
100
AcDbEntity
  8
СПИРЕЯ ВАНГУТТА
100
AcDbPoint
 10
7.2512626584708215
 20
47.69777054234134
 30
0.0
  0
POINT
  5
35B
330
17
100
AcDbEntity
  8
СПИРЕЯ ВАНГУТТА
100
AcDbPoint
 10
8.17050147401333
 20
48.61700935788385
 30
0.0
  0
POINT
  5
35C
330
17
100
AcDbEntity
  8
СПИРЕЯ ВАНГУТТА
100
AcDbPoint
 10
9.089740289555843
 20
49.536248173426365
 30
0.0
  0
POINT
  5
35D
330
17
100
AcDbEntity
  8
СПИРЕЯ ВАНГУТТА
100
AcDbPoint
 10
10.008979105098351
 20
50.45548698896887
 30
0.0
  0
POINT
  5
35E
330
17
100
AcDbEntity
  8
СПИРЕЯ ВАНГУТТА
100
AcDbPoint
 10
10.928217920640858
 20
51.37472580451138
 30
0.0
  0
POINT
  5
35F
330
17
100
AcDbEntity
  8
СПИРЕЯ ВАНГУТТА
100
AcDbPoint
 10
11.847456736183371
 20
52.29396462005389
 30
0.0
  0
POINT
  5
360
330
17
100
AcDbEntity
  8
СПИРЕЯ ВАНГУТТА
100
AcDbPoint
 10
12.766695551725885
 20
53.213203435596405
 30
0.0
  0
POINT
  5
361
330
17
100
AcDbEntity
  8
СПИРЕЯ ВАНГУТТА
100
AcDbPoint
 10
13.685934367268391
 20
54.13244225113891
 30
0.0
  0
POINT
  5
362
330
17
100
AcDbEntity
  8
СПИРЕЯ ВАНГУТТА
100
AcDbPoint
 10
14.605173182810898
 20
55.05168106668142
 30
0.0
  0
POINT
  5
363
330
17
100
AcDbEntity
  8
СПИРЕЯ ВАНГУТТА
100
AcDbPoint
 10
15.524411998353411
 20
55.97091988222393
 30
0.0
  0
POINT
  5
364
330
17
100
AcDbEntity
  8
СПИРЕЯ ВАНГУТТА
100
AcDbPoint
 10
16.443650813895925
 20
56.890158697766445
 30
0.0
  0
POINT
  5
365
330
17
100
AcDbEntity
  8
СПИРЕЯ ВАНГУТТА
100
AcDbPoint
 10
17.36288962943843
 20
57.80939751330895
 30
0.0
  0
POINT
  5
366
330
17
100
AcDbEntity
  8
СПИРЕЯ ВАНГУТТА
100
AcDbPoint
 10
18.282128444980945
 20
58.728636328851465
 30
0.0
  0
POINT
  5
367
330
17
100
AcDbEntity
  8
СПИРЕЯ ВАНГУТТА
100
AcDbPoint
 10
19.20136726052345
 20
59.64787514439397
 30
0.0
  0
POINT
  5
368
330
17
100
AcDbEntity
  8
СПИРЕЯ ВАНГУТТА
100
AcDbPoint
 10
20.120606076065958
 20
60.56711395993648
 30
0.0
  0
POINT
  5
369
330
17
100
AcDbEntity
  8
СПИРЕЯ ВАНГУТТА
100
AcDbPoint
 10
21.03984489160847
 20
61.48635277547899
 30
0.0
  0
POINT
  5
36A
330
17
100
AcDbEntity
  8
СПИРЕЯ ВАНГУТТА
100
AcDbPoint
 10
21.959083707150977
 20
62.4055915910215
 30
0.0
  0
POINT
  5
36B
330
17
100
AcDbEntity
  8
СПИРЕЯ ВАНГУТТА
100
AcDbPoint
 10
22.87832252269349
 20
63.32483040656401
 30
0.0
  0
POINT
  5
36C
330
17
100
AcDbEntity
  8
ДЕРЕН КРОВАВО-КРАСНЫЙ
100
AcDbPoint
 10
0.8519462887325735
 20
49.50089283436704
 30
0.0
  0
POINT
  5
36D
330
17
100
AcDbEntity
  8
ДЕРЕН КРОВАВО-КРАСНЫЙ
100
AcDbPoint
 10
1.7711851042750892
 20
50.42013164990956
 30
0.0
  0
POINT
  5
36E
330
17
100
AcDbEntity
  8
ДЕРЕН КРОВАВО-КРАСНЫЙ
100
AcDbPoint
 10
2.6904239198176003
 20
51.33937046545207
 30
0.0
  0
POINT
  5
36F
330
17
100
AcDbEntity
  8
ДЕРЕН КРОВАВО-КРАСНЫЙ
100
AcDbPoint
 10
3.6096627353601023
 20
52.25860928099458
 30
0.0
  0
POINT
  5
370
330
17
100
AcDbEntity
  8
ДЕРЕН КРОВАВО-КРАСНЫЙ
100
AcDbPoint
 10
4.528901550902614
 20
53.17784809653708
 30
0.0
  0
POINT
  5
371
330
17
100
AcDbEntity
  8
ДЕРЕН КРОВАВО-КРАСНЫЙ
100
AcDbPoint
 10
5.448140366445129
 20
54.0970869120796
 30
0.0
  0
POINT
  5
372
330
17
100
AcDbEntity
  8
ДЕРЕН КРОВАВО-КРАСНЫЙ
100
AcDbPoint
 10
6.367379181987638
 20
55.01632572762211
 30
0.0
  0
POINT
  5
373
330
17
100
AcDbEntity
  8
ДЕРЕН КРОВАВО-КРАСНЫЙ
100
AcDbPoint
 10
7.286617997530144
 20
55.93556454316462
 30
0.0
  0
POINT
  5
374
330
17
100
AcDbEntity
  8
ДЕРЕН КРОВАВО-КРАСНЫЙ
100
AcDbPoint
 10
8.20585681307265
 20
56.85480335870712
 30
0.0
  0
POINT
  5
375
330
17
100
AcDbEntity
  8
ДЕРЕН КРОВАВО-КРАСНЫЙ
100
AcDbPoint
 10
9.125095628615163
 20
57.77404217424964
 30
0.0
  0
POINT
  5
376
330
17
100
AcDbEntity
  8
ДЕРЕН КРОВАВО-КРАСНЫЙ
100
AcDbPoint
 10
10.044334444157677
 20
58.69328098979215
 30
0.0
  0
POINT
  5
377
330
17
100
AcDbEntity
  8
ДЕРЕН КРОВАВО-КРАСНЫЙ
100
AcDbPoint
 10
10.963573259700183
 20
59.61251980533466
 30
0.0
  0
POINT
  5
378
330
17
100
AcDbEntity
  8
ДЕРЕН КРОВАВО-КРАСНЫЙ
100
AcDbPoint
 10
11.882812075242697
 20
60.53175862087717
 30
0.0
  0
POINT
  5
379
330
17
100
AcDbEntity
  8
ДЕРЕН КРОВАВО-КРАСНЫЙ
100
AcDbPoint
 10
12.802050890785203
 20
61.45099743641968
 30
0.0
  0
POINT
  5
37A
330
17
100
AcDbEntity
  8
ДЕРЕН КРОВАВО-КРАСНЫЙ
100
AcDbPoint
 10
13.72128970632771
 20
62.37023625196218
 30
0.0
  0
POINT
  5
37B
330
17
100
AcDbEntity
  8
ДЕРЕН КРОВАВО-КРАСНЫЙ
100
AcDbPoint
 10
14.640528521870221
 20
63.289475067504696
 30
0.0
  0
POINT
  5
37C
330
17
100
AcDbEntity
  8
ДЕРЕН КРОВАВО-КРАСНЫЙ
100
AcDbPoint
 10
1.3822763746224807
 20
51.72827919510467
 30
0.0
  0
POINT
  5
37D
330
17
100
AcDbEntity
  8
ДЕРЕН КРОВАВО-КРАСНЫЙ
100
AcDbPoint
 10
2.301515190164988
 20
52.64751801064717
 30
0.0
  0
POINT
  5
37E
330
17
100
AcDbEntity
  8
ДЕРЕН КРОВАВО-КРАСНЫЙ
100
AcDbPoint
 10
3.220754005707496
 20
53.56675682618968
 30
0.0
  0
POINT
  5
37F
330
17
100
AcDbEntity
  8
ДЕРЕН КРОВАВО-КРАСНЫЙ
100
AcDbPoint
 10
4.13999282125001
 20
54.485995641732195
 30
0.0
  0
POINT
  5
380
330
17
100
AcDbEntity
  8
ДЕРЕН КРОВАВО-КРАСНЫЙ
100
AcDbPoint
 10
5.059231636792518
 20
55.4052344572747
 30
0.0
  0
POINT
  5
381
330
17
100
AcDbEntity
  8
ДЕРЕН КРОВАВО-КРАСНЫЙ
100
AcDbPoint
 10
5.978470452335023
 20
56.32447327281721
 30
0.0
  0
POINT
  5
382
330
17
100
AcDbEntity
  8
ДЕРЕН КРОВАВО-КРАСНЫЙ
100
AcDbPoint
 10
6.897709267877537
 20
57.24371208835972
 30
0.0
  0
POINT
  5
383
330
17
100
AcDbEntity
  8
ДЕРЕН КРОВАВО-КРАСНЫЙ
100
AcDbPoint
 10
7.81694808342005
 20
58.162950903902235
 30
0.0
  0
POINT
  5
384
330
17
100
AcDbEntity
  8
ДЕРЕН КРОВАВО-КРАСНЫЙ
100
AcDbPoint
 10
8.736186898962558
 20
59.08218971944474
 30
0.0
  0
POINT
  5
385
330
17
100
AcDbEntity
  8
ДЕРЕН КРОВАВО-КРАСНЫЙ
100
AcDbPoint
 10
9.655425714505064
 20
60.00142853498725
 30
0.0
  0
POINT
  5
386
330
17
100
AcDbEntity
  8
ДЕРЕН КРОВАВО-КРАСНЫЙ
100
AcDbPoint
 10
10.574664530047578
 20
60.92066735052976
 30
0.0
  0
POINT
  5
387
330
17
100
AcDbEntity
  8
ДЕРЕН КРОВАВО-КРАСНЫЙ
100
AcDbPoint
 10
11.493903345590091
 20
61.839906166072275
 30
0.0
  0
POINT
  5
388
330
17
100
AcDbEntity
  8
ДЕРЕН КРОВАВО-КРАСНЫЙ
100
AcDbPoint
 10
12.413142161132598
 20
62.75914498161478
 30
0.0
  0
POINT
  5
389
330
17
100
AcDbEntity
  8
СИРЕНЬ ОБЫКНОВЕННАЯ
100
AcDbPoint
 10
1.4176317136818044
 20
59.96607319592794
 30
0.0
  0
POINT
  5
38A
330
17
100
AcDbEntity
  8
СИРЕНЬ ОБЫКНОВЕННАЯ
100
AcDbPoint
 10
2.336870529224311
 20
60.88531201147045
 30
0.0
  0
POINT
  5
38B
330
17
100
AcDbEntity
  8
СИРЕНЬ ОБЫКНОВЕННАЯ
100
AcDbPoint
 10
3.2561093447668172
 20
61.80455082701295
 30
0.0
  0
POINT
  5
38C
330
17
100
AcDbEntity
  8
СИРЕНЬ ОБЫКНОВЕННАЯ
100
AcDbPoint
 10
4.175348160309331
 20
62.72378964255547
 30
0.0
  0
POINT
  5
38D
330
17
100
AcDbEntity
  8
СИРЕНЬ ОБЫКНОВЕННАЯ
100
AcDbPoint
 10
1.0287229840291898
 20
61.27422074112304
 30
0.0
  0
POINT
  5
38E
330
17
100
AcDbEntity
  8
СИРЕНЬ ОБЫКНОВЕННАЯ
100
AcDbPoint
 10
1.9479617995717033
 20
62.19345955666555
 30
0.0
  0
POINT
  5
38F
330
17
100
AcDbEntity
  8
СИРЕНЬ ОБЫКНОВЕННАЯ
100
AcDbPoint
 10
2.867200615114217
 20
63.112698372208065
 30
0.0
  0
POINT
  5
391
330
17
100
AcDbEntity
  8
БЕРЕЗА ПОВИСЛАЯ
100
AcDbPoint
 10
62.40559159102154
 20
7.958369439657371
 30
0.0
  0
POINT
  5
392
330
17
100
AcDbEntity
  8
БЕРЕЗА ПОВИСЛАЯ
100
AcDbPoint
 10
47.55634918610404
 20
3.0086219713515447
 30
0.0
  0
POINT
  5
393
330
17
100
AcDbEntity
  8
БЕРЕЗА ПОВИСЛАЯ
100
AcDbPoint
 10
52.50609665440987
 20
7.958369439657375
 30
0.0
  0
POINT
  5
394
330
17
100
AcDbEntity
  8
БЕРЕЗА ПОВИСЛАЯ
100
AcDbPoint
 10
62.40559159102155
 20
17.85786437626905
 30
0.0
  0
POINT
  5
395
330
17
100
AcDbEntity
  8
БЕРЕЗА ПОВИСЛАЯ
100
AcDbPoint
 10
27.757359312880713
 20
3.0086219713515483
 30
0.0
  0
POINT
  5
396
330
17
100
AcDbEntity
  8
БЕРЕЗА ПОВИСЛАЯ
100
AcDbPoint
 10
32.70710678118654
 20
7.958369439657378
 30
0.0
  0
POINT
  5
397
330
17
100
AcDbEntity
  8
БЕРЕЗА ПОВИСЛАЯ
100
AcDbPoint
 10
37.656854249492376
 20
12.908116907963212
 30
0.0
  0
POINT
  5
398
330
17
100
AcDbEntity
  8
БЕРЕЗА ПОВИСЛАЯ
100
AcDbPoint
 10
42.606601717798206
 20
17.857864376269042
 30
0.0
  0
POINT
  5
399
330
17
100
AcDbEntity
  8
БЕРЕЗА ПОВИСЛАЯ
100
AcDbPoint
 10
47.556349186104036
 20
22.807611844574872
 30
0.0
  0
POINT
  5
39A
330
17
100
AcDbEntity
  8
БЕРЕЗА ПОВИСЛАЯ
100
AcDbPoint
 10
52.50609665440988
 20
27.757359312880716
 30
0.0
  0
POINT
  5
39B
330
17
100
AcDbEntity
  8
БЕРЕЗА ПОВИСЛАЯ
100
AcDbPoint
 10
62.40559159102154
 20
37.656854249492376
 30
0.0
  0
POINT
  5
39C
330
17
100
AcDbEntity
  8
БЕРЕЗА ПОВИСЛАЯ
100
AcDbPoint
 10
17.85786437626905
 20
3.0086219713515465
 30
0.0
  0
POINT
  5
39D
330
17
100
AcDbEntity
  8
БЕРЕЗА ПОВИСЛАЯ
100
AcDbPoint
 10
22.807611844574883
 20
7.958369439657382
 30
0.0
  0
POINT
  5
39E
330
17
100
AcDbEntity
  8
БЕРЕЗА ПОВИСЛАЯ
100
AcDbPoint
 10
27.757359312880713
 20
12.908116907963212
 30
0.0
  0
POINT
  5
39F
330
17
100
AcDbEntity
  8
БЕРЕЗА ПОВИСЛАЯ
100
AcDbPoint
 10
32.707106781186546
 20
17.857864376269045
 30
0.0
  0
POINT
  5
3A0
330
17
100
AcDbEntity
  8
БЕРЕЗА ПОВИСЛАЯ
100
AcDbPoint
 10
37.656854249492376
 20
22.807611844574875
 30
0.0
  0
POINT
  5
3A1
330
17
100
AcDbEntity
  8
БЕРЕЗА ПОВИСЛАЯ
100
AcDbPoint
 10
42.606601717798206
 20
27.757359312880705
 30
0.0
  0
POINT
  5
3A2
330
17
100
AcDbEntity
  8
БЕРЕЗА ПОВИСЛАЯ
100
AcDbPoint
 10
47.55634918610405
 20
32.70710678118655
 30
0.0
  0
POINT
  5
3A3
330
17
100
AcDbEntity
  8
БЕРЕЗА ПОВИСЛАЯ
100
AcDbPoint
 10
52.50609665440988
 20
37.65685424949238
 30
0.0
  0
POINT
  5
3A4
330
17
100
AcDbEntity
  8
БЕРЕЗА ПОВИСЛАЯ
100
AcDbPoint
 10
62.40559159102154
 20
47.55634918610404
 30
0.0
  0
POINT
  5
3A5
330
17
100
AcDbEntity
  8
БЕРЕЗА ПОВИСЛАЯ
100
AcDbPoint
 10
3.0086219713515483
 20
7.958369439657378
 30
0.0
  0
POINT
  5
3A6
330
17
100
AcDbEntity
  8
БЕРЕЗА ПОВИСЛАЯ
100
AcDbPoint
 10
7.95836943965738
 20
12.90811690796321
 30
0.0
  0
POINT
  5
3A7
330
17
100
AcDbEntity
  8
БЕРЕЗА ПОВИСЛАЯ
100
AcDbPoint
 10
12.908116907963215
 20
17.857864376269045
 30
0.0
  0
POINT
  5
3A8
330
17
100
AcDbEntity
  8
БЕРЕЗА ПОВИСЛАЯ
100
AcDbPoint
 10
17.857864376269045
 20
22.807611844574875
 30
0.0
  0
POINT
  5
3A9
330
17
100
AcDbEntity
  8
БЕРЕЗА ПОВИСЛАЯ
100
AcDbPoint
 10
22.80761184457488
 20
27.75735931288071
 30
0.0
  0
POINT
  5
3AA
330
17
100
AcDbEntity
  8
БЕРЕЗА ПОВИСЛАЯ
100
AcDbPoint
 10
27.75735931288071
 20
32.70710678118654
 30
0.0
  0
POINT
  5
3AB
330
17
100
AcDbEntity
  8
БЕРЕЗА ПОВИСЛАЯ
100
AcDbPoint
 10
32.70710678118654
 20
37.65685424949237
 30
0.0
  0
POINT
  5
3AC
330
17
100
AcDbEntity
  8
БЕРЕЗА ПОВИСЛАЯ
100
AcDbPoint
 10
37.65685424949238
 20
42.60660171779821
 30
0.0
  0
POINT
  5
3AD
330
17
100
AcDbEntity
  8
БЕРЕЗА ПОВИСЛАЯ
100
AcDbPoint
 10
42.60660171779821
 20
47.55634918610404
 30
0.0
  0
POINT
  5
3AE
330
17
100
AcDbEntity
  8
БЕРЕЗА ПОВИСЛАЯ
100
AcDbPoint
 10
47.55634918610404
 20
52.50609665440987
 30
0.0
  0
POINT
  5
3AF
330
17
100
AcDbEntity
  8
БЕРЕЗА ПОВИСЛАЯ
100
AcDbPoint
 10
52.50609665440987
 20
57.4558441227157
 30
0.0
  0
POINT
  5
3B0
330
17
100
AcDbEntity
  8
БЕРЕЗА ПОВИСЛАЯ
100
AcDbPoint
 10
3.0086219713515465
 20
17.85786437626905
 30
0.0
  0
POINT
  5
3B1
330
17
100
AcDbEntity
  8
БЕРЕЗА ПОВИСЛАЯ
100
AcDbPoint
 10
7.958369439657382
 20
22.807611844574883
 30
0.0
  0
POINT
  5
3B2
330
17
100
AcDbEntity
  8
БЕРЕЗА ПОВИСЛАЯ
100
AcDbPoint
 10
12.908116907963212
 20
27.757359312880713
 30
0.0
  0
POINT
  5
3B3
330
17
100
AcDbEntity
  8
БЕРЕЗА ПОВИСЛАЯ
100
AcDbPoint
 10
17.857864376269045
 20
32.707106781186546
 30
0.0
  0
POINT
  5
3B4
330
17
100
AcDbEntity
  8
БЕРЕЗА ПОВИСЛАЯ
100
AcDbPoint
 10
22.807611844574875
 20
37.656854249492376
 30
0.0
  0
POINT
  5
3B5
330
17
100
AcDbEntity
  8
БЕРЕЗА ПОВИСЛАЯ
100
AcDbPoint
 10
27.757359312880705
 20
42.606601717798206
 30
0.0
  0
POINT
  5
3B6
330
17
100
AcDbEntity
  8
БЕРЕЗА ПОВИСЛАЯ
100
AcDbPoint
 10
32.70710678118655
 20
47.55634918610405
 30
0.0
  0
POINT
  5
3B7
330
17
100
AcDbEntity
  8
БЕРЕЗА ПОВИСЛАЯ
100
AcDbPoint
 10
37.65685424949238
 20
52.50609665440988
 30
0.0
  0
POINT
  5
3B8
330
17
100
AcDbEntity
  8
БЕРЕЗА ПОВИСЛАЯ
100
AcDbPoint
 10
42.60660171779821
 20
57.45584412271571
 30
0.0
  0
POINT
  5
3B9
330
17
100
AcDbEntity
  8
БЕРЕЗА ПОВИСЛАЯ
100
AcDbPoint
 10
47.55634918610404
 20
62.40559159102154
 30
0.0
  0
POINT
  5
3BA
330
17
100
AcDbEntity
  8
БЕРЕЗА ПОВИСЛАЯ
100
AcDbPoint
 10
3.0086219713515447
 20
37.65685424949237
 30
0.0
  0
POINT
  5
3BB
330
17
100
AcDbEntity
  8
БЕРЕЗА ПОВИСЛАЯ
100
AcDbPoint
 10
7.958369439657378
 20
42.606601717798206
 30
0.0
  0
POINT
  5
3BC
330
17
100
AcDbEntity
  8
БЕРЕЗА ПОВИСЛАЯ
100
AcDbPoint
 10
12.908116907963208
 20
47.556349186104036
 30
0.0
  0
POINT
  5
3BD
330
17
100
AcDbEntity
  8
БЕРЕЗА ПОВИСЛАЯ
100
AcDbPoint
 10
17.85786437626904
 20
52.506096654409866
 30
0.0
  0
POINT
  5
3BE
330
17
100
AcDbEntity
  8
БЕРЕЗА ПОВИСЛАЯ
100
AcDbPoint
 10
22.807611844574883
 20
57.45584412271571
 30
0.0
  0
POINT
  5
3BF
330
17
100
AcDbEntity
  8
БЕРЕЗА ПОВИСЛАЯ
100
AcDbPoint
 10
27.757359312880713
 20
62.40559159102154
 30
0.0
  0
POINT
  5
3C0
330
17
100
AcDbEntity
  8
БЕРЕЗА ПОВИСЛАЯ
100
AcDbPoint
 10
3.0086219713515447
 20
47.55634918610404
 30
0.0
  0
POINT
  5
3C1
330
17
100
AcDbEntity
  8
БЕРЕЗА ПОВИСЛАЯ
100
AcDbPoint
 10
7.958369439657375
 20
52.50609665440987
 30
0.0
  0
POINT
  5
3C2
330
17
100
AcDbEntity
  8
БЕРЕЗА ПОВИСЛАЯ
100
AcDbPoint
 10
12.908116907963205
 20
57.4558441227157
 30
0.0
  0
POINT
  5
3C3
330
17
100
AcDbEntity
  8
БЕРЕЗА ПОВИСЛАЯ
100
AcDbPoint
 10
17.85786437626905
 20
62.40559159102155
 30
0.0
  0
POINT
  5
3C4
330
17
100
AcDbEntity
  8
БЕРЕЗА ПОВИСЛАЯ
100
AcDbPoint
 10
3.008621971351541
 20
57.45584412271571
 30
0.0
  0
POINT
  5
3C5
330
17
100
AcDbEntity
  8
БЕРЕЗА ПОВИСЛАЯ
100
AcDbPoint
 10
7.958369439657371
 20
62.40559159102154
 30
0.0
  0
POINT
  5
3C7
330
17
100
AcDbEntity
  8
LAMPS
100
AcDbPoint
 10
44.7986327394765
 20
7.887658761538722
 30
0.0
  0
POINT
  5
3C8
330
17
100
AcDbEntity
  8
LAMPS
100
AcDbPoint
 10
53.849599538664314
 20
21.464108960320438
 30
0.0
  0
INSERT
  5
3CE
330
17
100
AcDbEntity
  8
BENCH
100
AcDbBlockReference
  2
BENCH_BLOCK
 10
37.79827560572968
 20
0.7458802715545882
 30
0.0
 50
44.99999999999986
  0
POINT
  5
3D1
330
17
100
AcDbEntity
  8
URN
100
AcDbPoint
 10
38.71751442127219
 20
1.6651190870970978
 30
0.0
  0
INSERT
  5
3D2
330
17
100
AcDbEntity
  8
BENCH
100
AcDbBlockReference
  2
BENCH_BLOCK
 10
51.940411229460636
 20
14.888015895285546
 30
0.0
 50
45.0
  0
POINT
  5
3D4
330
17
100
AcDbEntity
  8
URN
100
AcDbPoint
 10
52.85965004500315
 20
15.807254710828058
 30
0.0
  0
POINT
  5
3D5
330
17
100
AcDbEntity
  8
LAMPS
100
AcDbPoint
 10
16.37294013577729
 20
13.685934367268414
 30
0.0
  0
POINT
  5
3D6
330
17
100
AcDbEntity
  8
LAMPS
100
AcDbPoint
 10
29.94939033455901
 20
22.736901166456224
 30
0.0
  0
POINT
  5
3D7
330
17
100
AcDbEntity
  8
LAMPS
100
AcDbPoint
 10
39.00035713374682
 20
36.313351365237935
 30
0.0
  0
POINT
  5
3D8
330
17
100
AcDbEntity
  8
LAMPS
100
AcDbPoint
 10
52.576807332528524
 20
45.36431816442575
 30
0.0
  0
POINT
  5
3D9
330
17
100
AcDbEntity
  8
LAMPS
100
AcDbPoint
 10
61.627774131716336
 20
58.940768363207454
 30
0.0
  0
INSERT
  5
3DA
330
17
100
AcDbEntity
  8
BENCH
100
AcDbBlockReference
  2
BENCH_BLOCK
 10
8.806897577081235
 20
1.4529870527411444
 30
0.0
 50
45.0
  0
POINT
  5
3DC
330
17
100
AcDbEntity
  8
URN
100
AcDbPoint
 10
9.726136392623747
 20
2.3722258682836563
 30
0.0
  0
INSERT
  5
3DD
330
17
100
AcDbEntity
  8
BENCH
100
AcDbBlockReference
  2
BENCH_BLOCK
 10
22.949033200812185
 20
15.595122676472092
 30
0.0
 50
45.0
  0
POINT
  5
3DF
330
17
100
AcDbEntity
  8
URN
100
AcDbPoint
 10
23.868272016354698
 20
16.514361492014604
 30
0.0
  0
INSERT
  5
3E0
330
17
100
AcDbEntity
  8
BENCH
100
AcDbBlockReference
  2
BENCH_BLOCK
 10
37.09116882454314
 20
29.737258300203045
 30
0.0
 50
45.0
  0
POINT
  5
3E2
330
17
100
AcDbEntity
  8
URN
100
AcDbPoint
 10
38.01040764008565
 20
30.65649711574556
 30
0.0
  0
INSERT
  5
3E3
330
17
100
AcDbEntity
  8
BENCH
100
AcDbBlockReference
  2
BENCH_BLOCK
 10
51.23330444827408
 20
43.87939392393399
 30
0.0
 50
45.0
  0
POINT
  5
3E5
330
17
100
AcDbEntity
  8
LAMPS
100
AcDbPoint
 10
1.5236977308597957
 20
28.535176772185913
 30
0.0
  0
POINT
  5
3E6
330
17
100
AcDbEntity
  8
LAMPS
100
AcDbPoint
 10
15.100147929641514
 20
37.586143571373725
 30
0.0
  0
POINT
  5
3E7
330
17
100
AcDbEntity
  8
LAMPS
100
AcDbPoint
 10
24.151114728829317
 20
51.16259377015543
 30
0.0
  0
POINT
  5
3E8
330
17
100
AcDbEntity
  8
LAMPS
100
AcDbPoint
 10
37.72756492761103
 20
60.213560569343244
 30
0.0
  0
INSERT
  5
3E9
330
17
100
AcDbEntity
  8
BENCH
100
AcDbBlockReference
  2
BENCH_BLOCK
 10
8.099790795894686
 20
30.444365081389588
 30
0.0
 50
45.0
  0
POINT
  5
3EB
330
17
100
AcDbEntity
  8
URN
100
AcDbPoint
 10
9.019029611437198
 20
31.3636038969321
 30
0.0
  0
INSERT
  5
3EC
330
17
100
AcDbEntity
  8
BENCH
100
AcDbBlockReference
  2
BENCH_BLOCK
 10
22.241926419625642
 20
44.58650070512054
 30
0.0
 50
45.0
  0
POINT
  5
3EE
330
17
100
AcDbEntity
  8
URN
100
AcDbPoint
 10
23.161165235168156
 20
45.505739520663056
 30
0.0
  0
INSERT
  5
3EF
330
17
100
AcDbEntity
  8
BENCH
100
AcDbBlockReference
  2
BENCH_BLOCK
 10
36.384062043356586
 20
58.728636328851486
 30
0.0
 50
45.0
  0
ENDSEC
  0
SECTION
  2
OBJECTS
  0
DICTIONARY
  5
A
330
0
100
AcDbDictionary
281
1
  3
ACAD_COLOR
350
B
  3
ACAD_GROUP
350
C
  3
ACAD_LAYOUT
350
D
  3
ACAD_MATERIAL
350
E
  3
ACAD_MLEADERSTYLE
350
F
  3
ACAD_MLINESTYLE
350
10
  3
ACAD_PLOTSETTINGS
350
11
  3
ACAD_PLOTSTYLENAME
350
12
  3
ACAD_SCALELIST
350
14
  3
ACAD_TABLESTYLE
350
15
  3
ACAD_VISUALSTYLE
350
16
  3
EZDXF_META
350
2D
  0
DICTIONARY
  5
B
330
A
100
AcDbDictionary
281
1
  0
DICTIONARY
  5
C
330
A
100
AcDbDictionary
281
1
  0
DICTIONARY
  5
D
330
A
100
AcDbDictionary
281
1
  3
Model
350
1A
  3
Layout1
350
1E
  0
DICTIONARY
  5
E
330
A
100
AcDbDictionary
281
1
  3
ByBlock
350
1F
  3
ByLayer
350
20
  3
Global
350
21
  0
DICTIONARY
  5
F
330
A
100
AcDbDictionary
281
1
  3
Standard
350
2C
  0
DICTIONARY
  5
10
330
A
100
AcDbDictionary
281
1
  3
Standard
350
22
  0
DICTIONARY
  5
11
330
A
100
AcDbDictionary
281
1
  0
ACDBDICTIONARYWDFLT
  5
12
330
A
100
AcDbDictionary
281
1
  3
Normal
350
13
100
AcDbDictionaryWithDefault
340
13
  0
ACDBPLACEHOLDER
  5
13
330
12
  0
DICTIONARY
  5
14
330
A
100
AcDbDictionary
281
1
  0
DICTIONARY
  5
15
330
A
100
AcDbDictionary
281
1
  0
DICTIONARY
  5
16
330
A
100
AcDbDictionary
281
1
  0
LAYOUT
  5
1A
330
D
100
AcDbPlotSettings
  1

  4
A3
  6

 40
7.5
 41
20.0
 42
7.5
 43
20.0
 44
420.0
 45
297.0
 46
0.0
 47
0.0
 48
0.0
 49
0.0
140
0.0
141
0.0
142
1.0
143
1.0
 70
1024
 72
1
 73
0
 74
5
  7

 75
16
 76
0
 77
2
 78
300
147
1.0
148
0.0
149
0.0
100
AcDbLayout
  1
Model
 70
1
 71
0
 10
0.0
 20
0.0
 11
420.0
 21
297.0
 12
0.0
 22
0.0
 32
0.0
 14
1e+20
 24
1e+20
 34
1e+20
 15
-1e+20
 25
-1e+20
 35
-1e+20
146
0.0
 13
0.0
 23
0.0
 33
0.0
 16
1.0
 26
0.0
 36
0.0
 17
0.0
 27
1.0
 37
0.0
 76
1
330
17
  0
LAYOUT
  5
1E
330
D
100
AcDbPlotSettings
  1

  4
A3
  6

 40
7.5
 41
20.0
 42
7.5
 43
20.0
 44
420.0
 45
297.0
 46
0.0
 47
0.0
 48
0.0
 49
0.0
140
0.0
141
0.0
142
1.0
143
1.0
 70
0
 72
1
 73
0
 74
5
  7

 75
16
 76
0
 77
2
 78
300
147
1.0
148
0.0
149
0.0
100
AcDbLayout
  1
Layout1
 70
1
 71
1
 10
0.0
 20
0.0
 11
420.0
 21
297.0
 12
0.0
 22
0.0
 32
0.0
 14
1e+20
 24
1e+20
 34
1e+20
 15
-1e+20
 25
-1e+20
 35
-1e+20
146
0.0
 13
0.0
 23
0.0
 33
0.0
 16
1.0
 26
0.0
 36
0.0
 17
0.0
 27
1.0
 37
0.0
 76
1
330
1B
  0
MATERIAL
  5
1F
102
{ACAD_REACTORS
330
E
102
}
330
E
100
AcDbMaterial
  1
ByBlock
  2

 70
0
 40
1.0
 71
1
 41
1.0
 91
-1023410177
 42
1.0
 72
1
  3

 73
1
 74
1
 75
1
 44
0.5
 73
0
 45
1.0
 46
1.0
 77
1
  4

 78
1
 79
1
170
1
 48
1.0
171
1
  6

172
1
173
1
174
1
140
1.0
141
1.0
175
1
  7

176
1
177
1
178
1
143
1.0
179
1
  8

270
1
271
1
272
1
145
1.0
146
1.0
273
1
  9

274
1
275
1
276
1
 42
1.0
 72
1
  3

 73
1
 74
1
 75
1
 94
63
  0
MATERIAL
  5
20
102
{ACAD_REACTORS
330
E
102
}
330
E
100
AcDbMaterial
  1
ByLayer
  2

 70
0
 40
1.0
 71
1
 41
1.0
 91
-1023410177
 42
1.0
 72
1
  3

 73
1
 74
1
 75
1
 44
0.5
 73
0
 45
1.0
 46
1.0
 77
1
  4

 78
1
 79
1
170
1
 48
1.0
171
1
  6

172
1
173
1
174
1
140
1.0
141
1.0
175
1
  7

176
1
177
1
178
1
143
1.0
179
1
  8

270
1
271
1
272
1
145
1.0
146
1.0
273
1
  9

274
1
275
1
276
1
 42
1.0
 72
1
  3

 73
1
 74
1
 75
1
 94
63
  0
MATERIAL
  5
21
102
{ACAD_REACTORS
330
E
102
}
330
E
100
AcDbMaterial
  1
Global
  2

 70
0
 40
1.0
 71
1
 41
1.0
 91
-1023410177
 42
1.0
 72
1
  3

 73
1
 74
1
 75
1
 44
0.5
 73
0
 45
1.0
 46
1.0
 77
1
  4

 78
1
 79
1
170
1
 48
1.0
171
1
  6

172
1
173
1
174
1
140
1.0
141
1.0
175
1
  7

176
1
177
1
178
1
143
1.0
179
1
  8

270
1
271
1
272
1
145
1.0
146
1.0
273
1
  9

274
1
275
1
276
1
 42
1.0
 72
1
  3

 73
1
 74
1
 75
1
 94
63
  0
MLINESTYLE
  5
22
102
{ACAD_REACTORS
330
10
102
}
330
10
100
AcDbMlineStyle
  2
Standard
 70
0
  3

 62
256
 51
90.0
 52
90.0
 71
2
 49
0.5
 62
256
  6
BYLAYER
 49
-0.5
 62
256
  6
BYLAYER
  0
MLEADERSTYLE
  5
2C
102
{ACAD_REACTORS
330
F
102
}
330
F
100
AcDbMLeaderStyle
179
2
170
2
171
1
172
0
 90
2
 40
0.0
 41
0.0
173
1
 91
-1056964608
 92
-2
290
1
 42
2.0
291
1
 43
8.0
  3
Standard
 44
4.0
300

342
29
174
1
175
1
176
0
178
1
 93
-1056964608
 45
4.0
292
0
297
0
 46
4.0
 94
-1056964608
 47
1.0
 49
1.0
140
1.0
294
1
141
0.0
177
0
142
1.0
295
0
296
0
143
3.75
271
0
272
9
273
9
  0
DICTIONARY
  5
2D
330
A
100
AcDbDictionary
280
1
281
1
  3
CREATED_BY_EZDXF
350
2E
  3
WRITTEN_BY_EZDXF
350
3F3
  0
DICTIONARYVAR
  5
2E
330
2D
100
DictionaryVariables
280
0
  1
1.4.4 @ 2026-09-26T15:08:53.479296+00:00
  0
DICTIONARYVAR
  5
3F3
330
2D
100
DictionaryVariables
280
0
  1
1.4.4 @ 2026-09-26T15:08:53.485831+00:00
  0
ENDSEC
  0
EOF
