  0
SECTION
  2
HEADER
  9
$ACADVER
  1
AC1024
  9
$ACADMAINTVER
 70
6
  9
$DWGCODEPAGE
  3
ANSI_1252
  9
$LASTSAVEDBY
  1
ezdxf
  9
$INSBASE
 10
0.0
 20
0.0
 30
0.0
  9
$EXTMIN
 10
1e+20
 20
1e+20
 30
1e+20
  9
$EXTMAX
 10
-1e+20
 20
-1e+20
 30
-1e+20
  9
$LIMMIN
 10
0.0
 20
0.0
  9
$LIMMAX
 10
420.0
 20
297.0
  9
$ORTHOMODE
 70
0
  9
$REGENMODE
 70
1
  9
$FILLMODE
 70
1
  9
$QTEXTMODE
 70
0
  9
$MIRRTEXT
 70
1
  9
$LTSCALE
 40
1.0
  9
$ATTMODE
 70
1
  9
$TEXTSIZE
 40
2.5
  9
$TRACEWID
 40
1.0
  9
$TEXTSTYLE
  7
Standard
  9
$CLAYER
  8
0
  9
$CELTYPE
  6
ByLayer
  9
$CECOLOR
 62
256
  9
$CELTSCALE
 40
1.0
  9
$DISPSILH
 70
0
  9
$DIMSCALE
 40
1.0
  9
$DIMASZ
 40
2.5
  9
$DIMEXO
 40
0.625
  9
$DIMDLI
 40
3.75
  9
$DIMRND
 40
0.0
  9
$DIMDLE
 40
0.0
  9
$DIMEXE
 40
1.25
  9
$DIMTP
 40
0.0
  9
$DIMTM
 40
0.0
  9
$DIMTXT
 40
2.5
  9
$DIMCEN
 40
2.5
  9
$DIMTSZ
 40
0.0
  9
$DIMTOL
 70
0
  9
$DIMLIM
 70
0
  9
$DIMTIH
 70
0
  9
$DIMTOH
 70
0
  9
$DIMSE1
 70
0
  9
$DIMSE2
 70
0
  9
$DIMTAD
 70
1
  9
$DIMZIN
 70
8
  9
$DIMBLK
  1

  9
$DIMASO
 70
1
  9
$DIMSHO
 70
1
  9
$DIMPOST
  1

  9
$DIMAPOST
  1

  9
$DIMALT
 70
0
  9
$DIMALTD
 70
3
  9
$DIMALTF
 40
0.03937007874
  9
$DIMLFAC
 40
1.0
  9
$DIMTOFL
 70
1
  9
$DIMTVP
 40
0.0
  9
$DIMTIX
 70
0
  9
$DIMSOXD
 70
0
  9
$DIMSAH
 70
0
  9
$DIMBLK1
  1

  9
$DIMBLK2
  1

  9
$DIMSTYLE
  2
ISO-25
  9
$DIMCLRD
 70
0
  9
$DIMCLRE
 70
0
  9
$DIMCLRT
 70
0
  9
$DIMTFAC
 40
1.0
  9
$DIMGAP
 40
0.625
  9
$DIMJUST
 70
0
  9
$DIMSD1
 70
0
  9
$DIMSD2
 70
0
  9
$DIMTOLJ
 70
0
  9
$DIMTZIN
 70
8
  9
$DIMALTZ
 70
0
  9
$DIMALTTZ
 70
0
  9
$DIMUPT
 70
0
  9
$DIMDEC
 70
2
  9
$DIMTDEC
 70
2
  9
$DIMALTU
 70
2
  9
$DIMALTTD
 70
3
  9
$DIMTXSTY
  7
Standard
  9
$DIMAUNIT
 70
0
  9
$DIMADEC
 70
0
  9
$DIMALTRND
 40
0.0
  9
$DIMAZIN
 70
0
  9
$DIMDSEP
 70
44
  9
$DIMATFIT
 70
3
  9
$DIMFRAC
 70
0
  9
$DIMLDRBLK
  1

  9
$DIMLUNIT
 70
2
  9
$DIMLWD
 70
-2
  9
$DIMLWE
 70
-2
  9
$DIMTMOVE
 70
0
  9
$DIMFXL
 40
1.0
  9
$DIMFXLON
 70
0
  9
$DIMJOGANG
 40
0.785398163397
  9
$DIMTFILL
 70
0
  9
$DIMTFILLCLR
 70
0
  9
$DIMARCSYM
 70
0
  9
$DIMLTYPE
  6

  9
$DIMLTEX1
  6

  9
$DIMLTEX2
  6

  9
$DIMTXTDIRECTION
 70
0
  9
$LUNITS
 70
2
  9
$LUPREC
 70
4
  9
$SKETCHINC
 40
1.0
  9
$FILLETRAD
 40
10.0
  9
$AUNITS
 70
0
  9
$AUPREC
 70
2
  9
$MENU
  1
.
  9
$ELEVATION
 40
0.0
  9
$PELEVATION
 40
0.0
  9
$THICKNESS
 40
0.0
  9
$LIMCHECK
 70
0
  9
$CHAMFERA
 40
0.0
  9
$CHAMFERB
 40
0.0
  9
$CHAMFERC
 40
0.0
  9
$CHAMFERD
 40
0.0
  9
$SKPOLY
 70
0
  9
$TDCREATE
 40
2461305.7407523147
  9
$TDUCREATE
 40
2458532.153996898
  9
$TDUPDATE
 40
2461305.7407523147
  9
$TDUUPDATE
 40
2458532.1544311
  9
$TDINDWG
 40
0.0
  9
$TDUSRTIMER
 40
0.0
  9
$USRTIMER
 70
1
  9
$ANGBASE
 50
0.0
  9
$ANGDIR
 70
0
  9
$PDMODE
 70
0
  9
$PDSIZE
 40
0.0
  9
$PLINEWID
 40
0.0
  9
$SPLFRAME
 70
0
  9
$SPLINETYPE
 70
6
  9
$SPLINESEGS
 70
8
  9
$HANDSEED
  5
113
  9
$SURFTAB1
 70
6
  9
$SURFTAB2
 70
6
  9
$SURFTYPE
 70
6
  9
$SURFU
 70
6
  9
$SURFV
 70
6
  9
$UCSBASE
  2

  9
$UCSNAME
  2

  9
$UCSORG
 10
0.0
 20
0.0
 30
0.0
  9
$UCSXDIR
 10
1.0
 20
0.0
 30
0.0
  9
$UCSYDIR
 10
0.0
 20
1.0
 30
0.0
  9
$UCSORTHOREF
  2

  9
$UCSORTHOVIEW
 70
0
  9
$UCSORGTOP
 10
0.0
 20
0.0
 30
0.0
  9
$UCSORGBOTTOM
 10
0.0
 20
0.0
 30
0.0
  9
$UCSORGLEFT
 10
0.0
 20
0.0
 30
0.0
  9
$UCSORGRIGHT
 10
0.0
 20
0.0
 30
0.0
  9
$UCSORGFRONT
 10
0.0
 20
0.0
 30
0.0
  9
$UCSORGBACK
 10
0.0
 20
0.0
 30
0.0
  9
$PUCSBASE
  2

  9
$PUCSNAME
  2

  9
$PUCSORG
 10
0.0
 20
0.0
 30
0.0
  9
$PUCSXDIR
 10
1.0
 20
0.0
 30
0.0
  9
$PUCSYDIR
 10
0.0
 20
1.0
 30
0.0
  9
$PUCSORTHOREF
  2

  9
$PUCSORTHOVIEW
 70
0
  9
$PUCSORGTOP
 10
0.0
 20
0.0
 30
0.0
  9
$PUCSORGBOTTOM
 10
0.0
 20
0.0
 30
0.0
  9
$PUCSORGLEFT
 10
0.0
 20
0.0
 30
0.0
  9
$PUCSORGRIGHT
 10
0.0
 20
0.0
 30
0.0
  9
$PUCSORGFRONT
 10
0.0
 20
0.0
 30
0.0
  9
$PUCSORGBACK
 10
0.0
 20
0.0
 30
0.0
  9
$USERI1
 70
0
  9
$USERI2
 70
0
  9
$USERI3
 70
0
  9
$USERI4
 70
0
  9
$USERI5
 70
0
  9
$USERR1
 40
0.0
  9
$USERR2
 40
0.0
  9
$USERR3
 40
0.0
  9
$USERR4
 40
0.0
  9
$USERR5
 40
0.0
  9
$WORLDVIEW
 70
1
  9
$SHADEDGE
 70
3
  9
$SHADEDIF
 70
70
  9
$TILEMODE
 70
1
  9
$MAXACTVP
 70
64
  9
$PINSBASE
 10
0.0
 20
0.0
 30
0.0
  9
$PLIMCHECK
 70
0
  9
$PEXTMIN
 10
1e+20
 20
1e+20
 30
1e+20
  9
$PEXTMAX
 10
-1e+20
 20
-1e+20
 30
-1e+20
  9
$PLIMMIN
 10
0.0
 20
0.0
  9
$PLIMMAX
 10
420.0
 20
297.0
  9
$UNITMODE
 70
0
  9
$VISRETAIN
 70
1
  9
$PLINEGEN
 70
0
  9
$PSLTSCALE
 70
1
  9
$TREEDEPTH
 70
3020
  9
$CMLSTYLE
  2
Standard
  9
$CMLJUST
 70
0
  9
$CMLSCALE
 40
20.0
  9
$PROXYGRAPHICS
 70
1
  9
$MEASUREMENT
 70
1
  9
$CELWEIGHT
370
-1
  9
$ENDCAPS
280
0
  9
$JOINSTYLE
280
0
  9
$LWDISPLAY
290
0
  9
$INSUNITS
 70
6
  9
$HYPERLINKBASE
  1

  9
$STYLESHEET
  1

  9
$XEDIT
290
1
  9
$CEPSNTYPE
380
0
  9
$PSTYLEMODE
290
1
  9
$FINGERPRINTGUID
  2
{A0EED555-E61E-4D7B-8EE0-ED04429674C8}
  9
$VERSIONGUID
  2
{3A8BFECB-C09E-4CA3-B920-36FEE3F05FC6}
  9
$EXTNAMES
290
1
  9
$PSVPSCALE
 40
0.0
  9
$OLESTARTUP
290
0
  9
$SORTENTS
280
127
  9
$INDEXCTL
280
0
  9
$HIDETEXT
280
1
  9
$XCLIPFRAME
280
1
  9
$HALOGAP
280
0
  9
$OBSCOLOR
 70
257
  9
$OBSLTYPE
280
0
  9
$INTERSECTIONDISPLAY
280
0
  9
$INTERSECTIONCOLOR
 70
257
  9
$DIMASSOC
280
2
  9
$PROJECTNAME
  1

  9
$CAMERADISPLAY
290
0
  9
$LENSLENGTH
 40
50.0
  9
$CAMERAHEIGHT
 40
0.0
  9
$STEPSPERSEC
 40
24.0
  9
$STEPSIZE
 40
100.0
  9
$3DDWFPREC
 40
2.0
  9
$PSOLWIDTH
 40
0.005
  9
$PSOLHEIGHT
 40
0.08
  9
$LOFTANG1
 40
1.570796326795
  9
$LOFTANG2
 40
1.570796326795
  9
$LOFTMAG1
 40
0.0
  9
$LOFTMAG2
 40
0.0
  9
$LOFTPARAM
 70
7
  9
$LOFTNORMALS
280
1
  9
$LATITUDE
 40
37.795
  9
$LONGITUDE
 40
-122.394
  9
$NORTHDIRECTION
 40
0.0
  9
$TIMEZONE
 70
-8000
  9
$LIGHTGLYPHDISPLAY
280
1
  9
$TILEMODELIGHTSYNCH
280
1
  9
$CMATERIAL
347
20
  9
$SOLIDHIST
280
0
  9
$SHOWHIST
280
1
  9
$DWFFRAME
280
2
  9
$DGNFRAME
280
2
  9
$REALWORLDSCALE
290
1
  9
$INTERFERECOLOR
 62
256
  9
$CSHADOW
280
0
  9
$SHADOWPLANELOCATION
 40
0.0
  0
ENDSEC
  0
SECTION
  2
CLASSES
  0
CLASS
  1
ACDBDICTIONARYWDFLT
  2
AcDbDictionaryWithDefault
  3
ObjectDBX Classes
 90
0
 91
0
280
0
281
0
  0
CLASS
  1
SUN
  2
AcDbSun
  3
SCENEOE
 90
1153
 91
0
280
0
281
0
  0
CLASS
  1
VISUALSTYLE
  2
AcDbVisualStyle
  3
ObjectDBX Classes
 90
4095
 91
0
280
0
281
0
  0
CLASS
  1
MATERIAL
  2
AcDbMaterial
  3
ObjectDBX Classes
 90
1153
 91
0
280
0
281
0
  0
CLASS
  1
SCALE
  2
AcDbScale
  3
ObjectDBX Classes
 90
1153
 91
0
280
0
281
0
  0
CLASS
  1
TABLESTYLE
  2
AcDbTableStyle
  3
ObjectDBX Classes
 90
4095
 91
0
280
0
281
0
  0
CLASS
  1
MLEADERSTYLE
  2
AcDbMLeaderStyle
  3
ACDB_MLEADERSTYLE_CLASS
 90
4095
 91
0
280
0
281
0
  0
CLASS
  1
DICTIONARYVAR
  2
AcDbDictionaryVar
  3
ObjectDBX Classes
 90
0
 91
0
280
0
281
0
  0
CLASS
  1
CELLSTYLEMAP
  2
AcDbCellStyleMap
  3
ObjectDBX Classes
 90
1152
 91
0
280
0
281
0
  0
CLASS
  1
MENTALRAYRENDERSETTINGS
  2
AcDbMentalRayRenderSettings
  3
SCENEOE
 90
1024
 91
0
280
0
281
0
  0
CLASS
  1
ACDBDETAILVIEWSTYLE
  2
AcDbDetailViewStyle
  3
ObjectDBX Classes
 90
1025
 91
0
280
0
281
0
  0
CLASS
  1
ACDBSECTIONVIEWSTYLE
  2
AcDbSectionViewStyle
  3
ObjectDBX Classes
 90
1025
 91
0
280
0
281
0
  0
CLASS
  1
RASTERVARIABLES
  2
AcDbRasterVariables
  3
ISM
 90
0
 91
0
280
0
281
0
  0
CLASS
  1
ACDBPLACEHOLDER
  2
AcDbPlaceHolder
  3
ObjectDBX Classes
 90
0
 91
0
280
0
281
0
  0
CLASS
  1
LAYOUT
  2
AcDbLayout
  3
ObjectDBX Classes
 90
0
 91
0
280
0
281
0
  0
ENDSEC
  0
SECTION
  2
TABLES
  0
TABLE
  2
VPORT
  5
8
330
0
100
AcDbSymbolTable
 70
1
  0
VPORT
  5
23
330
8
100
AcDbSymbolTableRecord
100
AcDbViewportTableRecord
  2
*Active
 70
0
 10
0.0
 20
0.0
 11
1.0
 21
1.0
 12
0.0
 22
0.0
 13
0.0
 23
0.0
 14
0.5
 24
0.5
 15
0.5
 25
0.5
 16
0.0
 26
0.0
 36
1.0
 17
0.0
 27
0.0
 37
0.0
 40
1000.0
 41
1.34
 42
50.0
 43
0.0
 44
0.0
 50
0.0
 51
0.0
 71
0
 72
1000
 73
1
 74
3
 75
0
 76
0
 77
0
 78
0
281
0
 65
0
146
0.0
  0
ENDTAB
  0
TABLE
  2
LTYPE
  5
2
330
0
100
AcDbSymbolTable
 70
3
  0
LTYPE
  5
24
330
2
100
AcDbSymbolTableRecord
100
AcDbLinetypeTableRecord
  2
ByBlock
 70
0
  3

 72
65
 73
0
 40
0.0
  0
LTYPE
  5
25
330
2
100
AcDbSymbolTableRecord
100
AcDbLinetypeTableRecord
  2
ByLayer
 70
0
  3

 72
65
 73
0
 40
0.0
  0
LTYPE
  5
26
330
2
100
AcDbSymbolTableRecord
100
AcDbLinetypeTableRecord
  2
Continuous
 70
0
  3

 72
65
 73
0
 40
0.0
  0
ENDTAB
  0
TABLE
  2
LAYER
  5
1
330
0
100
AcDbSymbolTable
 70
5
  0
LAYER
  5
27
330
1
100
AcDbSymbolTableRecord
100
AcDbLayerTableRecord
  2
0
 70
0
 62
7
  6
Continuous
370
-3
390
13
347
21
  0
LAYER
  5
28
330
1
100
AcDbSymbolTableRecord
100
AcDbLayerTableRecord
  2
Defpoints
 70
0
 62
7
  6
Continuous
290
0
370
-3
390
13
347
21
  0
LAYER
  5
2F
330
1
100
AcDbSymbolTableRecord
100
AcDbLayerTableRecord
  2
TERRITORY_BOUNDARY
 70
0
 62
7
  6
Continuous
370
-3
390
13
347
21
  0
LAYER
  5
30
330
1
100
AcDbSymbolTableRecord
100
AcDbLayerTableRecord
  2
TREE
 70
0
 62
3
  6
Continuous
370
-3
390
13
347
21
  0
LAYER
  5
31
330
1
100
AcDbSymbolTableRecord
100
AcDbLayerTableRecord
  2
BUSH
 70
0
 62
2
  6
Continuous
370
-3
390
13
347
21
  0
ENDTAB
  0
TABLE
  2
STYLE
  5
5
330
0
100
AcDbSymbolTable
 70
1
  0
STYLE
  5
29
330
5
100
AcDbSymbolTableRecord
100
AcDbTextStyleTableRecord
  2
Standard
 70
0
 40
0.0
 41
1.0
 50
0.0
 71
0
 42
2.5
  3
txt
  4

  0
ENDTAB
  0
TABLE
  2
VIEW
  5
7
330
0
100
AcDbSymbolTable
 70
0
  0
ENDTAB
  0
TABLE
  2
UCS
  5
6
330
0
100
AcDbSymbolTable
 70
0
  0
ENDTAB
  0
TABLE
  2
APPID
  5
3
330
0
100
AcDbSymbolTable
 70
3
  0
APPID
  5
2A
330
3
100
AcDbSymbolTableRecord
100
AcDbRegAppTableRecord
  2
ACAD
 70
0
  0
APPID
  5
110
330
3
100
AcDbSymbolTableRecord
100
AcDbRegAppTableRecord
  2
HATCHBACKGROUNDCOLOR
 70
0
  0
APPID
  5
111
330
3
100
AcDbSymbolTableRecord
100
AcDbRegAppTableRecord
  2
EZDXF
 70
0
  0
ENDTAB
  0
TABLE
  2
DIMSTYLE
  5
4
330
0
100
AcDbSymbolTable
 70
1
100
AcDbDimStyleTable
  0
DIMSTYLE
105
2B
330
4
100
AcDbSymbolTableRecord
100
AcDbDimStyleTableRecord
  2
Standard
 70
0
 40
1.0
 41
2.5
 42
0.625
 43
3.75
 44
1.25
 45
0.0
 46
0.0
 47
0.0
 48
0.0
 49
2.5
140
2.5
141
2.5
142
0.0
143
0.03937007874
144
1.0
145
0.0
146
1.0
147
0.625
148
0.0
 69
0
 70
0
 71
0
 72
0
 73
0
 74
0
 75
0
 76
0
 77
1
 78
8
 79
3
170
0
171
3
172
1
173
0
174
0
175
0
176
0
177
0
178
0
179
2
271
2
272
2
273
2
274
3
275
0
276
0
277
2
278
44
279
0
280
0
281
0
282
0
283
0
284
8
285
0
286
0
288
0
289
3
290
0
371
-2
372
-2
  0
ENDTAB
  0
TABLE
  2
BLOCK_RECORD
  5
9
330
0
100
AcDbSymbolTable
 70
2
  0
BLOCK_RECORD
  5
17
330
9
100
AcDbSymbolTableRecord
100
AcDbBlockTableRecord
  2
*Model_Space
340
1A
 70
0
280
1
281
0
  0
BLOCK_RECORD
  5
1B
330
9
100
AcDbSymbolTableRecord
100
AcDbBlockTableRecord
  2
*Paper_Space
340
1E
 70
0
280
1
281
0
  0
ENDTAB
  0
ENDSEC
  0
SECTION
  2
BLOCKS
  0
BLOCK
  5
18
330
17
100
AcDbEntity
  8
0
100
AcDbBlockBegin
  2
*Model_Space
 70
0
 10
0.0
 20
0.0
 30
0.0
  3
*Model_Space
  1

  0
ENDBLK
  5
19
330
17
100
AcDbEntity
  8
0
100
AcDbBlockEnd
  0
BLOCK
  5
1C
330
1B
100
AcDbEntity
  8
0
100
AcDbBlockBegin
  2
*Paper_Space
 70
0
 10
0.0
 20
0.0
 30
0.0
  3
*Paper_Space
  1

  0
ENDBLK
  5
1D
330
1B
100
AcDbEntity
  8
0
100
AcDbBlockEnd
  0
ENDSEC
  0
SECTION
  2
ENTITIES
  0
LWPOLYLINE
  5
32
330
17
100
AcDbEntity
  8
TERRITORY_BOUNDARY
100
AcDbPolyline
 90
5
 70
1
 10
0.0
 20
0.0
 10
50.0
 20
0.0
 10
50.0
 20
36.0
 10
0.0
 20
36.0
 10
0.0
 20
0.0
  0
POINT
  5
33
330
17
100
AcDbEntity
  8
TREE
100
AcDbPoint
 10
42.64213562373095
 20
7.357864376269047
 30
0.0
  0
POINT
  5
34
330
17
100
AcDbEntity
  8
TREE
100
AcDbPoint
 10
39.81370849898476
 20
10.18629150101524
 30
0.0
  0
POINT
  5
35
330
17
100
AcDbEntity
  8
TREE
100
AcDbPoint
 10
36.98528137423857
 20
13.014718625761432
 30
0.0
  0
POINT
  5
36
330
17
100
AcDbEntity
  8
TREE
100
AcDbPoint
 10
34.156854249492376
 20
15.843145750507622
 30
0.0
  0
POINT
  5
37
330
17
100
AcDbEntity
  8
TREE
100
AcDbPoint
 10
30.656854249492383
 20
18.0
 30
0.0
  0
POINT
  5
38
330
17
100
AcDbEntity
  8
TREE
100
AcDbPoint
 10
25.0
 20
18.0
 30
0.0
  0
POINT
  5
39
330
17
100
AcDbEntity
  8
TREE
100
AcDbPoint
 10
19.343145750507617
 20
18.0
 30
0.0
  0
POINT
  5
3A
330
17
100
AcDbEntity
  8
TREE
100
AcDbPoint
 10
15.843145750507622
 20
20.156854249492376
 30
0.0
  0
POINT
  5
3B
330
17
100
AcDbEntity
  8
TREE
100
AcDbPoint
 10
13.014718625761427
 20
22.985281374238575
 30
0.0
  0
POINT
  5
3C
330
17
100
AcDbEntity
  8
TREE
100
AcDbPoint
 10
10.18629150101524
 20
25.81370849898476
 30
0.0
  0
POINT
  5
3D
330
17
100
AcDbEntity
  8
TREE
100
AcDbPoint
 10
7.357864376269047
 20
28.64213562373095
 30
0.0
  0
POINT
  5
3E
330
17
100
AcDbEntity
  8
BUSH
100
AcDbPoint
 10
38.7842712474619
 20
3.5
 30
0.0
  0
POINT
  5
3F
330
17
100
AcDbEntity
  8
BUSH
100
AcDbPoint
 10
39.886518212110204
 20
4.602246964648299
 30
0.0
  0
POINT
  5
40
330
17
100
AcDbEntity
  8
BUSH
100
AcDbPoint
 10
40.9887651767585
 20
5.704493929296598
 30
0.0
  0
POINT
  5
41
330
17
100
AcDbEntity
  8
BUSH
100
AcDbPoint
 10
42.0910121414068
 20
6.806740893944897
 30
0.0
  0
POINT
  5
42
330
17
100
AcDbEntity
  8
BUSH
100
AcDbPoint
 10
43.1932591060551
 20
7.908987858593196
 30
0.0
  0
POINT
  5
43
330
17
100
AcDbEntity
  8
BUSH
100
AcDbPoint
 10
44.295506070703404
 20
9.011234823241496
 30
0.0
  0
POINT
  5
44
330
17
100
AcDbEntity
  8
BUSH
100
AcDbPoint
 10
45.3977530353517
 20
10.113481787889794
 30
0.0
  0
POINT
  5
45
330
17
100
AcDbEntity
  8
BUSH
100
AcDbPoint
 10
46.5
 20
11.215728752538094
 30
0.0
  0
POINT
  5
46
330
17
100
AcDbEntity
  8
BUSH
100
AcDbPoint
 10
33.12741699796952
 20
3.5
 30
0.0
  0
POINT
  5
47
330
17
100
AcDbEntity
  8
BUSH
100
AcDbPoint
 10
34.24179891480539
 20
4.614381916835873
 30
0.0
  0
POINT
  5
48
330
17
100
AcDbEntity
  8
BUSH
100
AcDbPoint
 10
35.35618083164127
 20
5.728763833671747
 30
0.0
  0
POINT
  5
49
330
17
100
AcDbEntity
  8
BUSH
100
AcDbPoint
 10
36.470562748477136
 20
6.84314575050762
 30
0.0
  0
POINT
  5
4A
330
17
100
AcDbEntity
  8
BUSH
100
AcDbPoint
 10
37.58494466531301
 20
7.957527667343493
 30
0.0
  0
POINT
  5
4B
330
17
100
AcDbEntity
  8
BUSH
100
AcDbPoint
 10
38.699326582148885
 20
9.071909584179368
 30
0.0
  0
POINT
  5
4C
330
17
100
AcDbEntity
  8
BUSH
100
AcDbPoint
 10
39.81370849898476
 20
10.18629150101524
 30
0.0
  0
POINT
  5
4D
330
17
100
AcDbEntity
  8
BUSH
100
AcDbPoint
 10
40.928090415820634
 20
11.300673417851115
 30
0.0
  0
POINT
  5
4E
330
17
100
AcDbEntity
  8
BUSH
100
AcDbPoint
 10
42.0424723326565
 20
12.415055334686986
 30
0.0
  0
POINT
  5
4F
330
17
100
AcDbEntity
  8
BUSH
100
AcDbPoint
 10
43.15685424949238
 20
13.529437251522861
 30
0.0
  0
POINT
  5
50
330
17
100
AcDbEntity
  8
BUSH
100
AcDbPoint
 10
44.27123616632825
 20
14.643819168358736
 30
0.0
  0
POINT
  5
51
330
17
100
AcDbEntity
  8
BUSH
100
AcDbPoint
 10
45.385618083164125
 20
15.758201085194607
 30
0.0
  0
POINT
  5
52
330
17
100
AcDbEntity
  8
BUSH
100
AcDbPoint
 10
46.5
 20
16.87258300203048
 30
0.0
  0
POINT
  5
53
330
17
100
AcDbEntity
  8
BUSH
100
AcDbPoint
 10
27.47056274847714
 20
3.5
 30
0.0
  0
POINT
  5
54
330
17
100
AcDbEntity
  8
BUSH
100
AcDbPoint
 10
28.589941410331424
 20
4.619378661854286
 30
0.0
  0
POINT
  5
55
330
17
100
AcDbEntity
  8
BUSH
100
AcDbPoint
 10
29.70932007218571
 20
5.7387573237085725
 30
0.0
  0
POINT
  5
56
330
17
100
AcDbEntity
  8
BUSH
100
AcDbPoint
 10
30.828698734039996
 20
6.858135985562859
 30
0.0
  0
POINT
  5
57
330
17
100
AcDbEntity
  8
BUSH
100
AcDbPoint
 10
31.948077395894284
 20
7.977514647417144
 30
0.0
  0
POINT
  5
58
330
17
100
AcDbEntity
  8
BUSH
100
AcDbPoint
 10
33.06745605774857
 20
9.096893309271431
 30
0.0
  0
POINT
  5
59
330
17
100
AcDbEntity
  8
BUSH
100
AcDbPoint
 10
34.18683471960286
 20
10.216271971125717
 30
0.0
  0
POINT
  5
5A
330
17
100
AcDbEntity
  8
BUSH
100
AcDbPoint
 10
35.30621338145714
 20
11.335650632980002
 30
0.0
  0
POINT
  5
5B
330
17
100
AcDbEntity
  8
BUSH
100
AcDbPoint
 10
36.425592043311426
 20
12.455029294834288
 30
0.0
  0
POINT
  5
5C
330
17
100
AcDbEntity
  8
BUSH
100
AcDbPoint
 10
37.54497070516571
 20
13.574407956688576
 30
0.0
  0
POINT
  5
5D
330
17
100
AcDbEntity
  8
BUSH
100
AcDbPoint
 10
38.664349367019994
 20
14.693786618542862
 30
0.0
  0
POINT
  5
5E
330
17
100
AcDbEntity
  8
BUSH
100
AcDbPoint
 10
39.783728028874286
 20
15.813165280397149
 30
0.0
  0
POINT
  5
5F
330
17
100
AcDbEntity
  8
BUSH
100
AcDbPoint
 10
40.90310669072857
 20
16.932543942251435
 30
0.0
  0
POINT
  5
60
330
17
100
AcDbEntity
  8
BUSH
100
AcDbPoint
 10
42.022485352582855
 20
18.05192260410572
 30
0.0
  0
POINT
  5
61
330
17
100
AcDbEntity
  8
BUSH
100
AcDbPoint
 10
43.14186401443714
 20
19.171301265960004
 30
0.0
  0
POINT
  5
62
330
17
100
AcDbEntity
  8
BUSH
100
AcDbPoint
 10
44.26124267629143
 20
20.290679927814292
 30
0.0
  0
POINT
  5
63
330
17
100
AcDbEntity
  8
BUSH
100
AcDbPoint
 10
45.380621338145716
 20
21.410058589668576
 30
0.0
  0
POINT
  5
64
330
17
100
AcDbEntity
  8
BUSH
100
AcDbPoint
 10
46.5
 20
22.529437251522864
 30
0.0
  0
POINT
  5
65
330
17
100
AcDbEntity
  8
BUSH
100
AcDbPoint
 10
21.813708498984756
 20
3.5
 30
0.0
  0
POINT
  5
66
330
17
100
AcDbEntity
  8
BUSH
100
AcDbPoint
 10
22.887025520768027
 20
4.5733170217832715
 30
0.0
  0
POINT
  5
67
330
17
100
AcDbEntity
  8
BUSH
100
AcDbPoint
 10
23.9603425425513
 20
5.646634043566543
 30
0.0
  0
POINT
  5
68
330
17
100
AcDbEntity
  8
BUSH
100
AcDbPoint
 10
25.03365956433457
 20
6.7199510653498145
 30
0.0
  0
POINT
  5
69
330
17
100
AcDbEntity
  8
BUSH
100
AcDbPoint
 10
26.106976586117842
 20
7.793268087133086
 30
0.0
  0
POINT
  5
6A
330
17
100
AcDbEntity
  8
BUSH
100
AcDbPoint
 10
27.180293607901113
 20
8.866585108916357
 30
0.0
  0
POINT
  5
6B
330
17
100
AcDbEntity
  8
BUSH
100
AcDbPoint
 10
28.253610629684385
 20
9.939902130699629
 30
0.0
  0
POINT
  5
6C
330
17
100
AcDbEntity
  8
BUSH
100
AcDbPoint
 10
29.326927651467656
 20
11.0132191524829
 30
0.0
  0
POINT
  5
6D
330
17
100
AcDbEntity
  8
BUSH
100
AcDbPoint
 10
30.400244673250928
 20
12.086536174266172
 30
0.0
  0
POINT
  5
6E
330
17
100
AcDbEntity
  8
BUSH
100
AcDbPoint
 10
31.4735616950342
 20
13.159853196049443
 30
0.0
  0
POINT
  5
6F
330
17
100
AcDbEntity
  8
BUSH
100
AcDbPoint
 10
32.546878716817474
 20
14.233170217832715
 30
0.0
  0
POINT
  5
70
330
17
100
AcDbEntity
  8
BUSH
100
AcDbPoint
 10
33.62019573860074
 20
15.306487239615985
 30
0.0
  0
POINT
  5
71
330
17
100
AcDbEntity
  8
BUSH
100
AcDbPoint
 10
34.69351276038401
 20
16.379804261399258
 30
0.0
  0
POINT
  5
72
330
17
100
AcDbEntity
  8
BUSH
100
AcDbPoint
 10
35.766829782167285
 20
17.453121283182526
 30
0.0
  0
POINT
  5
73
330
17
100
AcDbEntity
  8
BUSH
100
AcDbPoint
 10
36.84014680395056
 20
18.5264383049658
 30
0.0
  0
POINT
  5
74
330
17
100
AcDbEntity
  8
BUSH
100
AcDbPoint
 10
37.91346382573383
 20
19.599755326749072
 30
0.0
  0
POINT
  5
75
330
17
100
AcDbEntity
  8
BUSH
100
AcDbPoint
 10
38.986780847517096
 20
20.673072348532344
 30
0.0
  0
POINT
  5
76
330
17
100
AcDbEntity
  8
BUSH
100
AcDbPoint
 10
40.06009786930037
 20
21.746389370315615
 30
0.0
  0
POINT
  5
77
330
17
100
AcDbEntity
  8
BUSH
100
AcDbPoint
 10
41.133414891083646
 20
22.819706392098887
 30
0.0
  0
POINT
  5
78
330
17
100
AcDbEntity
  8
BUSH
100
AcDbPoint
 10
42.206731912866914
 20
23.893023413882158
 30
0.0
  0
POINT
  5
79
330
17
100
AcDbEntity
  8
BUSH
100
AcDbPoint
 10
43.28004893465018
 20
24.96634043566543
 30
0.0
  0
POINT
  5
7A
330
17
100
AcDbEntity
  8
BUSH
100
AcDbPoint
 10
44.35336595643346
 20
26.0396574574487
 30
0.0
  0
POINT
  5
7B
330
17
100
AcDbEntity
  8
BUSH
100
AcDbPoint
 10
45.426682978216725
 20
27.11297447923197
 30
0.0
  0
POINT
  5
7C
330
17
100
AcDbEntity
  8
BUSH
100
AcDbPoint
 10
46.5
 20
28.186291501015244
 30
0.0
  0
POINT
  5
7D
330
17
100
AcDbEntity
  8
BUSH
100
AcDbPoint
 10
16.156854249492383
 20
3.5
 30
0.0
  0
POINT
  5
7E
330
17
100
AcDbEntity
  8
BUSH
100
AcDbPoint
 10
17.230928323566456
 20
4.574074074074074
 30
0.0
  0
POINT
  5
7F
330
17
100
AcDbEntity
  8
BUSH
100
AcDbPoint
 10
18.305002397640532
 20
5.648148148148148
 30
0.0
  0
POINT
  5
80
330
17
100
AcDbEntity
  8
BUSH
100
AcDbPoint
 10
19.379076471714605
 20
6.722222222222221
 30
0.0
  0
POINT
  5
81
330
17
100
AcDbEntity
  8
BUSH
100
AcDbPoint
 10
20.45315054578868
 20
7.796296296296296
 30
0.0
  0
POINT
  5
82
330
17
100
AcDbEntity
  8
BUSH
100
AcDbPoint
 10
21.527224619862753
 20
8.87037037037037
 30
0.0
  0
POINT
  5
83
330
17
100
AcDbEntity
  8
BUSH
100
AcDbPoint
 10
22.601298693936826
 20
9.944444444444443
 30
0.0
  0
POINT
  5
84
330
17
100
AcDbEntity
  8
BUSH
100
AcDbPoint
 10
23.675372768010902
 20
11.018518518518519
 30
0.0
  0
POINT
  5
85
330
17
100
AcDbEntity
  8
BUSH
100
AcDbPoint
 10
24.749446842084975
 20
12.092592592592592
 30
0.0
  0
POINT
  5
86
330
17
100
AcDbEntity
  8
BUSH
100
AcDbPoint
 10
25.823520916159048
 20
13.166666666666666
 30
0.0
  0
POINT
  5
87
330
17
100
AcDbEntity
  8
BUSH
100
AcDbPoint
 10
26.897594990233124
 20
14.24074074074074
 30
0.0
  0
POINT
  5
88
330
17
100
AcDbEntity
  8
BUSH
100
AcDbPoint
 10
27.9716690643072
 20
15.314814814814815
 30
0.0
  0
POINT
  5
89
330
17
100
AcDbEntity
  8
BUSH
100
AcDbPoint
 10
29.04574313838127
 20
16.388888888888886
 30
0.0
  0
POINT
  5
8A
330
17
100
AcDbEntity
  8
BUSH
100
AcDbPoint
 10
30.119817212455345
 20
17.462962962962962
 30
0.0
  0
POINT
  5
8B
330
17
100
AcDbEntity
  8
BUSH
100
AcDbPoint
 10
31.19389128652942
 20
18.537037037037038
 30
0.0
  0
POINT
  5
8C
330
17
100
AcDbEntity
  8
BUSH
100
AcDbPoint
 10
32.2679653606035
 20
19.61111111111111
 30
0.0
  0
POINT
  5
8D
330
17
100
AcDbEntity
  8
BUSH
100
AcDbPoint
 10
33.34203943467757
 20
20.685185185185183
 30
0.0
  0
POINT
  5
8E
330
17
100
AcDbEntity
  8
BUSH
100
AcDbPoint
 10
34.41611350875164
 20
21.75925925925926
 30
0.0
  0
POINT
  5
8F
330
17
100
AcDbEntity
  8
BUSH
100
AcDbPoint
 10
35.49018758282571
 20
22.833333333333332
 30
0.0
  0
POINT
  5
90
330
17
100
AcDbEntity
  8
BUSH
100
AcDbPoint
 10
36.56426165689979
 20
23.90740740740741
 30
0.0
  0
POINT
  5
91
330
17
100
AcDbEntity
  8
BUSH
100
AcDbPoint
 10
37.638335730973864
 20
24.98148148148148
 30
0.0
  0
POINT
  5
92
330
17
100
AcDbEntity
  8
BUSH
100
AcDbPoint
 10
38.71240980504794
 20
26.055555555555557
 30
0.0
  0
POINT
  5
93
330
17
100
AcDbEntity
  8
BUSH
100
AcDbPoint
 10
39.78648387912202
 20
27.12962962962963
 30
0.0
  0
POINT
  5
94
330
17
100
AcDbEntity
  8
BUSH
100
AcDbPoint
 10
40.86055795319609
 20
28.203703703703706
 30
0.0
  0
POINT
  5
95
330
17
100
AcDbEntity
  8
BUSH
100
AcDbPoint
 10
41.934632027270155
 20
29.27777777777777
 30
0.0
  0
POINT
  5
96
330
17
100
AcDbEntity
  8
BUSH
100
AcDbPoint
 10
43.00870610134423
 20
30.35185185185185
 30
0.0
  0
POINT
  5
97
330
17
100
AcDbEntity
  8
BUSH
100
AcDbPoint
 10
44.08278017541831
 20
31.425925925925927
 30
0.0
  0
POINT
  5
98
330
17
100
AcDbEntity
  8
BUSH
100
AcDbPoint
 10
45.15685424949238
 20
32.5
 30
0.0
  0
POINT
  5
99
330
17
100
AcDbEntity
  8
BUSH
100
AcDbPoint
 10
10.5
 20
3.5
 30
0.0
  0
POINT
  5
9A
330
17
100
AcDbEntity
  8
BUSH
100
AcDbPoint
 10
11.574074074074074
 20
4.574074074074074
 30
0.0
  0
POINT
  5
9B
330
17
100
AcDbEntity
  8
BUSH
100
AcDbPoint
 10
12.648148148148149
 20
5.648148148148148
 30
0.0
  0
POINT
  5
9C
330
17
100
AcDbEntity
  8
BUSH
100
AcDbPoint
 10
13.722222222222221
 20
6.722222222222221
 30
0.0
  0
POINT
  5
9D
330
17
100
AcDbEntity
  8
BUSH
100
AcDbPoint
 10
14.796296296296296
 20
7.796296296296296
 30
0.0
  0
POINT
  5
9E
330
17
100
AcDbEntity
  8
BUSH
100
AcDbPoint
 10
15.87037037037037
 20
8.87037037037037
 30
0.0
  0
POINT
  5
9F
330
17
100
AcDbEntity
  8
BUSH
100
AcDbPoint
 10
16.944444444444443
 20
9.944444444444443
 30
0.0
  0
POINT
  5
A0
330
17
100
AcDbEntity
  8
BUSH
100
AcDbPoint
 10
18.01851851851852
 20
11.018518518518519
 30
0.0
  0
POINT
  5
A1
330
17
100
AcDbEntity
  8
BUSH
100
AcDbPoint
 10
19.09259259259259
 20
12.092592592592592
 30
0.0
  0
POINT
  5
A2
330
17
100
AcDbEntity
  8
BUSH
100
AcDbPoint
 10
20.166666666666664
 20
13.166666666666666
 30
0.0
  0
POINT
  5
A3
330
17
100
AcDbEntity
  8
BUSH
100
AcDbPoint
 10
21.24074074074074
 20
14.24074074074074
 30
0.0
  0
POINT
  5
A4
330
17
100
AcDbEntity
  8
BUSH
100
AcDbPoint
 10
22.314814814814817
 20
15.314814814814815
 30
0.0
  0
POINT
  5
A5
330
17
100
AcDbEntity
  8
BUSH
100
AcDbPoint
 10
23.388888888888886
 20
16.388888888888886
 30
0.0
  0
POINT
  5
A6
330
17
100
AcDbEntity
  8
BUSH
100
AcDbPoint
 10
24.462962962962962
 20
17.462962962962962
 30
0.0
  0
POINT
  5
A7
330
17
100
AcDbEntity
  8
BUSH
100
AcDbPoint
 10
25.537037037037038
 20
18.537037037037038
 30
0.0
  0
POINT
  5
A8
330
17
100
AcDbEntity
  8
BUSH
100
AcDbPoint
 10
26.61111111111111
 20
19.61111111111111
 30
0.0
  0
POINT
  5
A9
330
17
100
AcDbEntity
  8
BUSH
100
AcDbPoint
 10
27.685185185185183
 20
20.685185185185183
 30
0.0
  0
POINT
  5
AA
330
17
100
AcDbEntity
  8
BUSH
100
AcDbPoint
 10
28.75925925925926
 20
21.75925925925926
 30
0.0
  0
POINT
  5
AB
330
17
100
AcDbEntity
  8
BUSH
100
AcDbPoint
 10
29.833333333333332
 20
22.833333333333332
 30
0.0
  0
POINT
  5
AC
330
17
100
AcDbEntity
  8
BUSH
100
AcDbPoint
 10
30.90740740740741
 20
23.90740740740741
 30
0.0
  0
POINT
  5
AD
330
17
100
AcDbEntity
  8
BUSH
100
AcDbPoint
 10
31.98148148148148
 20
24.98148148148148
 30
0.0
  0
POINT
  5
AE
330
17
100
AcDbEntity
  8
BUSH
100
AcDbPoint
 10
33.05555555555556
 20
26.055555555555557
 30
0.0
  0
POINT
  5
AF
330
17
100
AcDbEntity
  8
BUSH
100
AcDbPoint
 10
34.12962962962963
 20
27.12962962962963
 30
0.0
  0
POINT
  5
B0
330
17
100
AcDbEntity
  8
BUSH
100
AcDbPoint
 10
35.20370370370371
 20
28.203703703703706
 30
0.0
  0
POINT
  5
B1
330
17
100
AcDbEntity
  8
BUSH
100
AcDbPoint
 10
36.27777777777777
 20
29.27777777777777
 30
0.0
  0
POINT
  5
B2
330
17
100
AcDbEntity
  8
BUSH
100
AcDbPoint
 10
37.35185185185185
 20
30.35185185185185
 30
0.0
  0
POINT
  5
B3
330
17
100
AcDbEntity
  8
BUSH
100
AcDbPoint
 10
38.425925925925924
 20
31.425925925925927
 30
0.0
  0
POINT
  5
B4
330
17
100
AcDbEntity
  8
BUSH
100
AcDbPoint
 10
39.5
 20
32.5
 30
0.0
  0
POINT
  5
B5
330
17
100
AcDbEntity
  8
BUSH
100
AcDbPoint
 10
4.843145750507617
 20
3.5
 30
0.0
  0
POINT
  5
B6
330
17
100
AcDbEntity
  8
BUSH
100
AcDbPoint
 10
5.917219824581691
 20
4.574074074074074
 30
0.0
  0
POINT
  5
B7
330
17
100
AcDbEntity
  8
BUSH
100
AcDbPoint
 10
6.991293898655765
 20
5.648148148148148
 30
0.0
  0
POINT
  5
B8
330
17
100
AcDbEntity
  8
BUSH
100
AcDbPoint
 10
8.065367972729838
 20
6.722222222222221
 30
0.0
  0
POINT
  5
B9
330
17
100
AcDbEntity
  8
BUSH
100
AcDbPoint
 10
9.139442046803913
 20
7.796296296296296
 30
0.0
  0
POINT
  5
BA
330
17
100
AcDbEntity
  8
BUSH
100
AcDbPoint
 10
10.213516120877987
 20
8.87037037037037
 30
0.0
  0
POINT
  5
BB
330
17
100
AcDbEntity
  8
BUSH
100
AcDbPoint
 10
11.28759019495206
 20
9.944444444444443
 30
0.0
  0
POINT
  5
BC
330
17
100
AcDbEntity
  8
BUSH
100
AcDbPoint
 10
12.361664269026136
 20
11.018518518518519
 30
0.0
  0
POINT
  5
BD
330
17
100
AcDbEntity
  8
BUSH
100
AcDbPoint
 10
13.435738343100208
 20
12.092592592592592
 30
0.0
  0
POINT
  5
BE
330
17
100
AcDbEntity
  8
BUSH
100
AcDbPoint
 10
14.509812417174283
 20
13.166666666666666
 30
0.0
  0
POINT
  5
BF
330
17
100
AcDbEntity
  8
BUSH
100
AcDbPoint
 10
15.583886491248357
 20
14.24074074074074
 30
0.0
  0
POINT
  5
C0
330
17
100
AcDbEntity
  8
BUSH
100
AcDbPoint
 10
16.657960565322433
 20
15.314814814814815
 30
0.0
  0
POINT
  5
C1
330
17
100
AcDbEntity
  8
BUSH
100
AcDbPoint
 10
17.732034639396502
 20
16.388888888888886
 30
0.0
  0
POINT
  5
C2
330
17
100
AcDbEntity
  8
BUSH
100
AcDbPoint
 10
18.80610871347058
 20
17.462962962962962
 30
0.0
  0
POINT
  5
C3
330
17
100
AcDbEntity
  8
BUSH
100
AcDbPoint
 10
19.880182787544655
 20
18.537037037037038
 30
0.0
  0
POINT
  5
C4
330
17
100
AcDbEntity
  8
BUSH
100
AcDbPoint
 10
20.954256861618727
 20
19.61111111111111
 30
0.0
  0
POINT
  5
C5
330
17
100
AcDbEntity
  8
BUSH
100
AcDbPoint
 10
22.0283309356928
 20
20.685185185185183
 30
0.0
  0
POINT
  5
C6
330
17
100
AcDbEntity
  8
BUSH
100
AcDbPoint
 10
23.102405009766876
 20
21.75925925925926
 30
0.0
  0
POINT
  5
C7
330
17
100
AcDbEntity
  8
BUSH
100
AcDbPoint
 10
24.17647908384095
 20
22.833333333333332
 30
0.0
  0
POINT
  5
C8
330
17
100
AcDbEntity
  8
BUSH
100
AcDbPoint
 10
25.250553157915025
 20
23.90740740740741
 30
0.0
  0
POINT
  5
C9
330
17
100
AcDbEntity
  8
BUSH
100
AcDbPoint
 10
26.324627231989098
 20
24.98148148148148
 30
0.0
  0
POINT
  5
CA
330
17
100
AcDbEntity
  8
BUSH
100
AcDbPoint
 10
27.398701306063174
 20
26.055555555555557
 30
0.0
  0
POINT
  5
CB
330
17
100
AcDbEntity
  8
BUSH
100
AcDbPoint
 10
28.472775380137247
 20
27.12962962962963
 30
0.0
  0
POINT
  5
CC
330
17
100
AcDbEntity
  8
BUSH
100
AcDbPoint
 10
29.546849454211323
 20
28.203703703703706
 30
0.0
  0
POINT
  5
CD
330
17
100
AcDbEntity
  8
BUSH
100
AcDbPoint
 10
30.620923528285388
 20
29.27777777777777
 30
0.0
  0
POINT
  5
CE
330
17
100
AcDbEntity
  8
BUSH
100
AcDbPoint
 10
31.694997602359468
 20
30.35185185185185
 30
0.0
  0
POINT
  5
CF
330
17
100
AcDbEntity
  8
BUSH
100
AcDbPoint
 10
32.76907167643354
 20
31.425925925925927
 30
0.0
  0
POINT
  5
D0
330
17
100
AcDbEntity
  8
BUSH
100
AcDbPoint
 10
33.84314575050762
 20
32.5
 30
0.0
  0
POINT
  5
D1
330
17
100
AcDbEntity
  8
BUSH
100
AcDbPoint
 10
3.5
 20
7.813708498984758
 30
0.0
  0
POINT
  5
D2
330
17
100
AcDbEntity
  8
BUSH
100
AcDbPoint
 10
4.5733170217832715
 20
8.887025520768029
 30
0.0
  0
POINT
  5
D3
330
17
100
AcDbEntity
  8
BUSH
100
AcDbPoint
 10
5.646634043566543
 20
9.9603425425513
 30
0.0
  0
POINT
  5
D4
330
17
100
AcDbEntity
  8
BUSH
100
AcDbPoint
 10
6.7199510653498145
 20
11.033659564334572
 30
0.0
  0
POINT
  5
D5
330
17
100
AcDbEntity
  8
BUSH
100
AcDbPoint
 10
7.793268087133086
 20
12.106976586117842
 30
0.0
  0
POINT
  5
D6
330
17
100
AcDbEntity
  8
BUSH
100
AcDbPoint
 10
8.866585108916357
 20
13.180293607901113
 30
0.0
  0
POINT
  5
D7
330
17
100
AcDbEntity
  8
BUSH
100
AcDbPoint
 10
9.939902130699629
 20
14.253610629684385
 30
0.0
  0
POINT
  5
D8
330
17
100
AcDbEntity
  8
BUSH
100
AcDbPoint
 10
11.0132191524829
 20
15.326927651467656
 30
0.0
  0
POINT
  5
D9
330
17
100
AcDbEntity
  8
BUSH
100
AcDbPoint
 10
12.086536174266172
 20
16.400244673250928
 30
0.0
  0
POINT
  5
DA
330
17
100
AcDbEntity
  8
BUSH
100
AcDbPoint
 10
13.159853196049443
 20
17.4735616950342
 30
0.0
  0
POINT
  5
DB
330
17
100
AcDbEntity
  8
BUSH
100
AcDbPoint
 10
14.233170217832715
 20
18.54687871681747
 30
0.0
  0
POINT
  5
DC
330
17
100
AcDbEntity
  8
BUSH
100
AcDbPoint
 10
15.306487239615985
 20
19.620195738600742
 30
0.0
  0
POINT
  5
DD
330
17
100
AcDbEntity
  8
BUSH
100
AcDbPoint
 10
16.379804261399258
 20
20.693512760384014
 30
0.0
  0
POINT
  5
DE
330
17
100
AcDbEntity
  8
BUSH
100
AcDbPoint
 10
17.453121283182526
 20
21.766829782167285
 30
0.0
  0
POINT
  5
DF
330
17
100
AcDbEntity
  8
BUSH
100
AcDbPoint
 10
18.5264383049658
 20
22.840146803950557
 30
0.0
  0
POINT
  5
E0
330
17
100
AcDbEntity
  8
BUSH
100
AcDbPoint
 10
19.599755326749072
 20
23.913463825733828
 30
0.0
  0
POINT
  5
E1
330
17
100
AcDbEntity
  8
BUSH
100
AcDbPoint
 10
20.673072348532344
 20
24.986780847517096
 30
0.0
  0
POINT
  5
E2
330
17
100
AcDbEntity
  8
BUSH
100
AcDbPoint
 10
21.746389370315615
 20
26.06009786930037
 30
0.0
  0
POINT
  5
E3
330
17
100
AcDbEntity
  8
BUSH
100
AcDbPoint
 10
22.819706392098887
 20
27.13341489108364
 30
0.0
  0
POINT
  5
E4
330
17
100
AcDbEntity
  8
BUSH
100
AcDbPoint
 10
23.893023413882158
 20
28.206731912866914
 30
0.0
  0
POINT
  5
E5
330
17
100
AcDbEntity
  8
BUSH
100
AcDbPoint
 10
24.96634043566543
 20
29.280048934650182
 30
0.0
  0
POINT
  5
E6
330
17
100
AcDbEntity
  8
BUSH
100
AcDbPoint
 10
26.0396574574487
 20
30.353365956433457
 30
0.0
  0
POINT
  5
E7
330
17
100
AcDbEntity
  8
BUSH
100
AcDbPoint
 10
27.11297447923197
 20
31.426682978216725
 30
0.0
  0
POINT
  5
E8
330
17
100
AcDbEntity
  8
BUSH
100
AcDbPoint
 10
28.186291501015244
 20
32.5
 30
0.0
  0
POINT
  5
E9
330
17
100
AcDbEntity
  8
BUSH
100
AcDbPoint
 10
3.5
 20
13.470562748477144
 30
0.0
  0
POINT
  5
EA
330
17
100
AcDbEntity
  8
BUSH
100
AcDbPoint
 10
4.619378661854285
 20
14.58994141033143
 30
0.0
  0
POINT
  5
EB
330
17
100
AcDbEntity
  8
BUSH
100
AcDbPoint
 10
5.738757323708571
 20
15.709320072185715
 30
0.0
  0
POINT
  5
EC
330
17
100
AcDbEntity
  8
BUSH
100
AcDbPoint
 10
6.858135985562857
 20
16.828698734040003
 30
0.0
  0
POINT
  5
ED
330
17
100
AcDbEntity
  8
BUSH
100
AcDbPoint
 10
7.977514647417142
 20
17.948077395894288
 30
0.0
  0
POINT
  5
EE
330
17
100
AcDbEntity
  8
BUSH
100
AcDbPoint
 10
9.096893309271428
 20
19.067456057748572
 30
0.0
  0
POINT
  5
EF
330
17
100
AcDbEntity
  8
BUSH
100
AcDbPoint
 10
10.216271971125714
 20
20.18683471960286
 30
0.0
  0
POINT
  5
F0
330
17
100
AcDbEntity
  8
BUSH
100
AcDbPoint
 10
11.335650632979998
 20
21.306213381457145
 30
0.0
  0
POINT
  5
F1
330
17
100
AcDbEntity
  8
BUSH
100
AcDbPoint
 10
12.455029294834285
 20
22.425592043311433
 30
0.0
  0
POINT
  5
F2
330
17
100
AcDbEntity
  8
BUSH
100
AcDbPoint
 10
13.57440795668857
 20
23.544970705165717
 30
0.0
  0
POINT
  5
F3
330
17
100
AcDbEntity
  8
BUSH
100
AcDbPoint
 10
14.693786618542855
 20
24.66434936702
 30
0.0
  0
POINT
  5
F4
330
17
100
AcDbEntity
  8
BUSH
100
AcDbPoint
 10
15.813165280397142
 20
25.783728028874286
 30
0.0
  0
POINT
  5
F5
330
17
100
AcDbEntity
  8
BUSH
100
AcDbPoint
 10
16.932543942251428
 20
26.903106690728574
 30
0.0
  0
POINT
  5
F6
330
17
100
AcDbEntity
  8
BUSH
100
AcDbPoint
 10
18.051922604105712
 20
28.02248535258286
 30
0.0
  0
POINT
  5
F7
330
17
100
AcDbEntity
  8
BUSH
100
AcDbPoint
 10
19.171301265959997
 20
29.141864014437143
 30
0.0
  0
POINT
  5
F8
330
17
100
AcDbEntity
  8
BUSH
100
AcDbPoint
 10
20.29067992781428
 20
30.26124267629143
 30
0.0
  0
POINT
  5
F9
330
17
100
AcDbEntity
  8
BUSH
100
AcDbPoint
 10
21.41005858966857
 20
31.380621338145716
 30
0.0
  0
POINT
  5
FA
330
17
100
AcDbEntity
  8
BUSH
100
AcDbPoint
 10
22.529437251522854
 20
32.5
 30
0.0
  0
POINT
  5
FB
330
17
100
AcDbEntity
  8
BUSH
100
AcDbPoint
 10
3.5
 20
19.12741699796952
 30
0.0
  0
POINT
  5
FC
330
17
100
AcDbEntity
  8
BUSH
100
AcDbPoint
 10
4.614381916835873
 20
20.241798914805393
 30
0.0
  0
POINT
  5
FD
330
17
100
AcDbEntity
  8
BUSH
100
AcDbPoint
 10
5.728763833671747
 20
21.356180831641264
 30
0.0
  0
POINT
  5
FE
330
17
100
AcDbEntity
  8
BUSH
100
AcDbPoint
 10
6.84314575050762
 20
22.47056274847714
 30
0.0
  0
POINT
  5
FF
330
17
100
AcDbEntity
  8
BUSH
100
AcDbPoint
 10
7.957527667343493
 20
23.58494466531301
 30
0.0
  0
POINT
  5
100
330
17
100
AcDbEntity
  8
BUSH
100
AcDbPoint
 10
9.071909584179368
 20
24.699326582148885
 30
0.0
  0
POINT
  5
101
330
17
100
AcDbEntity
  8
BUSH
100
AcDbPoint
 10
10.18629150101524
 20
25.81370849898476
 30
0.0
  0
POINT
  5
102
330
17
100
AcDbEntity
  8
BUSH
100
AcDbPoint
 10
11.300673417851115
 20
26.928090415820634
 30
0.0
  0
POINT
  5
103
330
17
100
AcDbEntity
  8
BUSH
100
AcDbPoint
 10
12.415055334686986
 20
28.042472332656505
 30
0.0
  0
POINT
  5
104
330
17
100
AcDbEntity
  8
BUSH
100
AcDbPoint
 10
13.529437251522861
 20
29.15685424949238
 30
0.0
  0
POINT
  5
105
330
17
100
AcDbEntity
  8
BUSH
100
AcDbPoint
 10
14.643819168358736
 20
30.271236166328254
 30
0.0
  0
POINT
  5
106
330
17
100
AcDbEntity
  8
BUSH
100
AcDbPoint
 10
15.758201085194607
 20
31.385618083164125
 30
0.0
  0
POINT
  5
107
330
17
100
AcDbEntity
  8
BUSH
100
AcDbPoint
 10
16.87258300203048
 20
32.5
 30
0.0
  0
POINT
  5
108
330
17
100
AcDbEntity
  8
BUSH
100
AcDbPoint
 10
3.5
 20
24.784271247461906
 30
0.0
  0
POINT
  5
109
330
17
100
AcDbEntity
  8
BUSH
100
AcDbPoint
 10
4.602246964648299
 20
25.886518212110204
 30
0.0
  0
POINT
  5
10A
330
17
100
AcDbEntity
  8
BUSH
100
AcDbPoint
 10
5.704493929296598
 20
26.988765176758506
 30
0.0
  0
POINT
  5
10B
330
17
100
AcDbEntity
  8
BUSH
100
AcDbPoint
 10
6.806740893944896
 20
28.091012141406804
 30
0.0
  0
POINT
  5
10C
330
17
100
AcDbEntity
  8
BUSH
100
AcDbPoint
 10
7.908987858593196
 20
29.193259106055102
 30
0.0
  0
POINT
  5
10D
330
17
100
AcDbEntity
  8
BUSH
100
AcDbPoint
 10
9.011234823241496
 20
30.295506070703404
 30
0.0
  0
POINT
  5
10E
330
17
100
AcDbEntity
  8
BUSH
100
AcDbPoint
 10
10.113481787889793
 20
31.3977530353517
 30
0.0
  0
POINT
  5
10F
330
17
100
AcDbEntity
  8
BUSH
100
AcDbPoint
 10
11.215728752538094
 20
32.5
 30
0.0
  0
ENDSEC
  0
SECTION
  2
OBJECTS
  0
DICTIONARY
  5
A
330
0
100
AcDbDictionary
281
1
  3
ACAD_COLOR
350
B
  3
ACAD_GROUP
350
C
  3
ACAD_LAYOUT
350
D
  3
ACAD_MATERIAL
350
E
  3
ACAD_MLEADERSTYLE
350
F
  3
ACAD_MLINESTYLE
350
10
  3
ACAD_PLOTSETTINGS
350
11
  3
ACAD_PLOTSTYLENAME
350
12
  3
ACAD_SCALELIST
350
14
  3
ACAD_TABLESTYLE
350
15
  3
ACAD_VISUALSTYLE
350
16
  3
EZDXF_META
350
2D
  0
DICTIONARY
  5
B
330
A
100
AcDbDictionary
281
1
  0
DICTIONARY
  5
C
330
A
100
AcDbDictionary
281
1
  0
DICTIONARY
  5
D
330
A
100
AcDbDictionary
281
1
  3
Model
350
1A
  3
Layout1
350
1E
  0
DICTIONARY
  5
E
330
A
100
AcDbDictionary
281
1
  3
ByBlock
350
1F
  3
ByLayer
350
20
  3
Global
350
21
  0
DICTIONARY
  5
F
330
A
100
AcDbDictionary
281
1
  3
Standard
350
2C
  0
DICTIONARY
  5
10
330
A
100
AcDbDictionary
281
1
  3
Standard
350
22
  0
DICTIONARY
  5
11
330
A
100
AcDbDictionary
281
1
  0
ACDBDICTIONARYWDFLT
  5
12
330
A
100
AcDbDictionary
281
1
  3
Normal
350
13
100
AcDbDictionaryWithDefault
340
13
  0
ACDBPLACEHOLDER
  5
13
330
12
  0
DICTIONARY
  5
14
330
A
100
AcDbDictionary
281
1
  0
DICTIONARY
  5
15
330
A
100
AcDbDictionary
281
1
  0
DICTIONARY
  5
16
330
A
100
AcDbDictionary
281
1
  0
LAYOUT
  5
1A
330
D
100
AcDbPlotSettings
  1

  4
A3
  6

 40
7.5
 41
20.0
 42
7.5
 43
20.0
 44
420.0
 45
297.0
 46
0.0
 47
0.0
 48
0.0
 49
0.0
140
0.0
141
0.0
142
1.0
143
1.0
 70
1024
 72
1
 73
0
 74
5
  7

 75
16
 76
0
 77
2
 78
300
147
1.0
148
0.0
149
0.0
100
AcDbLayout
  1
Model
 70
1
 71
0
 10
0.0
 20
0.0
 11
420.0
 21
297.0
 12
0.0
 22
0.0
 32
0.0
 14
1e+20
 24
1e+20
 34
1e+20
 15
-1e+20
 25
-1e+20
 35
-1e+20
146
0.0
 13
0.0
 23
0.0
 33
0.0
 16
1.0
 26
0.0
 36
0.0
 17
0.0
 27
1.0
 37
0.0
 76
1
330
17
  0
LAYOUT
  5
1E
330
D
100
AcDbPlotSettings
  1

  4
A3
  6

 40
7.5
 41
20.0
 42
7.5
 43
20.0
 44
420.0
 45
297.0
 46
0.0
 47
0.0
 48
0.0
 49
0.0
140
0.0
141
0.0
142
1.0
143
1.0
 70
0
 72
1
 73
0
 74
5
  7

 75
16
 76
0
 77
2
 78
300
147
1.0
148
0.0
149
0.0
100
AcDbLayout
  1
Layout1
 70
1
 71
1
 10
0.0
 20
0.0
 11
420.0
 21
297.0
 12
0.0
 22
0.0
 32
0.0
 14
1e+20
 24
1e+20
 34
1e+20
 15
-1e+20
 25
-1e+20
 35
-1e+20
146
0.0
 13
0.0
 23
0.0
 33
0.0
 16
1.0
 26
0.0
 36
0.0
 17
0.0
 27
1.0
 37
0.0
 76
1
330
1B
  0
MATERIAL
  5
1F
102
{ACAD_REACTORS
330
E
102
}
330
E
100
AcDbMaterial
  1
ByBlock
  2

 70
0
 40
1.0
 71
1
 41
1.0
 91
-1023410177
 42
1.0
 72
1
  3

 73
1
 74
1
 75
1
 44
0.5
 73
0
 45
1.0
 46
1.0
 77
1
  4

 78
1
 79
1
170
1
 48
1.0
171
1
  6

172
1
173
1
174
1
140
1.0
141
1.0
175
1
  7

176
1
177
1
178
1
143
1.0
179
1
  8

270
1
271
1
272
1
145
1.0
146
1.0
273
1
  9

274
1
275
1
276
1
 42
1.0
 72
1
  3

 73
1
 74
1
 75
1
 94
63
  0
MATERIAL
  5
20
102
{ACAD_REACTORS
330
E
102
}
330
E
100
AcDbMaterial
  1
ByLayer
  2

 70
0
 40
1.0
 71
1
 41
1.0
 91
-1023410177
 42
1.0
 72
1
  3

 73
1
 74
1
 75
1
 44
0.5
 73
0
 45
1.0
 46
1.0
 77
1
  4

 78
1
 79
1
170
1
 48
1.0
171
1
  6

172
1
173
1
174
1
140
1.0
141
1.0
175
1
  7

176
1
177
1
178
1
143
1.0
179
1
  8

270
1
271
1
272
1
145
1.0
146
1.0
273
1
  9

274
1
275
1
276
1
 42
1.0
 72
1
  3

 73
1
 74
1
 75
1
 94
63
  0
MATERIAL
  5
21
102
{ACAD_REACTORS
330
E
102
}
330
E
100
AcDbMaterial
  1
Global
  2

 70
0
 40
1.0
 71
1
 41
1.0
 91
-1023410177
 42
1.0
 72
1
  3

 73
1
 74
1
 75
1
 44
0.5
 73
0
 45
1.0
 46
1.0
 77
1
  4

 78
1
 79
1
170
1
 48
1.0
171
1
  6

172
1
173
1
174
1
140
1.0
141
1.0
175
1
  7

176
1
177
1
178
1
143
1.0
179
1
  8

270
1
271
1
272
1
145
1.0
146
1.0
273
1
  9

274
1
275
1
276
1
 42
1.0
 72
1
  3

 73
1
 74
1
 75
1
 94
63
  0
MLINESTYLE
  5
22
102
{ACAD_REACTORS
330
10
102
}
330
10
100
AcDbMlineStyle
  2
Standard
 70
0
  3

 62
256
 51
90.0
 52
90.0
 71
2
 49
0.5
 62
256
  6
BYLAYER
 49
-0.5
 62
256
  6
BYLAYER
  0
MLEADERSTYLE
  5
2C
102
{ACAD_REACTORS
330
F
102
}
330
F
100
AcDbMLeaderStyle
179
2
170
2
171
1
172
0
 90
2
 40
0.0
 41
0.0
173
1
 91
-1056964608
 92
-2
290
1
 42
2.0
291
1
 43
8.0
  3
Standard
 44
4.0
300

342
29
174
1
175
1
176
0
178
1
 93
-1056964608
 45
4.0
292
0
297
0
 46
4.0
 94
-1056964608
 47
1.0
 49
1.0
140
1.0
294
1
141
0.0
177
0
142
1.0
295
0
296
0
143
3.75
271
0
272
9
273
9
  0
DICTIONARY
  5
2D
330
A
100
AcDbDictionary
280
1
281
1
  3
CREATED_BY_EZDXF
350
2E
  3
WRITTEN_BY_EZDXF
350
112
  0
DICTIONARYVAR
  5
2E
330
2D
100
DictionaryVariables
280
0
  1
1.4.4 @ 2026-09-21T14:46:41.746650+00:00
  0
DICTIONARYVAR
  5
112
330
2D
100
DictionaryVariables
280
0
  1
1.4.4 @ 2026-09-21T14:46:41.751079+00:00
  0
ENDSEC
  0
EOF
